<?xml version="1.0" encoding="UTF-8"?>
<svg width="80px" height="80px" viewBox="0 0 80 80" version="1.1" xmlns="http://www.w3.org/2000/svg" xmlns:xlink="http://www.w3.org/1999/xlink">
    <title>2-2</title>
    <defs>
        <linearGradient x1="50%" y1="4.40946186%" x2="50%" y2="95.2917489%" id="linearGradient-1">
            <stop stop-color="#C4DAFF" stop-opacity="0.557048664" offset="0%"></stop>
            <stop stop-color="#BFD7FF" stop-opacity="0.148210432" offset="100%"></stop>
        </linearGradient>
        <linearGradient x1="50%" y1="0%" x2="50%" y2="100%" id="linearGradient-2">
            <stop stop-color="#4086FD" stop-opacity="0.0454186926" offset="0%"></stop>
            <stop stop-color="#4086FD" stop-opacity="0.130374508" offset="0%"></stop>
            <stop stop-color="#4086FD" stop-opacity="0.0514231862" offset="100%"></stop>
        </linearGradient>
        <path d="M4.86202478,0 L62.1379752,0 C64.8231974,3.38846699e-15 67,2.17680264 67,4.86202478 L67,44.4769583 C67,47.1621804 64.8231974,49.3389831 62.1379752,49.3389831 L4.86202478,49.3389831 C2.17680264,49.3389831 3.01810099e-15,47.1621804 0,44.4769583 L0,4.86202478 C-1.21702329e-15,2.17680264 2.17680264,-3.94911115e-16 4.86202478,0 Z" id="path-3"></path>
        <filter x="-10.4%" y="-10.1%" width="120.9%" height="128.4%" filterUnits="objectBoundingBox" id="filter-4">
            <feOffset dx="0" dy="2" in="SourceAlpha" result="shadowOffsetOuter1"></feOffset>
            <feGaussianBlur stdDeviation="2" in="shadowOffsetOuter1" result="shadowBlurOuter1"></feGaussianBlur>
            <feComposite in="shadowBlurOuter1" in2="SourceAlpha" operator="out" result="shadowBlurOuter1"></feComposite>
            <feColorMatrix values="0 0 0 0 0.204737413   0 0 0 0 0.418516171   0 0 0 0 0.719076405  0 0 0 0.1 0" type="matrix" in="shadowBlurOuter1"></feColorMatrix>
        </filter>
        <filter x="-46.2%" y="-46.2%" width="192.3%" height="192.3%" filterUnits="objectBoundingBox" id="filter-5">
            <feOffset dx="0" dy="3" in="SourceAlpha" result="shadowOffsetOuter1"></feOffset>
            <feGaussianBlur stdDeviation="1.5" in="shadowOffsetOuter1" result="shadowBlurOuter1"></feGaussianBlur>
            <feColorMatrix values="0 0 0 0 0.521568627   0 0 0 0 0.698039216   0 0 0 0 1  0 0 0 0.3 0" type="matrix" in="shadowBlurOuter1" result="shadowMatrixOuter1"></feColorMatrix>
            <feMerge>
                <feMergeNode in="shadowMatrixOuter1"></feMergeNode>
                <feMergeNode in="SourceGraphic"></feMergeNode>
            </feMerge>
        </filter>
    </defs>
    <g id="页面-1" stroke="none" stroke-width="1" fill="none" fill-rule="evenodd">
        <g id="画板" transform="translate(-255.000000, -201.000000)">
            <g id="2-2" transform="translate(255.000000, 201.000000)">
                <rect id="矩形" x="0" y="0" width="80" height="80"></rect>
                <g id="编组-4" transform="translate(6.984375, 9.000000)">
                    <g id="矩形">
                        <use fill="black" fill-opacity="1" filter="url(#filter-4)" xlink:href="#path-3"></use>
                        <path stroke="url(#linearGradient-2)" stroke-width="0.9975" d="M62.1379752,0.49875 C63.3428603,0.49875 64.433679,0.987126165 65.2232764,1.7767236 C66.0128738,2.56632103 66.50125,3.65713972 66.50125,4.86202478 L66.50125,44.4769583 C66.50125,45.6818433 66.0128738,46.772662 65.2232764,47.5622595 C64.433679,48.3518569 63.3428603,48.8402331 62.1379752,48.8402331 L4.86202478,48.8402331 C3.65713972,48.8402331 2.56632103,48.3518569 1.7767236,47.5622595 C0.987126165,46.772662 0.49875,45.6818433 0.49875,44.4769583 L0.49875,4.86202478 C0.49875,3.65713972 0.987126165,2.56632103 1.7767236,1.7767236 C2.56632103,0.987126165 3.65713972,0.49875 4.86202478,0.49875 Z" stroke-linejoin="square" fill="url(#linearGradient-1)" fill-rule="evenodd"></path>
                    </g>
                    <g id="分叉,大数据,数据结构,关系,关系分析,关系网,组织" filter="url(#filter-5)" transform="translate(20.000000, 12.000000)" fill-rule="nonzero">
                        <rect id="矩形" fill="#000000" opacity="0" x="6.0005962e-06" y="0" width="25.999994" height="25.999994"></rect>
                        <path d="M19.2943375,8.25700395 C19.1419938,8.40934767 19.1343766,8.65309761 19.2765641,8.81305851 C20.1703138,9.81852703 20.7162122,11.1413783 20.7162122,12.5937217 C20.7162122,14.4345416 19.8427749,16.0696721 18.4869158,17.1106875 C18.3244412,17.2351015 18.2787381,17.461078 18.3828396,17.6362733 L19.3603785,19.3323666 C19.4441675,19.4770932 19.6041284,19.553265 19.7691675,19.5304135 C19.9215112,19.510101 20.0763939,19.4999447 20.2338158,19.4999447 C22.0136982,19.51264 23.483815,21.0157647 23.4609635,22.793108 C23.4381119,24.5602697 22.0035419,25.9872225 20.2338158,25.9999999 C18.4336209,26.0126131 16.960965,24.5501135 16.960965,22.7499186 C16.960965,21.782536 17.3849883,20.9141768 18.0553007,20.3174973 L16.8873322,18.296404 C16.795926,18.1389821 16.6131135,18.0602712 16.4379182,18.1059743 C15.9885043,18.2202321 15.5162387,18.2811696 15.0312779,18.2811696 C12.2789348,18.2811696 9.98364823,16.3261173 9.45806241,13.728657 C9.41997648,13.5407664 9.2523984,13.4061961 9.05942969,13.4061961 L6.72349273,13.4061961 C6.54829746,13.4061961 6.39341468,13.5204539 6.33755532,13.688032 C5.91099292,14.9854926 4.68970414,15.9198674 3.25005603,15.9198674 C1.44734746,15.9198674 -0.0126131371,14.4522896 0,12.6470166 C0.0102384201,10.8544389 1.48797245,9.40209549 3.28055017,9.41986892 C4.65672172,9.43256423 5.82976833,10.3034625 6.28933853,11.5222122 C6.34773696,11.679634 6.50008067,11.7811965 6.66765876,11.7811965 L9.05691602,11.7811965 C9.24988473,11.7811965 9.41492375,11.6466262 9.45554874,11.4587356 C9.98108378,8.86130069 12.2763957,6.90624841 15.0287135,6.90624841 C15.8869164,6.90624841 16.7019553,7.09667805 17.4332051,7.43945141 C17.5880879,7.5130842 17.7734394,7.48261546 17.8953144,7.36074049 L19.7335952,5.52245966 C19.8554702,5.40058469 19.891017,5.21523317 19.8148452,5.06035039 C19.6117202,4.63632705 19.4974624,4.15898342 19.4974624,3.65878822 C19.4974624,1.86367144 20.9523449,0.408788968 22.7474617,0.408788968 C24.5400394,0.408788968 25.9974355,1.86621051 25.9974355,3.65878822 C25.9974355,5.45390499 24.5425531,6.90878897 22.7474363,6.90878897 C22.244702,6.90878897 21.7698975,6.79452968 21.3458741,6.59140473 C21.1909913,6.51777193 21.0056398,6.55077974 20.8837649,6.67265471 L19.2943121,8.25702934 L19.2943375,8.25700395 Z" id="路径" fill="#FFFFFF"></path>
                    </g>
                </g>
            </g>
        </g>
    </g>
</svg>