<?xml version="1.0" encoding="UTF-8"?>
<svg width="80px" height="80px" viewBox="0 0 80 80" version="1.1" xmlns="http://www.w3.org/2000/svg" xmlns:xlink="http://www.w3.org/1999/xlink">
    <title>3-1</title>
    <defs>
        <ellipse id="path-1" cx="22.6376193" cy="23" rx="22.6376193" ry="23"></ellipse>
        <filter x="-8.1%" y="-7.9%" width="116.1%" height="115.9%" filterUnits="objectBoundingBox" id="filter-3">
            <feOffset dx="4" dy="-2" in="SourceAlpha" result="shadowOffsetOuter1"></feOffset>
            <feGaussianBlur stdDeviation="2" in="shadowOffsetOuter1" result="shadowBlurOuter1"></feGaussianBlur>
            <feColorMatrix values="0 0 0 0 0.0900779012   0 0 0 0 0.275902176   0 0 0 0 0.665282319  0 0 0 0.29834838 0" type="matrix" in="shadowBlurOuter1" result="shadowMatrixOuter1"></feColorMatrix>
            <feMerge>
                <feMergeNode in="shadowMatrixOuter1"></feMergeNode>
                <feMergeNode in="SourceGraphic"></feMergeNode>
            </feMerge>
        </filter>
        <linearGradient x1="80.8817119%" y1="13.4569132%" x2="19.2008713%" y2="90.7564881%" id="linearGradient-4">
            <stop stop-color="#FFFFFF" stop-opacity="0" offset="0%"></stop>
            <stop stop-color="#4086FD" stop-opacity="0.07" offset="100%"></stop>
        </linearGradient>
        <linearGradient x1="87.9700927%" y1="14.8339642%" x2="35.3065824%" y2="94.5264831%" id="linearGradient-5">
            <stop stop-color="#FFFFFF" stop-opacity="0.45" offset="0%"></stop>
            <stop stop-color="#4086FD" stop-opacity="0.07" offset="100%"></stop>
        </linearGradient>
        <linearGradient x1="80.8381409%" y1="13.4569132%" x2="19.2443259%" y2="90.7564881%" id="linearGradient-6">
            <stop stop-color="#FFFFFF" stop-opacity="0" offset="0%"></stop>
            <stop stop-color="#4086FD" stop-opacity="0.07" offset="100%"></stop>
        </linearGradient>
        <linearGradient x1="87.9165206%" y1="14.8339642%" x2="35.3273134%" y2="94.5264831%" id="linearGradient-7">
            <stop stop-color="#FFFFFF" stop-opacity="0.45" offset="0%"></stop>
            <stop stop-color="#4086FD" stop-opacity="0.07" offset="100%"></stop>
        </linearGradient>
    </defs>
    <g id="页面-1" stroke="none" stroke-width="1" fill="none" fill-rule="evenodd">
        <g id="画板" transform="translate(-425.000000, -96.000000)">
            <g id="3-1" transform="translate(425.000000, 96.000000)">
                <rect id="矩形" x="0" y="0" width="80" height="80"></rect>
                <g id="编组-6" transform="translate(31.051157, 8.636364)">
                    <mask id="mask-2" fill="white">
                        <use xlink:href="#path-1"></use>
                    </mask>
                    <ellipse stroke="#639DFF" stroke-width="1.0815" cx="22.6376193" cy="23" rx="22.0968693" ry="22.45925"></ellipse>
                    <g id="编组-7" filter="url(#filter-3)" opacity="0" mask="url(#mask-2)" fill-rule="nonzero" stroke-width="1.0815">
                        <g transform="translate(-26.051157, 8.090909)" id="路径">
                            <path d="M55.1255105,34.0056818 L50.3440964,30.3238636 C50.394427,29.8125 50.4447577,29.25 50.4447577,28.6363636 C50.4447577,28.0227273 50.394427,27.4602273 50.3440964,26.9488636 L55.1255105,23.2670455 C56.4341081,22.2443182 56.7864228,20.4545455 55.9308013,18.9204545 L50.5957497,9.76704545 C49.9917816,8.69318182 48.8341761,8.02840909 47.6262399,8.02840909 C47.2235945,8.02840909 46.8712798,8.07954545 46.4686344,8.23295455 L40.7812681,10.4829545 C39.8249852,9.81818182 38.8183717,9.25568182 37.8117582,8.79545455 L36.9561367,2.91477273 C36.7044834,1.22727273 35.2952245,0 33.5839815,0 L22.813217,0 C21.101974,0 19.6927151,1.22727273 19.4410617,2.86363636 L18.6357709,8.79545455 C17.6291574,9.25568182 16.6728746,9.81818182 15.6662611,10.4829545 L9.97889478,8.23295455 C9.57624938,8.07954545 9.17360398,8.02840909 8.77095858,8.02840909 C7.56302237,8.02840909 6.40541684,8.64204545 5.85177941,9.71590909 L0.466397154,18.9204545 C-0.389224326,20.3522727 -0.0369095988,22.2443182 1.27168796,23.2670455 L6.05310211,26.9488636 C6.00277144,27.5625 5.95244076,28.125 5.95244076,28.6363636 C5.95244076,29.1477273 5.95244076,29.7102273 6.05310211,30.3238636 L1.27168796,34.0056818 C-0.0369095988,35.0284091 -0.389224326,36.8181818 0.466397154,38.3522727 L5.80144873,47.5056818 C6.40541684,48.5795455 7.56302237,49.2443182 8.77095858,49.2443182 C9.17360398,49.2443182 9.52591871,49.1931818 9.92856411,49.0397727 L15.6159304,46.7897727 C16.5722132,47.4545455 17.5788268,48.0170455 18.5854403,48.4772727 L19.4410617,54.3579545 C19.6423844,55.9943182 21.101974,57.2727273 22.813217,57.2727273 L33.5839815,57.2727273 C35.2952245,57.2727273 36.7044834,56.0454545 36.9561367,54.4090909 L37.8117582,48.4772727 C38.8183717,48.0170455 39.7746546,47.4545455 40.7812681,46.7897727 L46.4686344,49.0397727 C46.8712798,49.1931818 47.2739252,49.2443182 47.6765706,49.2443182 C48.8845068,49.2443182 50.0421123,48.6306818 50.5957497,47.5568182 L55.981132,38.3011364 C56.7864228,36.8181818 56.4341081,35.0284091 55.1255105,34.0056818 Z" stroke="url(#linearGradient-5)" fill="url(#linearGradient-4)"></path>
                            <path d="M40.2779613,28.6363636 C40.2779613,35.3863636 34.8422484,40.9090909 28.1985992,40.9090909 C21.5549501,40.9090909 16.1192372,35.3863636 16.1192372,28.6363636 C16.1192372,21.8863636 21.5549501,16.3636364 28.1985992,16.3636364 C34.8422484,16.3636364 40.2779613,21.8863636 40.2779613,28.6363636 Z" stroke="url(#linearGradient-7)" fill="url(#linearGradient-6)"></path>
                        </g>
                    </g>
                </g>
            </g>
        </g>
    </g>
</svg>