<?xml version="1.0" encoding="UTF-8"?>
<svg width="80px" height="80px" viewBox="0 0 80 80" version="1.1" xmlns="http://www.w3.org/2000/svg" xmlns:xlink="http://www.w3.org/1999/xlink">
    <title>3-2</title>
    <defs>
        <linearGradient x1="80.8817119%" y1="13.4569132%" x2="19.2008713%" y2="90.7564881%" id="linearGradient-1">
            <stop stop-color="#FFFFFF" stop-opacity="0" offset="0%"></stop>
            <stop stop-color="#4086FD" stop-opacity="0.07" offset="100%"></stop>
        </linearGradient>
        <linearGradient x1="87.9700927%" y1="14.8339642%" x2="35.3065824%" y2="94.5264831%" id="linearGradient-2">
            <stop stop-color="#FFFFFF" stop-opacity="0.45" offset="0%"></stop>
            <stop stop-color="#4086FD" stop-opacity="0.07" offset="100%"></stop>
        </linearGradient>
        <linearGradient x1="80.8381409%" y1="13.4569132%" x2="19.2443259%" y2="90.7564881%" id="linearGradient-3">
            <stop stop-color="#FFFFFF" stop-opacity="0" offset="0%"></stop>
            <stop stop-color="#4086FD" stop-opacity="0.07" offset="100%"></stop>
        </linearGradient>
        <linearGradient x1="87.9165206%" y1="14.8339642%" x2="35.3273134%" y2="94.5264831%" id="linearGradient-4">
            <stop stop-color="#FFFFFF" stop-opacity="0.45" offset="0%"></stop>
            <stop stop-color="#4086FD" stop-opacity="0.07" offset="100%"></stop>
        </linearGradient>
        <filter x="-38.7%" y="-71.5%" width="177.5%" height="243.0%" filterUnits="objectBoundingBox" id="filter-5">
            <feOffset dx="0" dy="1" in="SourceAlpha" result="shadowOffsetOuter1"></feOffset>
            <feGaussianBlur stdDeviation="1.5" in="shadowOffsetOuter1" result="shadowBlurOuter1"></feGaussianBlur>
            <feColorMatrix values="0 0 0 0 0.0470588235   0 0 0 0 0.443137255   0 0 0 0 1  0 0 0 0.3 0" type="matrix" in="shadowBlurOuter1" result="shadowMatrixOuter1"></feColorMatrix>
            <feMerge>
                <feMergeNode in="shadowMatrixOuter1"></feMergeNode>
                <feMergeNode in="SourceGraphic"></feMergeNode>
            </feMerge>
        </filter>
    </defs>
    <g id="页面-1" stroke="none" stroke-width="1" fill="none" fill-rule="evenodd">
        <g id="画板" transform="translate(-425.000000, -201.000000)">
            <g id="3-2" transform="translate(425.000000, 201.000000)">
                <rect id="矩形" x="0" y="0" width="80" height="80"></rect>
                <g id="205设置" transform="translate(5.000000, 16.727273)" fill-rule="nonzero">
                    <g id="编组-7">
                        <path d="M55.1255105,34.0056818 L50.3440964,30.3238636 C50.394427,29.8125 50.4447577,29.25 50.4447577,28.6363636 C50.4447577,28.0227273 50.394427,27.4602273 50.3440964,26.9488636 L55.1255105,23.2670455 C56.4341081,22.2443182 56.7864228,20.4545455 55.9308013,18.9204545 L50.5957497,9.76704545 C49.9917816,8.69318182 48.8341761,8.02840909 47.6262399,8.02840909 C47.2235945,8.02840909 46.8712798,8.07954545 46.4686344,8.23295455 L40.7812681,10.4829545 C39.8249852,9.81818182 38.8183717,9.25568182 37.8117582,8.79545455 L36.9561367,2.91477273 C36.7044834,1.22727273 35.2952245,0 33.5839815,0 L22.813217,0 C21.101974,0 19.6927151,1.22727273 19.4410617,2.86363636 L18.6357709,8.79545455 C17.6291574,9.25568182 16.6728746,9.81818182 15.6662611,10.4829545 L9.97889478,8.23295455 C9.57624938,8.07954545 9.17360398,8.02840909 8.77095858,8.02840909 C7.56302237,8.02840909 6.40541684,8.64204545 5.85177941,9.71590909 L0.466397154,18.9204545 C-0.389224326,20.3522727 -0.0369095988,22.2443182 1.27168796,23.2670455 L6.05310211,26.9488636 C6.00277144,27.5625 5.95244076,28.125 5.95244076,28.6363636 C5.95244076,29.1477273 5.95244076,29.7102273 6.05310211,30.3238636 L1.27168796,34.0056818 C-0.0369095988,35.0284091 -0.389224326,36.8181818 0.466397154,38.3522727 L5.80144873,47.5056818 C6.40541684,48.5795455 7.56302237,49.2443182 8.77095858,49.2443182 C9.17360398,49.2443182 9.52591871,49.1931818 9.92856411,49.0397727 L15.6159304,46.7897727 C16.5722132,47.4545455 17.5788268,48.0170455 18.5854403,48.4772727 L19.4410617,54.3579545 C19.6423844,55.9943182 21.101974,57.2727273 22.813217,57.2727273 L33.5839815,57.2727273 C35.2952245,57.2727273 36.7044834,56.0454545 36.9561367,54.4090909 L37.8117582,48.4772727 C38.8183717,48.0170455 39.7746546,47.4545455 40.7812681,46.7897727 L46.4686344,49.0397727 C46.8712798,49.1931818 47.2739252,49.2443182 47.6765706,49.2443182 C48.8845068,49.2443182 50.0421123,48.6306818 50.5957497,47.5568182 L55.981132,38.3011364 C56.7864228,36.8181818 56.4341081,35.0284091 55.1255105,34.0056818 Z" id="路径" stroke="url(#linearGradient-2)" stroke-width="1.0815" fill="url(#linearGradient-1)"></path>
                        <path d="M40.6363361,27.7645306 C40.6363361,34.5145306 35.2006231,40.0372578 28.556974,40.0372578 C21.9133249,40.0372578 16.4776119,34.5145306 16.4776119,27.7645306 C16.4776119,21.0145306 21.9133249,15.4918033 28.556974,15.4918033 C35.2006231,15.4918033 40.6363361,21.0145306 40.6363361,27.7645306 Z" id="路径" stroke="url(#linearGradient-4)" stroke-width="1.0815" fill="url(#linearGradient-3)"></path>
                        <g id="无限" filter="url(#filter-5)" transform="translate(18.111064, 22.373146)" fill="#FFFFFF">
                            <path d="M5.57664195,11.1850823 C2.5198289,11.1850823 0,8.65806927 0,5.59254114 C0,2.52701302 2.5198289,0 5.57664195,0 C6.65066834,0 7.68339272,0.289967433 8.592153,0.869931426 C8.96392913,1.11850823 9.08786419,1.61560358 8.84002311,2.02988854 C8.592153,2.40272462 8.09647085,2.52698389 7.68339272,2.27843622 C7.06374647,1.86418038 6.32019421,1.65705246 5.57664195,1.65705246 C3.42861823,1.65705246 1.65237063,3.4383642 1.65237063,5.59251202 C1.65237063,7.74665983 3.42861823,9.52802983 5.57664195,9.52802983 C7.72466568,9.52802983 9.50094232,7.74668896 9.50094232,5.59254114 C9.50094232,5.13683642 9.87271845,4.76400035 10.3271276,4.76400035 C10.7815368,4.76400035 11.1532839,5.13683642 11.1532839,5.59254114 C11.1532839,8.65806927 8.63348405,11.1850823 5.57664195,11.1850823 Z" id="路径"></path>
                            <path d="M15.0775843,11.1850823 C13.9209539,11.1850823 12.8056255,10.853666 11.8968652,10.1908333 C11.5250891,9.94228566 11.442456,9.40374142 11.6902971,9.03090535 C11.9381382,8.65806927 12.4751514,8.57522976 12.8469275,8.82377743 C13.5078757,9.27945302 14.29273,9.52802983 15.0775843,9.52802983 C17.225637,9.52802983 19.0018846,7.74668896 19.0018846,5.59254114 C19.0018846,3.43839333 17.225637,1.65705246 15.0776133,1.65705246 C12.9295896,1.65705246 11.1532839,3.4383642 11.1532839,5.59251202 C11.1532839,6.04821674 10.7815078,6.42105281 10.3271276,6.42105281 C9.8727475,6.42105281 9.50094232,6.04821674 9.50094232,5.59254114 C9.50094232,2.52698389 12.0207712,0 15.0775843,0 C18.1343973,0 20.6542262,2.48556413 20.6542262,5.59254114 C20.6542262,8.65806927 18.1344264,11.1850823 15.0775843,11.1850823 L15.0775843,11.1850823 Z" id="路径"></path>
                        </g>
                    </g>
                </g>
            </g>
        </g>
    </g>
</svg>