<?xml version="1.0" encoding="UTF-8"?>
<svg width="319px" height="246px" viewBox="0 0 319 246" version="1.1" xmlns="http://www.w3.org/2000/svg" xmlns:xlink="http://www.w3.org/1999/xlink">
    <title>关于百应banner备份</title>
    <defs>
        <rect id="path-1" x="0" y="0" width="319" height="245.689441"></rect>
        <rect id="path-3" x="0" y="0" width="319" height="245.689441"></rect>
        <radialGradient cx="75.421736%" cy="16.172131%" fx="75.421736%" fy="16.172131%" r="94.7305126%" id="radialGradient-5">
            <stop stop-color="#FFFFFF" offset="0%"></stop>
            <stop stop-color="#C2DEFF" offset="39.4555859%"></stop>
            <stop stop-color="#406AF9" offset="100%"></stop>
        </radialGradient>
        <linearGradient x1="35.4001565%" y1="42.6869468%" x2="48.7719721%" y2="58.354121%" id="linearGradient-6">
            <stop stop-color="#2B58F9" stop-opacity="0" offset="0%"></stop>
            <stop stop-color="#2B58F9" offset="74.9344406%"></stop>
            <stop stop-color="#2B58F9" offset="90.073208%"></stop>
            <stop stop-color="#8AA4FE" offset="99.2796015%"></stop>
            <stop stop-color="#2B58F9" offset="100%"></stop>
        </linearGradient>
        <linearGradient x1="40.7288482%" y1="3.44128231e-14%" x2="53.5426813%" y2="95.1452646%" id="linearGradient-7">
            <stop stop-color="#7A97FF" offset="0%"></stop>
            <stop stop-color="#2B58F9" offset="100%"></stop>
        </linearGradient>
        <linearGradient x1="39.5945312%" y1="3.44128231e-14%" x2="53.9761251%" y2="95.1452646%" id="linearGradient-8">
            <stop stop-color="#FFFFFF" stop-opacity="0.50114729" offset="0%"></stop>
            <stop stop-color="#FFFFFF" stop-opacity="0" offset="100%"></stop>
        </linearGradient>
        <linearGradient x1="64.9533368%" y1="45.2660973%" x2="61.5499693%" y2="53.7991414%" id="linearGradient-9">
            <stop stop-color="#00C8BD" stop-opacity="0" offset="0%"></stop>
            <stop stop-color="#1B82E2" stop-opacity="0.623251748" offset="81.0724432%"></stop>
            <stop stop-color="#BBCDFF" stop-opacity="0.935171108" offset="98.1563166%"></stop>
            <stop stop-color="#2B58F9" offset="100%"></stop>
        </linearGradient>
        <linearGradient x1="50%" y1="0%" x2="50%" y2="100%" id="linearGradient-10">
            <stop stop-color="#2B58F9" offset="0%"></stop>
            <stop stop-color="#96B3FC" offset="100%"></stop>
        </linearGradient>
        <linearGradient x1="20.0474977%" y1="10.0004017%" x2="82.901413%" y2="97.4649348%" id="linearGradient-11">
            <stop stop-color="#FFFFFF" offset="0%"></stop>
            <stop stop-color="#FFFFFF" stop-opacity="0.372541521" offset="100%"></stop>
        </linearGradient>
        <linearGradient x1="21.8957553%" y1="30.314667%" x2="69.1675348%" y2="63.3851522%" id="linearGradient-12">
            <stop stop-color="#0045F8" stop-opacity="0.422940341" offset="0%"></stop>
            <stop stop-color="#0045F8" stop-opacity="0.422940341" offset="14.9475524%"></stop>
            <stop stop-color="#B7DBF9" offset="100%"></stop>
        </linearGradient>
        <linearGradient x1="97.4921398%" y1="50%" x2="15.3748042%" y2="48.5360886%" id="linearGradient-13">
            <stop stop-color="#A2CEF7" offset="0%"></stop>
            <stop stop-color="#925CFF" offset="100%"></stop>
        </linearGradient>
        <linearGradient x1="58.9260671%" y1="32.7412773%" x2="40.0145347%" y2="64.9085492%" id="linearGradient-14">
            <stop stop-color="#4A99FF" offset="0%"></stop>
            <stop stop-color="#CEDAFD" offset="100%"></stop>
        </linearGradient>
        <linearGradient x1="56.0640272%" y1="60.2686582%" x2="-36.4110935%" y2="-2.43332039%" id="linearGradient-15">
            <stop stop-color="#FFFFFF" stop-opacity="0" offset="0%"></stop>
            <stop stop-color="#FFFFFF" offset="45.68165%"></stop>
            <stop stop-color="#FFFFFF" stop-opacity="0" offset="100%"></stop>
        </linearGradient>
        <linearGradient x1="56.4900187%" y1="41.3941007%" x2="100%" y2="53.534642%" id="linearGradient-16">
            <stop stop-color="#FFFFFF" stop-opacity="0" offset="0%"></stop>
            <stop stop-color="#FFFFFF" stop-opacity="0.767127404" offset="99.9200625%"></stop>
            <stop stop-color="#FFFFFF" stop-opacity="0" offset="100%"></stop>
        </linearGradient>
        <linearGradient x1="22.8578059%" y1="10.0645532%" x2="67.5710937%" y2="97.6565843%" id="linearGradient-17">
            <stop stop-color="#2B58F9" offset="0%"></stop>
            <stop stop-color="#7D99FF" offset="47.5579108%"></stop>
            <stop stop-color="#28A1EC" offset="100%"></stop>
        </linearGradient>
        <linearGradient x1="24.674664%" y1="16.4393472%" x2="75.1906139%" y2="86.7349518%" id="linearGradient-18">
            <stop stop-color="#FFFFFF" stop-opacity="0.372541521" offset="0%"></stop>
            <stop stop-color="#FFFFFF" offset="100%"></stop>
        </linearGradient>
        <linearGradient x1="26.6768463%" y1="8.30563018e-15%" x2="74.5900522%" y2="77.3673405%" id="linearGradient-19">
            <stop stop-color="#40B6FF" offset="0%"></stop>
            <stop stop-color="#2B58F9" offset="100%"></stop>
        </linearGradient>
        <linearGradient x1="26.6768463%" y1="8.30563018e-15%" x2="74.5900522%" y2="77.3673405%" id="linearGradient-20">
            <stop stop-color="#FFFFFF" offset="0%"></stop>
            <stop stop-color="#FFFFFF" offset="100%"></stop>
        </linearGradient>
        <linearGradient x1="6.60072201%" y1="21.8556895%" x2="95.7566985%" y2="65.4046986%" id="linearGradient-21">
            <stop stop-color="#40B6FF" offset="0%"></stop>
            <stop stop-color="#2B58F9" offset="100%"></stop>
        </linearGradient>
        <linearGradient x1="6.60072201%" y1="21.8556895%" x2="95.7566985%" y2="65.4046986%" id="linearGradient-22">
            <stop stop-color="#FFFFFF" offset="0%"></stop>
            <stop stop-color="#FFFFFF" offset="100%"></stop>
        </linearGradient>
        <linearGradient x1="15.4260996%" y1="8.30563018e-15%" x2="86.4519322%" y2="77.3673405%" id="linearGradient-23">
            <stop stop-color="#40B6FF" offset="0%"></stop>
            <stop stop-color="#2B58F9" offset="100%"></stop>
        </linearGradient>
        <linearGradient x1="15.4260996%" y1="8.30563018e-15%" x2="86.4519322%" y2="77.3673405%" id="linearGradient-24">
            <stop stop-color="#FFFFFF" offset="0%"></stop>
            <stop stop-color="#FFFFFF" offset="100%"></stop>
        </linearGradient>
        <linearGradient x1="50%" y1="0%" x2="50%" y2="99.1941652%" id="linearGradient-25">
            <stop stop-color="#00C8BD" stop-opacity="0.29916958" offset="0%"></stop>
            <stop stop-color="#00C8BD" stop-opacity="0.0744645979" offset="100%"></stop>
        </linearGradient>
        <linearGradient x1="50%" y1="0%" x2="50%" y2="99.7404939%" id="linearGradient-26">
            <stop stop-color="#2B58F9" offset="0%"></stop>
            <stop stop-color="#00C8BD" offset="100%"></stop>
        </linearGradient>
        <linearGradient x1="50%" y1="0%" x2="50%" y2="99.7404939%" id="linearGradient-27">
            <stop stop-color="#FFFFFF" stop-opacity="0" offset="0%"></stop>
            <stop stop-color="#FFFFFF" stop-opacity="0" offset="100%"></stop>
        </linearGradient>
    </defs>
    <g id="页面-1" stroke="none" stroke-width="1" fill="none" fill-rule="evenodd">
        <g id="画板" transform="translate(-23.000000, -413.000000)">
            <g id="关于百应banner备份" transform="translate(23.000000, 413.310559)">
                <mask id="mask-2" fill="white">
                    <use xlink:href="#path-1"></use>
                </mask>
                <g id="蒙版"></g>
                <g id="编组-72备份-3" mask="url(#mask-2)">
                    <g transform="translate(0.000000, 0.743012)" id="关于百应banner">
                        <mask id="mask-4" fill="white">
                            <use xlink:href="#path-3"></use>
                        </mask>
                        <g id="蒙版"></g>
                        <g id="编组-22备份" mask="url(#mask-4)">
                            <g transform="translate(2.450632, 42.211582)">
                                <circle id="椭圆形" stroke="none" fill="url(#radialGradient-5)" fill-rule="evenodd" cx="153.243347" cy="89.8429275" r="74.0631499"></circle>
                                <g id="编组" opacity="0.272414435" stroke="none" stroke-width="1" fill="none" fill-rule="evenodd" transform="translate(156.500867, 86.704719) rotate(17.000000) translate(-156.500867, -86.704719) translate(103.793155, 71.433966)">
                                    <path d="M52.1692654,7.22620384 L45.5678112,17.7680297 C44.0098409,20.2553369 40.3869891,20.2553369 38.8294191,17.7680297 L32.2275646,7.22620384 C30.2900116,4.13228524 33.299445,0.315237752 36.7601333,1.47720899 L38.5143015,2.06580228 C40.904711,2.86821109 43.4917186,2.86821109 45.8825285,2.06580228 L47.637097,1.47720899 C51.0973849,0.315237752 54.1068184,4.13228524 52.1692654,7.22620384" id="Fill-1" fill="#2B58F9"></path>
                                    <path d="M46.3594892,26.1538825 C46.3594892,28.4521991 44.4968117,30.3152771 42.1980947,30.3152771 C39.9001784,30.3152771 38.0375009,28.4521991 38.0375009,26.1538825 C38.0375009,23.8559662 39.9001784,21.9928883 42.1980947,21.9928883 C44.4968117,21.9928883 46.3594892,23.8559662 46.3594892,26.1538825" id="Fill-3" fill="#2B58F9"></path>
                                    <path d="M101.139706,30.5415051 C99.7154708,30.5415051 98.3236679,29.8315895 97.5108486,28.5358835 L84.4076409,7.64923024 C83.1515748,5.64721225 83.7565846,3.00615013 85.7586026,1.75048445 C87.7602202,0.494418362 90.4016827,1.09902779 91.6573484,3.10104578 L104.760556,23.9880994 C106.016622,25.989717 105.411612,28.6311795 103.409594,29.8868452 C102.702882,30.330092 101.916489,30.5415051 101.139706,30.5415051" id="Fill-5" fill="#2B58F9"></path>
                                    <path d="M25.5213249,25.4344373 C25.5797838,25.3683707 25.6386431,25.3031049 25.6959008,25.2358371 C25.7899957,25.1245249 25.8804869,25.0100095 25.9717789,24.8954941 C26.0230306,24.8314295 26.0754835,24.7681657 26.1255339,24.7033003 C26.2172263,24.5831792 26.3053151,24.4606557 26.3938043,24.3381322 C26.4390499,24.2748685 26.4854967,24.2132063 26.5299415,24.1495422 C26.6184307,24.0218134 26.7033163,23.8912818 26.7882019,23.7599495 C26.8278418,23.6990881 26.868683,23.6390276 26.9071217,23.576965 C26.9920073,23.4416286 27.0728888,23.3042902 27.1529695,23.1657505 C27.1878046,23.10569 27.223841,23.0460298 27.2578753,22.9855689 C27.3375556,22.8434256 27.4136323,22.6992803 27.4881073,22.5543342 C27.5189384,22.4946741 27.5505703,22.4362152 27.5806006,22.376555 C27.6542748,22.2280053 27.7243455,22.0774535 27.7932149,21.9265014 C27.8200419,21.8680425 27.8480702,21.8095835 27.873696,21.7503238 C27.9413642,21.5965688 28.004628,21.4408118 28.0670909,21.284254 C28.0903144,21.2253947 28.1151394,21.1673362 28.137562,21.1080764 C28.1984233,20.9495166 28.2540794,20.7885544 28.3093351,20.6275921 C28.3297557,20.5687328 28.3505767,20.5098735 28.3701965,20.4506137 C28.4230497,20.2884503 28.4714986,20.1246852 28.5187462,19.9605197 C28.5359636,19.899258 28.5547825,19.8383966 28.5711991,19.7771349 C28.6160443,19.612569 28.656485,19.4468019 28.6957246,19.280234 C28.7101391,19.2169702 28.7257549,19.1537065 28.739769,19.0904427 C28.7762057,18.9242752 28.808238,18.7565061 28.8386687,18.5879362 C28.8502804,18.52227 28.8634937,18.4566038 28.8743046,18.3905372 C28.9019324,18.2235689 28.9255563,18.0553994 28.9475785,17.8868295 C28.9563873,17.8175597 28.9663974,17.7482898 28.9744055,17.6782192 C28.9936249,17.5112509 29.0080394,17.3434818 29.0212527,17.1749119 C29.0272588,17.101638 29.0336652,17.0283642 29.0384701,16.9546899 C29.049281,16.7893232 29.0548866,16.6223549 29.0596915,16.4553866 C29.0612931,16.4033342 29.0656975,16.3516821 29.0664983,16.30003 C29.0656975,16.3004304 29.0648967,16.3004304 29.0640959,16.3008308 C29.0652971,16.2167461 29.070102,16.1334621 29.070102,16.0493774 C29.070102,15.1909121 28.9896208,14.3512657 28.8430731,13.5344424 C28.8438739,13.5336416 28.8446747,13.5332412 28.8458759,13.5328408 C28.8374675,13.488396 28.827057,13.444752 28.8186485,13.3999068 C28.7926223,13.2629688 28.7657952,13.1260307 28.7353646,12.9898935 C28.7177468,12.9094124 28.6985274,12.8297321 28.679308,12.7496513 C28.6468754,12.6131137 28.6140423,12.4765761 28.5772051,12.3412397 C28.5571849,12.2667646 28.5347623,12.1938911 28.513541,12.1202169 C28.4735006,11.980476 28.4334602,11.8411356 28.3890154,11.7029963 C28.3717981,11.6497427 28.3521783,11.5972898 28.3345605,11.5444365 C28.1747995,11.0671554 27.9902135,10.601486 27.7820036,10.1478288 C27.7459673,10.0689493 27.7111321,9.98886854 27.6734942,9.91038943 C27.6206409,9.80067885 27.5649848,9.69297028 27.5093287,9.5844609 C27.4640831,9.49557131 27.4184371,9.40708211 27.3711895,9.31899332 C27.3167346,9.21809161 27.2602777,9.11839112 27.20302,9.01869062 C27.1497663,8.92579699 27.0965126,8.83290335 27.0416573,8.74121093 C26.9852004,8.64751649 26.9275423,8.55502326 26.8690834,8.46253002 C26.808222,8.36643316 26.7465599,8.27113711 26.6828957,8.17624145 C26.6260384,8.09095549 26.5683803,8.00566952 26.5099214,7.92158477 C26.4394503,7.82028266 26.3669773,7.72098256 26.2941038,7.62208287 C26.2380473,7.54600619 26.1827916,7.47032991 26.1255339,7.39545444 C26.0410487,7.28534345 25.9533604,7.17723448 25.865672,7.06952591 C25.8164223,7.00866456 25.7679735,6.94740281 25.7175226,6.88774268 C25.5982024,6.7455994 25.4756789,6.60665935 25.3503525,6.46932092 C25.3295316,6.44569711 25.3087106,6.42127249 25.2870888,6.39764867 C25.1329334,6.23027997 24.9751744,6.0669153 24.8130109,5.90715427 C24.8126105,5.90635346 24.8122101,5.90635346 24.8118097,5.90595306 C24.6540507,5.74979565 24.4922876,5.59844309 24.3273213,5.44989336 C24.2972911,5.42306632 24.2668604,5.39744049 24.2368301,5.37101385 C24.0990913,5.24929116 23.9601513,5.12957048 23.818008,5.01305304 C23.7791688,4.98142115 23.7399293,4.95059007 23.7006897,4.91935859 C23.5637517,4.8092476 23.4256124,4.70153904 23.2846704,4.59623289 C23.2434288,4.56580222 23.2017868,4.53577195 23.1605453,4.50534127 C23.0168004,4.40083594 22.8718543,4.29873302 22.7241053,4.19943293 C22.6852662,4.17300629 22.646427,4.14698006 22.6075879,4.12095382 C22.4506297,4.01764969 22.2916695,3.91714839 22.1303068,3.81944991 C22.1002765,3.80103135 22.0702463,3.78221238 22.040216,3.76419422 C21.8572316,3.65488403 21.6718447,3.54997829 21.483655,3.44867618 C21.4748461,3.44347094 21.4656368,3.43826569 21.456828,3.43386125 C20.6372018,2.9946185 19.770328,2.63185284 18.8650155,2.35317194 C18.8562066,2.35076952 18.8477981,2.3483671 18.8389892,2.34556427 C18.6259745,2.28069889 18.4109578,2.22023795 18.1943395,2.16498225 C18.1723173,2.1593766 18.1502951,2.15377095 18.1282729,2.1485657 C17.922065,2.09691364 17.7142555,2.04966601 17.5048445,2.00642243 C17.4784178,2.00121718 17.4523916,1.99561153 17.4259649,1.99040628 C17.2153527,1.94876431 17.0031388,1.91112637 16.7889228,1.87829327 C16.767301,1.87468964 16.7456792,1.87108601 16.723657,1.86828318 C16.4938254,1.83384847 16.2623921,1.80421861 16.0293572,1.7809952 C16.0253532,1.7805948 16.0217495,1.78019439 16.0181459,1.77979399 C15.5308547,1.73094475 15.0367567,1.7033169 14.5362522,1.7033169 C14.4465618,1.7033169 14.3588734,1.71092457 14.269183,1.71252618 C14.0721844,1.71612982 13.8759867,1.72133506 13.6809901,1.73254636 C13.5472553,1.74015403 13.4143213,1.75136533 13.2813873,1.76257663 C13.1116162,1.77699116 12.9426459,1.79420852 12.7744764,1.8142287 C12.6495504,1.82944404 12.5246245,1.84305776 12.4004994,1.86107592 C12.1326294,1.90031547 11.866361,1.94476027 11.6032958,1.99801395 C11.5136054,2.01603211 11.4251162,2.03885512 11.3354258,2.0588753 C11.1384273,2.10251929 10.9422295,2.14936651 10.7480338,2.20101857 C10.6407256,2.22944723 10.5338178,2.2594775 10.4277109,2.29030858 C10.236318,2.34596468 10.0473275,2.40562481 9.85913777,2.46888858 C9.77425221,2.49731724 9.68856584,2.52374387 9.60408068,2.55377414 C9.34101552,2.64746858 9.08075318,2.74837029 8.82489528,2.85647926 C8.7604303,2.88370671 8.69756694,2.91373698 8.63390276,2.94176523 C8.42969693,3.03145563 8.22829392,3.12515008 8.02849253,3.22364936 C7.95121463,3.26208811 7.87473754,3.30092725 7.79786005,3.34016681 C7.58604655,3.4502778 7.37743628,3.56439282 7.17162883,3.6841135 C7.13919614,3.70293247 7.10516183,3.71894861 7.07312954,3.73776758 C7.06992631,1.67288623 5.37301587,0 3.27930546,0 L1.39060169,0 C0.62222719,0 0,0.614219118 0,1.37218313 L0,16.0473754 L0,16.0481762 L0,16.0493774 L0,16.3901208 L0.00640645755,16.3817124 C0.00680686115,16.3969277 0.00880887914,16.412143 0.00920928273,16.4273584 C0.0284286554,17.1560929 0.102903724,17.8708133 0.227829647,18.5691172 L0.239441351,18.632381 C0.36957252,19.3366909 0.55095535,20.0221819 0.780787014,20.6868518 C0.785591858,20.6996648 0.789595893,20.7124777 0.794000333,20.725691 C1.02943765,21.398369 1.31292339,22.0478237 1.64245556,22.6712521 L1.6472604,22.6804614 C3.86469552,26.8682826 8.11377849,29.8420801 13.1060105,30.3225644 C13.1460509,30.3265684 13.1860913,30.3281701 13.226532,30.3313733 C13.419927,30.3485906 13.6137223,30.3646068 13.8095197,30.3742165 C14.0505626,30.3862286 14.2924064,30.392635 14.5362522,30.392635 C15.0371571,30.392635 15.5320559,30.3674096 16.0201479,30.3185604 C16.0365645,30.3165584 16.052981,30.3141559 16.0693976,30.3125543 C16.2956256,30.2889305 16.5206524,30.2617031 16.7440776,30.2280692 C16.7833172,30.2216627 16.8213555,30.214055 16.8605951,30.2076486 C17.0607969,30.1756163 17.2601979,30.1419824 17.4575968,30.1023424 C17.5060457,30.0927327 17.5540941,30.0803202 17.6025429,30.0695093 C17.7887306,30.0302698 17.9741175,29.9894286 18.1579027,29.9433822 C18.21476,29.9289677 18.2704161,29.9113499 18.326873,29.896535 C18.5002478,29.8500882 18.6732222,29.8036413 18.8441945,29.7511885 C18.9086595,29.7311683 18.9719232,29.7087457 19.0359878,29.6879247 C19.1969501,29.6362726 19.3579123,29.5846206 19.5164721,29.5277633 C19.5861424,29.5025378 19.654211,29.4741092 19.7234808,29.4476825 C19.8740325,29.3912256 20.0245843,29.3343683 20.173134,29.2731066 C20.2472087,29.2422755 20.3196817,29.2078408 20.3929556,29.1762089 C20.5338977,29.1145468 20.6748397,29.0540858 20.8133794,28.9884196 C20.8918585,28.9511821 20.9691364,28.9107413 21.0468147,28.8719022 C21.1769458,28.8074372 21.3082782,28.743773 21.436007,28.675304 C21.5196913,28.6304588 21.6013737,28.5824104 21.6838568,28.5359636 C21.8035775,28.4694966 21.9236986,28.4038304 22.0410168,28.3337597 C22.1279044,28.2817073 22.21279,28.2264516 22.2988767,28.1723971 C22.4085873,28.1039281 22.5186983,28.0366603 22.6268073,27.964988 C22.7168981,27.9053279 22.8049869,27.8420641 22.8938765,27.7800016 C22.9939774,27.7107317 23.0940783,27.6426631 23.1925776,27.5705905 C23.2850708,27.5025219 23.3751616,27.43125 23.4660532,27.3611794 C23.5569448,27.2915092 23.6486373,27.2226398 23.7379273,27.1505671 C23.8324225,27.07409 23.9241149,26.9944097 24.0166082,26.9155302 C24.0982905,26.84586 24.181174,26.777391 24.2616552,26.7065195 C24.3569512,26.6212336 24.4494444,26.5331448 24.5431389,26.4454564 C24.6164127,26.376587 24.6912882,26.3089188 24.7629605,26.2384477 C24.8590573,26.1443529 24.9515506,26.0478556 25.0448446,25.9513583 C25.1105108,25.8836901 25.1773782,25.8172231 25.2414428,25.7479533 C25.3367388,25.64545 25.429232,25.5401438 25.5213249,25.4344373 M17.6802212,21.1373059 L16.5767089,20.7665322 C15.0731934,20.2620236 13.446754,20.2620236 11.9432385,20.7665322 L10.8397262,21.1373059 C8.66313223,21.8676421 6.77122523,19.4672225 7.98965338,17.521261 L12.1410379,10.8917786 C13.1204251,9.32740179 15.3995223,9.32740179 16.3789095,10.8917786 L20.530294,17.521261 C21.7487222,19.4672225 19.8568152,21.8676421 17.6802212,21.1373059" id="Fill-7" fill="#2B58F9"></path>
                                    <path d="M71.2462945,21.5058374 L70.1808206,21.1478765 C68.7293575,20.6609858 67.1581738,20.6609858 65.7063104,21.1478765 L64.6408364,21.5058374 C62.5391179,22.2113485 60.7116759,19.8934121 61.8884621,18.0139176 L65.8977033,11.6118645 C66.8434566,10.1015421 69.0436743,10.1015421 69.9894276,11.6118645 L73.9990693,18.0139176 C75.175455,19.8934121 73.348013,22.2113485 71.2462945,21.5058374 M83.2856299,20.3398621 L73.127791,4.11871156 C70.7313755,0.292054384 65.1561558,0.292054384 62.7597403,4.11871156 L52.601501,20.3398621 C49.6200959,25.1006609 54.250363,30.9737808 59.5757309,29.1867796 L62.2752519,28.2802658 C65.9533594,27.0458215 69.9341719,27.0458215 73.611879,28.2802658 L76.3118004,29.1867796 C81.6367679,30.9737808 86.2670351,25.1006609 83.2856299,20.3398621" id="Fill-9" fill="#2B58F9"></path>
                                </g>
                                <path d="M97.814625,58.6571486 C39.1714294,83.1178603 -3.45900241,117.136772 8.11308143,140.079122 C22.7037216,168.343312 106.220899,171.382339 192.990414,146.909137 C278.252484,122.474136 331.726845,79.8497114 314.092248,51.6626626 C301.791419,31.6201745 260.325194,23.235244 201.07686,31.3894993" id="路径备份-2" stroke="url(#linearGradient-6)" stroke-width="1.2614961" fill="none" opacity="0.60672433" stroke-linecap="round" transform="translate(161.831073, 95.870213) rotate(-6.000000) translate(-161.831073, -95.870213) "></path>
                                <g id="编组-17" stroke="none" stroke-width="1" fill="none" fill-rule="evenodd" transform="translate(96.503402, 158.221720) rotate(3.000000) translate(-96.503402, -158.221720) translate(72.392141, 133.404233)">
                                    <g id="编组-8" transform="translate(24.111260, 24.817487) rotate(-10.000000) translate(-24.111260, -24.817487) translate(3.428492, 3.264080)" fill-rule="nonzero">
                                        <path d="M9.36153508,2.015958 C12.6214664,-0.223935587 16.9146825,-0.627590459 20.6239705,0.957046275 C24.3332584,2.54168301 26.8467135,5.46213633 27.29607,9.28666662 C27.768138,13.3044959 25.8730857,17.2144437 22.6580194,19.4911276 C30.6899376,20.6862676 37.0841407,26.3502043 38.0831131,34.513629 C38.0921565,34.5413444 38.0979854,34.5699324 38.1010274,34.5988748 L38.2382628,35.9045821 C38.2635271,36.1449561 38.080828,36.3611729 37.8302025,36.3875147 C22.4572122,39.8578699 10.8209516,42.0968091 2.92142059,43.1043322 C2.57098273,43.1489277 1.83959764,42.592124 0.727265312,41.4339212 C0.577926741,41.2860505 0.435820785,41.141633 0.360302272,41.0404257 C0.284783758,40.9392183 0.236410875,40.8786186 0.205799828,40.7345086 L0.0686057718,39.3418883 C-0.648832671,31.1776175 4.32722998,23.7286217 11.8724116,20.6941373 C8.12213726,19.2233552 5.29938198,15.8999173 4.81957509,11.8162211 C4.3702184,7.99169078 6.10160377,4.2558516 9.36153508,2.015958 Z M18.5886028,21.272656 C18.1813892,21.3586213 17.7647592,21.4223577 17.3397767,21.4623153 C16.9904978,21.495155 16.6431569,21.5125329 16.2985146,21.5150349 L15.9318439,30.7234436 C15.9265271,30.860711 15.9884513,30.9918912 16.099173,31.0779136 L18.3176425,32.7989774 C18.5127085,32.9502603 18.7999626,32.9200687 18.9593125,32.7315352 L20.7714738,30.586835 C20.861905,30.4797718 20.8951398,30.3386167 20.8612439,30.2055628 Z" id="形状结合" fill="url(#linearGradient-7)" opacity="0.999139695"></path>
                                        <path d="M12.5179975,4.17945501 C15.7804587,1.96470019 20.0770048,1.56557356 23.7891684,3.13242226 C27.501332,4.69927096 30.0167343,7.5869437 30.4664366,11.3685472 C30.9385011,15.338197 29.0452852,19.2013429 25.8322702,21.4532319 C33.8637625,22.6283663 40.2501284,28.2202405 41.2391555,36.2885596 L41.2334072,36.2481205 L41.2097479,36.0322445 C41.2169597,36.054162 41.2409323,36.240676 41.251773,36.3290572 L41.2569741,36.372838 L41.3632556,37.4075835 C41.3882365,37.645261 41.2051578,37.8593075 40.9543379,37.8856698 L3.8290525,42.8703144 C3.70860452,42.882974 3.58832428,42.8497745 3.49467206,42.7780192 C3.40101983,42.706264 3.34166713,42.601831 3.32967087,42.4876942 L3.19397502,41.1966344 C3.19089925,41.1673704 3.19111563,41.1388481 3.19412472,41.110685 C2.4861533,33.034976 7.47848355,25.6600077 15.0367901,22.651778 C11.2806013,21.1971769 8.45293677,17.9097088 7.97250789,13.8697224 C7.52280544,10.0881189 9.2555363,6.39420982 12.5179975,4.17945501 Z M21.7481987,23.2208459 C21.3419439,23.3054242 20.9263304,23.368162 20.5024128,23.4075418 C20.1515144,23.4401384 19.8025705,23.4573285 19.4563512,23.4596983 L19.0783336,32.5680144 C19.0728423,32.7037665 19.1346429,32.8334152 19.2453287,32.9183458 L21.4630823,34.6175621 C21.6580854,34.7669246 21.9455623,34.7367095 22.10525,34.5500676 L23.9212534,32.4268863 C24.0118764,32.3208973 24.0453086,32.1812658 24.0115568,32.0497293 Z" id="形状结合" fill="url(#linearGradient-8)"></path>
                                    </g>
                                </g>
                                <path d="M78.4664789,69.6632832 C45.9777186,74.0816149 28.3561705,80.4936646 27.7635227,90.0225394 C26.8450988,108.898391 88.1267017,131.491596 163.376158,140.091138 C237.480507,148.332975 295.399599,138.806859 294.005727,119.208699 C293.322717,107.546321 259.101232,90.1889465 240.18883,85.4407189 C221.276427,80.6924913 225.060488,81.2667231 223.407156,81.0621349" id="路径备份-5" stroke="url(#linearGradient-9)" stroke-width="3.7844883" fill="none" stroke-linecap="round" transform="translate(160.891848, 106.362892) rotate(12.000000) translate(-160.891848, -106.362892) "></path>
                                <g id="编组-9" stroke="none" stroke-width="1" fill="none" fill-rule="evenodd" transform="translate(30.082848, 54.974981)">
                                    <g id="编组-4">
                                        <circle id="椭圆形备份-9" fill="url(#linearGradient-10)" cx="5.68497237" cy="5.68497237" r="5.68497237"></circle>
                                        <circle id="椭圆形备份-10" stroke="url(#linearGradient-11)" stroke-width="0.630748049" fill-opacity="0" fill="#FFFFFF" cx="5.68497237" cy="5.68497237" r="5.36959834"></circle>
                                    </g>
                                </g>
                                <g id="编组-6" stroke="none" stroke-width="1" fill="none" fill-rule="evenodd" transform="translate(259.760951, 110.626764) rotate(-10.000000) translate(-259.760951, -110.626764) translate(251.001839, 101.575681)">
                                    <g id="编组-5">
                                        <polygon id="路径-12" fill="url(#linearGradient-12)" points="6.03560684 8.74163258 16.3784862 4.75340532 17.5182258 14.0425695 7.38066954 18.1021666"></polygon>
                                        <polygon id="路径-13" fill="url(#linearGradient-13)" opacity="0.255905878" points="9.64808223 0 16.3784862 4.75340532 6.03560684 8.74163258 6.88943717e-11 3.80960532"></polygon>
                                        <polygon id="路径-14" fill="url(#linearGradient-14)" points="7.50333129e-11 3.80960532 0.934935752 13.0068505 7.38066954 18.1021666 6.03560684 8.74163258"></polygon>
                                        <polygon id="路径-12" fill="url(#linearGradient-15)" points="6.03560684 8.74163258 16.3784862 4.75340532 17.5182258 14.0425695 7.38066954 18.1021666"></polygon>
                                        <polygon id="路径-13" fill="url(#linearGradient-16)" points="9.64808223 5.91171556e-12 16.3784862 4.75340532 6.03560684 8.74163258 1.4802957e-16 3.80960532"></polygon>
                                        <polygon id="路径-14" fill-opacity="0" fill="#FFFFFF" points="7.91260391e-11 3.80960532 0.934935752 13.0068505 7.38066954 18.1021666 6.03560684 8.74163258"></polygon>
                                    </g>
                                </g>
                                <g id="编组-21" stroke="none" stroke-width="1" fill="none" fill-rule="evenodd" transform="translate(0.394659, 105.508069)">
                                    <circle id="椭圆形备份-9" fill="url(#linearGradient-17)" cx="19.5576448" cy="19.5576448" r="18.9738345"></circle>
                                    <circle id="椭圆形备份-10" stroke="url(#linearGradient-18)" stroke-width="0.630748049" fill-opacity="0" fill="#FFFFFF" cx="19.2657397" cy="19.2657397" r="18.9503657"></circle>
                                    <g id="编组-15" transform="translate(6.421381, 8.173861)" fill-rule="nonzero">
                                        <g id="编组-14" transform="translate(12.260549, 12.551405) rotate(-8.000000) translate(-12.260549, -12.551405) translate(1.447248, 1.396361)">
                                            <path d="M14.5251634,18.3988975 L11.2032706,14.396474 C10.824934,13.9352531 10.2065931,13.7530217 9.64190006,13.936322 C8.73386586,14.2307638 7.95079481,14.8259059 7.41938918,15.6254532 C6.20881276,14.1072034 5.23685189,12.4099264 4.53762694,10.5932045 C5.18507753,10.550564 5.81405049,10.3576669 6.37559703,10.0295251 C6.65556303,9.86713834 6.9159143,9.67249406 7.15142496,9.44949926 C7.57947678,9.04549065 7.72684274,8.42227123 7.52571133,7.8666199 L5.7681575,3.00273948 C5.57006381,2.4506985 5.06580856,2.07043377 4.48527542,2.03530323 C3.65944075,1.98717509 2.83770556,2.18406633 2.12136146,2.60170705 C1.43188656,3.00328436 0.837130122,3.6969179 0.444223875,4.55183622 C0.102050028,5.29995786 -0.0574332087,6.1227282 0.0186653914,6.74879649 L0.0343168765,6.85777269 C0.0459205638,6.9506749 0.0513176276,6.98282288 0.0626514616,7.04493932 C0.897268235,12.6564706 3.80266179,17.7418738 8.19602666,21.2810457 C8.67469739,21.6958685 9.23969406,21.9966254 9.84914732,22.1610285 C11.7562608,22.6822455 13.7670371,21.8034215 14.6957106,20.0428036 C14.9774158,19.5112283 14.9098546,18.8600054 14.5251634,18.3988975 L14.5251634,18.3988975 Z M13.5625971,19.4325368 C13.1386984,20.2313254 12.3787639,20.7928475 11.4964231,20.9592503 C10.6140823,21.1256532 9.70460749,20.8789691 9.0236664,20.2885449 L9.00558624,20.2724709 C4.85037056,16.945403 2.10711752,12.1447631 1.3341997,6.84769239 L1.33042176,6.82998376 C1.3209769,6.78257911 1.31908792,6.76786732 1.30667468,6.67796195 L1.29453128,6.58751171 C1.25162462,6.20309815 1.37548724,5.62007546 1.6132279,5.09889676 C1.89495463,4.48563318 2.30486163,3.99714734 2.76469147,3.72961076 C3.26350331,3.43877228 3.8357397,3.30172882 4.41079594,3.33538935 C4.47813663,3.34113245 4.53579245,3.38641769 4.55786593,3.45090412 L6.31488006,8.31696406 C6.33947802,8.38256589 6.32206104,8.45667748 6.27089399,8.50413069 C6.10505063,8.65875206 5.92288684,8.79451499 5.72767952,8.90897728 C5.23292408,9.19743262 4.66585911,9.3346665 4.09533756,9.30401602 C3.77811776,9.28704849 3.47357518,9.43166151 3.28422904,9.68917351 C3.0948829,9.94668551 3.04591883,10.2828439 3.15381977,10.5844864 C3.96658463,12.8721367 5.18088455,14.9932645 6.73854957,16.8462591 C6.94349264,17.0914853 7.25640849,17.2168737 7.57214185,17.1802874 C7.8878752,17.1437012 8.16451449,16.9499969 8.30909515,16.6642688 C8.56746849,16.1500202 8.9689884,15.7231559 9.46433666,15.436107 C9.64472368,15.3295065 9.83622114,15.243347 10.035346,15.1791956 C10.1009762,15.160414 10.1713859,15.1827886 10.2145285,15.2361357 L13.5431677,19.2339277 C13.5891352,19.2899445 13.5968224,19.3685239 13.5625971,19.4325368 L13.5625971,19.4325368 Z" id="形状" fill="url(#linearGradient-20)"></path>
                                            <path d="M14.5417808,11.4103456 L12.4115615,6.59773926 C12.2438497,6.23704798 12.0141777,6.06660262 11.7225455,6.08640318 C11.38824,6.06642424 11.1480394,6.2368696 11.0019438,6.59773926 L8.84069781,11.4103456 C8.69441585,11.8716451 8.84051146,12.122363 9.27898464,12.1624993 C9.57173489,12.2024572 9.77019385,12.0620694 9.87436151,11.741336 L10.4381527,10.5372479 L12.9440464,10.5372479 L13.477929,11.7713045 C13.5811649,12.0317442 13.779158,12.1619641 14.0719083,12.1619641 C14.5101951,12.1221846 14.6668193,11.8716451 14.5417808,11.4103456 Z M10.8451333,9.57558291 L11.7225455,7.71058424 L12.5367863,9.57558291 L10.8451333,9.57558291 Z M15.766636,11.5607228 L15.766636,6.71761292 C15.7457652,6.2766491 15.9336956,6.06606747 16.3304271,6.08586803 C16.7271587,6.06588909 16.9150891,6.27647072 16.8942183,6.71761292 L16.8942183,11.5607228 C16.8942183,11.9619071 16.7062879,12.1624993 16.3304271,12.1624993 C15.9545664,12.1822999 15.766636,11.9817969 15.766636,11.5609904 L15.766636,11.5607228 Z" id="形状" fill="url(#linearGradient-22)"></path>
                                            <path d="M13.9443861,18.9297721 L13.682741,17.5675174 C17.4853346,16.8311265 20.2454445,13.4596354 20.2454445,9.55114113 C20.2454445,5.04996875 16.6108173,1.38776092 12.1431864,1.38776092 C9.6673902,1.38776092 7.35956033,2.50647175 5.81126595,4.45729061 L4.73081921,3.59281978 C6.5426705,1.30987078 9.24433358,0 12.1431864,0 C14.6620369,0.00370694713 17.0762551,1.0120682 18.8547393,2.8032552 C20.6332234,4.59444221 21.6302888,7.02172984 21.6266021,9.55114113 C21.6266021,14.1233471 18.3959032,18.0674953 13.9443861,18.9297721 Z" id="路径" fill="url(#linearGradient-24)"></path>
                                        </g>
                                    </g>
                                </g>
                                <g id="编组-4" stroke="none" stroke-width="1" fill="none" fill-rule="evenodd" transform="translate(270.746678, 59.396626)">
                                    <circle id="椭圆形备份-9" fill="url(#linearGradient-25)" cx="4.10581338" cy="4.10581338" r="4.10581338"></circle>
                                    <circle id="椭圆形备份-10" stroke="url(#linearGradient-11)" stroke-width="0.630748049" fill-opacity="0" fill="#FFFFFF" cx="4.10581338" cy="4.10581338" r="3.79043935"></circle>
                                </g>
                                <path d="M248.954284,147.513698" id="路径-17" stroke="#979797" stroke-width="1.2614961" fill="none"></path>
                                <g id="编组-16" stroke="none" stroke-width="1" fill="none" fill-rule="evenodd" transform="translate(265.712795, 0.000000)">
                                    <path d="M20.8690345,6.15370819 C21.1496259,6.0966169 21.455345,6.12124452 21.7070016,6.26341298 C26.9407742,9.26798098 32.1760697,12.2706832 37.4098423,15.274878 C37.7014746,15.4480176 37.9394253,15.7178018 38.0406971,16.0398264 C38.1785182,16.4812576 38.0890487,16.9943327 37.7806646,17.3484479 C37.5271044,17.6439792 37.1345809,17.8104021 36.7424382,17.8118946 C36.031632,17.8159992 35.3208258,17.8118946 34.6104002,17.8137604 C34.6100195,23.1463834 34.6100195,28.4786334 34.6104002,33.8112564 C34.8906109,33.8116296 35.1708216,33.8112564 35.4510324,33.8116296 C35.7948235,33.8149879 36.1454676,33.7873751 36.4801214,33.8832735 C37.2168167,34.0709657 37.8206403,34.6762078 37.995772,35.4023491 C38.08448,35.7325829 38.0494537,36.0766231 38.0570681,36.4139466 C38.0692512,36.943067 37.8670883,37.4729337 37.5015961,37.8624977 C37.1102148,38.2878836 36.5334224,38.5434883 35.9486348,38.5453588 C26.0868168,38.5457272 16.1727147,36.9513793 6.3108967,36.9517524 C5.76874988,36.9547376 5.2304103,36.7416715 4.84017119,36.3733768 C4.42061659,35.9845591 4.17543218,35.4229751 4.18038157,34.8572864 C4.1883767,34.5192166 4.1522082,34.1755495 4.23292109,33.84345 C4.35208678,33.3210462 4.68712133,32.8508828 5.14474805,32.559083 C5.48930062,32.3359419 5.90162156,32.2161622 6.31432319,32.2176548 C6.74149224,32.2169085 7.16866128,32.218028 7.59583033,32.2172817 C7.59506889,26.8846586 7.9151316,24.0459379 7.91360873,18.7133148 C7.21765061,18.7129417 6.52207321,18.7148074 5.82649581,18.7125685 C5.46214574,18.7125685 5.09589205,18.5741315 4.8400475,18.3174074 C4.39764959,17.8804539 4.32493187,17.1360286 4.668723,16.621834 C4.79321881,16.4356344 4.96454327,16.2811521 5.15909175,16.1669696 C10.2896889,13.2232243 15.1544112,9.37917834 20.2850084,6.43505994 C20.4734653,6.33095234 20.6535463,6.2003514 20.8690345,6.15370819 Z M21.0243687,13.2098906 C20.8553285,13.3039232 20.7445387,13.467361 20.6657294,13.6371422 C20.2088641,14.5483636 19.7478109,15.4573462 19.2917071,16.3689408 C18.2321603,16.5234231 17.1714714,16.6696961 16.1119247,16.8230589 C15.8062056,16.8611198 15.5332286,17.0786636 15.4384291,17.366732 C15.3344922,17.6570392 15.4212966,17.9984674 15.6489678,18.2096678 C16.4153594,18.9421525 17.1832738,19.6727715 17.9496653,20.4056294 C17.7695842,21.4373768 17.5887417,22.4691243 17.4090414,23.5012449 C17.3614512,23.7385654 17.4292196,23.9945433 17.5898839,24.178504 C17.7570204,24.375898 18.0242866,24.4833639 18.2850805,24.4624678 C18.45374,24.4542586 18.605267,24.3747786 18.7507024,24.2971643 C19.6511078,23.832225 20.5526553,23.3695245 21.4530606,22.904212 C22.4090512,23.3945252 23.3627575,23.8889431 24.3183674,24.3800026 C24.576877,24.5106036 24.9062007,24.4964241 25.1479586,24.3352252 C25.4137019,24.168056 25.5629446,23.840061 25.5088822,23.5344548 C25.3288012,22.4918861 25.1441514,21.4504369 24.9629282,20.4078682 C25.6862982,19.7168027 26.4096683,19.0257371 27.1330383,18.3350447 C27.2720015,18.2085483 27.4128683,18.0716039 27.4699765,17.8891358 C27.5982795,17.5398715 27.4395188,17.1212022 27.1136216,16.9350026 C26.9552416,16.8372385 26.7656425,16.8204469 26.5848,16.7958193 C25.5953059,16.6551434 24.6058118,16.5144675 23.6163178,16.3734185 C23.1506959,15.449137 22.6846933,14.5252286 22.2205943,13.6005739 C22.1513031,13.4535546 22.0500313,13.3169833 21.9099259,13.2278015 C21.6514163,13.0542889 21.290112,13.0468259 21.0243687,13.2098906 M11.975731,29.3258048 C11.9527018,29.5209741 11.9245955,29.7285119 12.0040558,29.9153969 C12.1092458,30.1859707 12.3867279,30.379 12.6818616,30.3880858 C18.2143423,30.7683887 23.7471498,31.1494623 29.279604,31.5301374 C29.4536289,31.5409895 29.6351721,31.5695655 29.8035623,31.5093332 C30.0776107,31.4230799 30.2890004,31.1712967 30.3170272,30.8896901 C30.3339287,30.7109318 30.3598469,30.5234425 30.2919146,30.3515648 C30.1945321,30.0785358 29.9229755,29.8773109 29.6279646,29.8611265 C24.0834364,29.4784984 18.5387494,29.0981037 12.9945481,28.7162462 C12.8589353,28.707289 12.7217051,28.6888692 12.5868557,28.7121334 C12.2789225,28.7650085 12.0198829,29.0213682 11.975731,29.3258048 Z M12.5890421,32.2604532 C12.2815945,32.3118654 12.0219276,32.5663117 11.9763093,32.8698993 C11.9511262,33.0738977 11.9229594,33.2930271 12.0133903,33.4866519 C12.1249915,33.7475673 12.3976496,33.9279208 12.6854613,33.937999 C18.2927614,34.3234501 23.8995493,34.7107362 29.5069551,35.0946983 C29.8732538,35.1281318 30.2363021,34.8635923 30.3057792,34.5089044 C30.3533172,34.2320068 30.3695042,33.9129281 30.1688065,33.6866543 C30.0066286,33.4768711 29.732631,33.3959246 29.4738083,33.3968184 C24.0058132,33.0220747 18.538383,32.6447515 13.0708471,32.2689173 C12.9104419,32.2597505 12.748869,32.2347929 12.5890421,32.2604532 L12.5890421,32.2604532 Z" id="形状" fill="url(#linearGradient-26)" fill-rule="nonzero" transform="translate(21.141305, 22.335264) rotate(18.000000) translate(-21.141305, -22.335264) "></path>
                                    <path d="M20.8690345,4.47680178 C21.1496259,4.41971049 21.455345,4.44433811 21.7070016,4.58650658 C26.9407742,7.59107457 32.1760697,10.5937768 37.4098423,13.5979716 C37.7014746,13.7711112 37.9394253,14.0408954 38.0406971,14.36292 C38.1785182,14.8043512 38.0890487,15.3174263 37.7806646,15.6715415 C37.5271044,15.9670727 37.1345809,16.1334957 36.7424382,16.1349882 C36.031632,16.1390928 35.3208258,16.1349882 34.6104002,16.136854 C34.6100195,21.469477 34.6100195,26.8017269 34.6104002,32.13435 C34.8906109,32.1347232 35.1708216,32.13435 35.4510324,32.1347232 C35.7948235,32.1380815 36.1454676,32.1104687 36.4801214,32.2063671 C37.2168167,32.3940593 37.8206403,32.9993014 37.995772,33.7254426 C38.08448,34.0556765 38.0494537,34.3997167 38.0570681,34.7370402 C38.0692512,35.2661606 37.8670883,35.7960273 37.5015961,36.1855913 C37.1102148,36.6109772 36.5334224,36.8665819 35.9486348,36.8684524 C26.0868168,36.8688208 16.1727147,35.2744729 6.3108967,35.274846 C5.76874988,35.2778312 5.2304103,35.0647651 4.84017119,34.6964704 C4.42061659,34.3076527 4.17543218,33.7460687 4.18038157,33.18038 C4.1883767,32.8423102 4.1522082,32.4986431 4.23292109,32.1665436 C4.35208678,31.6441398 4.68712133,31.1739764 5.14474805,30.8821766 C5.48930062,30.6590355 5.90162156,30.5392558 6.31432319,30.5407484 C6.74149224,30.5400021 7.16866128,30.5411216 7.59583033,30.5403753 C7.59506889,25.2077522 7.9151316,22.3690315 7.91360873,17.0364084 C7.21765061,17.0360353 6.52207321,17.037901 5.82649581,17.0356621 C5.46214574,17.0356621 5.09589205,16.8972251 4.8400475,16.640501 C4.39764959,16.2035475 4.32493187,15.4591222 4.668723,14.9449276 C4.79321881,14.758728 4.96454327,14.6042457 5.15909175,14.4900632 C10.2896889,11.5463179 15.1544112,7.70227193 20.2850084,4.75815353 C20.4734653,4.65404593 20.6535463,4.52344499 20.8690345,4.47680178 Z M21.0243687,11.5329842 C20.8553285,11.6270168 20.7445387,11.7904546 20.6657294,11.9602358 C20.2088641,12.8714572 19.7478109,13.7804398 19.2917071,14.6920344 C18.2321603,14.8465167 17.1714714,14.9927897 16.1119247,15.1461525 C15.8062056,15.1842134 15.5332286,15.4017572 15.4384291,15.6898256 C15.3344922,15.9801328 15.4212966,16.321561 15.6489678,16.5327614 C16.4153594,17.2652461 17.1832738,17.9958651 17.9496653,18.7287229 C17.7695842,19.7604704 17.5887417,20.7922179 17.4090414,21.8243384 C17.3614512,22.061659 17.4292196,22.3176369 17.5898839,22.5015976 C17.7570204,22.6989916 18.0242866,22.8064575 18.2850805,22.7855614 C18.45374,22.7773522 18.605267,22.6978722 18.7507024,22.6202579 C19.6511078,22.1553186 20.5526553,21.6926181 21.4530606,21.2273056 C22.4090512,21.7176188 23.3627575,22.2120367 24.3183674,22.7030962 C24.576877,22.8336972 24.9062007,22.8195176 25.1479586,22.6583188 C25.4137019,22.4911496 25.5629446,22.1631546 25.5088822,21.8575484 C25.3288012,20.8149797 25.1441514,19.7735305 24.9629282,18.7309618 C25.6862982,18.0398963 26.4096683,17.3488307 27.1330383,16.6581383 C27.2720015,16.5316419 27.4128683,16.3946975 27.4699765,16.2122294 C27.5982795,15.8629651 27.4395188,15.4442958 27.1136216,15.2580962 C26.9552416,15.160332 26.7656425,15.1435405 26.5848,15.1189129 C25.5953059,14.978237 24.6058118,14.8375611 23.6163178,14.6965121 C23.1506959,13.7722306 22.6846933,12.8483222 22.2205943,11.9236675 C22.1513031,11.7766482 22.0500313,11.6400769 21.9099259,11.5508951 C21.6514163,11.3773825 21.290112,11.3699195 21.0243687,11.5329842 M11.975731,27.6488984 C11.9527018,27.8440677 11.9245955,28.0516055 12.0040558,28.2384905 C12.1092458,28.5090643 12.3867279,28.7020936 12.6818616,28.7111794 C18.2143423,29.0914823 23.7471498,29.4725559 29.279604,29.853231 C29.4536289,29.8640831 29.6351721,29.8926591 29.8035623,29.8324268 C30.0776107,29.7461735 30.2890004,29.4943903 30.3170272,29.2127837 C30.3339287,29.0340254 30.3598469,28.8465361 30.2919146,28.6746584 C30.1945321,28.4016293 29.9229755,28.2004045 29.6279646,28.1842201 C24.0834364,27.801592 18.5387494,27.4211973 12.9945481,27.0393398 C12.8589353,27.0303826 12.7217051,27.0119628 12.5868557,27.035227 C12.2789225,27.0881021 12.0198829,27.3444618 11.975731,27.6488984 Z M12.5890421,30.5835468 C12.2815945,30.634959 12.0219276,30.8894053 11.9763093,31.1929929 C11.9511262,31.3969913 11.9229594,31.6161207 12.0133903,31.8097455 C12.1249915,32.0706609 12.3976496,32.2510144 12.6854613,32.2610926 C18.2927614,32.6465437 23.8995493,33.0338298 29.5069551,33.4177919 C29.8732538,33.4512253 30.2363021,33.1866859 30.3057792,32.831998 C30.3533172,32.5551004 30.3695042,32.2360217 30.1688065,32.0097479 C30.0066286,31.7999647 29.732631,31.7190182 29.4738083,31.719912 C24.0058132,31.3451683 18.538383,30.9678451 13.0708471,30.5920109 C12.9104419,30.5828441 12.748869,30.5578865 12.5890421,30.5835468 L12.5890421,30.5835468 Z" id="形状备份" fill="url(#linearGradient-27)" fill-rule="nonzero" transform="translate(21.141305, 20.658357) rotate(18.000000) translate(-21.141305, -20.658357) "></path>
                                </g>
                            </g>
                        </g>
                    </g>
                </g>
            </g>
        </g>
    </g>
</svg>