<?xml version="1.0" encoding="UTF-8"?>
<svg width="80px" height="80px" viewBox="0 0 80 80" version="1.1" xmlns="http://www.w3.org/2000/svg" xmlns:xlink="http://www.w3.org/1999/xlink">
    <title>编组 5</title>
    <defs>
        <linearGradient x1="50%" y1="0%" x2="50%" y2="100%" id="linearGradient-1">
            <stop stop-color="#C4DAFF" stop-opacity="0.56" offset="0%"></stop>
            <stop stop-color="#C4DAFF" stop-opacity="0.0964150595" offset="100%"></stop>
        </linearGradient>
    </defs>
    <g id="页面-1" stroke="none" stroke-width="1" fill="none" fill-rule="evenodd">
        <g id="icon" transform="translate(-585.000000, -245.000000)">
            <g id="编组-4" transform="translate(585.500000, 245.151149)">
                <rect id="矩形备份-41" x="0" y="0" width="80" height="80"></rect>
                <g id="编组-120" transform="translate(2.327901, 2.500020)" fill-rule="nonzero">
                    <polygon id="路径" fill="url(#linearGradient-1)" transform="translate(37.672099, 36.249990) rotate(-30.000000) translate(-37.672099, -36.249990) " points="23.1720992 61.3647149 8.67209921 36.2499899 23.1720992 11.1352649 52.1720992 11.1352649 66.6720992 36.2499899 52.1720992 61.3647149"></polygon>
                    <g id="结构" transform="translate(24.605205, 23.820999)" fill="#FFFFFF">
                        <path d="M3.50862873,25.0113817 C1.57542541,25.0113817 0,23.4389628 0,21.5027529 C0,19.5665431 1.57241887,17.9941242 3.50862873,17.9941242 C5.44483859,17.9941242 7.01725746,19.5665431 7.01725746,21.5027529 C7.01725746,23.4389628 5.44183205,25.0113817 3.50862873,25.0113817 Z" id="路径"></path>
                        <path d="M3.50862873,20.7150402 C3.07268086,20.7150402 2.72091603,21.0698116 2.72091603,21.5027529 C2.72091603,21.9387008 3.0756874,22.2904657 3.50862873,22.2904657 C3.94157007,22.2904657 4.29634144,21.9356943 4.29634144,21.5027529 C4.29634144,21.0698116 3.94157007,20.7150402 3.50862873,20.7150402 Z" id="路径"></path>
                        <path d="M23.6824923,7.01425093 C21.749289,7.01425093 20.1738636,5.44183205 20.1738636,3.50562219 C20.1738636,1.56941234 21.749289,0 23.6824923,0 C25.6156956,0 27.191121,1.57241887 27.191121,3.50862873 C27.191121,5.44483859 25.6156956,7.01425093 23.6824923,7.01425093 L23.6824923,7.01425093 Z" id="路径"></path>
                        <path d="M23.6824923,2.72091603 C23.2465444,2.72091603 22.8947796,3.0756874 22.8947796,3.50862873 C22.8947796,3.94157007 23.249551,4.29634144 23.6824923,4.29634144 C24.1154336,4.29634144 24.470205,3.94157007 24.470205,3.50862873 C24.470205,3.0756874 24.1184402,2.72091603 23.6824923,2.72091603 Z" id="路径"></path>
                        <path d="M8.5295456,11.9028802 C6.59634228,11.9028802 5.02091687,10.3304613 5.02091687,8.39425143 C5.02091687,6.45804157 6.59333574,4.8856227 8.5295456,4.8856227 C10.4657555,4.8856227 12.0381743,6.45804157 12.0381743,8.39425143 C12.0381743,10.3304613 10.4627489,11.9028802 8.5295456,11.9028802 L8.5295456,11.9028802 Z" id="路径"></path>
                        <path d="M8.5295456,7.60954526 C8.09359773,7.60954526 7.74183289,7.96431663 7.74183289,8.39725797 C7.74183289,8.83320584 8.09660426,9.18497067 8.5295456,9.18497067 C8.96549347,9.18497067 9.3172583,8.8301993 9.3172583,8.39725797 C9.3172583,7.9613101 8.96549347,7.60954526 8.5295456,7.60954526 Z" id="路径"></path>
                        <path d="M18.5383074,21.2020992 C16.6051041,21.2020992 15.0296787,19.6296804 15.0296787,17.6934705 C15.0296787,15.7572607 16.6020976,14.1878483 18.5383074,14.1878483 C20.4745173,14.1878483 22.0439296,15.7602672 22.0439296,17.6934705 C22.0439296,19.6266738 20.4715107,21.2020992 18.5383074,21.2020992 Z" id="路径"></path>
                        <path d="M18.5383074,16.9057578 C18.1023595,16.9057578 17.7505947,17.2605292 17.7505947,17.6934705 C17.7505947,18.1264118 18.1053661,18.4811832 18.5383074,18.4811832 C18.9712488,18.4811832 19.3260201,18.1264118 19.3260201,17.6934705 C19.3260201,17.2605292 18.9712488,16.9057578 18.5383074,16.9057578 Z" id="路径"></path>
                        <path d="M3.50862873,22.8647142 C3.34627573,22.8647142 3.18392273,22.8346489 3.02156973,22.7745181 C2.3210466,22.5069363 1.96928176,21.7192236 2.23686356,21.0187005 L7.25778043,7.91019897 C7.42013343,7.48928378 7.78091787,7.17359739 8.21987228,7.07137513 C8.65882669,6.96915287 9.1218334,7.09242089 9.45255247,7.39908767 L17.9550392,15.300267 L22.4047141,3.04562203 C22.6602697,2.33908582 23.4419693,1.97830138 24.145499,2.23085049 C24.8520352,2.48640614 25.2158262,3.26810577 24.9602705,3.97163544 L19.8160857,18.1564772 C19.6597457,18.586412 19.2989613,18.9081115 18.8570003,19.0133403 C18.4120329,19.1185691 17.9460196,18.9983076 17.612294,18.6886343 L9.07974188,10.7634026 L4.77738736,21.9898119 C4.56993631,22.5309886 4.05581847,22.8647142 3.50862873,22.8647142 Z" id="路径"></path>
                    </g>
                </g>
            </g>
        </g>
    </g>
</svg>