<?xml version="1.0" encoding="UTF-8"?>
<svg width="888px" height="553px" viewBox="0 0 888 553" version="1.1" xmlns="http://www.w3.org/2000/svg" xmlns:xlink="http://www.w3.org/1999/xlink">
    <title>银行全场景智能营销3</title>
    <defs>
        <linearGradient x1="50%" y1="0%" x2="50%" y2="100%" id="linearGradient-1">
            <stop stop-color="#1854FF" offset="0%"></stop>
            <stop stop-color="#0094E0" offset="100%"></stop>
        </linearGradient>
        <linearGradient x1="100%" y1="50%" x2="5.76154474%" y2="50%" id="linearGradient-2">
            <stop stop-color="#5691FD" stop-opacity="0.634565874" offset="0%"></stop>
            <stop stop-color="#2B58F9" offset="100%"></stop>
        </linearGradient>
    </defs>
    <g id="页面-1" stroke="none" stroke-width="1" fill="none" fill-rule="evenodd">
        <g id="画板" transform="translate(-3483.000000, -267.000000)">
            <g id="编组-46" transform="translate(3051.000000, 52.000000)">
                <g id="编组-29" transform="translate(120.000000, 215.500000)">
                    <g id="银行全场景智能营销3" transform="translate(312.000000, 0.000000)">
                        <rect id="矩形备份-27" fill="#F6FCFF" x="0" y="0" width="888" height="552" rx="8"></rect>
                        <g id="编组-5" transform="translate(237.000000, 84.500000)">
                            <circle id="椭圆形" fill-opacity="0.15" fill="url(#linearGradient-1)" cx="207" cy="206" r="172"></circle>
                            <circle id="椭圆形" fill-opacity="0.15" fill="url(#linearGradient-1)" opacity="0.36416626" cx="207" cy="207" r="207"></circle>
                            <circle id="椭圆形" fill="url(#linearGradient-1)" cx="206.5" cy="206.5" r="140.5"></circle>
                            <g id="火箭,快速,技术,升级" transform="translate(207.000000, 161.000000) rotate(-45.000000) translate(-207.000000, -161.000000) translate(180.000000, 134.000000)" fill-rule="nonzero">
                                <rect id="矩形" fill="#000000" opacity="0" x="0" y="0" width="54" height="54"></rect>
                                <path d="M53.4204492,1.44075586 C53.2685215,0.466277344 53.2161035,0.424353516 52.2154687,0.241048828 C51.288082,0.0680273437 50.3608008,0 49.4281406,0 C48.5165215,0 47.6049551,0.062859375 46.6985566,0.157148437 C43.0573535,0.534410156 39.5052187,1.3464668 36.0578145,2.58815039 C29.9542324,4.78859766 24.5683652,8.07358008 20.2093945,12.9406992 C20.0102695,13.1607598 19.8059766,13.2341133 19.5492656,13.2341133 C19.4863535,13.2341133 19.4234941,13.2288398 19.3554141,13.2236191 C17.5216816,13.0245469 15.6827285,12.7049766 13.8437754,12.7049766 L13.7180566,12.7049766 C10.4383477,12.7311328 7.88162695,14.2348008 6.10558594,17.0168027 C5.13632813,18.5361328 4.17234375,20.0606836 3.20308594,21.5853398 C2.3019082,22.9998867 1.37984766,24.393498 0.504878906,25.8238125 C-0.736804687,27.8566172 0.436798828,30.2980605 2.74725,30.4709238 C5.52925195,30.6804902 8.31125391,30.8481855 11.0932559,31.0001133 C11.5961836,31.0262695 11.8109707,31.1625352 11.858168,31.6968926 C12.0258105,33.4677129 12.4973086,35.1547383 13.4456309,36.6793418 C15.2950254,39.6447012 17.987959,41.2740879 21.4248691,41.7298711 C22.7189707,41.9027871 22.6822676,41.9132812 22.7765566,43.2492539 C22.9599141,45.9211992 23.1590391,48.598418 23.4104766,51.2651426 C23.567625,52.9312324 24.8512852,54 26.2815469,54 C26.8473867,54 27.4394355,53.8323047 27.9947813,53.4708633 C31.1015742,51.4380586 34.2398496,49.4366836 37.2523535,47.2677187 C40.0605645,45.2453555 41.2812598,42.3952734 40.9197656,38.9112187 C40.7678379,37.4180449 40.6420664,35.9196504 40.4901387,34.4265293 C40.4429941,33.9654727 40.552998,33.6144199 40.9145449,33.2843555 C45.3206602,29.2449551 48.4641562,24.3568477 50.6121855,18.8085586 C52.4092148,14.166668 53.4832559,9.37807031 53.6351836,4.39567383 C53.640457,4.2541875 53.6456777,4.11275391 53.6456777,3.97654102 C53.6613926,3.12256055 53.5513887,2.27902148 53.4203965,1.44075586 L53.4204492,1.44075586 Z M36.9380566,24.6135586 L36.880418,24.6135586 C32.7152988,24.5821289 28.9797539,20.8518574 29.068875,16.7286094 C29.1736055,11.840502 32.8567852,8.69178516 37.147623,8.69178516 L37.2943301,8.69178516 C41.4856582,8.75986523 45.011584,12.4220566 44.9592188,16.6814648 C44.9015801,21.1085684 41.3494453,24.6135586 36.9380566,24.6135586 L36.9380566,24.6135586 Z M18.4333535,47.0423848 C16.9821035,48.5093496 15.5151387,49.9553789 14.0691094,51.4170703 C13.7233301,51.768123 13.3513945,51.9829102 12.9217676,51.9829102 C12.7540723,51.9829102 12.5759883,51.9514805 12.3873574,51.878127 C11.7010195,51.6266367 11.3709551,51.1184883 11.3395254,50.4059414 C11.3185898,49.9553789 11.3290312,49.5048164 11.3185898,49.0542539 C11.302875,48.5198437 11.2976016,48.3259922 11.0880352,48.3259922 C10.9728105,48.3259922 10.7998945,48.3836309 10.5327422,48.4726992 C8.90330273,49.0123301 7.27918945,49.5571816 5.64980273,50.0968125 C5.4035332,50.1806602 5.1520957,50.2382988 4.91109961,50.2382988 C4.68054492,50.2382988 4.45004297,50.1858809 4.21954102,50.0601621 C3.52270898,49.6672383 3.26077734,48.9704062 3.53842383,48.1164258 C4.07805469,46.4451152 4.64911523,44.7790781 5.19924023,43.1077676 C5.44023633,42.3847793 5.42452148,42.3690645 4.64389453,42.3533496 C4.17234375,42.3480762 3.7008457,42.3533496 3.22929492,42.3324141 C2.54300977,42.3009844 2.05574414,41.9656465 1.7990332,41.3160117 C1.55276367,40.6820391 1.70991211,40.1319668 2.17102148,39.6656895 C3.68600816,38.145446 5.20361784,36.6278187 6.72384375,35.1128145 C6.99626953,34.8403887 7.32111328,34.6727461 7.67211328,34.6727461 C7.70881641,34.6727461 7.7454668,34.6727461 7.77689648,34.6780195 C8.59944727,34.6884609 9.0552832,35.0552285 9.35391797,35.8934941 C10.5117539,39.1941387 12.6179121,41.6932207 15.6723398,43.3907402 C16.3481836,43.7626758 17.055457,44.0665312 17.7889395,44.3180215 C19.114418,44.768584 19.4130527,46.0521914 18.4333535,47.0423848 L18.4333535,47.0423848 Z" id="形状" fill="#FFFFFF"></path>
                            </g>
                            <text id="ROI" font-family="PingFangSC-Medium, PingFang SC" font-size="43" font-weight="400" fill="#FFFFFF">
                                <tspan x="170" y="244">ROI</tspan>
                            </text>
                            <text id="升级运营服务" font-family="PingFangSC-Regular, PingFang SC" font-size="20" font-weight="normal" fill="#FFFFFF">
                                <tspan x="147" y="280">升级运营服务</tspan>
                            </text>
                        </g>
                        <g id="编组-4" transform="translate(160.000000, 193.500000)">
                            <rect id="矩形" stroke="url(#linearGradient-2)" stroke-width="2" fill="#FFFFFF" x="1" y="1" width="138" height="79" rx="39.5"></rect>
                            <text id="数据" font-family="PingFangSC-Regular, PingFang SC" font-size="24" font-weight="normal" fill="#0A0F2C" fill-opacity="0.85">
                                <tspan x="46" y="49">数据</tspan>
                            </text>
                        </g>
                        <g id="编组-4" transform="translate(588.000000, 193.500000)">
                            <rect id="矩形" stroke="url(#linearGradient-2)" stroke-width="2" fill="#FFFFFF" x="1" y="1" width="138" height="79" rx="39.5"></rect>
                            <text id="策略" font-family="PingFangSC-Regular, PingFang SC" font-size="24" font-weight="normal" fill="#0A0F2C" fill-opacity="0.85">
                                <tspan x="46" y="49">策略</tspan>
                            </text>
                        </g>
                        <g id="编组-4" transform="translate(518.000000, 406.500000)">
                            <rect id="矩形" stroke="url(#linearGradient-2)" stroke-width="2" fill="#FFFFFF" x="1" y="1" width="138" height="79" rx="39.5"></rect>
                            <text id="实验" font-family="PingFangSC-Regular, PingFang SC" font-size="24" font-weight="normal" fill="#0A0F2C" fill-opacity="0.85">
                                <tspan x="46" y="49">实验</tspan>
                            </text>
                        </g>
                        <g id="编组-4" transform="translate(220.000000, 406.500000)">
                            <rect id="矩形" stroke="url(#linearGradient-2)" stroke-width="2" fill="#FFFFFF" x="1" y="1" width="138" height="79" rx="39.5"></rect>
                            <text id="固化" font-family="PingFangSC-Regular, PingFang SC" font-size="24" font-weight="normal" fill="#0A0F2C" fill-opacity="0.85">
                                <tspan x="46" y="49">固化</tspan>
                            </text>
                        </g>
                        <g id="编组-4" transform="translate(374.000000, 52.500000)">
                            <rect id="矩形" stroke="url(#linearGradient-2)" stroke-width="2" fill="#FFFFFF" x="1" y="1" width="138" height="79" rx="39.5"></rect>
                            <text id="反馈" font-family="PingFangSC-Regular, PingFang SC" font-size="24" font-weight="normal" fill="#0A0F2C" fill-opacity="0.85">
                                <tspan x="46" y="49">反馈</tspan>
                            </text>
                        </g>
                    </g>
                </g>
            </g>
        </g>
    </g>
</svg>