<?xml version="1.0" encoding="UTF-8"?>
<svg width="888px" height="553px" viewBox="0 0 888 553" version="1.1" xmlns="http://www.w3.org/2000/svg" xmlns:xlink="http://www.w3.org/1999/xlink">
    <title>编组 21</title>
    <defs>
        <linearGradient x1="95.6334936%" y1="50.280057%" x2="3.45962806%" y2="49.719943%" id="linearGradient-1">
            <stop stop-color="#0156FF" offset="0%"></stop>
            <stop stop-color="#017EFF" offset="100%"></stop>
        </linearGradient>
        <linearGradient x1="95.6334936%" y1="53.8217993%" x2="3.45962806%" y2="46.1782007%" id="linearGradient-2">
            <stop stop-color="#0156FF" offset="0%"></stop>
            <stop stop-color="#017EFF" offset="100%"></stop>
        </linearGradient>
        <linearGradient x1="1.87088826%" y1="60.497764%" x2="100%" y2="39.502236%" id="linearGradient-3">
            <stop stop-color="#00DFBE" stop-opacity="0.0159527972" offset="0%"></stop>
            <stop stop-color="#00D5C3" stop-opacity="0.333615603" offset="7.55845717%"></stop>
            <stop stop-color="#005DFF" offset="100%"></stop>
        </linearGradient>
        <linearGradient x1="99.8839052%" y1="50.1160948%" x2="0.116094843%" y2="50.1160948%" id="linearGradient-4">
            <stop stop-color="#005EFF" offset="0.00273164336%"></stop>
            <stop stop-color="#4AF092" offset="86.6364592%"></stop>
            <stop stop-color="#4ACAF0" stop-opacity="0" offset="100%"></stop>
        </linearGradient>
    </defs>
    <g id="页面-1" stroke="none" stroke-width="1" fill="none" fill-rule="evenodd">
        <g id="画板" transform="translate(-1940.000000, -283.000000)">
            <g id="编组-46" transform="translate(1508.000000, 68.000000)">
                <g id="编组-29" transform="translate(120.000000, 215.500000)">
                    <g id="编组-21" transform="translate(312.000000, 0.000000)">
                        <rect id="矩形备份-27" fill="#F6FCFF" x="0" y="0" width="888" height="552" rx="8"></rect>
                        <rect id="矩形备份" fill="url(#linearGradient-1)" x="230" y="20" width="628" height="47" rx="23.5"></rect>
                        <text id="银行用户生命周期曲线" font-family="PingFangSC-Semibold, PingFang SC" font-size="19.8168289" font-weight="500" letter-spacing="0.116025988" fill="#FFFFFF">
                            <tspan x="444.335725" y="51">银行用户生命周期曲线</tspan>
                        </text>
                        <rect id="矩形备份" fill="url(#linearGradient-2)" x="30" y="20" width="170" height="47" rx="23.5"></rect>
                        <text id="银行业务线" font-family="PingFangSC-Semibold, PingFang SC" font-size="19.8168289" font-weight="500" letter-spacing="0.116025988" fill="#FFFFFF">
                            <tspan x="70.1678627" y="51">银行业务线</tspan>
                        </text>
                        <g id="编组-34" transform="translate(30.000000, 58.000000)">
                            <rect id="矩形" fill-opacity="0.0701588451" fill="#2B58F9" x="0" y="20" width="170" height="454" rx="15.1741819"></rect>
                            <g id="编组-10" transform="translate(20.000000, 169.000000)">
                                <rect id="矩形备份-13" stroke="#2B58F9" stroke-width="0.948386374" fill="#0364FF" x="0.474193187" y="0.474193187" width="129.051614" height="31.0516136" rx="15.5258068"></rect>
                                <text id="信用卡" font-family="PingFangSC-Regular, PingFang SC" font-size="14" font-weight="normal" letter-spacing="0.0819689172" fill="#FFFFFF">
                                    <tspan x="43.8770466" y="21">信用卡</tspan>
                                </text>
                            </g>
                            <g id="编组-7" transform="translate(19.976387, 42.513212)">
                                <rect id="矩形备份-16" stroke="#2B58F9" stroke-width="0.948386374" fill="#FFFFFF" x="0.474193187" y="0.474193187" width="129.051614" height="31.0516136" rx="15.5258068"></rect>
                                <text id="存款" font-family="PingFangSC-Regular, PingFang SC" font-size="14" font-weight="normal" letter-spacing="0.0819689172" fill="#2B58F9">
                                    <tspan x="50.9180311" y="21">存款</tspan>
                                </text>
                            </g>
                            <g id="编组-11" transform="translate(20.000000, 253.000000)">
                                <rect id="矩形备份-14" stroke="#2B58F9" stroke-width="0.948386374" fill="#0364FF" x="0.474193187" y="0.474193187" width="129.051614" height="31.0516136" rx="15.5258068"></rect>
                                <text id="债券" font-family="PingFangSC-Regular, PingFang SC" font-size="14" font-weight="normal" letter-spacing="0.0819689172" fill="#FFFFFF">
                                    <tspan x="50.9180311" y="21">债券</tspan>
                                </text>
                            </g>
                            <g id="编组-12" transform="translate(20.000000, 337.000000)">
                                <rect id="矩形备份-15" stroke="#2B58F9" stroke-width="0.948386374" fill="#0364FF" x="0.474193187" y="0.474193187" width="129.051614" height="31.0516136" rx="15.5258068"></rect>
                                <text id="贵金属" font-family="PingFangSC-Regular, PingFang SC" font-size="14" font-weight="normal" letter-spacing="0.0819689172" fill="#FFFFFF">
                                    <tspan x="43.8770466" y="21">贵金属</tspan>
                                </text>
                            </g>
                            <g id="编组-13" transform="translate(20.000000, 421.000000)">
                                <rect id="矩形备份-15" stroke="#2B58F9" stroke-width="0.948386374" fill="#0364FF" x="0.474193187" y="0.474193187" width="129.051614" height="31.0516136" rx="15.5258068"></rect>
                                <text id="用户回访" font-family="PingFangSC-Regular, PingFang SC" font-size="14" font-weight="normal" letter-spacing="0.0819689172" fill="#FFFFFF">
                                    <tspan x="36.8360622" y="21">用户回访</tspan>
                                </text>
                            </g>
                            <g id="编组-10" transform="translate(20.000000, 127.000000)">
                                <rect id="矩形备份-13" stroke="#2B58F9" stroke-width="0.948386374" fill="#FFFFFF" x="0.474193187" y="0.474193187" width="129.051614" height="31.0516136" rx="15.5258068"></rect>
                                <text id="基金" font-family="PingFangSC-Regular, PingFang SC" font-size="14" font-weight="normal" letter-spacing="0.0819689172" fill="#2B58F9">
                                    <tspan x="50.9180311" y="21">基金</tspan>
                                </text>
                            </g>
                            <g id="编组-7" transform="translate(19.976387, 84.513212)">
                                <rect id="矩形备份-16" stroke="#2B58F9" stroke-width="0.948386374" fill="#0364FF" x="0.474193187" y="0.474193187" width="129.051614" height="31.0516136" rx="15.5258068"></rect>
                                <text id="贷款" font-family="PingFangSC-Regular, PingFang SC" font-size="14" font-weight="normal" letter-spacing="0.0819689172" fill="#FFFFFF">
                                    <tspan x="50.9180311" y="21">贷款</tspan>
                                </text>
                            </g>
                            <g id="编组-11" transform="translate(20.000000, 211.000000)">
                                <rect id="矩形备份-14" stroke="#2B58F9" stroke-width="0.948386374" fill="#FFFFFF" x="0.474193187" y="0.474193187" width="129.051614" height="31.0516136" rx="15.5258068"></rect>
                                <text id="理财" font-family="PingFangSC-Regular, PingFang SC" font-size="14" font-weight="normal" letter-spacing="0.0819689172" fill="#2B58F9">
                                    <tspan x="50.9180311" y="21">理财</tspan>
                                </text>
                            </g>
                            <g id="编组-12" transform="translate(20.000000, 295.000000)">
                                <rect id="矩形备份-15" stroke="#2B58F9" stroke-width="0.948386374" fill="#FFFFFF" x="0.474193187" y="0.474193187" width="129.051614" height="31.0516136" rx="15.5258068"></rect>
                                <text id="保险" font-family="PingFangSC-Regular, PingFang SC" font-size="14" font-weight="normal" letter-spacing="0.0819689172" fill="#2B58F9">
                                    <tspan x="50.9180311" y="21">保险</tspan>
                                </text>
                            </g>
                            <g id="编组-13" transform="translate(20.000000, 379.000000)">
                                <rect id="矩形备份-15" stroke="#2B58F9" stroke-width="0.948386374" fill="#FFFFFF" x="0.474193187" y="0.474193187" width="129.051614" height="31.0516136" rx="15.5258068"></rect>
                                <text id="客户服务接待" font-family="PingFangSC-Regular, PingFang SC" font-size="14" font-weight="normal" letter-spacing="0.0819689172" fill="#2B58F9">
                                    <tspan x="22.7540932" y="21">客户服务接待</tspan>
                                </text>
                            </g>
                        </g>
                        <g id="编组-18" transform="translate(777.000000, 276.500000)">
                            <rect id="矩形备份-2" fill="#97E8EA" x="0" y="0" width="93" height="20.709073" rx="10.3545365"></rect>
                            <text id="客户交互目标" font-family="PingFangSC-Regular, PingFang SC" font-size="12" font-weight="normal" letter-spacing="0.0702590609" fill="#000000">
                                <tspan x="9.78922282" y="15">客户交互目标</tspan>
                            </text>
                        </g>
                        <g id="编组-18" transform="translate(777.000000, 147.500000)">
                            <rect id="矩形备份-2" fill="#97E8EA" x="0" y="0" width="93" height="20.709073" rx="10.3545365"></rect>
                            <text id="客户交互/内容" font-family="PingFangSC-Regular, PingFang SC" font-size="12" font-weight="normal" letter-spacing="0.0702590609" fill="#000000">
                                <tspan x="6.75409329" y="15">客户交互/内容</tspan>
                            </text>
                        </g>
                        <g id="编组-18" transform="translate(777.000000, 435.500000)">
                            <rect id="矩形备份-2" fill="#97E8EA" x="0" y="0" width="93" height="20.709073" rx="10.3545365"></rect>
                            <text id="客户价值曲线" font-family="PingFangSC-Regular, PingFang SC" font-size="12" font-weight="normal" letter-spacing="0.0702590609" fill="#000000">
                                <tspan x="9.78922282" y="15">客户价值曲线</tspan>
                            </text>
                        </g>
                        <g id="编组-20" transform="translate(233.500000, 87.500000)">
                            <path d="M7.88231593,413.95519 C29.5547558,369.355523 55.7598635,332.773337 86.4976389,304.208633 C117.235414,275.643928 146.538808,261.179994 174.40782,260.816828 C207.836301,260.144997 238.341382,245.484517 265.923062,216.835388 C293.504742,188.186259 317.39069,174.043571 337.580905,174.407323 C366.909954,176.292275 397.604695,203.435296 429.665126,255.836386 C461.725558,308.237475 495.400254,344.539928 530.689214,364.743745" id="路径-15" stroke="url(#linearGradient-3)" stroke-width="3"></path>
                            <path d="M7.88231593,413.95519 C29.5547558,369.355523 55.7598635,332.773337 86.4976389,304.208633 C117.235414,275.643928 146.538808,261.179994 174.40782,260.816828 C207.836301,260.144997 238.341382,245.484517 265.923062,216.835388 C293.504742,188.186259 317.39069,174.043571 337.580905,174.407323 C366.909954,176.292275 397.604695,203.435296 429.665126,255.836386 C461.374335,307.663419 495.821827,344.412403 530.689214,364.743745 C530.946683,364.893877 530.946683,381.297692 530.689214,413.95519" id="路径-15" fill="url(#linearGradient-4)" opacity="0.087483724"></path>
                            <path d="M72.6035505,308.450382 C74.1646297,308.450382 75.5779217,309.083135 76.6009439,310.106157 C77.6239661,311.129179 78.2567185,312.542471 78.2567185,314.10355 C78.2567185,315.542843 77.7188765,316.856534 76.8331306,317.854514 L72.597242,321.643022 L68.191927,317.867038 C67.4881239,316.862513 66.9503825,315.546193 66.9503825,314.10355 C66.9503825,312.542471 67.5831349,311.129179 68.6061571,310.106157 C69.6291793,309.083135 71.0424713,308.450382 72.6035505,308.450382 Z" id="形状结合备份-8" stroke="#FFFFFF" stroke-width="0.900764952" fill="#00C8BD"></path>
                            <path d="M198.603551,250.450382 C200.16463,250.450382 201.577922,251.083135 202.600944,252.106157 C203.623966,253.129179 204.256719,254.542471 204.256719,256.10355 C204.256719,257.542843 203.718877,258.856534 202.833131,259.854514 L198.597242,263.643022 L194.191927,259.867038 C193.488124,258.862513 192.950382,257.546193 192.950382,256.10355 C192.950382,254.542471 193.583135,253.129179 194.606157,252.106157 C195.629179,251.083135 197.042471,250.450382 198.603551,250.450382 Z" id="形状结合备份-8" stroke="#FFFFFF" stroke-width="0.900764952" fill="#0364FF"></path>
                            <path d="M334.60355,165.450382 C336.16463,165.450382 337.577922,166.083135 338.600944,167.106157 C339.623966,168.129179 340.256719,169.542471 340.256719,171.10355 C340.256719,172.542843 339.718877,173.856534 338.833131,174.854514 L334.597242,178.643022 L330.191927,174.867038 C329.488124,173.862513 328.950382,172.546193 328.950382,171.10355 C328.950382,169.542471 329.583135,168.129179 330.606157,167.106157 C331.629179,166.083135 333.042471,165.450382 334.60355,165.450382 Z" id="形状结合备份-8" stroke="#FFFFFF" stroke-width="0.900764952" fill="#0364FF"></path>
                            <path d="M462.60355,294.450382 C464.16463,294.450382 465.577922,295.083135 466.600944,296.106157 C467.623966,297.129179 468.256719,298.542471 468.256719,300.10355 C468.256719,301.542843 467.718877,302.856534 466.833131,303.854514 L462.597242,307.643022 L458.191927,303.867038 C457.488124,302.862513 456.950382,301.546193 456.950382,300.10355 C456.950382,298.542471 457.583135,297.129179 458.606157,296.106157 C459.629179,295.083135 461.042471,294.450382 462.60355,294.450382 Z" id="形状结合备份-8" stroke="#FFFFFF" stroke-width="0.900764952" fill="#00C8BD"></path>
                            <g id="编组-17" transform="translate(281.500000, 62.000000)">
                                <rect id="形状结合备份-4" stroke="#015AFF" stroke-width="0.900764952" fill="#FFFFFF" transform="translate(53.000000, 49.500000) scale(-1, 1) translate(-53.000000, -49.500000) " x="0.450382476" y="0.450382476" width="105.099235" height="98.099235" rx="7.20611954"></rect>
                                <text id="消费刺激-需求挖掘-产品方案推荐-完成复" font-family="PingFangSC-Regular, PingFang SC" font-size="11" font-weight="normal" line-spacing="20" letter-spacing="0.0644041391" fill="#015BFF">
                                    <tspan x="30.8711917" y="21">消费刺激</tspan>
                                    <tspan x="30.8711917" y="41">需求挖掘</tspan>
                                    <tspan x="19.8067876" y="61">产品方案推荐</tspan>
                                    <tspan x="11.4923834" y="81">完成复购/转介绍</tspan>
                                </text>
                            </g>
                            <g id="编组-17" transform="translate(147.500000, 164.000000)">
                                <rect id="形状结合备份-4" stroke="#015AFF" stroke-width="0.900764952" fill="#FFFFFF" transform="translate(53.000000, 38.500000) scale(-1, 1) translate(-53.000000, -38.500000) " x="0.450382476" y="0.450382476" width="105.099235" height="76.099235" rx="7.20611954"></rect>
                                <text id="客户答疑-需求满足-优惠支持-活动通知" font-family="PingFangSC-Regular, PingFang SC" font-size="11" font-weight="normal" line-spacing="20" letter-spacing="0.0644041391" fill="#015BFF">
                                    <tspan x="5" y="21">客户答疑  需求满足</tspan>
                                    <tspan x="5" y="41">优惠支持  活动通知</tspan>
                                    <tspan x="5" y="61">客户关怀  感情维系</tspan>
                                </text>
                            </g>
                            <g id="编组-15" transform="translate(19.500000, 180.000000)">
                                <rect id="形状结合备份-4" stroke="#015AFF" stroke-width="0.900764952" fill="#FFFFFF" transform="translate(53.000000, 58.500000) scale(-1, 1) translate(-53.000000, -58.500000) " x="0.450382476" y="0.450382476" width="105.099235" height="116.099235" rx="7.20611954"></rect>
                                <text id="营销方案制定-目标客户筛选-个性化转化交" font-family="PingFangSC-Regular, PingFang SC" font-size="11" font-weight="normal" line-spacing="20" letter-spacing="0.0644041391" fill="#015BFF">
                                    <tspan x="19.9818369" y="21.2626565">营销方案制定</tspan>
                                    <tspan x="19.9818369" y="41.2626565">目标客户筛选</tspan>
                                    <tspan x="14.4496348" y="61.2626565">个性化转化交互</tspan>
                                    <tspan x="19.9818369" y="81.2626565">资料核实确认</tspan>
                                    <tspan x="19.9818369" y="101.262657">完成产品签约</tspan>
                                </text>
                            </g>
                            <g id="编组-17" transform="translate(412.500000, 211.000000)">
                                <rect id="形状结合备份-4" stroke="#015AFF" stroke-width="0.900764952" fill="#FFFFFF" transform="translate(53.000000, 38.500000) scale(-1, 1) translate(-53.000000, -38.500000) " x="0.450382476" y="0.450382476" width="105.099235" height="76.099235" rx="7.20611954"></rect>
                                <text id="客户回访-问题处理-挽回策略" font-family="PingFangSC-Regular, PingFang SC" font-size="11" font-weight="normal" line-spacing="20" letter-spacing="0.0644041391" fill="#015BFF">
                                    <tspan x="31" y="21">客户回访</tspan>
                                    <tspan x="31" y="41">问题处理</tspan>
                                    <tspan x="31" y="61">挽回策略</tspan>
                                </text>
                            </g>
                            <g id="编组-19" transform="translate(20.500000, 339.500000)">
                                <rect id="矩形" fill="#2B58F9" x="0" y="0" width="104" height="27.9122288" rx="13.9561144"></rect>
                                <text id="产品营销" font-family="PingFangSC-Medium, PingFang SC" font-size="14.4122392" font-weight="400" line-spacing="19.8168289" fill="#FFFFFF">
                                    <tspan x="23" y="20">产品营销</tspan>
                                </text>
                            </g>
                            <g id="编组-19" transform="translate(149.000000, 276.000000)">
                                <rect id="矩形" fill="#2B58F9" x="0" y="0" width="104" height="27.9122288" rx="13.9561144"></rect>
                                <text id="客户服务" font-family="PingFangSC-Medium, PingFang SC" font-size="14.4122392" font-weight="400" line-spacing="19.8168289" fill="#FFFFFF">
                                    <tspan x="23" y="20">客户服务</tspan>
                                </text>
                            </g>
                            <g id="编组-19" transform="translate(283.000000, 189.000000)">
                                <rect id="矩形" fill="#2B58F9" x="0" y="0" width="104" height="27.9122288" rx="13.9561144"></rect>
                                <text id="复购/转介绍" font-family="PingFangSC-Medium, PingFang SC" font-size="14.4122392" font-weight="400" line-spacing="19.8168289" fill="#FFFFFF">
                                    <tspan x="12" y="20">复购/转介绍</tspan>
                                </text>
                            </g>
                            <g id="编组-19" transform="translate(414.000000, 319.000000)">
                                <rect id="矩形" fill="#2B58F9" x="0" y="0" width="104" height="27.9122288" rx="13.9561144"></rect>
                                <text id="流失挽回" font-family="PingFangSC-Medium, PingFang SC" font-size="14.4122392" font-weight="400" line-spacing="19.8168289" fill="#FFFFFF">
                                    <tspan x="23" y="20">流失挽回</tspan>
                                </text>
                            </g>
                            <line x1="134.984714" y1="38.3520516" x2="134.984714" y2="414.352052" id="路径-16" stroke-opacity="0.15" stroke="#0A0F2C" stroke-dasharray="3"></line>
                            <line x1="267.984714" y1="38.3520516" x2="267.984714" y2="414.352052" id="路径-16" stroke-opacity="0.15" stroke="#0A0F2C" stroke-dasharray="3"></line>
                            <line x1="400.984714" y1="38.3520516" x2="400.984714" y2="414.352052" id="路径-16" stroke-opacity="0.15" stroke="#0A0F2C" stroke-dasharray="3"></line>
                            <polyline id="路径-17" stroke="#0364FF" points="7.69179809 38.5 7.69179809 414.352052 531.691798 414.352052"></polyline>
                            <text id="开发期" font-family="PingFangSC-Regular, PingFang SC" font-size="14" font-weight="normal" fill="#0A0F2C" fill-opacity="0.85">
                                <tspan x="52" y="439">开发期</tspan>
                            </text>
                            <text id="成长期" font-family="PingFangSC-Regular, PingFang SC" font-size="14" font-weight="normal" fill="#0A0F2C" fill-opacity="0.85">
                                <tspan x="180" y="439">成长期</tspan>
                            </text>
                            <text id="成熟期" font-family="PingFangSC-Regular, PingFang SC" font-size="14" font-weight="normal" fill="#0A0F2C" fill-opacity="0.85">
                                <tspan x="313.5" y="439">成熟期</tspan>
                            </text>
                            <text id="衰退期" font-family="PingFangSC-Regular, PingFang SC" font-size="14" font-weight="normal" fill="#0A0F2C" fill-opacity="0.85">
                                <tspan x="444.5" y="439">衰退期</tspan>
                            </text>
                            <text id="时间" font-family="PingFangSC-Regular, PingFang SC" font-size="14" font-weight="normal" fill="#0A0F2C" fill-opacity="0.85">
                                <tspan x="550" y="420">时间</tspan>
                            </text>
                            <text id="客户价值/份额" font-family="PingFangSC-Regular, PingFang SC" font-size="14" font-weight="normal" fill="#0A0F2C" fill-opacity="0.85">
                                <tspan x="0.5" y="15">客户价值/份额</tspan>
                            </text>
                            <g id="上箭头" transform="translate(0.524734, 32.512344)" fill="#0364FF" fill-rule="nonzero">
                                <polygon id="路径" points="0 6.97529687 6.97526562 0 13.9505312 6.9753125"></polygon>
                            </g>
                            <g id="上箭头" transform="translate(534.500000, 414.000000) rotate(90.000000) translate(-534.500000, -414.000000) translate(526.500000, 406.000000)" fill-rule="nonzero">
                                <rect id="矩形" fill="#000000" opacity="0" x="0" y="0" width="16" height="16"></rect>
                                <polygon id="路径" fill="#0364FF" points="1.02473437 11.4876406 8 4.51234375 14.9752656 11.4876563"></polygon>
                            </g>
                        </g>
                        <line x1="622.5" y1="161" x2="771.916378" y2="161" id="路径-18" stroke-opacity="0.15" stroke="#0A0F2C" stroke-dasharray="3"></line>
                        <line x1="622.5" y1="287" x2="773.916378" y2="287" id="路径-18" stroke-opacity="0.15" stroke="#0A0F2C" stroke-dasharray="3"></line>
                        <line x1="758.5" y1="447" x2="771.916378" y2="447" id="路径-18" stroke-opacity="0.15" stroke="#0A0F2C" stroke-dasharray="3"></line>
                    </g>
                </g>
            </g>
        </g>
    </g>
</svg>