<?xml version="1.0" encoding="UTF-8"?>
<svg width="1200px" height="515px" viewBox="0 0 1200 515" version="1.1" xmlns="http://www.w3.org/2000/svg" xmlns:xlink="http://www.w3.org/1999/xlink">
    <title>编组 58</title>
    <defs>
        <linearGradient x1="50%" y1="0%" x2="50%" y2="62.0866116%" id="linearGradient-1">
            <stop stop-color="#FFFFFF" stop-opacity="0.05" offset="0%"></stop>
            <stop stop-color="#D8E1FF" offset="100%"></stop>
        </linearGradient>
        <linearGradient x1="57.219363%" y1="42.7258194%" x2="9.57116942%" y2="76.8469037%" id="linearGradient-2">
            <stop stop-color="#FFFFFF" stop-opacity="0.453154024" offset="0%"></stop>
            <stop stop-color="#D8E1FF" stop-opacity="0.05" offset="100%"></stop>
        </linearGradient>
        <linearGradient x1="50%" y1="50%" x2="92.4389868%" y2="78.997991%" id="linearGradient-3">
            <stop stop-color="#FFFFFF" stop-opacity="0.453154024" offset="0%"></stop>
            <stop stop-color="#D8E1FF" stop-opacity="0.05" offset="100%"></stop>
        </linearGradient>
    </defs>
    <g id="页面-1" stroke="none" stroke-width="1" fill="none" fill-rule="evenodd">
        <g id="银行-智能用户运营解决方案" transform="translate(-120.000000, -2222.000000)">
            <g id="编组-20" transform="translate(0.000000, 1998.500000)">
                <g id="编组-58" transform="translate(120.000000, 224.000000)">
                    <path d="M8,0 L600,0 L600,0 L600,514 L8,514 C3.581722,514 5.41083001e-16,510.418278 0,506 L0,8 C-5.41083001e-16,3.581722 3.581722,8.11624501e-16 8,0 Z" id="矩形" fill="#F6FCFF"></path>
                    <path d="M600,0 L1192,0 C1196.41828,-8.11624501e-16 1200,3.581722 1200,8 L1200,506 C1200,510.418278 1196.41828,514 1192,514 L600,514 L600,514 L600,0 Z" id="矩形" fill="#2B58F9"></path>
                    <text id="客户第一服务体系" font-family="PingFangSC-Semibold, PingFang SC" font-size="26" font-weight="500" fill="#FFFFFF">
                        <tspan x="648" y="78">客户第一服务体系</tspan>
                    </text>
                    <g id="编组-41" transform="translate(655.000000, 410.000000)">
                        <rect id="矩形" fill="#FFFFFF" x="0" y="0" width="48" height="48" rx="8"></rect>
                        <g id="团队" transform="translate(13.200000, 12.600000)" fill-rule="nonzero">
                            <rect id="矩形" fill="#000000" opacity="0" x="0" y="0" width="22.7920539" height="22.7920539"></rect>
                            <path d="M22.8,16.7141655 C22.8,17.8537682 22.3441589,18.0816887 20.5967607,18.0816887 C20.1409196,13.6752324 17.9376803,11.5479814 15.6584749,10.4843448 C17.1779526,8.43305996 17.2539187,5.47009295 15.8104294,3.26685365 C17.5578276,2.73504647 19.3811919,3.95061526 19.837033,5.84996793 C20.2168857,7.5213778 19.457158,9.34474212 17.9376803,10.0285037 C20.8246812,10.7882314 22.8,13.5232779 22.8,16.7141655 Z M7.14944887,10.4843448 C4.87024348,11.5479814 2.66700418,13.7511985 2.2111631,18.0816887 C0.463787137,18.0816887 0.00794605787,17.8537682 0.00794605787,16.7141655 C-0.144008388,13.5232779 1.90727647,10.7122654 4.79427739,10.0285037 C3.12284526,9.19278767 2.36311755,7.14150282 3.12284526,5.3181385 C3.80660688,3.72269472 5.40205065,2.88700092 6.99749443,3.342842 C5.5540051,5.47009295 5.62997119,8.35709386 7.14944887,10.4843448 L7.14944887,10.4843448 Z" id="形状" fill="#2B58F9"></path>
                            <path d="M13.4552579,10.8642198 C16.2662705,11.4719931 19.5331241,13.4473118 19.5331241,19.1453253 C19.5331241,20.664803 17.6337937,20.664803 11.4799391,20.664803 C5.25011846,20.664803 3.42675415,20.664803 3.42675415,19.1453253 C3.42675415,13.5232779 6.69360779,11.4719931 9.50462036,10.8642198 C7.30140332,9.64862875 6.54165335,6.83761618 7.60531221,4.55841079 C8.66897107,2.27920539 11.3280069,1.44348933 13.3792918,2.65908038 C15.4305766,3.87467143 16.2662927,6.68566174 15.12669,8.88890104 C14.746815,9.8005832 14.1390418,10.4083787 13.4552801,10.8642198 L13.4552579,10.8642198 Z" id="路径" fill="#719DFF"></path>
                        </g>
                    </g>
                    <text id="产研-团队" font-family="PingFangSC-Regular, PingFang SC" font-size="16" font-weight="normal" line-spacing="20" fill="#FFFFFF">
                        <tspan x="719" y="430">产研</tspan>
                        <tspan x="719" y="450">团队</tspan>
                    </text>
                    <g id="编组-24" transform="translate(672.000000, 194.000000)">
                        <path d="M1.5006098,1.12257953 C1.39563366,3.59815051 3.44462671,5.76700431 7.64758895,7.62914093 C11.8505512,9.49127754 13.7784254,12.062204 13.4312116,15.3419202" id="路径-5" stroke="#5D94FF" stroke-width="0.948386374"></path>
                        <path d="M1.5006098,1.12257953 C1.39563366,3.59815051 3.44462671,5.76700431 7.64758895,7.62914093 C11.8505512,9.49127754 13.7784254,12.062204 13.4312116,15.3419202" id="路径-5备份" stroke="#5D94FF" stroke-width="0.948386374" transform="translate(7.483863, 8.232250) scale(-1, 1) translate(-7.483863, -8.232250) "></path>
                        <circle id="椭圆形备份-2" fill="#EAF1FF" cx="13.4709543" cy="1.4967727" r="1.4967727"></circle>
                        <circle id="椭圆形备份-4" fill="#EAF1FF" cx="13.4709543" cy="14.2193407" r="1.4967727"></circle>
                        <circle id="椭圆形备份-3" fill="#EAF1FF" cx="1.4967727" cy="1.4967727" r="1.4967727"></circle>
                        <circle id="椭圆形备份-5" fill="#EAF1FF" cx="1.4967727" cy="14.2193407" r="1.4967727"></circle>
                    </g>
                    <g id="编组-24" transform="translate(672.000000, 287.000000)">
                        <path d="M1.5006098,1.12257953 C1.39563366,3.59815051 3.44462671,5.76700431 7.64758895,7.62914093 C11.8505512,9.49127754 13.7784254,12.062204 13.4312116,15.3419202" id="路径-5" stroke="#5D94FF" stroke-width="0.948386374"></path>
                        <path d="M1.5006098,1.12257953 C1.39563366,3.59815051 3.44462671,5.76700431 7.64758895,7.62914093 C11.8505512,9.49127754 13.7784254,12.062204 13.4312116,15.3419202" id="路径-5备份" stroke="#5D94FF" stroke-width="0.948386374" transform="translate(7.483863, 8.232250) scale(-1, 1) translate(-7.483863, -8.232250) "></path>
                        <circle id="椭圆形备份-2" fill="#EAF1FF" cx="13.4709543" cy="1.4967727" r="1.4967727"></circle>
                        <circle id="椭圆形备份-4" fill="#EAF1FF" cx="13.4709543" cy="14.2193407" r="1.4967727"></circle>
                        <circle id="椭圆形备份-3" fill="#EAF1FF" cx="1.4967727" cy="1.4967727" r="1.4967727"></circle>
                        <circle id="椭圆形备份-5" fill="#EAF1FF" cx="1.4967727" cy="14.2193407" r="1.4967727"></circle>
                    </g>
                    <g id="编组-24" transform="translate(672.000000, 380.000000)">
                        <path d="M1.5006098,1.12257953 C1.39563366,3.59815051 3.44462671,5.76700431 7.64758895,7.62914093 C11.8505512,9.49127754 13.7784254,12.062204 13.4312116,15.3419202" id="路径-5" stroke="#5D94FF" stroke-width="0.948386374"></path>
                        <path d="M1.5006098,1.12257953 C1.39563366,3.59815051 3.44462671,5.76700431 7.64758895,7.62914093 C11.8505512,9.49127754 13.7784254,12.062204 13.4312116,15.3419202" id="路径-5备份" stroke="#5D94FF" stroke-width="0.948386374" transform="translate(7.483863, 8.232250) scale(-1, 1) translate(-7.483863, -8.232250) "></path>
                        <circle id="椭圆形备份-2" fill="#EAF1FF" cx="13.4709543" cy="1.4967727" r="1.4967727"></circle>
                        <circle id="椭圆形备份-4" fill="#EAF1FF" cx="13.4709543" cy="14.2193407" r="1.4967727"></circle>
                        <circle id="椭圆形备份-3" fill="#EAF1FF" cx="1.4967727" cy="1.4967727" r="1.4967727"></circle>
                        <circle id="椭圆形备份-5" fill="#EAF1FF" cx="1.4967727" cy="14.2193407" r="1.4967727"></circle>
                    </g>
                    <g id="编组-47" transform="translate(655.000000, 131.500000)">
                        <rect id="矩形" fill="#FFFFFF" x="0" y="0" width="48" height="48" rx="8"></rect>
                        <g id="客户关系管理，crm" transform="translate(17.961855, 12.200250)">
                            <polygon id="路径-20" fill="#2B58F9" points="1.23739454 1.36413307e-13 10.9378945 1.36413307e-13 8.53789454 5.93233196 3.80800778 5.93233196"></polygon>
                            <polygon id="路径-21" fill="#719DFF" points="3.80800778 5.93233196 8.53789454 5.93233196 12.0747891 19.1790588 6.08764454 25.19925 0 19.1790588"></polygon>
                        </g>
                    </g>
                    <text id="商务-经理" font-family="PingFangSC-Regular, PingFang SC" font-size="16" font-weight="normal" line-spacing="20" fill="#FFFFFF">
                        <tspan x="719" y="151.5">商务</tspan>
                        <tspan x="719" y="171.5">经理</tspan>
                    </text>
                    <g id="编组-45" transform="translate(655.000000, 224.500000)">
                        <rect id="矩形" fill="#FFFFFF" x="0" y="0" width="48" height="48" rx="8"></rect>
                        <g id="保存成功" transform="translate(9.600000, 7.200000)" fill-rule="nonzero">
                            <rect id="矩形" fill="#000000" opacity="0" x="0" y="0" width="19.1848095" height="19.1848095"></rect>
                            <path d="M19.1537223,7.2 L6.5440753,7.2 C6.08151949,7.2 5.63790707,7.38374113 5.31082896,7.71081572 C4.98375086,8.03789031 4.8,8.48150076 4.8,8.94405656 L4.8,24.640753 C4.8,25.6039688 5.58084072,26.3848095 6.54405656,26.3848095 L17.409647,26.3848095 C16.2138413,25.2381468 15.7712086,23.5128401 16.2672951,21.9321172 C16.7633815,20.3513944 18.1124674,19.188392 19.7490319,18.9306268 C21.3855965,18.6728615 23.0268542,19.3648732 23.9848095,20.7165789 L23.9848095,10.6881506 L19.1537223,7.2 Z M18.5607543,12.8682307 C18.5607543,13.0995134 18.4688847,13.3213249 18.3053431,13.4848665 C18.1418015,13.6484081 17.91999,13.7402777 17.6887073,13.7402777 L8.0963025,13.7402777 C7.86501973,13.7402777 7.64320827,13.6484081 7.47966665,13.4848665 C7.31612504,13.3213249 7.22425548,13.0995134 7.22425548,12.8682307 L7.22425548,10.2521458 C7.22425548,10.0208663 7.3161322,9.79905965 7.47967328,9.63552209 C7.64321436,9.47198452 7.86502297,9.38011754 8.0963025,9.38011754 L17.6887073,9.38011754 C18.1703152,9.38011754 18.5607543,9.7705379 18.5607543,10.2521458 L18.5607543,12.8682307 Z" id="形状" fill="#719DFF"></path>
                            <path d="M22.5372182,22.1467277 L20.0955203,24.3006348 L18.9706048,23.1146801 C18.6382958,22.7655104 18.0858483,22.7518422 17.7366787,23.0841511 C17.387509,23.4164601 17.3738408,23.9689076 17.7061497,24.3180772 L19.4502063,26.1144798 C19.5080386,26.16644 19.5725598,26.2104329 19.6420544,26.2452888 C19.672409,26.2706891 19.7044578,26.2939933 19.7379784,26.3150398 C19.9477366,26.3998947 20.1822649,26.3998947 20.392023,26.3150398 L20.4792165,26.2627312 C20.5412415,26.2347701 20.5997811,26.1996463 20.6536409,26.1580766 L23.7319223,23.4460489 C24.0687061,23.1226876 24.0910508,22.5914372 23.7826101,22.2409373 C23.4741694,21.8904374 22.9443893,21.8450582 22.5808337,22.1379971 L22.5372182,22.1467277 Z" id="路径" fill="#2B58F9"></path>
                        </g>
                    </g>
                    <text id="客户-成功" font-family="PingFangSC-Regular, PingFang SC" font-size="16" font-weight="normal" line-spacing="20" fill="#FFFFFF">
                        <tspan x="719" y="244.5">客户</tspan>
                        <tspan x="719" y="264.5">成功</tspan>
                    </text>
                    <g id="编组-44" transform="translate(655.000000, 317.500000)">
                        <rect id="矩形" fill="#FFFFFF" x="0" y="0" width="48" height="48" rx="8"></rect>
                        <g id="权威专家" transform="translate(10.800000, 10.800000)" fill-rule="nonzero">
                            <rect id="矩形" fill="#000000" opacity="0" x="0" y="0" width="26.4" height="26.4"></rect>
                            <path d="M23.7703125,9.9 L24.8015625,9.9 L24.8015625,17.8921875 C24.8015625,18.1769672 24.5707172,18.4078125 24.2859375,18.4078125 C24.0011578,18.4078125 23.7703125,18.1769672 23.7703125,17.8921875 L23.7703125,9.9 Z" id="路径" fill="#2B58F9"></path>
                            <path d="M20.4883078,14.9482781 C20.5272847,15.0223271 20.5476562,15.1047498 20.5476562,15.1884305 L20.5476562,18.5605664 C20.5476562,18.7520128 20.4415976,18.9277026 20.2721836,19.0168687 L13.2,22.7390625 L6.12781641,19.0168687 C5.95840238,18.9277026 5.85234375,18.7520128 5.85234375,18.5605664 L5.85234375,15.1884305 C5.85234375,14.9036766 6.08318906,14.6728055 6.36796875,14.6728055 C6.45164939,14.6728081 6.53407209,14.693177 6.60812109,14.7321539 L13.2,18.2015625 L19.7918789,14.7321539 C20.0438906,14.5995094 20.3556891,14.6962922 20.4883078,14.9482781 Z" id="形状" fill="#2B58F9"></path>
                            <path d="M13.4421117,3.75434297 L24.5153391,9.44779687 C24.7686141,9.57801797 24.8683359,9.88888828 24.7381406,10.1421375 C24.6889402,10.2378329 24.6110345,10.3157387 24.5153391,10.3649391 L13.4421117,16.0583156 C13.2941383,16.1343956 13.1185461,16.1343956 12.9705727,16.0583156 L1.89734531,10.3649133 C1.64407031,10.2346922 1.54432266,9.92382187 1.67454375,9.67057266 C1.72374415,9.57487722 1.80164987,9.4969715 1.89734531,9.44777109 L12.9705469,3.75434297 C13.1185203,3.67826298 13.2941125,3.67826298 13.4420859,3.75434297 L13.4421117,3.75434297 Z" id="路径" fill="#719DFF"></path>
                        </g>
                    </g>
                    <text id="行业-专家" font-family="PingFangSC-Regular, PingFang SC" font-size="16" font-weight="normal" line-spacing="20" fill="#FFFFFF">
                        <tspan x="719" y="337.5">行业</tspan>
                        <tspan x="719" y="357.5">专家</tspan>
                    </text>
                    <g id="编组-39" transform="translate(798.000000, 125.500000)">
                        <circle id="椭圆形" fill="url(#linearGradient-1)" opacity="0.202847435" cx="173.325196" cy="99.3251964" r="99.3251964"></circle>
                        <g id="编组-38" transform="translate(99.500000, 52.000000)" fill="#FFFFFF" font-family="PingFangSC-Regular, PingFang SC" font-weight="normal">
                            <text id="SLA" font-size="22">
                                <tspan x="52.853" y="23">SLA</tspan>
                            </text>
                            <text id="P0级需求24小时内响应" font-size="14">
                                <tspan x="0.406" y="49">P0级需求24小时内响应</tspan>
                            </text>
                        </g>
                        <circle id="椭圆形" fill="url(#linearGradient-2)" opacity="0.202847435" cx="99.3251964" cy="216.325196" r="99.3251964"></circle>
                        <g id="编组-38" transform="translate(43.000000, 206.000000)" fill="#FFFFFF" font-family="PingFangSC-Regular, PingFang SC" font-size="14" font-weight="normal">
                            <text id="支持部分功能定开">
                                <tspan x="0" y="15">支持部分功能定开</tspan>
                            </text>
                        </g>
                        <circle id="椭圆形" fill="url(#linearGradient-3)" opacity="0.202847435" cx="249.325196" cy="208.325196" r="99.3251964"></circle>
                        <g id="编组-38" transform="translate(201.000000, 206.000000)" fill="#FFFFFF" font-family="PingFangSC-Regular, PingFang SC" font-size="14" font-weight="normal">
                            <text id="系统维护与升级">
                                <tspan x="0" y="15">系统维护与升级</tspan>
                            </text>
                        </g>
                    </g>
                    <text id="行业运营经验沉淀" font-family="PingFangSC-Semibold, PingFang SC" font-size="26" font-weight="500" fill="#0A0F2C" fill-opacity="0.85">
                        <tspan x="48" y="78.5">行业运营经验沉淀</tspan>
                    </text>
                    <text id="累计服务银行客户量(套)" font-family="PingFangSC-Regular, PingFang SC" font-size="16" font-weight="normal" fill="#0A0F2C" fill-opacity="0.85">
                        <tspan x="76" y="240.5">累计服务银行客户量(套)</tspan>
                    </text>
                    <text id="覆盖业务类别" font-family="PingFangSC-Regular, PingFang SC" font-size="16" font-weight="normal" fill="#0A0F2C" fill-opacity="0.85">
                        <tspan x="110" y="418.5">覆盖业务类别</tspan>
                    </text>
                    <text id="细分场景" font-family="PingFangSC-Regular, PingFang SC" font-size="16" font-weight="normal" fill="#0A0F2C" fill-opacity="0.85">
                        <tspan x="391" y="418.5">细分场景</tspan>
                    </text>
                    <text id="BOT话术累计套数(不含私有化)" font-family="PingFangSC-Regular, PingFang SC" font-size="16" font-weight="normal" fill="#0A0F2C" fill-opacity="0.85">
                        <tspan x="321" y="240.5">BOT话术累计套数(不含私有化)</tspan>
                    </text>
                    <text id="349" font-family="PingFangSC-Medium, PingFang SC" font-size="46" font-weight="400" fill="#2B58F9">
                        <tspan x="120" y="197.5">349</tspan>
                    </text>
                    <text id="1214" font-family="PingFangSC-Medium, PingFang SC" font-size="46" font-weight="400" fill="#2B58F9">
                        <tspan x="385" y="197.5">1214</tspan>
                    </text>
                    <text id="4" font-family="PingFangSC-Medium, PingFang SC" font-size="46" font-weight="400" fill="#2B58F9">
                        <tspan x="144" y="375.5">4</tspan>
                    </text>
                    <text id="20+" font-family="PingFangSC-Medium, PingFang SC" font-size="46" font-weight="400" fill="#2B58F9">
                        <tspan x="389" y="375.5">20+</tspan>
                    </text>
                    <line x1="275.5" y1="163.5" x2="275.5" y2="238.993545" id="路径-23" stroke="#DBDBE0"></line>
                    <line x1="275.5" y1="341.5" x2="275.5" y2="416.993545" id="路径-23" stroke="#DBDBE0"></line>
                </g>
            </g>
        </g>
    </g>
</svg>