<?xml version="1.0" encoding="UTF-8"?>
<svg width="25px" height="25px" viewBox="0 0 25 25" version="1.1" xmlns="http://www.w3.org/2000/svg" xmlns:xlink="http://www.w3.org/1999/xlink">
    <title>银行-深</title>
    <g id="2023Q2-品牌官网2.0" stroke="none" stroke-width="1" fill="none" fill-rule="evenodd">
        <g id="画板" transform="translate(-273.000000, -371.000000)">
            <g id="银行-深" transform="translate(273.248608, 371.913152)">
                <rect id="矩形备份" x="0" y="0" width="24" height="24.0695652"></rect>
                <ellipse id="椭圆形" fill="#73E1DB" cx="11.8116312" cy="6.46653812" rx="4.4" ry="4.41275362"></ellipse>
                <path d="M11.8,4.81391304 L20.4,10.4301449 L20.4,12.3022222 L17.882,12.301913 L17.882,19.040913 L19.4,19.0417005 C19.9522847,19.0417005 20.4,19.4894157 20.4,20.0417005 L20.4,20.6626087 C20.4,21.2148934 19.9522847,21.6626087 19.4,21.6626087 L4.2,21.6626087 C3.64771525,21.6626087 3.2,21.2148934 3.2,20.6626087 L3.2,20.0417005 C3.2,19.4894157 3.64771525,19.0417005 4.2,19.0417005 L5.717,19.040913 L5.717,12.301913 L3.2,12.3022222 L3.2,10.4301449 L11.8,4.81391304 Z M10,12.0347826 C9.5581722,12.0347826 9.2,12.3929548 9.2,12.8347826 L9.2,17.6533333 C9.2,18.0951611 9.5581722,18.4533333 10,18.4533333 C10.4418278,18.4533333 10.8,18.0951611 10.8,17.6533333 L10.8,12.8347826 C10.8,12.3929548 10.4418278,12.0347826 10,12.0347826 Z M13.6,12.0347826 C13.1581722,12.0347826 12.8,12.3929548 12.8,12.8347826 L12.8,17.6533333 C12.8,18.0951611 13.1581722,18.4533333 13.6,18.4533333 C14.0418278,18.4533333 14.4,18.0951611 14.4,17.6533333 L14.4,12.8347826 C14.4,12.3929548 14.0418278,12.0347826 13.6,12.0347826 Z" id="形状结合" fill="#2B58F9"></path>
                <path d="M11.8,4.81391304 L16.065234,7.59959707 C15.5665064,9.48767306 13.8511141,10.8792917 11.8116312,10.8792917 C9.76745569,10.8792917 8.04886385,9.48126179 7.55460518,7.58655646 L11.8,4.81391304 Z" id="形状结合" fill="#071EF3"></path>
            </g>
        </g>
    </g>
</svg>