<?xml version="1.0" encoding="UTF-8"?>
<svg width="1200px" height="514px" viewBox="0 0 1200 514" version="1.1" xmlns="http://www.w3.org/2000/svg" xmlns:xlink="http://www.w3.org/1999/xlink">
    <title>行业化服务体系</title>
    <defs>
        <linearGradient x1="98.2712601%" y1="50%" x2="1.89100435%" y2="50%" id="linearGradient-1">
            <stop stop-color="#F7FCFF" offset="0%"></stop>
            <stop stop-color="#E7F1FF" offset="100%"></stop>
        </linearGradient>
        <linearGradient x1="0%" y1="50%" x2="100%" y2="50%" id="linearGradient-2">
            <stop stop-color="#5691FD" stop-opacity="0.421468668" offset="0%"></stop>
            <stop stop-color="#2B58F9" offset="100%"></stop>
        </linearGradient>
        <linearGradient x1="98.2712601%" y1="50%" x2="1.89100435%" y2="50%" id="linearGradient-3">
            <stop stop-color="#F7FCFF" offset="0%"></stop>
            <stop stop-color="#E7F1FF" offset="100%"></stop>
        </linearGradient>
        <linearGradient x1="0%" y1="50%" x2="82.9920797%" y2="50%" id="linearGradient-4">
            <stop stop-color="#5691FD" stop-opacity="0.385885599" offset="0%"></stop>
            <stop stop-color="#2B58F9" offset="100%"></stop>
        </linearGradient>
        <linearGradient x1="98.2712601%" y1="50%" x2="1.89100435%" y2="50%" id="linearGradient-5">
            <stop stop-color="#F7FCFF" offset="0%"></stop>
            <stop stop-color="#E7F1FF" offset="100%"></stop>
        </linearGradient>
        <linearGradient x1="92.738015%" y1="59.6513016%" x2="20.2518176%" y2="59.6513016%" id="linearGradient-6">
            <stop stop-color="#5691FD" stop-opacity="0.340480564" offset="0%"></stop>
            <stop stop-color="#2B58F9" offset="100%"></stop>
        </linearGradient>
        <linearGradient x1="50%" y1="0%" x2="50%" y2="62.0866116%" id="linearGradient-7">
            <stop stop-color="#FFFFFF" stop-opacity="0.05" offset="0%"></stop>
            <stop stop-color="#D8E1FF" offset="100%"></stop>
        </linearGradient>
        <linearGradient x1="57.219363%" y1="42.7258194%" x2="9.57116942%" y2="76.8469037%" id="linearGradient-8">
            <stop stop-color="#FFFFFF" stop-opacity="0.453154024" offset="0%"></stop>
            <stop stop-color="#D8E1FF" stop-opacity="0.05" offset="100%"></stop>
        </linearGradient>
        <linearGradient x1="50%" y1="50%" x2="92.4389868%" y2="78.997991%" id="linearGradient-9">
            <stop stop-color="#FFFFFF" stop-opacity="0.453154024" offset="0%"></stop>
            <stop stop-color="#D8E1FF" stop-opacity="0.05" offset="100%"></stop>
        </linearGradient>
    </defs>
    <g id="页面-1" stroke="none" stroke-width="1" fill="none" fill-rule="evenodd">
        <g id="银行-智能用户运营解决方案" transform="translate(-120.000000, -2223.000000)">
            <g id="编组-20" transform="translate(0.000000, 1999.000000)">
                <g id="行业化服务体系" transform="translate(120.000000, 224.000000)">
                    <path d="M8,0 L600,0 L600,0 L600,514 L8,514 C3.581722,514 5.41083001e-16,510.418278 0,506 L0,8 C-5.41083001e-16,3.581722 3.581722,8.11624501e-16 8,0 Z" id="矩形" fill="#F6FCFF"></path>
                    <rect id="矩形" fill="url(#linearGradient-1)" x="0" y="418" width="600" height="96"></rect>
                    <g id="数据统计" opacity="0.06" transform="translate(463.000000, 428.500000)" fill-rule="nonzero">
                        <rect id="矩形" fill="#000000" opacity="0" x="0" y="0" width="76" height="76"></rect>
                        <path d="M12.3283281,46.6581367 C11.1534453,46.6581367 10.0396445,46.4354063 8.98648047,45.9897227 C7.93324219,45.5444102 7.02183594,44.9368555 6.25226172,44.1669102 C5.48261328,43.3974102 4.87498438,42.4860781 4.429375,41.4328398 C3.98376563,40.3796758 3.76088672,39.2659492 3.76088672,38.0910664 C3.76088672,36.9166289 3.98376563,35.8125508 4.429375,34.7799453 C4.87498438,33.7468203 5.48253906,32.845582 6.2521875,32.0760078 C7.02183594,31.3064336 7.93324219,30.6988789 8.98640625,30.2531953 C10.0396445,29.8076602 11.1534453,29.5848555 12.3283281,29.5848555 C12.5713203,29.5848555 12.794125,29.5952461 12.9967422,29.6154336 C13.1991367,29.6355469 13.4017539,29.6456406 13.6043711,29.6456406 L25.452875,15.3065781 C25.2502578,14.9015664 25.1184453,14.4560313 25.0575859,13.9700469 C24.9971719,13.4837656 24.9665195,12.9775938 24.9665195,12.4510859 C24.9665195,11.2762031 25.1893984,10.1625508 25.6350078,9.1093125 C26.0806172,8.05614844 26.6881719,7.14474219 27.4578203,6.37516797 C28.2274688,5.60559375 29.138875,4.99803906 30.1920391,4.55242969 C31.2452773,4.10682031 32.359375,3.88401563 33.5339609,3.88401563 C34.7085469,3.88401563 35.8225703,4.10682031 36.8758086,4.55242969 C37.9290469,4.99803906 38.8404531,5.60559375 39.6100273,6.37524219 C40.3796758,7.14481641 40.9873047,8.05614844 41.4329141,9.1093125 C41.8785234,10.1624766 42.1014023,11.2765 42.1014023,12.4510859 C42.1014023,13.4233516 41.9494766,14.3447031 41.6456992,15.2154375 C41.3418477,16.0864688 40.9265195,16.9065117 40.3997891,17.6763828 L50.6688438,40.6430781 L56.5624805,30.1319961 C56.1168711,29.4433203 55.7525313,28.6838398 55.4688672,27.8534805 C55.1852031,27.0231211 55.0434453,26.1419961 55.0434453,25.2104023 C55.0434453,24.0355195 55.26625,22.9218672 55.7118594,21.8687031 C56.1574688,20.8155391 56.7650234,19.9041328 57.5346719,19.1344844 C58.3043203,18.3649844 59.2157266,17.7573555 60.2689648,17.3117461 C61.3221289,16.8662109 62.4362266,16.643332 63.6108125,16.643332 C64.7853984,16.643332 65.8994961,16.8662109 66.9527344,17.3117461 C68.0058984,17.7573555 68.9274727,18.3649102 69.7172344,19.1345586 C70.507293,19.9041328 71.1250156,20.8155391 71.570625,21.8687031 C72.0162344,22.9218672 72.2391133,24.0358906 72.2391133,25.2104023 C72.2391133,26.4255859 72.0162344,27.5597227 71.570625,28.6129609 C71.1250156,29.6658281 70.507293,30.587625 69.7172344,31.3773867 C68.9274727,32.1670742 68.0058984,32.7850938 66.9527344,33.230332 C65.8991992,33.6760156 64.7853984,33.8987461 63.6108125,33.8987461 L62.1526367,33.8987461 L56.3803477,44.4102734 C57.2714922,45.2202227 57.9805781,46.1722266 58.5069375,47.2656914 C59.0335195,48.3596016 59.2966992,49.5543008 59.2966992,50.850457 C59.2966992,52.0252656 59.0739688,53.1392891 58.6282852,54.1921563 C58.1829727,55.2453203 57.5649531,56.1668203 56.7751914,56.9568789 C55.9855039,57.7465664 55.0740234,58.3642891 54.0409727,58.8098984 C53.0078477,59.2554336 51.8840273,59.4783125 50.6688438,59.4783125 C49.4536602,59.4783125 48.3294688,59.2554336 47.2963438,58.8098984 C46.2635898,58.3642891 45.3622031,57.7465664 44.5927031,56.9568789 C43.8227578,56.1668203 43.2152031,55.2453945 42.7698906,54.1921563 C42.3241328,53.1392891 42.1014023,52.0252656 42.1014023,50.8503828 C42.1014023,49.5543008 42.3544883,48.3596016 42.8608828,47.2656914 C43.3670547,46.1722266 44.0660469,45.2202227 44.9569688,44.4102734 L34.5062266,21.0181563 C34.1009922,21.0990547 33.7769531,21.1394297 33.5339609,21.1394297 C32.8857344,21.1394297 32.2680117,21.058457 31.6808672,20.8964375 C31.0934258,20.7344922 30.5362656,20.531875 30.0099805,20.2888828 L19.6196523,33.4128359 C20.0246641,34.1014375 20.3486289,34.8408047 20.591918,35.6304922 C20.8349102,36.4201797 20.9561836,37.2405195 20.9561836,38.0910664 C20.9561836,39.2659492 20.7334531,40.3799727 20.2882148,41.4327656 C19.842457,42.4860781 19.2248086,43.3974102 18.4346758,44.1669844 C17.6449883,44.9368555 16.733582,45.5444102 15.700457,45.9897227 C14.6677031,46.4354063 13.5435859,46.6581367 12.3283281,46.6581367 L12.3283281,46.6581367 Z M3.76088672,63.8530625 L72.2391133,63.8530625 L72.2391133,72.1159844 L3.76088672,72.1159844 L3.76088672,63.8530625 L3.76088672,63.8530625 Z" id="形状" fill="url(#linearGradient-2)"></path>
                    </g>
                    <rect id="矩形" fill="url(#linearGradient-3)" x="0" y="116" width="600" height="96"></rect>
                    <g id="项目，房产，写字楼" opacity="0.06" transform="translate(449.000000, 116.000000)" fill-rule="nonzero">
                        <rect id="矩形" fill="#000000" opacity="0" x="0" y="0" width="96" height="96"></rect>
                        <path d="M27.9045803,28.5858405 L35.9439539,28.5858405 L35.9439539,40.5522846 L27.9045803,40.5522846 L27.9045803,28.5858405 Z M43.9833276,28.5858405 L52.0227012,28.5858405 L52.0227012,40.5522846 L43.9833276,40.5522846 L43.9833276,28.5858405 Z M27.9045803,44.5430937 L35.9439539,44.5430937 L35.9439539,56.5095378 L27.9045803,56.5095378 L27.9045803,44.5430937 L27.9045803,44.5430937 Z M43.9833276,44.5430937 L52.0227012,44.5430937 L52.0227012,56.5095378 L43.9833276,56.5095378 L43.9833276,44.5430937 L43.9833276,44.5430937 Z M27.9045803,60.4973553 L35.9439539,60.4973553 L35.9439539,72.4637994 L27.9045803,72.4637994 L27.9045803,60.4973553 Z M43.9833276,60.4973553 L52.0227012,60.4973553 L52.0227012,72.4637994 L43.9833276,72.4637994 L43.9833276,60.4973553 Z M84.1741671,80.442426 L84.1741671,42.1498049 L68.0984341,34.1711783 L68.0984341,12.6315789 L11.8288473,12.6315789 L11.8288473,80.442426 L3.78947368,80.442426 L3.78947368,88.4210526 L92.2105263,88.4210526 L92.2105263,80.442426 L84.1711527,80.442426 L84.1741671,80.442426 Z M19.868221,80.442426 L19.868221,20.6102055 L60.0590605,20.6102055 L60.0590605,80.442426 L19.868221,80.442426 Z M68.0984341,42.9455735 L76.1378078,46.9333909 L76.1378078,80.4394344 L68.0984341,80.4394344 L68.0984341,42.9455735 Z" id="形状" fill="url(#linearGradient-4)"></path>
                    </g>
                    <rect id="矩形" fill="url(#linearGradient-5)" transform="translate(300.000000, 314.500000) scale(-1, 1) translate(-300.000000, -314.500000) " x="0" y="227.5" width="600" height="174"></rect>
                    <g id="机器人" opacity="0.056611" transform="translate(20.000000, 241.500000)" fill-rule="nonzero">
                        <rect id="矩形" fill="#000000" opacity="0" x="0" y="0" width="146" height="146"></rect>
                        <path d="M91.25,43.2449819 L79.0833809,43.2449819 L79.0833809,32.9396491 C84.5583809,30.5148064 88.2083809,25.059017 88.2083809,18.9969813 C88.2083809,10.510245 81.5166191,3.84210526 73,3.84210526 C64.4833809,3.84210526 57.7916191,11.1164912 57.7916191,18.9969813 C57.7916191,25.059017 61.4416191,30.5148064 66.9166191,32.9396491 L66.9166191,43.2449819 L54.75,43.2449819 C32.85,43.2449819 15.2083809,60.8247006 15.2083809,82.6478585 C15.2083809,104.471016 32.85,122.050877 54.75,122.050877 L91.25,122.050877 C113.15,122.050877 130.791619,104.471016 130.791619,82.6478585 C130.791619,60.8247006 113.15,43.2449819 91.25,43.2449819 Z M73,16.5722807 C74.825,16.5722807 76.0416191,17.784631 76.0416191,19.6032275 C76.0416191,21.421824 74.825,22.6341743 73,22.6341743 C71.175,22.6341743 69.9583809,21.421824 69.9583809,19.6032275 C69.9583809,17.784631 71.175,16.5722807 73,16.5722807 Z M91.25,109.926806 L54.75,109.926806 C39.5416191,109.926806 27.375,97.8028766 27.375,82.6478585 C27.375,67.4928404 39.5416191,55.3689111 54.75,55.3689111 L91.25,55.3689111 C106.458381,55.3689111 118.625,67.4929825 118.625,82.6478585 C118.625,97.8027345 106.458381,109.926806 91.25,109.926806 Z M51.7083809,65.0681398 C41.3666191,65.0681398 33.4583809,72.9487719 33.4583809,83.2541047 C33.4583809,93.5594374 41.3666191,101.44007 51.7083809,101.44007 C62.0501426,101.44007 69.9583809,93.5594374 69.9583809,83.2541047 C69.9583809,72.9487719 62.05,65.0681398 51.7083809,65.0681398 Z M51.7083809,89.3161404 C48.0583809,89.3161404 45.625,86.8912977 45.625,83.2541047 C45.625,79.6169117 48.0583809,77.192069 51.7083809,77.192069 C55.3583809,77.192069 57.7916191,79.6169117 57.7916191,83.2541047 C57.7916191,86.8912977 55.3583809,89.3161404 51.7083809,89.3161404 L51.7083809,89.3161404 Z M94.2916191,65.0681398 C83.95,65.0681398 76.0416191,72.9487719 76.0416191,83.2541047 C76.0416191,93.5594374 83.95,101.44007 94.2916191,101.44007 C104.633238,101.44007 112.541619,93.5594374 112.541619,83.2541047 C112.541619,72.9487719 104.633381,65.0681398 94.2916191,65.0681398 Z M94.2916191,89.3161404 C90.6416191,89.3161404 88.2083809,86.8912977 88.2083809,83.2541047 C88.2083809,79.6169117 90.6416191,77.192069 94.2916191,77.192069 C97.9416191,77.192069 100.375,79.6169117 100.375,83.2541047 C100.375,86.8912977 97.9416191,89.3161404 94.2916191,89.3161404 Z M6.08338086,65.0681398 C2.43338086,65.0681398 0,67.4929825 0,71.1301754 L0,95.3780339 C0,99.0152269 2.43338086,101.44007 6.08338086,101.44007 C9.73338086,101.44007 12.1666191,99.0152269 12.1666191,95.3780339 L12.1666191,71.1301754 C12.1666191,67.4929825 9.73338086,65.0681398 6.08338086,65.0681398 Z M139.916619,65.0681398 C136.266619,65.0681398 133.833381,67.4929825 133.833381,71.1301754 L133.833381,95.3780339 C133.833381,99.0152269 136.266619,101.44007 139.916619,101.44007 C143.566619,101.44007 146,99.0152269 146,95.3780339 L146,71.1301754 C146,67.4929825 143.566619,65.0681398 139.916619,65.0681398 L139.916619,65.0681398 Z M122.275,128.112771 L23.725,128.112771 C20.075,128.112771 17.6416191,130.537613 17.6416191,134.174806 C17.6416191,137.811999 20.075,140.236842 23.725,140.236842 L122.275,140.236842 C125.925,140.236842 128.358381,137.811999 128.358381,134.174806 C128.358381,130.537613 125.316619,128.112771 122.275,128.112771 Z" id="形状" fill="url(#linearGradient-6)"></path>
                    </g>
                    <path d="M600,0 L1192,0 C1196.41828,-8.11624501e-16 1200,3.581722 1200,8 L1200,506 C1200,510.418278 1196.41828,514 1192,514 L600,514 L600,514 L600,0 Z" id="矩形" fill="#2B58F9"></path>
                    <text id="客户第一的服务体系" font-family="PingFangSC-Semibold, PingFang SC" font-size="26" font-weight="500" fill="#FFFFFF">
                        <tspan x="648" y="78">客户第一的服务体系</tspan>
                    </text>
                    <g id="编组-41" transform="translate(655.000000, 410.000000)">
                        <rect id="矩形" fill="#FFFFFF" x="0" y="0" width="48" height="48" rx="8"></rect>
                        <g id="团队" transform="translate(13.200000, 12.600000)" fill-rule="nonzero">
                            <rect id="矩形" fill="#000000" opacity="0" x="0" y="0" width="22.7920539" height="22.7920539"></rect>
                            <path d="M22.8,16.7141655 C22.8,17.8537682 22.3441589,18.0816887 20.5967607,18.0816887 C20.1409196,13.6752324 17.9376803,11.5479814 15.6584749,10.4843448 C17.1779526,8.43305996 17.2539187,5.47009295 15.8104294,3.26685365 C17.5578276,2.73504647 19.3811919,3.95061526 19.837033,5.84996793 C20.2168857,7.5213778 19.457158,9.34474212 17.9376803,10.0285037 C20.8246812,10.7882314 22.8,13.5232779 22.8,16.7141655 Z M7.14944887,10.4843448 C4.87024348,11.5479814 2.66700418,13.7511985 2.2111631,18.0816887 C0.463787137,18.0816887 0.00794605787,17.8537682 0.00794605787,16.7141655 C-0.144008388,13.5232779 1.90727647,10.7122654 4.79427739,10.0285037 C3.12284526,9.19278767 2.36311755,7.14150282 3.12284526,5.3181385 C3.80660688,3.72269472 5.40205065,2.88700092 6.99749443,3.342842 C5.5540051,5.47009295 5.62997119,8.35709386 7.14944887,10.4843448 L7.14944887,10.4843448 Z" id="形状" fill="#2B58F9"></path>
                            <path d="M13.4552579,10.8642198 C16.2662705,11.4719931 19.5331241,13.4473118 19.5331241,19.1453253 C19.5331241,20.664803 17.6337937,20.664803 11.4799391,20.664803 C5.25011846,20.664803 3.42675415,20.664803 3.42675415,19.1453253 C3.42675415,13.5232779 6.69360779,11.4719931 9.50462036,10.8642198 C7.30140332,9.64862875 6.54165335,6.83761618 7.60531221,4.55841079 C8.66897107,2.27920539 11.3280069,1.44348933 13.3792918,2.65908038 C15.4305766,3.87467143 16.2662927,6.68566174 15.12669,8.88890104 C14.746815,9.8005832 14.1390418,10.4083787 13.4552801,10.8642198 L13.4552579,10.8642198 Z" id="路径" fill="#719DFF"></path>
                        </g>
                    </g>
                    <text id="产研-团队" font-family="PingFangSC-Regular, PingFang SC" font-size="16" font-weight="normal" line-spacing="20" fill="#FFFFFF">
                        <tspan x="719" y="430">产研</tspan>
                        <tspan x="719" y="450">团队</tspan>
                    </text>
                    <g id="编组-24" transform="translate(672.000000, 194.000000)">
                        <path d="M1.5006098,1.12257953 C1.39563366,3.59815051 3.44462671,5.76700431 7.64758895,7.62914093 C11.8505512,9.49127754 13.7784254,12.062204 13.4312116,15.3419202" id="路径-5" stroke="#5D94FF" stroke-width="0.948386374"></path>
                        <path d="M1.5006098,1.12257953 C1.39563366,3.59815051 3.44462671,5.76700431 7.64758895,7.62914093 C11.8505512,9.49127754 13.7784254,12.062204 13.4312116,15.3419202" id="路径-5备份" stroke="#5D94FF" stroke-width="0.948386374" transform="translate(7.483863, 8.232250) scale(-1, 1) translate(-7.483863, -8.232250) "></path>
                        <circle id="椭圆形备份-2" fill="#EAF1FF" cx="13.4709543" cy="1.4967727" r="1.4967727"></circle>
                        <circle id="椭圆形备份-4" fill="#EAF1FF" cx="13.4709543" cy="14.2193407" r="1.4967727"></circle>
                        <circle id="椭圆形备份-3" fill="#EAF1FF" cx="1.4967727" cy="1.4967727" r="1.4967727"></circle>
                        <circle id="椭圆形备份-5" fill="#EAF1FF" cx="1.4967727" cy="14.2193407" r="1.4967727"></circle>
                    </g>
                    <g id="编组-24" transform="translate(672.000000, 287.000000)">
                        <path d="M1.5006098,1.12257953 C1.39563366,3.59815051 3.44462671,5.76700431 7.64758895,7.62914093 C11.8505512,9.49127754 13.7784254,12.062204 13.4312116,15.3419202" id="路径-5" stroke="#5D94FF" stroke-width="0.948386374"></path>
                        <path d="M1.5006098,1.12257953 C1.39563366,3.59815051 3.44462671,5.76700431 7.64758895,7.62914093 C11.8505512,9.49127754 13.7784254,12.062204 13.4312116,15.3419202" id="路径-5备份" stroke="#5D94FF" stroke-width="0.948386374" transform="translate(7.483863, 8.232250) scale(-1, 1) translate(-7.483863, -8.232250) "></path>
                        <circle id="椭圆形备份-2" fill="#EAF1FF" cx="13.4709543" cy="1.4967727" r="1.4967727"></circle>
                        <circle id="椭圆形备份-4" fill="#EAF1FF" cx="13.4709543" cy="14.2193407" r="1.4967727"></circle>
                        <circle id="椭圆形备份-3" fill="#EAF1FF" cx="1.4967727" cy="1.4967727" r="1.4967727"></circle>
                        <circle id="椭圆形备份-5" fill="#EAF1FF" cx="1.4967727" cy="14.2193407" r="1.4967727"></circle>
                    </g>
                    <g id="编组-24" transform="translate(672.000000, 380.000000)">
                        <path d="M1.5006098,1.12257953 C1.39563366,3.59815051 3.44462671,5.76700431 7.64758895,7.62914093 C11.8505512,9.49127754 13.7784254,12.062204 13.4312116,15.3419202" id="路径-5" stroke="#5D94FF" stroke-width="0.948386374"></path>
                        <path d="M1.5006098,1.12257953 C1.39563366,3.59815051 3.44462671,5.76700431 7.64758895,7.62914093 C11.8505512,9.49127754 13.7784254,12.062204 13.4312116,15.3419202" id="路径-5备份" stroke="#5D94FF" stroke-width="0.948386374" transform="translate(7.483863, 8.232250) scale(-1, 1) translate(-7.483863, -8.232250) "></path>
                        <circle id="椭圆形备份-2" fill="#EAF1FF" cx="13.4709543" cy="1.4967727" r="1.4967727"></circle>
                        <circle id="椭圆形备份-4" fill="#EAF1FF" cx="13.4709543" cy="14.2193407" r="1.4967727"></circle>
                        <circle id="椭圆形备份-3" fill="#EAF1FF" cx="1.4967727" cy="1.4967727" r="1.4967727"></circle>
                        <circle id="椭圆形备份-5" fill="#EAF1FF" cx="1.4967727" cy="14.2193407" r="1.4967727"></circle>
                    </g>
                    <g id="编组-47" transform="translate(655.000000, 131.500000)">
                        <rect id="矩形" fill="#FFFFFF" x="0" y="0" width="48" height="48" rx="8"></rect>
                        <g id="客户关系管理，crm" transform="translate(17.961855, 12.200250)">
                            <polygon id="路径-20" fill="#2B58F9" points="1.23739454 1.36413307e-13 10.9378945 1.36413307e-13 8.53789454 5.93233196 3.80800778 5.93233196"></polygon>
                            <polygon id="路径-21" fill="#719DFF" points="3.80800778 5.93233196 8.53789454 5.93233196 12.0747891 19.1790588 6.08764454 25.19925 0 19.1790588"></polygon>
                        </g>
                    </g>
                    <text id="商务-经理" font-family="PingFangSC-Regular, PingFang SC" font-size="16" font-weight="normal" line-spacing="20" fill="#FFFFFF">
                        <tspan x="719" y="151.5">商务</tspan>
                        <tspan x="719" y="171.5">经理</tspan>
                    </text>
                    <g id="编组-45" transform="translate(655.000000, 224.500000)">
                        <rect id="矩形" fill="#FFFFFF" x="0" y="0" width="48" height="48" rx="8"></rect>
                        <g id="保存成功" transform="translate(9.600000, 7.200000)" fill-rule="nonzero">
                            <rect id="矩形" fill="#000000" opacity="0" x="0" y="0" width="19.1848095" height="19.1848095"></rect>
                            <path d="M19.1537223,7.2 L6.5440753,7.2 C6.08151949,7.2 5.63790707,7.38374113 5.31082896,7.71081572 C4.98375086,8.03789031 4.8,8.48150076 4.8,8.94405656 L4.8,24.640753 C4.8,25.6039688 5.58084072,26.3848095 6.54405656,26.3848095 L17.409647,26.3848095 C16.2138413,25.2381468 15.7712086,23.5128401 16.2672951,21.9321172 C16.7633815,20.3513944 18.1124674,19.188392 19.7490319,18.9306268 C21.3855965,18.6728615 23.0268542,19.3648732 23.9848095,20.7165789 L23.9848095,10.6881506 L19.1537223,7.2 Z M18.5607543,12.8682307 C18.5607543,13.0995134 18.4688847,13.3213249 18.3053431,13.4848665 C18.1418015,13.6484081 17.91999,13.7402777 17.6887073,13.7402777 L8.0963025,13.7402777 C7.86501973,13.7402777 7.64320827,13.6484081 7.47966665,13.4848665 C7.31612504,13.3213249 7.22425548,13.0995134 7.22425548,12.8682307 L7.22425548,10.2521458 C7.22425548,10.0208663 7.3161322,9.79905965 7.47967328,9.63552209 C7.64321436,9.47198452 7.86502297,9.38011754 8.0963025,9.38011754 L17.6887073,9.38011754 C18.1703152,9.38011754 18.5607543,9.7705379 18.5607543,10.2521458 L18.5607543,12.8682307 Z" id="形状" fill="#719DFF"></path>
                            <path d="M22.5372182,22.1467277 L20.0955203,24.3006348 L18.9706048,23.1146801 C18.6382958,22.7655104 18.0858483,22.7518422 17.7366787,23.0841511 C17.387509,23.4164601 17.3738408,23.9689076 17.7061497,24.3180772 L19.4502063,26.1144798 C19.5080386,26.16644 19.5725598,26.2104329 19.6420544,26.2452888 C19.672409,26.2706891 19.7044578,26.2939933 19.7379784,26.3150398 C19.9477366,26.3998947 20.1822649,26.3998947 20.392023,26.3150398 L20.4792165,26.2627312 C20.5412415,26.2347701 20.5997811,26.1996463 20.6536409,26.1580766 L23.7319223,23.4460489 C24.0687061,23.1226876 24.0910508,22.5914372 23.7826101,22.2409373 C23.4741694,21.8904374 22.9443893,21.8450582 22.5808337,22.1379971 L22.5372182,22.1467277 Z" id="路径" fill="#2B58F9"></path>
                        </g>
                    </g>
                    <text id="客户-成功" font-family="PingFangSC-Regular, PingFang SC" font-size="16" font-weight="normal" line-spacing="20" fill="#FFFFFF">
                        <tspan x="719" y="244.5">客户</tspan>
                        <tspan x="719" y="264.5">成功</tspan>
                    </text>
                    <g id="编组-44" transform="translate(655.000000, 317.500000)">
                        <rect id="矩形" fill="#FFFFFF" x="0" y="0" width="48" height="48" rx="8"></rect>
                        <g id="权威专家" transform="translate(10.800000, 10.800000)" fill-rule="nonzero">
                            <rect id="矩形" fill="#000000" opacity="0" x="0" y="0" width="26.4" height="26.4"></rect>
                            <path d="M23.7703125,9.9 L24.8015625,9.9 L24.8015625,17.8921875 C24.8015625,18.1769672 24.5707172,18.4078125 24.2859375,18.4078125 C24.0011578,18.4078125 23.7703125,18.1769672 23.7703125,17.8921875 L23.7703125,9.9 Z" id="路径" fill="#2B58F9"></path>
                            <path d="M20.4883078,14.9482781 C20.5272847,15.0223271 20.5476562,15.1047498 20.5476562,15.1884305 L20.5476562,18.5605664 C20.5476562,18.7520128 20.4415976,18.9277026 20.2721836,19.0168687 L13.2,22.7390625 L6.12781641,19.0168687 C5.95840238,18.9277026 5.85234375,18.7520128 5.85234375,18.5605664 L5.85234375,15.1884305 C5.85234375,14.9036766 6.08318906,14.6728055 6.36796875,14.6728055 C6.45164939,14.6728081 6.53407209,14.693177 6.60812109,14.7321539 L13.2,18.2015625 L19.7918789,14.7321539 C20.0438906,14.5995094 20.3556891,14.6962922 20.4883078,14.9482781 Z" id="形状" fill="#2B58F9"></path>
                            <path d="M13.4421117,3.75434297 L24.5153391,9.44779687 C24.7686141,9.57801797 24.8683359,9.88888828 24.7381406,10.1421375 C24.6889402,10.2378329 24.6110345,10.3157387 24.5153391,10.3649391 L13.4421117,16.0583156 C13.2941383,16.1343956 13.1185461,16.1343956 12.9705727,16.0583156 L1.89734531,10.3649133 C1.64407031,10.2346922 1.54432266,9.92382187 1.67454375,9.67057266 C1.72374415,9.57487722 1.80164987,9.4969715 1.89734531,9.44777109 L12.9705469,3.75434297 C13.1185203,3.67826298 13.2941125,3.67826298 13.4420859,3.75434297 L13.4421117,3.75434297 Z" id="路径" fill="#719DFF"></path>
                        </g>
                    </g>
                    <text id="行业-专家" font-family="PingFangSC-Regular, PingFang SC" font-size="16" font-weight="normal" line-spacing="20" fill="#FFFFFF">
                        <tspan x="719" y="337.5">行业</tspan>
                        <tspan x="719" y="357.5">专家</tspan>
                    </text>
                    <g id="编组-39" transform="translate(798.000000, 125.500000)">
                        <circle id="椭圆形" fill="url(#linearGradient-7)" opacity="0.202847435" cx="173.325196" cy="99.3251964" r="99.3251964"></circle>
                        <g id="编组-38" transform="translate(99.500000, 86.000000)" fill="#FFFFFF" font-family="PingFangSC-Regular, PingFang SC" font-size="14" font-weight="normal">
                            <text id="P0级需求24小时内响应">
                                <tspan x="0.406" y="15">P0级需求24小时内响应</tspan>
                            </text>
                        </g>
                        <circle id="椭圆形" fill="url(#linearGradient-8)" opacity="0.202847435" cx="99.3251964" cy="216.325196" r="99.3251964"></circle>
                        <g id="编组-38" transform="translate(22.000000, 206.000000)" fill="#FFFFFF" font-family="PingFangSC-Regular, PingFang SC" font-size="14" font-weight="normal">
                            <text id="支持与行方作业系统对接">
                                <tspan x="0" y="15">支持与行方作业系统对接</tspan>
                            </text>
                        </g>
                        <circle id="椭圆形" fill="url(#linearGradient-9)" opacity="0.202847435" cx="249.325196" cy="208.325196" r="99.3251964"></circle>
                        <g id="编组-38" transform="translate(187.000000, 206.000000)" fill="#FFFFFF" font-family="PingFangSC-Regular, PingFang SC" font-size="14" font-weight="normal">
                            <text id="定制化用户运营策略">
                                <tspan x="0" y="15">定制化用户运营策略</tspan>
                            </text>
                        </g>
                    </g>
                    <text id="行业运营经验沉淀" font-family="PingFangSC-Semibold, PingFang SC" font-size="26" font-weight="500" fill="#0A0F2C" fill-opacity="0.85">
                        <tspan x="48" y="78.5">行业运营经验沉淀</tspan>
                    </text>
                    <g id="编组-49" transform="translate(53.000000, 127.000000)" font-family="PingFangSC-Medium, PingFang SC" font-weight="400">
                        <text id="累计服务" font-size="16" fill="#0A0F2C" fill-opacity="0.85">
                            <tspan x="0" y="44">累计服务</tspan>
                        </text>
                        <text id="家银行客户" font-size="16" fill="#0A0F2C" fill-opacity="0.85">
                            <tspan x="159" y="44">家银行客户</tspan>
                        </text>
                        <text id="349" font-size="46" fill="#2B58F9">
                            <tspan x="70" y="49">349</tspan>
                        </text>
                    </g>
                    <g id="编组-30" transform="translate(53.000000, 426.000000)" font-family="PingFangSC-Medium, PingFang SC" font-weight="400">
                        <text id="覆盖" font-size="16" fill="#0A0F2C" fill-opacity="0.85">
                            <tspan x="0" y="46">覆盖</tspan>
                        </text>
                        <text id="大类业务，" font-size="16" fill="#0A0F2C" fill-opacity="0.85">
                            <tspan x="72" y="46">大类业务，</tspan>
                        </text>
                        <text id="细分场景" font-size="16" fill="#0A0F2C" fill-opacity="0.85">
                            <tspan x="254" y="46">细分场景</tspan>
                        </text>
                        <text id="4" font-size="46" fill="#2B58F9">
                            <tspan x="38" y="49">4</tspan>
                        </text>
                        <text id="20+" font-size="46" fill="#2B58F9">
                            <tspan x="163" y="49">20+</tspan>
                        </text>
                    </g>
                    <g id="编组-50" transform="translate(249.000000, 241.000000)">
                        <g id="编组-30" font-family="PingFangSC-Medium, PingFang SC" font-weight="400">
                            <text id="BOT话术累计" font-size="16" fill="#0A0F2C" fill-opacity="0.85">
                                <tspan x="0" y="46">BOT话术累计</tspan>
                            </text>
                            <text id="套(不含私有化)" font-size="16" fill="#0A0F2C" fill-opacity="0.85">
                                <tspan x="203" y="46">套(不含私有化)</tspan>
                            </text>
                            <text id="1214" font-size="46" fill="#2B58F9">
                                <tspan x="104" y="49">1214</tspan>
                            </text>
                        </g>
                        <text id="催收场景：681套" font-family="PingFangSC-Regular, PingFang SC" font-size="13" font-weight="normal" fill="#0A0F2C" fill-opacity="0.85">
                            <tspan x="200" y="74">催收场景：681套</tspan>
                        </text>
                        <text id="营销场景：280套" font-family="PingFangSC-Regular, PingFang SC" font-size="13" font-weight="normal" fill="#0A0F2C" fill-opacity="0.85">
                            <tspan x="200" y="96">营销场景：280套</tspan>
                        </text>
                        <text id="通知回访：182套" font-family="PingFangSC-Regular, PingFang SC" font-size="13" font-weight="normal" fill="#0A0F2C" fill-opacity="0.85">
                            <tspan x="200" y="118">通知回访：182套</tspan>
                        </text>
                        <text id="其他：71套（卡激活/客服/活动通知)" font-family="PingFangSC-Regular, PingFang SC" font-size="13" font-weight="normal" fill="#0A0F2C" fill-opacity="0.85">
                            <tspan x="90" y="140">其他：71套（卡激活/客服/活动通知)</tspan>
                        </text>
                    </g>
                </g>
            </g>
        </g>
    </g>
</svg>