<?xml version="1.0" encoding="UTF-8"?>
<svg width="60px" height="61px" viewBox="0 0 60 61" version="1.1" xmlns="http://www.w3.org/2000/svg" xmlns:xlink="http://www.w3.org/1999/xlink">
    <title>各行业头部机构合作者</title>
    <defs>
        <linearGradient x1="50%" y1="0%" x2="50%" y2="100%" id="linearGradient-1">
            <stop stop-color="#7C6AFF" stop-opacity="0.0952148438" offset="0%"></stop>
            <stop stop-color="#3A49FF" stop-opacity="0.0633493704" offset="100%"></stop>
        </linearGradient>
        <linearGradient x1="77.0133282%" y1="82.1434164%" x2="38.3482334%" y2="100%" id="linearGradient-2">
            <stop stop-color="#CBC9FF" stop-opacity="0.849392551" offset="0%"></stop>
            <stop stop-color="#DFD7FF" stop-opacity="0.858635749" offset="100%"></stop>
        </linearGradient>
    </defs>
    <g id="2023Q2-品牌官网2.0" stroke="none" stroke-width="1" fill="none" fill-rule="evenodd">
        <g id="2023Q2-品牌官网备份" transform="translate(-1016.000000, -648.000000)">
            <g id="编组-80" transform="translate(120.000000, 614.500000)">
                <g id="编组-79" transform="translate(24.000000, 24.000000)">
                    <g id="编组-71备份-3" transform="translate(864.000000, 0.000000)">
                        <g id="各行业头部机构合作者" transform="translate(8.000000, 10.034701)">
                            <rect id="矩形备份-4" x="0" y="0" width="60" height="60"></rect>
                            <g id="编组-10" transform="translate(6.000000, 8.136617)">
                                <rect id="矩形" stroke="#9CA5FF" fill="#6A77FF" x="19.0846154" y="6.47198944" width="28.4153846" height="37.1538462" rx="6"></rect>
                                <path d="M33.1897406,0.5 C34.7085237,0.5 36.0835237,1.11560847 37.0788279,2.1109127 C38.0741322,3.10621694 38.6897406,4.48121694 38.6897406,6 L38.6897406,42 C38.6897406,43.5187831 38.0741322,44.8937831 37.0788279,45.8890873 C36.0835237,46.8843915 34.7085237,47.5 33.1897406,47.5 L6,47.5 C4.48121694,47.5 3.10621694,46.8843915 2.1109127,45.8890873 C1.11560847,44.8937831 0.5,43.5187831 0.5,42 L0.5,6 C0.5,4.48121694 1.11560847,3.10621694 2.1109127,2.1109127 C3.10621694,1.11560847 4.48121694,0.5 6,0.5 Z" id="形状结合" stroke="url(#linearGradient-2)" fill="url(#linearGradient-1)"></path>
                                <path d="M28.6580053,22.3833581 L19.4398208,22.3833581 L19.4398208,13.1651736 C19.4398208,13.0517507 19.3470203,12.9589502 19.2335974,12.9589502 L18.5633715,12.9589502 C17.1739415,12.9589502 15.8231785,13.2321962 14.5549048,13.7683769 C13.3304535,14.2865131 12.2271585,15.0289173 11.2811088,15.974967 C10.3350591,16.9210167 9.59265496,18.0217339 9.07451875,19.2487629 C8.53833799,20.5196145 8.26509203,21.8677997 8.26509203,23.2598075 C8.26509203,24.6518152 8.53833799,25.9974227 9.07451875,27.2682742 C9.59265496,28.4927254 10.3350591,29.5960204 11.2811088,30.5420701 C12.2271585,31.4881198 13.3278757,32.230524 14.5549048,32.7486602 C15.8257563,33.2874187 17.1765193,33.5606647 18.5659493,33.5606647 C19.9553792,33.5606647 21.3061423,33.2874187 22.574416,32.751238 C23.7988672,32.2331018 24.9021623,31.4906976 25.848212,30.5446479 C26.7942617,29.5985982 27.5366658,28.497881 28.054802,27.270852 C28.5935605,26.0000005 28.8668065,24.6492374 28.8668065,23.2598075 L28.8668065,22.5895815 C28.8642287,22.4761587 28.7714282,22.3833581 28.6580053,22.3833581 Z M30.9238846,20.9526835 L30.856862,20.2257462 C30.6377497,17.8541774 29.5860105,15.6166539 27.8898233,13.9282 C26.1962139,12.2345906 23.9561126,11.1854293 21.5768104,10.9663169 L20.8472953,10.8992943 C20.726139,10.8889832 20.6230274,10.9817837 20.6230274,11.1029399 L20.6230274,20.9939282 C20.6230274,21.1073511 20.7158279,21.2001516 20.8292507,21.2001516 L30.7176612,21.1743736 C30.8388175,21.1717959 30.9341958,21.071262 30.9238846,20.9526835 Z" id="形状" fill="#FFFFFF" fill-rule="nonzero"></path>
                            </g>
                        </g>
                    </g>
                </g>
            </g>
        </g>
    </g>
</svg>