<?xml version="1.0" encoding="UTF-8"?>
<svg width="60px" height="61px" viewBox="0 0 60 61" version="1.1" xmlns="http://www.w3.org/2000/svg" xmlns:xlink="http://www.w3.org/1999/xlink">
    <title>政府认定准独角兽企业</title>
    <defs>
        <linearGradient x1="50%" y1="0%" x2="50%" y2="100%" id="linearGradient-1">
            <stop stop-color="#8CFFDA" stop-opacity="0.330535675" offset="0%"></stop>
            <stop stop-color="#53FFC2" stop-opacity="0.0863506611" offset="100%"></stop>
        </linearGradient>
        <linearGradient x1="50%" y1="0%" x2="50%" y2="100%" id="linearGradient-2">
            <stop stop-color="#9EFDE0" stop-opacity="0.60987011" offset="0%"></stop>
            <stop stop-color="#A9FBF6" offset="100%"></stop>
        </linearGradient>
    </defs>
    <g id="2023Q2-品牌官网2.0" stroke="none" stroke-width="1" fill="none" fill-rule="evenodd">
        <g id="2023Q2-品牌官网备份" transform="translate(-728.000000, -648.000000)">
            <g id="编组-80" transform="translate(120.000000, 614.500000)">
                <g id="编组-79" transform="translate(24.000000, 24.000000)">
                    <g id="编组-71备份-2" transform="translate(576.000000, 0.000000)">
                        <g id="政府认定准独角兽企业" transform="translate(8.000000, 10.034701)">
                            <rect id="矩形备份-3" x="0" y="0" width="60" height="60"></rect>
                            <g id="编组-9" transform="translate(7.500000, 5.066901)">
                                <circle id="椭圆形" stroke="#00D5BB" fill="#00C8BD" cx="22.5" cy="17" r="16.5"></circle>
                                <path d="M22.7422234,6.51872619 C23.3374597,6.50400426 23.9276085,6.66103816 24.4465324,6.93584749 C24.7059944,7.06834484 24.9400189,7.24991529 25.1791309,7.41676381 C31.2942935,11.7057522 37.4043685,15.9996479 43.5195311,20.283729 C44.0537175,20.6517772 44.4810666,21.1572301 44.7303536,21.7411999 C45.2187526,22.8502518 45.0305155,24.1948546 44.2724796,25.1468726 C43.829868,25.7308425 43.1735818,26.1626857 42.4511583,26.3589781 C42.1866088,26.437495 41.9118844,26.4620316 41.6422474,26.4963827 C41.6473349,32.0072912 41.6473349,37.5132923 41.6422474,43.0242007 C42.3188835,43.0732738 42.9853447,43.3039174 43.5297061,43.7014094 C44.1859922,44.1725111 44.6642163,44.8693491 44.8524534,45.6348893 C45.045778,46.4298735 44.9542032,47.2935599 44.5522915,48.0149344 C44.06898,48.9375086 43.1176194,49.6147173 42.0645091,49.8061023 C41.6320724,49.8895266 41.1894608,49.8600827 40.7519367,49.86499 L3.53186249,49.86499 C2.92645123,49.8600827 2.31595247,49.7079561 1.78685355,49.4135176 C1.05425504,49.0160255 0.484456199,48.3535387 0.204644268,47.5929058 C-0.00394280709,47.0432871 -0.0497302139,46.4396881 0.052019579,45.8606256 C0.194469289,45.026383 0.677780805,44.2559354 1.3696794,43.7406679 C2.05140301,43.2204931 2.93153872,42.9751277 3.79132447,43.0192934 C3.79641196,37.508385 3.79132447,32.0023839 3.79132447,26.4914754 C3.10960085,26.4522169 2.43805222,26.231388 1.88351585,25.8388033 C1.01864261,25.2253896 0.479368709,24.2242985 0.438668792,23.1937635 C0.367443937,22.0945262 0.921980308,20.9903816 1.83772844,20.3377094 C8.08516573,15.9702041 14.312253,11.5977914 20.5444279,7.22537874 C21.1701891,6.76409166 21.9536625,6.49418964 22.7422234,6.51872619 Z" id="路径" stroke="url(#linearGradient-2)" fill="url(#linearGradient-1)" fill-rule="nonzero"></path>
                                <path d="M19.8249789,26.1946684 C20.9259279,24.0439444 21.9689322,21.8589731 23.0698813,19.7013996 C24.0694271,21.7082854 25.0617298,23.7151713 26.0612757,25.7289065 C26.1337065,25.8795942 26.1988943,26.0302819 26.2930544,26.1741201 C26.9956337,26.3042595 27.7126992,26.3864528 28.4225216,26.4960438 C30.1101606,26.7426236 31.7977995,26.982354 33.4854385,27.2289339 C31.7615841,28.9207455 30.0160005,30.5988582 28.2776599,32.2838204 C28.6905158,34.660576 29.1033717,37.0304821 29.5017414,39.4072377 C27.3505449,38.3113274 25.2283208,37.1674709 23.0771243,36.0647111 C22.881561,36.1126572 22.7222131,36.2359471 22.5483791,36.3181404 C20.5710167,37.3455564 18.6081405,38.3935206 16.623535,39.4003883 C17.0146616,37.0236327 17.4492468,34.6537265 17.8403734,32.2769709 C16.116519,30.5851593 14.3709353,28.913896 12.6470809,27.2289339 C14.3564492,26.9686551 16.0658174,26.7357742 17.7751856,26.4823449 C18.4560357,26.3864528 19.1368857,26.2700123 19.8249789,26.1946684 L19.8249789,26.1946684 Z" id="路径" fill="#FFFFFF" fill-rule="nonzero"></path>
                            </g>
                        </g>
                    </g>
                </g>
            </g>
        </g>
    </g>
</svg>