<?xml version="1.0" encoding="UTF-8"?>
<svg width="61px" height="61px" viewBox="0 0 61 61" version="1.1" xmlns="http://www.w3.org/2000/svg" xmlns:xlink="http://www.w3.org/1999/xlink">
    <title>数据智能赋能用户运营</title>
    <defs>
        <linearGradient x1="50%" y1="0%" x2="50%" y2="100%" id="linearGradient-1">
            <stop stop-color="#AED0FF" stop-opacity="0.594697539" offset="0%"></stop>
            <stop stop-color="#84B7FF" stop-opacity="0.148881392" offset="99.349186%"></stop>
        </linearGradient>
        <linearGradient x1="50%" y1="13.8617649%" x2="50%" y2="100%" id="linearGradient-2">
            <stop stop-color="#C7DEFF" offset="0%"></stop>
            <stop stop-color="#D2E4FD" offset="100%"></stop>
        </linearGradient>
    </defs>
    <g id="2023Q2-品牌官网2.0" stroke="none" stroke-width="1" fill="none" fill-rule="evenodd">
        <g id="2023Q2-品牌官网备份" transform="translate(-153.000000, -647.000000)">
            <g id="编组-80" transform="translate(120.000000, 614.500000)">
                <g id="编组-79" transform="translate(24.000000, 24.000000)">
                    <g id="数据智能赋能用户运营" transform="translate(9.250000, 8.767350)">
                        <g id="编组-4" transform="translate(5.150000, 6.274544)">
                            <rect id="矩形" stroke="#639DFF" fill="#0B70FD" x="14.2" y="0.5" width="35" height="35" rx="5"></rect>
                            <rect id="矩形备份" stroke="url(#linearGradient-2)" fill="url(#linearGradient-1)" x="0.5" y="8.03905697" width="41" height="41" rx="5"></rect>
                            <g id="数据统计" transform="translate(9.737134, 17.316694)" fill="#FFFFFF" fill-rule="nonzero">
                                <path d="M2.8182373,14.0704346 C2.4317627,14.0704346 2.06538086,13.997168 1.71894531,13.8505615 C1.37248535,13.7040771 1.07268066,13.5042236 0.81953125,13.2509521 C0.566357422,12.9978271 0.366479492,12.6980469 0.219897461,12.3515869 C0.0733154297,12.0051514 0,11.6387939 0,11.2523193 C0,10.8659912 0.0733154297,10.5028076 0.219897461,10.1631348 C0.366479492,9.82329102 0.566333008,9.52683105 0.819506836,9.27368164 C1.07268066,9.02053223 1.37248535,8.82067871 1.7189209,8.67407227 C2.06538086,8.52751465 2.4317627,8.45422363 2.8182373,8.45422363 C2.89816895,8.45422363 2.97145996,8.4576416 3.03811035,8.46428223 C3.1046875,8.47089844 3.17133789,8.47421875 3.23798828,8.47421875 L7.13552246,3.75742188 C7.06887207,3.62419434 7.0255127,3.47763672 7.00549316,3.31777344 C6.98562012,3.1578125 6.97553711,2.99130859 6.97553711,2.81811523 C6.97553711,2.43164063 7.04885254,2.06530762 7.19543457,1.71884766 C7.3420166,1.37241211 7.54187012,1.07260742 7.79504395,0.819458008 C8.04821777,0.566308594 8.34802246,0.366455078 8.69445801,0.219873047 C9.04091797,0.0732910156 9.40739746,0 9.79377441,0 C10.1801514,0 10.5466064,0.0732910156 10.8930664,0.219873047 C11.2395264,0.366455078 11.5393311,0.566308594 11.7924805,0.819482422 C12.0456543,1.07263184 12.2455322,1.37241211 12.3921143,1.71884766 C12.5386963,2.0652832 12.6120117,2.43173828 12.6120117,2.81811523 C12.6120117,3.13793945 12.5620361,3.44101563 12.4621094,3.72744141 C12.3621582,4.01396484 12.2255371,4.28371582 12.0522705,4.53696289 L15.430249,12.0917969 L17.3689453,8.6342041 C17.2223633,8.40766602 17.1025146,8.15783691 17.0092041,7.88469238 C16.9158936,7.61154785 16.8692627,7.3217041 16.8692627,7.01525879 C16.8692627,6.62878418 16.9425537,6.26245117 17.0891357,5.91601563 C17.2357178,5.56958008 17.4355713,5.26977539 17.6887451,5.01660156 C17.9419189,4.76347656 18.2417236,4.56359863 18.5881836,4.4170166 C18.9346191,4.27045898 19.3010986,4.19714355 19.6874756,4.19714355 C20.0738525,4.19714355 20.440332,4.27045898 20.786792,4.4170166 C21.1332275,4.56359863 21.436377,4.76345215 21.696167,5.01662598 C21.9560547,5.26977539 22.1592529,5.56958008 22.305835,5.91601563 C22.452417,6.26245117 22.5257324,6.62890625 22.5257324,7.01525879 C22.5257324,7.41499023 22.452417,7.78806152 22.305835,8.13452148 C22.1592529,8.48085938 21.9560547,8.78408203 21.696167,9.04387207 C21.436377,9.3036377 21.1332275,9.50693359 20.786792,9.65339355 C20.4402344,9.8 20.0738525,9.8732666 19.6874756,9.8732666 L19.2078125,9.8732666 L17.3090332,13.3310059 C17.6021729,13.5974365 17.8354248,13.9105957 18.0085693,14.2702881 C18.1817871,14.630127 18.2683594,15.0231201 18.2683594,15.4494873 C18.2683594,15.8359375 18.1950928,16.2023926 18.0484863,16.5487305 C17.902002,16.895166 17.6987061,17.198291 17.438916,17.4581787 C17.1791504,17.7179443 16.8793213,17.9211426 16.539502,18.0677246 C16.1996582,18.2142822 15.8299805,18.2875977 15.430249,18.2875977 C15.0305176,18.2875977 14.6607178,18.2142822 14.320874,18.0677246 C13.9811523,17.9211426 13.6846436,17.7179443 13.4315186,17.4581787 C13.1782471,17.198291 12.9783936,16.8951904 12.8319092,16.5487305 C12.6852783,16.2023926 12.6120117,15.8359375 12.6120117,15.4494629 C12.6120117,15.0231201 12.6952637,14.630127 12.8618408,14.2702881 C13.0283447,13.9105957 13.2582764,13.5974365 13.5513428,13.3310059 L10.1135986,5.63623047 C9.98029785,5.6628418 9.87370605,5.67612305 9.79377441,5.67612305 C9.58054199,5.67612305 9.37734375,5.6494873 9.1842041,5.59619141 C8.9909668,5.54291992 8.80769043,5.47626953 8.63457031,5.39633789 L5.21669922,9.71342773 C5.34992676,9.93994141 5.45649414,10.1831543 5.53652344,10.4429199 C5.61645508,10.7026855 5.65634766,10.9725342 5.65634766,11.2523193 C5.65634766,11.6387939 5.58308105,12.005249 5.43662109,12.3515625 C5.28999023,12.6980469 5.08681641,12.9978271 4.8269043,13.2509766 C4.56713867,13.5042236 4.26733398,13.7040771 3.92749023,13.8505615 C3.58776855,13.997168 3.21799316,14.0704346 2.8182373,14.0704346 L2.8182373,14.0704346 Z M22.5257324,21.0856934 C22.5257324,21.8362667 21.9172725,22.4447266 21.1666992,22.4447266 L1.3590332,22.4447266 C0.608459891,22.4447266 9.19187205e-17,21.8362667 0,21.0856934 C-9.19187205e-17,20.33512 0.608459891,19.7266602 1.3590332,19.7266602 L21.1666992,19.7266602 C21.9172725,19.7266602 22.5257324,20.33512 22.5257324,21.0856934 Z" id="形状"></path>
                            </g>
                        </g>
                        <rect id="矩形" x="0" y="0" width="60" height="60"></rect>
                    </g>
                </g>
            </g>
        </g>
    </g>
</svg>