<?xml version="1.0" encoding="UTF-8"?>
<svg width="60px" height="61px" viewBox="0 0 60 61" version="1.1" xmlns="http://www.w3.org/2000/svg" xmlns:xlink="http://www.w3.org/1999/xlink">
    <title>助力构建用户信任关系</title>
    <defs>
        <linearGradient x1="50%" y1="0.576888931%" x2="50%" y2="100%" id="linearGradient-1">
            <stop stop-color="#FFE982" stop-opacity="0.365200229" offset="0%"></stop>
            <stop stop-color="#FFEFCA" stop-opacity="0.332190027" offset="100%"></stop>
        </linearGradient>
        <linearGradient x1="50%" y1="0%" x2="81.9116328%" y2="100%" id="linearGradient-2">
            <stop stop-color="#FFE4AB" offset="0.0517304961%"></stop>
            <stop stop-color="#FFEAC2" offset="100%"></stop>
        </linearGradient>
    </defs>
    <g id="2023Q2-品牌官网2.0" stroke="none" stroke-width="1" fill="none" fill-rule="evenodd">
        <g id="2023Q2-品牌官网备份" transform="translate(-440.000000, -648.000000)">
            <g id="编组-80" transform="translate(120.000000, 614.500000)">
                <g id="编组-79" transform="translate(24.000000, 24.000000)">
                    <g id="编组-71备份" transform="translate(288.000000, 0.000000)">
                        <g id="助力构建用户信任关系" transform="translate(8.000000, 10.034701)">
                            <rect id="矩形备份-2" x="0" y="0" width="60" height="60"></rect>
                            <g id="编组-6" transform="translate(3.066305, 6.044073)">
                                <path d="M34.9474544,0 C24.5036497,0 16.0275184,8.24390856 16.0275184,18.4015816 C16.0275184,28.5592546 24.5036497,36.8031632 34.9474544,36.8031632 C45.3912591,36.8031632 53.8673904,28.5592546 53.8673904,18.4015816 C53.8673904,8.24390856 45.3912591,0 34.9474544,0 Z" id="路径" stroke="#FFEAC2" fill="#FF8900" fill-rule="nonzero"></path>
                                <circle id="椭圆形" stroke="url(#linearGradient-2)" fill="url(#linearGradient-1)" cx="23.5851257" cy="26.4148743" r="23.0851257"></circle>
                                <g id="编组-5" transform="translate(9.371848, 17.105696)" fill="#FFFFFF" fill-rule="nonzero">
                                    <path d="M20.1828547,16.5821576 L14.0711452,10.4704481 C13.8816348,10.2809377 13.5973692,10.2809377 13.4078589,10.4704481 C13.2183485,10.6599585 13.2183485,10.944224 13.4078589,11.1337344 L19.5195684,17.2454439 L17.1980663,19.566946 L11.3706224,13.7868796 C11.181112,13.5973692 10.8968464,13.5973692 10.7073361,13.7868796 C10.5178257,13.97639 10.5178257,14.2606556 10.7073361,14.4501659 L16.4874024,20.2302323 L15.2082074,21.5094273 C14.6396763,22.0779584 13.739502,22.0779584 13.2183485,21.5094273 L5.92219915,14.2606556 L0.568531118,8.85960993 C-0.189510373,8.10156844 -0.189510373,6.91712861 0.568531118,6.15908712 L6.15908712,0.568531118 C6.91712861,-0.189510373 8.10156844,-0.189510373 8.85960993,0.568531118 L14.213278,5.96957674 L22.5043568,14.2606556 L20.1828547,16.5821576 Z" id="路径"></path>
                                    <path d="M27.8580248,8.85960993 L23.1676431,13.5499917 L14.8765643,5.30629044 L19.566946,0.615908712 C20.3249875,-0.14213278 21.5094273,-0.14213278 22.2674688,0.615908712 L27.8580248,6.20646471 C28.6160663,6.9645062 28.6160663,8.14894603 27.8580248,8.85960993 Z" id="路径"></path>
                                </g>
                            </g>
                        </g>
                    </g>
                </g>
            </g>
        </g>
    </g>
</svg>