<?xml version="1.0" encoding="UTF-8"?>
<svg width="60px" height="60px" viewBox="0 0 60 60" version="1.1" xmlns="http://www.w3.org/2000/svg" xmlns:xlink="http://www.w3.org/1999/xlink">
    <title>可复用</title>
    <g id="首页" stroke="none" stroke-width="1" fill="none" fill-rule="evenodd">
        <g id="画板" transform="translate(-878.000000, -1213.000000)">
            <g id="编组-6备份-8" transform="translate(876.000000, 1213.000000)">
                <g id="编组" transform="translate(2.000000, 0.000000)">
                    <rect id="矩形" x="0" y="0" width="60" height="60"></rect>
                    <circle id="椭圆形" fill="#73E1DB" cx="30" cy="16.6666667" r="16.6666667"></circle>
                    <path d="M28.232233,36.232233 C29.2085438,35.2559223 30.7914562,35.2559223 31.767767,36.232233 L41.1011003,45.5655664 C42.077411,46.5418771 42.077411,48.1247896 41.1011003,49.1011003 L31.767767,58.4344336 C30.7914562,59.4107443 29.2085438,59.4107443 28.232233,58.4344336 L18.8988997,49.1011003 C17.922589,48.1247896 17.922589,46.5418771 18.8988997,45.5655664 Z M49.1011003,20.232233 L58.4344336,29.5655664 C59.4107443,30.5418771 59.4107443,32.1247896 58.4344336,33.1011003 L49.1011003,42.4344336 C48.1247896,43.4107443 46.5418771,43.4107443 45.5655664,42.4344336 L36.232233,33.1011003 C35.2559223,32.1247896 35.2559223,30.5418771 36.232233,29.5655664 L45.5655664,20.232233 C46.5418771,19.2559223 48.1247896,19.2559223 49.1011003,20.232233 Z M14.4344336,18.8988997 L23.767767,28.232233 C24.7440777,29.2085438 24.7440777,30.7914562 23.767767,31.767767 L14.4344336,41.1011003 C13.4581229,42.077411 11.8752104,42.077411 10.8988997,41.1011003 L1.56556638,31.767767 C0.589255651,30.7914562 0.589255651,29.2085438 1.56556638,28.232233 L10.8988997,18.8988997 C11.8752104,17.922589 13.4581229,17.922589 14.4344336,18.8988997 Z M31.767767,1.56556638 L41.1011003,10.8988997 C42.077411,11.8752104 42.077411,13.4581229 41.1011003,14.4344336 L31.767767,23.767767 C30.7914562,24.7440777 29.2085438,24.7440777 28.232233,23.767767 L18.8988997,14.4344336 C17.922589,13.4581229 17.922589,11.8752104 18.8988997,10.8988997 L28.232233,1.56556638 C29.2085438,0.589255651 30.7914562,0.589255651 31.767767,1.56556638 Z" id="形状结合" fill="#2B58F9" fill-rule="nonzero"></path>
                    <path d="M46.3942165,19.6840805 C45.3226482,25.5438281 41.1867156,30.3331318 35.7082586,32.3301515 C35.3095606,31.4160708 35.4847622,30.3130373 36.232233,29.5655664 L45.5655664,20.232233 C45.7778078,20.0199916 46.0187167,19.8538896 46.2758288,19.733927 Z M14.4344336,18.8988997 L23.767767,28.232233 C24.7440777,29.2085438 24.7440777,30.7914562 23.767767,31.767767 L23.5125812,32.023584 C18.0021069,29.69285 14.0060125,24.482785 13.410364,18.2794552 C13.7852471,18.3958048 14.1378329,18.602299 14.4344336,18.8988997 Z M31.767767,1.56556638 L41.1011003,10.8988997 C42.077411,11.8752104 42.077411,13.4581229 41.1011003,14.4344336 L31.767767,23.767767 C30.7914562,24.7440777 29.2085438,24.7440777 28.232233,23.767767 L18.8988997,14.4344336 C17.922589,13.4581229 17.922589,11.8752104 18.8988997,10.8988997 L28.232233,1.56556638 C29.2085438,0.589255651 30.7914562,0.589255651 31.767767,1.56556638 Z" id="形状结合" fill="#071EF3"></path>
                </g>
            </g>
        </g>
    </g>
</svg>