<?xml version="1.0" encoding="UTF-8"?>
<svg width="60px" height="60px" viewBox="0 0 60 60" version="1.1" xmlns="http://www.w3.org/2000/svg" xmlns:xlink="http://www.w3.org/1999/xlink">
    <title>可追溯</title>
    <g id="首页" stroke="none" stroke-width="1" fill="none" fill-rule="evenodd">
        <g id="画板" transform="translate(-878.000000, -1097.000000)">
            <g id="编组-6备份-7" transform="translate(876.000000, 1097.000000)">
                <g id="编组-3" transform="translate(2.000000, 0.000000)">
                    <rect id="矩形" x="0" y="0" width="60" height="60"></rect>
                    <path d="M40.908933,0 C30.3688489,0 21.8181818,8.54396829 21.8181818,19.0907508 C21.8181818,29.6375612 30.3688771,38.1818182 40.908933,38.1818182 C51.4492398,38.1818182 60,29.6376262 60,19.0907508 C60,8.54390329 51.449268,0 40.908933,0 Z" id="路径" fill="#73E1DB" fill-rule="nonzero"></path>
                    <path d="M30,21.9091364 C25.4486035,21.9091364 21.7562727,25.5899084 21.7562727,30.1335 C21.7562727,34.6771036 25.4486157,38.358 30,38.358 C34.5514927,38.358 38.2438636,34.6771316 38.2438636,30.1335 C38.2438636,25.5898804 34.5515049,21.9091364 30,21.9091364 Z M12.1638775,9.46499878 C12.9614276,10.2650461 12.9594031,11.5601547 12.1593558,12.3577048 C2.31051778,22.1758002 2.31051778,38.0913362 12.1593558,47.9094316 C12.9594031,48.7069816 12.9614276,50.0020902 12.1638775,50.8021376 C11.3663275,51.6021849 10.0712189,51.6042094 9.27117151,50.8066594 C-2.18129959,39.3899365 -2.18129959,20.8771998 9.27117151,9.46047701 C10.0712189,8.66292695 11.3663275,8.66495142 12.1638775,9.46499878 Z M20.5872492,16.3326937 C21.3574539,17.1590996 21.3118939,18.4534081 20.4854881,19.2236128 C14.0806403,25.1928882 14.0806403,34.8071118 20.4854881,40.7763872 C21.3118939,41.5465919 21.3574539,42.8409004 20.5872492,43.6673063 C19.8170445,44.4937121 18.5227359,44.5392721 17.6963301,43.7690674 C9.55581421,36.1821609 9.55581421,23.8178391 17.6963301,16.2309326 C18.5227359,15.4607279 19.8170445,15.5062879 20.5872492,16.3326937 Z M50.7287721,9.46047516 C62.1812729,20.8771984 62.1812729,39.389938 50.7287721,50.8066612 C49.9287237,51.6042102 48.6336151,51.6021841 47.8360661,50.8021357 C47.038517,50.0020873 47.0405432,48.7069787 47.8405915,47.9094297 C57.6894543,38.0913348 57.6894543,22.1758016 47.8405915,12.3577067 C47.0405432,11.5601576 47.038517,10.265049 47.8360661,9.46500064 C48.6336151,8.66495225 49.9287237,8.66292613 50.7287721,9.46047516 Z M42.3036699,16.2309326 C50.4441858,23.8178391 50.4441858,36.1821609 42.3036699,43.7690674 C41.4772641,44.5392721 40.1829555,44.4937121 39.4127508,43.6673063 C38.6425461,42.8409004 38.6881061,41.5465919 39.5145119,40.7763872 C45.9193597,34.8071118 45.9193597,25.1928882 39.5145119,19.2236128 C38.6881061,18.4534081 38.6425461,17.1590996 39.4127508,16.3326937 C40.1829555,15.5062879 41.4772641,15.4607279 42.3036699,16.2309326 Z" id="形状结合" fill="#2B58F9" fill-rule="nonzero"></path>
                    <path d="M42.3036699,16.2309326 C48.3740333,21.8884707 49.9177411,30.2025621 46.9347934,37.2112358 C45.2995499,37.7547142 43.5667654,38.0830109 41.7695338,38.162762 C45.8013154,32.2638585 45.0498451,24.3825064 39.5145119,19.2236128 C38.6881061,18.4534081 38.6425461,17.1590996 39.4127508,16.3326937 C40.1829555,15.5062879 41.4772641,15.4607279 42.3036699,16.2309326 Z M30,21.9091364 C34.5515049,21.9091364 38.2438636,25.5898804 38.2438636,30.1335 C38.2438636,33.0427501 36.730089,35.59829 34.4462755,37.0603595 C29.1723662,35.1627283 24.9737844,31.0095663 23.0165398,25.7631312 C24.4743839,23.4473919 27.0576831,21.9091364 30,21.9091364 Z M50.7287721,9.46047516 C55.2432241,13.960824 57.978128,19.5637882 58.9334836,25.4000897 C58.1009879,27.7765407 56.8127938,29.9377697 55.1734014,31.7793426 C55.6293715,24.8087747 53.1850705,17.6854895 47.8405915,12.3577067 C47.0405432,11.5601576 47.038517,10.265049 47.8360661,9.46500064 C48.6336151,8.66495225 49.9287237,8.66292613 50.7287721,9.46047516 Z" id="形状结合" fill="#071EF3" fill-rule="nonzero"></path>
                </g>
            </g>
        </g>
    </g>
</svg>