<?xml version="1.0" encoding="UTF-8"?>
<svg width="680px" height="619px" viewBox="0 0 680 619" version="1.1" xmlns="http://www.w3.org/2000/svg" xmlns:xlink="http://www.w3.org/1999/xlink">
    <title>编组 88</title>
    <defs>
        <linearGradient x1="13.8093013%" y1="22.0526505%" x2="100%" y2="72.8213894%" id="linearGradient-1">
            <stop stop-color="#FFA007" offset="0%"></stop>
            <stop stop-color="#FFE663" offset="100%"></stop>
        </linearGradient>
        <rect id="path-2" x="0" y="0" width="680" height="619" rx="24"></rect>
        <filter x="-25.4%" y="-26.6%" width="150.8%" height="153.2%" filterUnits="objectBoundingBox" id="filter-4">
            <feGaussianBlur stdDeviation="50" in="SourceGraphic"></feGaussianBlur>
        </filter>
        <rect id="path-5" x="30" y="30" width="620" height="559" rx="10"></rect>
        <filter x="-4.4%" y="-3.8%" width="108.7%" height="109.7%" filterUnits="objectBoundingBox" id="filter-6">
            <feOffset dx="0" dy="6" in="SourceAlpha" result="shadowOffsetOuter1"></feOffset>
            <feGaussianBlur stdDeviation="8" in="shadowOffsetOuter1" result="shadowBlurOuter1"></feGaussianBlur>
            <feComposite in="shadowBlurOuter1" in2="SourceAlpha" operator="out" result="shadowBlurOuter1"></feComposite>
            <feColorMatrix values="0 0 0 0 0.703588513   0 0 0 0 0.415162354   0 0 0 0 0.0845910004  0 0 0 0.1 0" type="matrix" in="shadowBlurOuter1"></feColorMatrix>
        </filter>
        <text id="text-7" font-family="PingFangSC-Medium, PingFang SC" font-size="20" font-weight="400" fill="#FFFFFF">
            <tspan x="270" y="67">产品能力与亮点</tspan>
        </text>
        <filter x="-5.0%" y="-17.9%" width="110.0%" height="150.0%" filterUnits="objectBoundingBox" id="filter-8">
            <feOffset dx="0" dy="2" in="SourceAlpha" result="shadowOffsetOuter1"></feOffset>
            <feGaussianBlur stdDeviation="2" in="shadowOffsetOuter1" result="shadowBlurOuter1"></feGaussianBlur>
            <feColorMatrix values="0 0 0 0 0.76706596   0 0 0 0 0.361760005   0 0 0 0 0.150379386  0 0 0 0.366912628 0" type="matrix" in="shadowBlurOuter1"></feColorMatrix>
        </filter>
    </defs>
    <g id="页面-1" stroke="none" stroke-width="1" fill="none" fill-rule="evenodd">
        <g id="产品官网" transform="translate(-120.000000, -2818.000000)">
            <g id="编组-23" transform="translate(0.000000, 2718.000000)">
                <g id="编组-88" transform="translate(120.000000, 100.000000)">
                    <g id="编组-16">
                        <mask id="mask-3" fill="white">
                            <use xlink:href="#path-2"></use>
                        </mask>
                        <use id="矩形" fill="url(#linearGradient-1)" xlink:href="#path-2"></use>
                        <ellipse id="椭圆形" fill="#FF9227" opacity="0.517264957" filter="url(#filter-4)" mask="url(#mask-3)" cx="0.5" cy="319.401042" rx="295.5" ry="282.161458"></ellipse>
                    </g>
                    <g id="矩形">
                        <use fill="black" fill-opacity="1" filter="url(#filter-6)" xlink:href="#path-5"></use>
                        <use fill-opacity="0.26" fill="#FFFFFF" fill-rule="evenodd" xlink:href="#path-5"></use>
                    </g>
                    <g id="编组-82" transform="translate(50.000000, 88.000000)">
                        <rect id="矩形" fill="#FFFFFF" x="0" y="0" width="580" height="155" rx="8"></rect>
                        <g id="编组-76" transform="translate(16.000000, 106.000000)">
                            <rect id="矩形" fill="#FFF8E6" x="0" y="0" width="548" height="33" rx="16.5"></rect>
                            <text id="积累数亿人机对话语料,百万级行业标注语料" font-family="PingFangSC-Regular, PingFang SC" font-size="12" font-weight="normal" fill="#0A0F2C" fill-opacity="0.65">
                                <tspan x="16" y="21">积累数亿人机对话语料,百万级行业标注语料,提供多行业多场景的知识库,支持快速冷启动,即开即用</tspan>
                            </text>
                        </g>
                        <rect id="矩形" x="435" y="4" width="145" height="102" rx="8"></rect>
                        <rect id="矩形" x="290" y="4" width="145" height="102" rx="8"></rect>
                        <g id="编组-71" transform="translate(145.000000, 4.000000)">
                            <rect id="矩形" x="0" y="0" width="145" height="102" rx="8"></rect>
                            <g id="编组-35" transform="translate(45.000000, 16.000000)">
                                <g id="编组-73" transform="translate(5.000000, 0.000000)">
                                    <rect id="矩形" fill="#FF7624" x="0" y="0" width="46" height="46" rx="6"></rect>
                                    <g id="已使用" transform="translate(12.000000, 12.000000)" fill-rule="nonzero">
                                        <rect id="矩形" fill="#000000" opacity="0" x="0" y="0" width="23" height="23"></rect>
                                        <path d="M12.21875,10.78125 L12.21875,0 L11.5,0 C5.1591875,0 0,5.1591875 0,11.5 C0,17.8408125 5.1591875,23 11.5,23 C17.8408125,23 23,17.8408125 23,11.5 L23,10.78125 L12.21875,10.78125 Z M11.5,21.5610625 C5.95125,21.5610625 1.4389375,17.0473125 1.4389375,11.5 C1.4389375,6.1941875 5.5674375,1.8328125 10.78125,1.463375 L10.78125,5.4121875 C7.72225,5.773 5.338875,8.3446875 5.338875,11.5 C5.338875,14.9025625 8.0974375,17.661125 11.5,17.661125 C14.6553125,17.661125 17.227,15.2791875 17.5878125,12.2201875 L21.536625,12.2201875 C21.16575,17.434 16.8058125,21.5610625 11.5,21.5610625 Z" id="形状" fill="#FFFFFF"></path>
                                    </g>
                                </g>
                                <text id="开盒即用" font-family="PingFangSC-Regular, PingFang SC" font-size="14" font-weight="normal" fill="#0A0F2C" fill-opacity="0.85">
                                    <tspan x="0" y="69">开盒即用</tspan>
                                </text>
                            </g>
                        </g>
                        <g id="编组-70" transform="translate(0.000000, 4.000000)">
                            <rect id="矩形" x="0" y="0" width="145" height="102" rx="8"></rect>
                            <g id="编组-35" transform="translate(38.000000, 16.000000)">
                                <g id="编组-72" transform="translate(12.000000, 0.000000)">
                                    <rect id="矩形" fill="#FF7624" x="0" y="0" width="46" height="46" rx="6"></rect>
                                    <g id="知识库" transform="translate(12.000000, 12.000000)" fill-rule="nonzero">
                                        <rect id="矩形" fill="#000000" opacity="0" x="0" y="0" width="23" height="23"></rect>
                                        <path d="M17.4835937,2.25058594 C17.6767578,2.25058594 17.8699219,2.25957031 18.0630859,2.27753906 C18.6695312,2.33369141 19.1344727,2.84355469 19.1322347,3.45224609 L19.1322347,16.6974609 C19.1322347,17.3331055 18.6291016,17.8519531 17.9957031,17.8744141 C16.8524414,17.9170898 15.8821289,18.0698242 15.0892578,18.3348633 C14.0493164,18.6830078 13.0363281,19.3141602 12.0570312,20.2260742 L12.0570312,5.41533203 C12.7802734,4.17099609 13.7932617,3.27929687 15.0892578,2.73798828 C15.8484375,2.41904297 16.6615234,2.25283203 17.4835937,2.25058594 L17.4835937,2.25058594 Z M20.3136719,16.9759766 L20.3136719,4.88974609 C20.6258789,4.88974609 20.9268555,5.01328125 21.1469727,5.23564453 C21.3670898,5.45800781 21.4928711,5.75673828 21.4928711,6.06894531 L21.4928711,18.0608398 C21.4928711,18.9974609 20.9066406,20.5135742 19.1344727,20.3608398 C17.8856445,20.2552734 17.8047852,20.2103516 16.7513672,20.2283203 C15.7204102,20.2462891 14.2761719,20.2103516 12.984668,20.5135742 C13.7079102,19.909375 14.7658203,19.4826172 15.4666016,19.334375 C16.1651367,19.1838867 17.0388672,19.11875 18.065332,19.0805664 C19.3680664,19.0333984 20.3136719,18.0541016 20.3136719,16.9759766 L20.3136719,16.9759766 Z M5.45126953,2.25058594 C6.26660156,2.25058594 7.06396484,2.41455078 7.84560547,2.73798828 C9.14160156,3.27705078 10.1545898,4.17099609 10.877832,5.41533203 L10.877832,20.2283203 C9.89853516,19.3141602 8.88554687,18.6830078 7.84560547,18.3371094 C7.05273437,18.0743164 6.08466797,17.9193359 4.93916016,17.8789062 C4.30576172,17.8564453 3.80263672,17.3353516 3.80487532,16.699707 L3.80487532,3.45224609 C3.80487532,2.84355469 4.26757812,2.3359375 4.87402344,2.27978516 C5.06494141,2.25957031 5.25810547,2.25058594 5.45126953,2.25058594 L5.45126953,2.25058594 Z M2.62119141,16.9759766 C2.62119141,17.9485352 3.33994141,19.0244141 4.89423828,19.0805664 C5.92294922,19.11875 6.56533203,19.2310547 7.47050781,19.334375 C8.37568359,19.4354492 9.24716797,19.9116211 9.97041016,20.5135742 C8.67890625,20.2103516 7.34248047,20.2283203 6.18349609,20.2283203 C5.27158203,20.2283203 5.11210937,20.3608398 3.80039062,20.3608398 C2.25283203,20.3608398 1.43974609,18.9615234 1.43974609,18.0608398 L1.43974609,6.06669922 C1.43974609,5.41533203 1.96757812,4.8875 2.61894531,4.8875 L2.61894531,16.9759766 L2.62119141,16.9759766 Z" id="形状" fill="#FFFFFF"></path>
                                    </g>
                                </g>
                                <text id="行业知识库" font-family="PingFangSC-Regular, PingFang SC" font-size="14" font-weight="normal" fill="#0A0F2C" fill-opacity="0.85">
                                    <tspan x="0" y="69">行业知识库</tspan>
                                </text>
                            </g>
                        </g>
                        <g id="编组-35" transform="translate(307.000000, 20.000000)">
                            <g id="编组-74" transform="translate(33.000000, 0.000000)">
                                <rect id="矩形" fill="#FF7624" x="0" y="0" width="46" height="46" rx="6"></rect>
                                <g id="收音机" transform="translate(10.000000, 10.000000)" fill-rule="nonzero">
                                    <rect id="矩形" fill="#000000" opacity="0" x="0" y="0" width="26.999989" height="26.999989"></rect>
                                    <path d="M25.1617485,11.9954276 C25.1617485,11.4645684 24.9862222,11.015052 24.6351697,10.6468783 C24.2841171,10.2787046 23.7660987,10.0946178 23.0811146,10.0946178 L3.63632371,10.0946178 C3.05408372,10.0946178 2.6045673,10.2401734 2.28777446,10.5312846 C1.97098162,10.8223958 1.82113695,11.2162599 1.83824046,11.7128769 L1.83824046,22.1416227 C1.83824046,22.6896029 2.00092594,23.1048684 2.3262969,23.387419 C2.65166787,23.6699697 3.06265305,23.8112714 3.55925246,23.8112714 L23.0811146,23.8112714 C23.6804757,23.8112714 24.1770839,23.6314648 24.5709392,23.2718517 C24.9647945,22.9122386 25.1617485,22.4670024 25.1617485,21.9361432 L25.1617485,11.9954276 Z M14.0394142,13.7678028 C14.0394142,14.1616581 13.8895783,14.5212713 13.5899066,14.8466422 C13.2902348,15.1720132 12.9263414,15.3346987 12.4982264,15.3346987 L4.53533897,15.3346987 C4.10724149,15.3346987 3.74334808,15.1762935 3.44365875,14.859483 C3.14396942,14.5426726 2.99415112,14.1959003 2.99415112,13.8191661 L2.99415112,13.4852785 C2.99415112,13.0914232 3.143987,12.7446509 3.44365875,12.4449616 C3.74333051,12.1452722 4.10722391,11.9954539 4.53533897,11.9954539 L12.4982264,11.9954539 C12.9263238,11.9954539 13.2902172,12.1538504 13.5899066,12.4706432 C13.8895959,12.787436 14.0394142,13.1342084 14.0394142,13.5109602 L14.0394142,13.7678292 L14.0394142,13.7678028 Z M19.6647986,21.5765477 C19.0996797,21.5765477 18.5731008,21.4695233 18.085062,21.2554746 C17.5970231,21.0414258 17.168908,20.7545861 16.8007168,20.3949554 C16.4325255,20.0353247 16.1414143,19.6114987 15.9273832,19.1234774 C15.713352,18.6354561 15.60631,18.1088772 15.60631,17.5437407 C15.60631,16.9786042 15.7133168,16.4477451 15.9273832,15.9511633 C16.1414495,15.4545814 16.4325607,15.0264664 16.8007168,14.6668181 C17.1688729,14.3071698 17.5969879,14.0203389 18.085062,13.8063253 C18.573136,13.5923117 19.0997149,13.4852521 19.6647986,13.4852521 C20.2298824,13.4852521 20.7564525,13.5922414 21.2445089,13.8063253 C21.7325654,14.0204092 22.1606804,14.3072489 22.5288541,14.6668444 C22.8970278,15.02644 23.188139,15.4545551 23.4021877,15.9511896 C23.6162365,16.4478242 23.7232872,16.9786746 23.7232872,17.5437407 C23.7232872,18.1088069 23.6162716,18.6353858 23.4021877,19.1234774 C23.1881038,19.611569 22.8969926,20.035395 22.5288541,20.3949554 C22.1607156,20.7545158 21.7326005,21.0413555 21.2445089,21.2554746 C20.7564173,21.4695936 20.2298472,21.5765477 19.6647986,21.5765477 L19.6647986,21.5765477 Z M7.33519037,9.16989454 L4.92064253,9.16989454 L8.56814592,2.69685811 C8.73939195,2.42286799 8.95344948,2.22165128 9.21031851,2.09320797 C9.46718755,1.96476466 9.74117767,1.96904493 10.0322889,2.10604878 C10.3234001,2.24305264 10.4903658,2.4656795 10.5331861,2.77392937 C10.5760064,3.08217925 10.5460357,3.33903949 10.4432741,3.54451011 L7.33519037,9.16989454 Z" id="形状" fill="#FFFFFF"></path>
                                </g>
                            </g>
                            <text id="个性化富媒体问答" font-family="PingFangSC-Regular, PingFang SC" font-size="14" font-weight="normal" fill="#0A0F2C" fill-opacity="0.85">
                                <tspan x="0" y="69">个性化富媒体问答</tspan>
                            </text>
                        </g>
                        <g id="编组-35" transform="translate(465.000000, 20.000000)">
                            <g id="编组-75" transform="translate(20.000000, 0.000000)">
                                <rect id="矩形" fill="#FF7624" x="0" y="0" width="46" height="46" rx="6"></rect>
                                <g id="文件,文档,书籍,知识,知识库" transform="translate(12.000000, 12.000000)" fill-rule="nonzero">
                                    <rect id="矩形" fill="#000000" opacity="0" x="0" y="0" width="22.9955087" height="22.9955087"></rect>
                                    <path d="M22.3689709,7.85305604 L22.9124194,7.70708846 C22.9618239,7.69361453 22.9955087,7.64870143 22.9955087,7.59929701 L22.9955087,6.46299551 C22.9955087,6.4135911 22.9618239,6.36867799 22.9124194,6.35520406 L22.6631517,6.28558875 L13.8332357,3.83108768 C13.5817223,3.76147237 13.323472,3.72554189 13.062976,3.72554189 C12.9551845,3.72554189 12.8473931,3.73227885 12.7396016,3.74350713 L1.27553212,5.04374146 C0.550185511,5.12458504 0,5.73989455 0,6.47197813 L0,15.1199961 C0,15.7016208 0.350322203,16.2248584 0.887033782,16.4471783 L10.9902363,20.6330795 L12.47686,21.248389 C12.5082992,21.2618629 12.5397383,21.2685999 12.5734232,21.2685999 C12.6026167,21.2708455 12.6318102,21.2708455 12.6610037,21.2708455 C12.8765866,21.2708455 13.0966608,21.2438977 13.3144894,21.1855106 L22.9214021,18.6119898 C22.9640695,18.6007616 22.9955087,18.5603398 22.9955087,18.5154267 L22.9955087,17.2331576 C22.9955087,17.1770162 22.9505956,17.1343488 22.8966999,17.1343488 C22.8877172,17.1343488 22.8787346,17.1343488 22.8719977,17.1365944 L22.479008,17.2421402 C22.4340949,17.2533685 22.3846905,17.2286663 22.3712166,17.1837532 C22.0725444,16.2832455 22.1915641,15.5219684 22.3083382,15.1020309 C22.3173208,15.0705917 22.3397774,15.0481351 22.3712166,15.0391525 L22.9146651,14.8931849 C22.9640695,14.879711 22.9977543,14.8347979 22.9977543,14.7853935 L22.9977543,13.642355 C22.9977543,13.6176528 22.9910174,13.5929506 22.9752978,13.5749854 C22.9550869,13.5525288 22.928139,13.5413005 22.8989455,13.5413005 C22.8899629,13.5413005 22.8809803,13.5413005 22.8742433,13.5435462 L22.4812537,13.649092 C22.4363406,13.6603202 22.3869361,13.635618 22.3734622,13.5907049 C22.0747901,12.6901972 22.1938098,11.9289201 22.3105839,11.5089826 C22.3195665,11.4775434 22.342023,11.4550869 22.3734622,11.4461043 L22.9169108,11.3001367 C22.9663152,11.2866628 23,11.2417497 23,11.1923452 L23,10.0493068 C23,10.0246046 22.993263,9.99990236 22.9775434,9.98193712 C22.9573326,9.95948057 22.9303847,9.94825229 22.9011912,9.94825229 C22.8922086,9.94825229 22.8832259,9.94825229 22.876489,9.95049795 L22.4834993,10.0560437 C22.4385862,10.067272 22.3891818,10.0425698 22.3757079,9.99765671 C22.0770357,9.09714899 22.1960555,8.3358719 22.3128295,7.91593439 C22.3150752,7.88449522 22.3375317,7.86203866 22.3689709,7.85305604 L22.3689709,7.85305604 Z M8.49531342,7.81937122 L3.79964851,6.37766061 C3.70757665,6.3484671 3.71880492,6.21372779 3.81536809,6.20249951 L13.1078891,5.1515329 C13.1528022,5.14704159 13.1999609,5.14928725 13.244874,5.16276118 L19.613552,6.93233743 C19.7011326,6.95703964 19.7011326,7.08279633 19.613552,7.10525288 L16.0811365,8.05291935 L13.3481742,8.78500293 L12.5105448,9.00956844 C12.4858426,9.01630541 12.4611404,9.01855106 12.4386839,9.01855106 C12.4094903,9.01855106 12.3825425,9.01405975 12.3555946,9.00507713 L11.9379028,8.87707479 L8.49531342,7.81937122 L8.49531342,7.81937122 Z M20.9137864,17.6620777 L12.9439563,19.7976958 C12.8518844,19.822398 12.7575669,19.8358719 12.6632494,19.8358719 C12.6340558,19.8358719 12.6048623,19.8336262 12.5756688,19.8313806 C12.1265378,19.7954501 11.7425308,19.4765671 11.623511,19.0364187 C11.5494044,18.7579574 11.5875806,18.4682679 11.7313025,18.2190002 C11.8750244,17.9697325 12.1085725,17.7923257 12.3870338,17.7159734 L12.535247,17.6755517 L12.5756688,17.6643234 L20.6532904,15.4995118 C20.7139231,15.4837922 20.7723101,15.5331966 20.7655731,15.5938293 C20.7161687,16.1440148 20.7476079,16.8154657 20.9766647,17.5475493 C20.9923843,17.5969537 20.9631908,17.6486038 20.9137864,17.6620777 L20.9137864,17.6620777 Z M20.9137864,14.0690295 L12.9439563,16.2046475 C12.8518844,16.2293497 12.7575669,16.2428237 12.6632494,16.2428237 C12.6340558,16.2428237 12.6048623,16.240578 12.5756688,16.2383324 C12.4656317,16.2293497 12.3600859,16.2046475 12.2612771,16.1619801 C11.955868,16.038469 11.7133372,15.7757274 11.6257567,15.4411248 C11.5516501,15.1626635 11.5898262,14.872974 11.7335481,14.6237063 C11.8772701,14.3744386 12.1108182,14.1970318 12.3892794,14.1206796 L12.5374927,14.0802578 L12.5779145,14.0690295 L16.0766452,13.1325913 L18.8096075,12.4005077 L20.655536,11.9064636 C20.7161687,11.890744 20.7745558,11.9401484 20.7678188,12.0007811 C20.7184144,12.5509666 20.7498535,13.2224175 20.9789104,13.9545011 C20.9923843,14.0039055 20.9631908,14.0555556 20.9137864,14.0690295 L20.9137864,14.0690295 Z M20.9137864,10.4759813 L16.312439,11.7088459 L13.5794767,12.4409295 L12.9439563,12.6115993 C12.8518844,12.6363015 12.7575669,12.6497754 12.6632494,12.6497754 C12.6340558,12.6497754 12.6048623,12.6475298 12.5756688,12.6452841 C12.4723687,12.6363015 12.3713142,12.613845 12.2769967,12.5756688 C12.2657684,12.5711775 12.2545401,12.5666862 12.2455575,12.5599492 L12.0681508,12.4633861 C12.0569225,12.4566491 12.0479399,12.4521578 12.0367116,12.4454208 C11.8390939,12.3039445 11.688635,12.0950986 11.623511,11.8480765 C11.5516501,11.5763523 11.5853349,11.2911541 11.7223199,11.0463777 C11.7245655,11.0396407 11.7290568,11.0351494 11.7313025,11.0306581 C11.8750244,10.7813904 12.1085725,10.6039836 12.3870338,10.5276313 L12.5756688,10.4759813 L16.0743995,9.53954306 L18.8073618,8.80745948 L20.6532904,8.31341535 C20.7139231,8.29769576 20.7723101,8.34710018 20.7655731,8.40773286 C20.7161687,8.95791838 20.7476079,9.62936926 20.9766647,10.3614528 C20.9923843,10.4108573 20.9631908,10.4625073 20.9137864,10.4759813 L20.9137864,10.4759813 Z" id="形状" fill="#FFFFFF"></path>
                                </g>
                            </g>
                            <text id="场景知识图谱" font-family="PingFangSC-Regular, PingFang SC" font-size="14" font-weight="normal" fill="#0A0F2C" fill-opacity="0.85">
                                <tspan x="0" y="69">场景知识图谱</tspan>
                            </text>
                        </g>
                    </g>
                    <g id="编组-82" transform="translate(50.000000, 253.000000)">
                        <rect id="矩形" fill="#FFFFFF" x="0" y="0" width="580" height="155" rx="8"></rect>
                        <g id="编组-76" transform="translate(16.000000, 106.000000)">
                            <rect id="矩形" fill="#FFF8E6" x="0" y="0" width="548" height="33" rx="16.5"></rect>
                            <text id="支持多轮沟通，自然拟人的应用于接待或者主" font-family="PingFangSC-Regular, PingFang SC" font-size="12" font-weight="normal" fill="#0A0F2C" fill-opacity="0.65">
                                <tspan x="16" y="21">支持多轮沟通，自然拟人的应用于接待或者主动沟通场景，同时多实体采集和多意图识别</tspan>
                            </text>
                        </g>
                        <rect id="矩形" x="435" y="4" width="145" height="102" rx="8"></rect>
                        <rect id="矩形" x="290" y="4" width="145" height="102" rx="8"></rect>
                        <g id="编组-71" transform="translate(145.000000, 4.000000)">
                            <rect id="矩形" x="0" y="0" width="145" height="102" rx="8"></rect>
                            <g id="编组-35" transform="translate(45.000000, 16.000000)">
                                <g id="编组-73" transform="translate(5.000000, 0.000000)">
                                    <rect id="矩形" fill="#FFA500" x="0" y="0" width="46" height="46" rx="6"></rect>
                                    <g id="对话-实色" transform="translate(9.000000, 9.000000)" fill-rule="nonzero">
                                        <rect id="矩形" fill="#000000" opacity="0" x="0" y="0" width="28" height="28"></rect>
                                        <path d="M17.6036055,15.6716055 L17.6036055,6.45960547 C17.6036055,5.53278906 16.8503945,4.77960547 15.9236055,4.77960547 L4.93636719,4.77960547 C4.00957812,4.77960547 3.25636719,5.53278906 3.25636719,6.45960547 L3.25636719,15.6743945 C3.25636719,16.6012109 4.00957812,17.3543945 4.93636719,17.3543945 L6.3,17.3543945 L6.3,18.8552109 C6.3,19.1715781 6.47639453,19.46 6.75921094,19.6027891 C6.87960547,19.6643945 7.01121094,19.6952109 7.14,19.6952109 C7.31360547,19.6952109 7.48721094,19.642 7.63278906,19.5356055 L10.64,17.3516055 L15.9236055,17.3516055 C16.8503945,17.3516055 17.6036055,16.5983945 17.6036055,15.6716055 Z M23.0636055,8.44757813 L18.564,8.44757813 L18.564,17.0267891 C18.564,17.6455781 18.0627891,18.1467891 17.444,18.1467891 L12.6223945,18.1467891 L12.6223945,19.2583945 C12.6223945,20.1852109 13.3756055,20.9383945 14.3023945,20.9383945 L16.8196055,20.9383945 L19.8156055,23.0663945 C19.9612109,23.17 20.132,23.2232109 20.3027891,23.2232109 C20.4483945,23.2232109 20.594,23.1867891 20.7256055,23.1083945 C20.9887891,22.9571836 21.1427891,22.6687891 21.1427891,22.3663945 L21.1427891,21.0588164 L23.0636055,21.0588164 C23.9903945,21.0588164 24.7436055,20.3056055 24.7436055,19.3788164 L24.7436055,10.1275781 C24.7436055,9.20076172 23.9903945,8.44757813 23.0636055,8.44757813 L23.0636055,8.44757813 Z" id="形状" fill="#FFFFFF"></path>
                                    </g>
                                </g>
                                <text id="多轮对话" font-family="PingFangSC-Regular, PingFang SC" font-size="14" font-weight="normal" fill="#0A0F2C" fill-opacity="0.85">
                                    <tspan x="0" y="69">多轮对话</tspan>
                                </text>
                            </g>
                        </g>
                        <g id="编组-70" transform="translate(0.000000, 4.000000)">
                            <rect id="矩形" x="0" y="0" width="145" height="102" rx="8"></rect>
                            <g id="编组-35" transform="translate(45.000000, 16.000000)">
                                <g id="编组-72" transform="translate(5.000000, 0.000000)">
                                    <rect id="矩形" fill="#FFA500" x="0" y="0" width="46" height="46" rx="6"></rect>
                                    <g id="cityvisual-城市视觉智能引擎" transform="translate(10.000000, 10.000000)" fill-rule="nonzero">
                                        <rect id="矩形" fill="#000000" opacity="0" x="0" y="0" width="26" height="26"></rect>
                                        <path d="M3.471,17.875 L22.594,17.875 C23.673,17.225 24.388,15.977 24.388,14.625 C24.388,12.948 23.244,11.427 21.684,10.946 C21.632,10.14 21.307,9.373 20.878,8.775 L17.355,12.402 L10.855,12.402 C10.699,12.558 10.478,12.675 10.309,12.675 C9.88,12.675 9.555,12.298 9.555,11.921 C9.555,11.492 9.932,11.167 10.309,11.167 C10.53,11.167 10.738,11.271 10.855,11.44 L16.861,11.44 L20.111,8.19 C19.513,7.696 18.759,7.488 17.94,7.436 C16.796,5.98 15.015,5.005 13.013,5.005 C11.219,5.005 9.607,5.707 8.411,6.903 L9.165,7.657 L15.34,7.657 C15.509,7.501 15.717,7.384 15.886,7.384 C16.315,7.384 16.64,7.761 16.64,8.138 C16.64,8.515 16.263,8.892 15.886,8.892 C15.665,8.892 15.457,8.788 15.34,8.619 L8.775,8.619 L7.475,7.319 C5.954,7.644 4.771,8.775 4.498,10.192 L8.892,14.586 L16.471,14.586 C16.64,14.417 16.848,14.313 17.017,14.313 C17.446,14.313 17.771,14.69 17.771,15.067 C17.771,15.444 17.394,15.821 17.017,15.821 C16.796,15.821 16.588,15.717 16.471,15.548 L8.398,15.548 L3.848,10.998 C2.548,11.752 1.625,13.117 1.625,14.625 C1.625,15.977 2.379,17.225 3.471,17.875 Z M6.877,10.296 C6.448,10.296 6.123,9.919 6.123,9.542 C6.123,9.165 6.5,8.788 6.877,8.788 C7.254,8.788 7.631,9.165 7.631,9.542 C7.631,9.919 7.254,10.296 6.877,10.296 Z M20.423,12.727 C20.852,12.727 21.177,13.104 21.177,13.481 C21.177,13.858 20.8,14.235 20.423,14.235 C19.994,14.235 19.669,13.858 19.669,13.481 C19.669,13.104 20.046,12.727 20.423,12.727 L20.423,12.727 Z M2.171,18.954 L23.842,18.954 L23.842,21.008 L2.171,21.008 L2.171,18.954 Z" id="形状" fill="#FFFFFF"></path>
                                    </g>
                                </g>
                                <text id="流动引擎" font-family="PingFangSC-Regular, PingFang SC" font-size="14" font-weight="normal" fill="#0A0F2C" fill-opacity="0.85">
                                    <tspan x="0" y="69">流动引擎</tspan>
                                </text>
                            </g>
                        </g>
                        <g id="编组-35" transform="translate(335.000000, 20.000000)">
                            <g id="编组-74" transform="translate(5.000000, 0.000000)">
                                <rect id="矩形" fill="#FFA500" x="0" y="0" width="46" height="46" rx="6"></rect>
                                <g id="电话" transform="translate(12.000000, 12.000000)" fill-rule="nonzero">
                                    <rect id="矩形" fill="#000000" opacity="0" x="0" y="0" width="22" height="22"></rect>
                                    <path d="M11,0 C4.95,0 0,4.95 0,11 C0,13.2 0.66,15.18 1.76,16.94 C1.76,16.94 3.41,19.14 2.64,20.57 C2.09,21.45 0.55,22 0.55,22 L11,22 C17.05,22 22,17.05 22,11 C22,4.95 17.05,0 11,0 Z M16.72,17.71 C15.62,18.81 11.77,17.82 8.03,13.97 C4.18,10.12 3.19,6.27 4.29,5.28 C5.17,4.4 6.27,2.86 7.81,4.84 C9.46,6.82 8.69,7.37 7.7,8.36 C7.04,9.02 8.47,10.67 9.9,12.1 C11.33,13.53 12.98,14.85 13.64,14.19 C14.52,13.31 15.07,12.43 17.16,14.08 C19.14,15.73 17.71,16.83 16.72,17.71 Z" id="形状" fill="#FFFFFF"></path>
                                </g>
                            </g>
                            <text id="主动沟通" font-family="PingFangSC-Regular, PingFang SC" font-size="14" font-weight="normal" fill="#0A0F2C" fill-opacity="0.85">
                                <tspan x="0" y="69">主动沟通</tspan>
                            </text>
                        </g>
                        <g id="编组-35" transform="translate(462.000000, 20.000000)">
                            <g id="编组-75" transform="translate(23.000000, 0.000000)">
                                <rect id="矩形" fill="#FFA500" x="0" y="0" width="46" height="46" rx="6"></rect>
                                <g id="任务采集" transform="translate(11.000000, 11.000000)" fill-rule="nonzero">
                                    <rect id="矩形" fill="#000000" opacity="0" x="0" y="0" width="24" height="24"></rect>
                                    <path d="M3,11.25 L3,21 C3,21.8284271 3.67157288,22.5 4.5,22.5 L19.5,22.5 C20.3284271,22.5 21,21.8284271 21,21 L21,11.25 L3,11.25 Z M6.75,19.5 C6.75,19.9142136 6.41421356,20.25 6,20.25 C5.58578644,20.25 5.25,19.9142136 5.25,19.5 L5.25,15 C5.25,14.5857864 5.58578644,14.25 6,14.25 C6.41421356,14.25 6.75,14.5857864 6.75,15 L6.75,19.5 Z M9.75,19.5 C9.75,19.9142136 9.41421356,20.25 9,20.25 C8.58578644,20.25 8.25,19.9142136 8.25,19.5 L8.25,15 C8.25,14.5857864 8.58578644,14.25 9,14.25 C9.41421356,14.25 9.75,14.5857864 9.75,15 L9.75,19.5 Z M12.75,19.5 C12.75,19.9142136 12.4142136,20.25 12,20.25 C11.5857864,20.25 11.25,19.9142136 11.25,19.5 L11.25,15 C11.25,14.5857864 11.5857864,14.25 12,14.25 C12.4142136,14.25 12.75,14.5857864 12.75,15 L12.75,19.5 Z M15.75,19.5 C15.75,19.9142136 15.4142136,20.25 15,20.25 C14.5857864,20.25 14.25,19.9142136 14.25,19.5 L14.25,15 C14.25,14.5857864 14.5857864,14.25 15,14.25 C15.4142136,14.25 15.75,14.5857864 15.75,15 L15.75,19.5 Z M18.75,19.5 C18.75,19.9142136 18.4142136,20.25 18,20.25 C17.5857864,20.25 17.25,19.9142136 17.25,19.5 L17.25,15 C17.25,14.5857864 17.5857864,14.25 18,14.25 C18.4142136,14.25 18.75,14.5857864 18.75,15 L18.75,19.5 Z M21,6.75 L15,6.75 L15,8.25 C15,9.07842712 14.3284271,9.75 13.5,9.75 L10.5,9.75 C9.67157288,9.75 9,9.07842712 9,8.25 L9,6.75 L3,6.75 C2.17157288,6.75 1.5,7.42157288 1.5,8.25 L1.5,9 C1.5,9.82842712 2.17157288,10.5 3,10.5 L21,10.5 C21.8284271,10.5 22.5,9.82842712 22.5,9 L22.5,8.25 C22.5,7.42157288 21.8284271,6.75 21,6.75 Z M9.75,1.5 L14.25,1.5 L14.25,9 L9.75,9 L9.75,1.5 Z" id="形状" fill="#FFFFFF"></path>
                                </g>
                            </g>
                            <text id="实体/意图采集" font-family="PingFangSC-Regular, PingFang SC" font-size="14" font-weight="normal" fill="#0A0F2C" fill-opacity="0.85">
                                <tspan x="0" y="69">实体/意图采集</tspan>
                            </text>
                        </g>
                    </g>
                    <g id="编组-82" transform="translate(50.000000, 418.000000)">
                        <rect id="矩形" fill="#FFFFFF" x="0" y="0" width="580" height="155" rx="8"></rect>
                        <g id="编组-76" transform="translate(16.000000, 106.000000)">
                            <rect id="矩形" fill="#FFF8E6" x="0" y="0" width="548" height="33" rx="16.5"></rect>
                            <text id="具备行业领先的自学习能力，能及时快速对新" font-family="PingFangSC-Regular, PingFang SC" font-size="12" font-weight="normal" fill="#0A0F2C" fill-opacity="0.65">
                                <tspan x="16" y="21">具备行业领先的自学习能力，能及时快速对新增问题，漏识别等问题进行数据分析和知识学习</tspan>
                            </text>
                        </g>
                        <rect id="矩形" x="435" y="4" width="145" height="102" rx="8"></rect>
                        <rect id="矩形" x="290" y="4" width="145" height="102" rx="8"></rect>
                        <g id="编组-71" transform="translate(145.000000, 4.000000)">
                            <rect id="矩形" x="0" y="0" width="145" height="102" rx="8"></rect>
                            <g id="编组-35" transform="translate(37.000000, 16.000000)">
                                <g id="编组-73" transform="translate(13.000000, 0.000000)">
                                    <rect id="矩形" fill="#FFCD00" x="0" y="0" width="46" height="46" rx="6"></rect>
                                    <g id="学习活动-01" transform="translate(12.000000, 12.000000)" fill-rule="nonzero">
                                        <rect id="矩形" fill="#000000" opacity="0" x="0" y="0" width="23" height="23"></rect>
                                        <path d="M17.25,1.15 C15.2903003,1.15313063 13.3455805,1.49151189 11.5,2.1505 C9.65441953,1.49151189 7.70969967,1.15313063 5.75,1.15 C3.79030033,1.15313063 1.84558047,1.49151189 1.77635684e-15,2.1505 L1.77635684e-15,21.85 C1.84558047,21.1910119 3.79030033,20.8526306 5.75,20.8495 C7.70969967,20.8526306 9.65441953,21.1910119 11.5,21.85 C15.2167267,20.5128504 19.2832733,20.5128504 23,21.85 L23,2.1505 C21.1544195,1.49151189 19.2096997,1.15313063 17.25,1.15 L17.25,1.15 Z M20.7,18.86 C19.5617347,18.6525391 18.4070164,18.5486145 17.25,18.5495 C15.3002915,18.5500736 13.3618213,18.844721 11.5,19.4235 L11.5,4.6 L12.2705,4.324 C13.8686801,3.75209238 15.5525857,3.4565339 17.25,3.45 C18.4123444,3.45076575 19.5704747,3.58974138 20.7,3.864 L20.7,18.86 Z" id="形状" fill="#FFFFFF"></path>
                                    </g>
                                </g>
                                <text id="漏识别学习" font-family="PingFangSC-Regular, PingFang SC" font-size="14" font-weight="normal" fill="#0A0F2C" fill-opacity="0.85">
                                    <tspan x="0" y="69">漏识别学习</tspan>
                                </text>
                            </g>
                        </g>
                        <g id="编组-70" transform="translate(0.000000, 4.000000)">
                            <rect id="矩形" x="0" y="0" width="145" height="102" rx="8"></rect>
                            <g id="编组-35" transform="translate(45.000000, 16.000000)">
                                <g id="编组-72" transform="translate(5.000000, 0.000000)">
                                    <rect id="矩形" fill="#FFCD00" x="0" y="0" width="46" height="46" rx="6"></rect>
                                    <g id="学习" transform="translate(12.000000, 12.000000)" fill="#FFFFFF" fill-rule="nonzero">
                                        <rect id="矩形" opacity="0" x="0" y="0" width="22" height="22"></rect>
                                        <path d="M20.2215664,0.0401757813 L11.2892656,2.31438281 C11.0733184,2.36777021 10.8476191,2.36777021 10.6316719,2.31438281 L1.69937109,0.0401972656 C1.28353592,-0.0627955351 0.843463118,0.0346596287 0.509990843,0.303588339 C0.176518567,0.572517049 -0.011956369,0.981954196 0.0006015625,1.41016992 L0.0006015625,18.1924961 C-0.0181881358,18.8373426 0.415446802,19.4079258 1.04177734,19.5624902 L10.6316719,21.9599531 C10.8476191,22.0133405 11.0733184,22.0133405 11.2892656,21.9599531 L20.8791602,19.5624902 C21.5054993,19.4079343 21.9391448,18.837349 21.9203574,18.1924961 L21.9203574,1.41019141 C21.9329222,0.981971958 21.7444502,0.5725285 21.4109769,0.303594772 C21.0775037,0.0346610445 20.6374268,-0.0627966765 20.2215879,0.0401972656 L20.2215664,0.0401757813 Z M11.6454551,14.2469336 C11.6454551,14.6252411 11.3387763,14.9319199 10.9604687,14.9319199 C10.5821612,14.9319199 10.2754824,14.6252411 10.2754824,14.2469336 L10.2754824,10.1369727 C10.2754824,9.75866515 10.5821612,9.45198633 10.9604687,9.45198633 C11.3387763,9.45198633 11.6454551,9.75866515 11.6454551,10.1369727 L11.6454551,14.2469336 Z" id="形状"></path>
                                    </g>
                                </g>
                                <text id="智能学习" font-family="PingFangSC-Regular, PingFang SC" font-size="14" font-weight="normal" fill="#0A0F2C" fill-opacity="0.85">
                                    <tspan x="0" y="69">智能学习</tspan>
                                </text>
                            </g>
                        </g>
                        <g id="编组-35" transform="translate(327.000000, 20.000000)">
                            <g id="编组-74" transform="translate(13.000000, 0.000000)">
                                <rect id="矩形" fill="#FFCD00" x="0" y="0" width="46" height="46" rx="6"></rect>
                                <g id="学习园地fill" transform="translate(11.000000, 11.000000)" fill-rule="nonzero">
                                    <rect id="矩形" fill="#000000" opacity="0" x="0" y="0" width="25" height="25"></rect>
                                    <path d="M22.487793,3.27148438 C21.7138672,2.68066406 20.46875,2.39257813 18.7915039,2.41943359 C17.4169922,2.44140625 16.1254883,2.66845703 15.4394531,2.85644531 C14.4873047,3.11767578 13.6450195,3.52783203 12.9980469,4.04296875 C12.8198242,4.18701172 12.65625,4.3359375 12.5097656,4.4921875 C12.3632812,4.3359375 12.2021484,4.18457031 12.0214844,4.04296875 C11.3769531,3.52783203 10.5322266,3.11767578 9.58007812,2.85644531 C8.89404297,2.66845703 7.60253906,2.44140625 6.22802734,2.41943359 C4.55566406,2.39257813 3.31054688,2.68066406 2.53417969,3.27148438 C1.93603516,3.72802734 1.62109375,4.36279297 1.62109375,5.10986328 L1.62109375,21.2841797 C1.62109375,21.5600586 1.77734375,21.8139648 2.02392578,21.9384766 C2.27050781,22.0629883 2.56591797,22.0385742 2.78808594,21.875 C3.40576172,21.4208984 4.42138672,21.1279297 5.64453125,21.0498047 C6.78222656,20.9765625 8.02001953,21.1035156 8.95507812,21.3891602 C10.3149414,21.8041992 12.199707,22.5341797 12.2192383,22.5415039 C12.3046875,22.5756836 12.3950195,22.590332 12.4829102,22.590332 L12.5366211,22.590332 C12.6269531,22.590332 12.7148437,22.5732422 12.800293,22.5415039 C12.8198242,22.5341797 14.7021484,21.8066406 16.0644531,21.3891602 C17.0019531,21.1035156 18.2397461,20.9765625 19.375,21.0498047 C20.6005859,21.1279297 21.6137695,21.4233398 22.2314453,21.875 C22.4536133,22.0385742 22.7490234,22.0629883 22.9956055,21.9384766 C23.2421875,21.8139648 23.398493,21.5600586 23.398493,21.2841797 L23.398493,5.10986328 C23.4033203,4.36279297 23.0859375,3.72802734 22.487793,3.27148438 Z M9.60449219,15.5126953 C9.46533203,15.6347656 9.29199219,15.6958008 9.12109375,15.6958008 C8.91845703,15.6958008 8.71582031,15.6103516 8.56933594,15.4467773 C8.28369141,15.1220703 7.86865234,14.9072266 7.39990234,14.8388672 C6.93603516,14.7705078 6.48193359,14.8583984 6.12548828,15.0854492 C5.78369141,15.3027344 5.33203125,15.2001953 5.11474609,14.8583984 C4.89746094,14.5166016 5,14.0649414 5.34179687,13.8476563 C5.99365234,13.4350586 6.79931641,13.2714844 7.60986328,13.3886719 C8.42285156,13.5058594 9.15527344,13.894043 9.67041016,14.4799805 C9.93896484,14.7851563 9.90966797,15.246582 9.60449219,15.5126953 L9.60449219,15.5126953 Z M9.60449219,10.4858398 C9.46533203,10.6079102 9.29199219,10.6689453 9.12109375,10.6689453 C8.91845703,10.6689453 8.71582031,10.5834961 8.56933594,10.4199219 C8.28369141,10.0952148 7.86865234,9.88037109 7.39990234,9.81201172 C6.93603516,9.74365234 6.48193359,9.83154297 6.12548828,10.0585938 C5.78369141,10.2758789 5.33203125,10.1733398 5.11474609,9.83154297 C4.89746094,9.48974609 5,9.03808594 5.34179687,8.82080078 C5.99365234,8.40820313 6.79931641,8.24462891 7.60986328,8.36181641 C8.42285156,8.47900391 9.15527344,8.8671875 9.67041016,9.453125 C9.93896484,9.75585938 9.90966797,10.2197266 9.60449219,10.4858398 L9.60449219,10.4858398 Z M19.9145508,14.8583984 C19.6972656,15.2001953 19.2456055,15.300293 18.9038086,15.0854492 C18.5473633,14.8583984 18.0957031,14.7705078 17.6293945,14.8388672 C17.1606445,14.9072266 16.7456055,15.1220703 16.4599609,15.4467773 C16.315918,15.612793 16.1132812,15.6958008 15.9082031,15.6958008 C15.7373047,15.6958008 15.5639648,15.6347656 15.4248047,15.5126953 C15.1196289,15.246582 15.090332,14.7827148 15.3588867,14.4799805 C15.8740234,13.894043 16.6040039,13.5058594 17.4194336,13.3886719 C18.2299805,13.2714844 19.0356445,13.4350586 19.6875,13.8476562 C20.0292969,14.0649414 20.1293945,14.5166016 19.9145508,14.8583984 L19.9145508,14.8583984 Z M19.9145508,9.83154297 C19.6972656,10.1733398 19.2456055,10.2734375 18.9038086,10.0585938 C18.5473633,9.83154297 18.0957031,9.74365234 17.6293945,9.81201172 C17.1606445,9.88037109 16.7456055,10.0952148 16.4599609,10.4199219 C16.315918,10.5859375 16.1132812,10.6689453 15.9082031,10.6689453 C15.7373047,10.6689453 15.5639648,10.6079102 15.4248047,10.4858398 C15.1196289,10.2197266 15.090332,9.75585938 15.3588867,9.453125 C15.8740234,8.8671875 16.6040039,8.47900391 17.4194336,8.36181641 C18.2299805,8.24462891 19.0356445,8.40820312 19.6875,8.82080078 C20.0292969,9.03808594 20.1293945,9.48974609 19.9145508,9.83154297 L19.9145508,9.83154297 Z" id="形状" fill="#FFFFFF"></path>
                                </g>
                            </g>
                            <text id="未识别学习" font-family="PingFangSC-Regular, PingFang SC" font-size="14" font-weight="normal" fill="#0A0F2C" fill-opacity="0.85">
                                <tspan x="0" y="69">未识别学习</tspan>
                            </text>
                        </g>
                        <g id="编组-35" transform="translate(480.000000, 20.000000)">
                            <g id="编组-75" transform="translate(5.000000, 0.000000)">
                                <rect id="矩形" fill="#FFCD00" x="0" y="0" width="46" height="46" rx="6"></rect>
                                <g id="数据采集" transform="translate(10.000000, 10.000000)" fill-rule="nonzero">
                                    <rect id="矩形" fill="#000000" opacity="0" x="0" y="0" width="26" height="26"></rect>
                                    <path d="M12.961,10.764 C17.576,10.764 21.32,9.1 21.32,7.033 C21.32,4.966 17.576,3.302 12.961,3.302 C8.346,3.302 4.602,4.966 4.602,7.033 C4.602,9.1 8.333,10.764 12.961,10.764 L12.961,10.764 Z M19.162,16.341 C17.628,17.095 15.418,17.576 12.948,17.576 C10.478,17.576 8.268,17.095 6.734,16.341 C5.395,17.004 4.576,17.875 4.576,18.837 C4.576,20.891 8.32,22.568 12.935,22.568 C17.55,22.568 21.294,20.904 21.294,18.837 C21.32,17.875 20.501,17.004 19.162,16.341 Z M19.162,10.374 C17.628,11.128 15.418,11.609 12.948,11.609 C10.478,11.609 8.268,11.128 6.734,10.374 C5.408,11.037 4.589,11.908 4.589,12.87 C4.589,14.924 8.333,16.601 12.948,16.601 C17.563,16.601 21.32,14.937 21.32,12.87 C21.32,11.908 20.501,11.037 19.162,10.374 L19.162,10.374 Z" id="形状" fill="#FFFFFF"></path>
                                </g>
                            </g>
                            <text id="混淆分析" font-family="PingFangSC-Regular, PingFang SC" font-size="14" font-weight="normal" fill="#0A0F2C" fill-opacity="0.85">
                                <tspan x="0" y="69">混淆分析</tspan>
                            </text>
                        </g>
                    </g>
                    <g id="产品能力与亮点" fill="#FFFFFF" fill-opacity="1">
                        <use filter="url(#filter-8)" xlink:href="#text-7"></use>
                        <use xlink:href="#text-7"></use>
                    </g>
                </g>
            </g>
        </g>
    </g>
</svg>