<?xml version="1.0" encoding="UTF-8"?>
<svg width="36px" height="36px" viewBox="0 0 36 36" version="1.1" xmlns="http://www.w3.org/2000/svg" xmlns:xlink="http://www.w3.org/1999/xlink">
    <title>1-1</title>
    <g id="页面-1" stroke="none" stroke-width="1" fill="none" fill-rule="evenodd">
        <g id="画板" transform="translate(-98.000000, -122.000000)" fill-rule="nonzero">
            <g id="1-1" transform="translate(98.000000, 122.000000)">
                <rect id="矩形" fill="#000000" opacity="0" x="0" y="0" width="36" height="36"></rect>
                <path d="M19.6096582,30.4335766 L19.6096582,27.6142537 C19.6094272,27.172712 19.2515352,26.8148343 18.8099935,26.8146211 L16.5236408,26.8146211 C16.082016,26.8146211 15.7240083,27.1726288 15.7240083,27.6142537 L15.7240083,30.4335766 C15.7240083,30.6457249 15.6397041,30.849178 15.4896534,30.9991502 C15.3396026,31.1491224 15.1361054,31.2333202 14.9239572,31.2332091 L8.2029157,31.2332091 C7.76138656,31.2334401 7.40351415,31.5913125 7.40328318,32.0328416 L7.40328318,33.1733613 C7.40351415,33.6148904 7.76138656,33.9727629 8.2029157,33.9729938 L27.1303,33.9729938 C27.5719248,33.9729938 27.9299325,33.6149862 27.9299325,33.1733613 L27.9299325,32.0328416 C27.9299325,31.5912168 27.5719248,31.2332091 27.1303,31.2332091 L20.4092585,31.2332091 C20.1971513,31.2333117 19.9937021,31.1490979 19.8437197,30.9991154 C19.6937372,30.849133 19.6095234,30.6456837 19.609626,30.4335766 L19.6096582,30.4335766 Z M17.6666078,28.888346 C10.6689028,28.888346 4.99614198,23.2155852 4.99614198,16.2178801 C4.99614198,15.4780447 5.59589711,14.8782896 6.33573254,14.8782896 C7.07556797,14.8782896 7.67532309,15.4780447 7.67532311,16.2178801 C7.67532311,21.7270751 12.1573806,26.2091648 17.6666078,26.2091648 C23.175835,26.2091648 27.6578926,21.7271073 27.6578926,16.2178801 C27.6578926,15.4780447 28.2576477,14.8782896 28.9974831,14.8782896 C29.7373186,14.8782896 30.3370737,15.4780447 30.3370737,16.2178801 C30.3370737,19.5783647 29.0024468,22.8012763 26.6262254,25.1774977 C24.250004,27.5537191 21.0270924,28.8885681 17.6666078,28.888346 L17.6666078,28.888346 Z M10.3264566,17.3027218 C10.1840095,17.3024002 10.0482685,17.3632026 9.95367133,17.4697045 C9.85907419,17.5762063 9.81471161,17.718173 9.83183851,17.859587 C10.3133183,21.7604683 13.6363401,24.7813416 17.6666078,24.7813416 C21.6968755,24.7813416 25.0219905,21.7604683 25.5005399,17.859587 C25.5176668,17.718173 25.4733042,17.5762063 25.3787071,17.4697045 C25.2841099,17.3632026 25.1483689,17.3024002 25.0059219,17.3027218 L10.3264566,17.3027218 Z" id="形状" fill="#1B51FF"></path>
                <path d="M25.5598876,14.6952476 L25.5598876,8.89173659 C25.5598876,4.53249636 22.0258481,0.99845679 17.6666078,0.99845679 C13.3073676,0.99845679 9.77332803,4.53249636 9.77332803,8.89173659 L9.77332803,14.6952476 C9.77332803,14.8273711 9.82592532,14.9540593 9.9195047,15.0473306 C10.0130841,15.1406018 10.1399451,15.1927817 10.2720679,15.1923479 L25.06279,15.1923479 C25.3373295,15.1923479 25.5598876,14.969787 25.5598876,14.6952476 Z" id="路径" fill="#39E4DC"></path>
            </g>
        </g>
    </g>
</svg>