<?xml version="1.0" encoding="UTF-8"?>
<svg width="36px" height="36px" viewBox="0 0 36 36" version="1.1" xmlns="http://www.w3.org/2000/svg" xmlns:xlink="http://www.w3.org/1999/xlink">
    <title>2-1</title>
    <g id="页面-1" stroke="none" stroke-width="1" fill="none" fill-rule="evenodd">
        <g id="画板" transform="translate(-205.000000, -122.000000)" fill-rule="nonzero">
            <g id="2-1" transform="translate(205.000000, 122.000000)">
                <rect id="矩形" fill="#000000" opacity="0" x="0" y="0" width="36" height="36"></rect>
                <path d="M31.5000371,13.5 L31.5000371,31.4894883 C31.5027977,31.8873191 31.347438,32.269966 31.0681005,32.5532463 C30.788763,32.8365265 30.4083309,32.9972336 30.0105,33.0000117 L5.9895,33.0000117 C5.16743444,33.0000117 4.50079552,32.3340183 4.5,31.5119531 L4.5,4.48804687 C4.5,3.68254687 5.1705,3.00002344 5.99698828,3.00002344 L20.9999883,3.00002344 L20.9999883,12.0000234 C21,12.8284433 21.6715801,13.5 22.5,13.5 L31.5000371,13.5 Z M11.9999883,10.5000117 L11.9999883,13.5 L16.4999883,13.5 L16.4999883,10.5000117 L11.9999883,10.5000117 Z M11.9999883,16.4999883 L11.9999883,19.5000117 L24.0000117,19.5000117 L24.0000117,16.4999883 L11.9999883,16.4999883 Z M11.9999883,22.5 L11.9999883,25.4999883 L24.0000117,25.4999883 L24.0000117,22.5 L11.9999883,22.5 Z" id="形状" fill="#1B51FF"></path>
                <polygon id="路径" fill="#39E4DC" points="31.5 10.5000117 24.0000117 10.5000117 24.0000117 3.00445312 31.5 10.5000117"></polygon>
            </g>
        </g>
    </g>
</svg>