<?xml version="1.0" encoding="UTF-8"?>
<svg width="36px" height="36px" viewBox="0 0 36 36" version="1.1" xmlns="http://www.w3.org/2000/svg" xmlns:xlink="http://www.w3.org/1999/xlink">
    <title>3-2</title>
    <g id="页面-1" stroke="none" stroke-width="1" fill="none" fill-rule="evenodd">
        <g id="画板" transform="translate(-333.000000, -180.000000)" fill-rule="nonzero">
            <g id="3-2" transform="translate(333.000000, 180.000000)">
                <rect id="矩形" fill="#A8AEB9" opacity="0" x="0" y="0" width="36" height="36"></rect>
                <path d="M22.3627281,15.4996684 L13.6368556,15.4996684 C7.23668908,15.4996684 2,20.7363575 2,27.1369403 L2,27.8604193 C2,31.2372096 4.76237431,34.0000001 8.1391646,34.0000001 L27.8604191,34.0000001 C31.2367932,34.0000001 34,31.2372096 34,27.8604193 L34,27.1369403 C34,20.7363575 28.7628946,15.4996684 22.3627281,15.4996684 Z M20.4249867,27.0403654 L15.5741808,27.0403654 C14.314961,27.0403654 13.2834415,26.0096784 13.2834415,24.7500424 C13.2834415,23.4904064 14.3145448,22.4597194 15.5741808,22.4597194 L20.4245704,22.4597194 C21.6846227,22.4597194 22.7153097,23.4904064 22.7153097,24.7500424 C22.7153097,26.0096784 21.6846227,27.0403654 20.4249867,27.0403654 L20.4249867,27.0403654 Z" id="形状" fill="#A8AEB9"></path>
                <path d="M12.0017431,8.13042303 C12.0017431,10.3206122 13.1701951,12.3444305 15.0669546,13.4395251 C16.963714,14.5346197 19.3006181,14.5346197 21.1973775,13.4395251 C23.094137,12.3444305 24.2625889,10.3206122 24.2625889,8.13042303 C24.2625889,5.94023385 23.094137,3.91641556 21.1973775,2.82132095 C19.3006181,1.72622635 16.963714,1.72622635 15.0669546,2.82132095 C13.1701951,3.91641556 12.0017431,5.94023385 12.0017431,8.13042303 Z" id="路径" fill="#C8CDD5"></path>
            </g>
        </g>
    </g>
</svg>