<?xml version="1.0" encoding="UTF-8"?>
<svg width="60px" height="60px" viewBox="0 0 60 60" version="1.1" xmlns="http://www.w3.org/2000/svg" xmlns:xlink="http://www.w3.org/1999/xlink">
    <title>标准化</title>
    <g id="首页" stroke="none" stroke-width="1" fill="none" fill-rule="evenodd">
        <g id="画板" transform="translate(-723.000000, -1094.000000)">
            <g id="编组-6备份-5" transform="translate(721.000000, 1094.000000)">
                <g id="编组-18" transform="translate(2.000000, 0.000000)">
                    <rect id="矩形" x="0" y="0" width="60" height="60"></rect>
                    <g id="编组-2" transform="translate(0.750000, 0.000000)">
                        <circle id="椭圆形" fill="#73E1DB" cx="48.75" cy="10.5" r="10.5"></circle>
                        <path d="M57.8409903,1.40900974 C58.6397899,2.20780943 58.7124081,3.45780048 58.0588447,4.33863496 L57.8409903,4.59099026 L51.7998101,10.6322765 C55.9713083,16.4983851 54.4379408,24.4939166 50.3409903,28.5911403 L45.8409903,33.0911403 C44.9623106,33.9698199 43.5376894,33.9698199 42.6590097,33.0911403 L26.1590097,16.5911403 C25.2803301,15.7124606 25.2803301,14.2878394 26.1590097,13.4091597 L30.6589673,8.90920217 C34.7557917,4.81215924 42.7516597,3.27874739 48.6178705,7.45032986 L54.6590097,1.40900974 C55.5376894,0.530330086 56.9623106,0.530330086 57.8409903,1.40900974 Z" id="形状结合" fill="#2B58F9" fill-rule="nonzero"></path>
                        <path d="M24.8409903,23.9090097 C25.6397899,24.7078094 25.7124081,25.9578005 25.0588447,26.838635 L24.8409903,27.0909903 L20.431,31.499 L27.75,38.818 L32.1590097,34.4090097 C33.0376894,33.5303301 34.4623106,33.5303301 35.3409903,34.4090097 C36.1397899,35.2078094 36.2124081,36.4578005 35.5588447,37.338635 L35.3409903,37.5909903 L30.931,41.999 L32.3409903,43.4088597 C33.177828,44.2456975 33.2176774,45.5777204 32.4605385,46.4617186 L32.3409903,46.5908403 L27.8410433,51.0907872 C23.7442197,55.187884 15.7483376,56.7213168 9.88213588,52.5496943 L3.84099026,58.5909903 C2.9623106,59.4696699 1.5376894,59.4696699 0.659009742,58.5909903 C-0.139789945,57.7921906 -0.212408099,56.5421995 0.441155282,55.661365 L0.659009742,55.4090097 L6.70019729,49.367731 C2.52869166,43.5016149 4.06205921,35.5060834 8.15900974,31.4088597 L12.6590097,26.9088597 C13.5376894,26.0301801 14.9623106,26.0301801 15.8409903,26.9088597 L17.25,28.318 L21.6590097,23.9090097 C22.5376894,23.0303301 23.9623106,23.0303301 24.8409903,23.9090097 Z" id="形状结合" fill="#2B58F9" fill-rule="nonzero"></path>
                        <path d="M27.75,38.818 L30.931,41.999 L29.3409903,43.5909903 C28.4623106,44.4696699 27.0376894,44.4696699 26.1590097,43.5909903 C25.3602101,42.7921906 25.2875919,41.5421995 25.9411553,40.661365 L26.1590097,40.4090097 L27.75,38.818 Z M17.25,28.319 L20.431,31.499 L18.8409903,33.0909903 C17.9623106,33.9696699 16.5376894,33.9696699 15.6590097,33.0909903 C14.8602101,32.2921906 14.7875919,31.0421995 15.4411553,30.161365 L15.6590097,29.9090097 L17.25,28.319 Z M54.4129472,1.65646228 C55.6883636,2.47486868 56.7751313,3.56163643 57.5935377,4.83705278 L51.7998101,10.6322765 C53.7096067,13.3179 54.4236666,16.4498494 54.243424,19.4497103 C52.6449963,20.4331416 50.7636966,21 48.75,21 C42.9510101,21 38.25,16.2989899 38.25,10.5 C38.25,8.48630341 38.8168584,6.60500368 39.7997085,5.00696737 C42.8001549,4.82642316 45.9322002,5.54049476 48.6178705,7.45032986 Z" id="形状结合" fill="#071EF3" fill-rule="nonzero"></path>
                    </g>
                </g>
            </g>
        </g>
    </g>
</svg>