<?xml version="1.0" encoding="UTF-8"?>
<svg width="60px" height="60px" viewBox="0 0 60 60" version="1.1" xmlns="http://www.w3.org/2000/svg" xmlns:xlink="http://www.w3.org/1999/xlink">
    <title>编组 6备份 6</title>
    <g id="首页" stroke="none" stroke-width="1" fill="none" fill-rule="evenodd">
        <g id="画板" transform="translate(-725.000000, -1213.000000)">
            <g id="编组-6备份-6" transform="translate(725.000000, 1213.000000)">
                <rect id="矩形" x="0" y="0" width="60" height="60"></rect>
                <g id="编组" fill-rule="nonzero">
                    <path d="M53.6890244,0 L18.0182927,0 C14.5328384,0 11.7073171,2.82552128 11.7073171,6.31097561 L11.7073171,41.9817073 C11.7073171,45.4671616 14.5328384,48.2926829 18.0182927,48.2926829 L53.6890244,48.2926829 C57.1744787,48.2926829 60,45.4671616 60,41.9817073 L60,6.31097561 C60,2.82552128 57.1744787,0 53.6890244,0 Z" id="路径备份" fill="#73E1DB"></path>
                    <path d="M41.9817073,11.7073171 L6.31097561,11.7073171 C2.82552128,11.7073171 0,14.5328384 0,18.0182927 L0,53.6890244 C0,57.1744787 2.82552128,60 6.31097561,60 L41.9817073,60 C45.4671616,60 48.2926829,57.1744787 48.2926829,53.6890244 L48.2926829,18.0182927 C48.2926829,14.5328384 45.4671616,11.7073171 41.9817073,11.7073171 Z" id="路径" fill="#2B58F9"></path>
                    <path d="M41.9817073,11.7073171 C45.4671616,11.7073171 48.2926829,14.5328384 48.2926829,18.0182927 L48.2923171,48.2923171 L18.0182927,48.2926829 C14.6102929,48.2926829 11.8332217,45.5913451 11.7114793,42.2130695 L11.7073171,41.9817073 L11.7073171,11.7073171 Z" id="形状结合" fill="#071EF3"></path>
                </g>
            </g>
        </g>
    </g>
</svg>