<?xml version="1.0" encoding="UTF-8"?>
<svg width="590px" height="294px" viewBox="0 0 590 294" version="1.1" xmlns="http://www.w3.org/2000/svg" xmlns:xlink="http://www.w3.org/1999/xlink">
    <title>hover</title>
    <defs>
        <linearGradient x1="100%" y1="50%" x2="0%" y2="50%" id="linearGradient-1">
            <stop stop-color="#0093FF" offset="0%"></stop>
            <stop stop-color="#2B58F9" offset="100%"></stop>
        </linearGradient>
        <linearGradient x1="0%" y1="68.4513931%" x2="100%" y2="31.5486069%" id="linearGradient-2">
            <stop stop-color="#0091FF" stop-opacity="0.331254439" offset="0%"></stop>
            <stop stop-color="#83C9FF" offset="100%"></stop>
        </linearGradient>
    </defs>
    <g id="首页" stroke="none" stroke-width="1" fill="none" fill-rule="evenodd">
        <g id="画板" transform="translate(-1395.000000, -1027.000000)">
            <g id="编组-2备份-2" transform="translate(1395.000000, 1027.000000)">
                <rect id="矩形备份-5" fill="url(#linearGradient-1)" x="0" y="0" width="590" height="294" rx="8"></rect>
                <path d="M517.429907,110.231317 C516.73994,153.893508 480.947952,189.046729 436.962617,189.046729 C431.61538,189.046729 426.354389,188.445085 421.352135,187.499643 C419.454728,187.069897 417.557322,186.468253 415.659915,185.78066 C414.883703,185.522812 405.310425,181.569149 421.697118,165.754497 C438.074881,152.841352 455.905449,141.751374 474.10693,131.840656 C488.494281,124.006734 503.113382,116.909626 517.429907,110.231317 Z M374.606936,18.953271 C386.250113,18.953271 395.6509,28.3217333 395.6509,39.8389255 C407.725306,32.6191931 421.86961,28.4936317 436.962617,28.4936317 C473.254573,28.4936317 503.917131,52.4441925 514.029542,85.1469008 C534.509606,70.7505196 545.463614,57.9238522 541.558399,50.7082667 C538.640709,45.3753462 528.085538,43.9130938 512.553132,45.8054204 C512.209875,45.8054204 511.952432,45.7194055 511.694988,45.461361 C510.064515,43.5690344 508.348227,41.6767077 506.546125,39.870396 C506.031238,39.268292 506.288681,38.3221287 507.061011,38.150099 C542.588172,29.720644 568.332491,29.720644 573.910427,39.9564108 C583.435825,57.5894544 529.458569,99.1346254 452.997941,132.594401 C376.537312,166.054176 305.65462,179.214448 296.043407,161.581404 C290.379657,151.173608 308.229052,132.078312 338.521534,111.606778 C339.122235,111.176704 340.066193,111.692793 340.066193,112.466927 L340.066193,120.982396 C340.066193,121.326456 339.894565,121.5845 339.722936,121.75653 C328.738693,131.390193 323.675643,139.733633 326.507519,144.980539 C330.094534,151.529292 345.241252,152.242096 366.872126,148.094034 C360.558849,136.96906 356.84321,124.148634 356.495327,110.489164 L356.495327,26.6027494 C356.495327,22.3912388 359.945157,18.953271 364.171199,18.953271 Z" id="形状结合" fill-opacity="0.37" fill="url(#linearGradient-2)" fill-rule="nonzero"></path>
            </g>
        </g>
    </g>
</svg>