<?xml version="1.0" encoding="UTF-8"?>
<svg width="25px" height="25px" viewBox="0 0 25 25" version="1.1" xmlns="http://www.w3.org/2000/svg" xmlns:xlink="http://www.w3.org/1999/xlink">
    <title>汽车-浅</title>
    <g id="2023Q2-品牌官网2.0" stroke="none" stroke-width="1" fill="none" fill-rule="evenodd">
        <g id="画板" transform="translate(-46.000000, -203.000000)">
            <g id="编组-19" transform="translate(22.248608, 53.000000)">
                <g id="汽车-浅" transform="translate(24.000000, 150.400000)">
                    <rect id="矩形备份-7" x="0" y="0" width="24" height="24.0695652"></rect>
                    <path d="M7.72885722,5.02294616 L6.79970606,10.7669469 L6.79970606,10.7669469 L17.1997061,10.7669469 L16.2705549,5.02294616 C16.1138575,4.05424498 15.2775118,3.34231533 14.2962187,3.34231533 L9.70319339,3.34231533 C8.72190035,3.34231533 7.88555459,4.05424498 7.72885722,5.02294616 Z" id="路径-25" fill="#73E1DB"></path>
                    <path d="M21.1914164,16.3386568 L20.7106699,11.9924232 C20.624382,11.1235844 19.8786085,10.4281054 18.9602592,10.4281054 L18.7404306,10.4281054 L18.1713417,6.69169056 C18.0398555,5.82285173 17.2961364,5.21507246 16.4209311,5.21507246 L7.57848104,5.21507246 C6.70327571,5.21507246 5.95955663,5.82489126 5.82807039,6.69169056 L5.25898148,10.4281054 L5.03915291,10.4281054 C4.11874919,10.4281054 3.42022851,11.0807543 3.28874226,11.9924232 L2.80799567,16.3386568 C2.76485175,16.8587364 2.89428352,17.2951953 3.24559834,17.6867847 C3.59485868,18.0335044 4.03246134,18.2517339 4.5604608,18.2517339 L4.99600899,18.2517339 L4.99600899,19.991451 C4.99600899,20.4687005 5.39046772,20.8602899 5.87121431,20.8602899 L7.62162496,20.8602899 C8.10237155,20.8602899 8.49683029,20.4687005 8.49683029,19.991451 L8.49683029,18.2537734 L15.5005274,18.2537734 L15.5005274,19.991451 C15.5005274,20.4687005 15.8949861,20.8602899 16.3757327,20.8602899 L18.1261433,20.8602899 C18.6068899,20.8602899 19.0013487,20.4687005 19.0013487,19.991451 L19.0013487,18.2537734 L19.4389513,18.2537734 C19.9628418,18.2537734 20.402499,18.0355439 20.7538138,17.6888242 C21.1051286,17.2951953 21.2366148,16.8179458 21.1914164,16.3386568 Z M7.53533711,7.34433944 C7.57848104,7.12610997 7.75516568,6.95275011 7.97293978,6.95275011 L16.0264723,6.95275011 C16.2463009,6.95275011 16.4209311,7.12610997 16.464075,7.34433944 L16.8133353,9.95085591 C16.8133353,10.0813857 16.8133353,10.2119155 16.7270475,10.2975756 C16.5955613,10.3832358 16.5072189,10.4281054 16.3777872,10.4281054 L7.62162496,10.4281054 C7.49013872,10.4281054 7.35865247,10.3852753 7.27236462,10.2975756 C7.18607677,10.2119155 7.14087837,10.0793462 7.18607677,9.95085591 L7.53533711,7.34433944 Z M7.62162496,15.6431779 C6.87790588,15.6431779 6.3067625,15.0782287 6.3067625,14.3378801 C6.3067625,13.5995711 6.87585141,13.0325823 7.62162496,13.0325823 C8.36739851,13.0325823 8.93648742,13.5975315 8.93648742,14.3378801 C8.93648742,15.0802682 8.36739851,15.6431779 7.62162496,15.6431779 Z M15.0629247,14.3419592 C15.0629247,13.6036501 15.6320136,13.0366614 16.3777872,13.0366614 C17.1215062,13.0366614 17.6926496,13.6016106 17.6926496,14.3419592 C17.6926496,15.0802682 17.1235607,15.6472569 16.3777872,15.6472569 C15.6320136,15.6431779 15.0629247,15.0802682 15.0629247,14.3419592 Z" id="形状" fill="#FFFFFF" fill-rule="nonzero"></path>
                    <path d="M16.3007061,5.2149275 L17.1997061,10.7669469 L6.79970606,10.7669469 L7.69770606,5.2149275 L16.3007061,5.2149275 Z M16.0264723,6.95275011 L7.97293978,6.95275011 C7.75516568,6.95275011 7.57848104,7.12610997 7.53533711,7.34433944 L7.18607677,9.95085591 C7.14087837,10.0793462 7.18607677,10.2119155 7.27236462,10.2975756 C7.35865247,10.3852753 7.49013872,10.4281054 7.62162496,10.4281054 L16.3777872,10.4281054 C16.5072189,10.4281054 16.5955613,10.3832358 16.7270475,10.2975756 C16.8133353,10.2119155 16.8133353,10.0813857 16.8133353,9.95085591 L16.464075,7.34433944 C16.4209311,7.12610997 16.2463009,6.95275011 16.0264723,6.95275011 Z" id="形状结合" fill="#071EF3"></path>
                    <polygon id="路径-26" fill="#FFFFFF" points="7.41823566 6.95275011 16.5842343 6.95275011 17.1997061 10.7669469 6.79970606 10.7669469"></polygon>
                </g>
            </g>
        </g>
    </g>
</svg>