<?xml version="1.0" encoding="UTF-8"?>
<svg width="36px" height="36px" viewBox="0 0 36 36" version="1.1" xmlns="http://www.w3.org/2000/svg" xmlns:xlink="http://www.w3.org/1999/xlink">
    <title>编组 12备份</title>
    <g id="页面-1" stroke="none" stroke-width="1" fill="none" fill-rule="evenodd">
        <g id="图标" transform="translate(-173.000000, -176.000000)">
            <g id="编组-12备份" transform="translate(173.323720, 176.000000)">
                <g id="编组-2" transform="translate(4.799988, 3.112726)" fill-rule="nonzero">
                    <polygon id="路径" fill="#A8AEB9" points="16.2240117 17.064 20.6155042 30.6531373 5.50229604 30.6531373 10.296 17.1215859"></polygon>
                    <path d="M26.4000234,12.528 C26.4000234,17.064 23.8260234,21.0899883 19.9344375,23.3004023 L19.2168281,21.2603906 C22.2696211,19.3883906 24.2448047,16.1579883 24.2448047,12.5291953 C24.2448047,6.74641406 19.2768047,2.09763281 13.2288047,2.09763281 C7.12441406,2.09763281 2.21519531,6.80280469 2.21519531,12.5291953 C2.21519531,16.2132187 4.25039063,19.4460117 7.36319531,21.3168164 L6.58560937,23.356793 C2.63401172,21.1475742 0,17.1228164 0,12.5304258 C0,5.61234375 5.92681641,0 13.23,0 C20.4720117,0 26.4000234,5.61241406 26.4000234,12.528 Z" id="路径" fill="#A8AEB9"></path>
                    <path d="M13.2288047,4.08241406 C18.1368281,4.08241406 22.1484023,7.88041406 22.1484023,12.5291953 C22.1484023,15.307207 20.7120234,17.802 18.4968281,19.3331953 L17.6591953,17.2343672 C19.0355977,16.0439766 19.8731953,14.4 19.8731953,12.5291953 C19.8731953,9.01321875 16.8804141,6.17997656 13.1688281,6.17997656 C9.45720703,6.17997656 6.46442578,9.01441406 6.46442578,12.528 C6.46442578,14.4563906 7.362,16.1579883 8.79841406,17.3484141 L8.02079297,19.4459766 C5.74558594,17.8583555 4.24916016,15.3635625 4.24916016,12.5291602 C4.24916016,7.88037891 8.25957422,4.08114844 13.2287695,4.08114844 L13.2288047,4.08241406 Z" id="路径" fill="#A8AEB9"></path>
                    <path d="M11.4935977,9.68160938 C12.5766154,9.09394167 13.8833846,9.09394167 14.9664023,9.68160938 C16.0404258,10.2695977 16.7016094,11.3544141 16.7016094,12.5291953 C16.7016094,13.7040117 16.0404258,14.7899883 14.9664023,15.3768164 C13.8912188,15.9648047 12.5676211,15.9648047 11.4935977,15.3768164 C10.4195742,14.7888281 9.75842578,13.7040117 9.75842578,12.5291953 C9.75842578,11.3544141 10.4196094,10.2684023 11.4935977,9.68160938 L11.4935977,9.68160938 Z" id="路径" fill="#C8CDD5"></path>
                </g>
                <rect id="矩形备份" x="0" y="0" width="36" height="36"></rect>
            </g>
        </g>
    </g>
</svg>