<?xml version="1.0" encoding="UTF-8"?>
<svg width="680px" height="585px" viewBox="0 0 680 585" version="1.1" xmlns="http://www.w3.org/2000/svg" xmlns:xlink="http://www.w3.org/1999/xlink">
    <title>编组 44备份</title>
    <defs>
        <linearGradient x1="13.8093013%" y1="25.1237183%" x2="100%" y2="70.3136012%" id="linearGradient-1">
            <stop stop-color="#FF9921" offset="0%"></stop>
            <stop stop-color="#F47B15" offset="100%"></stop>
        </linearGradient>
        <rect id="path-2" x="0" y="0" width="680" height="584.000299" rx="24"></rect>
        <filter x="-25.4%" y="-25.0%" width="150.8%" height="150.1%" filterUnits="objectBoundingBox" id="filter-4">
            <feGaussianBlur stdDeviation="50" in="SourceGraphic"></feGaussianBlur>
        </filter>
        <rect id="path-5" x="0" y="0" width="632" height="518.876364" rx="24"></rect>
        <linearGradient x1="60.8697464%" y1="6.18678951%" x2="60.8697464%" y2="100%" id="linearGradient-7">
            <stop stop-color="#5691FD" stop-opacity="0" offset="0%"></stop>
            <stop stop-color="#457BFB" stop-opacity="0.0733540141" offset="42.0456945%"></stop>
            <stop stop-color="#2B58F9" stop-opacity="0" offset="100%"></stop>
        </linearGradient>
        <linearGradient x1="33.9261977%" y1="4.06375596%" x2="58.70317%" y2="110.360686%" id="linearGradient-8">
            <stop stop-color="#5691FD" stop-opacity="0.105151196" offset="0%"></stop>
            <stop stop-color="#2B58F9" stop-opacity="0" offset="100%"></stop>
        </linearGradient>
        <path d="M316,399.938182 C393.596007,399.938182 456.5,337.034189 456.5,259.438182 C456.5,181.842174 393.596007,118.938182 316,118.938182 C238.403993,118.938182 175.5,181.842174 175.5,259.438182 C175.5,337.034189 238.403993,399.938182 316,399.938182 Z" id="path-9"></path>
        <mask id="mask-10" maskContentUnits="userSpaceOnUse" maskUnits="objectBoundingBox" x="0" y="0" width="281" height="281" fill="white">
            <use xlink:href="#path-9"></use>
        </mask>
        <linearGradient x1="50%" y1="0%" x2="50%" y2="100%" id="linearGradient-11">
            <stop stop-color="#5691FD" stop-opacity="0.113650875" offset="0%"></stop>
            <stop stop-color="#2B58F9" stop-opacity="0.113650875" offset="100%"></stop>
        </linearGradient>
        <circle id="path-12" cx="316" cy="259.438182" r="113.5"></circle>
        <filter x="-9.0%" y="-8.1%" width="118.1%" height="118.1%" filterUnits="objectBoundingBox" id="filter-13">
            <feOffset dx="0" dy="2" in="SourceAlpha" result="shadowOffsetOuter1"></feOffset>
            <feGaussianBlur stdDeviation="6.5" in="shadowOffsetOuter1" result="shadowBlurOuter1"></feGaussianBlur>
            <feComposite in="shadowBlurOuter1" in2="SourceAlpha" operator="out" result="shadowBlurOuter1"></feComposite>
            <feColorMatrix values="0 0 0 0 0.204737413   0 0 0 0 0.418516171   0 0 0 0 0.719076405  0 0 0 0.1 0" type="matrix" in="shadowBlurOuter1"></feColorMatrix>
        </filter>
        <circle id="path-14" cx="316" cy="259.438182" r="90.5"></circle>
        <filter x="-13.8%" y="-12.7%" width="127.6%" height="127.6%" filterUnits="objectBoundingBox" id="filter-15">
            <feOffset dx="0" dy="2" in="SourceAlpha" result="shadowOffsetOuter1"></feOffset>
            <feGaussianBlur stdDeviation="8" in="shadowOffsetOuter1" result="shadowBlurOuter1"></feGaussianBlur>
            <feColorMatrix values="0 0 0 0 0.204737413   0 0 0 0 0.418516171   0 0 0 0 0.719076405  0 0 0 0.188732654 0" type="matrix" in="shadowBlurOuter1"></feColorMatrix>
        </filter>
        <filter x="-44.7%" y="-43.2%" width="189.4%" height="186.5%" filterUnits="objectBoundingBox" id="filter-16">
            <feOffset dx="0" dy="2" in="SourceAlpha" result="shadowOffsetOuter1"></feOffset>
            <feGaussianBlur stdDeviation="8" in="shadowOffsetOuter1" result="shadowBlurOuter1"></feGaussianBlur>
            <feColorMatrix values="0 0 0 0 0.204737413   0 0 0 0 0.418516171   0 0 0 0 0.719076405  0 0 0 0.1 0" type="matrix" in="shadowBlurOuter1" result="shadowMatrixOuter1"></feColorMatrix>
            <feMerge>
                <feMergeNode in="shadowMatrixOuter1"></feMergeNode>
                <feMergeNode in="SourceGraphic"></feMergeNode>
            </feMerge>
        </filter>
        <circle id="path-17" cx="319.59033" cy="65.0682971" r="39"></circle>
        <filter x="-32.1%" y="-29.5%" width="164.1%" height="164.1%" filterUnits="objectBoundingBox" id="filter-18">
            <feOffset dx="0" dy="2" in="SourceAlpha" result="shadowOffsetOuter1"></feOffset>
            <feGaussianBlur stdDeviation="8" in="shadowOffsetOuter1" result="shadowBlurOuter1"></feGaussianBlur>
            <feColorMatrix values="0 0 0 0 0.204737413   0 0 0 0 0.418516171   0 0 0 0 0.719076405  0 0 0 0.185676948 0" type="matrix" in="shadowBlurOuter1"></feColorMatrix>
        </filter>
        <circle id="path-19" cx="319.59033" cy="459.677951" r="39"></circle>
        <filter x="-32.1%" y="-29.5%" width="164.1%" height="164.1%" filterUnits="objectBoundingBox" id="filter-20">
            <feOffset dx="0" dy="2" in="SourceAlpha" result="shadowOffsetOuter1"></feOffset>
            <feGaussianBlur stdDeviation="8" in="shadowOffsetOuter1" result="shadowBlurOuter1"></feGaussianBlur>
            <feColorMatrix values="0 0 0 0 0.204737413   0 0 0 0 0.418516171   0 0 0 0 0.719076405  0 0 0 0.185676948 0" type="matrix" in="shadowBlurOuter1"></feColorMatrix>
        </filter>
        <circle id="path-21" cx="135.449216" cy="372.938182" r="39"></circle>
        <filter x="-32.1%" y="-29.5%" width="164.1%" height="164.1%" filterUnits="objectBoundingBox" id="filter-22">
            <feOffset dx="0" dy="2" in="SourceAlpha" result="shadowOffsetOuter1"></feOffset>
            <feGaussianBlur stdDeviation="8" in="shadowOffsetOuter1" result="shadowBlurOuter1"></feGaussianBlur>
            <feColorMatrix values="0 0 0 0 0.204737413   0 0 0 0 0.418516171   0 0 0 0 0.719076405  0 0 0 0.185676948 0" type="matrix" in="shadowBlurOuter1"></feColorMatrix>
        </filter>
        <circle id="path-23" cx="135.449216" cy="172.808066" r="39"></circle>
        <filter x="-32.1%" y="-29.5%" width="164.1%" height="164.1%" filterUnits="objectBoundingBox" id="filter-24">
            <feOffset dx="0" dy="2" in="SourceAlpha" result="shadowOffsetOuter1"></feOffset>
            <feGaussianBlur stdDeviation="8" in="shadowOffsetOuter1" result="shadowBlurOuter1"></feGaussianBlur>
            <feColorMatrix values="0 0 0 0 0.204737413   0 0 0 0 0.418516171   0 0 0 0 0.719076405  0 0 0 0.185676948 0" type="matrix" in="shadowBlurOuter1"></feColorMatrix>
        </filter>
        <circle id="path-25" cx="496.550784" cy="372.938182" r="39"></circle>
        <filter x="-32.1%" y="-29.5%" width="164.1%" height="164.1%" filterUnits="objectBoundingBox" id="filter-26">
            <feOffset dx="0" dy="2" in="SourceAlpha" result="shadowOffsetOuter1"></feOffset>
            <feGaussianBlur stdDeviation="8" in="shadowOffsetOuter1" result="shadowBlurOuter1"></feGaussianBlur>
            <feColorMatrix values="0 0 0 0 0.204737413   0 0 0 0 0.418516171   0 0 0 0 0.719076405  0 0 0 0.185676948 0" type="matrix" in="shadowBlurOuter1"></feColorMatrix>
        </filter>
        <circle id="path-27" cx="496.550784" cy="168.938182" r="39"></circle>
        <filter x="-32.1%" y="-29.5%" width="164.1%" height="164.1%" filterUnits="objectBoundingBox" id="filter-28">
            <feOffset dx="0" dy="2" in="SourceAlpha" result="shadowOffsetOuter1"></feOffset>
            <feGaussianBlur stdDeviation="8" in="shadowOffsetOuter1" result="shadowBlurOuter1"></feGaussianBlur>
            <feColorMatrix values="0 0 0 0 0.204737413   0 0 0 0 0.418516171   0 0 0 0 0.719076405  0 0 0 0.185676948 0" type="matrix" in="shadowBlurOuter1"></feColorMatrix>
        </filter>
    </defs>
    <g id="页面-1" stroke="none" stroke-width="1" fill="none" fill-rule="evenodd">
        <g id="编组-44备份" transform="translate(0.000000, 0.946996)">
            <g id="编组-16">
                <mask id="mask-3" fill="white">
                    <use xlink:href="#path-2"></use>
                </mask>
                <use id="矩形" fill="url(#linearGradient-1)" xlink:href="#path-2"></use>
                <ellipse id="椭圆形" fill="#F9C942" opacity="0.517264957" filter="url(#filter-4)" mask="url(#mask-3)" cx="0.5" cy="339.146007" rx="295.5" ry="299.60432"></ellipse>
            </g>
            <g id="编组-111" transform="translate(24.000000, 34.061818)">
                <mask id="mask-6" fill="white">
                    <use xlink:href="#path-5"></use>
                </mask>
                <use id="矩形备份-82" fill="#FFFFFF" xlink:href="#path-5"></use>
                <circle id="椭圆形" fill="url(#linearGradient-7)" mask="url(#mask-6)" cx="316" cy="260.438182" r="243.5"></circle>
                <circle id="椭圆形备份-28" fill="url(#linearGradient-8)" mask="url(#mask-6)" cx="315.949216" cy="260.438182" r="180.5"></circle>
                <g id="椭圆形备份-26" stroke-dasharray="4" mask="url(#mask-6)" stroke="#639DFF" stroke-width="2">
                    <use mask="url(#mask-10)" xlink:href="#path-9"></use>
                </g>
                <g id="椭圆形备份-27" mask="url(#mask-6)">
                    <use fill="black" fill-opacity="1" filter="url(#filter-13)" xlink:href="#path-12"></use>
                    <use fill="url(#linearGradient-11)" fill-rule="evenodd" xlink:href="#path-12"></use>
                </g>
                <g id="椭圆形备份-25" mask="url(#mask-6)">
                    <use fill="black" fill-opacity="1" filter="url(#filter-15)" xlink:href="#path-14"></use>
                    <use fill="#FFFFFF" fill-rule="evenodd" xlink:href="#path-14"></use>
                </g>
                <g id="编组-112" filter="url(#filter-16)" mask="url(#mask-6)" fill-rule="nonzero">
                    <g transform="translate(276.793942, 219.960154)" id="路径">
                        <path d="M48.8056641,24.7915039 L73.2832031,24.7915039 C75.2695312,24.7915039 76.8867188,23.1831055 76.8867188,21.1879883 C76.8867188,19.2016602 75.2783203,17.5844727 73.2832031,17.5844727 L48.796875,17.5844727 C46.8105469,17.5932617 45.2021484,19.2016602 45.2021484,21.1879883 C45.2021484,23.1743164 46.8105469,24.7915039 48.8056641,24.7915039 Z" fill="#00C8BD"></path>
                        <path d="M60.8994141,8.82177734 C59.4931641,10.2280273 59.4931641,12.5043945 60.8994141,13.9106445 L70.7255859,23.7368164 C72.1318359,25.1430664 74.4082031,25.1430664 75.8144531,23.7368164 C77.2207031,22.3305664 77.2207031,20.0541992 75.8144531,18.6479492 L65.9882812,8.82177734 C64.5908203,7.41552734 62.3056641,7.41552734 60.8994141,8.82177734 Z" fill="#00C8BD"></path>
                        <path d="M60.8994141,34.4734167 C62.3056641,35.8796667 64.5820312,35.8796667 65.9882812,34.4734167 L75.8144531,24.6472449 C77.2207031,23.2409949 77.2207031,20.9646277 75.8144531,19.5583777 C74.4082031,18.1521277 72.1318359,18.1521277 70.7255859,19.5583777 L60.8994141,29.3845496 C59.4931641,30.7820105 59.4931641,33.0671667 60.8994141,34.4734167 Z" fill="#00C8BD"></path>
                        <path d="M77.2998047,69.3457031 C77.4580078,69.0644531 77.5810547,68.7568359 77.6601563,68.4316406 C78.0820313,66.9375 78.3105469,65.3642578 78.3105469,63.7294922 C78.3105469,54.1669922 70.5585938,46.4150391 60.9960938,46.4150391 C52.8837891,46.4150391 46.0722656,52.0048828 44.1914063,59.5371094 C33.4863281,54.7558594 25.1806641,45.5097656 21.7001953,34.1191406 C29.1357422,32.1767578 34.6289063,25.4179687 34.6289063,17.3671875 L34.6289063,17.2089844 C34.6289063,7.70800781 26.9208984,0 17.4199219,0 C15.0205078,0 12.7353516,0.4921875 10.6611328,1.37988281 C4.40332031,3.99902344 0,10.1689453 0,17.3759766 C0,17.6220703 0.0087890625,17.8681641 0.017578125,18.1142578 C0.0087890625,18.5361328 0,18.9580078 0,19.3798828 C0,53.4375 27.6152344,80.9560547 61.6728516,80.9560547 C61.9277344,80.9560547 62.1826172,80.9384766 62.4287109,80.9384766 C62.7275391,80.9296875 63.0263672,80.8769531 63.2988281,80.7890625 C69.8378906,79.9277344 75.2080078,75.4013672 77.2998047,69.3457031 Z" fill="#2B58F9"></path>
                    </g>
                </g>
                <g id="椭圆形" mask="url(#mask-6)">
                    <use fill="black" fill-opacity="1" filter="url(#filter-18)" xlink:href="#path-17"></use>
                    <use fill="#FFFFFF" fill-rule="evenodd" xlink:href="#path-17"></use>
                </g>
                <g id="椭圆形备份-29" mask="url(#mask-6)">
                    <use fill="black" fill-opacity="1" filter="url(#filter-20)" xlink:href="#path-19"></use>
                    <use fill="#FFFFFF" fill-rule="evenodd" xlink:href="#path-19"></use>
                </g>
                <g id="椭圆形备份-30" mask="url(#mask-6)">
                    <use fill="black" fill-opacity="1" filter="url(#filter-22)" xlink:href="#path-21"></use>
                    <use fill="#FFFFFF" fill-rule="evenodd" xlink:href="#path-21"></use>
                </g>
                <g id="椭圆形备份-32" mask="url(#mask-6)">
                    <use fill="black" fill-opacity="1" filter="url(#filter-24)" xlink:href="#path-23"></use>
                    <use fill="#FFFFFF" fill-rule="evenodd" xlink:href="#path-23"></use>
                </g>
                <g id="椭圆形备份-31" mask="url(#mask-6)">
                    <use fill="black" fill-opacity="1" filter="url(#filter-26)" xlink:href="#path-25"></use>
                    <use fill="#FFFFFF" fill-rule="evenodd" xlink:href="#path-25"></use>
                </g>
                <g id="椭圆形备份-33" mask="url(#mask-6)">
                    <use fill="black" fill-opacity="1" filter="url(#filter-28)" xlink:href="#path-27"></use>
                    <use fill="#FFFFFF" fill-rule="evenodd" xlink:href="#path-27"></use>
                </g>
                <g id="短信设置" mask="url(#mask-6)" fill="#00CC00" fill-rule="nonzero">
                    <g transform="translate(475.050784, 148.438182)">
                        <rect id="矩形" opacity="0" x="0" y="0" width="43" height="43"></rect>
                        <path d="M22.4280273,22.0123047 L41.2783203,8.6 C41.2783203,6.70615234 39.7959961,5.16083984 37.9819336,5.16083984 L5.01806641,5.16083984 C3.20400391,5.16083984 1.72167969,6.71035156 1.72167969,8.6 L20.5719727,22.0123047 C21.1304687,22.4070313 21.8695313,22.4070313 22.4280273,22.0123047 Z M22.4280273,26.1737305 C22.4238281,26.1779297 22.4196289,26.1779297 22.4154297,26.1779297 C22.3566406,26.2199219 22.2894531,26.2535156 22.2264648,26.2871094 C22.1928711,26.3039062 22.1592773,26.3291016 22.1214844,26.3416992 C22.075293,26.3626953 22.0291016,26.3710937 21.9829102,26.3878906 C21.9283203,26.4046875 21.8695313,26.4298828 21.8149414,26.4382812 C21.7729492,26.4466797 21.7351563,26.4466797 21.6931641,26.4508789 C21.6301758,26.4592773 21.5671875,26.4676758 21.5041992,26.4676758 C21.4412109,26.4676758 21.3782227,26.4550781 21.3152344,26.4508789 C21.2732422,26.4466797 21.23125,26.4466797 21.193457,26.4382812 C21.134668,26.4256836 21.0800781,26.4046875 21.0254883,26.3878906 C20.9792969,26.3710937 20.9331055,26.3626953 20.8869141,26.3416992 C20.8491211,26.3249023 20.8155273,26.3039062 20.7819336,26.2871094 C20.7189453,26.2535156 20.6517578,26.2199219 20.5929688,26.1779297 C20.5887695,26.1737305 20.5845703,26.1737305 20.5803711,26.1737305 L1.72167969,12.7614258 L1.72167969,34.4 C1.72167969,36.2938477 3.20400391,37.8391602 5.01806641,37.8391602 L37.9861328,37.8391602 C39.8001953,37.8391602 41.2825195,36.2896484 41.2825195,34.4 L41.2825195,12.7614258 L22.4280273,26.1737305 Z" id="形状"></path>
                    </g>
                </g>
                <g id="话费" mask="url(#mask-6)" fill="#4950F0" fill-rule="nonzero">
                    <g transform="translate(297.090330, 42.568297)">
                        <rect id="矩形" opacity="0" x="0" y="0" width="45" height="45"></rect>
                        <path d="M34.83,0 C35.4,0 35.9325,0.105 36.4275,0.315 C36.9225,0.525 37.3575,0.8175 37.7325,1.1925 C38.1075,1.5675 38.4,2.0025 38.61,2.4975 C38.82,2.9925 38.925,3.525 38.925,4.095 L38.925,40.905 C38.925,42.045 38.5275,43.0125 37.7325,43.8075 C36.9375,44.6025 35.97,45 34.83,45 L10.26,45 C9.12,45 8.1525,44.6025 7.3575,43.8075 C6.5625,43.0125 6.165,42.045 6.165,40.905 L6.165,4.095 C6.165,3.525 6.27,2.9925 6.48,2.4975 C6.69,2.0025 6.9825,1.5675 7.3575,1.1925 C7.7325,0.8175 8.1675,0.525 8.6625,0.315 C9.1575,0.105 9.69,0 10.26,0 L34.83,0 Z M18.45,4.095 L26.595,4.095 L26.595,2.025 L18.45,2.025 L18.45,4.095 Z M22.5,42.93 C23.07,42.93 23.6025,42.825 24.0975,42.615 C24.5925,42.405 25.0275,42.1125 25.4025,41.7375 C25.7775,41.3625 26.07,40.9275 26.28,40.4325 C26.49,39.9375 26.595,39.405 26.595,38.835 C26.595,38.265 26.49,37.7325 26.28,37.2375 C26.07,36.7425 25.7775,36.315 25.4025,35.955 C25.0275,35.595 24.5925,35.31 24.0975,35.1 C23.6025,34.89 23.07,34.785 22.5,34.785 C21.36,34.785 20.4,35.175 19.62,35.955 C18.84,36.735 18.45,37.695 18.45,38.835 C18.45,39.975 18.84,40.9425 19.62,41.7375 C20.4,42.5325 21.36,42.93 22.5,42.93 Z M34.83,6.12 L10.26,6.12 L10.26,32.715 L34.83,32.715 L34.83,6.12 Z" id="形状"></path>
                    </g>
                </g>
                <g id="消息" mask="url(#mask-6)" fill="#F8727A" fill-rule="nonzero">
                    <g transform="translate(469.449216, 349.938182)">
                        <rect id="矩形" opacity="0" x="0" y="0" width="54" height="54"></rect>
                        <path d="M43.9405488,36.7471055 L21.2822227,36.7471055 L16.7672109,41.0627813 C16.4653594,41.3513437 16.0484414,41.5299023 15.5879648,41.5299023 C15.5808984,41.5299023 15.5742539,41.5282148 15.5673984,41.5282148 C15.115043,41.5226777 14.705877,41.3468086 14.4085078,41.0627812 C14.4018633,41.056875 14.3969062,41.0482266 14.390209,41.0420039 C14.3229199,40.9743984 14.2594277,40.9040508 14.2050059,40.8270059 C14.1834902,40.7964199 14.1689355,40.7611406 14.1497402,40.7289199 C14.1151992,40.6727051 14.0783906,40.6175449 14.051127,40.5564785 C14.0385234,40.5273164 14.0329863,40.4955176 14.0219121,40.4657754 C13.9965469,40.3974316 13.9697051,40.3297207 13.9542539,40.2568418 C13.9315722,40.1513515 13.9201703,40.0437488 13.9202402,39.9358477 L13.9202402,36.7471582 L11.6955352,36.7471582 C10.7749512,36.7467891 10.0284961,36.0333457 10.0284961,35.1526289 L10.0284961,12.3014531 C10.0284961,11.4206836 10.7751621,10.707293 11.6962207,10.707293 L43.9404961,10.707293 C44.8617656,10.707293 45.6083262,11.4206836 45.6083262,12.3014531 L45.6083262,35.1525234 C45.6083262,36.0332402 44.8617656,36.7471055 43.9405488,36.7471055 Z M19.4793398,20.8043965 C17.6372227,20.8043965 16.1437852,22.2318633 16.1437852,23.9930859 C16.1437852,25.753834 17.6372227,27.1815645 19.4793398,27.1815645 C21.3217207,27.1815645 22.8151582,25.7537813 22.8151582,23.9930859 C22.8149473,22.2318633 21.3217207,20.8043965 19.4793398,20.8043965 L19.4793398,20.8043965 Z M27.8184375,20.8043965 C25.9761094,20.8043965 24.4828828,22.2318633 24.4828828,23.9930859 C24.4828828,25.753834 25.9761094,27.1815645 27.8184375,27.1815645 C29.6607656,27.1815645 31.1540449,25.7537813 31.1540449,23.9930859 C31.1540449,22.2318633 29.6607656,20.8043965 27.8184375,20.8043965 L27.8184375,20.8043965 Z M36.1575352,20.8043965 C34.315207,20.8043965 32.8217695,22.2318633 32.8217695,23.9930859 C32.8217695,25.753834 34.315207,27.1815645 36.1575352,27.1815645 C37.9997051,27.1815645 39.4931426,25.7537813 39.4931426,23.9930859 C39.4931426,22.2318633 37.9997051,20.8043965 36.1575352,20.8043965 L36.1575352,20.8043965 Z" id="形状"></path>
                    </g>
                </g>
                <g id="电脑_jurassic" mask="url(#mask-6)" fill="#0088FF" fill-rule="nonzero">
                    <g transform="translate(112.949216, 350.438182)">
                        <rect id="矩形" opacity="0" x="0" y="0" width="45" height="45"></rect>
                        <path d="M38.3554687,4.921875 L6.64453125,4.921875 C4.53076172,4.921875 2.8125,6.66210938 2.8125,8.80224609 L2.8125,28.5644531 C2.8125,30.7045898 4.53076172,32.4448242 6.64453125,32.4448242 L19.7666016,32.4448242 L12.7441406,40.078125 L32.2558594,40.078125 L25.2333984,32.4448242 L38.3554687,32.4448242 C40.4692383,32.4448242 42.1875,30.7045898 42.1875,28.5644531 L42.1875,8.80224609 C42.1875,6.66210938 40.4692383,4.921875 38.3554687,4.921875 L38.3554687,4.921875 Z M5.59863281,8.80224609 C5.59863281,8.21777344 6.06884766,7.74316406 6.64453125,7.74316406 L38.3554687,7.74316406 C38.9311523,7.74316406 39.4013672,8.21777344 39.4013672,8.80224609 L39.4013672,22.2099609 L5.59863281,22.2099609 L5.59863281,8.80224609 Z" id="形状"></path>
                    </g>
                </g>
                <g id="云搜系统,云端搜索,云搜" mask="url(#mask-6)" fill="#FF9500" fill-rule="nonzero">
                    <g transform="translate(112.000000, 150.308066)">
                        <rect id="矩形" opacity="0" x="0" y="0" width="45" height="45"></rect>
                        <path d="M33.7324219,13.9438477 C32.9370117,13.8251953 32.2338867,13.3725586 31.7900391,12.7045898 C29.5488281,9.29882813 25.6025391,7.03564453 21.09375,7.03564453 C14.972168,7.03564453 9.87890625,11.2060547 8.70996094,16.7387695 C8.51660156,17.652832 7.89697266,18.421875 7.03125,18.7734375 C2.89160156,20.4609375 0.0087890625,24.2226563 0.0087890625,28.5952148 C0.0087890625,34.3344727 4.98339844,39.0498047 11.2543945,39.375 L32.34375,39.375 C39.3266602,39.375 44.9956055,33.6401367 44.9956055,26.5737305 C44.9912109,20.184082 40.1132812,14.90625 33.7324219,13.9438477 Z M31.9438477,31.1967773 C31.6669922,31.4868164 31.2978516,31.6318359 30.9287109,31.6318359 C30.5683594,31.6318359 30.2080078,31.4956055 29.9355469,31.21875 L27.3208008,28.6083984 C26.8813477,28.1645508 26.1958008,28.0678711 25.6508789,28.3710937 C24.394043,29.0698242 22.9482422,29.465332 21.4057617,29.465332 C16.5673828,29.465332 12.6474609,25.5410156 12.6474609,20.7070312 C12.6474609,15.8686523 16.5673828,11.9487305 21.4057617,11.9487305 C26.2441406,11.9487305 30.1508789,15.8422852 30.1640625,20.6806641 C30.168457,22.2275391 29.7729492,23.6777344 29.0742187,24.9433594 C28.7709961,25.4926758 28.8588867,26.1782227 29.3071289,26.6264648 L31.8999023,29.2192383 C32.4448242,29.7553711 32.4755859,30.6430664 31.9438477,31.1967773 L31.9438477,31.1967773 Z M27.3515625,20.7026367 C27.3515625,22.2890625 26.7319336,23.7832031 25.6113281,24.9082031 C24.4863281,26.0332031 22.996582,26.6484375 21.4057617,26.6484375 C19.8149414,26.6484375 18.3251953,26.0288086 17.2001953,24.9082031 C16.0751953,23.7832031 15.4599609,22.293457 15.4599609,20.7026367 C15.4599609,19.1118164 16.0795898,17.6220703 17.2001953,16.4970703 C18.3251953,15.3720703 19.8149414,14.7568359 21.4057617,14.7568359 C22.9921875,14.7568359 24.4863281,15.3764648 25.6113281,16.4970703 C26.7319336,17.6220703 27.3515625,19.1162109 27.3515625,20.7026367 L27.3515625,20.7026367 Z" id="形状"></path>
                    </g>
                </g>
                <g id="401位置" mask="url(#mask-6)" fill="#00E3C2" fill-rule="nonzero">
                    <g transform="translate(300.590330, 440.938182)">
                        <rect id="矩形" opacity="0" x="0" y="0" width="38" height="38"></rect>
                        <path d="M19,2.375 C11.3703125,2.375 5.1953125,8.55 5.1953125,16.1796875 C5.1953125,19.95 6.709375,23.39375 9.1734375,25.8875 L19,35.625 L28.796875,25.8578125 C31.2609375,23.3640625 32.7751066,19.95 32.7751066,16.15 C32.8046875,8.55 26.6296875,2.375 19,2.375 Z M23.75,14.665625 C23.571875,16.98125 21.73125,18.821875 19.415625,19 C16.625,19.2375 14.2796875,17.0109375 14.2796875,14.2796875 C14.2796875,11.6671875 16.4171875,9.5296875 19.0296875,9.5296875 C21.7609375,9.5296875 23.9875,11.875 23.75,14.665625 L23.75,14.665625 Z" id="形状"></path>
                    </g>
                </g>
            </g>
        </g>
    </g>
</svg>