<svg xmlns="http://www.w3.org/2000/svg" xmlns:xlink="http://www.w3.org/1999/xlink" width="36" height="36" viewBox="0 0 36 36" fill="none"><g opacity="1"  transform="translate(0 0)  rotate(0)"><g opacity="1"  transform="translate(4.800048828125 3.1126708984375)  rotate(0)"><path id="路径" fill-rule="evenodd" style="fill:#A8AEB9" opacity="1" d="M10.2923 17.124L5.50232 30.654L20.6123 30.654L16.2223 17.064L10.2923 17.124Z"></path><path id="路径" fill-rule="evenodd" style="fill:#A8AEB9" opacity="1" d="M13.23 0C5.93 0 0 5.61 0 12.53C0 17.12 2.63 21.15 6.59 23.36L7.36 21.32C4.25 19.45 2.21 16.21 2.21 12.53C2.21 6.8 7.13 2.1 13.23 2.1C19.28 2.1 24.25 6.75 24.25 12.53C24.25 16.16 22.27 19.39 19.22 21.26L19.93 23.3C23.83 21.09 26.4 17.06 26.4 12.53C26.4 5.61 20.47 0 13.23 0Z"></path><path id="路径" fill-rule="evenodd" style="fill:#A8AEB9" opacity="1" d="M4.24915 12.5312C4.24915 15.3612 5.74915 17.8612 8.01915 19.4412L8.79915 17.3512C7.35915 16.1612 6.46915 14.4612 6.46915 12.5312C6.46915 9.01118 9.45915 6.18118 13.1691 6.18118C16.8791 6.18118 19.8691 9.01118 19.8691 12.5312C19.8691 14.4012 19.0391 16.0412 17.6591 17.2312L18.4991 19.3312C20.7091 17.8012 22.1491 15.3112 22.1491 12.5312C22.1491 7.88118 18.1391 4.08118 13.2291 4.08118C8.25915 4.08118 4.24915 7.88118 4.24915 12.5312Z"></path><path id="路径" fill-rule="evenodd" style="fill:#C8CDD5" opacity="1" d="M9.75842 12.5308C9.75842 13.7008 10.4184 14.7908 11.4984 15.3808C12.5684 15.9608 13.8884 15.9608 14.9684 15.3808C16.0384 14.7908 16.6984 13.7008 16.6984 12.5308C16.6984 11.3508 16.0384 10.2708 14.9684 9.68084C13.8784 9.09085 12.5784 9.09085 11.4984 9.68084C10.4184 10.2708 9.75842 11.3508 9.75842 12.5308Z"></path></g></g></svg>