<?xml version="1.0" encoding="UTF-8"?>
<svg width="36px" height="36px" viewBox="0 0 36 36" version="1.1" xmlns="http://www.w3.org/2000/svg" xmlns:xlink="http://www.w3.org/1999/xlink">
    <title>编组 84数据采集</title>
    <g id="页面-1" stroke="none" stroke-width="1" fill="none" fill-rule="evenodd">
        <g id="图标" transform="translate(-119.000000, -38.000000)">
            <g id="编组-84" transform="translate(119.000000, 38.000000)">
                <g id="编组-82" transform="translate(2.000000, 1.000000)" fill-rule="nonzero">
                    <path d="M25.91809,9 C25.9071264,9.04286777 25.8946035,9.08578198 25.8812036,9.12869614 C25.8771593,9.14109668 25.8731149,9.15340432 25.8686321,9.16654797 C25.8588867,9.19747963 25.8479231,9.22836487 25.8366184,9.25887853 C25.8321355,9.27160418 25.8273116,9.28479426 25.8224389,9.29793791 C25.8183458,9.3087129 25.8134731,9.3203239 25.8086491,9.33156333 C25.7972957,9.36054435 25.7859423,9.38994337 25.772981,9.41892439 C25.7684981,9.42895627 25.7636741,9.43903463 25.7591912,9.44943805 C25.7494945,9.47066293 25.7393593,9.49193424 25.7292241,9.51357713 C25.7243514,9.52281948 25.7203071,9.53206183 25.716214,9.54144351 C25.7076867,9.55839556 25.6991595,9.57534761 25.6907298,9.59243895 C25.6866367,9.59940554 25.6825924,9.60711524 25.6789378,9.61412827 C25.669631,9.63182342 25.6602754,9.64961144 25.6509685,9.66665635 C25.6416617,9.6836084 25.6327446,9.70065331 25.6238275,9.71690868 C25.6189061,9.72461838 25.6140822,9.73232808 25.6095993,9.74050222 C25.5934219,9.7686937 25.5771958,9.79646717 25.5597516,9.82433355 C25.5476186,9.84449022 25.5346084,9.86413598 25.5224754,9.88382822 C25.5098551,9.90277735 25.4977221,9.92172648 25.4851505,9.94104714 C25.4700938,9.96264356 25.4551347,9.98502956 25.4396882,10.0067189 C25.4287246,10.0221383 25.4178098,10.0376505 25.4064564,10.0530699 C25.3772202,10.0940799 25.3468145,10.1342539 25.3156292,10.17401 C25.3156292,10.1744744 25.3148009,10.174846 25.3148009,10.1751711 C25.283177,10.2153451 25.2515532,10.2548224 25.2179316,10.2946249 C25.2150567,10.2980618 25.2118407,10.301963 25.2086247,10.3053999 C25.2029724,10.312738 25.196443,10.3197511 25.1903521,10.3274607 C25.1680838,10.3529585 25.1457669,10.3792457 25.1226215,10.4047435 C25.1210135,10.4070192 25.1190157,10.4085519 25.1169692,10.4109205 C25.1129249,10.4155649 25.1080521,10.4209989 25.103618,10.4255968 C25.0525034,10.4820262 24.9993909,10.5384556 24.9442807,10.594049 C24.9434036,10.5945135 24.9434036,10.594885 24.9434036,10.594885 C24.8363991,10.702635 24.7220368,10.80862 24.6004142,10.9125616 C24.5995858,10.9129331 24.5995858,10.9133047 24.5992447,10.9133047 C24.5412596,10.9631855 24.4812279,11.0122767 24.4200268,11.0609964 L24.4041905,11.0740472 C24.2760872,11.1749234 24.1414545,11.274267 24,11.3711955 C24.6953344,11.5154039 25.3651358,11.7271419 26,12 L26,9.00004661 L25.91809,9.00004643 L25.91809,9 Z" id="路径" fill="#A8AEB9"></path>
                    <path d="M0.0143317897,6.28501896 C0.290215006,9.00595321 4.49176133,11.2531787 10.0641726,11.8467846 C10.653679,11.9095505 11.2590456,11.9535993 11.8763552,11.9780001 C12.246827,11.9927484 12.6212638,12 13.0000479,12 C13.1260704,12 13.2524751,11.999216 13.3772555,11.9975991 C14.2549225,11.9861337 15.1103277,11.9348332 15.9363054,11.8467846 C16.9649796,11.737128 17.9468373,11.5711731 18.865827,11.3558287 C18.9445074,11.3375526 19.0224236,11.3187865 19.0999097,11.2995794 C19.6989226,11.1528806 20.2697024,10.9849169 20.8079494,10.7973541 C20.9128566,10.7614879 21.0158531,10.7239557 21.1179895,10.6864236 C21.3381706,10.6057735 21.5520458,10.5208607 21.7599495,10.433694 C21.9082338,10.3709281 22.0529351,10.3072802 22.1944358,10.2416235 C22.3351243,10.1768486 22.4718955,10.1103099 22.6062303,10.0426443 C22.667044,10.0121188 22.7270456,9.98110327 22.7863307,9.94935286 C22.9846322,9.84493896 23.1762456,9.73729129 23.359069,9.62645872 C23.3606933,9.62484181 23.3630819,9.62322489 23.3654705,9.62239194 C23.6285986,9.46177782 23.8750543,9.295382 24.1028311,9.12335146 C24.1580555,9.08136054 24.2121334,9.03892859 24.2653992,8.99654571 C24.4768858,8.82735704 24.6716522,8.65282761 24.8476919,8.47344742 C24.8925976,8.42778169 24.9359746,8.38172394 24.9784438,8.33527424 C25.1438305,8.15462012 25.2913026,7.96955624 25.4189016,7.77998454 C25.4800975,7.68826106 25.536564,7.59609659 25.5886354,7.50236419 C25.6462484,7.39961624 25.6979378,7.29608433 25.7436556,7.19167044 C25.7690703,7.13297132 25.7925263,7.0742722 25.8144059,7.01557312 C25.9022108,6.77621988 25.9606837,6.53284883 25.9857162,6.28497002 C25.9904934,6.24175415 25.9936464,6.19853828 25.9960349,6.15532241 C25.9988535,6.10353193 26,6.05179049 26,6.00039203 C26,2.68668494 20.1799387,0 13,0 C5.82049124,0 0,2.68668494 0,6.00039203 C0,6.05179049 0.00157647072,6.10353198 0.00439501494,6.15532241 C0.00721374589,6.19858716 0.010366734,6.24180304 0.0143317897,6.28501896 Z" id="路径" fill="#A8AEB9"></path>
                    <path d="M14.9704959,28.289921 C14.8494459,28.2959478 14.728789,28.3025625 14.6069526,28.3078053 C14.5746627,28.3090303 14.5427661,28.3106962 14.5104762,28.3114312 C14.3411634,28.3179479 14.1710642,28.3228967 13.9996873,28.3269145 C13.9718698,28.3273065 13.943266,28.3277965 13.9150063,28.3281395 C13.73552,28.3310304 13.5555913,28.3333823 13.3743848,28.3333823 C13.1932275,28.3333823 13.0132988,28.3309814 12.8342057,28.3281395 C12.8055528,28.3277476 12.7773422,28.3269145 12.7491807,28.3265226 C12.5781969,28.3228967 12.4081469,28.3178989 12.2387849,28.3113822 C12.2064951,28.3102552 12.1742052,28.3089813 12.1422594,28.3073644 C11.9713247,28.3008476 11.8012256,28.292616 11.6323551,28.2824734 C11.6114675,28.2812484 11.5910221,28.2799744 11.5705768,28.2787495 C11.4020995,28.268607 11.2348509,28.2572394 11.0683886,28.244108 C11.0557086,28.242981 11.0430285,28.242099 11.0299554,28.2413151 C10.8602494,28.2278407 10.6917721,28.2127003 10.523688,28.196433 C10.4959197,28.1935421 10.4684954,28.1907002 10.4410712,28.1882993 C10.2766731,28.171542 10.113946,28.1540497 9.9527917,28.1344015 C9.92703848,28.1316086 9.90123608,28.1282768 9.87592515,28.1254838 C9.70902056,28.1051007 9.54304978,28.0838356 9.37865172,28.0602185 C9.37373696,28.0598266 9.36842905,28.0594345 9.36312113,28.0586016 C9.19793671,28.0349845 9.03353866,28.0097016 8.87076246,27.9839777 C8.85478953,27.9811848 8.83886578,27.9790778 8.82328606,27.976236 C8.66340955,27.9506101 8.50515491,27.9233182 8.34852212,27.8947033 C8.32522626,27.8906855 8.30237269,27.8857857 8.27942085,27.8816699 C8.12244404,27.8531531 7.96738398,27.8230193 7.8140441,27.7911216 C7.79851351,27.7878877 7.78381846,27.7846048 7.76863189,27.781371 C7.44887889,27.7153217 7.13605566,27.6435396 6.83055541,27.5669068 C6.81581118,27.562889 6.80072293,27.5591651 6.7859787,27.5555393 C6.63794673,27.5176638 6.49158575,27.4789064 6.34674837,27.438483 C6.33038228,27.4339752 6.31406533,27.4291244 6.29725695,27.4251066 C6.15050282,27.3834583 6.00487902,27.341075 5.86176181,27.2974668 C5.85812489,27.2963398 5.85443883,27.2954578 5.85070364,27.2938409 C5.70144297,27.2481748 5.5542465,27.2016757 5.4098514,27.1535596 C5.40822955,27.1527757 5.40621448,27.1524327 5.40493665,27.1519427 C5.26466995,27.1050516 5.12730295,27.0569846 4.99150867,27.0080846 C4.98418569,27.0051937 4.97597808,27.0027439 4.96816367,26.999853 L4.96899917,26.999853 C2.3006883,26.0315547 0.48012098,24.6120829 0.0826168001,23 L0,23 L0,26.999853 C0,29.6911166 3.94992774,31.9684452 9.39084028,32.729188 L9.39084028,32.729188 C9.39123344,32.729188 9.39167578,32.729188 9.39246214,32.729678 C9.53233563,32.7488362 9.67383103,32.7675535 9.81611275,32.7847028 C9.85046678,32.7892106 9.88477168,32.7937184 9.91917485,32.7973442 C10.0598347,32.8141016 10.2013301,32.8303689 10.343661,32.8450193 C10.3461184,32.8455093 10.3477402,32.8459013 10.3498044,32.8459013 C10.4941503,32.8609437 10.6397249,32.8744181 10.786135,32.8874516 C10.8213246,32.8906854 10.8572513,32.8940663 10.8928832,32.8964672 C11.0380155,32.9087167 11.1831969,32.9200842 11.3300494,32.9307168 C11.3316712,32.9307168 11.3332931,32.9307168 11.3349641,32.9307168 C11.4830453,32.9408594 11.6318636,32.949483 11.7815174,32.9576167 C11.8183288,32.9592336 11.8551403,32.9617325 11.8919517,32.9633495 C12.04077,32.9706011 12.190473,32.9772159 12.3409623,32.9825077 C12.3417978,32.9828996 12.3434197,32.9828996 12.344206,32.9828996 C12.4950886,32.9877995 12.6472489,32.9915233 12.7994093,32.9943652 C12.8374003,32.9951492 12.8758826,32.9954921 12.9143159,32.9963741 C13.0672135,32.9983831 13.2202094,33 13.3743356,33 C13.5284619,33 13.6822933,32.9983831 13.8347977,32.9963741 C13.8727886,32.9954921 13.911271,32.9951492 13.9497043,32.9943652 C14.1018647,32.9914743 14.2539267,32.9877505 14.4044652,32.9828996 C14.4060871,32.9828996 14.4069226,32.9828996 14.407709,32.9825077 C14.5582475,32.9772649 14.7078522,32.9706502 14.8567196,32.9633495 C14.893531,32.9617325 14.9307847,32.9592336 14.967547,32.9576167 C15.1168077,32.949483 15.2660683,32.9408594 15.4137072,32.9307168 C15.415329,32.9307168 15.4169509,32.9307168 15.4186219,32.9307168 C15.5658675,32.9200842 15.7114421,32.9087167 15.8561812,32.8964672 C15.8921571,32.8940663 15.9273467,32.8907344 15.9629294,32.8874516 C16.1089464,32.8744181 16.254521,32.8609437 16.39926,32.8459013 C16.4008819,32.8459013 16.4025038,32.8455093 16.4049612,32.8450193 C16.5472921,32.8303689 16.6887383,32.8141016 16.8294473,32.7973442 C16.8638013,32.7937184 16.8981554,32.7892106 16.9329026,32.7847028 C17.0748403,32.7675535 17.2163357,32.7488362 17.3569956,32.729678 C17.3569956,32.729188 17.3578311,32.729188 17.3586174,32.729188 C19.0810374,32.4887059 20.6538526,32.095252 22,31.5851829 C19.2267595,31.4425498 16.7403923,30.2007937 14.9704959,28.289921 Z" id="路径" fill="#A8AEB9"></path>
                    <path d="M0.00715078235,20.167724 C0.00916637459,20.1995927 0.0115658668,20.2315107 0.014733206,20.2634778 C0.0167487982,20.2806908 0.0183324678,20.2977563 0.0207319601,20.3149694 C0.0238992992,20.3453136 0.0278825079,20.3755594 0.0326814924,20.4058544 C0.0351290073,20.422674 0.0375284996,20.4393953 0.0406958387,20.4558214 C0.046262717,20.4885754 0.0526453711,20.521231 0.0590760478,20.553985 C0.061859487,20.5675096 0.0642589792,20.5809849 0.0670424183,20.5949029 C0.0774562569,20.6407388 0.0882060666,20.686624 0.100587522,20.7324599 C0.102171191,20.7364926 0.103418937,20.7414107 0.104570683,20.7455418 C0.115752369,20.7864597 0.127701948,20.8273776 0.141331149,20.8682954 C0.145746233,20.8830003 0.150881189,20.8978036 0.155728196,20.9124592 C0.166094059,20.9431968 0.177275744,20.9738361 0.188457476,21.0049671 C0.19445623,21.0209015 0.200455031,21.0368359 0.206837685,21.0532621 C0.218835241,21.0831144 0.230832749,21.113016 0.243598151,21.1424257 C0.250028827,21.1579666 0.256411528,21.1735568 0.263562029,21.1890977 C0.277959077,21.2218517 0.293123971,21.2549991 0.309056665,21.2873597 C0.314239596,21.2991629 0.319470503,21.3110645 0.325037382,21.3225235 C0.3474008,21.3666873 0.369812193,21.4109003 0.393759234,21.455064 C0.397742395,21.461605 0.401725604,21.4682443 0.404892943,21.4747361 C0.425672692,21.5115229 0.44683634,21.5488014 0.468815811,21.5859816 C0.477214104,21.5998997 0.485564374,21.6130799 0.494346568,21.6268996 C0.512726777,21.6567519 0.531442957,21.6866535 0.551070911,21.7169976 C0.560620951,21.7317025 0.570218967,21.7464074 0.58058483,21.7611614 C0.600164809,21.7906695 0.620512634,21.8200301 0.641292336,21.8495382 C0.650890352,21.8634562 0.660440392,21.8769315 0.670422355,21.8904561 C0.69523324,21.924833 0.72119592,21.9592099 0.746726677,21.9927508 C0.753109378,22.0009147 0.759108132,22.0090787 0.765106886,22.0173409 C0.798604014,22.0598818 0.832964939,22.102816 0.868525635,22.1450126 C0.873660591,22.1515536 0.87932342,22.1577011 0.884890252,22.1638486 C0.914404171,22.1994059 0.944781935,22.2346189 0.975927546,22.2697827 C0.987061255,22.2816843 0.997859041,22.2939794 1.00865683,22.3054383 C1.03581923,22.3356841 1.06298168,22.3651922 1.09091193,22.3946511 C1.10329338,22.4073396 1.11572281,22.4200281 1.12767239,22.4326674 C1.15646649,22.4625198 1.18641233,22.4919295 1.21635817,22.5222737 C1.22749188,22.5328474 1.23790572,22.5435195 1.24947135,22.5550277 C1.28738356,22.5918145 1.3264955,22.6286012 1.36647132,22.6654864 C1.36930274,22.6687322 1.37208618,22.6716339 1.37530149,22.6744372 C1.42002828,22.7153551 1.46595484,22.7563713 1.51264924,22.7972892 C1.518648,22.8022073 1.5250307,22.8074695 1.53102945,22.8127318 C1.57052534,22.8471087 1.61045314,22.8807479 1.65162864,22.9142397 C1.6636262,22.9240265 1.67557573,22.9343052 1.68795718,22.944092 C1.7243337,22.9736001 1.76099817,23.0029607 1.79819051,23.0320754 C1.81133981,23.0427474 1.82415319,23.0525343 1.83730249,23.0627146 C1.87679837,23.0934522 1.9171581,23.123698 1.9574698,23.1539438 C1.96788364,23.1613208 1.97829753,23.1691405 1.98861542,23.176911 C2.09361783,23.2542222 2.20265144,23.3304023 2.31528426,23.4052545 C2.32008329,23.4085004 2.32526622,23.4117955 2.33040113,23.4150413 C2.38074277,23.4486806 2.43142038,23.4817789 2.48296175,23.5145328 C2.4949593,23.5218114 2.50652489,23.5292377 2.51809052,23.5366147 C2.56516883,23.566467 2.61234313,23.5950899 2.66023731,23.624598 C2.67261876,23.6318767 2.68461632,23.6389094 2.69661382,23.6466799 C2.74892308,23.6777125 2.80161624,23.7088436 2.85512522,23.7395812 C2.86232375,23.743614 2.86870645,23.7473516 2.87590497,23.7513844 C3.00130319,23.8234334 3.13068462,23.8945971 3.26361729,23.9642362 C3.2664487,23.9653673 3.26961604,23.9670394 3.27278338,23.9686624 C3.33430676,24.0006295 3.39659793,24.032154 3.45970498,24.0640228 C3.46925502,24.0689408 3.47923698,24.0738096 3.4892189,24.0787276 C3.54752691,24.1078423 3.60660277,24.1364651 3.66649445,24.1646946 C3.67609247,24.1692191 3.68487466,24.1737437 3.69447272,24.1786126 C3.97319941,24.3108089 4.2646915,24.4368085 4.568949,24.5567097 C4.57537967,24.5592179 4.58214627,24.5624638 4.58891288,24.5648736 C4.66041817,24.5927096 4.73225943,24.6205947 4.80534839,24.6479389 C4.80976347,24.6500536 4.81417856,24.6516766 4.81892961,24.6532995 C5.13360094,24.7711352 5.46060571,24.8828725 5.79884018,24.9871837 L5.8064226,24.9895935 C6.8338434,25.3071498 7.96429904,25.5588048 9.16981126,25.731919 L9.16981126,25.731919 C9.17019516,25.731919 9.17062709,25.731919 9.17139493,25.7324108 C9.21132274,25.737673 9.25206636,25.7429845 9.29199412,25.7483451 C9.37103386,25.7594107 9.45050552,25.7700336 9.52997718,25.7802139 C9.54835739,25.7827221 9.56673765,25.7855745 9.58506988,25.7875909 C9.61861498,25.7921154 9.65211211,25.79664 9.68570519,25.8002794 C9.69525523,25.8015089 9.7040854,25.8022958 9.71363544,25.8035252 C9.81388685,25.8162137 9.91490606,25.8276235 10.0159253,25.8382956 C10.0442875,25.8415415 10.0722657,25.84523 10.100196,25.8480825 C10.1025955,25.8489677 10.1041792,25.8489677 10.1065787,25.8489677 C10.148906,25.8534923 10.192865,25.8571316 10.2355762,25.8616562 C10.3126484,25.8694267 10.3897205,25.8768529 10.4671766,25.8841315 C10.4891561,25.8862463 10.5102717,25.8882627 10.5322512,25.8906725 C10.5669961,25.8939184 10.6016929,25.89682 10.6364858,25.8997217 C10.6448841,25.9006069 10.6528504,25.9013446 10.6608648,25.9017381 C10.7774328,25.9120167 10.8948167,25.9210659 11.0122006,25.929574 C11.0289971,25.9308035 11.0461776,25.9324757 11.0633101,25.9340986 C11.0648938,25.9340986 11.0664774,25.9340986 11.0681091,25.9340986 C11.1112043,25.9373445 11.1543954,25.9390166 11.1974905,25.9422625 C11.2765303,25.9471805 11.3560019,25.9520494 11.4359055,25.9570657 C11.4586528,25.9578526 11.4809683,25.9594756 11.5041475,25.9610985 C11.5400921,25.9627214 11.5760367,25.9652296 11.6119813,25.9668526 C11.6175482,25.9668526 11.623163,25.967246 11.6287779,25.9676395 C11.7481293,25.9733936 11.8683446,25.978705 11.9885599,25.9831804 C12.0093397,25.9840657 12.0296395,25.9851968 12.0504192,25.986082 C12.051619,25.9864755 12.0528187,25.9864755 12.0535866,25.9864755 C12.09553,25.987705 12.1374733,25.9880984 12.1798006,25.9897213 C12.2588403,25.9922296 12.3379281,25.9938525 12.4177837,25.9958689 C12.4445622,25.9962623 12.4712926,25.9824426 12.4984551,25.9831804 C12.5352156,25.9840656 12.5727438,25.9704919 12.6102721,25.9704919 L12.615839,25.9704919 C12.6182385,25.9704919 12.6022577,25.9856886 12.6022577,25.9856886 L12.6022577,25.9929672 C12.771183,25.9945902 12.8797847,25.9987213 13,26 C12.32833,24.6189225 11.9502158,23.0582391 11.9502158,21.413556 C11.9502158,21.3730316 11.9513675,21.3534087 11.9513675,21.2862778 C11.9513675,21.2862778 11.9509836,21.2862778 11.9505517,21.2862778 C11.9190222,21.2862778 11.8874927,21.2895236 11.8562991,21.2882942 C11.6893894,21.2813598 11.5232955,21.2760975 11.3584014,21.2662123 C11.3380056,21.2649828 11.3180417,21.2649828 11.2980778,21.2633107 C11.1335676,21.2535238 10.9702572,21.2428517 10.8077146,21.2297698 C10.7957171,21.2285403 10.7829517,21.2281468 10.7706182,21.2268682 C10.6044764,21.213442 10.4399662,21.1986387 10.2762239,21.1823109 C10.2491094,21.1790651 10.221947,21.1765569 10.1952165,21.174147 C10.0350734,21.1577209 9.87617807,21.1397701 9.71843452,21.1200488 C9.69362363,21.1172456 9.66809288,21.1143931 9.64337794,21.111098 C9.48040343,21.0906391 9.31834075,21.0692949 9.15781375,21.0464753 C9.15301472,21.04559 9.14783179,21.0448524 9.14303281,21.0439671 C8.98130605,21.0202622 8.82077905,20.9956722 8.66188371,20.9695083 C8.64671881,20.9666067 8.63073809,20.9641477 8.61552522,20.9617379 C8.45941332,20.9359183 8.30488508,20.9081315 8.15194051,20.8794102 C8.12919319,20.8753775 8.10687775,20.8712463 8.08446636,20.8667218 C7.93152179,20.8377054 7.78020891,20.8074597 7.63004778,20.7754926 C7.61526683,20.7725909 7.60053386,20.7698368 7.58570489,20.7660992 C7.27348107,20.69946 6.96802386,20.6274111 6.67010109,20.5504441 C6.65532014,20.5464113 6.64058717,20.5431655 6.62619012,20.5390343 C6.48164385,20.5013623 6.33872922,20.4621165 6.19773418,20.4220347 C6.18132154,20.4170184 6.16538885,20.4121495 6.14897621,20.4081167 C6.00567768,20.3663136 5.86348287,20.3237727 5.72373563,20.280445 C5.72018434,20.2787237 5.71658508,20.2779368 5.71293784,20.2767073 C5.5671918,20.2308714 5.42384524,20.183806 5.28246631,20.1355111 C5.28088264,20.1347242 5.27929897,20.1343799 5.27766728,20.1338881 C5.14070342,20.0868227 5.00657099,20.0552982 4.87397424,20.0062164 C4.87239057,20.0054295 4.87037498,20.0062164 4.86840736,20.0062164 C4.86840736,20.0062164 4.86840736,20.0062164 4.86840736,20.0066098 C4.86279251,20.0087246 4.85722568,20.0139869 4.85242665,20.0143803 C4.85199472,20.0143803 4.85199472,20.0143803 4.85161082,20.0143803 C4.69665066,19.9546264 4.54413802,19.8932495 4.39479271,19.8307415 C4.38759419,19.8278399 4.38039566,19.8249875 4.37319714,19.8220858 C4.22548352,19.7594795 4.08012138,19.6956928 3.93797459,19.6305291 C3.93082405,19.6268897 3.9224258,19.6235947 3.91484333,19.6199553 C3.77269655,19.5544473 3.6333332,19.4873164 3.49718517,19.4190052 C3.4907545,19.4161035 3.48437179,19.4128577 3.47760519,19.4092183 C3.33589033,19.3375628 3.19772671,19.264727 3.0635463,19.1907108 C3.06273048,19.190219 3.06234653,19.190219 3.06196263,19.190219 C2.93574859,19.1198914 2.81279783,19.0491212 2.69335039,18.9766787 C2.68538402,18.9717607 2.67698578,18.9672854 2.6690194,18.9623673 C2.41505563,18.8079908 2.17707252,18.6484503 1.95545407,18.4838935 C1.95502215,18.4838935 1.95502215,18.4838935 1.95463825,18.4835001 C1.07416322,17.8300432 0.458401785,17.0982915 0.176075834,16.3146547 C0.138163622,16.2103436 0.106202188,16.1055406 0.0806714311,16 L0,16 L0,19.9816755 C0,20.0282491 0.00158366957,20.0749211 0.00398316182,20.1220357 C0.0047512901,20.1373798 0.00599903545,20.1525765 0.00715078235,20.167724 Z" id="路径" fill="#A8AEB9"></path>
                    <path d="M0.0072458444,13.1890839 C0.00927466006,13.2208644 0.0116898943,13.2531843 0.014878013,13.2853571 C0.0169068287,13.3017377 0.018500888,13.318805 0.0204814131,13.335529 C0.0241042881,13.3661814 0.028548338,13.3971281 0.0329440974,13.4273882 C0.0354076694,13.4436708 0.0378229037,13.4599533 0.0410110224,13.4759416 C0.0466144225,13.5097329 0.0530389504,13.5440636 0.0602847003,13.5774625 C0.0626999346,13.5897235 0.0647287503,13.6015921 0.0674821598,13.6133626 C0.0880117691,13.7072326 0.113275266,13.7998765 0.143465906,13.8917357 C0.146267607,13.9006617 0.149455725,13.9096368 0.152305716,13.9186608 C0.165203156,13.9565718 0.178438725,13.9945317 0.192930225,14.0320993 C0.19650481,14.0418591 0.200127685,14.0508831 0.203364094,14.0598582 C0.219449653,14.0997799 0.235535212,14.1398487 0.252780075,14.1797705 C0.25480889,14.1846749 0.257224125,14.1896283 0.259639359,14.1949251 C1.20979828,16.3532485 4.69171767,18.0924919 9.22987374,18.7388413 L9.22987374,18.7388413 C9.23026016,18.7388413 9.23069492,18.7388413 9.2314678,18.7388413 C9.36894375,18.7583607 9.5080138,18.7767522 9.64785669,18.7943099 C9.68162187,18.7984296 9.71533875,18.8025492 9.74915222,18.8065709 C9.88778752,18.8237362 10.0264711,18.8400188 10.1663623,18.854732 C10.1687776,18.854732 10.1703716,18.8555167 10.1727869,18.8555167 C10.3142722,18.8702789 10.4573998,18.8841583 10.6012521,18.8968117 C10.6362249,18.9000486 10.6711494,18.9029421 10.7061705,18.906179 C10.8488151,18.9183419 10.9919427,18.9298182 11.1358433,18.939627 C11.1374373,18.9404117 11.1390314,18.9404117 11.1406738,18.9404117 C11.2862167,18.9506619 11.4324842,18.9591955 11.5795728,18.9674349 C11.6157532,18.9690533 11.6519337,18.9710641 11.6885488,18.9726826 C11.6905294,18.9730749 11.6925581,18.9730749 11.6945387,18.9730749 C11.9091577,18.9845512 12.1254191,18.9926924 12.3428881,19 C12.7998532,17.1857685 13.7331053,15.5628081 15,14.2785449 C14.9727077,14.2801633 14.9457535,14.2826646 14.9184612,14.2838906 C14.9003468,14.2850187 14.8818943,14.2867842 14.8633935,14.2875199 C14.8613647,14.2875199 14.8593359,14.2875199 14.8577418,14.2875199 C14.8022877,14.2907568 14.7463988,14.2932581 14.6905583,14.2961516 C14.5796018,14.3021841 14.4686935,14.3079221 14.3569641,14.3128266 C14.3288506,14.3140527 14.3011235,14.3153278 14.2733965,14.3160634 C14.2693388,14.3165539 14.2653295,14.3165539 14.261755,14.3169463 C14.2581321,14.3169463 14.2541228,14.3169463 14.2504999,14.3169463 C14.0877121,14.3234691 13.9245379,14.3283244 13.7601561,14.3316104 C13.732429,14.3324932 13.7043155,14.3324932 13.6769749,14.3332288 C13.5001304,14.3364657 13.3232859,14.3385746 13.1451854,14.3385746 C12.9671333,14.3385746 12.7902887,14.3364657 12.6142654,14.3332288 C12.5861036,14.3328365 12.5583766,14.3324441 12.5306978,14.3316104 C12.3626448,14.3283735 12.1955096,14.3234691 12.0290506,14.3169463 C12.021032,14.3165539 12.0129651,14.3160634 12.0049464,14.3160634 C11.9816634,14.3148373 11.9575593,14.3140526 11.9341796,14.3128266 C11.808007,14.3079221 11.6834285,14.301056 11.5579804,14.2940428 C11.5166314,14.2916396 11.4744128,14.2904135 11.4330155,14.2879123 C11.4289578,14.28752 11.4249485,14.28752 11.4205045,14.2871276 C11.4044672,14.2859015 11.3883817,14.2850187 11.3722961,14.2838907 C11.316842,14.2806538 11.2629336,14.2761418 11.2075278,14.2724144 C11.0981654,14.2651559 10.9880783,14.2581426 10.8791506,14.2492166 C10.8699243,14.2483338 10.8606498,14.2479905 10.8514235,14.2475982 C10.848187,14.2467154 10.8449506,14.2467154 10.8413761,14.2467154 C10.7452975,14.2385741 10.6504265,14.22955 10.5556038,14.220575 C10.484837,14.2140522 10.4141185,14.2084121 10.3437382,14.2010555 C10.334512,14.2001727 10.3248509,14.1994371 10.3156247,14.1985543 C10.2975586,14.1969358 10.279879,14.194925 10.2621994,14.1929142 C10.1010057,14.1765336 9.94106787,14.1586326 9.78228944,14.1398488 C9.77021317,14.1382303 9.75813695,14.1366119 9.74610902,14.1353367 C9.73287345,14.1337183 9.7195413,14.1320998 9.70674044,14.1304323 C9.54269673,14.1104224 9.37957082,14.088745 9.21799068,14.0655963 C9.21639663,14.0655963 9.21436781,14.0651059 9.21238728,14.0647135 C9.20919917,14.0647135 9.20634918,14.0638307 9.20316106,14.0638307 C9.12717731,14.0524525 9.05244954,14.0401915 8.97767344,14.0287643 C8.93830486,14.0226338 8.89888804,14.0169938 8.86029234,14.0108633 C8.81324331,14.0035067 8.76542138,13.9969838 8.71880706,13.9888426 C8.70354267,13.9863413 8.68745711,13.9838401 8.67175802,13.981486 C8.6239361,13.9733447 8.57732177,13.964713 8.52983798,13.9565717 C8.42134498,13.9377879 8.3128037,13.9193964 8.20508359,13.8994846 C8.19382855,13.8973757 8.18257345,13.8949726 8.17131841,13.8933541 C8.16011166,13.8908529 8.14880828,13.8888421 8.13716681,13.8868313 C7.98321884,13.8577973 7.83086493,13.8276353 7.68015342,13.7961982 C7.66488903,13.7929613 7.65044587,13.7896753 7.63513319,13.7864384 C7.47838352,13.7533829 7.32284149,13.7186108 7.16889357,13.6827106 C7.01538035,13.6469085 6.8634612,13.6097333 6.71308781,13.5709396 C6.6986446,13.5677027 6.68415315,13.5636811 6.66970994,13.5599047 C6.52421536,13.5219937 6.38036313,13.4832 6.23800838,13.4428369 C6.22192282,13.4387172 6.20545084,13.4338129 6.18897881,13.4289575 C6.04469183,13.3876625 5.90199895,13.34573 5.76094842,13.3016395 C5.75732554,13.3007567 5.75408913,13.2995307 5.75007979,13.2983045 C5.60376404,13.2525957 5.45909058,13.2061511 5.31678412,13.1575977 C5.31519006,13.1571072 5.313596,13.1563715 5.31190531,13.1559792 C5.17442937,13.1090442 5.03941695,13.0608831 4.90599859,13.0118882 C4.89836642,13.009387 4.8907342,13.0069838 4.88271557,13.003747 L4.88353674,13.003747 C4.78948696,12.9689748 4.69621006,12.9335161 4.60380262,12.8972236 C4.5756408,12.8861888 4.54752731,12.8747125 4.51936553,12.8636776 C4.45425041,12.8376353 4.38952176,12.8114949 4.32566257,12.7849622 C4.29552026,12.7727012 4.26576438,12.7600479 4.23562208,12.7473946 C4.16929936,12.7197338 4.10341135,12.6910922 4.03786148,12.6625486 C4.01535134,12.6523966 3.99206837,12.6421464 3.96955824,12.6323867 C3.88111181,12.5932006 3.7934866,12.5531808 3.70789016,12.5123763 C3.70185205,12.5099731 3.69542747,12.5067362 3.68895461,12.5034503 C3.61016921,12.4658826 3.53220493,12.4283641 3.45506188,12.3899627 C3.43332463,12.3794183 3.41240861,12.367942 3.39071965,12.3572995 C3.32724692,12.325519 3.26454704,12.2928558 3.2030065,12.2602416 C3.18209042,12.2495991 3.16122269,12.2382209 3.14030666,12.2270879 C3.06915343,12.189177 2.99920784,12.1508247 2.93008337,12.1116386 C2.92206474,12.1071266 2.91399782,12.1026146 2.90554442,12.0977592 C2.82400562,12.0520503 2.74439904,12.0051153 2.66561359,11.9577879 C2.66358478,11.9565618 2.66155596,11.9548943 2.65914073,11.9536682 C2.58600697,11.9096268 2.51446732,11.865144 2.44370051,11.8194841 C2.43085141,11.8112448 2.41800226,11.8031035 2.40510482,11.7949622 C2.34240498,11.7541577 2.28052626,11.7133531 2.21942048,11.6716658 C2.20937303,11.6644074 2.19889087,11.6578845 2.18889171,11.6504789 C1.97427272,11.5027587 1.77327566,11.3509679 1.58759133,11.1942236 C1.58116675,11.1889759 1.57469389,11.1835811 1.56831765,11.177941 C1.51006186,11.1285047 1.45335179,11.0791666 1.39794599,11.0285043 C1.395096,11.0261011 1.3922943,11.0235999 1.3894926,11.0212458 C1.26974457,10.9118779 1.15675923,10.8008426 1.05188911,10.6881888 C0.994406208,10.626982 0.93890378,10.5649905 0.885864924,10.5021653 C0.883449689,10.4989284 0.880213233,10.4956425 0.877411533,10.4924056 C0.875382717,10.489512 0.872967483,10.4870598 0.870552249,10.4841662 C0.84726923,10.4565055 0.824759143,10.4286976 0.801814252,10.400154 C0.799785437,10.3976528 0.798191377,10.3952496 0.796210852,10.3931407 C0.789351568,10.3846071 0.782926993,10.3764658 0.776502418,10.3682264 C0.743171996,10.3258035 0.711000877,10.2833805 0.679650934,10.2409085 C0.679216177,10.2405162 0.679216177,10.2401238 0.678443293,10.23929 C0.647479815,10.1968671 0.617337512,10.1544441 0.588016384,10.1112365 C0.577147759,10.0952482 0.56671389,10.0793579 0.555845265,10.0634187 C0.540629219,10.0401228 0.525702963,10.0164837 0.510825044,9.99318783 C0.49836236,9.97327603 0.486286094,9.95360942 0.474258166,9.93408995 C0.461360725,9.91246159 0.448511622,9.89117654 0.436048938,9.8699896 C0.418804076,9.84021995 0.402718516,9.81040127 0.386632957,9.78063163 C0.382237198,9.77288271 0.377793148,9.76513375 0.373397388,9.75699245 C0.363784695,9.73899336 0.354510129,9.72020952 0.345283901,9.70230854 C0.341661026,9.69495195 0.338424617,9.6884291 0.334801742,9.68102348 C0.325575514,9.66223969 0.315914482,9.64345584 0.306688255,9.62472108 C0.298234864,9.60682005 0.28978152,9.58926236 0.281762886,9.57175366 C0.278912895,9.56601552 0.276545952,9.55988505 0.274130717,9.55375457 C0.262054452,9.52844793 0.250799408,9.50235657 0.239930783,9.47704993 C0.235100267,9.46523034 0.229883333,9.4537541 0.225052864,9.44193452 C0.212155424,9.41177254 0.200948671,9.38072775 0.189693627,9.34973199 C0.185297868,9.33830478 0.180467399,9.32604379 0.17607164,9.31417517 C0.171192834,9.30073714 0.166410656,9.28680867 0.162014896,9.27297831 C0.150759853,9.24075649 0.139891228,9.20853466 0.130230243,9.17543002 C0.125834484,9.16199199 0.121776853,9.14811256 0.117767559,9.1346255 C0.10453199,9.09019175 0.0925040623,9.04526753 0.081200681,9 L0,9 L0,13.0036488 C0,13.0509761 0.00159405933,13.0974206 0.0040092936,13.1439633 C0.00483061014,13.1597066 0.0060865414,13.1743217 0.0072458444,13.1890839 Z" id="路径" fill="#A8AEB9"></path>
                    <path d="M22.0231309,13 C27.0066116,13 31.0462617,16.8828041 31.0462617,21.6728405 C31.0462617,23.6597421 30.3511697,25.4895715 29.1821085,26.952027 L29.182,26.951 L32.8779493,30.5027532 C33.0448527,30.6635569 33.0377065,30.9372666 32.8740986,31.1497542 L32.8054458,31.2262272 L31.1542002,32.81298 C30.9269405,33.0318917 30.5896142,33.0631919 30.4022932,32.8826683 L26.5474895,29.1779618 C25.2173868,29.9204634 23.671902,30.3456334 22.0231308,30.3456334 C17.0396501,30.3456334 13,26.4627342 13,21.6727929 C13,16.8827565 17.0396502,13 22.0231309,13 Z M22.0231309,15.0208657 C18.2012878,15.0208657 15.1025482,17.9989586 15.1025482,21.6727929 C15.1025482,25.3466747 18.2012878,28.324625 22.0231309,28.324625 C25.844974,28.324625 28.9437136,25.3466747 28.9437136,21.6727929 C28.9437136,17.9989111 25.844974,15.0208657 22.0231309,15.0208657 Z" id="形状结合" fill="#C8CDD5"></path>
                    <path d="M27.0051166,28.9969813 C27.0017397,28.9986186 26.9990791,29.0011769 26.9948835,29.0030188 C26.9991814,29.0011769 27.0017397,28.9986186 27.0051166,28.9969813 Z" id="路径" fill="#252434"></path>
                    <path d="M26.9915066,29.005884 C26.9966231,29.0025071 27.0017397,28.9974929 27.0084935,28.994116 C27.0016374,28.9973905 26.9966232,29.0024047 26.9915066,29.005884 Z" id="路径" fill="#252434"></path>
                    <path d="M26.989767,29.0072143 C26.9966232,29.0030187 27.0034793,28.9977999 27.0102331,28.9927857 C27.0034793,28.9977999 26.9966231,29.0030187 26.989767,29.0072143 Z" id="路径" fill="#252434"></path>
                    <path d="M26.9893576,29.0084935 C26.9961114,29.0034793 27.0029676,28.9975441 27.0106424,28.9915066 C27.0038886,28.9975441 26.9962138,29.0034793 26.9893576,29.0084935 Z" id="路径" fill="#252434"></path>
                    <path d="M27.9884878,29.0089028 C27.9960603,29.002149 28.0037351,28.9971348 28.0115122,28.9910973 C28.0038374,28.9970325 27.9961626,29.0020467 27.9884878,29.0089028 Z" id="路径" fill="#252434"></path>
                    <path d="M27.9902275,28.0076748 C27.9969813,28.0024559 28.0030188,27.9974417 28.0097726,27.9923252 C28.0030188,27.9974418 27.9969813,28.002456 27.9902275,28.0076748 Z" id="路径" fill="#252434"></path>
                    <path d="M27.9906368,28.0076748 C27.9973906,28.0024559 28.0033258,27.9974417 28.0093633,27.9923252 C28.0033258,27.9974417 27.997493,28.0024559 27.9906368,28.0076748 Z" id="路径" fill="#252434"></path>
                    <path d="M27.9923252,28.0069073 C27.9983627,28.0035304 28.0026606,27.9983115 28.0076748,27.9930927 C28.0025582,27.9983115 27.9982604,28.0035304 27.9923252,28.0069073 Z" id="路径" fill="#252434"></path>
                    <path d="M27.9940648,28.005577 C27.9974417,28.0019954 28.0025582,27.9977999 28.0059352,27.994423 C28.0025583,27.9977999 27.9974417,28.0019954 27.9940648,28.005577 Z" id="路径" fill="#252434"></path>
                </g>
                <rect id="矩形" x="0" y="0" width="36" height="36"></rect>
            </g>
        </g>
    </g>
</svg>