<?xml version="1.0" encoding="UTF-8"?>
<svg width="36px" height="36px" viewBox="0 0 36 36" version="1.1" xmlns="http://www.w3.org/2000/svg" xmlns:xlink="http://www.w3.org/1999/xlink">
    <title>编组 97</title>
    <g id="页面-1" stroke="none" stroke-width="1" fill="none" fill-rule="evenodd">
        <g id="图标" transform="translate(-119.000000, -158.000000)">
            <g id="编组-97" transform="translate(119.000000, 158.000000)">
                <rect id="矩形备份-14" x="0" y="0" width="36" height="36"></rect>
                <g id="编组-94备份-2" transform="translate(1.000000, 3.000000)" fill-rule="nonzero">
                    <g id="编组-91">
                        <path d="M15.675,22.9985119 L31.1842634,22.9985119 C32.175,22.9985119 33,23.8318452 33,25 L33,27.9985119 C33,28.999256 32.175,30 31.1842634,30 L15.675,30 C14.6842634,30 13.8592634,29.1666667 13.8592634,27.9985119 L13.8592634,27.6636905 L3.46573661,27.6636905 C2.80647321,27.6636905 2.30926339,27.1651786 2.30926339,26.4955357 L2.30926339,7.0014881 L1.81573661,7.0014881 C0.825,7.0014881 0,6.00074405 0,5 L0,2.0014881 C0,0.833333333 0.825,0 1.81573661,0 L4.95,0 C5.94073661,0 6.76573661,0.833333333 6.76573661,2.0014881 L6.76573661,5 C6.76573661,6.00074405 5.94073661,7.0014881 4.95,7.0014881 L4.45647321,7.0014881 L4.45647321,14.0029762 L13.6972098,14.0029762 L13.6972098,13.6681548 C13.6972098,12.6674107 14.5222098,11.6666667 15.5129464,11.6666667 L31.0222098,11.6666667 C32.0129464,11.6666667 32.8379464,12.5 32.8379464,13.6681548 L32.8379464,16.6666667 C32.8379464,17.6674107 32.0129464,18.6681548 31.0222098,18.6681548 L15.5092634,18.6681548 C14.5185268,18.6681548 13.6935268,17.8348214 13.6935268,16.6666667 L13.6935268,16.3318452 L4.45647321,16.3318452 L4.45647321,25.4985119 L13.6972098,25.4985119 L13.6972098,25 C13.6935268,23.999256 14.5185268,22.9985119 15.675,22.9985119 Z" id="路径" fill="#A8AEB9"></path>
                        <path d="M31.1842634,7.0014881 L10.8907366,7.0014881 C9.73426339,7.0014881 8.90926339,6.00074405 8.90926339,5 L8.90926339,2.0014881 C8.90926339,0.833333333 9.73426339,0 10.8907366,0 L31.1842634,0 C32.175,0 33,0.833333333 33,2.0014881 L33,5 C33,6.00074405 32.175,7.0014881 31.1842634,7.0014881 Z" id="路径" fill="#C8CDD5"></path>
                    </g>
                </g>
            </g>
        </g>
    </g>
</svg>