<?xml version="1.0" encoding="UTF-8"?>
<svg width="1201px" height="651px" viewBox="0 0 1201 651" version="1.1" xmlns="http://www.w3.org/2000/svg" xmlns:xlink="http://www.w3.org/1999/xlink">
    <title>编组 99备份 2</title>
    <defs>
        <rect id="path-1" x="0" y="0" width="1200" height="651"></rect>
        <filter x="-3.6%" y="-8.0%" width="107.1%" height="116.0%" filterUnits="objectBoundingBox" id="filter-3">
            <feOffset dx="0" dy="2" in="SourceAlpha" result="shadowOffsetOuter1"></feOffset>
            <feGaussianBlur stdDeviation="7" in="shadowOffsetOuter1" result="shadowBlurOuter1"></feGaussianBlur>
            <feColorMatrix values="0 0 0 0 0   0 0 0 0 0   0 0 0 0 0  0 0 0 0.199283627 0" type="matrix" in="shadowBlurOuter1" result="shadowMatrixOuter1"></feColorMatrix>
            <feMerge>
                <feMergeNode in="shadowMatrixOuter1"></feMergeNode>
                <feMergeNode in="SourceGraphic"></feMergeNode>
            </feMerge>
        </filter>
        <rect id="path-4" x="0" y="0" width="342" height="214" rx="14"></rect>
        <filter x="-7.3%" y="-10.7%" width="114.6%" height="123.4%" filterUnits="objectBoundingBox" id="filter-5">
            <feOffset dx="0" dy="2" in="SourceAlpha" result="shadowOffsetOuter1"></feOffset>
            <feGaussianBlur stdDeviation="8" in="shadowOffsetOuter1" result="shadowBlurOuter1"></feGaussianBlur>
            <feColorMatrix values="0 0 0 0 0.204737413   0 0 0 0 0.418516171   0 0 0 0 0.719076405  0 0 0 0.1 0" type="matrix" in="shadowBlurOuter1"></feColorMatrix>
        </filter>
        <rect id="path-6" x="0" y="0.103120173" width="342" height="214" rx="14"></rect>
        <filter x="-7.3%" y="-10.7%" width="114.6%" height="123.4%" filterUnits="objectBoundingBox" id="filter-7">
            <feOffset dx="0" dy="2" in="SourceAlpha" result="shadowOffsetOuter1"></feOffset>
            <feGaussianBlur stdDeviation="8" in="shadowOffsetOuter1" result="shadowBlurOuter1"></feGaussianBlur>
            <feColorMatrix values="0 0 0 0 0.204737413   0 0 0 0 0.418516171   0 0 0 0 0.719076405  0 0 0 0.1 0" type="matrix" in="shadowBlurOuter1"></feColorMatrix>
        </filter>
        <rect id="path-8" x="0" y="5" width="1058" height="200" rx="10"></rect>
        <filter x="-2.4%" y="-11.5%" width="104.7%" height="125.0%" filterUnits="objectBoundingBox" id="filter-9">
            <feOffset dx="0" dy="2" in="SourceAlpha" result="shadowOffsetOuter1"></feOffset>
            <feGaussianBlur stdDeviation="8" in="shadowOffsetOuter1" result="shadowBlurOuter1"></feGaussianBlur>
            <feColorMatrix values="0 0 0 0 0.204737413   0 0 0 0 0.418516171   0 0 0 0 0.719076405  0 0 0 0.134528313 0" type="matrix" in="shadowBlurOuter1"></feColorMatrix>
        </filter>
        <circle id="path-10" cx="15" cy="15" r="15"></circle>
        <filter x="-53.3%" y="-46.7%" width="206.7%" height="206.7%" filterUnits="objectBoundingBox" id="filter-11">
            <feOffset dx="0" dy="2" in="SourceAlpha" result="shadowOffsetOuter1"></feOffset>
            <feGaussianBlur stdDeviation="5" in="shadowOffsetOuter1" result="shadowBlurOuter1"></feGaussianBlur>
            <feComposite in="shadowBlurOuter1" in2="SourceAlpha" operator="out" result="shadowBlurOuter1"></feComposite>
            <feColorMatrix values="0 0 0 0 0.0563081549   0 0 0 0 0.173121726   0 0 0 0 0.591054723  0 0 0 0.319583493 0" type="matrix" in="shadowBlurOuter1"></feColorMatrix>
        </filter>
    </defs>
    <g id="页面-1" stroke="none" stroke-width="1" fill="none" fill-rule="evenodd">
        <g id="编组-99备份" transform="translate(0.827160, 0.000000)">
            <g id="编组-45">
                <mask id="mask-2" fill="white">
                    <use xlink:href="#path-1"></use>
                </mask>
                <g id="矩形"></g>
            </g>
            <g id="编组-34备份" transform="translate(57.827160, 36.500000)">
                <text id="视觉交互-文本交互-语音交互" font-family="PingFangSC-Regular, PingFang SC" font-size="14" font-weight="normal" fill="#1A1A1A" fill-opacity="0.65">
                    <tspan x="149.5" y="100">视觉交互</tspan>
                    <tspan x="149.5" y="120">文本交互</tspan>
                    <tspan x="149.5" y="140">语音交互</tspan>
                </text>
                <g id="编组" filter="url(#filter-3)" transform="translate(112.000000, 0.000000)">
                    <path d="M14,0 L858,0 C865.731986,-3.19669972e-15 872,6.2680135 872,14 L872,374 C872,381.731986 865.731986,388 858,388 L12,388 C5.372583,388 8.11624501e-16,382.627417 0,376 L0,14 C-9.46895252e-16,6.2680135 6.2680135,1.42034288e-15 14,0 Z" id="矩形" fill="#F2F4F5"></path>
                    <path d="M12,0 L860,0 C866.627417,-2.99379359e-15 872,5.372583 872,12 L872,37.6351039 L872,37.6351039 L0,37.6351039 L0,12 C-2.58798134e-15,5.372583 5.372583,-5.58920087e-16 12,0 Z" id="矩形备份" fill="#FFFFFF"></path>
                </g>
                <rect id="矩形" fill="#E6E6E6" x="868" y="16" width="91" height="8" rx="4"></rect>
                <g id="编组-7" transform="translate(126.000000, 4.000000)">
                    <g id="编组-6" transform="translate(108.000000, 0.000000)">
                        <rect id="矩形" fill="#2B58F9" x="0" y="0" width="79" height="30" rx="4"></rect>
                        <g id="编组-5" transform="translate(4.000000, 8.000000)">
                            <text id="百应科技" font-family="PingFangSC-Regular, PingFang SC" font-size="10" font-weight="normal" fill="#FFFFFF" fill-opacity="0.9">
                                <tspan x="9" y="11">百应科技</tspan>
                            </text>
                            <g id="编组-3" transform="translate(57.000000, 5.000000)" stroke="#BFC3FF" stroke-linecap="round">
                                <g id="编组-2">
                                    <line x1="0" y1="0" x2="6" y2="6" id="路径-6"></line>
                                    <line x1="0" y1="0" x2="6" y2="6" id="路径-6备份" transform="translate(3.000000, 3.000000) scale(-1, 1) translate(-3.000000, -3.000000) "></line>
                                </g>
                            </g>
                        </g>
                    </g>
                    <g id="编组-4" transform="translate(72.000000, 0.000000)">
                        <rect id="矩形" fill="#F2F4F5" x="0" y="0" width="30" height="30" rx="4"></rect>
                        <g id="首页" transform="translate(9.000000, 7.000000)" fill-rule="nonzero">
                            <rect id="矩形" fill="#000000" opacity="0" x="4" y="0" width="6" height="6"></rect>
                            <g id="形状-2" transform="translate(0.000000, 3.000000)" fill="#5A5A5A">
                                <path d="M12.7144494,5.69297662 C12.8957057,5.87348762 12.9906495,6.07204971 12.9992807,6.28866291 C13.007912,6.50527611 12.938862,6.68578711 12.7921307,6.83019591 C12.6281369,6.98363026 12.4382494,7.05583466 12.2224681,7.04680911 C12.0066868,7.03778356 11.8340618,6.97460471 11.7045931,6.85727256 C11.6614368,6.82117036 11.5298102,6.69481266 11.3097133,6.47819946 C11.0896164,6.26158626 10.8263633,6.0021017 10.5199538,5.69974578 C10.2135444,5.39738985 9.88555688,5.07247005 9.53599121,4.72498638 C9.18642554,4.37750271 8.85628018,4.05032652 8.54555514,3.74345782 C8.2348301,3.43658912 7.96726132,3.1703354 7.74284879,2.94469665 C7.51843626,2.7190579 7.37602061,2.57916187 7.31560186,2.52500857 C7.03940182,2.26326763 6.76751741,2.13690993 6.49994862,2.14593548 C6.23237984,2.15496103 5.96912668,2.28131873 5.71018914,2.52500857 C5.62387663,2.60623852 5.46204067,2.76192926 5.22468127,2.99208079 C4.98732186,3.22223231 4.71327964,3.49074242 4.4025546,3.79761112 C4.09182956,4.10447982 3.76384201,4.42488684 3.41859197,4.75883219 C3.07334192,5.09277754 2.75398563,5.40415902 2.46052309,5.69297662 C2.16706055,5.98179421 1.91459646,6.22774045 1.7031308,6.43081533 C1.49166515,6.6338902 1.3643542,6.75347874 1.32119794,6.78958094 C1.19172917,6.89788754 1.01910415,6.95655361 0.803322874,6.96557916 C0.587541595,6.97460471 0.401969696,6.90691309 0.246607175,6.76250429 C0.0739821526,6.60004439 -0.0080147332,6.40373868 0.000616517938,6.17358715 C0.00924776907,5.94343563 0.0826134037,5.76066824 0.220713422,5.62528499 C0.272500929,5.57113169 0.432179075,5.41318457 0.69974786,5.15144362 C0.967316645,4.88970267 1.28667294,4.57832119 1.65781674,4.21729919 C2.02896053,3.8562772 2.4281559,3.46817855 2.85540283,3.05300325 C3.28264976,2.63782795 3.67968731,2.2497293 4.04651549,1.8887073 C4.41334366,1.5276853 4.72838433,1.21856022 4.99163749,0.961332042 C5.25489065,0.704103868 5.40809957,0.552925906 5.45126425,0.507798156 C5.7792518,0.173852807 6.13313309,0.00462374486 6.51290814,0.000110969877 C6.89268319,-0.00440180511 7.21635511,0.128725057 7.4839239,0.399491556 C7.5357114,0.444619306 7.64360204,0.550669518 7.80759581,0.717642193 C7.97158959,0.884614867 8.17226617,1.08768974 8.40962558,1.32686682 C8.64698499,1.56604389 8.91239596,1.834554 9.2058585,2.13239715 C9.49932104,2.4302403 9.7970992,2.73033984 10.099193,3.03269576 C10.4012868,3.33505169 10.6969071,3.63515122 10.986054,3.93299437 C11.275201,4.23083752 11.5406119,4.49934763 11.782287,4.73852471 C12.023962,4.97770178 12.2267964,5.18303304 12.3907902,5.35451849 L12.7144494,5.69297662 Z M5.71020179,3.7299195 C5.92598307,3.52233185 6.1849206,3.41176886 6.48701439,3.39823053 C6.78910818,3.38469221 7.06099259,3.4952552 7.30266762,3.7299195 C7.32856138,3.75699615 7.40624264,3.83371332 7.5357114,3.96007102 L8.02769272,4.43391239 C8.21758024,4.62344894 8.43120371,4.83554937 8.66856311,5.07021367 C8.90592252,5.30487797 9.14975537,5.53954227 9.40006165,5.77420657 C9.97835547,6.33379066 10.6256993,6.96106639 11.3420932,7.65603373 L11.3420932,10.2283155 C11.3420932,10.4268776 11.2708853,10.6028758 11.1284697,10.7563102 C10.986054,10.9097445 10.7940045,10.9909745 10.552321,11 L8.10537398,11 L8.10537398,8.90155963 C8.10537398,8.60371648 7.97158959,8.45479491 7.7040208,8.45479491 L5.23115471,8.45479491 C5.08442344,8.45479491 4.98300624,8.49992266 4.9269031,8.59017816 C4.87079997,8.68043366 4.84274841,8.78422748 4.84274841,8.90155963 C4.84274841,8.95571293 4.84059059,9.09335257 4.83627497,9.31447854 C4.83195934,9.53560452 4.82980153,9.7725252 4.82980153,10.0252406 L4.82980153,11 L2.46052309,11 C2.21021681,11 2.01169803,10.9413339 1.86496676,10.8240018 C1.71823549,10.7066696 1.64486986,10.539697 1.64486986,10.3230838 L1.64486986,7.62895708 C2.35263245,6.95204084 2.99566066,6.33830344 3.57395449,5.78774489 C3.81562952,5.55308059 4.05730455,5.32067268 4.29897958,5.09052115 C4.54065462,4.86036963 4.76075152,4.65052559 4.9592703,4.46098904 C5.15778907,4.27145249 5.32394066,4.11124898 5.45772505,3.98037851 C5.59150944,3.84950803 5.67566414,3.7660217 5.71018914,3.7299195 L5.71020179,3.7299195 Z" id="形状"></path>
                            </g>
                        </g>
                    </g>
                    <rect id="矩形" fill="#F2F4F5" x="193" y="0" width="30" height="30" rx="4"></rect>
                    <g id="加" transform="translate(202.000000, 9.000000)" fill-rule="nonzero">
                        <rect id="矩形" fill="#000000" opacity="0" x="0" y="0" width="12" height="12"></rect>
                        <polygon id="路径" fill="#5A5A5A" points="6.79999537 5.19999352 6.79999537 1.2 5.19999352 1.2 5.19999352 5.20000463 1.2 5.20000463 1.2 6.79999537 5.20000463 6.79999537 5.20000463 10.8 6.79999537 10.8 6.79999537 6.79999537 10.8 6.79999537 10.8 5.19999352"></polygon>
                    </g>
                    <circle id="椭圆形" stroke="#D84840" stroke-width="0.5" fill="#FC6157" cx="5" cy="16" r="4.75"></circle>
                    <circle id="椭圆形备份" stroke="#E3A71E" stroke-width="0.5" fill="#FEBD2C" cx="23" cy="16" r="4.75"></circle>
                    <circle id="椭圆形备份-2" stroke="#289534" stroke-width="0.5" fill="#2FC840" cx="41" cy="16" r="4.75"></circle>
                </g>
                <g id="编组-32" transform="translate(199.000000, 74.000000)">
                    <g id="编组-31">
                        <g id="矩形">
                            <use fill="black" fill-opacity="1" filter="url(#filter-5)" xlink:href="#path-4"></use>
                            <use fill="#FFFFFF" fill-rule="evenodd" xlink:href="#path-4"></use>
                        </g>
                        <path d="M12,0 L330,0 C336.627417,-1.21743675e-15 342,5.372583 342,12 L342,38 L342,38 L0,38 L0,12 C-8.11624501e-16,5.372583 5.372583,1.21743675e-15 12,0 Z" id="矩形备份" fill="#DEEAFF"></path>
                        <g id="编组-10" transform="translate(105.000000, 9.000000)">
                            <text id="非结构化数据感知" font-family="PingFangSC-Semibold, PingFang SC" font-size="14" font-weight="500" fill="#2B58F9">
                                <tspan x="22" y="15">非结构化数据感知</tspan>
                            </text>
                            <g id="vcs-视觉计算服务" transform="translate(0.000000, 2.000000)" fill-rule="nonzero">
                                <rect id="矩形" fill="#000000" opacity="0" x="0" y="0" width="16" height="16"></rect>
                                <path d="M14.6366719,5.05332813 C14.7623843,4.85327806 14.8315031,4.62288562 14.8366719,4.38667187 C14.8366719,3.11 12.77,2.03332812 9.93332812,1.69 C9.9734877,1.83451706 9.99587686,1.98339157 10,2.13332812 C9.99713071,2.36095132 9.95542218,2.58641409 9.87667187,2.8 C10.7451869,2.89963749 11.5975474,3.10908655 12.4133281,3.42332812 C13.4133281,3.83332812 13.7133281,4.25667187 13.7133281,4.36332812 C13.7133281,4.47 13.4066719,4.89667187 12.4133281,5.30667187 C11.5655159,5.63458945 10.6776376,5.84758881 9.77332812,5.94 C9.50918139,5.97313962 9.2457735,5.87326664 9.07,5.67332812 C8.66922073,5.22194882 8.02644512,5.07409766 7.46872671,5.30500345 C6.91100831,5.53590924 6.56085782,6.09485027 6.59643688,6.69742926 C6.63201594,7.30000825 7.04550911,7.81386021 7.62652508,7.97752984 C8.20754105,8.14119947 8.82845147,7.91873442 9.17332812,7.42332812 C9.30930801,7.23351304 9.5208645,7.11193075 9.75332812,7.09 C10.5641298,7.0090642 11.3647901,6.84714719 12.1433281,6.60667188 C12.1758763,6.59500677 12.2122354,6.60557161 12.2334641,6.63286266 C12.2546929,6.66015371 12.2559868,6.69799446 12.2366719,6.72667188 L8.10332812,13.22 C8.0805659,13.2549329 8.04169443,13.2759996 8,13.2759996 C7.95830557,13.2759996 7.9194341,13.2549329 7.89667187,13.22 L3.78,6.74 C3.76189892,6.71187596 3.76320367,6.6754598 3.78327106,6.64870329 C3.80333844,6.62194678 3.83793262,6.6104977 3.87,6.62 C4.49098705,6.8117169 5.12636053,6.95328083 5.77,7.04332812 C5.74497768,6.90693457 5.73159616,6.76866063 5.73,6.63 C5.73,6.383 5.77067187,6.13734375 5.85,5.90332812 C5.0801978,5.8024527 4.32498058,5.611131 3.6,5.33332812 C2.6,4.92332812 2.3,4.49999194 2.3,4.39 C2.3,4.28 2.60667187,3.86 3.6,3.45 C4.56834593,3.08413351 5.58432801,2.85960572 6.61667187,2.78332812 C6.84026004,2.75968029 7.06333215,2.83242181 7.23,2.98332812 C7.51670423,3.24853096 7.9194844,3.34797076 8.29667187,3.24667188 C8.6960997,3.14283562 9.00605855,2.82774941 9.10332812,2.42667188 C9.19348618,2.08499681 9.11960926,1.72082464 8.9034317,1.44129361 C8.68725415,1.16176259 8.35336746,0.998671056 8,0.999991941 C7.67824414,0.999333839 7.37193425,1.1379026 7.16,1.38 C7.01638526,1.52572701 6.82417828,1.61352712 6.62,1.62667187 C3.50667187,1.88667187 1.16667188,3.02332812 1.16667188,4.38 C1.16864637,4.6249562 1.24032629,4.86428672 1.37332813,5.07 L7.52332812,14.7366719 C7.62759592,14.8988659 7.8071823,14.9969112 8,14.9969112 C8.1928177,14.9969112 8.37240408,14.8988659 8.47667187,14.7366719 L14.61,5.1 L14.61,5.08332812 L14.6366719,5.05332813 Z" id="路径" fill="#2B58F9"></path>
                            </g>
                        </g>
                    </g>
                    <g id="编组-26" transform="translate(363.932329, 0.000000)">
                        <g id="矩形备份-2">
                            <use fill="black" fill-opacity="1" filter="url(#filter-7)" xlink:href="#path-6"></use>
                            <use fill="#FFFFFF" fill-rule="evenodd" xlink:href="#path-6"></use>
                        </g>
                        <g id="编组-23" transform="translate(29.067671, 51.000000)">
                            <rect id="矩形备份-16" fill-opacity="0.0524424306" fill="#F66600" x="7.10542736e-15" y="22.1009836" width="83" height="131.099016" rx="6"></rect>
                            <text id="企业微信-小程序-APP-官网-小程序" font-family="PingFangSC-Regular, PingFang SC" font-size="8" font-weight="normal" line-spacing="14" fill="#333333">
                                <tspan x="27" y="34.3763934">企业微信</tspan>
                                <tspan x="31" y="48.3763934">小程序</tspan>
                                <tspan x="35.236" y="62.3763934">APP</tspan>
                                <tspan x="35" y="76.3763934">官网</tspan>
                                <tspan x="31" y="90.3763934">小程序</tspan>
                                <tspan x="23" y="104.376393">微信公众号</tspan>
                                <tspan x="35" y="118.376393">门店</tspan>
                                <tspan x="27" y="132.376393">自有商城</tspan>
                            </text>
                            <rect id="矩形备份-11" stroke="#F66600" fill="#FFFFFF" x="0.5" y="0.5" width="81.7876712" height="17.082623" rx="8.54131148"></rect>
                            <g id="编组-20" transform="translate(18.469692, 2.541311)">
                                <text id="业务数据" font-family="PingFangSC-Regular, PingFang SC" font-size="9" font-weight="normal" line-spacing="13" fill="#000000">
                                    <tspan x="9.85554296" y="10">业务数据</tspan>
                                </text>
                                <g id="业务" transform="translate(0.000000, 2.481639)" fill="#F66600" fill-rule="nonzero">
                                    <g id="形状-3">
                                        <path d="M2.44897959,3.01377711 L5.3877551,3.01377711 L5.3877551,3.51608213 L2.44897959,3.51608213 L2.44897959,3.01377711 Z M2.44897959,1.50689739 L5.3877551,1.50689739 L5.3877551,2.00918474 L2.44897959,2.00918474 L2.44897959,1.50689739 L2.44897959,1.50689739 Z M1.95918367,0 L5.87754241,0 L5.87754241,0.502305015 L1.95918367,0.502305015 L1.95918367,0 L1.95918367,0 Z M3.91837596,5.52525804 L3.91837596,4.52066567 L4.40817187,4.52066567 L4.40817187,6.02755423 L2.44897959,6.02755423 L2.44897959,4.52066567 L2.93878412,4.52066567 L2.93878412,5.52525804 L3.91836735,5.52525804 L3.91837596,5.52525804 Z M1.95918367,4.52066567 L2.4489882,4.52066567 L2.4489882,5.02296186 L0,5.02296186 L0,4.52065684 L0.489795918,4.52065684 L0.489795918,1.00461003 L0.979591837,1.00461003 L0.979591837,4.5206745 L1.46937915,4.5206745 L1.46937915,1.50689739 L0.979591837,1.50689739 L0.979591837,1.00459237 L1.46937915,1.00459237 L1.46937915,1.7658816e-05 L1.95918367,1.7658816e-05 L1.95918367,4.5206745 L1.95918367,4.52066567 Z M5.87754241,4.52066567 L5.87754241,8.82940776e-06 L6.36734694,8.82940776e-06 L6.36734694,4.52066567 L6.85713425,4.52066567 L6.85713425,5.02296186 L4.40816327,5.02296186 L4.40816327,4.52065684 L5.87754241,4.52065684 L5.87754241,4.52066567 Z M6.36734694,7.53443396 L6.36734694,5.02296186 L6.85713425,5.02296186 L6.85713425,8.03672131 L8.60967702e-06,8.03672131 L8.60967702e-06,5.02296186 L0.489804528,5.02296186 L0.489804528,7.53443396 L6.36733833,7.53443396 L6.36734694,7.53443396 Z" id="形状"></path>
                                    </g>
                                </g>
                            </g>
                        </g>
                        <g id="编组-24" transform="translate(133.067671, 51.000000)">
                            <rect id="矩形备份-18" fill-opacity="0.0524424306" fill="#F66600" x="0" y="22.1452145" width="83" height="131" rx="6"></rect>
                            <text id="会员数据-电商订单-POS数据-商品-营" font-family="PingFangSC-Regular, PingFang SC" font-size="8" font-weight="normal" line-spacing="14" fill="#333333">
                                <tspan x="26" y="34.4488449">会员数据</tspan>
                                <tspan x="26" y="48.4488449">电商订单</tspan>
                                <tspan x="25.836" y="62.4488449">POS数据</tspan>
                                <tspan x="34" y="76.4488449">商品</tspan>
                                <tspan x="18" y="90.4488449">营销活动网站</tspan>
                                <tspan x="26" y="104.448845">客户调研</tspan>
                            </text>
                            <rect id="矩形备份-12" stroke="#F66600" fill="#FFFFFF" x="0.630136986" y="0.5" width="81.7876712" height="17.1188119" rx="8.55940594"></rect>
                            <g id="编组-18" transform="translate(18.316390, 2.559406)">
                                <text id="渠道数据" font-family="PingFangSC-Regular, PingFang SC" font-size="9" font-weight="normal" line-spacing="13" fill="#000000">
                                    <tspan x="10.9854045" y="10">渠道数据</tspan>
                                </text>
                                <g id="渠道" transform="translate(0.000000, 2.472451)" fill="#F66600" fill-rule="nonzero">
                                    <path d="M7.92710706,5.13503913 L6.87813212,5.13503913 L6.87813212,3.68819399 L4.33371298,3.68819399 L4.33371298,2.91776615 L5.37129841,2.91776615 C5.41116173,2.91776615 5.44419134,2.88566499 5.44419134,2.84439207 L5.44419134,0.07337408 C5.44419134,0.03324763 5.41230068,0 5.37129841,0 L2.61731207,0 C2.57744875,0 2.54441913,0.03210116 2.54441913,0.07337408 L2.54441913,2.84553854 C2.54441913,2.88566499 2.57630979,2.91891262 2.61731207,2.91891262 L3.67767654,2.91891262 L3.67767654,3.68934046 L1.12186788,3.68934046 L1.12186788,5.1361856 L0.0728929385,5.1361856 C0.0330296128,5.1361856 0,5.16828676 0,5.20955968 L0,7.98172414 C0,8.02185059 0.0318906606,8.05509822 0.0728929385,8.05509822 L2.82687927,8.05509822 C2.8667426,8.05509822 2.89977221,8.02299706 2.89977221,7.98172414 L2.89977221,5.20726674 C2.89977221,5.16714029 2.86788155,5.13389266 2.82687927,5.13389266 L1.77790433,5.13389266 L1.77790433,4.34741424 L6.22209567,4.34741424 L6.22209567,5.13389266 L5.17312073,5.13389266 C5.1332574,5.13389266 5.10022779,5.16599382 5.10022779,5.20726674 L5.10022779,7.9794312 C5.10022779,8.01955765 5.13211845,8.05280528 5.17312073,8.05280528 L7.92710706,8.05280528 C7.96697039,8.05280528 8,8.02070412 8,7.9794312 L8,5.20726674 C7.99886105,5.16714029 7.96697039,5.13503913 7.92710706,5.13503913 L7.92710706,5.13503913 Z M3.27334852,0.7337408 L4.71412301,0.7337408 L4.71412301,2.18402535 L3.27334852,2.18402535 L3.27334852,0.7337408 Z M2.16970387,7.31906448 L0.728929385,7.31906448 L0.728929385,5.86877993 L2.16970387,5.86877993 L2.16970387,7.31906448 Z M7.26993166,7.31906448 L5.82915718,7.31906448 L5.82915718,5.86877993 L7.26993166,5.86877993 L7.26993166,7.31906448 Z" id="形状"></path>
                                </g>
                            </g>
                        </g>
                        <g id="编组-25" transform="translate(242.067671, 51.000000)">
                            <rect id="矩形备份-19" fill-opacity="0.0524424306" fill="#F66600" x="0" y="22.0721311" width="83" height="130.927869" rx="6"></rect>
                            <text id="互联网数据-运营商数据-数据服务-行业模" font-family="PingFangSC-Regular, PingFang SC" font-size="8" font-weight="normal" line-spacing="14" fill="#333333">
                                <tspan x="22" y="34.2229508">互联网数据</tspan>
                                <tspan x="22" y="48.2229508">运营商数据</tspan>
                                <tspan x="26" y="62.2229508">数据服务</tspan>
                                <tspan x="18" y="76.2229508">行业模型标签</tspan>
                                <tspan x="18" y="90.2229508">各类线下数据</tspan>
                                <tspan x="21.08" y="104.222951">DMP数据包</tspan>
                            </text>
                            <rect id="矩形备份-13" stroke="#F66600" fill="#FFFFFF" x="0.712328767" y="0.5" width="81.7876712" height="17.0590164" rx="8.5295082"></rect>
                            <g id="编组-19" transform="translate(18.794818, 2.331312)">
                                <text id="外部数据" font-family="PingFangSC-Regular, PingFang SC" font-size="9" font-weight="normal" line-spacing="13" fill="#000000">
                                    <tspan x="11" y="10">外部数据</tspan>
                                </text>
                                <g id="运营商" transform="translate(0.000000, 2.486885)" fill="#F66600" fill-rule="nonzero">
                                    <path d="M4.99353169,7.00288525 C4.65717982,7.00288525 4.31047865,6.95272131 4,6.85740984 C3.26520052,6.63668852 2.76843467,6.21029508 2.47347995,5.8942623 L2.7839586,5.62839344 C3.03751617,5.90931148 3.47736093,6.28052459 4.11901682,6.47616393 C4.39327296,6.56144262 4.69340233,6.60157377 4.98835705,6.60157377 C5.7542044,6.60157377 6.36481242,6.31062295 6.74256145,6.06481967 L6.9702458,6.40091803 C6.55109961,6.67681967 5.86287193,7.00288525 4.99353169,7.00288525 Z" id="路径"></path>
                                    <path d="M4,7.75534426 C3.06856404,7.75534426 2.16300129,7.43931148 1.44890039,6.86744262 L1.41267788,6.83734426 L1.67141009,6.52632787 L1.7076326,6.55642623 C2.34928849,7.07311475 3.16170763,7.35403279 3.99482536,7.35403279 C5.90426908,7.35403279 7.58085382,5.72872131 7.58085382,3.87767213 C7.58085382,1.96140984 5.97153946,0.401311475 3.99482536,0.401311475 C2.01811125,0.401311475 0.413971539,1.96140984 0.413971539,3.87767213 C0.413971539,4.02816393 0.424320828,4.18367213 0.445019405,4.33416393 L0.0362225097,4.38432787 C0.0155239327,4.21878689 0,4.04822951 0,3.87767213 C0,1.74068852 1.79560155,0 4,0 C6.20439845,0 8,1.74068852 8,3.87767213 C8,4.90101639 7.56532988,5.87419672 6.77878396,6.62163934 C6.0232859,7.344 5.00905563,7.75534426 4,7.75534426 Z" id="路径"></path>
                                    <path d="M3.83441138,2.07678689 C2.94437257,2.07678689 2.1164295,1.65039344 1.614489,0.93304918 L1.95601552,0.707311475 C2.38033635,1.31429508 3.07891332,1.67547541 3.82923674,1.67547541 C4.62095731,1.67547541 5.34023286,1.28419672 5.7542044,0.637081967 L6.10608021,0.847770492 C5.61966365,1.61527869 4.77102199,2.07678689 3.83441138,2.07678689 Z M0.276944534,3.35792674 L0.278187662,2.95661527 L7.61065855,2.97848361 L7.60941543,3.37979508 L0.276944534,3.35792674 Z" id="形状"></path>
                                    <path d="M6.41655886,5.68859016 L6.01293661,5.59829508 C6.1164295,5.16186885 6.16817594,4.70036066 6.16817594,4.22881967 C6.16817594,3.20547541 5.92496766,2.24734426 5.47994825,1.53 C5.05562743,0.842754098 4.50711514,0.46652459 3.93272962,0.46652459 C2.76326003,0.46652459 1.78007762,2.00655738 1.70245796,3.97298361 L1.28848642,3.95793443 C1.32988357,2.91954098 1.614489,1.95639344 2.08538163,1.23403279 C2.57697283,0.48157377 3.23415265,0.0652131148 3.93272962,0.0652131148 C4.66235446,0.0652131148 5.33505821,0.511672131 5.83699871,1.32432787 C6.31824062,2.10186885 6.58214748,3.1352459 6.58214748,4.22881967 C6.58214748,4.73547541 6.52522639,5.22206557 6.41655886,5.68859016 L6.41655886,5.68859016 Z" id="路径"></path>
                                    <path d="M3.62742561,0.401311475 L4.04139715,0.401311475 L4.04139715,4.27396721 L3.62742561,4.27396721 L3.62742561,0.401311475 Z M0.532988357,8.02622951 L0.372574386,4.79065574 L3.88098318,4.92108197 L2.64424321,6.06983607 L2.35963777,5.77888525 L2.89262613,5.2822623 L0.812419146,5.20701639 L0.905562743,7.12829508 L1.614489,6.47114754 L1.89909444,6.75708197 L0.532988357,8.02622951 Z" id="形状"></path>
                                </g>
                            </g>
                        </g>
                        <path d="M12.0676706,0 L330.067671,0 C336.695088,-1.21743675e-15 342.067671,5.372583 342.067671,12 L342.067671,38 L342.067671,38 L0.0676706459,38 L0.0676706459,12 C0.0676706459,5.372583 5.44025365,1.21743675e-15 12.0676706,0 Z" id="矩形备份" fill="#FFEACF"></path>
                        <g id="编组-11" transform="translate(111.067671, 11.000000)" fill="#C87103">
                            <text id="结构化数据采集" font-family="PingFangSC-Semibold, PingFang SC" font-size="14" font-weight="500">
                                <tspan x="19.0095625" y="15">结构化数据采集</tspan>
                            </text>
                            <g id="结构设计" transform="translate(0.000000, 4.498281)" fill-rule="nonzero">
                                <path d="M0.5323125,3 L12.5010625,3 C12.7772031,3 13.0010625,2.77614063 13.0010625,2.5 L13.0010625,0.5 C13.0010625,0.223859375 12.7772031,0 12.5010625,0 L0.5323125,0 C0.256171875,0 0.0323125,0.223859375 0.0323125,0.5 L0.0323125,2.5 C0.0323125,2.77614063 0.256171875,3 0.5323125,3 Z M1.0323125,1 L12.0010625,1 L12.0010625,2 L1.0323125,2 L1.0323125,1 Z M0.5,5.74309375 L6.00117187,5.74309375 L6.00117187,6.2680625 C6.00117187,6.54420313 6.22503125,6.7680625 6.50117187,6.7680625 C6.7773125,6.7680625 7.00117187,6.54420313 7.00117187,6.2680625 L7.00117187,5.74309375 L12.4136562,5.74309375 C12.6897969,5.74309375 12.9136562,5.51923438 12.9136562,5.24309375 C12.9136562,4.96695313 12.6897969,4.74309375 12.4136562,4.74309375 L7.00117187,4.74309375 L7.00117187,4.27059375 C7.00117187,3.99445313 6.7773125,3.77059375 6.50117187,3.77059375 C6.22503125,3.77059375 6.00117187,3.99445313 6.00117187,4.27059375 L6.00117187,4.74309375 L0.5,4.74309375 C0.223859375,4.74309375 0,4.96695313 0,5.24309375 C0,5.51923438 0.223859375,5.74309375 0.5,5.74309375 Z M2.99257812,7.498625 L0.523828125,7.498625 C0.2476875,7.498625 0.023828125,7.72248438 0.023828125,7.998625 L0.023828125,10.498625 C0.023828125,10.7747656 0.2476875,10.998625 0.523828125,10.998625 L2.99257812,10.998625 C3.26871875,10.998625 3.49257812,10.7747656 3.49257812,10.498625 L3.49257812,7.998625 C3.49257812,7.72248438 3.26871875,7.498625 2.99257812,7.498625 Z M2.49257812,9.998625 L1.02382813,9.998625 L1.02382813,8.498625 L2.49257812,8.498625 L2.49257812,9.998625 Z M7.7510625,7.498625 L5.2823125,7.498625 C5.00617187,7.498625 4.7823125,7.72248438 4.7823125,7.998625 L4.7823125,10.498625 C4.7823125,10.7747656 5.00617187,10.998625 5.2823125,10.998625 L7.7510625,10.998625 C8.02720312,10.998625 8.2510625,10.7747656 8.2510625,10.498625 L8.2510625,7.998625 C8.2510625,7.72248438 8.02720312,7.498625 7.7510625,7.498625 Z M7.2510625,9.998625 L5.7823125,9.998625 L5.7823125,8.498625 L7.2510625,8.498625 L7.2510625,9.998625 Z M12.5095625,7.498625 L10.0408125,7.498625 C9.76467187,7.498625 9.5408125,7.72248438 9.5408125,7.998625 L9.5408125,10.498625 C9.5408125,10.7747656 9.76467187,10.998625 10.0408125,10.998625 L12.5095625,10.998625 C12.7857031,10.998625 13.0095625,10.7747656 13.0095625,10.498625 L13.0095625,7.998625 C13.0095625,7.72248438 12.7857031,7.498625 12.5095625,7.498625 Z M12.0095625,9.998625 L10.5408125,9.998625 L10.5408125,8.498625 L12.0095625,8.498625 L12.0095625,9.998625 Z" id="形状"></path>
                            </g>
                        </g>
                    </g>
                </g>
                <g id="编组-22" transform="translate(19.345679, 373.000000)">
                    <g id="矩形备份-4">
                        <use fill="black" fill-opacity="1" filter="url(#filter-9)" xlink:href="#path-8"></use>
                        <use fill="#FFFFFF" fill-rule="evenodd" xlink:href="#path-8"></use>
                    </g>
                    <path d="M10,0 L1048,0 C1053.52285,-1.01453063e-15 1058,4.4771525 1058,10 L1058,38 L1058,38 L0,38 L0,10 C-6.76353751e-16,4.4771525 4.4771525,-2.53818305e-15 10,0 Z" id="矩形备份-5" fill="#2B84FF"></path>
                    <text id="增强型用户画像洞察（CDP+）" font-family="PingFangSC-Semibold, PingFang SC" font-size="16" font-weight="500" fill="#FFFFFF">
                        <tspan x="439.958321" y="25">增强型用户画像洞察（CDP+）</tspan>
                    </text>
                    <rect id="矩形" fill-opacity="0.075743882" fill="#2B58F9" x="25.654321" y="54.1086957" width="233" height="135.891304" rx="12"></rect>
                    <rect id="矩形备份-6" fill-opacity="0.075743882" fill="#2B58F9" x="285.654321" y="53.0869565" width="233" height="135.891304" rx="12"></rect>
                    <text id="构建完善、动态、智能推荐用户标签体系" font-family="PingFangSC-Regular, PingFang SC" font-size="9" font-weight="normal" fill="#5A5A5A">
                        <tspan x="322.654321" y="158">构建完善、动态、智能推荐用户标签体系</tspan>
                    </text>
                    <text id="用户画像" font-family="PingFangSC-Semibold, PingFang SC" font-size="14" font-weight="500" fill="#000000">
                        <tspan x="374.154321" y="138">用户画像</tspan>
                    </text>
                    <rect id="矩形备份-7" fill-opacity="0.075743882" fill="#2B58F9" x="541.987654" y="51.0434783" width="233" height="135.891304" rx="12"></rect>
                    <text id="以强大运算能力，多种业务分析模型助力科学" font-family="PingFangSC-Regular, PingFang SC" font-size="9" font-weight="normal" fill="#5A5A5A">
                        <tspan x="559.487654" y="158">以强大运算能力，多种业务分析模型助力科学决策</tspan>
                    </text>
                    <text id="多模型预测" font-family="PingFangSC-Semibold, PingFang SC" font-size="14" font-weight="500" fill="#000000">
                        <tspan x="623.487654" y="138">多模型预测</tspan>
                    </text>
                    <rect id="矩形备份-9" fill-opacity="0.075743882" fill="#2B58F9" x="794.654321" y="49" width="233" height="135.891304" rx="12"></rect>
                    <text id="利用人工智能和自然语言处理等，从文本、语" font-family="PingFangSC-Regular, PingFang SC" font-size="9" font-weight="normal" fill="#5A5A5A">
                        <tspan x="812.154321" y="158">利用人工智能和自然语言处理等，从文本、语音、</tspan>
                        <tspan x="861.654321" y="171">图像视频中提取客户信息</tspan>
                    </text>
                    <text id="非结构化数据挖掘" font-family="PingFangSC-Semibold, PingFang SC" font-size="14" font-weight="500" fill="#000000">
                        <tspan x="855.154321" y="138">非结构化数据挖掘</tspan>
                    </text>
                    <text id="完整的全链路数据采集、构建统一的用户ID" font-family="PingFangSC-Regular, PingFang SC" font-size="9" font-weight="normal" fill="#5A5A5A">
                        <tspan x="47.910821" y="158">完整的全链路数据采集、构建统一的用户ID体系</tspan>
                    </text>
                    <text id="全端数据采集" font-family="PingFangSC-Semibold, PingFang SC" font-size="14" font-weight="500" fill="#000000">
                        <tspan x="97.654321" y="138">全端数据采集</tspan>
                    </text>
                    <circle id="椭圆形" fill="#FFFFFF" cx="139.654321" cy="94" r="22"></circle>
                    <circle id="椭圆形备份-4" fill="#FFFFFF" cx="403.654321" cy="94" r="22"></circle>
                    <circle id="椭圆形备份-5" fill="#FFFFFF" cx="658.487654" cy="94" r="22"></circle>
                    <circle id="椭圆形备份-6" fill="#FFFFFF" cx="911.154321" cy="94" r="22"></circle>
                    <g id="全链路" transform="translate(127.654321, 82.000000)" fill-rule="nonzero">
                        <rect id="矩形" fill="#000000" opacity="0" x="0" y="0" width="24" height="24"></rect>
                        <g id="编组-21" transform="translate(2.049318, 2.003310)" fill="#00B9FF">
                            <path d="M17.3546354,18.4401199 C17.122003,18.4400105 16.8989615,18.3474025 16.7346666,18.1827058 L1.46562754,2.91366674 C1.13864644,2.56909509 1.145751,2.02673765 1.48164572,1.69084929 C1.81754045,1.35496092 2.35989802,1.34786662 2.70446348,1.67485424 L17.9746041,16.946073 C18.2255097,17.1966996 18.3006156,17.5738474 18.1648642,17.9014735 C18.0291129,18.2290996 17.7092721,18.4426019 17.3546354,18.4423233 L17.3546354,18.4401199 Z" id="路径"></path>
                            <path d="M2.08559629,18.4401199 C1.73192578,18.4395114 1.41329113,18.2263566 1.27773916,17.8996934 C1.1421872,17.5730302 1.21629405,17.1969036 1.46562754,16.946073 L16.73469,1.67703393 C17.0767851,1.33464111 17.6316722,1.33439977 17.974065,1.67649487 C18.3164579,2.01858996 18.3166992,2.57347705 17.9746041,2.91586987 L2.70446348,18.1827058 C2.5404384,18.3471327 2.31784676,18.4397184 2.08559629,18.4401199 Z" id="路径"></path>
                            <path d="M9.7201041,13.1649716 C8.37409263,13.165417 7.16037038,12.3549421 6.64496532,11.1115176 C6.12956025,9.86809298 6.41398843,8.43662806 7.36560475,7.48469662 C8.31722107,6.53276518 9.74859174,6.24786308 10.9921869,6.76285643 C12.2357821,7.27784978 13.0466588,8.49130363 13.0466588,9.83731518 C13.0448511,11.6739497 11.556738,13.1625557 9.7201041,13.1649716 L9.7201041,13.1649716 Z M9.7201041,8.26332262 C9.08284001,8.26288695 8.50810323,8.64648885 8.26403354,9.23516169 C8.01996386,9.82383452 8.15465796,10.5015736 8.60527519,10.9521841 C9.05589241,11.4027946 9.73363351,11.5374787 10.3223027,11.2934002 C10.9109719,11.0493218 11.2945653,10.4745793 11.2941201,9.83731518 C11.2935122,8.96826594 10.5891534,8.26391763 9.7201041,8.26332262 L9.7201041,8.26332262 Z" id="形状"></path>
                            <path d="M16.8902213,19.7567217 C15.7705991,19.7571765 14.7609692,19.0830826 14.332193,18.0488172 C13.9034167,17.0145517 14.1399506,15.8238347 14.9314822,15.0319813 C15.7230137,14.2401279 16.9136345,14.00311 17.9480741,14.4314657 C18.9825138,14.8598214 19.6570182,15.8691773 19.6570182,16.9887996 C19.6552115,18.5162925 18.4177134,19.7542938 16.8902213,19.7567217 Z M16.8902213,15.9734161 C16.4794373,15.9729711 16.108854,16.2200784 15.9513449,16.5994655 C15.7938358,16.9788525 15.8804355,17.4157673 16.1707461,17.7063932 C16.4610567,17.9970191 16.8978772,18.0840931 17.2774351,17.9269959 C17.6569929,17.7698987 17.9045025,17.3995838 17.9045025,16.9887996 C17.9038969,16.4287 17.4503198,15.9746304 16.8902213,15.9734161 L16.8902213,15.9734161 Z" id="形状"></path>
                            <path d="M16.8902213,5.53592478 C15.7705991,5.53637961 14.7609692,4.86228569 14.332193,3.82802028 C13.9034167,2.79375486 14.1399506,1.60303784 14.9314822,0.811184447 C15.7230137,0.0193310558 16.9136345,-0.217686858 17.9480741,0.210668856 C18.9825138,0.639024571 19.6570182,1.64838043 19.6570182,2.76800268 C19.6552115,4.29549566 18.4177134,5.53349689 16.8902213,5.53592478 L16.8902213,5.53592478 Z M16.8902213,1.75261926 C16.4794373,1.75217422 16.108854,1.99928155 15.9513449,2.37866861 C15.7938358,2.75805567 15.8804355,3.19497047 16.1707461,3.48559637 C16.4610567,3.77622227 16.8978772,3.86329621 17.2774351,3.706199 C17.6569929,3.5491018 17.9045025,3.17878688 17.9045025,2.76800268 C17.9038969,2.20790315 17.4503198,1.7538335 16.8902213,1.75261926 L16.8902213,1.75261926 Z" id="形状"></path>
                            <path d="M2.77018223,5.53592542 C1.6504644,5.53680631 0.640510879,4.86298313 0.2114023,3.82875172 C-0.217706278,2.7945203 0.0185670451,1.60363042 0.810015427,0.811558299 C1.60146381,0.0194861752 2.79216719,-0.217725248 3.82673633,0.210568439 C4.86130547,0.638862125 5.53592442,1.6482845 5.53592442,2.76800268 C5.53411923,4.29508477 4.29726242,5.53291635 2.77018223,5.53592542 L2.77018223,5.53592542 Z M2.77018223,1.75261987 C2.20940179,1.75261987 1.75479942,2.20722223 1.75479942,2.76800268 C1.75479942,3.32878312 2.20940179,3.78338549 2.77018223,3.78338549 C3.33096267,3.78338549 3.78556504,3.32878312 3.78556504,2.76800268 C3.78495793,2.2074739 3.330711,1.75322698 2.77018223,1.75261987 L2.77018223,1.75261987 Z" id="形状"></path>
                            <path d="M2.77018223,19.7567214 C1.24150119,19.7567214 0.00226035481,18.5174806 0.00226035481,16.9887996 C0.00226035481,15.4601185 1.24150119,14.2208777 2.77018223,14.2208777 C4.29886327,14.2208777 5.5381041,15.4601185 5.5381041,16.9887996 C5.53629602,18.516731 4.29811371,19.7549133 2.77018223,19.7567214 L2.77018223,19.7567214 Z M2.77018223,15.9734167 C2.20940179,15.9734167 1.75479942,16.4280191 1.75479942,16.9887996 C1.75479942,17.54958 2.20940179,18.0041824 2.77018223,18.0041824 C3.33096267,18.0041824 3.78556504,17.54958 3.78556504,16.9887996 C3.78495793,16.4282708 3.330711,15.9740239 2.77018223,15.9734167 Z" id="形状"></path>
                        </g>
                        <path d="M9.31914844,11.840625 C9.31914844,13.1938737 10.4161732,14.2908984 11.7694219,14.2908984 C13.1226705,14.2908984 14.2196953,13.1938737 14.2196953,11.840625 C14.2196953,10.4873763 13.1226705,9.39035156 11.7694219,9.39035156 C10.4161732,9.39035156 9.31914844,10.4873763 9.31914844,11.840625 L9.31914844,11.840625 Z" id="路径" fill="#D3F3FF"></path>
                        <path d="M17.047875,18.9921094 C17.047875,20.0368401 17.8947966,20.8837617 18.9395273,20.8837617 C19.9842581,20.8837617 20.8311797,20.0368401 20.8311797,18.9921094 C20.8311797,17.9473786 19.9842581,17.100457 18.9395273,17.100457 C17.8947966,17.100457 17.047875,17.9473786 17.047875,18.9921094 Z" id="路径" fill="#FFFFFF"></path>
                        <path d="M17.047875,4.7713125 C17.047875,5.81604324 17.8947966,6.66296484 18.9395273,6.66296484 C19.9842581,6.66296484 20.8311797,5.81604324 20.8311797,4.7713125 C20.8311797,3.72658176 19.9842581,2.87966016 18.9395273,2.87966016 C17.8947966,2.87966016 17.047875,3.72658176 17.047875,4.7713125 Z" id="路径" fill="#FFFFFF"></path>
                        <path d="M2.92565625,4.7713125 C2.92565625,5.81603677 3.77257261,6.66295313 4.81729688,6.66295313 C5.86202114,6.66295313 6.7089375,5.81603677 6.7089375,4.7713125 C6.7089375,3.72658823 5.86202114,2.87967188 4.81729688,2.87967188 C3.77257261,2.87967188 2.92565625,3.72658823 2.92565625,4.7713125 Z" id="路径" fill="#FFFFFF"></path>
                        <path d="M2.92565625,18.9921094 C2.92565625,20.0368336 3.77257261,20.88375 4.81729688,20.88375 C5.86202114,20.88375 6.7089375,20.0368336 6.7089375,18.9921094 C6.7089375,17.9473851 5.86202114,17.1004688 4.81729688,17.1004688 C3.77257261,17.1004688 2.92565625,17.9473851 2.92565625,18.9921094 Z" id="路径" fill="#FFFFFF"></path>
                    </g>
                    <g id="用户画像" transform="translate(391.654321, 82.000000)" fill="#00B9FF" fill-rule="nonzero">
                        <rect id="矩形" opacity="0" x="0" y="0" width="24" height="24"></rect>
                        <path d="M12,0 C18.627417,0 24,5.372583 24,12 C24,18.627417 18.627417,24 12,24 C5.372583,24 0,18.627417 0,12 C0,5.372583 5.372583,0 12,0 Z M12,15.3333225 C8.91830851,15.3305404 6.00807429,16.7512129 4.1146875,19.1826563 C6.13407197,21.404194 8.99781154,22.6694946 12,22.6666713 C15.0020528,22.6701707 17.8658894,21.4053124 19.8853125,19.1839922 C17.9927174,16.7514062 15.0821065,15.3300567 12,15.3333225 Z M12,1.33333568 C8.0215662,1.33245942 4.37327445,3.54573711 2.53622361,7.07464352 C0.699172778,10.6035499 0.978701024,14.8615418 3.26132812,18.12 C4.9313091,16.0908899 7.25615594,14.7071121 9.83601562,14.2066641 C7.53381365,13.1833147 6.26173269,10.6885425 6.78556605,8.22420153 C7.30939942,5.75986054 9.4862479,3.99821107 12.0056477,3.9997669 C14.5250475,4.00132272 16.6997186,5.76565942 17.2205079,8.2306455 C17.7412972,10.6956316 16.466136,13.1888307 14.1626719,14.2093359 C16.7421579,14.7075285 19.0674512,16.0889338 20.7386719,18.1159922 C23.0189974,14.8576214 23.2972243,10.6012278 21.460469,7.07373644 C19.6237138,3.54624513 15.9770422,1.33353563 12,1.33333568 L12,1.33333568 Z M12,5.33333198 C10.5686327,5.32987896 9.24450977,6.09151525 8.52782403,7.3305415 C7.81113829,8.56956775 7.81113829,10.0971119 8.52782403,11.3361382 C9.24450977,12.5751644 10.5686327,13.3368007 12,13.3333477 C14.2053566,13.3279976 15.9903254,11.5387029 15.9903254,9.33333198 C15.9903254,7.12797682 14.2053566,5.33868207 12,5.33333198 L12,5.33333198 Z M14.4053438,9.47067187 C14.6611175,9.66654068 14.7402344,10.0172889 14.5933125,10.3039922 L14.5293281,10.4053359 L14.3226563,10.6759922 C13.7209776,11.46237 12.7641574,11.8934349 11.7765049,11.8230794 C10.7888524,11.752724 9.90279754,11.1903819 9.41866406,10.3266562 C9.23825465,10.0055954 9.35227513,9.59907349 9.67333594,9.41866407 C9.99439676,9.23825465 10.4009187,9.35227513 10.5813281,9.67333594 C10.8316729,10.120674 11.2801558,10.4219863 11.7889342,10.4846636 C12.2977125,10.5473408 12.8059149,10.3638842 13.1573438,9.99067969 L13.2639844,9.86533594 L13.4706562,9.59465625 C13.578153,9.45425478 13.7370264,9.36231276 13.9123189,9.33906058 C14.0876114,9.31580839 14.2649606,9.36315116 14.4053438,9.47067187 L14.4053438,9.47067187 Z" id="形状"></path>
                    </g>
                    <g id="数据模型" transform="translate(646.487654, 82.000000)" fill="#00B9FF" fill-rule="nonzero">
                        <rect id="矩形" opacity="0" x="0" y="0" width="24" height="24"></rect>
                        <path d="M19.35,17.9320313 C18.6539062,17.9320313 18.0257812,18.3445313 17.746875,18.9820313 L14.4140625,18.9820313 C14.2757812,18.0445313 13.6078125,17.26875 12.7007813,16.996875 L12.7007813,14.08125 L16.9007812,14.08125 C18.0585937,14.08125 19.0007812,13.1390625 19.0007812,11.98125 C19.0007812,10.8234375 18.0585937,9.88125 16.9007812,9.88125 L7.09921875,9.88125 C5.94140625,9.88125 4.99921875,10.8234375 4.99921875,11.98125 C4.99921875,13.1390625 5.94140625,14.08125 7.09921875,14.08125 L11.2992188,14.08125 L11.2992188,16.9945313 C10.3898437,17.2664063 9.721875,18.0421875 9.5859375,18.9796875 L6.253125,18.9796875 C5.86875,18.09375 4.8375,17.6882813 3.9515625,18.0726563 C3.31171875,18.3515625 2.89921875,18.9820313 2.89921875,19.6804688 C2.9015625,20.6460938 3.68671875,21.4289063 4.65234375,21.4265625 C5.34609375,21.4242188 5.971875,21.0140625 6.25078125,20.38125 L9.796875,20.38125 C10.190625,21.20625 11.0273438,21.7804688 12,21.7804688 C12.9726562,21.7804688 13.809375,21.2039063 14.203125,20.38125 L17.746875,20.38125 C18.13125,21.2671875 19.1625,21.6726563 20.0484375,21.2882813 C20.6882812,21.009375 21.1007813,20.3789063 21.1007813,19.6804688 C21.1007813,18.7148438 20.315625,17.9320313 19.35,17.9320313 L19.35,17.9320313 Z M7.09921875,12.6820313 C6.7125,12.665625 6.4125,12.3375 6.43125,11.9507813 C6.44765625,11.5875 6.73828125,11.2992188 7.09921875,11.2828125 L16.8984375,11.2828125 C17.2851562,11.2992188 17.5851562,11.6273438 17.5664062,12.0140625 C17.55,12.3773438 17.259375,12.665625 16.8984375,12.6820313 L7.09921875,12.6820313 Z M12,20.38125 C11.4210937,20.38125 10.95,19.9101563 10.95,19.33125 C10.95,18.7523438 11.4210937,18.28125 12,18.28125 C12.5789062,18.28125 13.05,18.7523438 13.05,19.33125 C13.05,19.9101563 12.5789062,20.38125 12,20.38125 L12,20.38125 Z M6.75,16.8820313 L8.7515625,16.8820313 C9.13828125,16.8820313 9.45234375,16.5679688 9.45234375,16.18125 C9.45234375,15.7945313 9.13828125,15.4804688 8.7515625,15.4804688 L6.75,15.4804688 C4.62421875,15.478125 2.9015625,13.7554688 2.89921875,11.6296875 C2.88984375,9.73125 4.27265625,8.1140625 6.14765625,7.82578125 L6.56484375,7.76015625 L6.70078125,7.36171875 C7.4765625,5.1 9.60703125,3.57890625 12,3.57890625 C14.3929687,3.57890625 16.5210937,5.09765625 17.2992187,7.36171875 L17.4375,7.76015625 L17.8546875,7.82578125 C19.7296875,8.1140625 21.1125,9.73125 21.103125,11.6296875 C21.103125,13.753125 19.3757812,15.4804688 17.2523437,15.4804688 L15.1242187,15.4804688 C14.7375,15.4804688 14.4234375,15.7945313 14.4234375,16.18125 C14.4234375,16.5679688 14.7375,16.8820313 15.1242187,16.8820313 L17.25,16.8820313 C20.1445312,16.8820313 22.5000614,14.5265625 22.5000614,11.6320313 C22.5117187,9.2015625 20.8453125,7.08515625 18.478125,6.52734375 C17.0085937,2.9484375 12.91875,1.23984375 9.33984375,2.70703125 C7.6078125,3.4171875 6.23203125,4.79296875 5.51953125,6.52734375 C3.1546875,7.0828125 1.48828125,9.2015625 1.49993858,11.6320313 C1.49993858,14.5265625 3.85546875,16.8820313 6.75,16.8820313 Z" id="形状"></path>
                    </g>
                    <g id="富文本编辑器_文本" transform="translate(899.655268, 82.601384)" fill="#00B9FF" fill-rule="nonzero">
                        <rect id="矩形" opacity="0" x="0" y="0" width="22.9981067" height="22.7972326"></rect>
                        <path d="M5.59145253,2.71458875 C6.48346034,2.71458875 7.20613222,3.43859656 7.20613222,4.33060437 L7.20613222,4.39726062 L17.2567885,4.39726062 L17.2567885,6.01327625 L7.20613222,6.01327625 L7.20613222,6.12659656 C7.20613222,7.01860437 6.48346034,7.74127625 5.59145253,7.74127625 L5.23145253,7.74127625 L5.23145253,17.0746044 L5.59145253,17.0746044 C6.48346034,17.0746044 7.20613222,17.7985887 7.20613222,18.69062 L7.20613222,18.801245 L17.2567885,18.801245 L17.2567885,20.4172606 L7.20613222,20.4172606 L7.20613222,20.4852762 C7.20613222,21.3785966 6.48346034,22.1012684 5.59145253,22.1012684 L3.7954369,22.1012684 C2.90345253,22.1012684 2.18078065,21.3772841 2.18078065,20.4852528 L2.18078065,18.6905966 C2.18078065,17.7972762 2.90345253,17.0745809 3.79546034,17.0745809 L3.61679628,17.0745809 L3.61679628,7.74129968 L3.79546034,7.74129968 C2.90345253,7.74129968 2.18078065,7.01862781 2.18078065,6.12662 L2.18078065,4.33060437 C2.18078065,3.43728406 2.90345253,2.71458875 3.79546034,2.71458875 L5.59147597,2.71458875 L5.59145253,2.71458875 Z M18.8727807,7.74127625 C17.9807963,7.74127625 17.258101,7.01726843 17.258101,6.12526062 L17.258101,4.33060437 C17.258101,3.43726062 17.9807963,2.71458875 18.8727807,2.71458875 L20.6674603,2.71458875 C21.5607807,2.71458875 22.283476,3.43859656 22.283476,4.33060437 L22.283476,6.12526062 C22.283476,7.01726843 21.5594447,7.73994031 20.6674603,7.73994031 L20.8474603,7.73994031 L20.8474603,17.0732684 L20.6674603,17.0732684 C21.5607807,17.0732684 22.283476,17.7972528 22.283476,18.6892841 L22.283476,20.4839403 C22.283476,21.3772606 21.5594447,22.0999325 20.6674603,22.0999325 L18.8727572,22.0999325 C17.9807728,22.0999325 17.258101,21.3759481 17.258101,20.4839169 L17.258101,18.6892606 C17.258101,17.7959403 17.9807728,17.073245 18.8727572,17.073245 L19.2314213,17.073245 L19.2314213,7.73996375 L18.8727572,7.73996375 L18.8727807,7.74127625 Z M5.59145253,18.6879012 L3.7954369,18.6879012 L3.7954369,20.4839169 L5.59145253,20.4839169 L5.59145253,18.6892372 L5.59145253,18.6879012 Z M20.6674603,18.6879012 L18.8727572,18.6879012 L18.8727572,20.4839169 L20.6674369,20.4839169 L20.6674369,18.6892372 L20.6674603,18.6879012 Z M15.014101,8.72790125 C15.4472148,8.74552331 15.7892606,9.10176887 15.7892606,9.53524109 C15.7892606,9.96871331 15.4472148,10.3249589 15.014101,10.3425809 L13.0274447,10.3425809 L13.0274447,15.9065731 C13.002728,16.3339893 12.6489148,16.6679331 12.2207846,16.6679331 C11.7926543,16.6679331 11.4388412,16.3339893 11.4141244,15.9065731 L11.4114525,10.3425809 L9.45013222,10.3425809 C9.01701834,10.3249589 8.67497257,9.96871331 8.67497257,9.53524109 C8.67497257,9.10176887 9.01701834,8.74552331 9.45013222,8.72790125 L15.0141244,8.72790125 L15.014101,8.72790125 Z M5.59145253,4.3305575 L3.7954369,4.3305575 L3.7954369,6.12523718 L5.59145253,6.12523718 L5.59145253,4.33058093 L5.59145253,4.3305575 Z M20.6674603,4.3305575 L18.8727572,4.3305575 L18.8727572,6.12523718 L20.6674369,6.12523718 L20.6674369,4.33058093 L20.6674603,4.3305575 Z" id="形状"></path>
                    </g>
                </g>
                <g id="编组-30" transform="translate(222.000000, 125.000000)">
                    <g id="编组-27">
                        <rect id="矩形" stroke="#2B58F9" fill="#FFFFFF" x="0.5" y="0.5" width="81.7876712" height="17" rx="8.5"></rect>
                        <rect id="矩形备份-14" fill-opacity="0.0493915264" fill="#2B58F9" x="0" y="22" width="83" height="130.5" rx="6"></rect>
                        <text id="实体采集-关系提取-语义关系-上下文理解" font-family="PingFangSC-Regular, PingFang SC" font-size="8" font-weight="normal" line-spacing="14" fill="#333333">
                            <tspan x="25" y="34">实体采集</tspan>
                            <tspan x="25" y="48">关系提取</tspan>
                            <tspan x="25" y="62">语义关系</tspan>
                            <tspan x="21" y="76">上下文理解</tspan>
                            <tspan x="25" y="90">情感分析</tspan>
                            <tspan x="25" y="104">主题建模</tspan>
                            <tspan x="25" y="118">摘要生成</tspan>
                        </text>
                        <g id="编组-17" transform="translate(17.928783, 2.000000)">
                            <text id="文本交互" font-family="PingFangSC-Regular, PingFang SC" font-size="9" font-weight="normal" fill="#000000">
                                <tspan x="11" y="10">文本交互</tspan>
                            </text>
                            <g id="文本块" transform="translate(0.000000, 3.242021)" fill="#2B58F9" fill-rule="nonzero">
                                <path d="M6.26422273,5.95487766 L6.12674073,5.95487766 L4.19334293,1.26315236 C4.15897506,1.18580878 4.08162107,1.13425691 3.99570139,1.13425691 C3.90978171,1.13425691 3.83243823,1.18580878 3.79805984,1.26315236 L1.87324876,5.95487766 L1.72718005,5.95487766 C1.64124986,5.95487766 1.56390638,5.99784281 1.53813573,6.07517588 C1.47797618,6.22985253 1.58968754,6.37593195 1.73576676,6.37593195 L2.35446204,6.37593195 C2.45756566,6.37593195 2.55209308,6.30719611 2.56928752,6.20407134 C2.58646095,6.09237035 2.50912798,5.98924557 2.39741663,5.97206162 L2.79269972,5.01825204 L4.52845597,5.01825204 L4.9065341,5.97206162 C4.80343048,5.98925608 4.71748978,6.08378362 4.73468423,6.20407134 C4.75186816,6.3071856 4.84638507,6.37593195 4.94950971,6.37593195 L6.26421222,6.37593195 C6.35014241,6.37593195 6.42748589,6.33296679 6.45325654,6.25563372 C6.5220028,6.10095707 6.41029144,5.95487766 6.26421222,5.95487766 L6.26422273,5.95487766 Z M2.93877894,4.58861103 L3.64339391,2.87002595 L4.34800887,4.58861103 L2.93877894,4.58861103 Z M0.257790577,3.71213453 C0.257790577,3.78087036 0.317939609,3.84101948 0.386685865,3.84101948 C0.455432121,3.84101948 0.515581153,3.78087036 0.515581153,3.71213453 L0.515581153,3.45434361 C0.515581153,3.38560778 0.455421611,3.32544816 0.386685865,3.32544816 C0.317950119,3.32544816 0.257790577,3.38559727 0.257790577,3.45434361 L0.257790577,3.71213453 Z M0.257790577,2.88720991 C0.257790577,2.95594574 0.317939609,3.01610536 0.386685865,3.01610536 C0.455432121,3.01610536 0.515581153,2.95595625 0.515581153,2.88720991 L0.515581153,2.62941899 C0.515581153,2.56068315 0.455421611,2.50053404 0.386685865,2.50053404 C0.317950119,2.50053404 0.257790577,2.56068315 0.257790577,2.62941899 L0.257790577,2.88720991 Z M0.257790577,4.53704864 C0.257790577,4.60578448 0.317939609,4.6659441 0.386685865,4.6659441 C0.455432121,4.6659441 0.515581153,4.60579499 0.515581153,4.53704864 L0.515581153,4.27925773 C0.515581153,4.21052189 0.455421611,4.15037278 0.386685865,4.15037278 C0.317950119,4.15037278 0.257790577,4.21052189 0.257790577,4.27925773 L0.257790577,4.53704864 L0.257790577,4.53704864 Z M0.386685865,2.18258351 C0.455421611,2.18258351 0.515581153,2.1224449 0.515581153,2.05369856 L0.515581153,1.79590764 C0.50698393,1.72717181 0.455421611,1.67560942 0.386685865,1.67560942 C0.317950119,1.67560942 0.257790577,1.73575853 0.257790577,1.80450488 L0.257790577,2.06229579 C0.257790577,2.13103163 0.309342386,2.18259402 0.386685865,2.18259402 L0.386685865,2.18258351 Z M0.257790577,5.36197327 C0.257790577,5.4307091 0.317939609,5.49085821 0.386685865,5.49085821 C0.455432121,5.49085821 0.515581153,5.4307091 0.515581153,5.36197327 L0.515581153,5.10418235 C0.515581153,5.03544651 0.455421611,4.97528689 0.386685865,4.97528689 C0.317950119,4.97528689 0.257790577,5.035436 0.257790577,5.10418235 L0.257790577,5.36197327 Z M0.257790577,6.18688738 C0.257790577,6.26422045 0.309342386,6.31578284 0.386685865,6.31578284 C0.455421611,6.31578284 0.515581153,6.25563372 0.515581153,6.18688738 L0.515581153,5.92909646 C0.515581153,5.86036063 0.455421611,5.80021152 0.386685865,5.80021152 C0.317950119,5.80021152 0.257790577,5.86036063 0.257790577,5.92909646 L0.257790577,6.18688738 Z M7.48440834,3.71213453 C7.48440834,3.78087036 7.54455737,3.84101948 7.61330362,3.84101948 C7.68204988,3.84101948 7.74219891,3.78087036 7.74219891,3.71213453 L7.74219891,3.45434361 C7.74219891,3.38560778 7.68204988,3.32544816 7.61330362,3.32544816 C7.54455737,3.32544816 7.48440834,3.38559727 7.48440834,3.45434361 L7.48440834,3.71213453 Z M7.48440834,2.88720991 C7.48440834,2.95594574 7.54455737,3.01610536 7.61330362,3.01610536 C7.68204988,3.01610536 7.74219891,2.95595625 7.74219891,2.88720991 L7.74219891,2.62941899 C7.74219891,2.56068315 7.68204988,2.50053404 7.61330362,2.50053404 C7.54455737,2.50053404 7.48440834,2.56068315 7.48440834,2.62941899 L7.48440834,2.88720991 Z M7.48440834,4.53704864 C7.48440834,4.60578448 7.54455737,4.6659441 7.61330362,4.6659441 C7.68204988,4.6659441 7.74219891,4.60579499 7.74219891,4.53704864 L7.74219891,4.27925773 C7.74219891,4.21052189 7.68204988,4.15037278 7.61330362,4.15037278 C7.54455737,4.15037278 7.48440834,4.21052189 7.48440834,4.27925773 L7.48440834,4.53704864 L7.48440834,4.53704864 Z M7.6047064,2.18258351 C7.67345266,2.18258351 7.73360169,2.1224449 7.73360169,2.05369856 L7.73360169,1.79590764 C7.73360169,1.72717181 7.67345266,1.66701219 7.6047064,1.66701219 C7.53596015,1.66701219 7.47581111,1.72717181 7.47581111,1.79590764 L7.47581111,2.05369856 C7.48440834,2.13103163 7.53597066,2.18259402 7.6047064,2.18259402 L7.6047064,2.18258351 Z M7.48440834,5.36197327 C7.48440834,5.4307091 7.54455737,5.49085821 7.61330362,5.49085821 C7.68204988,5.49085821 7.74219891,5.4307091 7.74219891,5.36197327 L7.74219891,5.10418235 C7.74219891,5.03544651 7.68204988,4.97528689 7.61330362,4.97528689 C7.54455737,4.97528689 7.48440834,5.035436 7.48440834,5.10418235 L7.48440834,5.36197327 Z M7.48440834,6.18688738 C7.48440834,6.25562321 7.54455737,6.31578284 7.61330362,6.31578284 C7.68204988,6.31578284 7.74219891,6.25563372 7.74219891,6.18688738 L7.74219891,5.92909646 C7.74219891,5.86036063 7.68204988,5.80021152 7.61330362,5.80021152 C7.54455737,5.80021152 7.48440834,5.86036063 7.48440834,5.92909646 L7.48440834,6.18688738 Z M3.71214016,7.48441817 L3.45434959,7.48441817 C3.38561384,7.48441817 3.3254543,7.54456728 3.3254543,7.61331363 C3.3254543,7.68205997 3.38560333,7.74220908 3.45434959,7.74220908 L3.71214016,7.74220908 C3.78087591,7.74220908 3.84102494,7.68205997 3.84102494,7.61331363 C3.84102494,7.54456728 3.78087591,7.48441817 3.71214016,7.48441817 Z M2.88721662,7.48441817 L2.62942605,7.48441817 C2.5606903,7.48441817 2.50054127,7.54456728 2.50054127,7.61331363 C2.50054127,7.68205997 2.5606903,7.74220908 2.62942605,7.74220908 L2.88721662,7.74220908 C2.95595237,7.74220908 3.01611191,7.68205997 3.01611191,7.61331363 C3.01611191,7.54456728 2.95596288,7.48441817 2.88721662,7.48441817 Z M4.53705319,7.48441817 L4.27926261,7.48441817 C4.21052687,7.48441817 4.15037784,7.54456728 4.15037784,7.61331363 C4.15037784,7.68205997 4.21052687,7.74220908 4.27926261,7.74220908 L4.53705319,7.74220908 C4.60578894,7.74220908 4.66594848,7.68205997 4.66594848,7.61331363 C4.66594848,7.54456728 4.60579945,7.48441817 4.53705319,7.48441817 L4.53705319,7.48441817 Z M2.05370637,7.48441817 L1.79591579,7.48441817 C1.72718005,7.48441817 1.66702051,7.54456728 1.66702051,7.61331363 C1.66702051,7.68205997 1.72718005,7.74220908 1.79591579,7.74220908 L2.05370637,7.74220908 C2.12244212,7.74220908 2.18260166,7.68205997 2.18260166,7.61331363 C2.18260166,7.54456728 2.13103934,7.48441817 2.05370637,7.48441817 Z M1.23738005,7.39848786 L0.850694189,7.39848786 L0.850694189,7.27820015 C0.850694189,7.20086708 0.790545156,7.14071797 0.713222698,7.14071797 L0.50698393,7.14071797 L0.50698393,6.7282504 C0.50698393,6.65091733 0.446834898,6.59076822 0.378088642,6.59076822 C0.309342386,6.59076822 0.249193353,6.65091733 0.249193353,6.7282504 L0.249193353,7.14071797 L0.137492512,7.14071797 C0.0601490325,7.14071797 0,7.20086708 0,7.27818964 L0,7.85393109 C0,7.93126416 0.0601490325,7.99140277 0.137492512,7.99140277 L0.713212187,7.99140277 C0.790545156,7.99140277 0.850694189,7.93126416 0.850694189,7.85393109 L0.850694189,7.73360134 L1.23738005,7.73360134 C1.31471302,7.71641738 1.37486206,7.64767103 1.37486206,7.5789352 C1.37486206,7.50159162 1.23738005,7.39847735 1.23738005,7.39847735 L1.23738005,7.39848786 Z M5.36197673,7.48441817 L5.10418615,7.48441817 C5.03545041,7.48441817 4.97529087,7.54456728 4.97529087,7.61331363 C4.97529087,7.68205997 5.0354399,7.74220908 5.10418615,7.74220908 L5.36197673,7.74220908 C5.43071248,7.74220908 5.49086151,7.68205997 5.49086151,7.61331363 C5.49086151,7.54456728 5.43071248,7.48441817 5.36197673,7.48441817 Z M6.18688976,7.48441817 L5.92909918,7.48441817 C5.86036344,7.48441817 5.80021441,7.54456728 5.80021441,7.61331363 C5.80021441,7.68205997 5.86036344,7.74220908 5.92909918,7.74220908 L6.18688976,7.74220908 C6.25562551,7.74220908 6.31578505,7.68205997 6.31578505,7.61331363 C6.31578505,7.54456728 6.26422273,7.48441817 6.18688976,7.48441817 Z M3.45434959,0.506984596 L3.71214016,0.506984596 C3.78087591,0.506984596 3.84102494,0.446835485 3.84102494,0.378089139 C3.84102494,0.309342792 3.78087591,0.249193681 3.71214016,0.249193681 L3.45434959,0.249193681 C3.38561384,0.249193681 3.3254543,0.309342792 3.3254543,0.378089139 C3.3254543,0.446835485 3.38560333,0.506984596 3.45434959,0.506984596 Z M2.62942605,0.506984596 L2.88721662,0.506984596 C2.95595237,0.506984596 3.01611191,0.446835485 3.01611191,0.378089139 C3.01611191,0.309342792 2.95596288,0.249193681 2.88721662,0.249193681 L2.62942605,0.249193681 C2.5606903,0.249193681 2.50054127,0.309342792 2.50054127,0.378089139 C2.50054127,0.446835485 2.5606903,0.506984596 2.62942605,0.506984596 Z M4.27926261,0.506984596 L4.53705319,0.506984596 C4.60578894,0.506984596 4.66594848,0.446835485 4.66594848,0.378089139 C4.66594848,0.309342792 4.60579945,0.249193681 4.53705319,0.249193681 L4.27926261,0.249193681 C4.21052687,0.249193681 4.15037784,0.309342792 4.15037784,0.378089139 C4.15037784,0.446835485 4.21052687,0.506984596 4.27926261,0.506984596 Z M1.80451302,0.506984596 L2.06230359,0.506984596 C2.13103934,0.506984596 2.19118837,0.446835485 2.19118837,0.378089139 C2.19118837,0.309342792 2.13103934,0.249193681 2.06230359,0.249193681 L1.80451302,0.249193681 C1.72718005,0.257790915 1.67561773,0.309342792 1.67561773,0.386686373 C1.67561773,0.464029954 1.72718005,0.506984596 1.80451302,0.506984596 L1.80451302,0.506984596 Z M1.22878283,0.257790915 L0.842107476,0.257790915 L0.842107476,0.137492692 C0.842107476,0.0601491116 0.781958443,0 0.704614964,0 L0.137492512,0 C0.0601490325,0 0,0.0601491116 0,0.137492692 L0,0.713213124 C0,0.790546195 0.0601490325,0.850695307 0.137492512,0.850695307 L0.257790577,0.850695307 L0.257790577,1.23738168 C0.274974513,1.31471475 0.343720769,1.37486386 0.412456515,1.37486386 C0.48119226,1.37486386 0.592914122,1.23738168 0.592914122,1.23738168 L0.592914122,0.850695307 L0.713212187,0.850695307 C0.790545156,0.850695307 0.850694189,0.790546195 0.850694189,0.713223635 L0.850694189,0.506984596 L1.23738005,0.506984596 C1.3061158,0.506984596 1.36627534,0.446835485 1.36627534,0.378089139 C1.35767812,0.309353302 1.30612631,0.257790915 1.22878283,0.257790915 L1.22878283,0.257790915 Z M5.10418615,0.506984596 L5.36197673,0.506984596 C5.43071248,0.506984596 5.49086151,0.446835485 5.49086151,0.378089139 C5.49086151,0.309342792 5.43071248,0.249193681 5.36197673,0.249193681 L5.10418615,0.249193681 C5.03545041,0.249193681 4.97529087,0.309342792 4.97529087,0.378089139 C4.97529087,0.446835485 5.0354399,0.506984596 5.10418615,0.506984596 Z M5.93769641,0.506984596 L6.19548698,0.506984596 C6.26422273,0.506984596 6.31578505,0.455422209 6.31578505,0.386686373 C6.31578505,0.317950537 6.25563602,0.257790915 6.18688976,0.257790915 L5.92909918,0.257790915 C5.86036344,0.257790915 5.80021441,0.317940027 5.80021441,0.386686373 C5.80021441,0.455432719 5.86036344,0.506984596 5.93769641,0.506984596 Z M7.85391027,0 L7.2782011,0 C7.20086813,0 7.1407191,0.0601491116 7.1407191,0.137492692 L7.1407191,0.257790915 L6.75403323,0.257790915 C6.67670026,0.274974874 6.61655123,0.34372122 6.61655123,0.412457057 C6.61655123,0.481192893 6.75403323,0.592914901 6.75403323,0.592914901 L7.1407191,0.592914901 L7.1407191,0.713213124 C7.1407191,0.790546195 7.20086813,0.850695307 7.27819059,0.850695307 L7.48442936,0.850695307 L7.48442936,1.26316287 C7.48442936,1.34049594 7.54457839,1.40064506 7.61332465,1.40064506 C7.6820709,1.40064506 7.74221993,1.34049594 7.74221993,1.26316287 L7.74221993,0.850695307 L7.862518,0.850695307 C7.93985097,0.850695307 8,0.790546195 8,0.713223635 L8,0.137482182 C7.99141329,0.0601491116 7.93126425,0 7.85392078,0 L7.85391027,0 Z M7.85391027,7.14071797 L7.7336122,7.14071797 L7.7336122,6.7540316 C7.71642826,6.67669853 7.64768201,6.61654941 7.57894626,6.61654941 C7.50160278,6.61654941 7.39848865,6.7540316 7.39848865,6.7540316 L7.39848865,7.14071797 L7.2782011,7.14071797 C7.20086813,7.14071797 7.1407191,7.20086708 7.1407191,7.27818964 L7.1407191,7.48442868 L6.75403323,7.48442868 C6.68529749,7.48442868 6.62513794,7.54457779 6.62513794,7.61332414 C6.62513794,7.68207048 6.68528698,7.74221959 6.75403323,7.74221959 L7.1407191,7.74221959 L7.1407191,7.86251782 C7.1407191,7.93985089 7.20086813,8 7.27819059,8 L7.85393129,8 C7.93126425,8 7.99140278,7.93985089 7.99140278,7.86251782 L7.99140278,7.28679739 C7.99140278,7.20086708 7.93126425,7.14070746 7.85393129,7.14070746 L7.85391027,7.14071797 Z" id="形状"></path>
                            </g>
                        </g>
                    </g>
                    <g id="编组-28" transform="translate(106.000000, 0.000000)">
                        <rect id="矩形备份-15" fill-opacity="0.0493915264" fill="#2B58F9" x="0" y="22" width="83" height="131" rx="6"></rect>
                        <text id="语音识别-说话人识别-情感识别-语音合成" font-family="PingFangSC-Regular, PingFang SC" font-size="8" font-weight="normal" line-spacing="14" fill="#333333">
                            <tspan x="26" y="34">语音识别</tspan>
                            <tspan x="22" y="48">说话人识别</tspan>
                            <tspan x="26" y="62">情感识别</tspan>
                            <tspan x="26" y="76">语音合成</tspan>
                            <tspan x="26" y="90">语义关系</tspan>
                            <tspan x="26" y="104">偏好推荐</tspan>
                            <tspan x="18" y="118">历史对话分析</tspan>
                        </text>
                        <rect id="矩形备份-3" stroke="#2B58F9" fill="#FFFFFF" x="1" y="0.5" width="81.7876712" height="17" rx="8.5"></rect>
                        <g id="编组-15" transform="translate(30.498403, 1.942631)" fill="#000000" font-family="PingFangSC-Regular, PingFang SC" font-size="9" font-weight="normal">
                            <text id="语音交互">
                                <tspan x="0" y="10">语音交互</tspan>
                            </text>
                        </g>
                    </g>
                    <g id="编组-29" transform="translate(213.000000, 0.000000)">
                        <rect id="矩形备份-17" fill-opacity="0.0493915264" fill="#2B58F9" x="0" y="22" width="83" height="131.5" rx="6"></rect>
                        <text id="图像检索-图像增强-场景识别-自然语言处" font-family="PingFangSC-Regular, PingFang SC" font-size="8" font-weight="normal" line-spacing="14" fill="#333333">
                            <tspan x="26" y="32.75">图像检索</tspan>
                            <tspan x="26" y="46.75">图像增强</tspan>
                            <tspan x="26" y="60.75">场景识别</tspan>
                            <tspan x="18" y="74.75">自然语言处理</tspan>
                            <tspan x="26" y="88.75">行为识别</tspan>
                            <tspan x="26" y="102.75">情感分析</tspan>
                            <tspan x="26" y="116.75">物体识别</tspan>
                            <tspan x="26" y="130.75">图像处理</tspan>
                            <tspan x="26" y="144.75">语音识别</tspan>
                        </text>
                        <rect id="矩形备份-8" stroke="#2B58F9" fill="#FFFFFF" x="0.5" y="0.5" width="81.7876712" height="17" rx="8.5"></rect>
                        <g id="编组-16" transform="translate(18.516059, 2.000000)">
                            <text id="视觉交互" font-family="PingFangSC-Regular, PingFang SC" font-size="9" font-weight="normal" fill="#000000">
                                <tspan x="11" y="10">视觉交互</tspan>
                            </text>
                            <g id="图形图像处理" transform="translate(0.000000, 3.500000)" fill="#2B58F9" fill-rule="nonzero">
                                <path d="M0,0 L0,6.58823237 L1.32500277,6.58823237 C1.57499865,7.41176556 2.32500387,8 3.24999918,8 C4.17499448,8 4.9249997,7.41176556 5.17499558,6.58823237 L8,6.58823237 L8,0 L0,0 Z M1.77500239,6.11764317 C1.87500426,5.41176349 2.50000275,4.87058879 3.24999918,4.87058879 C4.00000439,4.87058879 4.62500288,5.41176349 4.72499596,6.11764317 L1.77500239,6.11764317 Z M7.49999945,6.11764317 L5.25000137,6.11764317 C5.19999165,5.62352822 4.94999577,5.19999876 4.57500195,4.8941228 L5.30000231,4.09411536 C5.44999632,4.14117511 5.59999912,4.16470085 5.75000192,4.16470085 C6.44999742,4.16470085 6.9999989,3.64706016 6.9999989,2.98823196 C6.9999989,2.32940376 6.44998863,1.81176308 5.75000192,1.81176308 C5.24999258,1.81176308 4.82499783,2.09411329 4.62500288,2.47058921 L3.12500124,2.1176473 C3.10000516,1.62352408 2.67500162,1.22352036 2.12500014,1.22352036 C1.57499865,1.22352036 1.12499904,1.64704982 1.12499904,2.16470705 C1.12499904,2.68236428 1.57499865,3.1058772 2.12500014,3.1058772 C2.52500541,3.1058772 2.85000928,2.89411246 3.02500541,2.58823651 L4.52500541,2.94117221 L4.52500541,2.98824023 C4.52500541,3.31764193 4.67500382,3.62353442 4.90000363,3.83529915 L4.17499448,4.61176432 C3.90000253,4.47058921 3.59999692,4.39999959 3.27499525,4.39999959 C2.22500201,4.39999959 1.37500371,5.15293901 1.27500184,6.11764317 L0.525005411,6.11764317 L0.525005411,0.470589208 L7.52500541,0.470589208 L7.52500541,6.11764317 L7.49999945,6.11764317 Z M4.9999967,3.01176597 C4.9999967,2.61176225 5.32499838,2.30587802 5.75000192,2.30587802 C6.17500547,2.30587802 6.4999967,2.61176225 6.4999967,3.01176597 C6.4999967,3.41176969 6.17499668,3.71764565 5.75000192,3.71764565 C5.32500717,3.71764565 4.9999967,3.38823568 4.9999967,3.01176597 Z M2.62499959,2.18822452 C2.62499959,2.44704899 2.40000088,2.65881372 2.12499959,2.65881372 C1.8499994,2.65881372 1.62499959,2.44704899 1.62499959,2.18822452 C1.62499959,1.92940004 1.8499994,1.71763531 2.12499959,1.71763531 C2.40001846,1.71763531 2.62499959,1.92940004 2.62499959,2.18823279 L2.62499959,2.18822452 Z" id="形状"></path>
                            </g>
                        </g>
                    </g>
                </g>
                <g id="编组-13" transform="translate(0.000000, 80.000000)">
                    <g id="编组-8" transform="translate(96.000000, 23.253226)" stroke="#7359FF" stroke-width="2">
                        <path d="M0,0 L24.9398439,0 C42.6129559,-3.24649801e-15 56.9398439,14.326888 56.9398439,32 L56.9398439,87 C56.9398439,101.911688 69.0281557,114 83.9398439,114 L102,114 L102,114" id="路径-7"></path>
                        <circle id="椭圆形" fill="#FFFFFF" cx="102.5" cy="114.246774" r="4.5"></circle>
                    </g>
                    <g id="编组-12">
                        <rect id="矩形" fill="#7359FF" x="0" y="0" width="97" height="43" rx="6"></rect>
                        <rect id="矩形" fill="#FFFFFF" fill-rule="nonzero" opacity="0" x="21" y="3" width="55" height="38"></rect>
                        <polygon id="路径" fill="#FFFFFF" fill-rule="nonzero" opacity="0.259809222" points="30.3846154 26.8 27 26.8 27 17.2 30.3846154 17.2"></polygon>
                        <polygon id="路径" fill="#FFFFFF" fill-rule="nonzero" opacity="0.259809222" points="71 17.2 67.6153846 17.2 67.6153846 26.8 71 26.8"></polygon>
                        <polygon id="路径" fill="#FFFFFF" fill-rule="nonzero" opacity="0.61265346" points="40.5384615 14.8 37.1538462 14.8 37.1538462 29.2 40.5384615 29.2"></polygon>
                        <polygon id="路径" fill="#FFFFFF" fill-rule="nonzero" opacity="0.61265346" points="60.8461538 14.8 57.4615385 14.8 57.4615385 29.2 60.8461538 29.2"></polygon>
                        <polygon id="路径" fill="#FFFFFF" fill-rule="nonzero" points="50.6923077 10 47.3076923 10 47.3076923 34 50.6923077 34"></polygon>
                    </g>
                </g>
                <g id="编组-8备份" transform="translate(949.975763, 165.126613) scale(-1, 1) translate(-949.975763, -165.126613) translate(899.475763, 105.253226)" stroke-width="2">
                    <path d="M0,0 L21.0322076,0 C38.7053196,-3.24649801e-15 53.0322076,14.326888 53.0322076,32 L53.0322076,87 C53.0322076,101.911688 65.1205193,114 80.0322076,114 L95,114 L95,114" id="路径-7" stroke="#FAAD14"></path>
                    <circle id="椭圆形" stroke="#F66600" fill="#FFFFFF" cx="95.5" cy="114.246774" r="4.5"></circle>
                </g>
                <rect id="矩形备份-10" fill="#FEC700" x="1000.52424" y="74" width="68" height="63" rx="6"></rect>
                <path d="M155.345679,367 C155.345679,341.318759 176.164438,320.5 201.845679,320.5 L505.345679,320.5 C531.02692,320.5 551.845679,299.681241 551.845679,274 L551.845679,274 L551.845679,274" id="路径-12" stroke="#2B58F9"></path>
                <path d="M551.845679,367 C551.845679,341.318759 572.664438,320.5 598.345679,320.5 L883.845679,320.5 C909.52692,320.5 930.345679,299.681241 930.345679,274 L930.345679,274 L930.345679,274" id="路径-12备份" stroke="#2B58F9" transform="translate(741.095679, 320.500000) scale(-1, 1) translate(-741.095679, -320.500000) "></path>
                <path d="M423.5,367 C423.5,341.318759 444.318759,320.5 470,320.5 L504.5,320.5 L504.5,320.5" id="路径-13" stroke="#2B58F9" stroke-dasharray="3"></path>
                <path d="M602.057174,367 C602.057174,341.318759 622.875933,320.5 648.557174,320.5 L681.057174,320.5 L681.057174,320.5" id="路径-13备份" stroke="#2B58F9" stroke-dasharray="3" transform="translate(641.557174, 343.750000) scale(-1, 1) translate(-641.557174, -343.750000) "></path>
                <g id="编组-33" transform="translate(537.000000, 250.000000)">
                    <g id="椭圆形">
                        <use fill="black" fill-opacity="1" filter="url(#filter-11)" xlink:href="#path-10"></use>
                        <circle stroke="#2B58F9" stroke-width="1" stroke-linejoin="square" fill="#2B58F9" fill-rule="evenodd" cx="15" cy="15" r="14.5"></circle>
                    </g>
                    <g id="数据参谋" transform="translate(5.454545, 5.454545)" fill-rule="nonzero">
                        <rect id="矩形" fill="#000000" opacity="0" x="0" y="0" width="19.0909091" height="19.0909091"></rect>
                        <path d="M2.72727273,11.9805131 L5.07835727,11.9805131 L5.07835727,16.3636364 L2.72727273,16.3636364 L2.72727273,11.9805131 Z M6.48901957,8.47401442 L8.8401234,8.47401442 L8.8401234,16.3636184 L6.48901957,16.3636184 L6.48901957,8.47401442 Z M10.2507664,9.35063908 L12.6018895,9.35063908 L12.6018895,16.3636184 L10.2507664,16.3636184 L10.2507664,9.35063908 Z M14.0125518,4.09090909 L16.3636364,4.09090909 L16.3636364,16.3636184 L14.0125518,16.3636184 L14.0125518,4.09090909 Z" id="形状" fill="#FFFFFF"></path>
                    </g>
                </g>
                <g id="编组-9" transform="translate(150.000000, 367.000000)" fill="#2B58F9">
                    <polygon id="三角形" transform="translate(5.000000, 5.000000) scale(1, -1) translate(-5.000000, -5.000000) " points="5 0 10 10 0 10"></polygon>
                    <polygon id="三角形备份" transform="translate(273.500000, 5.000000) scale(1, -1) translate(-273.500000, -5.000000) " points="273.5 0 278.5 10 268.5 10"></polygon>
                    <polygon id="三角形备份-2" transform="translate(531.500000, 7.000000) scale(1, -1) translate(-531.500000, -7.000000) " points="531.5 2 536.5 12 526.5 12"></polygon>
                    <polygon id="三角形备份-3" transform="translate(781.000000, 5.000000) scale(1, -1) translate(-781.000000, -5.000000) " points="781 0 786 10 776 10"></polygon>
                </g>
                <g id="编组-14" transform="translate(1016.524237, 88.833333)">
                    <circle id="椭圆形" fill="#FFFFFF" cx="11.3333333" cy="21.0740741" r="11.3333333"></circle>
                    <polygon id="三角形" fill="#2B58F9" points="24.8518519 0 35.8518519 22 13.8518519 22"></polygon>
                    <path d="M18.6448074,12.4142623 C21.1046289,14.4931966 22.6666667,17.6012186 22.6666667,21.0740741 C22.6666667,21.3858768 22.6540752,21.6947387 22.6293729,22.0001789 L13.8518519,22 Z" id="形状结合" fill="#F66600"></path>
                </g>
                <g id="语音-2" transform="translate(347.498403, 130.085935)" fill="#2B58F9" fill-rule="nonzero">
                    <g id="语音">
                        <path d="M7.68668815,2.44320734 C7.48510597,1.9665983 7.19601524,1.53921281 6.82879187,1.17198945 C6.46156851,0.80476609 6.0334017,0.516456685 5.55757398,0.314874499 C5.06455709,0.105479051 4.54028714,0 4.00039066,0 C3.46049419,0 2.93622424,0.105479051 2.44320734,0.314093173 C1.9665983,0.515675359 1.53921281,0.803984764 1.17198945,1.17198945 C0.80476609,1.53921281 0.516456685,1.96737963 0.314874499,2.44320734 C0.105479051,2.93622424 0,3.46049419 0,4.00039066 C0,4.54028714 0.105479051,5.06455709 0.314093173,5.55757398 C0.515675359,6.03418303 0.803984764,6.46156851 1.17198945,6.82879187 C1.53921281,7.19601524 1.96737963,7.48432464 2.44320734,7.68590683 C2.93622424,7.89452095 3.46049419,8 4.00039066,8 C4.54028714,8 5.06455709,7.89452095 5.55757398,7.68590683 C6.03418303,7.48510597 6.46156851,7.19601524 6.82879187,6.82879187 C7.19601524,6.46156851 7.48432464,6.0334017 7.68590683,5.55757398 C7.89452095,5.06455709 8,4.54028714 8,4.00039066 C8,3.46049419 7.89530228,2.93622424 7.68668815,2.44320734 Z M7.25461471,5.37474363 C7.07647231,5.79509718 6.82175994,6.17325911 6.49750952,6.49750952 C6.17325911,6.82175994 5.79509718,7.07647231 5.37474363,7.25461471 C4.93954488,7.43900772 4.47699971,7.53198555 4.00039066,7.53198555 C3.52378162,7.53198555 3.06123645,7.43900772 2.6260377,7.25461471 C2.20568415,7.07647231 1.82752222,6.82175994 1.5032718,6.49750952 C1.17902139,6.17325911 0.924309015,5.79509718 0.746166618,5.37474363 C0.561773611,4.93954488 0.468795781,4.47699971 0.468795781,4.00039066 C0.468795781,3.52378162 0.561773611,3.06123645 0.746166618,2.6260377 C0.924309015,2.20568415 1.17902139,1.82752222 1.5032718,1.5032718 C1.82752222,1.17902139 2.20568415,0.924309015 2.6260377,0.746166618 C3.06123645,0.561773611 3.52378162,0.468795781 4.00039066,0.468795781 C4.47699971,0.468795781 4.93954488,0.561773611 5.37474363,0.746166618 C5.79509718,0.924309015 6.17325911,1.17902139 6.49750952,1.5032718 C6.82175994,1.82752222 7.07647231,2.20568415 7.25461471,2.6260377 C7.43900772,3.06123645 7.53198555,3.52378162 7.53198555,4.00039066 C7.53198555,4.47699971 7.43900772,4.93954488 7.25461471,5.37474363 Z" id="形状"></path>
                        <path d="M2.06270144,3.25031741 C1.9337826,3.25031741 1.82830355,3.35579646 1.82830355,3.4847153 L1.82830355,4.51606602 C1.82830355,4.64498486 1.9337826,4.75046391 2.06270144,4.75046391 C2.19162028,4.75046391 2.29709933,4.64498486 2.29709933,4.51606602 L2.29709933,3.4847153 C2.29709933,3.35579646 2.19162028,3.25031741 2.06270144,3.25031741 Z M3.03154605,2.75026858 C2.90262721,2.75026858 2.79714816,2.85574763 2.79714816,2.98466647 L2.79714816,5.01611485 C2.79714816,5.14503369 2.90262721,5.25051275 3.03154605,5.25051275 C3.16046489,5.25051275 3.26594394,5.14503369 3.26594394,5.01611485 L3.26594394,2.98466647 C3.26594394,2.85574763 3.16046489,2.75026858 3.03154605,2.75026858 Z M4.00039066,2.00019533 C3.87147182,2.00019533 3.76599277,2.10567438 3.76599277,2.23459322 L3.76599277,5.7661881 C3.76599277,5.89510694 3.87147182,6.00058599 4.00039066,6.00058599 C4.1293095,6.00058599 4.23478855,5.89510694 4.23478855,5.7661881 L4.23478855,2.23459322 C4.23478855,2.10567438 4.1293095,2.00019533 4.00039066,2.00019533 Z M5.93807989,3.25031741 C5.80916105,3.25031741 5.703682,3.35579646 5.703682,3.4847153 L5.703682,4.51606602 C5.703682,4.64498486 5.80916105,4.75046391 5.93807989,4.75046391 C6.06699873,4.75046391 6.17247778,4.64498486 6.17247778,4.51606602 L6.17247778,3.4847153 C6.17247778,3.35579646 6.06699873,3.25031741 5.93807989,3.25031741 Z M4.96923528,2.75026858 C4.84031644,2.75026858 4.73483739,2.85574763 4.73483739,2.98466647 L4.73483739,5.01611485 C4.73483739,5.14503369 4.84031644,5.25051275 4.96923528,5.25051275 C5.09815412,5.25051275 5.20363317,5.14503369 5.20363317,5.01611485 L5.20363317,2.98466647 C5.20363317,2.85574763 5.09815412,2.75026858 4.96923528,2.75026858 Z" id="形状"></path>
                    </g>
                </g>
            </g>
        </g>
    </g>
</svg>