<?xml version="1.0" encoding="UTF-8"?>
<svg width="681px" height="518px" viewBox="0 0 681 518" version="1.1" xmlns="http://www.w3.org/2000/svg" xmlns:xlink="http://www.w3.org/1999/xlink">
    <title>编组 4</title>
    <defs>
        <rect id="path-1" x="421.10588" y="86.9" width="123" height="49" rx="4"></rect>
        <filter x="-20.3%" y="-46.9%" width="140.7%" height="202.0%" filterUnits="objectBoundingBox" id="filter-2">
            <feOffset dx="0" dy="2" in="SourceAlpha" result="shadowOffsetOuter1"></feOffset>
            <feGaussianBlur stdDeviation="8" in="shadowOffsetOuter1" result="shadowBlurOuter1"></feGaussianBlur>
            <feColorMatrix values="0 0 0 0 0.204737413   0 0 0 0 0.418516171   0 0 0 0 0.719076405  0 0 0 0.1 0" type="matrix" in="shadowBlurOuter1"></feColorMatrix>
        </filter>
        <rect id="path-3" x="421.10588" y="150.7" width="123" height="49" rx="4"></rect>
        <filter x="-20.3%" y="-46.9%" width="140.7%" height="202.0%" filterUnits="objectBoundingBox" id="filter-4">
            <feOffset dx="0" dy="2" in="SourceAlpha" result="shadowOffsetOuter1"></feOffset>
            <feGaussianBlur stdDeviation="8" in="shadowOffsetOuter1" result="shadowBlurOuter1"></feGaussianBlur>
            <feColorMatrix values="0 0 0 0 0.204737413   0 0 0 0 0.418516171   0 0 0 0 0.719076405  0 0 0 0.1 0" type="matrix" in="shadowBlurOuter1"></feColorMatrix>
        </filter>
        <rect id="path-5" x="421.10588" y="214.5" width="123" height="49" rx="4"></rect>
        <filter x="-20.3%" y="-46.9%" width="140.7%" height="202.0%" filterUnits="objectBoundingBox" id="filter-6">
            <feOffset dx="0" dy="2" in="SourceAlpha" result="shadowOffsetOuter1"></feOffset>
            <feGaussianBlur stdDeviation="8" in="shadowOffsetOuter1" result="shadowBlurOuter1"></feGaussianBlur>
            <feColorMatrix values="0 0 0 0 0.204737413   0 0 0 0 0.418516171   0 0 0 0 0.719076405  0 0 0 0.1 0" type="matrix" in="shadowBlurOuter1"></feColorMatrix>
        </filter>
        <rect id="path-7" x="421.10588" y="278.3" width="123" height="49" rx="4"></rect>
        <filter x="-20.3%" y="-46.9%" width="140.7%" height="202.0%" filterUnits="objectBoundingBox" id="filter-8">
            <feOffset dx="0" dy="2" in="SourceAlpha" result="shadowOffsetOuter1"></feOffset>
            <feGaussianBlur stdDeviation="8" in="shadowOffsetOuter1" result="shadowBlurOuter1"></feGaussianBlur>
            <feColorMatrix values="0 0 0 0 0.204737413   0 0 0 0 0.418516171   0 0 0 0 0.719076405  0 0 0 0.1 0" type="matrix" in="shadowBlurOuter1"></feColorMatrix>
        </filter>
        <rect id="path-9" x="421.10588" y="342.1" width="123" height="49" rx="4"></rect>
        <filter x="-20.3%" y="-46.9%" width="140.7%" height="202.0%" filterUnits="objectBoundingBox" id="filter-10">
            <feOffset dx="0" dy="2" in="SourceAlpha" result="shadowOffsetOuter1"></feOffset>
            <feGaussianBlur stdDeviation="8" in="shadowOffsetOuter1" result="shadowBlurOuter1"></feGaussianBlur>
            <feColorMatrix values="0 0 0 0 0.204737413   0 0 0 0 0.418516171   0 0 0 0 0.719076405  0 0 0 0.1 0" type="matrix" in="shadowBlurOuter1"></feColorMatrix>
        </filter>
        <rect id="path-11" x="421.10588" y="405.9" width="123" height="49" rx="4"></rect>
        <filter x="-20.3%" y="-46.9%" width="140.7%" height="202.0%" filterUnits="objectBoundingBox" id="filter-12">
            <feOffset dx="0" dy="2" in="SourceAlpha" result="shadowOffsetOuter1"></feOffset>
            <feGaussianBlur stdDeviation="8" in="shadowOffsetOuter1" result="shadowBlurOuter1"></feGaussianBlur>
            <feColorMatrix values="0 0 0 0 0.204737413   0 0 0 0 0.418516171   0 0 0 0 0.719076405  0 0 0 0.1 0" type="matrix" in="shadowBlurOuter1"></feColorMatrix>
        </filter>
        <linearGradient x1="9.76941704%" y1="59.7349231%" x2="67.2124739%" y2="63.7117157%" id="linearGradient-13">
            <stop stop-color="#FF9A54" offset="0.0519865876%"></stop>
            <stop stop-color="#FFB856" offset="100%"></stop>
        </linearGradient>
        <rect id="path-14" x="0" y="0" width="680" height="518" rx="24"></rect>
        <rect id="path-16" x="579.69706" y="71.1464" width="54" height="383.7536" rx="6"></rect>
        <filter x="-46.3%" y="-6.0%" width="192.6%" height="113.0%" filterUnits="objectBoundingBox" id="filter-17">
            <feOffset dx="0" dy="2" in="SourceAlpha" result="shadowOffsetOuter1"></feOffset>
            <feGaussianBlur stdDeviation="8" in="shadowOffsetOuter1" result="shadowBlurOuter1"></feGaussianBlur>
            <feComposite in="shadowBlurOuter1" in2="SourceAlpha" operator="out" result="shadowBlurOuter1"></feComposite>
            <feColorMatrix values="0 0 0 0 0.204737413   0 0 0 0 0.418516171   0 0 0 0 0.719076405  0 0 0 0.1 0" type="matrix" in="shadowBlurOuter1"></feColorMatrix>
        </filter>
        <circle id="path-18" cx="204.47508" cy="264.9924" r="51.5"></circle>
        <filter x="-24.3%" y="-22.3%" width="148.5%" height="148.5%" filterUnits="objectBoundingBox" id="filter-19">
            <feOffset dx="0" dy="2" in="SourceAlpha" result="shadowOffsetOuter1"></feOffset>
            <feGaussianBlur stdDeviation="8" in="shadowOffsetOuter1" result="shadowBlurOuter1"></feGaussianBlur>
            <feComposite in="shadowBlurOuter1" in2="SourceAlpha" operator="out" result="shadowBlurOuter1"></feComposite>
            <feColorMatrix values="0 0 0 0 0.204737413   0 0 0 0 0.418516171   0 0 0 0 0.719076405  0 0 0 0.330265925 0" type="matrix" in="shadowBlurOuter1"></feColorMatrix>
        </filter>
        <path d="M84.9750805,306.4 C106.238043,306.4 123.47508,289.162963 123.47508,267.9 C123.47508,246.637037 106.238043,229.4 84.9750805,229.4 C63.7121176,229.4 46.4750805,246.637037 46.4750805,267.9 C46.4750805,289.162963 63.7121176,306.4 84.9750805,306.4 Z" id="path-20"></path>
        <mask id="mask-21" maskContentUnits="userSpaceOnUse" maskUnits="objectBoundingBox" x="0" y="0" width="77" height="77" fill="white">
            <use xlink:href="#path-20"></use>
        </mask>
        <path d="M204.47508,437.2152 C225.738043,437.2152 242.97508,419.978163 242.97508,398.7152 C242.97508,377.452237 225.738043,360.2152 204.47508,360.2152 C183.212118,360.2152 165.97508,377.452237 165.97508,398.7152 C165.97508,419.978163 183.212118,437.2152 204.47508,437.2152 Z" id="path-22"></path>
        <mask id="mask-23" maskContentUnits="userSpaceOnUse" maskUnits="objectBoundingBox" x="0" y="0" width="77" height="77" fill="white">
            <use xlink:href="#path-22"></use>
        </mask>
        <path d="M204.47508,176.5848 C225.738043,176.5848 242.97508,159.347763 242.97508,138.0848 C242.97508,116.821837 225.738043,99.5848 204.47508,99.5848 C183.212118,99.5848 165.97508,116.821837 165.97508,138.0848 C165.97508,159.347763 183.212118,176.5848 204.47508,176.5848 Z" id="path-24"></path>
        <mask id="mask-25" maskContentUnits="userSpaceOnUse" maskUnits="objectBoundingBox" x="0" y="0" width="77" height="77" fill="white">
            <use xlink:href="#path-24"></use>
        </mask>
    </defs>
    <g id="页面-1" stroke="none" stroke-width="1" fill="none" fill-rule="evenodd">
        <g id="CDP+" transform="translate(-664.000000, -3072.000000)">
            <rect fill="#FFFFFF" x="0" y="0" width="1440" height="5974"></rect>
            <g id="编组-22" transform="translate(120.000000, 3112.000000)">
                <g id="编组-19" transform="translate(0.000000, 328.000000)"></g>
            </g>
            <g id="编组-4" transform="translate(664.000000, 3072.000000)">
                <g id="编组-2">
                    <rect id="矩形" fill="#FFFFFF" x="48" y="86.9" width="326" height="362" rx="20"></rect>
                    <rect id="矩形备份-39" fill="#FFFFFF" x="573" y="86.9" width="83" height="362" rx="20"></rect>
                    <g id="矩形">
                        <use fill="black" fill-opacity="1" filter="url(#filter-2)" xlink:href="#path-1"></use>
                        <use fill="#FFFFFF" fill-rule="evenodd" xlink:href="#path-1"></use>
                    </g>
                    <g id="矩形备份-34">
                        <use fill="black" fill-opacity="1" filter="url(#filter-4)" xlink:href="#path-3"></use>
                        <use fill="#FFFFFF" fill-rule="evenodd" xlink:href="#path-3"></use>
                    </g>
                    <g id="矩形备份-35">
                        <use fill="black" fill-opacity="1" filter="url(#filter-6)" xlink:href="#path-5"></use>
                        <use fill="#FFFFFF" fill-rule="evenodd" xlink:href="#path-5"></use>
                    </g>
                    <g id="矩形备份-36">
                        <use fill="black" fill-opacity="1" filter="url(#filter-8)" xlink:href="#path-7"></use>
                        <use fill="#FFFFFF" fill-rule="evenodd" xlink:href="#path-7"></use>
                    </g>
                    <g id="矩形备份-37">
                        <use fill="black" fill-opacity="1" filter="url(#filter-10)" xlink:href="#path-9"></use>
                        <use fill="#FFFFFF" fill-rule="evenodd" xlink:href="#path-9"></use>
                    </g>
                    <g id="矩形备份-38">
                        <use fill="black" fill-opacity="1" filter="url(#filter-12)" xlink:href="#path-11"></use>
                        <use fill="#FFFFFF" fill-rule="evenodd" xlink:href="#path-11"></use>
                    </g>
                    <mask id="mask-15" fill="white">
                        <use xlink:href="#path-14"></use>
                    </mask>
                    <use id="矩形" fill="url(#linearGradient-13)" xlink:href="#path-14"></use>
                    <rect id="矩形" fill="#FFFFFF" mask="url(#mask-15)" x="24" y="40" width="632" height="438" rx="20"></rect>
                    <g id="编组" mask="url(#mask-15)">
                        <g transform="translate(305.105880, 95.408607)">
                            <path d="M49.2138034,333.206993 L30,333.206993 C13.4314575,333.206993 3.1460705e-14,319.775536 0,303.206993 L0,32.2069932 C-2.02906125e-15,15.6384507 13.4314575,2.20699315 30,2.20699315 L49.2391051,2.20699315 L49.2391051,2.20699315" id="路径" stroke="#2B58F9" fill="none"></path>
                            <circle id="椭圆形" stroke="#FFFFFF" fill="#2B58F9" fill-rule="evenodd" cx="50.9928698" cy="2.24569658" r="1.74569658"></circle>
                            <circle id="椭圆形备份-7" stroke="#FFFFFF" fill="#2B58F9" fill-rule="evenodd" cx="50.9928698" cy="70.3177788" r="1.74569658"></circle>
                            <circle id="椭圆形备份-6" stroke="#FFFFFF" fill="#2B58F9" fill-rule="evenodd" cx="50.8836064" cy="333.206993" r="1.74569658"></circle>
                            <line x1="53.129303" y1="271.445697" x2="85.8941195" y2="271.445697" id="路径-25备份" stroke="#2B58F9" fill="none" stroke-dasharray="2"></line>
                            <line x1="53.129303" y1="202.391393" x2="85.8941195" y2="202.391393" id="路径-25备份-2" stroke="#2B58F9" fill="none" stroke-dasharray="2"></line>
                            <line x1="53.129303" y1="137.971621" x2="85.8941195" y2="137.971621" id="路径-25备份-3" stroke="#2B58F9" fill="none" stroke-dasharray="2"></line>
                            <line x1="53.129303" y1="70.3177788" x2="85.8941195" y2="70.3177788" id="路径-25备份-4" stroke="#2B58F9" fill="none" stroke-dasharray="2"></line>
                            <line x1="53.129303" y1="2.20699315" x2="85.8941195" y2="2.20699315" id="路径-25备份-5" stroke="#2B58F9" fill="none" stroke-dasharray="2"></line>
                            <path d="M0,247.318082 C1.63188025e-15,260.643396 10.8023009,271.445697 24.1276144,271.445697 L49.2,271.445697 L49.2,271.445697" id="路径-26" stroke="#2B58F9" fill="none"></path>
                            <path d="M0,178.263779 C1.63188025e-15,191.589092 10.8023009,202.391393 24.1276144,202.391393 L49.2,202.391393 L49.2,202.391393" id="路径-26备份" stroke="#2B58F9" fill="none"></path>
                            <path d="M0,137.683793 C1.63188025e-15,151.009107 10.8023009,161.811408 24.1276144,161.811408 L49.2,161.811408 L49.2,161.811408" id="路径-26备份-2" stroke="#2B58F9" fill="none" transform="translate(24.600000, 149.747600) scale(1, -1) translate(-24.600000, -149.747600) "></path>
                            <path d="M0,70.3177788 C1.63188025e-15,83.6430922 10.8023009,94.4453932 24.1276144,94.4453932 L49.2,94.4453932 L49.2,94.4453932" id="路径-26备份-3" stroke="#2B58F9" fill="none" transform="translate(24.600000, 82.381586) scale(1, -1) translate(-24.600000, -82.381586) "></path>
                            <circle id="椭圆形备份-7" stroke="#FFFFFF" fill="#2B58F9" fill-rule="evenodd" cx="50.9928698" cy="137.683793" r="1.74569658"></circle>
                            <circle id="椭圆形备份-8" stroke="#FFFFFF" fill="#2B58F9" fill-rule="evenodd" cx="50.9928698" cy="202.391393" r="1.74569658"></circle>
                            <circle id="椭圆形备份-9" stroke="#FFFFFF" fill="#2B58F9" fill-rule="evenodd" cx="50.9928698" cy="271.445697" r="1.74569658"></circle>
                        </g>
                    </g>
                    <rect id="矩形" fill="#FBFAFB" mask="url(#mask-15)" x="391" y="73.1156" width="124" height="49" rx="4"></rect>
                    <rect id="矩形备份-34" fill="#FBFAFB" mask="url(#mask-15)" x="391" y="140.854" width="124" height="49" rx="4"></rect>
                    <rect id="矩形备份-35" fill="#FBFAFB" mask="url(#mask-15)" x="391" y="208.5924" width="124" height="49" rx="4"></rect>
                    <rect id="矩形备份-36" fill="#FBFAFB" mask="url(#mask-15)" x="391" y="272.3924" width="124" height="49" rx="4"></rect>
                    <rect id="矩形备份-37" fill="#FBFAFB" mask="url(#mask-15)" x="391" y="340.1308" width="124" height="49" rx="4"></rect>
                    <rect id="矩形备份-40" fill="#FBFAFB" mask="url(#mask-15)" x="391" y="403.9308" width="124" height="49" rx="4"></rect>
                    <g id="矩形" mask="url(#mask-15)">
                        <use fill="black" fill-opacity="1" filter="url(#filter-17)" xlink:href="#path-16"></use>
                        <rect stroke="#2B58F9" stroke-width="0.8" stroke-linejoin="square" fill="#FFFFFF" fill-rule="evenodd" x="580.09706" y="71.5464" width="53.2" height="382.9536" rx="6"></rect>
                    </g>
                    <text id="用户画像洞察" mask="url(#mask-15)" font-family="PingFangSC-Medium, PingFang SC" font-size="18" font-weight="400" line-spacing="25" letter-spacing="-0.45" fill="#1A1A1A">
                        <tspan x="597.92206" y="209">用</tspan>
                        <tspan x="597.92206" y="234">户</tspan>
                        <tspan x="597.92206" y="259">画</tspan>
                        <tspan x="597.92206" y="284">像</tspan>
                        <tspan x="597.92206" y="309">洞</tspan>
                        <tspan x="597.92206" y="334">察</tspan>
                    </text>
                    <circle id="椭圆形" fill-opacity="0.03" fill="#2B58F9" mask="url(#mask-15)" cx="206.47508" cy="264.9924" r="135"></circle>
                    <circle id="椭圆形备份-5" fill-opacity="0.03" fill="#2B58F9" mask="url(#mask-15)" cx="204.47508" cy="264.2152" r="101"></circle>
                    <g id="椭圆形备份-4" mask="url(#mask-15)">
                        <use fill="black" fill-opacity="1" filter="url(#filter-19)" xlink:href="#path-18"></use>
                        <circle stroke="#FFFFFF" stroke-width="1" stroke-linejoin="square" fill="#2B58F9" fill-rule="evenodd" cx="204.47508" cy="264.9924" r="51"></circle>
                    </g>
                    <g id="椭圆形备份" stroke-dasharray="4" mask="url(#mask-15)" fill="#E9EEFE" stroke="#2B58F9">
                        <use mask="url(#mask-21)" xlink:href="#path-20"></use>
                    </g>
                    <g id="椭圆形备份-3" stroke-dasharray="4" mask="url(#mask-15)" fill="#E9EEFE" stroke="#2B58F9">
                        <use mask="url(#mask-23)" xlink:href="#path-22"></use>
                    </g>
                    <g id="椭圆形备份-2" stroke-dasharray="3" mask="url(#mask-15)" fill="#E9EEFE" stroke="#2B58F9" stroke-width="1.2">
                        <use mask="url(#mask-25)" xlink:href="#path-24"></use>
                    </g>
                    <text id="语音交互" mask="url(#mask-15)" font-family="PingFangSC-Regular, PingFang SC" font-size="14" font-weight="normal" fill="#2B58F9">
                        <tspan x="56.9750805" y="273.4">语音交互</tspan>
                    </text>
                    <text id="视觉交互" mask="url(#mask-15)" font-family="PingFangSC-Regular, PingFang SC" font-size="14" font-weight="normal" fill="#2B58F9">
                        <tspan x="176.47508" y="404.2152">视觉交互</tspan>
                    </text>
                    <text id="文本交互" mask="url(#mask-15)" font-family="PingFangSC-Regular, PingFang SC" font-size="14" font-weight="normal" fill="#2B58F9">
                        <tspan x="176.47508" y="144.0848">文本交互</tspan>
                    </text>
                    <text id="数据挖掘" mask="url(#mask-15)" font-family="PingFangSC-Semibold, PingFang SC" font-size="16" font-weight="500" fill="#FFFFFF">
                        <tspan x="172.47508" y="282.9">数据挖掘</tspan>
                    </text>
                    <g id="大数据,科技,数据流转" mask="url(#mask-15)" fill="#FFFFFF" fill-rule="nonzero">
                        <g transform="translate(192.999243, 239.471050)">
                            <rect id="矩形" opacity="0" x="0" y="0" width="22.9499004" height="22.9499004"></rect>
                            <path d="M21.5455637,14.836752 C21.269896,13.9313067 20.6939073,12.9406958 19.8691452,11.9321553 C19.6517487,11.6676935 19.6517487,11.2866893 19.8691452,11.0222276 C21.5209105,9.00514647 22.1753413,7.05530142 21.4155741,5.73971631 C20.846309,4.75358777 19.5733067,4.27845312 17.8879234,4.27845312 C17.3231407,4.27845312 16.7135339,4.33224194 16.0658268,4.4375784 C15.7296466,4.49360843 15.3979488,4.30310633 15.2791651,3.98261456 C14.3580314,1.54418764 12.9953811,0 11.4758467,0 C9.95631227,0 8.59366193,1.54194643 7.67476943,3.98037335 C7.55374457,4.30086513 7.22428799,4.48912603 6.88810781,4.4353372 C6.24264186,4.33000074 5.63079393,4.27621191 5.06601122,4.27621191 C4.50122852,4.27621191 3.98351104,4.33000074 3.52182359,4.4375784 C3.12961337,4.11260423 2.6186195,3.92434332 2.0650428,3.94675534 C0.94220099,3.99157936 0.0345144987,4.90823066 0.000896480484,6.03331366 C-0.0259979341,6.98358298 0.567920387,7.80386262 1.40612964,8.11538959 C1.68179739,9.02083488 2.2577861,10.0114458 3.08254815,11.0199864 C3.29994467,11.2844481 3.29994467,11.6654523 3.08254815,11.9299141 C1.43078285,13.9469951 0.7763521,15.8968402 1.53611931,17.2124253 C2.10538442,18.1985538 3.37838671,18.6736885 5.06377002,18.6736885 C5.62855273,18.6736885 6.23815946,18.6198997 6.88586661,18.5145632 C7.22204679,18.4585332 7.55374457,18.6490353 7.67252823,18.9695271 C8.59366193,21.4057128 9.95631227,22.9499004 11.4758467,22.9499004 C12.9953811,22.9499004 14.3580314,21.407954 15.2769239,18.9695271 C15.3979488,18.6490353 15.7274054,18.4607744 16.0635856,18.5145632 C16.7090515,18.6198997 17.3208995,18.6736885 17.8856822,18.6736885 C18.4504649,18.6736885 18.9681823,18.6198997 19.4298698,18.512322 C19.82208,18.8372962 20.3330739,19.0255571 20.8866506,19.0031451 C22.0094924,18.9583211 22.9171789,18.0416698 22.9507969,16.9165868 C22.9776913,15.9663174 22.383773,15.1460378 21.5455637,14.836752 Z M2.15244964,6.81325169 C1.75575703,6.81325169 1.43526526,6.49275991 1.43526526,6.0960673 C1.43526526,6.00641925 1.45095367,5.9212536 1.48233048,5.84281156 C1.5092249,5.77109312 1.54732532,5.70385709 1.59663174,5.64558586 C1.72662141,5.48197817 1.92832952,5.37888291 2.15244964,5.37888291 C2.54914226,5.37888291 2.86963403,5.69937468 2.86963403,6.0960673 C2.86963403,6.49275991 2.54914226,6.81325169 2.15244964,6.81325169 L2.15244964,6.81325169 Z M5.06601122,17.2393197 C4.40709806,17.2393197 3.83783296,17.1496717 3.42096953,16.9815816 C3.11168376,16.8560743 2.89652845,16.6924666 2.78222719,16.4929997 C2.63654911,16.239744 2.6208607,15.8766694 2.73516196,15.4149819 C2.88980484,14.7986516 3.26856785,14.0702612 3.83110935,13.3060116 C3.99247584,13.0863739 4.16504833,12.8689774 4.35330924,12.6493396 C4.42054527,12.5708976 4.53708774,12.564174 4.61328858,12.6336512 C5.14445326,13.1311979 5.73164798,13.622021 6.36590792,14.0993968 C6.52279201,14.2181805 6.62364606,14.3929942 6.64829928,14.5879787 C6.74467093,15.3746403 6.8769018,16.1299251 7.04275069,16.8381447 C7.0651627,16.9367576 7.00016787,17.0353704 6.90155501,17.0555412 C6.23815946,17.1788073 5.62182912,17.2393197 5.06601122,17.2393197 Z M6.47124438,12.3624659 C6.38831994,12.2952299 6.30763669,12.2257526 6.22695345,12.1562754 C5.96249171,11.9299141 5.70923597,11.7013115 5.46942744,11.4749502 C5.70923597,11.2463477 5.96249171,11.0199864 6.22695345,10.793625 C6.30763669,10.7241478 6.38831994,10.6569118 6.47124438,10.5896757 C6.46227958,10.8832731 6.45555597,11.1791116 6.45555597,11.4771914 C6.45555597,11.7752712 6.46003838,12.0688685 6.47124438,12.3624659 Z M6.36142552,8.84826239 C5.72716558,9.32563825 5.14221206,9.81870251 4.60880617,10.314008 C4.53484653,10.3834852 4.41606287,10.3767616 4.34882683,10.2983196 C4.16280713,10.0786819 3.98799344,9.85904414 3.82662695,9.64164762 C3.42993434,9.10151813 3.12513097,8.57931824 2.92342286,8.10418359 C3.7280141,7.79265662 4.30176161,7.01047739 4.30176161,6.0960673 C4.30176161,5.98176604 4.2927968,5.86746478 4.27486719,5.75764592 C4.51691692,5.7262691 4.78137867,5.71058069 5.06377002,5.71058069 C5.61958792,5.71058069 6.23591825,5.77333432 6.89259021,5.89435919 C6.99344426,5.9122888 7.0584391,6.01090165 7.03378589,6.11175571 C6.8701782,6.81997529 6.73570612,7.5730189 6.63933447,8.36192172 C6.61916366,8.55466503 6.51830961,8.72947872 6.36142552,8.84826239 L6.36142552,8.84826239 Z M14.4790563,6.27312219 C14.5574984,6.59361397 14.6269756,6.92755295 14.6897292,7.27045673 C14.7099,7.37579319 14.7278296,7.47888845 14.7457593,7.5842249 C14.4969859,7.42958202 14.2437302,7.27718034 13.985992,7.12701986 C13.7282539,6.97685938 13.4705158,6.8334225 13.2105364,6.69670922 C13.5310282,6.57792556 13.8492788,6.4681067 14.1630469,6.36949385 C14.2683834,6.33587583 14.3737199,6.30449901 14.4790563,6.27312219 Z M9.23912788,3.93554933 C9.62013209,3.06596326 10.0616487,2.37343208 10.5166126,1.93191545 C10.8617576,1.60245887 11.1822493,1.43436878 11.4758467,1.43436878 C11.769444,1.43436878 12.0899358,1.60245887 12.4328396,1.93415665 C12.8878035,2.37567329 13.3315613,3.06820446 13.7103243,3.93779053 C13.8201432,4.18656387 13.9232384,4.44654321 14.0196101,4.71772855 C14.0532281,4.81410021 14.0016805,4.91943666 13.9030676,4.94857228 C13.2822549,5.13683318 12.6457537,5.3654357 11.9980466,5.63213865 C11.6580589,5.77059927 11.2779932,5.77380657 10.9357172,5.64110345 C10.4045525,5.43491294 9.59996127,5.12562717 9.04638458,4.95081348 C8.95001292,4.91943666 8.8984653,4.81634141 8.93208331,4.71996975 C9.02845497,4.44654321 9.13155022,4.18432266 9.23912788,3.93554933 L9.23912788,3.93554933 Z M8.25972295,7.26821553 C8.32247658,6.92531175 8.39419502,6.59361397 8.47039586,6.27088099 C8.57573232,6.30225781 8.68106878,6.33363463 8.78864644,6.36725265 C9.10241461,6.4658655 9.42066518,6.57568436 9.74115695,6.69446802 C9.48341881,6.8311813 9.22568067,6.97461817 8.96570133,7.12477866 C8.70796319,7.27493914 8.45470746,7.42509962 8.20593412,7.5819837 C8.22162253,7.47888845 8.24179334,7.37355199 8.25972295,7.26821553 L8.25972295,7.26821553 Z M8.47263706,16.6767782 C8.39419502,16.3562865 8.32471778,16.0223475 8.26196415,15.6794437 C8.24179334,15.5763484 8.22386373,15.471012 8.20593412,15.3656755 C8.45470746,15.5203184 8.70796319,15.6727201 8.96570133,15.8228806 C9.22343947,15.973041 9.48117761,16.1142367 9.74115695,16.2531912 C9.42066518,16.3719749 9.10241461,16.4817937 8.78864644,16.5804066 C8.68330998,16.6140246 8.57797352,16.6454014 8.47263706,16.6767782 Z M13.7125655,19.0143511 C13.3315613,19.8839372 12.8900447,20.5764683 12.4350808,21.017985 C12.0899358,21.3474416 11.769444,21.5155316 11.4758467,21.5155316 C11.1822493,21.5155316 10.8617576,21.3474416 10.5188538,21.0157438 C10.0638899,20.5742271 9.62013209,19.881696 9.24136908,19.0121099 C9.13155022,18.7633366 9.03069617,18.5033572 8.93208331,18.2321719 C8.8984653,18.1358002 8.95001292,18.0304638 9.04862578,18.0013281 C9.66271491,17.8153084 10.2924924,17.5889471 10.9357172,17.3267266 C11.2831034,17.1832897 11.6730724,17.1832897 12.0204586,17.3267266 C12.6614421,17.5889471 13.2934609,17.8153084 13.9053088,18.0013281 C14.0039217,18.0304638 14.0554693,18.1358002 14.0218513,18.2321719 C13.9232384,18.5055984 13.8201432,18.7655778 13.7125655,19.0143511 L13.7125655,19.0143511 Z M14.6919704,15.6794437 C14.6292168,16.0223475 14.5574984,16.3540452 14.4812975,16.6767782 C14.3759611,16.6454014 14.2706246,16.6140246 14.1652881,16.5804066 C13.85152,16.4817937 13.5332694,16.3719749 13.2127776,16.2531912 C13.4705158,16.1164779 13.7282539,15.973041 13.9882332,15.8228806 C14.2459714,15.6727201 14.4992271,15.5203184 14.7480005,15.3656755 C14.7300709,15.471012 14.7099,15.5763484 14.6919704,15.6794437 Z M15.0057386,13.1468863 C14.9900502,13.3687652 14.8735077,13.5727145 14.687488,13.6959806 C14.2325242,14.0030252 13.7573895,14.2988637 13.2688077,14.5812551 C12.8922859,14.7986516 12.5112817,15.0048421 12.1280362,15.1998266 C11.7182234,15.408261 11.23347,15.408261 10.8236571,15.1998266 C10.4404117,15.0048421 10.0594075,14.7986516 9.68288572,14.5812551 C9.19430386,14.2988637 8.7191692,14.0030252 8.26420535,13.6982218 C8.07818565,13.5727145 7.96164319,13.3710064 7.94595478,13.1491275 C7.90785436,12.6000332 7.88992475,12.0419741 7.88992475,11.4771914 C7.88992475,10.9124087 7.90785436,10.3543496 7.94595478,9.80525531 C7.96164319,9.58337639 8.07818565,9.37942708 8.26420535,9.25616101 C8.7214104,8.94911644 9.19430386,8.65551908 9.68288572,8.37312773 C10.0594075,8.15573121 10.4404117,7.9495407 10.8236571,7.7545562 C11.233797,7.54612448 11.7178964,7.54612448 12.1280362,7.7545562 C12.5112817,7.9495407 12.8922859,8.15573121 13.2688077,8.37312773 C13.7573895,8.65551908 14.2325242,8.95135764 14.687488,9.25616101 C14.8735077,9.38166828 14.9900502,9.58337639 15.0057386,9.80525531 C15.043839,10.3543496 15.0617686,10.9124087 15.0617686,11.4771914 C15.0617686,12.0419741 15.043839,12.597792 15.0057386,13.1468863 Z M17.8856822,5.71058069 C18.5445953,5.71058069 19.1138604,5.80022874 19.5307238,5.96831883 C19.8400096,6.0938261 20.0551649,6.25743379 20.1694662,6.45690069 C20.3151443,6.71015643 20.3308327,7.07323103 20.2165314,7.53491848 C20.0618885,8.15124881 19.6831255,8.87963921 19.120584,9.64388882 C18.9592175,9.86352654 18.786645,10.0809231 18.5983841,10.3005608 C18.5311481,10.3790028 18.4146056,10.3857264 18.3384048,10.3162492 C17.8072401,9.81870251 17.2200454,9.32787945 16.5857855,8.85050359 C16.4289014,8.73171993 16.3280473,8.55690623 16.3033941,8.36192172 C16.2070225,7.5752601 16.0747916,6.81997529 15.9089427,6.11175571 C15.8865307,6.01314285 15.9515255,5.91453 16.0523796,5.89435919 C16.7135339,5.77109312 17.3298643,5.71058069 17.8856822,5.71058069 L17.8856822,5.71058069 Z M16.480449,10.5874345 C16.5633734,10.6546706 16.6440567,10.7241478 16.7247399,10.7913838 C16.9892017,11.0177452 17.2424574,11.2463477 17.4822659,11.472709 C17.2424574,11.7013115 16.9892017,11.9276729 16.7247399,12.1540342 C16.6440567,12.2235114 16.5633734,12.2907475 16.480449,12.3602247 C16.4894138,12.0666273 16.4961374,11.7707888 16.4961374,11.472709 C16.4961374,11.1746292 16.491655,10.8810319 16.480449,10.5874345 Z M18.6476906,16.8538331 C18.6476906,16.9681344 18.6566554,17.0824356 18.674585,17.1922545 C18.4325353,17.2236313 18.1680735,17.2393197 17.8856822,17.2393197 C17.3298643,17.2393197 16.7135339,17.1765661 16.056862,17.0555412 C15.9560079,17.0376116 15.8910131,16.9389988 15.9156663,16.8381447 C16.079274,16.1299251 16.2137461,15.3768815 16.3101177,14.5879787 C16.3347709,14.3929942 16.435625,14.2181805 16.5925091,14.0993968 C17.226769,13.622021 17.8117225,13.1289567 18.3451284,12.6336512 C18.419088,12.564174 18.5378717,12.5708976 18.6051077,12.6493396 C18.7911274,12.8689774 18.9659411,13.0886151 19.1273076,13.3060116 C19.5240002,13.8461411 19.8288036,14.368341 20.0305117,14.8434756 C19.2191969,15.1572438 18.6476906,15.9416642 18.6476906,16.8538331 L18.6476906,16.8538331 Z M21.4693629,17.1093301 C21.4424685,17.1810485 21.4043681,17.2460433 21.3573028,17.3043146 C21.225072,17.4679223 21.0233639,17.5710175 20.7992437,17.5710175 C20.4025511,17.5710175 20.0820593,17.2505257 20.0820593,16.8538331 C20.0820593,16.4571405 20.4025511,16.1366487 20.7992437,16.1366487 C21.1959363,16.1366487 21.5164281,16.4571405 21.5164281,16.8538331 C21.5164281,16.9434812 21.5007397,17.0286468 21.4693629,17.1093301 Z M10.7586623,11.4749502 C10.7586623,11.7311755 10.8953569,11.9679375 11.1172545,12.0960501 C11.3391521,12.2241628 11.6125413,12.2241628 11.8344389,12.0960501 C12.0563365,11.9679375 12.1930311,11.7311755 12.1930311,11.4749502 C12.1930311,11.0788602 11.8719367,10.7577658 11.4758467,10.7577658 C11.0797567,10.7577658 10.7586623,11.0788602 10.7586623,11.4749502 L10.7586623,11.4749502 Z" id="形状"></path>
                        </g>
                    </g>
                    <text id="主题建模" mask="url(#mask-15)" font-family="PingFangSC-Regular, PingFang SC" font-size="14" font-weight="normal" fill="#1A1A1A">
                        <tspan x="443.432983" y="102.4">主题建模</tspan>
                    </text>
                    <text id="实体采集" mask="url(#mask-15)" font-family="PingFangSC-Regular, PingFang SC" font-size="14" font-weight="normal" fill="#1A1A1A">
                        <tspan x="444.60588" y="170.0544">实体采集</tspan>
                    </text>
                    <text id="语义关系" mask="url(#mask-15)" font-family="PingFangSC-Regular, PingFang SC" font-size="14" font-weight="normal" fill="#1A1A1A">
                        <tspan x="444.60588" y="239">语义关系</tspan>
                    </text>
                    <text id="对话分析" mask="url(#mask-15)" font-family="PingFangSC-Regular, PingFang SC" font-size="14" font-weight="normal" fill="#1A1A1A">
                        <tspan x="444.60588" y="302.8">对话分析</tspan>
                    </text>
                    <text id="行为识别" mask="url(#mask-15)" font-family="PingFangSC-Regular, PingFang SC" font-size="14" font-weight="normal" fill="#1A1A1A">
                        <tspan x="443.432983" y="369.1">行为识别</tspan>
                    </text>
                    <text id="情绪分析" mask="url(#mask-15)" font-family="PingFangSC-Regular, PingFang SC" font-size="14" font-weight="normal" fill="#1A1A1A">
                        <tspan x="443.432983" y="432.9">情绪分析</tspan>
                    </text>
                    <rect id="矩形" fill="#DBDBDB" mask="url(#mask-15)" x="398.10588" y="82.4086068" width="31.2395439" height="31.2395439" rx="4"></rect>
                    <rect id="矩形备份" fill="#DBDBDB" mask="url(#mask-15)" x="398.10588" y="149.734228" width="31.2395439" height="31.2395439" rx="4"></rect>
                    <rect id="矩形备份-2" fill="#DBDBDB" mask="url(#mask-15)" x="398.10588" y="217.760456" width="31.2395439" height="31.2395439" rx="4"></rect>
                    <rect id="矩形备份-3" fill="#DBDBDB" mask="url(#mask-15)" x="398.10588" y="281.272628" width="31.2395439" height="31.2395439" rx="4"></rect>
                    <rect id="矩形备份-4" fill="#DBDBDB" mask="url(#mask-15)" x="398.10588" y="349.595428" width="31.2395439" height="31.2395439" rx="4"></rect>
                    <rect id="矩形备份-5" fill="#DBDBDB" mask="url(#mask-15)" x="398.10588" y="412.811028" width="31.2395439" height="31.2395439" rx="4"></rect>
                    <g id="创建模型" mask="url(#mask-15)" fill="#FFFFFF" fill-rule="nonzero">
                        <g transform="translate(405.105880, 89.408607)">
                            <rect id="矩形" opacity="0" x="0" y="0" width="17.9999824" height="17.9999824"></rect>
                            <polygon id="路径" fill-opacity="0.01" points="0 0 17.9999824 0 17.9999824 17.9999824 0 17.9999824"></polygon>
                            <path d="M13.4999868,10.2856979 C14.8799708,10.2827608 16.1563909,11.0172821 16.8472347,12.2118947 C17.5380785,13.4065074 17.5380785,14.8791818 16.8472347,16.0737944 C16.1563909,17.268407 14.8799708,18.0029284 13.4999868,17.9999912 C11.3729633,17.9954417 9.65107433,16.2698729 9.65107433,14.1428446 C9.65107433,12.0158162 11.3729633,10.2902475 13.4999868,10.2856979 L13.4999868,10.2856979 Z M7.72970924,0.682716129 C8.11959332,0.464737287 8.59467354,0.464737287 8.98455762,0.682716129 L15.4131353,4.2801462 C15.8196645,4.50743527 16.0714861,4.93680765 16.0714179,5.40256112 L16.0727011,9.68914091 C15.2909467,9.23647457 14.4033389,8.99871221 13.4999868,8.9999912 C12.6449876,8.9999912 11.8388556,9.20829178 11.1291395,9.57855704 L8.96914162,8.28384151 L8.96914162,4.9178448 L8.96014163,4.8047121 C8.91254225,4.50777829 8.65785097,4.28838325 8.35714222,4.28527901 C8.19209533,4.28798386 8.03488551,4.35615414 7.92010855,4.4747882 C7.8053316,4.59342227 7.74239289,4.75279866 7.74514282,4.9178448 L7.74514282,8.28385909 L4.19142949,10.4117066 L4.10142958,10.477273 C3.87607324,10.6797388 3.82107404,11.0113254 3.96899612,11.2757058 L4.03327926,11.3695729 C4.22100661,11.6000898 4.54937232,11.6580922 4.8047121,11.5058384 L8.35714222,9.37927403 L10.0079902,10.3679899 C8.95440374,11.3403092 8.35576943,12.7091526 8.35714222,14.1428358 C8.35714222,15.2357019 8.69914188,16.2514177 9.28027413,17.0845497 L8.98455762,17.2491335 C8.59467354,17.4671124 8.11959332,17.4671124 7.72970924,17.2491335 L1.30113154,13.6516859 C0.894590081,13.4243983 0.642831388,12.9950168 0.642831388,12.5292534 L0.642831388,5.40256112 C0.642831388,4.93679767 0.894590081,4.5074162 1.30113154,4.28012863 L7.72970924,0.682716129 Z M13.4999868,11.5714222 C13.1895009,11.5713173 12.9233103,11.7931403 12.867421,12.0985546 L12.8571378,12.2142713 L12.8571378,13.4999868 L11.5714223,13.4999868 C11.2383968,13.4993139 10.959995,13.7530851 10.929904,14.084749 C10.899813,14.416413 11.1279968,14.7161453 11.4557056,14.7754191 L11.5714223,14.7857023 L12.8571378,14.7857023 L12.8571378,16.0714222 C12.8565159,16.4044055 13.1102733,16.6827499 13.4418994,16.7128379 C13.7735255,16.7429259 14.0732346,16.5147968 14.1325526,16.1871346 L14.1428358,16.0714222 L14.1428358,14.7857023 L15.4285513,14.7857023 C15.7615768,14.7863752 16.0399786,14.5326041 16.0700696,14.2009401 C16.1001606,13.8692762 15.8719768,13.5695438 15.544268,13.51027 L15.4285513,13.4999868 L14.1428358,13.4999868 L14.1428358,12.2142713 C14.1428358,11.8592356 13.8550225,11.5714222 13.4999868,11.5714222 L13.4999868,11.5714222 Z" id="形状"></path>
                        </g>
                    </g>
                    <g id="小采集器" mask="url(#mask-15)" fill="#FFFFFF" fill-rule="nonzero">
                        <g transform="translate(404.725652, 156.354000)">
                            <rect id="矩形" opacity="0" x="0" y="0" width="18" height="18"></rect>
                            <path d="M1.6875,0 C0.73125,0 0,0.73125 0,1.6875 L0,16.3125 C0,17.26875 0.73125,18 1.6875,18 L18,18 L18,0 L1.6875,0 Z M12.375,12.9375 C11.8125,12.9375 11.3625,12.4875 11.3625,11.925 C11.3625,11.64375 11.475,11.41875 11.64375,11.25 L10.63125,9.675 L10.575,9.675 L9.16875,12.825 C9.3375,12.99375 9.45,13.275 9.45,13.5 C9.45,14.0625 9,14.5125 8.4375,14.5125 C7.875,14.5125 7.425,14.0625 7.425,13.5 C7.425,13.33125 7.48125,13.1625 7.5375,13.05 L5.90625,11.19375 C5.85,11.25 5.7375,11.25 5.625,11.25 C5.0625,11.25 4.6125,10.8 4.6125,10.2375 C4.6125,9.675 5.0625,9.225 5.625,9.225 C6.1875,9.225 6.6375,9.675 6.6375,10.2375 C6.6375,10.40625 6.58125,10.63125 6.46875,10.74375 L8.1,12.6 C8.2125,12.54375 8.325,12.54375 8.4375,12.54375 L8.49375,12.54375 L9.9,9.39375 C9.73125,9.225 9.61875,9 9.61875,8.71875 C9.61875,8.15625 10.06875,7.70625 10.63125,7.70625 C11.19375,7.70625 11.64375,8.15625 11.64375,8.71875 C11.64375,9 11.475,9.28125 11.30625,9.45 L12.2625,10.96875 L12.375,10.96875 C12.9375,10.96875 13.3875,11.41875 13.3875,11.98125 C13.33125,12.54375 12.88125,12.9375 12.375,12.9375 L12.375,12.9375 Z M13.95,4.66875 L3.99375,4.66875 L3.99375,3.9375 L13.95,3.9375 L13.95,4.66875 L13.95,4.66875 Z" id="形状"></path>
                        </g>
                    </g>
                    <g id="语音" mask="url(#mask-15)" fill="#FFFFFF" fill-rule="nonzero">
                        <g transform="translate(404.140807, 223.092400)">
                            <rect id="矩形" opacity="0" x="0" y="0" width="20" height="20"></rect>
                            <path d="M13.4070898,19.9989258 L6.59291016,19.9989258 C6.21521484,19.9989258 5.90931641,19.6961719 5.90931641,19.3171289 C5.90931641,18.9407617 6.21021484,18.635332 6.59291016,18.635332 L9.54550781,18.635332 L9.54550781,16.8172656 C6.53339844,16.8172656 4.09125,14.3751172 4.09125,11.3630078 L4.09125,10.0012695 C4.09125,9.88037109 4.13943359,9.76400391 4.22488281,9.67855469 C4.31051136,9.59302904 4.42657335,9.54492188 4.54759766,9.54492188 L4.54804688,9.54492188 C4.79804688,9.54492188 5.00029297,9.7471875 5.00029297,9.99716797 L5.00029297,11.3630078 C5.00029297,13.8733203 7.03517578,15.9082227 9.54550781,15.9082227 L10.4545313,15.9082227 C12.9648633,15.9082227 14.9997461,13.8733203 14.9997461,11.3630078 L14.9997461,9.99628906 C14.9997461,9.74675781 15.201543,9.54492188 15.4510742,9.54492188 L15.4633594,9.54492188 C15.5815234,9.54492188 15.694707,9.59175781 15.7783398,9.67541016 C15.8618949,9.75892717 15.9087891,9.87223329 15.9087891,9.99037109 L15.9087891,11.3630273 C15.9087891,14.3751367 13.4666406,16.8172852 10.4545313,16.8172852 L10.4545313,18.6353516 L13.4071094,18.6353516 C13.7848047,18.6353516 14.0907031,18.9380859 14.0907031,19.3171484 C14.0907031,19.6934766 13.7898047,19.9989258 13.4071094,19.9989258 L13.4070898,19.9989258 Z M14.0906836,6.8178125 L14.0906836,10.9089453 C14.0906836,13.1679297 12.2598828,14.9991797 10,14.9991797 C7.74058594,14.9991797 5.90931641,13.1720117 5.90931641,10.9089453 L5.90931641,6.8178125 L14.0906836,6.8178125 Z M12.4044141,9.54492188 C12.6598633,9.54492188 12.8634766,9.34130859 12.8634766,9.09041016 C12.8634766,8.83769531 12.6580273,8.63587891 12.4044141,8.63587891 L7.59558594,8.63587891 C7.34013672,8.63587891 7.13652344,8.83951172 7.13652344,9.09041016 C7.13652344,9.343125 7.34197266,9.54492188 7.59558594,9.54492188 L12.4044141,9.54492188 Z M14.0906836,5.90876953 L14.0906836,4.54472656 C14.0906836,2.28167969 12.2594336,0.454492187 10,0.454492187 C7.74011719,0.454492187 5.90931641,2.28576172 5.90931641,4.54472656 L5.90931641,5.90876953 L14.0906836,5.90876953 L14.0906836,5.90876953 Z" id="形状"></path>
                        </g>
                    </g>
                    <g id="对话框" mask="url(#mask-15)" fill="#FFFFFF" fill-rule="nonzero">
                        <g transform="translate(404.140807, 287.800000)">
                            <rect id="矩形" opacity="0" x="0" y="0" width="20" height="20"></rect>
                            <path d="M16.1400781,5.90685547 L14.7745703,5.90685547 L14.7745703,12.0464453 L5.90554688,12.0464453 L5.90554688,13.4119336 C5.90554688,13.8205469 6.17863281,14.0936914 6.58783203,14.0936914 L14.0933594,14.0936914 L16.8223633,16.8230859 L16.8223633,6.58859375 C16.8223633,6.17994141 16.5481641,5.90685547 16.1400781,5.90685547 M13.4101562,10.0002539 L13.4101562,3.86015625 C13.4101562,3.45052734 13.1380664,3.17691406 12.7288672,3.17691406 L3.85886719,3.17691406 C3.4496875,3.17691406 3.17765625,3.45052734 3.17765625,3.86015625 L3.17765625,13.4119531 L5.90552734,10.6825391 L12.7288281,10.6825391 C13.1380078,10.6825391 13.4101562,10.4099219 13.4101562,10.0002734" id="形状"></path>
                        </g>
                    </g>
                    <g id="人脸识别" mask="url(#mask-15)" fill="#FFFFFF" fill-rule="nonzero">
                        <g transform="translate(404.140807, 355.215200)">
                            <rect id="矩形" opacity="0" x="0" y="0" width="20" height="20"></rect>
                            <path d="M15.78,2.083125 L14.295625,2.083125 C14.1623825,2.08341539 14.0353883,2.13965571 13.945625,2.238125 C13.8514385,2.33943346 13.7995618,2.47292656 13.800609,2.61125 C13.800609,2.746875 13.84875,2.880625 13.945625,2.984375 C14.035499,3.08261306 14.1624783,3.13862004 14.295625,3.13875 L15.78,3.13875 L15.78,4.7225 C15.78,4.858125 15.8275,4.99125 15.925,5.095625 C16.0149499,5.19347008 16.1417791,5.24915392 16.2746875,5.24915392 C16.4075959,5.24915392 16.5344251,5.19347008 16.624375,5.095625 C16.7185615,4.99431654 16.7704382,4.86082344 16.769391,4.7225 L16.769391,3.13875 C16.769391,2.55625 16.325625,2.083125 15.78,2.083125 L15.78,2.083125 Z M16.274375,10 C16.1430908,9.9993586 16.0170261,10.0513603 15.924375,10.144375 C15.8313603,10.2370261 15.7793586,10.3630908 15.78,10.494375 L15.78,11.97875 L14.295625,11.97875 C14.1642503,11.9782739 14.0381728,12.030506 13.945625,12.12375 C13.919375,12.15 13.905,12.18375 13.885625,12.215625 C13.3275,11.678125 12.7,11.236875 12.005625,10.943125 C13.415625,10.100625 14.308125,8.480625 14.034375,6.66 C13.77625,4.951875 12.45125,3.52375 10.76,3.170625 C10.4585026,3.10713895 10.151234,3.07499982 9.843125,3.07499982 C8.71833967,3.0746683 7.63952737,3.52134064 6.84418401,4.31668401 C6.04884064,5.11202737 5.6021683,6.19083967 5.6025,7.315625 C5.6025,8.86375 6.441875,10.205 7.68,10.945 C6.9875,11.23875 6.35875,11.68 5.8,12.2175 C5.78125,12.185625 5.766875,12.151875 5.74,12.125625 C5.64745222,12.032381 5.5213747,11.9801489 5.39,11.980625 L3.90625,11.980625 L3.90625,10.49625 C3.90672613,10.3648753 3.85449401,10.2387978 3.76125,10.14625 C3.66870222,10.053006 3.5426247,10.0007739 3.41125,10.00125 C3.2798753,10.0007739 3.15379778,10.053006 3.06125,10.14625 C2.96823528,10.2389011 2.9162336,10.3649658 2.91686914,10.49625 L2.91686914,11.980625 C2.91686914,12.52625 3.360625,12.97 3.90625,12.97 L5.125,12.97 C4.298125,14.040625 3.724375,15.381875 3.54375,16.88 C3.476875,17.43125 3.91686914,17.9175 4.47125,17.9175 L15.214375,17.9175 C15.769375,17.9175 16.2075,17.43 16.141875,16.88 C15.961875,15.38 15.3875,14.03875 14.560625,12.968125 L15.779375,12.968125 C16.325625,12.968125 16.7693782,12.524375 16.7693782,11.97875 L16.7693782,10.49375 C16.7698511,10.3623753 16.717619,10.2362978 16.624375,10.14375 C16.5317239,10.0507353 16.4056592,9.9987336 16.274375,9.999375 L16.274375,10 Z M3.4125,5.25 C3.54542899,5.24969508 3.67214804,5.19370295 3.761875,5.095625 C3.85606151,4.99431654 3.90793823,4.86082344 3.906875,4.7225 L3.906875,3.13875 L5.39125,3.13875 C5.52439665,3.13862004 5.65137603,3.08261306 5.74125,2.984375 C5.83520903,2.88297004 5.88685786,2.74948801 5.88564657,2.61125 C5.88668823,2.47292656 5.83481151,2.33943346 5.740625,2.238125 C5.65086175,2.13965571 5.52386748,2.08341539 5.390625,2.083125 L3.90625,2.083125 C3.36,2.083125 2.916875,2.55625 2.916875,3.139375 L2.916875,4.7225 C2.916875,4.858125 2.964375,4.99125 3.06125,5.095625 C3.15112397,5.19386306 3.27810335,5.24987004 3.41125,5.25 L3.4125,5.25 Z" id="形状"></path>
                        </g>
                    </g>
                    <g id="情绪正常" mask="url(#mask-15)" fill="#FFFFFF" fill-rule="nonzero">
                        <g transform="translate(403.725652, 418.430800)">
                            <rect id="矩形" opacity="0" x="0" y="0" width="20" height="20"></rect>
                            <path d="M10,18.3333398 C5.3975,18.3333398 1.66666016,14.6025 1.66666016,10 C1.66666016,5.3975 5.3975,1.66666016 10,1.66666016 C14.6025,1.66666016 18.3333398,5.3975 18.3333398,10 C18.3333398,14.6025 14.6025,18.3333398 10,18.3333398 Z M6.66666016,11.6666602 L6.66666016,13.3333398 L13.3333398,13.3333398 L13.3333398,11.6666602 L6.66666016,11.6666602 L6.66666016,11.6666602 Z M6.66666016,9.16666016 C7.35701609,9.16666016 7.91666016,8.60701609 7.91666016,7.91666016 C7.91666016,7.22630422 7.35701609,6.66666016 6.66666016,6.66666016 C5.97630422,6.66666016 5.41666016,7.22630422 5.41666016,7.91666016 C5.41666016,8.60701609 5.97630422,9.16666016 6.66666016,9.16666016 Z M13.3333398,9.16666016 C14.0236958,9.16666016 14.5833398,8.60701609 14.5833398,7.91666016 C14.5833398,7.22630422 14.0236958,6.66666016 13.3333398,6.66666016 C12.6429839,6.66666016 12.0833398,7.22630422 12.0833398,7.91666016 C12.0833398,8.60701609 12.6429839,9.16666016 13.3333398,9.16666016 Z" id="形状"></path>
                        </g>
                    </g>
                    <line x1="255.97508" y1="264.9924" x2="305.10588" y2="264.9924" id="路径-20" stroke="#2B58F9" mask="url(#mask-15)"></line>
                    <line x1="358.235183" y1="428.6156" x2="391" y2="428.6156" id="路径-25" stroke="#2B58F9" stroke-dasharray="2" mask="url(#mask-15)"></line>
                </g>
                <g id="编组-3" transform="translate(515.548213, 95.109686)">
                    <polygon id="三角形" fill="#D8D8D8" transform="translate(56.571390, 2.476687) rotate(90.000000) translate(-56.571390, -2.476687) " points="56.5713905 -4.54747351e-13 59.0480779 4.95337475 54.0947031 4.95337475"></polygon>
                    <line x1="0" y1="2.47668738" x2="54.0947031" y2="2.47668738" id="路径-27" stroke="#DBDADB"></line>
                </g>
                <g id="编组-3备份" transform="translate(515.548213, 163.109686)">
                    <polygon id="三角形" fill="#D8D8D8" transform="translate(56.571390, 2.476687) rotate(90.000000) translate(-56.571390, -2.476687) " points="56.5713905 -4.54747351e-13 59.0480779 4.95337475 54.0947031 4.95337475"></polygon>
                    <line x1="0" y1="2.47668738" x2="54.0947031" y2="2.47668738" id="路径-27" stroke="#DBDADB"></line>
                </g>
                <g id="编组-3备份-2" transform="translate(515.548213, 231.109686)">
                    <polygon id="三角形" fill="#D8D8D8" transform="translate(56.571390, 2.476687) rotate(90.000000) translate(-56.571390, -2.476687) " points="56.5713905 -4.54747351e-13 59.0480779 4.95337475 54.0947031 4.95337475"></polygon>
                    <line x1="0" y1="2.47668738" x2="54.0947031" y2="2.47668738" id="路径-27" stroke="#DBDADB"></line>
                </g>
                <g id="编组-3备份-3" transform="translate(515.548213, 295.609686)">
                    <polygon id="三角形" fill="#D8D8D8" transform="translate(56.571390, 2.476687) rotate(90.000000) translate(-56.571390, -2.476687) " points="56.5713905 -4.54747351e-13 59.0480779 4.95337475 54.0947031 4.95337475"></polygon>
                    <line x1="0" y1="2.47668738" x2="54.0947031" y2="2.47668738" id="路径-27" stroke="#DBDADB"></line>
                </g>
                <g id="编组-3备份-4" transform="translate(515.548213, 363.609686)">
                    <polygon id="三角形" fill="#D8D8D8" transform="translate(56.571390, 2.476687) rotate(90.000000) translate(-56.571390, -2.476687) " points="56.5713905 -4.54747351e-13 59.0480779 4.95337475 54.0947031 4.95337475"></polygon>
                    <line x1="0" y1="2.47668738" x2="54.0947031" y2="2.47668738" id="路径-27" stroke="#DBDADB"></line>
                </g>
                <g id="编组-3备份-5" transform="translate(515.548213, 425.109686)">
                    <polygon id="三角形" fill="#D8D8D8" transform="translate(56.571390, 2.476687) rotate(90.000000) translate(-56.571390, -2.476687) " points="56.5713905 -4.54747351e-13 59.0480779 4.95337475 54.0947031 4.95337475"></polygon>
                    <line x1="0" y1="2.47668738" x2="54.0947031" y2="2.47668738" id="路径-27" stroke="#DBDADB"></line>
                </g>
            </g>
        </g>
    </g>
</svg>