<?xml version="1.0" encoding="UTF-8"?>
<svg width="480px" height="438px" viewBox="0 0 480 438" version="1.1" xmlns="http://www.w3.org/2000/svg" xmlns:xlink="http://www.w3.org/1999/xlink">
    <title>编组 70</title>
    <g id="页面-1" stroke="none" stroke-width="1" fill="none" fill-rule="evenodd">
        <g id="CDP+" transform="translate(-120.000000, -3112.000000)">
            <g id="编组-70" transform="translate(120.000000, 3112.000000)">
                <g id="编组-60">
                    <text id="非结构化数据挖掘" font-family="PingFangSC-Medium, PingFang SC" font-size="36" font-weight="400" line-spacing="56" fill="#000000" fill-opacity="0.8">
                        <tspan x="0" y="38">非结构化数据挖掘</tspan>
                    </text>
                    <g id="编组-19" transform="translate(0.000000, 96.000000)">
                        <text id="挖掘业务价值" font-family="PingFangSC-Medium, PingFang SC" font-size="22" font-weight="400" line-spacing="30" fill="#000000" fill-opacity="0.8">
                            <tspan x="68" y="23">挖掘业务价值</tspan>
                        </text>
                        <text id="发掘非结构化数据中的潜在信息，包括语言、" font-family="PingFangSC-Regular, PingFang SC" font-size="16" font-weight="normal" line-spacing="24" fill="#000000" fill-opacity="0.65">
                            <tspan x="68" y="55">发掘非结构化数据中的潜在信息，包括语言、图像、</tspan>
                            <tspan x="68" y="79">视频等形式，为运营决策提供更准确的信息参考</tspan>
                        </text>
                        <g id="编组-18" fill="#F6F7FA">
                            <rect id="矩形" x="0" y="0" width="48" height="48" rx="8"></rect>
                        </g>
                    </g>
                    <g id="编组-20" transform="translate(0.000000, 212.000000)">
                        <text id="自动化数据处理和分析" font-family="PingFangSC-Medium, PingFang SC" font-size="22" font-weight="400" line-spacing="30" fill="#000000" fill-opacity="0.8">
                            <tspan x="68" y="23">自动化数据处理和分析</tspan>
                        </text>
                        <text id="自动化地处理非结构化数据，提高数据处理和" font-family="PingFangSC-Regular, PingFang SC" font-size="16" font-weight="normal" line-spacing="24" fill="#000000" fill-opacity="0.65">
                            <tspan x="68" y="55">自动化地处理非结构化数据，提高数据处理和分析的</tspan>
                            <tspan x="68" y="79">效率，避免了传统数据录入处理数据的繁琐和耗时</tspan>
                        </text>
                        <g id="编组-18" fill="#F6F7FA">
                            <rect id="矩形" x="0" y="0" width="48" height="48" rx="8"></rect>
                        </g>
                    </g>
                    <g id="编组-19" transform="translate(0.000000, 328.000000)">
                        <text id="提供个性化服务" font-family="PingFangSC-Medium, PingFang SC" font-size="22" font-weight="400" line-spacing="30" fill="#000000" fill-opacity="0.8">
                            <tspan x="68" y="23">提供个性化服务</tspan>
                        </text>
                        <text id="分析用户的对话历史，了解用户的兴趣、偏好" font-family="PingFangSC-Regular, PingFang SC" font-size="16" font-weight="normal" line-spacing="24" fill="#000000" fill-opacity="0.65">
                            <tspan x="68" y="55">分析用户的对话历史，了解用户的兴趣、偏好、需求</tspan>
                            <tspan x="68" y="79">等信息，识别用户的情感状态，为用户提供更加个性</tspan>
                            <tspan x="68" y="103">化的服务</tspan>
                        </text>
                        <g id="编组-18" fill="#F6F7FA">
                            <rect id="矩形" x="0" y="0" width="48" height="48" rx="8"></rect>
                        </g>
                    </g>
                </g>
                <g id="业务申请" transform="translate(14.000000, 110.000000)" fill-rule="nonzero">
                    <rect id="矩形" fill="#000000" opacity="0" x="0" y="4.88281152e-06" width="19.999996" height="19.999996"></rect>
                    <path d="M15.5,20.0000009 L2.66665962,20.0000009 C1.16665992,20.0000009 0,18.8333444 0,17.3333444 L0,4.50000398 C0,3.00000428 1.16665992,1.83334436 2.66665962,1.83334436 L7.58333833,1.83334436 C8.08333823,1.83334436 8.41665847,2.16666461 8.41665847,2.66666451 C8.41665847,3.16666441 8.08333823,3.50000418 7.58333833,3.50000418 L2.66665962,3.50000418 C2.08333943,3.50000418 1.66665982,3.91666426 1.66665982,4.50000398 L1.66665982,17.3333444 C1.66665982,17.9166615 2.08333943,18.3333444 2.66665962,18.3333444 L15.5,18.3333444 C16.0833366,18.3333444 16.5,17.9166615 16.5,17.3333444 L16.5,12.4166626 C16.5,11.9166627 16.8333365,11.5833424 17.3333364,11.5833424 C17.8333363,11.5833424 18.1666565,11.9166627 18.1666565,12.4166626 L18.1666565,17.3333444 C18.1666565,18.8333444 17,20.0000009 15.5,20.0000009 Z" id="路径" fill="#333333"></path>
                    <path d="M9.9999989,14.5 L6.33333858,14.5 C5.83333868,14.5 5.4999989,14.1666622 5.4999989,13.6666623 L5.4999989,10 C5.4999989,9.75000293 5.58333873,9.58334281 5.74999885,9.41666316 L14.9166572,0.250004833 C15.249997,-0.0833349443 15.7499969,-0.0833349443 16.0833366,0.250004833 L19.7499961,3.91666426 C19.9166562,4.08334391 19.9999989,4.25000403 19.9999989,4.5 C19.9999989,4.75000393 19.9166562,4.91666406 19.7499961,5.08334371 L10.5833377,14.250002 C10.4166581,14.4166622 10.249998,14.5 9.9999989,14.5 Z M7.16665872,12.8333422 L9.66665872,12.8333422 L17.9999964,4.50000448 L15.4999969,2.00000448 L7.16665872,10.3333427 L7.16665872,12.8333422 Z" id="形状" fill="#333333"></path>
                </g>
                <g id="数据分析" transform="translate(13.000000, 225.000000)" fill="#000000" fill-rule="nonzero">
                    <rect id="矩形" opacity="0" x="0" y="0" width="22" height="22"></rect>
                    <path d="M19.25,3.4375 L19.25,5.72917383 C19.25,6.10957617 18.9429238,6.41667383 18.5625,6.41667383 C18.1820762,6.41667383 17.875,6.10957617 17.875,5.72917383 L17.875,5.09667383 L13.09,9.88167383 C12.9570762,10.016875 12.780625,10.0833262 12.6041738,10.0833262 C12.4277227,10.0833262 12.25125,10.016875 12.1183262,9.88167383 L8.47917383,6.2425 L3.92332617,10.7983262 C3.79042383,10.9335488 3.61395117,11 3.4375,11 C3.26104883,11 3.08457617,10.9335488 2.95167383,10.7983262 C2.6836011,10.5299117 2.6836011,10.0950883 2.95167383,9.82667383 L7.99332617,4.785 C8.26174308,4.51691297 8.69658309,4.51691297 8.965,4.785 L12.6041738,8.42417383 L16.9033262,4.125 L16.2708262,4.125 C15.8904238,4.125 15.5833262,3.81792383 15.5833262,3.4375 C15.5833262,3.05707617 15.8904238,2.75 16.2708262,2.75 L18.5625,2.75 C18.6060488,2.75 18.6495762,2.75457617 18.693125,2.76375 C18.7091738,2.76604883 18.7252012,2.76832617 18.74125,2.77520117 C18.7916738,2.78667383 18.8397988,2.805 18.8833262,2.83020117 C18.9016738,2.839375 18.9222988,2.85082617 18.940625,2.86457617 C18.96125,2.87604883 18.9795762,2.88979883 18.995625,2.90582617 C19.0328986,2.93393196 19.066068,2.96710139 19.0941738,3.004375 C19.1102012,3.02042383 19.1239512,3.03875 19.1354238,3.059375 C19.1491738,3.07770117 19.160625,3.09832617 19.1697988,3.11667383 C19.195,3.16020117 19.2133262,3.20832617 19.2247988,3.25875 C19.2316738,3.27479883 19.2339512,3.29082617 19.23625,3.306875 C19.2453542,3.34982149 19.25,3.39359914 19.25,3.4375 Z M4.8125,19.25 C4.43280423,19.25 4.125,18.9421958 4.125,18.5625 L4.125,13.5208262 C4.125,13.1411304 4.43280423,12.8333262 4.8125,12.8333262 C5.19219577,12.8333262 5.5,13.1411304 5.5,13.5208262 L5.5,18.5625 C5.5,18.9421958 5.19219577,19.25 4.8125,19.25 Z M8.9375,19.25 C8.55780423,19.25 8.25,18.9421958 8.25,18.5625 L8.25,10.3125 C8.25,9.93280423 8.55780423,9.625 8.9375,9.625 C9.31719577,9.625 9.625,9.93280423 9.625,10.3125 L9.625,18.5625 C9.625,18.9421958 9.31719577,19.25 8.9375,19.25 Z M13.0625,19.25 C12.6828042,19.25 12.375,18.9421958 12.375,18.5625 L12.375,12.6041738 C12.375,12.2244781 12.6828042,11.9166738 13.0625,11.9166738 C13.4421958,11.9166738 13.75,12.2244781 13.75,12.6041738 L13.75,18.5625 C13.75,18.9421958 13.4421958,19.25 13.0625,19.25 Z M17.1875,19.25 C16.8078042,19.25 16.5,18.9421958 16.5,18.5625 L16.5,8.9375 C16.5,8.55780423 16.8078042,8.25 17.1875,8.25 C17.5671958,8.25 17.875,8.55780423 17.875,8.9375 L17.875,18.5625 C17.875,18.9421958 17.5671958,19.25 17.1875,19.25 Z" id="形状"></path>
                </g>
                <g id="钻石" transform="translate(14.885972, 344.101562)" fill="#333333" fill-rule="nonzero">
                    <path d="M17.8855122,4.58789063 L15.3776997,0.826171875 C15.0319966,0.307617188 14.4548482,0 13.8337544,0 L4.3679341,0 C3.74684035,0 3.16969191,0.307617188 2.82398878,0.826171875 L0.313246597,4.58789063 C-0.161362778,5.29980469 -0.0910502775,6.23730469 0.48609816,6.8671875 L8.24977003,15.3925781 C8.46656691,15.6298828 8.77711378,15.7675781 9.09937941,15.7675781 C9.42164503,15.7675781 9.73219191,15.6298828 9.94898878,15.3925781 L17.7126607,6.8671875 C18.2868794,6.23730469 18.3571919,5.29980469 17.8855122,4.58789063 Z M14.6452778,1.3125 L17.1530903,5.07421875 C17.2058247,5.15332031 17.2468403,5.24121094 17.2732075,5.32910156 L13.0339497,5.32910156 L11.8415669,0.875976563 L13.8308247,0.875976563 C14.1589497,0.87890625 14.4636372,1.04003906 14.6452778,1.3125 Z M9.09937941,14.3496094 L6.11695753,6.2109375 L12.0788716,6.2109375 L9.09937941,14.3496094 L9.09937941,14.3496094 Z M10.9304341,0.87890625 L12.1228169,5.33203125 L6.07301222,5.33203125 L7.26539503,0.87890625 L10.9304341,0.87890625 Z M3.55348097,1.3125 C3.7351216,1.04003906 4.0398091,0.875976563 4.3679341,0.875976563 L6.35719191,0.875976563 L5.1648091,5.32910156 L0.925551285,5.32910156 C0.951918472,5.24121094 0.992934097,5.15332031 1.04566847,5.07421875 L3.55348097,1.3125 L3.55348097,1.3125 Z M1.08082472,6.2109375 L5.18238722,6.2109375 L7.94508253,13.7519531 L1.13648878,6.27539063 C1.11598097,6.25488281 1.09840285,6.23144531 1.08082472,6.2109375 Z M10.2536763,13.7519531 L13.0163716,6.2109375 L17.1179341,6.2109375 C17.100356,6.234375 17.0827778,6.25488281 17.06227,6.27832031 L10.2536763,13.7519531 Z" id="形状"></path>
                </g>
            </g>
        </g>
    </g>
</svg>