<?xml version="1.0" encoding="UTF-8"?>
<svg width="1200px" height="664px" viewBox="0 0 1200 664" version="1.1" xmlns="http://www.w3.org/2000/svg" xmlns:xlink="http://www.w3.org/1999/xlink">
    <title>编组 97</title>
    <defs>
        <linearGradient x1="50%" y1="0%" x2="50%" y2="100%" id="linearGradient-1">
            <stop stop-color="#E2F3FF" offset="0%"></stop>
            <stop stop-color="#D7DDFF" offset="100%"></stop>
        </linearGradient>
        <rect id="path-2" x="0" y="0" width="1440" height="1184"></rect>
        <filter x="-8.7%" y="-16.2%" width="117.5%" height="132.5%" filterUnits="objectBoundingBox" id="filter-4">
            <feGaussianBlur stdDeviation="50" in="SourceGraphic"></feGaussianBlur>
        </filter>
        <filter x="-18.1%" y="-17.4%" width="136.2%" height="134.8%" filterUnits="objectBoundingBox" id="filter-5">
            <feGaussianBlur stdDeviation="50" in="SourceGraphic"></feGaussianBlur>
        </filter>
        <filter x="-18.1%" y="-17.4%" width="136.2%" height="134.8%" filterUnits="objectBoundingBox" id="filter-6">
            <feGaussianBlur stdDeviation="50" in="SourceGraphic"></feGaussianBlur>
        </filter>
        <rect id="path-7" x="0" y="0" width="256.410256" height="164" rx="10"></rect>
        <filter x="-9.7%" y="-14.0%" width="119.5%" height="130.5%" filterUnits="objectBoundingBox" id="filter-8">
            <feOffset dx="0" dy="2" in="SourceAlpha" result="shadowOffsetOuter1"></feOffset>
            <feGaussianBlur stdDeviation="8" in="shadowOffsetOuter1" result="shadowBlurOuter1"></feGaussianBlur>
            <feColorMatrix values="0 0 0 0 0.204737413   0 0 0 0 0.418516171   0 0 0 0 0.719076405  0 0 0 0.136478024 0" type="matrix" in="shadowBlurOuter1"></feColorMatrix>
        </filter>
        <rect id="path-9" x="572.718319" y="0" width="256.410256" height="164" rx="10"></rect>
        <filter x="-9.7%" y="-14.0%" width="119.5%" height="130.5%" filterUnits="objectBoundingBox" id="filter-10">
            <feOffset dx="0" dy="2" in="SourceAlpha" result="shadowOffsetOuter1"></feOffset>
            <feGaussianBlur stdDeviation="8" in="shadowOffsetOuter1" result="shadowBlurOuter1"></feGaussianBlur>
            <feColorMatrix values="0 0 0 0 0.204737413   0 0 0 0 0.418516171   0 0 0 0 0.719076405  0 0 0 0.136478024 0" type="matrix" in="shadowBlurOuter1"></feColorMatrix>
        </filter>
        <rect id="path-11" x="286.35916" y="0" width="256.410256" height="164" rx="10"></rect>
        <filter x="-9.7%" y="-14.0%" width="119.5%" height="130.5%" filterUnits="objectBoundingBox" id="filter-12">
            <feOffset dx="0" dy="2" in="SourceAlpha" result="shadowOffsetOuter1"></feOffset>
            <feGaussianBlur stdDeviation="8" in="shadowOffsetOuter1" result="shadowBlurOuter1"></feGaussianBlur>
            <feColorMatrix values="0 0 0 0 0.204737413   0 0 0 0 0.418516171   0 0 0 0 0.719076405  0 0 0 0.136478024 0" type="matrix" in="shadowBlurOuter1"></feColorMatrix>
        </filter>
        <rect id="path-13" x="859.077479" y="0" width="256.410256" height="164" rx="10"></rect>
        <filter x="-9.7%" y="-14.0%" width="119.5%" height="130.5%" filterUnits="objectBoundingBox" id="filter-14">
            <feOffset dx="0" dy="2" in="SourceAlpha" result="shadowOffsetOuter1"></feOffset>
            <feGaussianBlur stdDeviation="8" in="shadowOffsetOuter1" result="shadowBlurOuter1"></feGaussianBlur>
            <feColorMatrix values="0 0 0 0 0.204737413   0 0 0 0 0.418516171   0 0 0 0 0.719076405  0 0 0 0.136478024 0" type="matrix" in="shadowBlurOuter1"></feColorMatrix>
        </filter>
        <rect id="path-15" x="0" y="0" width="205.128205" height="79" rx="10"></rect>
        <filter x="-12.2%" y="-29.1%" width="124.4%" height="163.3%" filterUnits="objectBoundingBox" id="filter-16">
            <feOffset dx="0" dy="2" in="SourceAlpha" result="shadowOffsetOuter1"></feOffset>
            <feGaussianBlur stdDeviation="8" in="shadowOffsetOuter1" result="shadowBlurOuter1"></feGaussianBlur>
            <feColorMatrix values="0 0 0 0 0.127124822   0 0 0 0 0.315448189   0 0 0 0 0.580219656  0 0 0 0.1 0" type="matrix" in="shadowBlurOuter1"></feColorMatrix>
        </filter>
        <rect id="path-17" x="456.884615" y="0" width="205.128205" height="79" rx="10"></rect>
        <filter x="-12.2%" y="-29.1%" width="124.4%" height="163.3%" filterUnits="objectBoundingBox" id="filter-18">
            <feOffset dx="0" dy="2" in="SourceAlpha" result="shadowOffsetOuter1"></feOffset>
            <feGaussianBlur stdDeviation="8" in="shadowOffsetOuter1" result="shadowBlurOuter1"></feGaussianBlur>
            <feColorMatrix values="0 0 0 0 0.127124822   0 0 0 0 0.315448189   0 0 0 0 0.580219656  0 0 0 0.1 0" type="matrix" in="shadowBlurOuter1"></feColorMatrix>
        </filter>
        <rect id="path-19" x="228.442308" y="0" width="205.128205" height="79" rx="10"></rect>
        <filter x="-12.2%" y="-29.1%" width="124.4%" height="163.3%" filterUnits="objectBoundingBox" id="filter-20">
            <feOffset dx="0" dy="2" in="SourceAlpha" result="shadowOffsetOuter1"></feOffset>
            <feGaussianBlur stdDeviation="8" in="shadowOffsetOuter1" result="shadowBlurOuter1"></feGaussianBlur>
            <feColorMatrix values="0 0 0 0 0.127124822   0 0 0 0 0.315448189   0 0 0 0 0.580219656  0 0 0 0.1 0" type="matrix" in="shadowBlurOuter1"></feColorMatrix>
        </filter>
        <rect id="path-21" x="685.326923" y="0" width="205.128205" height="79" rx="10"></rect>
        <filter x="-12.2%" y="-29.1%" width="124.4%" height="163.3%" filterUnits="objectBoundingBox" id="filter-22">
            <feOffset dx="0" dy="2" in="SourceAlpha" result="shadowOffsetOuter1"></feOffset>
            <feGaussianBlur stdDeviation="8" in="shadowOffsetOuter1" result="shadowBlurOuter1"></feGaussianBlur>
            <feColorMatrix values="0 0 0 0 0.127124822   0 0 0 0 0.315448189   0 0 0 0 0.580219656  0 0 0 0.1 0" type="matrix" in="shadowBlurOuter1"></feColorMatrix>
        </filter>
        <rect id="path-23" x="913.769231" y="0" width="205.128205" height="79" rx="10"></rect>
        <filter x="-12.2%" y="-29.1%" width="124.4%" height="163.3%" filterUnits="objectBoundingBox" id="filter-24">
            <feOffset dx="0" dy="2" in="SourceAlpha" result="shadowOffsetOuter1"></feOffset>
            <feGaussianBlur stdDeviation="8" in="shadowOffsetOuter1" result="shadowBlurOuter1"></feGaussianBlur>
            <feColorMatrix values="0 0 0 0 0.127124822   0 0 0 0 0.315448189   0 0 0 0 0.580219656  0 0 0 0.1 0" type="matrix" in="shadowBlurOuter1"></feColorMatrix>
        </filter>
        <rect id="path-25" x="0" y="199" width="1119" height="263" rx="10"></rect>
        <filter x="-2.5%" y="-9.9%" width="105.0%" height="121.3%" filterUnits="objectBoundingBox" id="filter-26">
            <feOffset dx="0" dy="2" in="SourceAlpha" result="shadowOffsetOuter1"></feOffset>
            <feGaussianBlur stdDeviation="9" in="shadowOffsetOuter1" result="shadowBlurOuter1"></feGaussianBlur>
            <feComposite in="shadowBlurOuter1" in2="SourceAlpha" operator="out" result="shadowBlurOuter1"></feComposite>
            <feColorMatrix values="0 0 0 0 0.204737413   0 0 0 0 0.418516171   0 0 0 0 0.719076405  0 0 0 0.1 0" type="matrix" in="shadowBlurOuter1"></feColorMatrix>
        </filter>
        <mask id="mask-27" maskContentUnits="userSpaceOnUse" maskUnits="objectBoundingBox" x="0" y="0" width="1119" height="263" fill="white">
            <use xlink:href="#path-25"></use>
        </mask>
        <rect id="path-28" x="0" y="118.863412" width="236.51245" height="48" rx="8"></rect>
        <filter x="-10.6%" y="-47.9%" width="121.1%" height="204.2%" filterUnits="objectBoundingBox" id="filter-29">
            <feOffset dx="0" dy="2" in="SourceAlpha" result="shadowOffsetOuter1"></feOffset>
            <feGaussianBlur stdDeviation="8" in="shadowOffsetOuter1" result="shadowBlurOuter1"></feGaussianBlur>
            <feComposite in="shadowBlurOuter1" in2="SourceAlpha" operator="out" result="shadowBlurOuter1"></feComposite>
            <feColorMatrix values="0 0 0 0 0.204737413   0 0 0 0 0.418516171   0 0 0 0 0.719076405  0 0 0 0.1 0" type="matrix" in="shadowBlurOuter1"></feColorMatrix>
        </filter>
        <rect id="path-30" x="380.63248" y="118.863412" width="236.51245" height="48" rx="8"></rect>
        <filter x="-10.6%" y="-47.9%" width="121.1%" height="204.2%" filterUnits="objectBoundingBox" id="filter-31">
            <feOffset dx="0" dy="2" in="SourceAlpha" result="shadowOffsetOuter1"></feOffset>
            <feGaussianBlur stdDeviation="8" in="shadowOffsetOuter1" result="shadowBlurOuter1"></feGaussianBlur>
            <feComposite in="shadowBlurOuter1" in2="SourceAlpha" operator="out" result="shadowBlurOuter1"></feComposite>
            <feColorMatrix values="0 0 0 0 0.204737413   0 0 0 0 0.418516171   0 0 0 0 0.719076405  0 0 0 0.1 0" type="matrix" in="shadowBlurOuter1"></feColorMatrix>
        </filter>
        <rect id="path-32" x="761.26496" y="118.863412" width="236.51245" height="48" rx="8"></rect>
        <filter x="-10.6%" y="-47.9%" width="121.1%" height="204.2%" filterUnits="objectBoundingBox" id="filter-33">
            <feOffset dx="0" dy="2" in="SourceAlpha" result="shadowOffsetOuter1"></feOffset>
            <feGaussianBlur stdDeviation="8" in="shadowOffsetOuter1" result="shadowBlurOuter1"></feGaussianBlur>
            <feComposite in="shadowBlurOuter1" in2="SourceAlpha" operator="out" result="shadowBlurOuter1"></feComposite>
            <feColorMatrix values="0 0 0 0 0.204737413   0 0 0 0 0.418516171   0 0 0 0 0.719076405  0 0 0 0.1 0" type="matrix" in="shadowBlurOuter1"></feColorMatrix>
        </filter>
        <linearGradient x1="50%" y1="0%" x2="50%" y2="100%" id="linearGradient-34">
            <stop stop-color="#C7D2FA" offset="0%"></stop>
            <stop stop-color="#E8EFFF" stop-opacity="0.0489595853" offset="100%"></stop>
        </linearGradient>
        <linearGradient x1="50%" y1="0%" x2="50%" y2="100%" id="linearGradient-35">
            <stop stop-color="#2B58F9" stop-opacity="0.389103816" offset="0%"></stop>
            <stop stop-color="#E8EFFF" offset="100%"></stop>
        </linearGradient>
        <linearGradient x1="50%" y1="0%" x2="50%" y2="100%" id="linearGradient-36">
            <stop stop-color="#D4E1FB" stop-opacity="0.458077811" offset="0%"></stop>
            <stop stop-color="#D8E4FD" stop-opacity="0.300894149" offset="48.0285415%"></stop>
            <stop stop-color="#DCE7FF" stop-opacity="0.130806449" offset="100%"></stop>
        </linearGradient>
    </defs>
    <g id="页面-1" stroke="none" stroke-width="1" fill="none" fill-rule="evenodd">
        <g id="AICC+" transform="translate(-120.000000, -420.000000)">
            <rect fill="#FFFFFF" x="0" y="0" width="1440" height="6038"></rect>
            <g id="背景色">
                <mask id="mask-3" fill="white">
                    <use xlink:href="#path-2"></use>
                </mask>
                <use id="bg" fill="url(#linearGradient-1)" xlink:href="#path-2"></use>
                <ellipse id="椭圆形" fill="#B8BDFF" opacity="0.494147891" filter="url(#filter-4)" mask="url(#mask-3)" cx="348" cy="1181.39666" rx="859" ry="461.832894"></ellipse>
                <ellipse id="椭圆形" fill="#68C4FF" opacity="0.32" filter="url(#filter-5)" mask="url(#mask-3)" cx="1404.22222" cy="1212.63676" rx="414" ry="431.113456"></ellipse>
                <ellipse id="椭圆形" fill="#D4E9FF" opacity="0.739416213" filter="url(#filter-6)" mask="url(#mask-3)" cx="57.2222222" cy="274.39226" rx="414" ry="431.113456"></ellipse>
            </g>
            <g id="编组-97" transform="translate(120.000000, 420.000000)">
                <rect id="矩形备份-21" stroke="#FFFFFF" stroke-width="2" fill-opacity="0.242785047" fill="#FFFFFF" x="1" y="1" width="1198" height="662" rx="20"></rect>
                <g id="编组-96" transform="translate(38.814768, 42.000000)">
                    <g id="编组-91" transform="translate(3.441365, 0.000000)">
                        <g id="矩形">
                            <use fill="black" fill-opacity="1" filter="url(#filter-8)" xlink:href="#path-7"></use>
                            <use fill="#FFFFFF" fill-rule="evenodd" xlink:href="#path-7"></use>
                        </g>
                        <g id="矩形备份-23">
                            <use fill="black" fill-opacity="1" filter="url(#filter-10)" xlink:href="#path-9"></use>
                            <use fill="#FFFFFF" fill-rule="evenodd" xlink:href="#path-9"></use>
                        </g>
                        <text id="网站/APP/直播" font-family="PingFangSC-Regular, PingFang SC" font-size="14" font-weight="normal" line-spacing="24" fill="#5A5A5A">
                            <tspan x="652.336447" y="123.053004">网站/APP/直播</tspan>
                        </text>
                        <g id="矩形备份-22">
                            <use fill="black" fill-opacity="1" filter="url(#filter-12)" xlink:href="#path-11"></use>
                            <use fill="#FFFFFF" fill-rule="evenodd" xlink:href="#path-11"></use>
                        </g>
                        <text id="加微/单聊/群/朋友圈/视频号/公众号/" font-family="PingFangSC-Regular, PingFang SC" font-size="14" font-weight="normal" line-spacing="20" fill="#5A5A5A">
                            <tspan x="337.564288" y="125.053004">加微/单聊/群/朋友圈/视</tspan>
                            <tspan x="351.564288" y="145.053004">频号/公众号/小程序</tspan>
                        </text>
                        <rect id="矩形备份-63" fill="#EFEDFF" x="301.743775" y="74.0530043" width="225.641026" height="30" rx="5"></rect>
                        <rect id="矩形备份-64" fill="#FFF4EB" x="588.102935" y="74.0530043" width="225.641026" height="30" rx="5"></rect>
                        <text id="在线音视频" font-family="PingFangSC-Medium, PingFang SC" font-size="18" font-weight="400" line-spacing="24" fill="#F47B15">
                            <tspan x="655.923447" y="95.0530043">在线音视频</tspan>
                        </text>
                        <text id="微信" font-family="PingFangSC-Medium, PingFang SC" font-size="18" font-weight="400" line-spacing="28" fill="#4D31F3">
                            <tspan x="396.564288" y="93.0530043">微信</tspan>
                        </text>
                        <g id="矩形备份-42">
                            <use fill="black" fill-opacity="1" filter="url(#filter-14)" xlink:href="#path-13"></use>
                            <use fill="#FFFFFF" fill-rule="evenodd" xlink:href="#path-13"></use>
                        </g>
                        <rect id="矩形备份-65" fill="#E8F9E7" x="874.462094" y="74.0530043" width="225.641026" height="30" rx="5"></rect>
                        <text id="线下" font-family="PingFangSC-Medium, PingFang SC" font-size="18" font-weight="400" line-spacing="24" fill="#02A100">
                            <tspan x="967.986607" y="96.0530043">线下</tspan>
                        </text>
                        <rect id="矩形" fill="#E8EFFF" x="13.7439602" y="74.0530043" width="225.641026" height="30" rx="5"></rect>
                        <text id="电话-/-短信-/-5G消息" font-family="PingFangSC-Medium, PingFang SC" font-size="18" font-weight="400" line-spacing="24" fill="#2B58F9">
                            <tspan x="40.7051282" y="95.0530043">电话 / 短信 / 5G消息</tspan>
                        </text>
                        <text id="智能终端" font-family="PingFangSC-Regular, PingFang SC" font-size="14" font-weight="normal" line-spacing="24" fill="#5A5A5A">
                            <tspan x="959.282607" y="123.053004">智能终端</tspan>
                        </text>
                        <g id="电话呼叫" transform="translate(109.743590, 27.053004)" fill="#2B58F9" fill-rule="nonzero">
                            <rect id="矩形" opacity="0" x="0" y="0" width="36.9230769" height="36"></rect>
                            <path d="M20.0769231,10.6839844 C20.0769231,11.4785156 20.7367788,12.1253906 21.5552885,12.1253906 L31.5973558,12.1253906 C32.4122596,12.1253906 33.0757212,11.4820312 33.0757212,10.6839844 C33.0757212,9.88945312 32.4158654,9.24257812 31.5973558,9.24257812 L21.5516827,9.24257812 C20.7367788,9.24609375 20.0769231,9.88945312 20.0769231,10.6839844 L20.0769231,10.6839844 Z" id="路径"></path>
                            <path d="M26.5168269,5.7375 C25.9399038,6.3 25.9399038,7.21054687 26.5168269,7.77304687 L30.5480769,11.7035156 C31.125,12.2660156 32.0588942,12.2660156 32.6358173,11.7035156 C33.2127404,11.1410156 33.2127404,10.2304687 32.6358173,9.66796875 L28.6045673,5.7375 C28.03125,5.175 27.09375,5.175 26.5168269,5.7375 Z" id="路径"></path>
                            <path d="M26.5168269,15.6339844 C27.09375,16.1964844 28.0276442,16.1964844 28.6045673,15.6339844 L32.6358173,11.7035156 C33.2127404,11.1410156 33.2127404,10.2304687 32.6358173,9.66796875 C32.0588942,9.10546875 31.125,9.10546875 30.5480769,9.66796875 L26.5168269,13.5984375 C25.9399038,14.1574219 25.9399038,15.0714844 26.5168269,15.6339844 Z M33.2451923,29.3414063 C33.3100962,29.2289063 33.3605769,29.1058594 33.3930288,28.9757813 C33.5661058,28.378125 33.6598558,27.7488281 33.6598558,27.0949219 C33.6598558,23.2699219 30.4795673,20.1691406 26.5564904,20.1691406 C23.2283654,20.1691406 20.4338942,22.4050781 19.6622596,25.4179688 C15.2704327,23.5054688 11.8629808,19.8070313 10.4350962,15.2507813 C13.4855769,14.4738281 15.7391827,11.7703125 15.7391827,8.55 L15.7391827,8.48671875 C15.7391827,4.68632813 12.5769231,1.603125 8.67908654,1.603125 C7.69471154,1.603125 6.75721154,1.8 5.90625,2.15507813 C3.33894231,3.20273438 1.53245192,5.67070313 1.53245192,8.55351563 C1.53245192,8.65195313 1.53605769,8.75039063 1.53966346,8.84882813 C1.53605769,9.01757813 1.53245192,9.18632813 1.53245192,9.35507813 C1.53245192,22.978125 12.8617788,33.9855469 26.8341346,33.9855469 C26.9387019,33.9855469 27.0432692,33.9785156 27.1442308,33.9785156 C27.2668269,33.975 27.3894231,33.9539063 27.5012019,33.91875 C30.1838942,33.5742188 32.3870192,31.7636719 33.2451923,29.3414063 Z" id="形状"></path>
                        </g>
                        <g id="信息-fill" transform="translate(396.102749, 27.053004)" fill="#4D31F3" fill-rule="nonzero">
                            <rect id="矩形" opacity="0" x="0" y="0" width="36.9230769" height="36"></rect>
                            <path d="M18.4584375,2.35849219 C9.55175481,2.35849219 2.30729567,8.41795312 2.30729567,15.8622539 C2.30729567,19.9563398 4.57737981,23.8085156 8.58418269,26.4572578 L11.6171394,28.2835547 C11.486899,29.1120469 10.9410577,30.9020625 10.4138942,32.3595 C10.2588462,32.7827812 10.3828846,33.2545078 10.7177885,33.5628984 C10.9311188,33.7534892 11.2099565,33.8592305 11.4993029,33.8592305 C11.6605889,33.8592305 11.815637,33.8289961 11.9706851,33.7624805 C13.285601,33.1940039 17.2861659,31.3374727 18.7313582,29.3539219 C27.5140024,29.2329844 34.6095833,23.2218984 34.6095833,15.856207 C34.6157813,8.41795312 27.3713582,2.35849219 18.4584375,2.35849219 L18.4584375,2.35849219 Z M20.9208173,19.1218008 L13.8810577,19.1218008 C13.2421875,19.1218008 12.7273918,18.6198398 12.7273918,17.9969766 C12.7273918,17.3741133 13.2421875,16.8721523 13.8810577,16.8721523 L20.9208173,16.8721523 C21.5596514,16.8721523 22.0744471,17.3741133 22.0744471,17.9969766 C22.0744471,18.6198398 21.5596514,19.1218008 20.9208173,19.1218008 Z M23.1102404,14.6225391 L13.8810938,14.6225391 C13.2422236,14.6225391 12.7274279,14.1206133 12.7274279,13.4977148 C12.7274279,12.8748164 13.2422236,12.3729258 13.8810938,12.3729258 L23.1103125,12.3729258 C23.7491466,12.3729258 24.2639423,12.8748516 24.2639423,13.4977148 C24.2639423,14.1206133 23.7491466,14.6225391 23.1103125,14.6225391 L23.1102404,14.6225391 Z" id="形状"></path>
                        </g>
                        <g id="视频" transform="translate(682.461909, 27.053004)" fill="#F47B15" fill-rule="nonzero">
                            <rect id="矩形" opacity="0" x="0" y="0" width="34.8717949" height="34"></rect>
                            <path d="M15.3290485,7.08332227 L10.3889002,1.41667773 L4.79487179,1.41667773 L9.73505409,7.08332227 L15.3290485,7.08332227 Z M29.8589744,7.08332227 L24.9187921,1.41667773 L19.3247977,1.41667773 L24.2649459,7.08332227 L29.8589744,7.08332227 Z M22.5940284,7.08332227 L17.6538462,1.41667773 L12.0598177,1.41667773 L17,7.08332227 L22.5940284,7.08332227 Z M31.9658233,1.41667773 L26.5897436,1.41667773 L31.5299259,7.08332227 L34.1453105,7.08332227 L34.1453105,3.54167773 C34.1453105,2.3375 33.2008433,1.41667773 31.9658233,1.41667773 Z M3.12392027,1.41667773 L2.90597155,1.41667773 C1.67095152,1.41667773 0.726484375,2.3375 0.726484375,3.54167773 L0.726484375,7.08332227 L8.06410256,7.08332227 L3.12392027,1.41667773 L3.12392027,1.41667773 Z M0.726484375,30.4583223 C0.726484375,31.6625 1.67095152,32.5833223 2.90597155,32.5833223 L31.9658233,32.5833223 C33.2008433,32.5833223 34.1453105,31.6625 34.1453105,30.4583223 L34.1453105,8.5 L0.726484375,8.5 L0.726484375,30.4583223 L0.726484375,30.4583223 Z M12.3504387,14.875 C12.3504387,13.6708223 13.36751,13.1041777 14.5299259,13.1041777 C14.893151,13.1041777 15.3290485,13.175 15.6923077,13.3875 L23.974359,18.0625 C25.4273618,18.8416777 25.4273618,20.825 23.974359,21.6041777 L15.6923077,26.2791777 C15.3290485,26.4916777 14.9658233,26.5625 14.5299259,26.5625 C13.36751,26.5625 12.3504387,25.9958223 12.3504387,24.7916777 L12.3504387,14.875 Z" id="形状"></path>
                        </g>
                        <g id="线下" transform="translate(968.821068, 31.545312)" fill="#02A100" fill-rule="nonzero">
                            <rect id="矩形" opacity="0" x="0" y="0" width="36.9230769" height="31.5076923"></rect>
                            <path d="M8.15274162,19.5047692 L5.601357,19.5047692 L3.7547929,28.5069538 L33.1773728,28.5069538 L31.3307456,19.5047692 L28.7793609,19.5047692 C29.4195187,18.5145231 29.9627298,17.5122769 30.3997475,16.5040308 L32.5925996,16.5040308 C33.3258609,16.5044601 33.9569568,17.0092743 34.1006706,17.7103385 L36.5628087,29.7132615 C36.6531282,30.1538569 36.5361721,30.6107276 36.2440953,30.9582653 C35.9520186,31.305803 35.515568,31.5074226 35.0547377,31.5076923 L1.87739645,31.5076923 C1.4165594,31.5074244 0.980102292,31.3058007 0.688024269,30.9582556 C0.395946246,30.6107104 0.27899516,30.1538308 0.369325444,29.7132308 L2.83146351,17.7103385 C2.97517733,17.0092743 3.60627319,16.5044601 4.33953452,16.5040308 L6.53235503,16.5040308 C6.96940434,17.5122769 7.51261538,18.5144923 8.15277318,19.5047692 L8.15274162,19.5047692 Z M18.4660828,0.750153846 C24.07514,0.750153846 28.6223905,5.17473846 28.6223905,10.6315692 C28.6223905,13.8678769 26.9758422,17.2661846 24.3182643,20.3899385 C23.3547033,21.5308945 22.2830387,22.5808051 21.1174753,23.5257538 C20.0141065,24.4049538 19.1508323,24.9060615 18.4660513,24.9060615 C17.8643629,24.9060615 17.125712,24.5189846 16.2070217,23.8303077 L15.925428,23.6142769 L15.8130809,23.5242462 C14.6481284,22.5797116 13.5769862,21.5303206 12.6138383,20.3899692 C9.95780671,17.2662154 8.30971203,13.8678769 8.30971203,10.6316 C8.30971203,5.17627692 12.8569941,0.750153846 18.4660513,0.750153846 L18.4660828,0.750153846 Z M18.4660828,6.24150528 C15.9765421,6.239008 13.9560593,8.20426799 13.9526627,10.6315692 C13.9534741,11.7977441 14.4295002,12.9158186 15.2759762,13.7397246 C16.1224522,14.5636307 17.2700064,15.0258463 18.4660828,15.0246485 C19.6621593,15.0258463 20.8097135,14.5636307 21.6561895,13.7397246 C22.5026655,12.9158186 22.9786915,11.7977441 22.979503,10.6315692 C22.9761064,8.20425596 20.9556043,6.238991 18.4660513,6.24150528 L18.4660828,6.24150528 Z" id="形状"></path>
                        </g>
                    </g>
                    <g id="编组-94" transform="translate(0.441365, 501.000000)">
                        <g id="矩形备份-67">
                            <use fill="black" fill-opacity="1" filter="url(#filter-16)" xlink:href="#path-15"></use>
                            <use fill="#FFFFFF" fill-rule="evenodd" xlink:href="#path-15"></use>
                        </g>
                        <rect id="矩形备份-66" stroke="#639DFF" fill="#FFFFFF" x="13.3205128" y="11.5265022" width="178.487179" height="54" rx="6"></rect>
                        <g id="矩形备份-56">
                            <use fill="black" fill-opacity="1" filter="url(#filter-18)" xlink:href="#path-17"></use>
                            <use fill="#FFFFFF" fill-rule="evenodd" xlink:href="#path-17"></use>
                        </g>
                        <g id="矩形备份-59">
                            <use fill="black" fill-opacity="1" filter="url(#filter-20)" xlink:href="#path-19"></use>
                            <use fill="#FFFFFF" fill-rule="evenodd" xlink:href="#path-19"></use>
                        </g>
                        <rect id="矩形备份-73" stroke="#639DFF" fill="#FFFFFF" x="241.762821" y="11.5265022" width="178.487179" height="54" rx="6"></rect>
                        <rect id="矩形备份-74" stroke="#639DFF" fill="#FFFFFF" x="470.205128" y="11.5265022" width="178.487179" height="54" rx="6"></rect>
                        <g id="矩形备份-57">
                            <use fill="black" fill-opacity="1" filter="url(#filter-22)" xlink:href="#path-21"></use>
                            <use fill="#FFFFFF" fill-rule="evenodd" xlink:href="#path-21"></use>
                        </g>
                        <rect id="矩形备份-75" stroke="#639DFF" fill="#FFFFFF" x="698.647436" y="11.5265022" width="178.487179" height="54" rx="6"></rect>
                        <g id="矩形备份-58">
                            <use fill="black" fill-opacity="1" filter="url(#filter-24)" xlink:href="#path-23"></use>
                            <use fill="#FFFFFF" fill-rule="evenodd" xlink:href="#path-23"></use>
                        </g>
                        <rect id="矩形备份-75" stroke="#639DFF" fill="#FFFFFF" x="927.089744" y="12.5" width="178.487179" height="54" rx="6"></rect>
                        <text id="跨端交互" font-family="PingFangSC-Medium, PingFang SC" font-size="16" font-weight="400" line-spacing="24" fill="#1A1A1A">
                            <tspan x="527.653568" y="43.5265022">跨端交互</tspan>
                        </text>
                        <text id="统一知识库" font-family="PingFangSC-Medium, PingFang SC" font-size="16" font-weight="400" line-spacing="24" fill="#1A1A1A">
                            <tspan x="62.5641026" y="45.0530043">统一知识库</tspan>
                        </text>
                        <text id="记忆网络" font-family="PingFangSC-Medium, PingFang SC" font-size="16" font-weight="400" line-spacing="24" fill="#1A1A1A">
                            <tspan x="299.00641" y="43.5265022">记忆网络</tspan>
                        </text>
                        <text id="多维度分析" font-family="PingFangSC-Medium, PingFang SC" font-size="16" font-weight="400" line-spacing="24" fill="#1A1A1A">
                            <tspan x="747.891026" y="43.5265022">多维度分析</tspan>
                        </text>
                        <text id="客户意图特征抽取" font-family="PingFangSC-Medium, PingFang SC" font-size="16" font-weight="400" line-spacing="24" fill="#1A1A1A">
                            <tspan x="952.333333" y="43.5265022">客户意图特征抽取</tspan>
                        </text>
                    </g>
                    <g id="矩形备份-60" stroke-dasharray="5">
                        <use fill="black" fill-opacity="1" filter="url(#filter-26)" xlink:href="#path-25"></use>
                        <use stroke="#2B58F9" mask="url(#mask-27)" stroke-width="2" fill="#FEFFFF" fill-rule="evenodd" xlink:href="#path-25"></use>
                    </g>
                    <g id="编组-93" transform="translate(62.074211, 241.500000)">
                        <g id="矩形">
                            <use fill="black" fill-opacity="1" filter="url(#filter-29)" xlink:href="#path-28"></use>
                            <rect stroke="#2B58F9" stroke-width="1" stroke-linejoin="square" fill="#FFFFFF" fill-rule="evenodd" x="0.5" y="119.363412" width="235.51245" height="47" rx="8"></rect>
                        </g>
                        <text id="语音交互" font-family="PingFangSC-Medium, PingFang SC" font-size="20" font-weight="400" line-spacing="24" fill="#2B58F9">
                            <tspan x="78.256225" y="150.639914">语音交互</tspan>
                        </text>
                        <g id="矩形备份-61">
                            <use fill="black" fill-opacity="1" filter="url(#filter-31)" xlink:href="#path-30"></use>
                            <rect stroke="#2B58F9" stroke-width="1" stroke-linejoin="square" fill="#FFFFFF" fill-rule="evenodd" x="381.13248" y="119.363412" width="235.51245" height="47" rx="8"></rect>
                        </g>
                        <g id="矩形备份-62">
                            <use fill="black" fill-opacity="1" filter="url(#filter-33)" xlink:href="#path-32"></use>
                            <rect stroke="#2B58F9" stroke-width="1" stroke-linejoin="square" fill="#FFFFFF" fill-rule="evenodd" x="761.76496" y="119.363412" width="235.51245" height="47" rx="8"></rect>
                        </g>
                        <text id="视觉交互" font-family="PingFangSC-Medium, PingFang SC" font-size="20" font-weight="400" line-spacing="24" fill="#2B58F9">
                            <tspan x="839.521185" y="150.639914">视觉交互</tspan>
                        </text>
                        <text id="文本交互" font-family="PingFangSC-Medium, PingFang SC" font-size="20" font-weight="400" line-spacing="24" fill="#2B58F9">
                            <tspan x="459.366969" y="150.639914">文本交互</tspan>
                        </text>
                        <rect id="矩形" fill="#000000" fill-rule="nonzero" opacity="0" x="279.521185" y="120.916416" width="50.2564103" height="49"></rect>
                        <g id="编组-82" transform="translate(248.638597, 131.621809)" fill="#2B58F9" fill-rule="nonzero">
                            <polygon id="路径备份" transform="translate(51.109818, 10.900000) scale(-1, 1) translate(-51.109818, -10.900000) " points="85.8163162 6.15597024 85.8163162 0 102.219636 10.900049 85.8163162 21.8 85.8163162 15.7136911 7.26314195e-13 15.7136911 7.26314195e-13 6.15600291"></polygon>
                            <polygon id="路径备份-2" points="101.200932 6.15597024 101.200932 0 117.604251 10.900049 101.200932 21.8 101.200932 15.7136911 15.3846154 15.7136911 15.3846154 6.15600291"></polygon>
                        </g>
                        <g id="编组-82备份" transform="translate(635.630788, 131.621809)" fill="#2B58F9" fill-rule="nonzero">
                            <polygon id="路径备份-2" points="92.4099702 6.15597024 92.4099702 0 108.81329 10.900049 92.4099702 21.8 92.4099702 15.7136911 0 15.7136911 0 6.15600291"></polygon>
                        </g>
                        <rect id="矩形" fill="#000000" fill-rule="nonzero" opacity="0" x="54.7004874" y="0" width="94.3589744" height="92"></rect>
                        <g id="编组-85" transform="translate(86.256225, 2.444115)" fill-rule="nonzero">
                            <g id="编组-84">
                                <path d="M28.7701568,54.2825838 C37.6541371,54.2825838 44.9228483,47.5298826 44.9228483,39.2765811 L44.9228483,21.2693778 C44.9228483,13.0160763 37.6541371,6.26337506 28.7701568,6.26337506 C19.8861765,6.26337506 12.6174654,13.0160763 12.6174654,21.2693778 L12.6174654,39.2765811 C12.6174654,47.5298826 19.8861765,54.2825838 28.7701568,54.2825838 Z M57.5017567,43.4407469 C57.7743334,41.7994653 56.572977,40.2707288 54.8062764,40.0175025 C53.0395757,39.7736549 51.3940203,40.8897264 51.1214436,42.5216292 C49.425411,52.650681 39.824655,60.2849849 28.7701568,60.2849849 C17.7156586,60.2849849 8.1048072,52.6413023 6.41887003,42.5122504 C6.14629336,40.8709689 4.49064248,39.7548974 2.73403729,40.0081237 C0.967336659,40.26135 -0.234019767,41.7900866 0.0385569009,43.4313681 C2.0778342,55.6706391 12.5568928,64.7961645 25.5396185,66.1091898 L25.5396185,75.2909877 L15.8480037,75.2909877 C14.0611122,75.2909877 12.6174654,76.6321492 12.6174654,78.2921882 C12.6174654,79.9522273 14.0611122,81.2933888 15.8480037,81.2933888 L41.69231,81.2933888 C43.4792015,81.2933888 44.9228483,79.9522273 44.9228483,78.2921882 C44.9228483,76.6321492 43.4792015,75.2909877 41.69231,75.2909877 L32.0006951,75.2909877 L32.0006951,66.1091898 C44.9733254,64.7961645 55.4624795,55.6800178 57.5017567,43.4407469 Z" id="形状" fill="#2B58F9"></path>
                                <g id="编组-83" transform="translate(28.770157, 0.000000)">
                                    <path d="M38.9041612,0 L4.32279382,0 C1.944231,0 0,1.80757905 0,4.01568789 L0,40.1596191 L8.64558764,32.1294993 L38.9040383,32.1294993 C41.2824168,32.1294993 43.2298432,30.3216919 43.2298432,28.1107286 L43.2298432,4.01568789 C43.2298432,1.80763614 41.2824782,0 38.9040997,0" id="路径" stroke-opacity="0.31309584" stroke="#C9DDFF" fill="url(#linearGradient-34)"></path>
                                    <polygon id="路径" fill="#FFFFFF" points="15.1292253 18.0740779 10.8065544 18.0740779 10.8065544 14.0583329 15.1292253 14.0583329"></polygon>
                                    <polygon id="路径" fill="#FFFFFF" points="23.7777626 18.0740779 19.4549688 18.0740779 19.4549688 14.0583329 23.7777626 14.0583329"></polygon>
                                    <polygon id="路径" fill="#FFFFFF" points="32.4232273 18.0740779 28.100495 18.0740779 28.100495 14.0583329 32.4232273 14.0583329"></polygon>
                                </g>
                            </g>
                        </g>
                        <g id="编组-90" transform="translate(457.080310, 7.908840)" fill-rule="nonzero">
                            <g id="编组-86" transform="translate(18.702190, 0.000000)">
                                <path d="M47.6127103,4.64223925 C48.8918577,5.79702513 49.9104381,6.75549742 50.6684514,7.5176561 C51.4264647,8.27981478 52.0068186,8.92649488 52.4095132,9.45769639 C52.8122077,9.98889789 53.0609308,10.4392644 53.1556825,10.8087959 C53.2504342,11.1783274 53.29781,11.5016674 53.29781,11.778816 L53.29781,12.8874105 L42.7803755,12.8874105 C42.3066172,12.8874105 41.8920787,12.7141926 41.5367599,12.3677568 C41.1814412,12.021321 40.8853423,11.617146 40.6484631,11.1552316 C40.4115839,10.6933173 40.2339246,10.2198551 40.115485,9.734845 C39.9970454,9.24983493 39.9378256,8.86875558 39.9378256,8.59160697 L39.9378256,0 L40.1510169,0 C40.5300235,0 40.9208741,0.0577392942 41.3235687,0.173217883 C41.7262633,0.288696471 42.1881776,0.508105789 42.7093117,0.831445836 C43.2304459,1.15478588 43.8818636,1.61670024 44.6635648,2.2171889 C45.445266,2.81767756 46.4283145,3.62602767 47.6127103,4.64223925 Z" id="路径" fill="#2B58F9"></path>
                                <path d="M35.4608096,8.66089413 C35.4608096,9.58472283 35.6029371,10.5431951 35.8871921,11.536311 C36.1714471,12.5294268 36.6215175,13.4532555 37.2374033,14.3077971 C37.8532891,15.1623386 38.6349903,15.866758 39.5825069,16.4210553 C40.5300235,16.9753525 41.6433555,17.2525011 42.922503,17.2525011 L53.29781,17.2525011 L53.29781,56.3304554 C53.29781,57.670007 53.025399,58.8709843 52.4805769,59.9333873 C51.9357549,60.9957904 51.2132734,61.8965234 50.3131326,62.6355863 C49.4129919,63.3746493 48.4180994,63.9520422 47.3284553,64.3677651 C46.2388112,64.7834881 45.172855,64.9913495 44.1305867,64.9913495 L9.16722332,64.9913495 C8.26708253,64.9913495 7.28403403,64.7372966 6.21807783,64.2291908 C5.15212163,63.721085 4.15722918,63.0513092 3.23340047,62.2198634 C2.30957177,61.3884176 1.53971451,60.4414931 0.923828707,59.3790901 C0.307942902,58.3166871 0,57.2080927 0,56.0533068 L0,8.93804274 C0,7.9680226 0.225035198,6.96335888 0.675105593,5.92405158 C1.12517599,4.88474429 1.74106179,3.926272 2.52276301,3.04863473 C3.30446422,2.17099746 4.19276105,1.44348235 5.18765351,0.866089413 C6.18254596,0.288696471 7.22481424,0 8.31445836,0 L35.4608096,0 L35.4608096,8.66089413 Z" id="路径" fill="#2B58F9"></path>
                                <path d="M39.9378256,51.8960776 C41.1695972,51.8960776 42.2118655,51.4688068 43.0646305,50.6142653 C43.9173954,49.7597237 44.3437779,48.7319643 44.3437779,47.530987 C44.3437779,46.3300096 43.9173954,45.3137981 43.0646305,44.4823522 C42.2118655,43.6509064 41.1695972,43.2351835 39.9378256,43.2351835 L13.2889206,43.2351835 C12.057149,43.2351835 11.0148807,43.6509064 10.1621158,44.4823522 C9.30935081,45.3137981 8.88296833,46.3300096 8.88296833,47.530987 C8.88296833,48.7319643 9.30935081,49.7597237 10.1621158,50.6142653 C11.0148807,51.4688068 12.057149,51.8960776 13.2889206,51.8960776 L39.9378256,51.8960776 Z" id="路径" fill="#FFFFFF"></path>
                                <path d="M44.3437779,30.2784859 C44.3437779,29.0775085 43.9173954,28.0497491 43.0646305,27.1952076 C42.2118655,26.340666 41.1695972,25.9133952 39.9378256,25.9133952 L13.2889206,25.9133952 C12.057149,25.9133952 11.0148807,26.340666 10.1621158,27.1952076 C9.30935081,28.0497491 8.88296833,29.0775085 8.88296833,30.2784859 C8.88296833,31.4794632 9.30935081,32.4956748 10.1621158,33.3271206 C11.0148807,34.1585664 12.057149,34.5742893 13.2889206,34.5742893 L39.9378256,34.5742893 C41.1695972,34.5742893 42.2118655,34.1585664 43.0646305,33.3271206 C43.9173954,32.4956748 44.3437779,31.4794632 44.3437779,30.2784859 Z" id="路径" fill="#FFFFFF"></path>
                            </g>
                            <g id="编组-89" transform="translate(0.000000, 30.542650)">
                                <path d="M40.842348,4.97766116 C40.842348,2.23994752 38.5449659,0 35.7370545,0 L5.1052935,0 C2.29738208,0 0,2.23994752 0,4.97766116 L0,34.8436281 C0,37.5813418 2.29738208,39.8212893 5.1052935,39.8212893 L35.7370545,39.8212893 C38.5449659,39.8212893 40.842348,37.5813418 40.842348,34.8436281 L40.842348,4.97766116 Z" id="路径" fill="url(#linearGradient-35)"></path>
                                <polygon id="路径" fill="#FFFFFF" points="31.193161 15.9964851 22.5755714 15.9964851 22.5755714 30.7002473 18.2667766 30.7002473 18.2667766 15.9964851 9.64918703 15.9964851 9.64918703 11.7954102 31.193161 11.7954102"></polygon>
                            </g>
                        </g>
                        <rect id="矩形" fill="#000000" fill-rule="nonzero" opacity="0" x="445.166241" y="51.5594406" width="50.7082661" height="49.4405594"></rect>
                        <rect id="矩形" fill="#E4ECFF" x="267.953543" y="92" width="80.0231651" height="30.7169957" rx="6"></rect>
                        <rect id="矩形备份-72" fill="#E4ECFF" x="644.079399" y="92" width="80.0231651" height="30.7169957" rx="6"></rect>
                        <text id="语音驱动" font-family="PingFangSC-Medium, PingFang SC" font-size="14" font-weight="400" line-spacing="24" fill="#333333">
                            <tspan x="656.090982" y="110.358498">语音驱动</tspan>
                        </text>
                        <rect id="矩形备份-71" fill="#E4ECFF" x="267.42914" y="162.421809" width="80.0231651" height="30.7169957" rx="6"></rect>
                        <text id="ASR" font-family="PingFangSC-Medium, PingFang SC" font-size="14" font-weight="400" line-spacing="24" fill="#333333">
                            <tspan x="293.349722" y="180.780307">ASR</tspan>
                        </text>
                        <text id="TTS" font-family="PingFangSC-Medium, PingFang SC" font-size="14" font-weight="400" line-spacing="24" fill="#333333">
                            <tspan x="294.287722" y="110.358498">TTS</tspan>
                        </text>
                        <g id="编组-88" transform="translate(839.521185, 6.050158)">
                            <g id="图像2" fill="#2B58F9" fill-rule="nonzero">
                                <rect id="矩形" opacity="0" x="0" y="0" width="74.7479167" height="72.8792188"></rect>
                                <path d="M63.2714837,8.76009634 L10.5537635,8.76009634 C7.19266209,8.76009634 4.46772094,11.416914 4.46772094,14.6939166 L4.46772094,58.185231 C4.46772094,61.461949 7.19266209,64.1187666 10.5537635,64.1187666 L63.2707537,64.1187666 C66.6322201,64.1187666 69.3571612,61.461949 69.3571612,58.185231 L69.3571612,14.6939878 C69.3571612,11.4169851 66.6322201,8.76009634 63.2715567,8.76009634 L63.2714837,8.76009634 Z M10.5521576,12.7141498 L63.2730166,12.7141498 C64.3935054,12.7141498 65.3016488,13.6003725 65.3016488,14.6920662 L65.3016488,37.978827 C62.0336173,35.3635734 56.3685427,31.8391087 49.572468,31.8391087 C43.3056143,31.8391087 37.1276698,36.5736958 31.1538222,41.1523469 C26.5758772,44.6596593 21.8420858,48.2879626 18.5210592,48.2879626 C13.8623807,48.2879626 9.87497356,44.9486141 8.5231604,43.6739394 L8.5231604,14.6920662 C8.5231604,13.6003013 9.43203375,12.7141498 10.5521576,12.7141498 Z" id="形状"></path>
                                <path d="M22.8982651,35.0035187 C27.3843081,35.0035187 31.0203854,31.4579162 31.0203854,27.0844514 C31.0203854,22.7109866 27.3843081,19.1653841 22.8982651,19.1653841 C18.4126602,19.1653841 14.7761448,22.7106307 14.7761448,27.0844514 C14.7761448,31.4582721 18.4126602,35.0035187 22.8982651,35.0035187 Z" id="路径"></path>
                            </g>
                            <g id="编组-87" transform="translate(37.373958, 32.520914)">
                                <ellipse id="椭圆形" stroke-opacity="0.0734880354" stroke="#639DFF" fill="url(#linearGradient-36)" cx="21.3130208" cy="20.7801953" rx="20.8130208" ry="20.2801953"></ellipse>
                                <g id="语音交互" transform="translate(7.571254, 7.381973)" fill="#FFFFFF" fill-rule="nonzero">
                                    <rect id="矩形" opacity="0" x="0" y="0" width="27.4835328" height="26.7964445"></rect>
                                    <path d="M14.326865,24.9227868 C14.1577769,24.7553091 13.9323261,24.6637197 13.6907716,24.6611028 C7.38888338,24.624467 2.29476763,19.5949 2.33234277,13.4531759 C2.35649822,9.45726078 4.66200161,5.70994549 8.22627227,3.77086685 C8.36046921,3.69759532 8.4919822,3.62170695 8.62886308,3.55628594 L8.85431394,4.1319908 L8.99119481,4.49049792 L8.99387875,4.48526424 L8.99656269,4.49311476 L10.4324699,2.34730573 L10.9236307,1.62505781 L10.9209468,1.62505781 L10.9263147,1.61720729 L8.82210667,1.12000764 L7.60359848,0.826921529 L7.60628242,0.832155209 L7.5982306,0.829538369 L8.01155717,1.89982604 C3.49448825,4.02993403 0.55825926,8.55968456 0.528735934,13.4427085 C0.507264424,16.8812367 1.86533743,20.1287354 4.35334865,22.5833316 C6.84135987,25.0379278 10.1533403,26.3986848 13.6827197,26.4196195 L13.6880876,26.4196195 C14.1819324,26.4196195 14.5872071,26.0270934 14.589891,25.5455948 C14.589891,25.312696 14.4959532,25.0902646 14.326865,24.9227868 Z M26.992372,13.4898116 C27.0138435,10.0486667 25.6557705,6.80378473 23.1677593,4.34918855 C20.682432,1.89459236 17.3677677,0.533835417 13.8357043,0.512900695 C13.3418595,0.512900695 12.9365848,0.905426737 12.9338875,1.38692535 C12.9312169,1.8710408 13.3338077,2.26880052 13.8303364,2.27141736 C16.8766069,2.28973525 19.7403695,3.46731337 21.8875205,5.586954 C24.0346715,7.70659463 25.2075527,10.5092306 25.1914491,13.4819611 C25.1672937,17.4909604 22.8456866,21.2487431 19.2626284,23.1825881 C19.1391672,23.2480091 19.01839,23.3186637 18.8949288,23.3788511 L18.6721619,22.8109967 L18.5325971,22.4472559 L18.5299131,22.4524896 L18.5272292,22.4420223 L17.0832701,24.5982986 L16.6028451,25.3100792 L16.605529,25.3100792 L16.6001612,25.3179297 L19.9228773,26.1134492 C19.9255613,26.1134492 19.9282452,26.1134492 19.9282452,26.1108323 C19.9309292,26.1082155 19.9309292,26.1055986 19.9309292,26.1029818 L19.5122347,25.0300773 C24.0266197,22.9025861 26.9628487,18.3728356 26.992372,13.4898116 L26.992372,13.4898116 Z" id="形状"></path>
                                    <path d="M11.9381596,8.46547831 C12.4346882,8.46547831 12.839963,8.86062119 12.839963,9.34473664 L12.839963,17.5877835 C12.839963,18.071899 12.4346882,18.4670419 11.9381596,18.4670419 C11.4416309,18.4670419 11.0363561,18.071899 11.0363561,17.5877835 L11.0363561,9.34473664 C11.0363561,8.86062119 11.4443148,8.46547831 11.9381596,8.46547831 Z M15.5829484,9.77389845 C16.0794771,9.77389845 16.4847518,10.1690413 16.4847518,10.6531568 L16.4847518,16.2767465 C16.4847518,16.760862 16.0794771,17.1560049 15.5829484,17.1560049 C15.0864197,17.1560049 14.681145,16.760862 14.681145,16.2767465 L14.681145,10.6531568 C14.681145,10.1716582 15.0864197,9.77389845 15.5829484,9.77389845 Z M19.2250533,11.7548465 C19.7215819,11.7548465 20.1268567,12.1499894 20.1268567,12.6341049 L20.1268567,14.2957985 C20.1268567,14.7799139 19.7215819,15.1750568 19.2250533,15.1750568 C18.7285246,15.1750568 18.3232498,14.7799139 18.3232498,14.2957985 L18.3232498,12.6341049 C18.3232498,12.1526063 18.7285246,11.7548465 19.2250533,11.7548465 L19.2250533,11.7548465 Z M8.29605468,11.7548465 C8.79258334,11.7548465 9.1978581,12.1499894 9.1978581,12.6341049 L9.1978581,14.2957985 C9.1978581,14.7799139 8.79258334,15.1750568 8.29605468,15.1750568 C7.79952601,15.1750568 7.39425126,14.7799139 7.39425126,14.2957985 L7.39425126,12.6341049 C7.39425126,12.1526063 7.79952601,11.7548465 8.29605468,11.7548465 L8.29605468,11.7548465 Z" id="形状"></path>
                                </g>
                            </g>
                        </g>
                    </g>
                </g>
            </g>
        </g>
    </g>
</svg>