<?xml version="1.0" encoding="UTF-8"?>
<svg width="24px" height="25px" viewBox="0 0 24 25" version="1.1" xmlns="http://www.w3.org/2000/svg" xmlns:xlink="http://www.w3.org/1999/xlink">
    <title>反诈-深</title>
    <g id="2023Q2-品牌官网2.0" stroke="none" stroke-width="1" fill="none" fill-rule="evenodd">
        <g id="画板" transform="translate(-187.000000, -615.000000)">
            <g id="编组-14备份" transform="translate(187.000000, 615.000000)">
                <rect id="矩形" x="0" y="0" width="24" height="24.0695652"></rect>
                <g id="编组-27" transform="translate(1.785083, 1.923965)">
                    <g id="编组-25" transform="translate(3.724523, 0.000000)" fill="#2B58F9">
                        <path d="M7.752,0 L7.75265539,6.95791306 C7.75265539,7.73111171 8.37945674,8.35791306 9.15265539,8.35791306 L16.705,8.357 L16.7053108,18.6216353 C16.7053108,19.5052909 15.9889664,20.2216353 15.1053108,20.2216353 L1.6,20.2216353 C0.7163444,20.2216353 1.62623698e-15,19.5052909 0,18.6216353 L0,1.601 C3.3587261e-16,0.7173444 0.7163444,0.001 1.6,0.001 L7.752,0 Z M12.7130008,0.454059883 L16.2208951,3.86605304 C16.530594,4.16728521 16.7053108,4.58095814 16.7053108,5.01299316 L16.705,7.157 L9.15265539,7.15791306 C9.06060793,7.15791306 8.98308401,7.09573038 8.95979958,7.01108098 L8.95265539,6.95791306 L8.952,0 L11.5974165,0.001 C12.0140848,0.001 12.4143173,0.163541962 12.7130008,0.454059883 Z" id="形状结合"></path>
                    </g>
                    <path d="M7.92692058,8.39766445 C7.12024747,8.04919131 6.26172542,7.87435185 5.40199757,7.87435185 C4.54226973,7.87435185 3.6813361,8.04919131 2.87586878,8.39887023 L3.01415265e-05,9.6432449 L3.01415265e-05,13.1906773 C-0.00235051432,13.9985562 0.136315267,14.7992004 0.407617882,15.5588477 C0.670479971,16.3028197 1.04789205,16.999766 1.52538465,17.6255707 C2.00770041,18.2634333 2.59009669,18.8180964 3.24845771,19.2690617 C3.90320135,19.7164095 4.63270394,20.0395611 5.40079179,20.2216353 C6.16767384,20.0383553 6.89476485,19.7176153 7.54709692,19.272679 C8.20545793,18.8229196 8.78785421,18.2670507 9.27016997,17.6291881 C9.75127994,17.0021776 10.1311036,16.3028197 10.3963773,15.5564361 C10.6676799,14.7967888 10.8051399,13.9961446 10.8039419,13.1882657 L10.8039419,9.6432449 L7.92692058,8.39766445 Z" id="形状" fill="#73E1DB" fill-rule="nonzero"></path>
                    <path d="M8.40214901,12.5578473 L7.07819225,13.8480419 C7.05528225,13.8697461 7.04563594,13.9023024 7.0504591,13.933653 L7.36275855,15.7556008 C7.39049171,15.9135592 7.22409277,16.0329323 7.08301541,15.9593792 L5.4467592,15.0996513 C5.41902604,15.0851818 5.38526394,15.0851818 5.35753078,15.0996513 L3.72127457,15.9593792 C3.58019721,16.0341381 3.41379827,15.9135592 3.44153142,15.7556008 L3.75383088,13.933653 C3.75865404,13.9023024 3.74900772,13.8709519 3.72609772,13.8480419 L2.40214096,12.5578473 C2.28759097,12.4457088 2.35029202,12.2515768 2.50945622,12.2286668 L4.33863874,11.9633931 C4.36998926,11.9585699 4.39772242,11.9392773 4.4109861,11.9103384 L5.22851131,10.2523779 C5.29965289,10.108889 5.5034313,10.108889 5.57457287,10.2523779 L6.39209809,11.9103384 C6.40656756,11.9392773 6.43309492,11.9585699 6.46444545,11.9633931 L8.29362797,12.2286668 C8.45279217,12.2515768 8.51669901,12.4457088 8.40214901,12.5578473 Z" id="路径" fill="#FFFFFF"></path>
                    <path d="M5.40207375,7.87435185 C6.26180159,7.87435185 7.12032364,8.04919131 7.92699675,8.39766445 L10.8040181,9.6432449 L10.8040181,13.1882657 C10.805216,13.9961446 10.6677561,14.7967888 10.3964534,15.5564361 C10.1311798,16.3028197 9.75135611,17.0021776 9.27024614,17.6291881 C8.78793038,18.2670507 8.2055341,18.8229196 7.54717309,19.272679 C6.89484103,19.7176153 6.16775002,20.0383553 5.40086796,20.2216353 C5.02907509,20.1335023 4.66632291,20.0123143 4.31671407,19.8599857 C3.95925006,19.565652 3.73114096,19.1202825 3.73114096,18.6216353 L3.73098565,15.9563518 L5.35745954,15.1018535 C5.37594831,15.0922072 5.39711661,15.0889918 5.41739174,15.0922072 L5.44668796,15.1018535 L7.08294417,15.9615813 C7.22402153,16.0351345 7.39042047,15.9157614 7.36268731,15.7578029 L7.05038786,13.9358552 C7.0455647,13.9045046 7.05521102,13.8719483 7.07812101,13.8502441 L8.40207778,12.5600495 C8.51662777,12.447911 8.45272093,12.2537789 8.29355673,12.2308689 L6.46437421,11.9655953 C6.43302369,11.9607721 6.40649632,11.9414795 6.39202685,11.9125405 L5.57450163,10.2545801 C5.50336006,10.1110912 5.29958165,10.1110912 5.22844008,10.2545801 L4.41091486,11.9125405 C4.39765118,11.9414795 4.36991802,11.9607721 4.3385675,11.9655953 L3.73098565,12.0533518 L3.73098565,8.0983165 C4.17335014,7.97756875 4.6257193,7.90564573 5.07972997,7.88254745 Z" id="形状结合" fill="#071EF3"></path>
                </g>
            </g>
        </g>
    </g>
</svg>