<svg xmlns="http://www.w3.org/2000/svg" xmlns:xlink="http://www.w3.org/1999/xlink" width="643" height="496" viewBox="0 0 643 496" fill="none"><g opacity="1"  transform="translate(0 0)  rotate(0)"><mask id="mask-0" fill="white"><path d="M0 496L643 496L643 0L0 0L0 496Z"  ></path></mask><g mask="url(#mask-0)"></g><g mask="url(#mask-0)"><g opacity="1"  transform="translate(102 32)  rotate(0)"><g opacity="1"  transform="translate(0 0)  rotate(0)"><g opacity="1"  transform="translate(96.01220703125 55.399658203125)  rotate(0)"><path id="形状结合" fill-rule="evenodd" fill="url(#linear_0)" opacity="0.74" d="M39.5262,317.412c4.4945,21.339 51.1383,38.128 108.0048,38.128c56.858,0 103.51,-16.789 108.006,-38.128c0.235,1.116 0.354,2.243 0.354,3.381c0,22.92 -48.53,41.51 -108.36,41.51c-59.8395,0 -108.3596,-18.59 -108.3596,-41.51c0,-1.138 0.1198,-2.265 0.3548,-3.381z"></path><path id="椭圆形备份 2" fill-rule="evenodd" fill="url(#linear_1)" opacity="0.13" d="M255.891 315.448C255.891 292.538 207.361 273.948 147.531 273.948C87.6915 273.948 39.1714 292.538 39.1714 315.448C39.1714 338.368 87.6915 356.958 147.531 356.958C207.361 356.958 255.891 338.368 255.891 315.448Z"></path><path id="椭圆形备份 2" style="fill:url(#linear_2); opacity:100" d="M147.531,356.958c-59.8395,0 -108.3596,-18.59 -108.3596,-41.51c0,-22.91 48.5201,-41.5 108.3596,-41.5c59.83,0 108.36,18.59 108.36,41.5c0,22.92 -48.53,41.51 -108.36,41.51zM254.865,315.448c0,-2.656 -0.69367,-5.28167 -2.081,-7.877c-1.37467,-2.57133 -3.40767,-5.075 -6.099,-7.511c-2.67333,-2.42 -5.94333,-4.726 -9.81,-6.918c-3.85067,-2.18267 -8.21533,-4.20833 -13.094,-6.077c-4.89133,-1.87333 -10.20067,-3.551 -15.928,-5.033c-5.79,-1.49867 -11.89467,-2.768 -18.314,-3.808c-6.542,-1.06 -13.29333,-1.863 -20.254,-2.409c-7.14467,-0.56 -14.396,-0.84 -21.754,-0.84c-7.35867,0 -14.61067,0.28 -21.756,0.84c-6.96133,0.546 -13.71333,1.349 -20.256,2.409c-6.41913,1.04 -12.5235,2.30933 -18.3131,3.808c-5.7274,1.482 -11.03653,3.15967 -15.9274,5.033c-4.87867,1.86867 -9.2431,3.89433 -13.0933,6.077c-3.8664,2.192 -7.136,4.498 -9.8088,6.918c-2.69107,2.436 -4.7238,4.93967 -6.0982,7.511c-1.38707,2.59533 -2.0806,5.221 -2.0806,7.877c0,2.658 0.69357,5.285 2.0807,7.881c1.37447,2.57267 3.4072,5.07733 6.0982,7.514c2.67273,2.42067 5.94233,4.727 9.8088,6.919c3.8502,2.18333 8.21463,4.20933 13.0933,6.078c4.89093,1.874 10.20003,3.552 15.9273,5.034c5.7894,1.49867 11.89377,2.76833 18.3131,3.809c6.542,1.06 13.294,1.863 20.256,2.409c7.14467,0.56 14.39667,0.84 21.756,0.84c7.35867,0 14.61,-0.28 21.754,-0.84c6.96067,-0.546 13.712,-1.349 20.254,-2.409c6.41933,-1.04067 12.524,-2.31033 18.314,-3.809c5.72733,-1.48267 11.03667,-3.16067 15.928,-5.034c4.87867,-1.86933 9.24333,-3.89533 13.094,-6.078c3.86667,-2.19267 7.13667,-4.499 9.81,-6.919c2.69133,-2.43733 4.72433,-4.942 6.099,-7.514c1.38733,-2.596 2.081,-5.223 2.081,-7.881z"></path><g id="椭圆形备份 17" filter="url(#filter_8)"><path id="椭圆形备份 17" fill-rule="evenodd" fill="url(#linear_3)" opacity="0.32" d="M221.112 314.531C221.112 298.971 188.162 286.351 147.532 286.351C106.902 286.351 73.952 298.971 73.952 314.531C73.952 330.091 106.902 342.711 147.532 342.711C188.162 342.711 221.112 330.091 221.112 314.531Z"></path><path id="椭圆形备份 17" style="fill:url(#linear_4); opacity:100" d="M147.532,342.711c-40.63,0 -73.58,-12.62 -73.58,-28.18c0,-15.56 32.95,-28.18 73.58,-28.18c40.63,0 73.58,12.62 73.58,28.18c0,15.56 -32.95,28.18 -73.58,28.18zM220.086,314.531c0,-1.74933 -0.458,-3.481 -1.374,-5.195c-0.91533,-1.71267 -2.27267,-3.38333 -4.072,-5.012c-1.79667,-1.62667 -3.99733,-3.17833 -6.602,-4.655c-2.6,-1.47333 -5.549,-2.84167 -8.847,-4.105c-3.30933,-1.26733 -6.90267,-2.40267 -10.78,-3.406c-3.92133,-1.01467 -8.05633,-1.87433 -12.405,-2.579c-9.06,-1.468 -18.55133,-2.202 -28.474,-2.202c-9.92267,0 -19.41367,0.734 -28.473,2.202c-4.34933,0.70467 -8.48467,1.56433 -12.406,2.579c-3.87733,1.00333 -7.47073,2.13867 -10.7802,3.406c-3.29753,1.26333 -6.24637,2.63167 -8.8465,4.105c-2.60453,1.47667 -4.8053,3.02833 -6.6023,4.655c-1.79913,1.62867 -3.1564,3.29933 -4.0718,5.012c-0.916,1.714 -1.374,3.44567 -1.374,5.195c0,1.74933 0.458,3.481 1.374,5.195c0.9154,1.71267 2.27267,3.38333 4.0718,5.012c1.797,1.62667 3.99777,3.178 6.6023,4.654c2.60013,1.474 5.54897,2.84267 8.8465,4.106c3.30947,1.26733 6.90287,2.40267 10.7802,3.406c3.92133,1.01467 8.05667,1.87433 12.406,2.579c9.05933,1.468 18.55033,2.202 28.473,2.202c9.92267,0 19.414,-0.734 28.474,-2.202c4.34867,-0.70467 8.48367,-1.56433 12.405,-2.579c3.87733,-1.00333 7.47067,-2.13867 10.78,-3.406c3.298,-1.26333 6.247,-2.632 8.847,-4.106c2.60467,-1.476 4.80533,-3.02733 6.602,-4.654c1.79933,-1.62867 3.15667,-3.29933 4.072,-5.012c0.916,-1.714 1.374,-3.44567 1.374,-5.195z"></path></g><path id="椭圆形" fill-rule="evenodd" fill="url(#linear_5)" opacity="1" d="M288.836 154.978C288.836 80.5382 230.406 20.1682 158.346 20.1682C86.2858 20.1682 27.8458 80.5382 27.8458 154.978C27.8458 229.418 86.2858 289.788 158.346 289.788C230.406 289.788 288.836 229.418 288.836 154.978Z"></path><g id="椭圆形备份" filter="url(#filter_11)"><path id="椭圆形备份" fill-rule="evenodd" fill="url(#linear_6)" opacity="0.46" d="M300.04 154.98C300.04 69.4 232.86 0 150.02 0C67.18 0 0 69.4 0 154.98C0 240.56 67.18 309.95 150.02 309.95C232.86 309.95 300.04 240.56 300.04 154.98Z"></path><path id="椭圆形备份" style="fill:url(#linear_7); opacity:100" d="M150.02,309.95c-82.84,0 -150.02,-69.39 -150.02,-154.97c0,-85.58 67.18,-154.98 150.02,-154.98c82.84,0 150.02,69.4 150.02,154.98c0,85.58 -67.18,154.97 -150.02,154.97zM299.014,154.98c0,-10.49533 -1.00967,-20.839 -3.029,-31.031c-1.96733,-9.93067 -4.86267,-19.56393 -8.686,-28.8998c-3.75333,-9.1662 -8.33433,-17.8837 -13.743,-26.1525c-5.35667,-8.1908 -11.42267,-15.78597 -18.198,-22.7855c-6.77533,-6.99887 -14.12667,-13.2649 -22.054,-18.7981c-8.002,-5.58547 -16.43733,-10.31607 -25.306,-14.1918c-9.032,-3.94715 -18.352,-6.93652 -27.96,-8.96812c-9.85867,-2.08465 -19.86467,-3.12698 -30.018,-3.12698c-10.15333,0 -20.15933,1.04233 -30.018,3.12698c-9.608,2.03159 -18.92793,5.02097 -27.9598,8.96812c-8.8686,3.87573 -17.30407,8.60633 -25.3064,14.1918c-7.9272,5.53293 -15.27837,11.79897 -22.0535,18.7981c-6.77567,6.99973 -12.84193,14.5949 -18.1988,22.7855c-5.40847,8.26953 -9.98933,16.98703 -13.7426,26.1525c-3.82281,9.3352 -6.71809,18.96847 -8.68583,28.8998c-2.01925,10.19133 -3.02887,20.535 -3.02887,31.031c0,10.496 1.00962,20.83933 3.02886,31.03c1.96776,9.93133 4.86304,19.56433 8.68584,28.899c3.75327,9.16467 8.33413,17.88167 13.7426,26.151c5.3566,8.19 11.42287,15.78467 18.1988,22.784c6.77473,6.998 14.12587,13.26333 22.0534,18.796c8.0024,5.58533 16.4379,10.31533 25.3065,14.19c9.03187,3.94667 18.3518,6.93567 27.9598,8.967c9.858,2.08467 19.864,3.127 30.018,3.127c10.154,0 20.16,-1.04233 30.018,-3.127c9.608,-2.03133 18.928,-5.02033 27.96,-8.967c8.86867,-3.87467 17.304,-8.60467 25.306,-14.19c7.92733,-5.53267 15.27867,-11.798 22.054,-18.796c6.776,-7 12.84233,-14.59467 18.199,-22.784c5.40867,-8.27 9.98933,-16.987 13.742,-26.151c3.82267,-9.33467 6.718,-18.96767 8.686,-28.899c2.01933,-10.19 3.029,-20.53333 3.029,-31.03z"></path></g><path id="路径 3备份" fill-rule="evenodd" fill="url(#linear_8)" opacity="1" d="M133.557 20.9756C189.047 29.2956 245.817 108.456 232.047 189.166L279.517 182.476C279.517 182.476 263.627 29.7956 152.427 5.72559C84.4969 -2.17441 38.7769 52.5856 38.7769 52.5856C38.7769 52.5856 78.0669 12.6556 133.557 20.9756Z"></path><g id="路径 3备份 2" filter="url(#filter_14)"><path id="路径 3备份 2" fill-rule="evenodd" fill="url(#linear_9)" opacity="1" d="M55.9614 38.7018C78.8114 22.4518 104.991 16.5418 134.501 20.9718C189.971 29.2918 246.751 108.462 232.971 189.172L280.451 182.462C280.451 182.462 264.581 29.7918 153.371 5.72185C86.1214 -5.59815 39.1714 53.0818 39.1714 53.0818C39.1714 53.0818 50.1514 42.8218 55.9614 38.7018Z"></path></g><path id="路径 12" fill-rule="evenodd" fill="url(#linear_10)" opacity="1" d="M129.732 254.097C207.352 274.397 231.812 238.227 229.042 236.457C226.272 234.687 223.642 229.517 223.642 228.847C201.402 261.677 128.852 248.177 128.852 248.177L129.732 254.097Z"></path><path id="矩形" fill-rule="evenodd" fill="url(#linear_11)" opacity="1" d="M118.85 253.617L130.202 256.447C133.171 257.187 136.178 255.381 136.918 252.412L136.918 252.412C137.656 249.452 135.849 246.446 132.89 245.708L121.525 242.885L118.85 253.617Z"></path><path id="路径 13" fill-rule="evenodd" style="fill:#00AFE6" opacity="1" d="M113.724 246.645C112.386 252.011 118.849 253.622 118.849 253.622L121.527 242.881C121.527 242.881 115.062 241.279 113.724 246.645Z"></path><path id="路径 13" style="fill:url(#linear_12); opacity:100" d="M118.06,242.306c0.78133,-0.11867 1.609,-0.13167 2.483,-0.039c0.43867,0.046 0.80267,0.105 1.092,0.177l0.437,0.108l-2.896,11.615l-0.436,-0.109c-0.28933,-0.072 -0.63867,-0.19 -1.048,-0.354c-0.816,-0.328 -1.541,-0.727 -2.175,-1.197c-0.90667,-0.672 -1.56167,-1.44533 -1.965,-2.32c-0.50867,-1.102 -0.59667,-2.319 -0.264,-3.651c0.332,-1.332 0.981,-2.36567 1.947,-3.101c0.76733,-0.584 1.709,-0.96033 2.825,-1.129zM116.053,251.784c0.572,0.424 1.23033,0.78533 1.975,1.084c0.18,0.07267 0.346,0.135 0.498,0.187l2.45,-9.825c-0.15867,-0.02533 -0.33467,-0.048 -0.528,-0.068c-0.79733,-0.08467 -1.54833,-0.07333 -2.253,0.034c-0.96467,0.146 -1.76967,0.46433 -2.415,0.955c-0.798,0.608 -1.33767,1.47567 -1.619,2.603c-0.28133,1.12733 -0.212,2.146 0.208,3.056c0.33933,0.73533 0.90067,1.39333 1.684,1.974z"></path><path id="路径 14" fill-rule="evenodd" style="fill:#FFFFFF" opacity="1" d="M2.95621 134.453C1.87621 146.393 6.86621 157.743 16.2262 164.603C49.7062 189.173 86.4062 199.773 126.336 196.403C153.066 193.293 164.116 160.803 137.556 143.173C109.556 139.913 64.4262 139.993 10.3962 99.8429C5.68621 110.613 4.06621 122.153 2.95621 134.453Z"></path><g id="路径 14备份" filter="url(#filter_20)"><path id="路径 14备份" fill-rule="evenodd" style="fill:#FFFFFF" opacity="0.03" d="M1.169 135.89C0.139001 148.14 5.339 159.79 14.989 166.83C49.509 192.05 87.259 202.92 128.199 199.47C155.619 196.28 173.029 162.57 142.849 142.49C116.079 137.15 64.599 141.21 8.879 100.01C4.099 111.07 2.219 123.26 1.169 135.89Z"></path></g><path id="路径 3" fill-rule="evenodd" style="fill:#2C5BF9" opacity="1" d="M125.064 23.6735C155.734 27.0835 189.464 57.4735 209.164 93.8135C225.324 123.593 229.784 159.843 226.414 191.753L233.244 189.173C233.244 189.173 244.454 96.2535 169.824 34.5035C100.574 -7.36651 50.8043 37.9335 42.4243 48.9735C42.4243 48.9735 69.3043 17.4735 125.064 23.6735Z"></path><g id="路径 3备份 3" filter="url(#filter_23)"><path id="路径 3备份 3" fill-rule="evenodd" fill="url(#linear_13)" opacity="1" d="M125.064 23.6735C155.734 27.0835 189.464 57.4735 209.164 93.8135C225.324 123.593 229.784 159.843 226.414 191.753L233.244 189.173C233.244 189.173 244.454 96.2535 169.824 34.5035C100.574 -7.36651 50.8043 37.9335 42.4243 48.9735C42.4243 48.9735 69.3043 17.4735 125.064 23.6735Z"></path></g><path id="形状结合" fill-rule="evenodd" fill="url(#linear_14)" opacity="1" d="M279.52,176.039c-0.21,-0.236 -0.42467,-0.46767 -0.644,-0.695c-1.48133,-1.538 -3.13267,-2.85333 -4.954,-3.946c-1.82067,-1.09267 -3.759,-1.93133 -5.815,-2.516c-2.00733,-0.57067 -4.09667,-0.89067 -6.268,-0.96c-2.13933,-0.06867 -4.32067,0.10733 -6.544,0.528c-2.21067,0.41733 -4.42033,1.068 -6.629,1.952c-2.21467,0.886 -4.38467,1.98933 -6.51,3.31c-2.14933,1.33467 -4.21067,2.86567 -6.184,4.593c-2.01267,1.76133 -3.89767,3.69467 -5.655,5.8c-1.80467,2.162 -3.44567,4.47133 -4.923,6.928c-1.478,2.45733 -2.74933,4.98933 -3.814,7.596c-1.036,2.53933 -1.86,5.10967 -2.472,7.711c-0.6,2.55133 -0.986,5.088 -1.158,7.61c-0.16933,2.49267 -0.12567,4.92333 0.131,7.292c0.25533,2.362 0.717,4.615 1.385,6.759c0.67267,2.15733 1.54133,4.16267 2.606,6.016c0.706,1.228 1.48967,2.37533 2.351,3.442c0.596,1.268 1.272,2.479 2.029,3.626c-11.891,-10.669 -13.036,-32.129 -1.938,-50.581c12.19,-20.267 34.553,-29.217 49.936,-19.986c3.343,2.006 6.082,4.706 8.197,7.911c-0.971,-0.871 -2.013,-1.671 -3.127,-2.39zM280.234,223.937c-12.198,20.261 -34.554,29.217 -49.945,19.98c-0.24,-0.144 -0.478,-0.292 -0.712,-0.443c-0.84867,-0.95133 -1.62933,-1.973 -2.342,-3.065c1.11067,0.98533 2.30467,1.86133 3.582,2.628c1.822,1.09333 3.76133,1.93267 5.818,2.518c2.00733,0.57067 4.097,0.891 6.269,0.961c2.13933,0.068 4.321,-0.108 6.545,-0.528c2.21,-0.41733 4.41967,-1.068 6.629,-1.952c2.21467,-0.88667 4.38433,-1.99 6.509,-3.31c2.14933,-1.33467 4.21133,-2.86567 6.186,-4.593c2.01267,-1.76067 3.898,-3.69367 5.656,-5.799c1.80533,-2.162 3.447,-4.47067 4.925,-6.926v-0.001c1.478,-2.45667 2.749,-4.98867 3.813,-7.596c1.036,-2.53867 1.86,-5.109 2.472,-7.711c0.59933,-2.552 0.98467,-5.089 1.156,-7.611c0.16867,-2.49333 0.12467,-4.92433 -0.132,-7.293c-0.256,-2.362 -0.71833,-4.61533 -1.387,-6.76c-0.67333,-2.15733 -1.54267,-4.163 -2.608,-6.017c-0.258,-0.44933 -0.52633,-0.88767 -0.805,-1.315c0.472,0.41933 0.929,0.85833 1.371,1.317c0.50267,0.522 0.98333,1.067 1.442,1.635c5.401,11.49 4.153,27.589 -4.442,41.881z"></path><path id="椭圆形备份 13" fill-rule="evenodd" fill="url(#linear_15)" opacity="1" d="M283.75 227.988C295.94 207.728 293.36 183.808 277.97 174.578C262.59 165.348 240.23 174.298 228.03 194.558C215.84 214.828 218.42 238.748 233.81 247.978C249.19 257.208 271.55 248.258 283.75 227.988Z"></path><path id="椭圆形备份 13" style="fill:url(#linear_16); opacity:100" d="M233.81,247.978c-15.39,-9.23 -17.97,-33.15 -5.78,-53.42c12.2,-20.26 34.56,-29.21 49.94,-19.98c15.39,9.23 17.97,33.15 5.78,53.41c-12.2,20.27 -34.56,29.22 -49.94,19.99zM282.87,227.459c1.47733,-2.45533 2.748,-4.986 3.812,-7.592c1.03667,-2.53733 1.86067,-5.10667 2.472,-7.708c0.60067,-2.55133 0.98667,-5.08767 1.158,-7.609c0.16933,-2.49333 0.126,-4.924 -0.13,-7.292c-0.25533,-2.36267 -0.71733,-4.61633 -1.386,-6.761c-0.67267,-2.15733 -1.54133,-4.163 -2.606,-6.017c-1.08067,-1.882 -2.34467,-3.57367 -3.792,-5.075c-1.48267,-1.53867 -3.13467,-2.854 -4.956,-3.946c-1.82067,-1.09267 -3.75867,-1.93133 -5.814,-2.516c-2.00733,-0.57067 -4.09633,-0.89067 -6.267,-0.96c-2.13933,-0.06867 -4.32067,0.107 -6.544,0.527c-2.21,0.418 -4.41967,1.06867 -6.629,1.952c-2.21467,0.88667 -4.38467,1.98967 -6.51,3.309c-2.14933,1.33533 -4.21133,2.86633 -6.186,4.593c-2.01333,1.76067 -3.899,3.69333 -5.657,5.798c-1.80533,2.162 -3.44733,4.47067 -4.926,6.926c-1.47733,2.456 -2.748,4.98767 -3.812,7.595c-1.036,2.53867 -1.86,5.109 -2.472,7.711c-0.6,2.55133 -0.986,5.088 -1.158,7.61c-0.16933,2.494 -0.126,4.92533 0.13,7.294c0.25533,2.36267 0.71733,4.61633 1.386,6.761c0.67267,2.158 1.54167,4.164 2.607,6.018c1.08067,1.882 2.34467,3.57367 3.792,5.075c1.482,1.53867 3.13367,2.854 4.955,3.946c1.82133,1.09267 3.75933,1.93133 5.814,2.516c2.00733,0.57067 4.09633,0.89067 6.267,0.96c2.13933,0.068 4.32067,-0.108 6.544,-0.528c2.21067,-0.418 4.42033,-1.069 6.629,-1.953c2.21467,-0.886 4.38467,-1.98933 6.51,-3.31c2.14933,-1.33533 4.21133,-2.86667 6.186,-4.594c2.01333,-1.76133 3.899,-3.695 5.657,-5.801c1.80533,-2.16267 3.44733,-4.47233 4.926,-6.929z"></path><g id="椭圆形备份 16" filter="url(#filter_27)"><path id="椭圆形备份 16" fill-rule="evenodd" style="fill:#436EFF" opacity="0" d="M283.75 227.988C295.94 207.728 293.36 183.808 277.97 174.578C262.59 165.348 240.23 174.298 228.03 194.558C215.84 214.828 218.42 238.748 233.81 247.978C249.19 257.208 271.55 248.258 283.75 227.988Z"></path><path id="椭圆形备份 16" style="fill:url(#linear_17); opacity:100" d="M233.81,247.978c-15.39,-9.23 -17.97,-33.15 -5.78,-53.42c12.2,-20.26 34.56,-29.21 49.94,-19.98c15.39,9.23 17.97,33.15 5.78,53.41c-12.2,20.27 -34.56,29.22 -49.94,19.99zM282.87,227.459c1.47733,-2.45533 2.748,-4.986 3.812,-7.592c1.03667,-2.53733 1.86067,-5.10667 2.472,-7.708c0.60067,-2.55133 0.98667,-5.08767 1.158,-7.609c0.16933,-2.49333 0.126,-4.924 -0.13,-7.292c-0.25533,-2.36267 -0.71733,-4.61633 -1.386,-6.761c-0.67267,-2.15733 -1.54133,-4.163 -2.606,-6.017c-1.08067,-1.882 -2.34467,-3.57367 -3.792,-5.075c-1.48267,-1.53867 -3.13467,-2.854 -4.956,-3.946c-1.82067,-1.09267 -3.75867,-1.93133 -5.814,-2.516c-2.00733,-0.57067 -4.09633,-0.89067 -6.267,-0.96c-2.13933,-0.06867 -4.32067,0.107 -6.544,0.527c-2.21,0.418 -4.41967,1.06867 -6.629,1.952c-2.21467,0.88667 -4.38467,1.98967 -6.51,3.309c-2.14933,1.33533 -4.21133,2.86633 -6.186,4.593c-2.01333,1.76067 -3.899,3.69333 -5.657,5.798c-1.80533,2.162 -3.44733,4.47067 -4.926,6.926c-1.47733,2.456 -2.748,4.98767 -3.812,7.595c-1.036,2.53867 -1.86,5.109 -2.472,7.711c-0.6,2.55133 -0.986,5.088 -1.158,7.61c-0.16933,2.494 -0.126,4.92533 0.13,7.294c0.25533,2.36267 0.71733,4.61633 1.386,6.761c0.67267,2.158 1.54167,4.164 2.607,6.018c1.08067,1.882 2.34467,3.57367 3.792,5.075c1.482,1.53867 3.13367,2.854 4.955,3.946c1.82133,1.09267 3.75933,1.93133 5.814,2.516c2.00733,0.57067 4.09633,0.89067 6.267,0.96c2.13933,0.068 4.32067,-0.108 6.544,-0.528c2.21067,-0.418 4.42033,-1.069 6.629,-1.953c2.21467,-0.886 4.38467,-1.98933 6.51,-3.31c2.14933,-1.33533 4.21133,-2.86667 6.186,-4.594c2.01333,-1.76133 3.899,-3.695 5.657,-5.801c1.80533,-2.16267 3.44733,-4.47233 4.926,-6.929z"></path></g><path id="形状结合" fill-rule="evenodd" fill="url(#linear_18)" opacity="1" d="M141.16,143.307c-7.77,-2.51 -77.2603,-0.8 -132.00033,-42.49c0,0 -0.37,-0.37 -0.3,-0.8197c1.46003,-1.02 7.13003,0.1997 12.28003,2.9197c44.2806,31.556 79.6473,33.831 106.9043,35.583c5.773,0.372 11.182,0.719 16.236,1.317c11.51,1.66 18.63,20.09 15.13,35.14c-2.69,11.63 -10.37,19.37 -21.03,22.19c19.26,-10.6 24.38,-46.1 2.78,-53.84z"></path><g opacity="1"  transform="translate(30.0755615234375 142.1024169921875)  rotate(0)"><path id="路径" fill-rule="evenodd" style="fill:#2B58F9" opacity="0.17" d="M5.69 1.86L0 0L0 14.1L5.69 15.95L5.69 1.86Z"></path><path id="路径" fill-rule="evenodd" style="fill:#2B58F9" opacity="0.15" d="M68.2917 22.2824L68.2917 36.3824L73.9818 38.2324L73.9818 24.1424L68.2917 22.2824Z"></path><path id="路径" fill-rule="evenodd" style="fill:#2B58F9" opacity="0.41" d="M17.0729 2.04651L17.0729 23.1965L22.7629 25.0465L22.7629 3.90651L17.0729 2.04651Z"></path><path id="路径" fill-rule="evenodd" style="fill:#2B58F9" opacity="0.41" d="M51.2188 13.1877L51.2188 34.3377L56.9088 36.1877L56.9088 15.0477L51.2188 13.1877Z"></path><path id="路径" fill-rule="evenodd" style="fill:#2B58F9" opacity="0.66" d="M34.1459 0.56897L34.1459 35.809L39.8359 37.669L39.8359 2.42897L34.1459 0.56897Z"></path></g><path id="路径 15" style="fill:url(#linear_19); opacity:100" d="M75.4568,24.191c2.9344,-1.22693 6.20427,-2.3254 9.8096,-3.2954c5.0412,-1.35633 10.3944,-2.3603 16.0596,-3.0119c7.07733,-0.81407 14.44267,-1.05207 22.096,-0.714c2.868,0.16253 6.03867,0.5918 9.512,1.2878c3.78667,0.75873 7.615,1.7741 11.485,3.0461c4.29267,1.411 8.41867,3.0689 12.378,4.9737c4.39533,2.11447 8.45433,4.47263 12.177,7.0745c6.43733,4.495 12.59133,9.69007 18.462,15.5852c6.41733,6.44327 12.30433,13.53563 17.661,21.2771c5.84267,8.44433 10.94267,17.5048 15.3,27.1814c4.72933,10.50167 8.523,21.59983 11.381,33.2945l0.002,0.009l0.002,0.01c1.19333,5.776 2.104,11.74067 2.732,17.894c0.50267,4.92133 0.81433,9.85167 0.935,14.791c0.086,3.528 0.07233,6.88467 -0.041,10.07c-0.05667,1.59467 -0.12233,2.83833 -0.197,3.731l-1.023,-0.085c0.07333,-0.87667 0.138,-2.10433 0.194,-3.683c0.11333,-3.16467 0.127,-6.50067 0.041,-10.008c-0.12,-4.91267 -0.43,-9.81667 -0.93,-14.712c-0.624,-6.11533 -1.52867,-12.04267 -2.714,-17.782c-2.84333,-11.63067 -6.616,-22.6667 -11.318,-33.1081c-4.33133,-9.61967 -9.40067,-18.62597 -15.208,-27.0189c-5.322,-7.69127 -11.17,-14.7369 -17.544,-21.1369c-5.828,-5.85187 -11.93567,-11.00793 -18.323,-15.4682c-3.67733,-2.57013 -7.68867,-4.90043 -12.034,-6.9909c-3.91867,-1.88533 -8.00333,-3.5265 -12.254,-4.9235c-3.83067,-1.2592 -7.61933,-2.26413 -11.366,-3.0148c-3.42533,-0.68647 -6.54367,-1.1094 -9.355,-1.2688c-7.59933,-0.33567 -14.91067,-0.0996 -21.934,0.7082c-5.61453,0.64587 -10.91787,1.64033 -15.91,2.9834c-3.56127,0.95813 -6.78803,2.04187 -9.6803,3.2512c-0.90093,0.37673 -1.71383,0.743 -2.4387,1.0988c-0.35847,0.176 -0.62603,0.31367 -0.8027,0.413l-0.5031,-0.8944c0.19333,-0.10873 0.47787,-0.25533 0.8536,-0.4398c0.7434,-0.36493 1.57507,-0.7397 2.495,-1.1243z"></path></g><g opacity="1"  transform="translate(0 98.855712890625)  rotate(0)"><path id="路径 16" fill-rule="evenodd" fill="url(#linear_20)" opacity="0.67" d="M18.3326 139.542C38.5026 177.822 106.863 199.882 106.863 199.882L106.863 99.9022C35.2926 99.9022 12.8626 35.2522 12.8626 35.2522C12.8626 35.2522 6.93258 107.422 18.3326 139.542Z"></path><g id="路径 16备份" filter="url(#filter_39)"><path id="路径 16备份" fill-rule="evenodd" fill="url(#linear_21)" opacity="0.64" d="M7.5 149.006C27.67 187.286 96.03 209.346 96.03 209.346L96.03 109.366C24.46 109.366 2.03 44.7161 2.03 44.7161C2.03 44.7161 -3.9 116.886 7.5 149.006Z"></path><path id="路径 16备份" style="fill:url(#linear_22); opacity:100" d="M7.01645,149.178c-2.62679,-7.40133 -4.52393,-17.39133 -5.69142,-29.97c-0.93234,-10.04533 -1.38171,-21.50977 -1.34813,-34.3933c0.02398,-9.19907 0.28806,-18.648 0.79225,-28.3468c0.15757,-3.03113 0.32971,-5.90553 0.51641,-8.6232c0.09341,-1.35973 0.1711,-2.41663 0.23306,-3.1707l0.99612,-0.1261c0.23289,0.67013 0.59821,1.58913 1.09598,2.757c0.99985,2.3458 2.16808,4.77567 3.5047,7.2896c1.87141,3.51973 3.94567,6.95553 6.22277,10.3074c2.84567,4.18887 5.9285,8.12603 9.2485,11.8115c3.92227,4.35413 8.1159,8.28913 12.5809,11.805c5.10147,4.01693 10.50877,7.44783 16.2219,10.2927c6.3852,3.17927 13.11137,5.6059 20.1785,7.2799c7.77727,1.84133 15.93127,2.762 24.462,2.762h0.5131v101.198l-0.6707,-0.217c-0.71787,-0.23133 -1.71483,-0.57367 -2.9909,-1.027c-2.5514,-0.90667 -5.2304,-1.91633 -8.037,-3.029c-3.9288,-1.558 -7.835,-3.21233 -11.7186,-4.963c-4.85387,-2.188 -9.53243,-4.46467 -14.0357,-6.83c-11.46967,-6.024 -21.32637,-12.358 -29.5701,-19.002c-10.3274,-8.32333 -17.81875,-16.90267 -22.47404,-25.738l-0.01724,-0.032zM7.97119,148.8c4.59074,8.69867 11.98834,17.16 22.19281,25.384c8.19167,6.602 17.99277,12.89967 29.4033,18.893c4.48487,2.35533 9.145,4.623 13.9804,6.803c3.86927,1.744 7.76093,3.392 11.675,4.944c2.7952,1.10867 5.46263,2.114 8.0023,3.016c0.90713,0.322 1.6711,0.58733 2.2919,0.796v-98.758c-8.42473,-0.036 -16.4865,-0.96567 -24.1853,-2.789c-7.14393,-1.69133 -13.94377,-4.14443 -20.3995,-7.3593c-5.7762,-2.8762 -11.24263,-6.34457 -16.3993,-10.4051c-4.511,-3.55207 -8.7472,-7.52687 -12.7086,-11.9244c-3.35127,-3.7202 -6.4629,-7.6941 -9.3349,-11.9217c-2.29786,-3.38247 -4.39118,-6.8499 -6.27995,-10.4023c-1.3504,-2.5398 -2.53128,-4.9961 -3.54264,-7.3689c-0.10366,-0.2432 -0.20175,-0.47603 -0.29427,-0.6985c-0.02015,0.28533 -0.04118,0.5874 -0.06309,0.9062c-0.18631,2.71207 -0.35811,5.58077 -0.51538,8.6061c-0.50331,9.68207 -0.76694,19.11417 -0.79087,28.2963c-0.0335,12.8504 0.41441,24.28227 1.34374,34.2956c1.15775,12.474 3.03254,22.36967 5.62435,29.687z"></path></g><path id="路径 17" fill-rule="evenodd" style="fill:#C6CCFB" opacity="0.25" d="M13.0984,34.78c0,-8.64 3.52,-25.91 37.67,-34.78c0,0.94 -6.46,101.66 -6.46,101.66c0,0 -31.18,13.66 -26.49,34.69c-5.15,-14.12 -11.68004,-44.74 -4.72,-101.57zM17.8184,136.35c2.38,6.53 4.47,9.54 4.78,9.98c-2.55,-3.48 -4.07,-6.81 -4.78,-9.98zM22.5984,146.33c0.02,0.01 0.03,0.03 0.05,0.05c0,0 -0.02,-0.02 -0.05,-0.05z"></path><path  id="路径 19" style="fill:#FFFFFF; opacity:1;" d="M26.4042,98.5677c1.0858,1.61087 2.32497,3.2083 3.7175,4.7923c1.74933,1.98933 3.6901,3.89833 5.8223,5.727c5.45647,4.678 11.91143,8.628 19.3649,11.85c9.37533,4.05333 20.0653,6.83 32.0699,8.33c0.06667,0.008 0.1328,0.01967 0.1984,0.035c0.06553,0.01467 0.1302,0.03267 0.194,0.054c0.0638,0.02067 0.1264,0.04467 0.1878,0.072c0.0614,0.02733 0.12133,0.05767 0.1798,0.091c0.0584,0.03333 0.11507,0.06933 0.17,0.108c0.05487,0.03867 0.1077,0.08 0.1585,0.124c0.05087,0.044 0.09943,0.09067 0.1457,0.14c0.04627,0.04867 0.09003,0.09933 0.1313,0.152c0.04127,0.05333 0.07983,0.10833 0.1157,0.165c0.03587,0.05667 0.06887,0.115 0.099,0.175c0.03013,0.06067 0.05727,0.12233 0.0814,0.185c0.02407,0.06267 0.045,0.12633 0.0628,0.191c0.01787,0.06467 0.0325,0.13033 0.0439,0.197c0.01133,0.066 0.01943,0.13267 0.0243,0.2c0.00487,0.06667 0.0064,0.13367 0.0046,0.201c-0.00173,0.06733 -0.00677,0.13433 -0.0151,0.201c-0.00833,0.06667 -0.0199,0.13267 -0.0347,0.198c-0.01487,0.066 -0.0329,0.13067 -0.0541,0.194c-0.02113,0.064 -0.04537,0.12667 -0.0727,0.188c-0.0274,0.06133 -0.0577,0.12133 -0.0909,0.18c-0.0332,0.058 -0.0692,0.11467 -0.108,0.17c-0.0388,0.05467 -0.0802,0.10733 -0.1242,0.158c-0.044,0.05133 -0.09037,0.1 -0.1391,0.146c-0.04873,0.046 -0.09963,0.08967 -0.1527,0.131c-0.05307,0.04133 -0.108,0.08 -0.1648,0.116c-0.05687,0.036 -0.11537,0.069 -0.1755,0.099c-0.06007,0.03 -0.12147,0.057 -0.1842,0.081c-0.06273,0.02467 -0.12653,0.04567 -0.1914,0.063c-0.0648,0.018 -0.1303,0.03267 -0.1965,0.044c-0.06627,0.01133 -0.13293,0.01933 -0.2,0.024c-0.067,0.00533 -0.1341,0.007 -0.2013,0.005c-0.0672,-0.002 -0.13417,-0.007 -0.2009,-0.015c-12.3924,-1.548 -23.45567,-4.42633 -33.1898,-8.635c-7.83407,-3.38667 -14.6367,-7.554 -20.4079,-12.502c-2.27873,-1.954 -4.3565,-3.99833 -6.2333,-6.133c-1.5084,-1.71533 -2.85457,-3.45133 -4.0385,-5.208c-0.85407,-1.2672 -1.5849,-2.485 -2.1925,-3.6534c-0.31707,-0.60973 -0.55007,-1.10057 -0.699,-1.4725c-0.02493,-0.0624 -0.0468,-0.1259 -0.0656,-0.1905c-0.01873,-0.06453 -0.03427,-0.12983 -0.0466,-0.1959c-0.01227,-0.06607 -0.0213,-0.1326 -0.0271,-0.1996c-0.0058,-0.06693 -0.0083,-0.13403 -0.0075,-0.2013c0.0008,-0.0672 0.0049,-0.1342 0.0123,-0.201c0.0074,-0.0668 0.01803,-0.1331 0.0319,-0.1989c0.01393,-0.06573 0.03103,-0.13067 0.0513,-0.1948c0.02027,-0.06407 0.04363,-0.127 0.0701,-0.1888c0.02647,-0.06173 0.0559,-0.12207 0.0883,-0.181c0.0324,-0.05887 0.0676,-0.11603 0.1056,-0.1715c0.038,-0.05547 0.07863,-0.1089 0.1219,-0.1603c0.04327,-0.05147 0.08893,-0.10067 0.137,-0.1476c0.04813,-0.047 0.09843,-0.0915 0.1509,-0.1335c0.05247,-0.042 0.10687,-0.08133 0.1632,-0.118c0.05633,-0.03667 0.11433,-0.0705 0.174,-0.1015c0.05967,-0.031 0.1207,-0.05897 0.1831,-0.0839c0.0624,-0.025 0.12587,-0.04687 0.1904,-0.0656c0.06453,-0.01873 0.12983,-0.03427 0.1959,-0.0466c0.06613,-0.01233 0.13267,-0.0214 0.1996,-0.0272c0.067,-0.0058 0.1341,-0.0083 0.2013,-0.0075c0.0672,0.0008 0.1342,0.0049 0.201,0.0123c0.0668,0.0074 0.1331,0.01807 0.1989,0.032c0.06573,0.01387 0.13067,0.03093 0.1948,0.0512c0.06407,0.02033 0.127,0.0437 0.1888,0.0701c0.0618,0.02647 0.12213,0.0559 0.181,0.0883c0.05893,0.0324 0.1161,0.0676 0.1715,0.1056c0.05547,0.03807 0.1089,0.0787 0.1603,0.1219c0.05147,0.04327 0.1007,0.08897 0.1477,0.1371c0.04693,0.04807 0.0914,0.09833 0.1334,0.1508c0.042,0.05247 0.08137,0.10687 0.1181,0.1632c0.03667,0.05633 0.07047,0.11433 0.1014,0.174c0.031,0.05967 0.059,0.1207 0.084,0.1831c0.0986,0.24633 0.27523,0.61433 0.5299,1.104c0.53587,1.03047 1.18737,2.1148 1.9545,3.253z"></path><path  id="路径 19备份" style="fill:#FFFFFF; opacity:1;" d="M25.4135,116.011c1.148,1.604 2.4483,3.19433 3.9009,4.771c1.8244,1.98 3.83617,3.88 6.0353,5.7c5.62567,4.65533 12.21543,8.58767 19.7693,11.797c9.49607,4.034 20.24747,6.80133 32.2542,8.302c0.06667,0.008 0.1328,0.01933 0.1984,0.034c0.06553,0.01533 0.1302,0.03333 0.194,0.054c0.0638,0.02133 0.1264,0.04567 0.1878,0.073c0.0614,0.02733 0.12133,0.05767 0.1798,0.091c0.0584,0.03333 0.11507,0.06933 0.17,0.108c0.05487,0.03867 0.1077,0.08 0.1585,0.124c0.05087,0.044 0.09943,0.09033 0.1457,0.139c0.04627,0.04867 0.09003,0.09967 0.1313,0.153c0.04127,0.05333 0.07983,0.10833 0.1157,0.165c0.03587,0.05667 0.06887,0.115 0.099,0.175c0.03013,0.06 0.05723,0.12167 0.0813,0.185c0.02413,0.06267 0.0451,0.12633 0.0629,0.191c0.01787,0.06467 0.03247,0.13 0.0438,0.196c0.0114,0.06667 0.01953,0.13333 0.0244,0.2c0.0048,0.06733 0.00633,0.13467 0.0046,0.202c-0.00173,0.06733 -0.00677,0.13433 -0.0151,0.201c-0.01673,0.13333 -0.04633,0.264 -0.0888,0.392c-0.04247,0.128 -0.097,0.25067 -0.1636,0.368c-0.0666,0.11667 -0.144,0.226 -0.2322,0.328c-0.0882,0.102 -0.1855,0.19433 -0.2919,0.277c-0.10633,0.08267 -0.21973,0.15433 -0.3402,0.215c-0.12047,0.06 -0.24567,0.108 -0.3756,0.144c-0.12993,0.036 -0.2621,0.05867 -0.3965,0.068c-0.13447,0.01 -0.26853,0.00667 -0.4022,-0.01c-12.3858,-1.548 -23.50257,-4.41367 -33.3503,-8.597c-7.92107,-3.36533 -14.84817,-7.50267 -20.7813,-12.412c-2.34173,-1.938 -4.4875,-3.96533 -6.4373,-6.082c-1.56687,-1.70067 -2.9734,-3.42167 -4.2196,-5.163c-0.89873,-1.25533 -1.6731,-2.46133 -2.3231,-3.618c-0.33873,-0.60333 -0.58917,-1.08833 -0.7513,-1.455c-0.0272,-0.062 -0.0513,-0.12467 -0.0723,-0.188c-0.021,-0.064 -0.0388,-0.129 -0.0534,-0.195c-0.01467,-0.06533 -0.02607,-0.13133 -0.0342,-0.198c-0.0082,-0.06667 -0.01307,-0.13367 -0.0146,-0.201c-0.0016,-0.06733 0.00013,-0.13433 0.0052,-0.201c0.005,-0.06733 0.0133,-0.134 0.0249,-0.2c0.01153,-0.06667 0.02633,-0.13233 0.0444,-0.197c0.018,-0.06467 0.03913,-0.12833 0.0634,-0.191c0.02427,-0.06267 0.05153,-0.124 0.0818,-0.184c0.03033,-0.06 0.0635,-0.11833 0.0995,-0.175c0.036,-0.05667 0.07473,-0.11167 0.1162,-0.165c0.0414,-0.05267 0.0853,-0.10333 0.1317,-0.152c0.0464,-0.04867 0.0951,-0.095 0.1461,-0.139c0.05093,-0.04333 0.1039,-0.08433 0.1589,-0.123c0.055,-0.03867 0.11177,-0.07467 0.1703,-0.108c0.05853,-0.03267 0.11853,-0.06267 0.18,-0.09c0.06147,-0.02733 0.12413,-0.05133 0.188,-0.072c0.06387,-0.02133 0.1286,-0.03933 0.1942,-0.054c0.0656,-0.01467 0.13177,-0.026 0.1985,-0.034c0.06673,-0.008 0.1337,-0.013 0.2009,-0.015c0.0672,-0.00133 0.1343,0.00033 0.2013,0.005c0.06707,0.00533 0.1337,0.01367 0.1999,0.025c0.0662,0.012 0.13167,0.027 0.1964,0.045c0.0648,0.018 0.12853,0.039 0.1912,0.063c0.06267,0.02467 0.124,0.052 0.184,0.082c0.06007,0.03 0.11847,0.063 0.1752,0.099c0.05673,0.03667 0.11157,0.07567 0.1645,0.117c0.05293,0.04133 0.1037,0.085 0.1523,0.131c0.04867,0.04667 0.09493,0.09533 0.1388,0.146c0.0438,0.05133 0.08503,0.10433 0.1237,0.159c0.0386,0.05533 0.07443,0.11233 0.1075,0.171c0.03307,0.058 0.0632,0.118 0.0904,0.18c0.10907,0.24667 0.30087,0.61433 0.5754,1.103c0.5766,1.02667 1.2706,2.10667 2.082,3.24z"></path><path  id="路径 20" style="fill:#FFFFFF; opacity:1;" d="M42.9949,3.16646c-2.29693,1.03203 -4.50807,2.12745 -6.6334,3.28625c-2.65433,1.44725 -5.09773,2.95228 -7.3302,4.51509c-5.65973,3.96213 -9.7331,8.11707 -12.2201,12.4648c-3.07867,5.38207 -3.61947,10.92127 -1.6224,16.6176c1.28647,3.43413 2.609,6.6029 3.9676,9.5063c1.63893,3.50253 3.40073,6.7769 5.2854,9.8231c4.50393,7.2796 9.88773,13.5313 16.1514,18.7551c7.44593,6.20987 16.23193,11.0645 26.358,14.5639c11.54,3.9882 24.84993,6.23107 39.9298,6.7286l-0.033,1.0258c-15.18367,-0.5012 -28.59433,-2.7627 -40.232,-6.7845c-10.24447,-3.5404 -19.13783,-8.45563 -26.6801,-14.7457c-6.34887,-5.29487 -11.80443,-11.6293 -16.3667,-19.0033c-1.90567,-3.08007 -3.68643,-6.38943 -5.3423,-9.9281c-1.37007,-2.92793 -2.70557,-6.12847 -4.0065,-9.6016c-1.0972,-3.1296 -1.4632,-6.223 -1.098,-9.2802c0.33167,-2.77653 1.26433,-5.5054 2.798,-8.1866c2.56307,-4.4806 6.7372,-8.74587 12.5224,-12.7958c2.26373,-1.58477 4.73957,-3.10992 7.4275,-4.57546c2.1484,-1.17139 4.38307,-2.2785 6.704,-3.32133c1.65787,-0.74491 3.2764,-1.4206 4.8556,-2.02709c0.79187,-0.3041 1.41883,-0.53396 1.8809,-0.68958l0.3275,0.97253c-0.44853,0.15106 -1.06203,0.37606 -1.8405,0.67503c-1.5614,0.59967 -3.16237,1.26806 -4.8029,2.00517z"></path></g><g id="路径" filter="url(#filter_45)"><path id="路径" fill-rule="evenodd" fill="url(#linear_23)" opacity="0.51" d="M246.032 367.488C204.832 367.488 171.422 400.848 171.422 441.998L320.642 441.998C320.642 400.848 287.232 367.488 246.032 367.488Z"></path></g><g opacity="0.42"  transform="translate(339.73492431640625 242.502197265625)  rotate(0)"><path id="路径" fill-rule="evenodd" style="fill:#FFFFFF" opacity="1" d="M31.9554 25.6852C32.4078 25.3215 32.7818 25.0061 33.0871 24.7406C33.3924 24.475 33.6083 24.1346 33.7431 23.7308C33.8743 23.2858 33.888 22.9437 33.7561 22.69C33.6341 22.4378 33.3508 22.1803 32.9247 21.9306L22.2041 18.0862L21.9398 5.30749C21.9398 5.30749 21.9145 5.01999 21.885 4.82294L21.747 4.22398C21.6894 4.01236 21.4431 3.64937 21.4431 3.64937C21.307 3.48607 21.1235 3.36589 20.8797 3.30702C20.4202 3.20387 20.0115 3.29101 19.6423 3.57677C19.2647 3.85108 18.9355 4.20392 18.6415 4.65347L10.7212 15.5385L-0.794405 14.2208C-1.07878 14.2264 -1.65857 14.4991 -1.65857 14.4991C-1.95135 14.6855 -2.18076 14.9833 -2.36498 15.3794C-2.54089 15.7869 -2.58684 16.2048 -2.51583 16.6514C-2.43338 17.0897 -2.3083 17.5145 -2.11613 17.8993C-2.11613 17.8993 -2.01745 18.1073 -1.85384 18.4167C-1.7001 18.7246 -1.48818 19.1125 -1.25082 19.5956C-1.00359 20.0802 -0.72468 20.6205 -0.414079 21.2164C-0.101914 21.8025 0.216999 22.4098 0.535913 23.0172C1.28904 24.4628 2.1341 26.0951 3.0794 27.9255C1.89199 30.1168 0.821152 32.0835 -0.123255 33.8272C-0.537961 34.5917 -0.949538 35.3365 -1.34811 36.0631C-1.74668 36.7897 -2.11611 37.4602 -2.43509 38.0677C-2.75406 38.6753 -3.0392 39.1971 -3.27907 39.6249C-3.5205 40.0625 -3.73279 40.444 -3.73279 40.444C-3.86392 40.6966 -3.90889 41.2362 -3.90889 41.2362C-3.89186 41.5123 -3.80932 41.7582 -3.66282 41.9839C-3.66282 41.9839 -3.31937 42.3724 -3.08184 42.4708C-3.08184 42.4708 -2.58281 42.5802 -2.29423 42.4842C-2.29423 42.4842 -1.87931 42.3575 -1.44982 42.2028C-1.03021 42.0465 -0.523754 41.8533 0.0726614 41.6036C0.667514 41.3637 1.31644 41.102 2.03764 40.8315C2.7604 40.5511 3.48316 40.2707 4.21423 40.0017C5.91714 39.3501 7.81816 38.5982 9.9173 37.7461L17.1768 46.6311C17.2745 46.7175 17.4168 46.8413 17.6154 46.9942L18.0878 47.2715C18.4501 47.3492 18.8083 47.3249 19.151 47.2071C19.5051 47.0809 19.7355 46.7124 19.8507 46.1131C19.8612 45.9831 19.9081 45.6868 19.9832 45.2127C20.0583 44.7386 20.1391 44.1642 20.2356 43.491C20.342 42.8194 20.451 42.0672 20.5908 41.2489C20.7206 40.4292 20.8421 39.5979 20.9538 38.7652C21.2422 36.8163 21.5484 34.6272 21.8823 32.1996L31.9554 25.6852Z"></path></g><g opacity="1"  transform="translate(348.61236572265625 0)  rotate(0)"><path id="Fill-41" fill-rule="evenodd" fill="url(#linear_24)" opacity="1" d="M50.5332 11.53L49.8232 10.79C35.5332 9.44 23.7232 6.06 13.9932 0.72C12.5732 -0.06 11.2632 -0.18 10.2432 0.24L2.18323 4.39L5.42323 7.78L5.19323 56.87C5.13323 67.44 11.2932 81.73 23.0032 98.19C31.2532 109.82 42.0832 121.8 46.6432 124.32C51.2032 126.83 62.0932 126.88 70.4132 124.44C82.2132 120.98 91.0832 112.11 91.1432 101.55L91.3832 50.58C91.3832 46.72 88.7532 42.13 85.4732 40.28C75.8032 34.88 64.0332 25.19 50.5332 11.53Z"></path><g id="Fill-43备份" filter="url(#filter_51)"><path id="Fill-43备份" fill-rule="evenodd" fill="url(#linear_25)" opacity="1" d="M77.7 44.79C68.02 39.38 56.26 29.72 42.76 16.03L42.04 15.3L41.33 15.23C27.79 13.95 15.95 10.57 6.2 5.22C2.93 3.43 0.24 5.09 0.24 8.96L0 59.92C-0.03 70.49 6.13 84.76 17.8 101.24C26.06 112.89 36.88 124.84 41.44 127.38C46.02 129.9 56.9 129.94 65.22 127.49C77.03 124.03 83.3 116.63 83.35 106.05L83.59 55.08C83.6 51.22 80.96 46.59 77.7 44.79Z"></path><path id="Fill-43备份" style="fill:url(#linear_26); opacity:100" d="M80.3243,46.3054c0.72993,0.77307 1.37583,1.65097 1.9377,2.6337c0.56087,0.98107 0.99487,1.99113 1.302,3.0302c0.31993,1.08267 0.47863,2.12027 0.4761,3.1128l-0.24,50.9699c-0.01273,2.68867 -0.4188,5.17967 -1.2182,7.473c-0.7976,2.288 -1.9787,4.35667 -3.5433,6.206c-1.56033,1.844 -3.4868,3.45167 -5.7794,4.823c-2.2918,1.37133 -4.92917,2.494 -7.9121,3.368c-2.06387,0.60733 -4.28027,1.069 -6.6492,1.385c-2.28307,0.304 -4.5405,0.45133 -6.7723,0.442c-2.23907,-0.01 -4.268,-0.177 -6.0868,-0.501c-1.91087,-0.34067 -3.45013,-0.83233 -4.6178,-1.475c-1.1506,-0.64067 -2.66507,-1.83433 -4.5434,-3.581c-1.79513,-1.66933 -3.79643,-3.724 -6.0039,-6.164c-2.20707,-2.43933 -4.4362,-5.06067 -6.6874,-7.864c-2.33913,-2.91267 -4.52367,-5.80067 -6.5536,-8.664c-5.85733,-8.27147 -10.30184,-15.92417 -13.33353,-22.9581c-3.048,-7.07173 -4.56442,-13.27973 -4.54925,-18.624l0.23999,-50.9579c0,-1.0142 0.17042,-1.89884 0.51127,-2.65393c0.34045,-0.75422 0.82519,-1.32768 1.45422,-1.72037c0.63088,-0.39384 1.34965,-0.57058 2.15631,-0.53022c0.80583,0.04031 1.64077,0.29696 2.50481,0.76993c4.84832,2.66038 10.19851,4.82471 16.05058,6.49299c5.865,1.672 12.16737,2.82657 18.9071,3.4637l0.8719,0.086l0.8344,0.8459c6.7262,6.82087 13.0155,12.63867 18.8679,17.4534c5.82087,4.7888 11.1439,8.53167 15.9691,11.2286c0.00073,0.00033 0.00143,0.0007 0.0021,0.0011c0.84033,0.46433 1.6419,1.10043 2.4047,1.9083zM42.4395,16.346l-0.6056,-0.6141l-0.5481,-0.054c-6.7922,-0.64207 -13.14733,-1.80667 -19.0654,-3.4938c-5.91707,-1.68681 -11.32937,-3.87665 -16.23691,-6.56952c-0.74279,-0.40659 -1.44837,-0.62661 -2.11676,-0.66006c-0.6186,-0.03095 -1.16348,0.10065 -1.63463,0.39478c-0.47471,0.29635 -0.84486,0.73872 -1.11047,1.32712c-0.2877,0.63736 -0.43155,1.39855 -0.43155,2.28358l-0.24,50.9621c-0.01481,5.21847 1.47711,11.3063 4.47575,18.2635c3.00674,6.97607 7.42056,14.5742 13.24147,22.7944c2.01933,2.848 4.19293,5.72133 6.5208,8.62c2.2402,2.79 4.45793,5.398 6.6532,7.824c2.19,2.42067 4.1731,4.457 5.9493,6.109c1.82513,1.69667 3.28127,2.848 4.3684,3.454c1.07833,0.59333 2.52427,1.05167 4.3378,1.375c1.76787,0.31533 3.74543,0.47767 5.9327,0.487c2.19067,0.00933 4.40717,-0.13533 6.6495,-0.434c2.32307,-0.31 4.49437,-0.76233 6.5139,-1.357c2.91007,-0.85267 5.47813,-1.94467 7.7042,-3.276c2.20693,-1.32 4.05837,-2.86433 5.5543,-4.633c3.00787,-3.55467 4.52403,-7.92167 4.5485,-13.101l0.24,-50.9701c0.00233,-0.90367 -0.14407,-1.85483 -0.4392,-2.8535c-0.28727,-0.972 -0.694,-1.91817 -1.2202,-2.8385c-0.52633,-0.9206 -1.1299,-1.74143 -1.8107,-2.4625c-0.69913,-0.74047 -1.42827,-1.32027 -2.1874,-1.7394l-0.002,-0.0011c-4.87273,-2.72327 -10.2407,-6.4967 -16.1039,-11.3203c-5.87647,-4.8346 -12.1888,-10.67347 -18.937,-17.5166z"></path></g><g opacity="1"  transform="translate(27.92205810546875 52.3739013671875)  rotate(0)"><path  id="路径" style="fill:#FFFFFF; opacity:1;" d="M19.426,9.43934c0.1202,-0.19133 0.25793,-0.3691 0.4132,-0.53331c0.1552,-0.16421 0.32493,-0.31169 0.5092,-0.44246c0.18427,-0.13077 0.37953,-0.24231 0.5858,-0.33462c0.2062,-0.09231 0.41947,-0.16361 0.6398,-0.21391c0.22027,-0.05029 0.44333,-0.07862 0.6692,-0.08498c0.22587,-0.00635 0.4502,0.00939 0.673,0.04722c0.22273,0.03783 0.43967,0.09703 0.6508,0.1776c0.21113,0.08056 0.41237,0.18094 0.6037,0.30115c0.19133,0.1202 0.3691,0.25791 0.5333,0.41313c0.1642,0.15522 0.31167,0.32497 0.4424,0.50924c0.1308,0.18427 0.24233,0.37953 0.3346,0.58578c0.09233,0.20621 0.16367,0.41949 0.214,0.63982c0.05027,0.22027 0.07857,0.44333 0.0849,0.6692c0.0064,0.22587 -0.00933,0.4502 -0.0472,0.673c-0.0378,0.22273 -0.097,0.43967 -0.1776,0.6508c-0.08053,0.21113 -0.1809,0.41237 -0.3011,0.6037l-11.17,17.78c-0.09827,0.1564 -0.20843,0.30393 -0.3305,0.4426c-0.122,0.13873 -0.25433,0.26677 -0.397,0.3841c-0.14267,0.1174 -0.2938,0.2226 -0.4534,0.3156c-0.1596,0.09307 -0.3256,0.17273 -0.498,0.239c-0.21093,0.08113 -0.42773,0.1409 -0.6504,0.1793c-0.22267,0.0384 -0.44693,0.0547 -0.6728,0.0489c-0.22593,-0.0058 -0.4491,-0.03357 -0.6695,-0.0833c-0.2204,-0.04973 -0.43384,-0.1205 -0.64033,-0.2123c-0.20648,-0.0918 -0.40202,-0.20287 -0.58662,-0.3332c-0.1846,-0.13027 -0.35472,-0.27733 -0.51035,-0.4412c-0.15563,-0.1638 -0.29379,-0.3412 -0.41447,-0.5322c-0.12068,-0.19107 -0.22157,-0.39203 -0.30266,-0.6029l-11.17,-29.05004c-0.04045,-0.1052 -0.07565,-0.21213 -0.10559,-0.32078c-0.02995,-0.10866 -0.05449,-0.21852 -0.07364,-0.32959c-0.01915,-0.11107 -0.03281,-0.22281 -0.04098,-0.33522c-0.00817,-0.11241 -0.01082,-0.22495 -0.00793,-0.33762c0.00289,-0.11267 0.01129,-0.22493 0.02521,-0.33677c0.01391,-0.11184 0.03328,-0.22274 0.05809,-0.33268c0.02481,-0.10994 0.05495,-0.2184 0.09042,-0.32538c0.03547,-0.10698 0.0761,-0.21196 0.12188,-0.31495c0.04579,-0.10299 0.09651,-0.20349 0.15216,-0.30149c0.05566,-0.09801 0.11599,-0.19305 0.18099,-0.28513c0.06499,-0.09207 0.13434,-0.18074 0.20805,-0.26601c0.07371,-0.08526 0.15142,-0.16671 0.23313,-0.24434c0.08171,-0.07763 0.16703,-0.15106 0.25596,-0.22031c0.08893,-0.06924 0.18103,-0.13396 0.27632,-0.19416c0.09528,-0.06019 0.19329,-0.11557 0.29402,-0.16614c0.10073,-0.05057 0.20369,-0.09607 0.30888,-0.13652c0.1052,-0.04045 0.21213,-0.07565 0.32078,-0.10559c0.10866,-0.02995 0.21852,-0.05449 0.32959,-0.07364c0.11107,-0.01915 0.22281,-0.03281 0.33522,-0.04098c0.11241,-0.00817 0.22495,-0.01082 0.33762,-0.00793c0.11267,0.00289 0.22493,0.01129 0.33677,0.02521c0.11184,0.01391 0.22274,0.03328 0.33268,0.05809c0.10994,0.02481 0.2184,0.05495 0.32538,0.09042c0.10698,0.03547 0.21196,0.0761 0.31495,0.12188c0.10299,0.04579 0.20349,0.09651 0.30149,0.15216c0.09801,0.05566 0.19305,0.11599 0.28513,0.18099c0.09207,0.06499 0.18074,0.13434 0.26601,0.20805c0.08526,0.07371 0.16671,0.15142 0.24434,0.23313c0.07763,0.08171 0.15106,0.16703 0.22031,0.25596c0.06924,0.08893 0.13396,0.18103 0.19416,0.27632c0.06019,0.09528 0.11557,0.19329 0.16614,0.29402c0.05057,0.10073 0.09607,0.20369 0.13652,0.30888l8.70207,22.63166z"></path></g></g></g></g></g></g><defs><linearGradient id="linear_0" x1="105.22604092573661%" y1="49.99720313124607%" x2="-1.538662894727949%" y2="49.99720313124607%" gradientUnits="objectBoundingBox"><stop offset="0" stop-color="#BFD8FF" stop-opacity="1" /><stop offset="0.504729585808368" stop-color="#7CA6FE" stop-opacity="1" /><stop offset="1" stop-color="#D3E1FF" stop-opacity="1" /></linearGradient><linearGradient id="linear_1" x1="50%" y1="0%" x2="51%" y2="100%" gradientUnits="objectBoundingBox"><stop offset="0" stop-color="#FFFFFF" stop-opacity="1" /><stop offset="1" stop-color="#2B58F9" stop-opacity="1" /></linearGradient><linearGradient id="linear_2" x1="50%" y1="0%" x2="51%" y2="100%" gradientUnits="objectBoundingBox"><stop offset="0" stop-color="#FFFFFF" stop-opacity="0" /><stop offset="1" stop-color="#FFFFFF" stop-opacity="1" /></linearGradient><linearGradient id="linear_3" x1="50%" y1="0%" x2="51%" y2="100%" gradientUnits="objectBoundingBox"><stop offset="0" stop-color="#FFFFFF" stop-opacity="1" /><stop offset="1" stop-color="#2B58F9" stop-opacity="1" /></linearGradient><linearGradient id="linear_4" x1="50%" y1="0%" x2="51%" y2="100%" gradientUnits="objectBoundingBox"><stop offset="0" stop-color="#FFFFFF" stop-opacity="0" /><stop offset="1" stop-color="#FFFFFF" stop-opacity="1" /></linearGradient><filter id="filter_8" x="-20.52391488739606" y="-20.52391488739606" width="188.20386678980023" height="97.41108784813812" filterUnits="userSpaceOnUse" color-interpolation-filters="sRGB"><feFlood flood-opacity="0" result="BackgroundImageFix"/>
          <feGaussianBlur in="BackgroundImage" stdDeviation="10.26195744369803"/>
          <feComposite in2="SourceAlpha" operator="in" result="effect1_backgroundBlur"/>
          <feBlend mode="normal" in="SourceGraphic" in2="effect1_backgroundBlur" result="shape"/></filter><linearGradient id="linear_5" x1="16.35079934377487%" y1="35.14282131786739%" x2="97.59113659862577%" y2="52.90484628142266%" gradientUnits="objectBoundingBox"><stop offset="0" stop-color="#9DB2FB" stop-opacity="1" /><stop offset="0.3454094733391608" stop-color="#6385FF" stop-opacity="1" /><stop offset="1" stop-color="#2B58F9" stop-opacity="1" /></linearGradient><linearGradient id="linear_6" x1="50%" y1="1.1624352157456967%" x2="51%" y2="99.84907670454545%" gradientUnits="objectBoundingBox"><stop offset="0" stop-color="#FFFFFF" stop-opacity="0.11" /><stop offset="0.1302392011956037" stop-color="#FFFFFF" stop-opacity="1" /><stop offset="1" stop-color="#FFFFFF" stop-opacity="0.06" /></linearGradient><linearGradient id="linear_7" x1="50%" y1="0%" x2="41.64450509288162%" y2="100%" gradientUnits="objectBoundingBox"><stop offset="0" stop-color="#DCE8FF" stop-opacity="1" /><stop offset="1" stop-color="#FFFFFF" stop-opacity="1" /></linearGradient><filter id="filter_11" x="-32.83826381983372" y="-32.83826381983372" width="365.7177843652348" height="375.6310158403478" filterUnits="userSpaceOnUse" color-interpolation-filters="sRGB"><feFlood flood-opacity="0" result="BackgroundImageFix"/>
          <feGaussianBlur in="BackgroundImage" stdDeviation="16.41913190991686"/>
          <feComposite in2="SourceAlpha" operator="in" result="effect1_backgroundBlur"/>
          <feBlend mode="normal" in="SourceGraphic" in2="effect1_backgroundBlur" result="shape"/></filter><linearGradient id="linear_8" x1="0%" y1="-57.077740992422974%" x2="70.64503481089216%" y2="100%" gradientUnits="objectBoundingBox"><stop offset="0" stop-color="#5BD1F0" stop-opacity="1" /><stop offset="1" stop-color="#1B41F9" stop-opacity="1" /></linearGradient><linearGradient id="linear_9" x1="0%" y1="-57.077740992422974%" x2="70.64503481089216%" y2="100%" gradientUnits="objectBoundingBox"><stop offset="0" stop-color="#FFFFFF" stop-opacity="0.23" /><stop offset="0.973946951486014" stop-color="#ECF0FF" stop-opacity="0" /></linearGradient><filter id="filter_14" x="-16.419131909916853" y="-16.419131909916853" width="274.1217611550004" height="218.115519806533" filterUnits="userSpaceOnUse" color-interpolation-filters="sRGB"><feFlood flood-opacity="0" result="BackgroundImageFix"/>
          <feGaussianBlur in="BackgroundImage" stdDeviation="8.209565954958427"/>
          <feComposite in2="SourceAlpha" operator="in" result="effect1_backgroundBlur"/>
          <feBlend mode="normal" in="SourceGraphic" in2="effect1_backgroundBlur" result="shape"/></filter><linearGradient id="linear_10" x1="96.06198691655443%" y1="36.06078996370368%" x2="10.123624976775147%" y2="50%" gradientUnits="objectBoundingBox"><stop offset="0" stop-color="#12BDEA" stop-opacity="1" /><stop offset="1" stop-color="#65DFFF" stop-opacity="1" /></linearGradient><linearGradient id="linear_11" x1="50.00000000000142%" y1="-7.105427357601002e-13%" x2="50%" y2="100%" gradientUnits="objectBoundingBox"><stop offset="0" stop-color="#43C6FF" stop-opacity="1" /><stop offset="0.5758452213445507" stop-color="#9DE8FF" stop-opacity="1" /><stop offset="1" stop-color="#45C7FF" stop-opacity="1" /></linearGradient><linearGradient id="linear_12" x1="5.6843418860808015e-12%" y1="43.20903302956225%" x2="100.00000000000568%" y2="62.834283117071266%" gradientUnits="objectBoundingBox"><stop offset="0" stop-color="#FFFFFF" stop-opacity="1" /><stop offset="1" stop-color="#FFFFFF" stop-opacity="0" /></linearGradient><filter id="filter_20" x="-20.52391488739606" y="-20.52391488739606" width="198.72152341225353" height="141.12949440866953" filterUnits="userSpaceOnUse" color-interpolation-filters="sRGB"><feFlood flood-opacity="0" result="BackgroundImageFix"/>
          <feGaussianBlur in="BackgroundImage" stdDeviation="10.26195744369803"/>
          <feComposite in2="SourceAlpha" operator="in" result="effect1_backgroundBlur"/>
          <feBlend mode="normal" in="SourceGraphic" in2="effect1_backgroundBlur" result="shape"/></filter><linearGradient id="linear_13" x1="29.773782860091025%" y1="0%" x2="102.55752886493798%" y2="91.83834107525963%" gradientUnits="objectBoundingBox"><stop offset="0" stop-color="#FFFFFF" stop-opacity="0.47" /><stop offset="1" stop-color="#2C5BF9" stop-opacity="0" /></linearGradient><filter id="filter_23" x="-2.052391488739608" y="-2.052391488739608" width="196.384133036665" height="178.7889581371818" filterUnits="userSpaceOnUse" color-interpolation-filters="sRGB"><feFlood flood-opacity="0" result="BackgroundImageFix"/>
          <feGaussianBlur in="BackgroundImage" stdDeviation="1.026195744369804"/>
          <feComposite in2="SourceAlpha" operator="in" result="effect1_backgroundBlur"/>
          <feBlend mode="normal" in="SourceGraphic" in2="effect1_backgroundBlur" result="shape"/></filter><linearGradient id="linear_14" x1="46.317622029863514%" y1="40.07752140953702%" x2="23.11830197443996%" y2="22.096982347157468%" gradientUnits="objectBoundingBox"><stop offset="0" stop-color="#5794FD" stop-opacity="1" /><stop offset="1" stop-color="#2C5BF9" stop-opacity="1" /></linearGradient><radialGradient id="linear_15" cx="50%" cy="55.46387014272458%" fx="50%" fy="55.46387014272458%" r="0.5650398395375202" gradientTransform="translate(0.5 0.5546387014272458) scale(1.134715650631923 1) rotate(304.4105377243363) scale(1 1) translate(-0.5 -0.5546387014272458)" ><stop offset="0" stop-color="#5381FF" stop-opacity="1" /><stop offset="1" stop-color="#2B58F9" stop-opacity="1" /></radialGradient><linearGradient id="linear_16" x1="50%" y1="0%" x2="51%" y2="100%" gradientUnits="objectBoundingBox"><stop offset="0" stop-color="#FFFFFF" stop-opacity="1" /><stop offset="1" stop-color="#FFFFFF" stop-opacity="0" /></linearGradient><linearGradient id="linear_17" x1="50%" y1="0%" x2="51%" y2="100%" gradientUnits="objectBoundingBox"><stop offset="0" stop-color="#FFFFFF" stop-opacity="1" /><stop offset="1" stop-color="#FFFFFF" stop-opacity="0" /></linearGradient><filter id="filter_27" x="-18.471523398656455" y="-18.471523398656455" width="108.041054090805" height="117.619068401981" filterUnits="userSpaceOnUse" color-interpolation-filters="sRGB"><feFlood flood-opacity="0" result="BackgroundImageFix"/>
          <feGaussianBlur in="BackgroundImage" stdDeviation="9.235761699328227"/>
          <feComposite in2="SourceAlpha" operator="in" result="effect1_backgroundBlur"/>
          <feBlend mode="normal" in="SourceGraphic" in2="effect1_backgroundBlur" result="shape"/></filter><linearGradient id="linear_18" x1="10.590831960097802%" y1="6.314298875995927%" x2="97.9405225545344%" y2="138.6569248430572%" gradientUnits="objectBoundingBox"><stop offset="0" stop-color="#5691FD" stop-opacity="1" /><stop offset="0.07709057075169455" stop-color="#8AB1FF" stop-opacity="1" /><stop offset="0.3786087742324313" stop-color="#3C6FFA" stop-opacity="1" /><stop offset="0.5812391661624475" stop-color="#EBF0FF" stop-opacity="1" /><stop offset="0.6448421530053255" stop-color="#3A6CFA" stop-opacity="1" /><stop offset="1" stop-color="#2B58F9" stop-opacity="1" /></linearGradient><linearGradient id="linear_19" x1="59.51796381678882%" y1="7.185206991424753%" x2="45.96787945791849%" y2="17.573737697403182%" gradientUnits="objectBoundingBox"><stop offset="0" stop-color="#FFFFFF" stop-opacity="1" /><stop offset="1" stop-color="#FFFFFF" stop-opacity="0" /></linearGradient><linearGradient id="linear_20" x1="6.9392526883600425%" y1="6.707853283809806%" x2="68.53049018407908%" y2="74.32793679307031%" gradientUnits="objectBoundingBox"><stop offset="0" stop-color="#8AC4FF" stop-opacity="1" /><stop offset="1" stop-color="#2B58F9" stop-opacity="1" /></linearGradient><linearGradient id="linear_21" x1="6.9392526883600425%" y1="6.707853283809806%" x2="65.38776466111109%" y2="60.887536336520974%" gradientUnits="objectBoundingBox"><stop offset="0" stop-color="#8AC4FF" stop-opacity="0" /><stop offset="0.9836545290646853" stop-color="#FFFFFF" stop-opacity="0" /></linearGradient><linearGradient id="linear_22" x1="0%" y1="54.93055414621231%" x2="100%" y2="39.220513498296405%" gradientUnits="objectBoundingBox"><stop offset="0" stop-color="#FFFFFF" stop-opacity="0" /><stop offset="1" stop-color="#FFFFFF" stop-opacity="1" /></linearGradient><filter id="filter_39" x="-16.419131909916853" y="-16.419131909916853" width="128.8697217744752" height="197.4636380114741" filterUnits="userSpaceOnUse" color-interpolation-filters="sRGB"><feFlood flood-opacity="0" result="BackgroundImageFix"/>
          <feGaussianBlur in="BackgroundImage" stdDeviation="8.209565954958427"/>
          <feComposite in2="SourceAlpha" operator="in" result="effect1_backgroundBlur"/>
          <feBlend mode="normal" in="SourceGraphic" in2="effect1_backgroundBlur" result="shape"/></filter><linearGradient id="linear_23" x1="51.08325880719953%" y1="93.83802283153764%" x2="52.08325880719953%" y2="21.29943502071807%" gradientUnits="objectBoundingBox"><stop offset="0" stop-color="#CFDEFF" stop-opacity="0" /><stop offset="1" stop-color="#7194FF" stop-opacity="1" /></linearGradient><filter id="filter_45" x="-20.52391488739606" y="-20.52391488739606" width="190.2693325383121" height="115.56018904693187" filterUnits="userSpaceOnUse" color-interpolation-filters="sRGB"><feFlood flood-opacity="0" result="BackgroundImageFix"/>
          <feBlend mode="normal" in="SourceGraphic" in2="BackgroundImageFix" result="shape"/>
          <feGaussianBlur stdDeviation="10.26195744369803" result="effect1_foregroundBlur" /></filter><linearGradient id="linear_24" x1="13.525555592817145%" y1="16.751297263586153%" x2="50%" y2="93.57854066626486%" gradientUnits="objectBoundingBox"><stop offset="0" stop-color="#B8F2FF" stop-opacity="1" /><stop offset="1" stop-color="#AEE6F9" stop-opacity="1" /></linearGradient><linearGradient id="linear_25" x1="12.343654580460633%" y1="62.62193914732347%" x2="57.7863397238335%" y2="40.979036727239674%" gradientUnits="objectBoundingBox"><stop offset="0" stop-color="#FFFFFF" stop-opacity="0.27" /><stop offset="1" stop-color="#FFFFFF" stop-opacity="0.07" /></linearGradient><linearGradient id="linear_26" x1="84.0891304103856%" y1="8.226929322914689%" x2="0%" y2="63.03095973770718%" gradientUnits="objectBoundingBox"><stop offset="0" stop-color="#FFFFFF" stop-opacity="1" /><stop offset="1" stop-color="#ABE2FC" stop-opacity="1" /></linearGradient><filter id="filter_51" x="-14.366740421177248" y="-14.366740421177248" width="112.32170496719918" height="153.5326088168037" filterUnits="userSpaceOnUse" color-interpolation-filters="sRGB"><feFlood flood-opacity="0" result="BackgroundImageFix"/>
          <feGaussianBlur in="BackgroundImage" stdDeviation="7.183370210588624"/>
          <feComposite in2="SourceAlpha" operator="in" result="effect1_backgroundBlur"/>
          <feBlend mode="normal" in="SourceGraphic" in2="effect1_backgroundBlur" result="shape"/></filter></defs></svg>