<?xml version="1.0" encoding="UTF-8"?>
<svg width="120px" height="118px" viewBox="0 0 120 118" version="1.1" xmlns="http://www.w3.org/2000/svg" xmlns:xlink="http://www.w3.org/1999/xlink">
    <title>形状备份 4</title>
    <defs>
        <rect id="path-1" x="0" y="0" width="120" height="118"></rect>
        <linearGradient x1="87.7794569%" y1="13.5571381%" x2="31.5150074%" y2="86.7824728%" id="linearGradient-3">
            <stop stop-color="#FFFFFF" offset="0%"></stop>
            <stop stop-color="#00A3FF" stop-opacity="0" offset="100%"></stop>
        </linearGradient>
    </defs>
    <g id="页面-1" stroke="none" stroke-width="1" fill="none" fill-rule="evenodd" opacity="0.146722703">
        <g id="画板" transform="translate(-649.000000, -137.000000)">
            <g id="形状备份-4" transform="translate(649.000000, 137.822315)">
                <mask id="mask-2" fill="white">
                    <use xlink:href="#path-1"></use>
                </mask>
                <g id="蒙版"></g>
                <path d="M26.3686332,69.023672 L26.3686332,105.058159 L5.86304944,105.058159 L5.86304944,85.7454272 L26.3686332,69.023672 L26.3686332,69.023672 Z M44.1823465,58.1116604 L50.5840616,66.0725006 C50.7647725,66.4465615 50.9843422,66.8002539 51.2390868,67.1276435 L51.304961,67.210686 L52.7103625,68.9584521 C53.4530749,69.882672 54.4570273,70.5575566 55.5890901,70.8936126 L55.5890901,105.058159 L35.0835063,105.058159 L35.0835063,65.5316268 L44.1823465,58.1116604 L44.1823465,58.1116604 Z M84.6813871,49.9382418 L84.6813871,105.058159 L64.1758033,105.058159 L64.1758033,66.6603844 L84.6813871,49.9382418 Z M113.901844,30.2211464 L113.901844,105.058159 L93.3962602,105.058159 L93.3962602,46.943289 L113.901844,30.2211464 Z M114.057302,4.30130882 C114.854443,4.37032348 115.607911,4.6978524 116.204749,5.23479389 C116.992164,5.92147625 117.490193,6.9359374 117.490193,8.06766535 C117.490193,8.37594273 117.453283,8.67556715 117.383564,8.96227673 L116.106579,23.6689285 C115.927796,25.7296213 114.125099,27.2538314 112.080179,27.0736693 C110.035388,26.8933781 108.522717,25.0767758 108.701628,23.016083 L109.012288,19.4380249 L58.8442234,60.3600059 C58.579002,60.7381903 58.2632726,61.0776936 57.9059648,61.3689137 L57.9040424,61.3704635 C56.2530866,62.7170944 54.0087504,62.8295828 52.270774,61.8242911 C51.665618,61.5061099 51.131947,61.0657862 50.702994,60.5307402 C50.5191454,60.3023103 50.3554201,60.0581553 50.2136795,59.8010514 L43.1687299,51.0384575 L8.13622156,79.6143623 C5.99287541,81.3627742 2.84898494,81.0298295 1.11305911,78.8708547 C-0.621841437,76.7131713 -0.292470497,73.5468385 1.84869693,71.7985558 L1.85049117,71.7970061 L40.5083867,40.2641181 C41.2190722,39.6825028 42.0753367,39.3099499 42.9827698,39.1875365 C44.76227,38.806032 46.6855656,39.421037 47.9093645,40.9431807 L55.3851877,50.2414824 L102.49651,11.8129707 L99.6760953,11.8129707 C97.6233582,11.8129707 95.9594582,10.1362362 95.9594582,8.06766535 C95.9594582,5.99922362 97.6233582,4.32236002 99.6760953,4.32236002 L113.218367,4.32236002 C113.496335,4.28355025 113.777762,4.27648847 114.057302,4.30130882 L114.057302,4.30130882 Z" id="形状" fill="url(#linearGradient-3)" fill-rule="nonzero" mask="url(#mask-2)"></path>
            </g>
        </g>
    </g>
</svg>