<?xml version="1.0" encoding="UTF-8"?>
<svg width="120px" height="118px" viewBox="0 0 120 118" version="1.1" xmlns="http://www.w3.org/2000/svg" xmlns:xlink="http://www.w3.org/1999/xlink">
    <title>形状</title>
    <defs>
        <linearGradient x1="50%" y1="1.65277778%" x2="10.9674559%" y2="77.6592198%" id="linearGradient-1">
            <stop stop-color="#FFFFFF" offset="0%"></stop>
            <stop stop-color="#00A3FF" stop-opacity="0" offset="100%"></stop>
        </linearGradient>
    </defs>
    <g id="页面-1" stroke="none" stroke-width="1" fill="none" fill-rule="evenodd" opacity="0.150902884">
        <g id="画板" transform="translate(-475.000000, -137.000000)" fill="url(#linearGradient-1)" fill-rule="nonzero">
            <path d="M485.522603,205.906303 L484.686851,205.906303 C479.586822,205.906303 475.452431,201.839237 475.452431,196.822258 C475.452431,191.805278 479.586822,187.738213 484.686851,187.738213 L485.522603,187.738213 C489.359505,167.382811 505.548903,151.457092 526.241275,147.682729 L526.241275,146.860587 C526.266882,141.861537 530.393711,137.822315 535.475579,137.822315 C540.557447,137.822315 544.684275,141.861537 544.709882,146.860587 L544.709882,147.682729 C565.402346,151.457006 581.591855,167.382744 585.428789,187.738213 L586.264541,187.738213 C591.346344,187.763403 595.452431,191.823029 595.452431,196.822142 C595.452431,201.821256 591.346344,205.880882 586.264541,205.906072 L585.428789,205.906072 C581.592018,226.261608 565.402592,242.187492 544.710117,245.961901 L544.710117,246.784044 C544.68451,251.783093 540.557681,255.822315 535.475813,255.822315 C530.393946,255.822315 526.267117,251.783093 526.24151,246.784044 L526.24151,245.961901 C505.549012,242.187609 489.359494,226.261817 485.522603,205.906303 Z M535.475696,224.074047 C550.775656,224.074047 563.178724,211.872954 563.178724,196.822142 C563.178724,181.771331 550.775656,169.570238 535.475696,169.570238 C520.175737,169.570238 507.772669,181.771332 507.772669,196.822142 C507.772669,211.872953 520.175737,224.074047 535.475696,224.074047 Z M535.475696,214.990002 C525.275766,214.990002 517.007089,206.855974 517.007089,196.822142 C517.007089,186.788311 525.275766,178.654283 535.475696,178.654283 C545.675626,178.654283 553.944303,186.788311 553.944303,196.822142 C553.944303,206.855974 545.675626,214.990002 535.475696,214.990002 Z" id="形状"></path>
        </g>
    </g>
</svg>