<?xml version="1.0" encoding="UTF-8"?>
<svg width="857px" height="527px" viewBox="0 0 857 527" version="1.1" xmlns="http://www.w3.org/2000/svg" xmlns:xlink="http://www.w3.org/1999/xlink">
    <title>编组 17</title>
    <defs>
        <linearGradient x1="50%" y1="0%" x2="50%" y2="100%" id="linearGradient-1">
            <stop stop-color="#FFFFFF" stop-opacity="0.0878547722" offset="0%"></stop>
            <stop stop-color="#DDE7FF" offset="100%"></stop>
        </linearGradient>
        <linearGradient x1="50%" y1="0%" x2="50%" y2="100%" id="linearGradient-2">
            <stop stop-color="#2B58F9" offset="0%"></stop>
            <stop stop-color="#2B58F9" offset="100%"></stop>
        </linearGradient>
        <linearGradient x1="50%" y1="0%" x2="50%" y2="100%" id="linearGradient-3">
            <stop stop-color="#0014EC" stop-opacity="0" offset="0%"></stop>
            <stop stop-color="#003EFF" offset="100%"></stop>
        </linearGradient>
        <linearGradient x1="50%" y1="0%" x2="50%" y2="100%" id="linearGradient-4">
            <stop stop-color="#2B58F9" offset="0%"></stop>
            <stop stop-color="#2B58F9" offset="100%"></stop>
        </linearGradient>
        <linearGradient x1="-27.5037472%" y1="20.913134%" x2="58.9661047%" y2="54.9936189%" id="linearGradient-5">
            <stop stop-color="#236CEE" offset="0%"></stop>
            <stop stop-color="#04BFC2" offset="100%"></stop>
        </linearGradient>
        <linearGradient x1="50%" y1="0%" x2="50%" y2="99.0085842%" id="linearGradient-6">
            <stop stop-color="#2B58F9" offset="0%"></stop>
            <stop stop-color="#2B58F9" stop-opacity="0" offset="100%"></stop>
        </linearGradient>
        <linearGradient x1="90.186514%" y1="52.0275239%" x2="4.4408921e-14%" y2="50%" id="linearGradient-7">
            <stop stop-color="#5691FD" stop-opacity="0" offset="0%"></stop>
            <stop stop-color="#2B58F9" offset="100%"></stop>
        </linearGradient>
    </defs>
    <g id="页面-1" stroke="none" stroke-width="1" fill="none" fill-rule="evenodd">
        <g id="画板" transform="translate(-1205.000000, -151.000000)">
            <g id="编组-17" transform="translate(1205.830723, 151.000000)">
                <rect id="矩形" fill="#FFFFFF" x="0" y="0" width="856" height="527" rx="22"></rect>
                <g id="编组-3" transform="translate(49.000000, 32.298002)">
                    <g id="编组-2">
                        <rect id="矩形" fill="#F0F4FE" x="0" y="0" width="199.982942" height="462.403996" rx="21"></rect>
                        <rect id="矩形" stroke="#2B58F9" fill="#FFFFFF" x="25.8372053" y="283.733759" width="144.68893" height="39.7205085" rx="19.8602542"></rect>
                        <text id="群众" font-family="PingFangSC-Semibold, PingFang SC" font-size="24" font-weight="500" fill="#1A1A1A">
                            <tspan x="74.1816704" y="310.284213">群众</tspan>
                        </text>
                        <rect id="矩形" fill="#F0F4FE" x="287.451902" y="0" width="470.548098" height="74.2018154" rx="37.1009077"></rect>
                        <text id="小程序" font-family="PingFangSC-Semibold, PingFang SC" font-size="18" font-weight="500" fill="#1F5CFB">
                            <tspan x="479.590927" y="44.0533578">小程序</tspan>
                        </text>
                        <text id="PC端" font-family="PingFangSC-Semibold, PingFang SC" font-size="18" font-weight="500" letter-spacing="-0.0009" fill="#1F5CFB">
                            <tspan x="365.797281" y="44.0533578">PC端</tspan>
                        </text>
                        <text id="可视化大屏" font-family="PingFangSC-Semibold, PingFang SC" font-size="18" font-weight="500" fill="#1F5CFB">
                            <tspan x="602.149727" y="43.1484576">可视化大屏</tspan>
                        </text>
                        <rect id="矩形备份" fill="#F0F4FE" x="287.451902" y="104.063522" width="470.548098" height="74.2018154" rx="37.1009077"></rect>
                        <rect id="矩形备份-2" stroke="#2B58F9" fill="#FFFFFF" x="287.951902" y="364.269876" width="469.548098" height="92.2047194" rx="46.1023597"></rect>
                        <rect id="矩形" fill="#DFE6FF" x="425.705649" y="417.413787" width="95.0703268" height="23.7145782" rx="11.8572891"></rect>
                        <rect id="矩形备份-6" fill="#DFE6FF" x="425.705649" y="384.488993" width="95.0703268" height="23.7145782" rx="11.8572891"></rect>
                        <rect id="矩形备份-4" fill="#DFE6FF" x="529.456101" y="417.413787" width="95.0703268" height="23.7145782" rx="11.8572891"></rect>
                        <rect id="矩形备份-5" fill="#DFE6FF" x="633.206553" y="417.413787" width="95.0703268" height="23.7145782" rx="11.8572891"></rect>
                        <text id="虚拟机器人" font-family="PingFangSC-Regular, PingFang SC" font-size="16" font-weight="normal" line-spacing="22" fill="#1A1A1A">
                            <tspan x="640.741716" y="434.333352">虚拟机器人</tspan>
                        </text>
                        <text id="语音机器人" font-family="PingFangSC-Regular, PingFang SC" font-size="16" font-weight="normal" line-spacing="22" fill="#1A1A1A">
                            <tspan x="538.522253" y="434.333352">语音机器人</tspan>
                        </text>
                        <text id="文字机器人" font-family="PingFangSC-Regular, PingFang SC" font-size="16" font-weight="normal" line-spacing="22" fill="#1A1A1A">
                            <tspan x="434.604341" y="434.333352">文字机器人</tspan>
                        </text>
                        <text id="在线服务" font-family="PingFangSC-Semibold, PingFang SC" font-size="18" font-weight="500" line-spacing="22" fill="#2B58F9">
                            <tspan x="320.028334" y="436.333352">在线服务</tspan>
                        </text>
                        <text id="语音机器人" font-family="PingFangSC-Regular, PingFang SC" font-size="16" font-weight="normal" line-spacing="22" fill="#1A1A1A">
                            <tspan x="434.604341" y="402.096282">语音机器人</tspan>
                        </text>
                        <text id="热线电话" font-family="PingFangSC-Semibold, PingFang SC" font-size="18" font-weight="500" line-spacing="22" fill="#2B58F9">
                            <tspan x="320.028334" y="404.346282">热线电话</tspan>
                        </text>
                        <polygon id="路径-3" fill="url(#linearGradient-1)" points="287.451902 309.928314 758 309.928314 701.607441 266.040655 344.493452 266.040655"></polygon>
                        <text id="短信平台" font-family="PingFangSC-Semibold, PingFang SC" font-size="18" font-weight="500" fill="#1F5CFB">
                            <tspan x="430.578166" y="147.664429">短信平台</tspan>
                        </text>
                        <text id="智能接待" font-family="PingFangSC-Semibold, PingFang SC" font-size="18" font-weight="500" fill="#1F5CFB">
                            <tspan x="318.720874" y="147.664429">智能接待</tspan>
                        </text>
                        <text id="协同工单" font-family="PingFangSC-Semibold, PingFang SC" font-size="18" font-weight="500" fill="#1F5CFB">
                            <tspan x="542.435459" y="147.664429">协同工单</tspan>
                        </text>
                        <text id="业务定制" font-family="PingFangSC-Semibold, PingFang SC" font-size="18" font-weight="500" fill="#1F5CFB">
                            <tspan x="654.292751" y="147.664429">业务定制</tspan>
                        </text>
                        <text id="实时辅助" font-family="PingFangSC-Regular, PingFang SC" font-size="14" font-weight="normal" line-spacing="22" fill="#1A1A1A">
                            <tspan x="390.604283" y="242.907253">实时辅助</tspan>
                        </text>
                        <ellipse id="椭圆形备份" stroke="url(#linearGradient-3)" fill="url(#linearGradient-2)" opacity="0.15369379" cx="523.236547" cy="271.120021" rx="80.7600369" ry="22.6201998"></ellipse>
                        <ellipse id="椭圆形备份-2" fill="url(#linearGradient-4)" cx="523.236547" cy="260.750704" rx="73.2969153" ry="21.8434516"></ellipse>
                        <text id="沟通工作台" font-family="PingFangSC-Semibold, PingFang SC" font-size="20" font-weight="500" line-spacing="22" fill="#FFFFFF">
                            <tspan x="474.716731" y="268.796526">沟通工作台</tspan>
                        </text>
                        <text id="手动-操作" font-family="PingFangSC-Regular, PingFang SC" font-size="14" font-weight="normal" line-spacing="15" fill="#1A1A1A">
                            <tspan x="539.917064" y="193.261525">手</tspan>
                            <tspan x="539.917064" y="208.261525">动</tspan>
                            <tspan x="539.917064" y="223.261525">操</tspan>
                            <tspan x="539.917064" y="238.261525">作</tspan>
                        </text>
                        <text id="无缝-切换" font-family="PingFangSC-Regular, PingFang SC" font-size="14" font-weight="normal" line-spacing="15" fill="#1A1A1A">
                            <tspan x="539.917064" y="310.050819">无</tspan>
                            <tspan x="539.917064" y="325.050819">缝</tspan>
                            <tspan x="539.917064" y="340.050819">切</tspan>
                            <tspan x="539.917064" y="355.050819">换</tspan>
                        </text>
                        <text id="全量质检" font-family="PingFangSC-Regular, PingFang SC" font-size="14" font-weight="normal" line-spacing="22" fill="#1A1A1A">
                            <tspan x="596.979672" y="241.907253">全量质检</tspan>
                        </text>
                        <text id="服务层" fill-rule="nonzero" font-family="PingFangSC-Semibold, PingFang SC" font-size="20" font-weight="500" line-spacing="22" fill="#1A1A1A">
                            <tspan x="238.764902" y="24.4520061">服</tspan>
                            <tspan x="238.764902" y="46.4520061">务</tspan>
                            <tspan x="238.764902" y="68.4520061">层</tspan>
                        </text>
                        <text id="应用场景" fill-rule="nonzero" font-family="PingFangSC-Semibold, PingFang SC" font-size="20" font-weight="500" line-spacing="22" fill="#1A1A1A">
                            <tspan x="238.764902" y="119.466526">应</tspan>
                            <tspan x="238.764902" y="141.466526">用</tspan>
                            <tspan x="238.764902" y="163.466526">场</tspan>
                            <tspan x="238.764902" y="185.466526">景</tspan>
                        </text>
                        <text id="沟通渠道" fill-rule="nonzero" font-family="PingFangSC-Semibold, PingFang SC" font-size="20" font-weight="500" line-spacing="22" fill="#1A1A1A">
                            <tspan x="238.764902" y="387.316982">沟</tspan>
                            <tspan x="238.764902" y="409.316982">通</tspan>
                            <tspan x="238.764902" y="431.316982">渠</tspan>
                            <tspan x="238.764902" y="453.316982">道</tspan>
                        </text>
                        <line x1="445.658576" y1="11.2524411" x2="445.658576" y2="62.936007" id="路径-4" stroke="#2B58F9" stroke-width="0.8"></line>
                        <line x1="409.919785" y1="116.147026" x2="409.919785" y2="167.830592" id="路径-4备份-2" stroke="#2B58F9" stroke-width="0.8"></line>
                        <line x1="523.236547" y1="116.147026" x2="523.236547" y2="167.830592" id="路径-4备份-3" stroke="#2B58F9" stroke-width="0.8"></line>
                        <line x1="635.09384" y1="116.147026" x2="635.09384" y2="167.830592" id="路径-4备份-4" stroke="#2B58F9" stroke-width="0.8"></line>
                        <line x1="573.706719" y1="11.2524411" x2="573.706719" y2="62.936007" id="路径-4备份" stroke="#2B58F9" stroke-width="0.8"></line>
                        <rect id="矩形" fill="url(#linearGradient-5)" x="655.293829" y="242.591395" width="102.706171" height="32.4578118" rx="16.2289059"></rect>
                        <rect id="矩形备份-3" fill="url(#linearGradient-5)" x="287.451902" y="242.81762" width="102.706171" height="32.4578118" rx="16.2289059"></rect>
                        <text id="智能辅助" font-family="PingFangSC-Semibold, PingFang SC" font-size="20" font-weight="500" line-spacing="22" fill="#FFFFFF">
                            <tspan x="298.804988" y="268.796526">智能辅助</tspan>
                        </text>
                        <text id="智能质检" font-family="PingFangSC-Semibold, PingFang SC" font-size="20" font-weight="500" line-spacing="22" fill="#FFFFFF">
                            <tspan x="666.646914" y="268.570301">智能质检</tspan>
                        </text>
                        <path d="M523.236547,180.645108 L533.190449,193.76382 L527.876645,193.763108 L527.877554,232.843492 L518.595541,232.843492 L518.594645,193.763108 L513.282645,193.76382 L523.236547,180.645108 Z" id="形状结合" fill="url(#linearGradient-6)"></path>
                        <path d="M523.236547,302.296265 L533.190449,315.414976 L527.876645,315.414265 L527.877554,354.494649 L518.595541,354.494649 L518.594645,315.414265 L513.282645,315.414976 L523.236547,302.296265 Z" id="形状结合备份" fill="url(#linearGradient-6)"></path>
                        <path d="M422.135938,232.721109 L432.08984,245.83982 L426.776036,245.839109 L426.776944,284.919493 L417.494931,284.919493 L417.494036,245.839109 L412.182036,245.83982 L422.135938,232.721109 Z" id="形状结合备份-2" fill="url(#linearGradient-6)" transform="translate(422.135938, 258.820301) rotate(90.000000) translate(-422.135938, -258.820301) "></path>
                        <path d="M624.979672,232.721109 L634.933574,245.83982 L629.61977,245.839109 L629.620679,284.919493 L620.338666,284.919493 L620.33777,245.839109 L615.02577,245.83982 L624.979672,232.721109 Z" id="形状结合备份-3" fill="url(#linearGradient-6)" transform="translate(624.979672, 258.820301) scale(-1, 1) rotate(90.000000) translate(-624.979672, -258.820301) "></path>
                        <line x1="393.267078" y1="396.346282" x2="425.705649" y2="396.346282" id="路径-6" stroke="#2B58F9" stroke-linecap="round" stroke-linejoin="round" stroke-dasharray="2"></line>
                        <line x1="393.267078" y1="428.583352" x2="425.705649" y2="428.583352" id="路径-6备份" stroke="#2B58F9" stroke-linecap="round" stroke-linejoin="round" stroke-dasharray="2"></line>
                        <g id="编组" transform="translate(154.795662, 26.242105)">
                            <path d="M9.44221045,16.0435477 C35.8061152,-2.17649918 61.0517236,0.116860464 85.1790358,22.9236266" id="路径-7" stroke="url(#linearGradient-7)" stroke-width="5" stroke-linecap="round" stroke-linejoin="round" transform="translate(47.310623, 13.414932) rotate(-6.000000) translate(-47.310623, -13.414932) "></path>
                            <polygon id="路径-8" fill="#2B58F9" transform="translate(9.902601, 21.112454) rotate(4.000000) translate(-9.902601, -21.112454) " points="0.62714893 30.4269079 19.1780524 23.9711773 4.69079743 11.798"></polygon>
                        </g>
                        <g id="编组备份" transform="translate(199.982942, 405.931642) scale(1, -1) translate(-199.982942, -405.931642) translate(157.000183, 390.406021)">
                            <path d="M9.44221045,16.0435477 C35.8061152,-2.17649918 61.0517236,0.116860464 85.1790358,22.9236266" id="路径-7" stroke="url(#linearGradient-7)" stroke-width="5" stroke-linecap="round" stroke-linejoin="round" transform="translate(47.310623, 13.414932) rotate(-6.000000) translate(-47.310623, -13.414932) "></path>
                            <polygon id="路径-8" fill="#2B58F9" transform="translate(9.902601, 21.112454) rotate(4.000000) translate(-9.902601, -21.112454) " points="0.62714893 30.4269079 19.1780524 23.9711773 4.69079743 11.798"></polygon>
                        </g>
                        <path d="M283.856044,0 C280.021851,7.04329776e-16 276.913624,3.10822733 276.913624,6.94242005 L276.913624,29.3453449 C276.913624,33.2150551 273.982635,36.4557869 270.132369,36.8432324 L270.132369,36.8432324 L270.132369,36.8432324 C273.877553,36.8432324 276.913624,39.8793035 276.913624,43.624487 L276.913624,67.2593954 C276.913624,71.0935881 280.021851,74.2018154 283.856044,74.2018154 L283.856044,74.2018154 L283.856044,74.2018154" id="路径-9" stroke="#2B58F9"></path>
                        <path d="M283.856044,104.063522 C280.021851,104.063522 276.913624,107.171749 276.913624,111.005942 L276.913624,133.408867 C276.913624,137.278577 273.982635,140.519309 270.132369,140.906754 L270.132369,140.906754 L270.132369,140.906754 C273.877553,140.906754 276.913624,143.942825 276.913624,147.688009 L276.913624,171.322917 C276.913624,175.15711 280.021851,178.265337 283.856044,178.265337 L283.856044,178.265337 L283.856044,178.265337" id="路径-9备份" stroke="#2B58F9"></path>
                        <path d="M283.856044,364.674776 C280.021851,364.674776 276.913624,367.783003 276.913624,371.617196 L276.913624,402.821169 C276.913624,406.725619 274.006587,410.01922 270.132369,410.504162 L270.132369,410.504162 L270.132369,410.504162 C273.877553,410.504162 276.913624,413.540234 276.913624,417.285417 L276.913624,450.032175 C276.913624,453.866368 280.021851,456.974595 283.856044,456.974595 L283.856044,456.974595 L283.856044,456.974595" id="路径-9备份-2" stroke="#2B58F9"></path>
                    </g>
                    <g id="a-icon-person-tuandui2" transform="translate(41.149237, 129.438208)" fill="#2B58F9" fill-rule="nonzero">
                        <path d="M83.1819377,86.6255127 C83.1819377,92.0396073 78.6701923,101.965447 75.963145,103.770146 C73.2560977,104.672495 73.2560977,110.988938 73.2560977,120.914778 L73.2560977,130.840618 C73.2560977,133.547665 72.3537486,134.450015 71.4513994,134.450015 L47.990323,134.450015 C46.1856249,134.450015 46.1856249,132.645316 46.1856249,130.840618 L46.1856249,120.914778 C46.1856249,111.891287 46.1856249,105.574844 42.5762285,103.770146 C39.8691812,101.965447 35.3574358,92.9419564 35.3574358,86.6255127 C35.3574358,77.6020217 34.4550866,68.5785309 35.3574358,58.6526909 C36.2597849,47.8245018 40.7715303,43.3127564 50.6973703,43.3127564 L69.6467013,43.3127564 C79.5725413,43.3127564 84.0842868,48.7268509 84.0842868,59.55504 L84.0842868,86.6255127 L83.1819377,86.6255127 L83.1819377,86.6255127 Z M58.8185122,34.2892654 C49.7950212,34.2892654 42.5762285,26.1681235 42.5762285,17.1446327 C42.5762285,8.12114184 49.7950213,0 58.8185122,0 C67.842003,0 75.0607959,8.12114184 75.0607959,17.1446327 C75.0607959,26.1681235 67.8420032,34.2892654 58.8185122,34.2892654 Z M20.9198504,49.6292001 C11.8963594,49.6292001 4.67756669,41.5080582 4.67756669,32.4845672 C4.67756669,23.4610762 11.8963594,15.3399345 20.9198504,15.3399345 C29.9433414,15.3399345 37.1621341,23.4610764 37.1621341,32.4845672 C37.1621341,41.5080581 29.0409922,49.6292001 20.9198504,49.6292001 Z M98.5218722,49.6292001 C89.4983813,49.6292001 82.2795886,41.5080582 82.2795886,32.4845672 C82.2795886,23.4610762 89.4983813,15.3399345 98.5218722,15.3399345 C107.545363,15.3399345 114.764156,23.4610764 114.764156,32.4845672 C114.764156,41.5080581 107.545363,49.6292001 98.5218722,49.6292001 Z M117.471203,85.7231637 C117.471203,65.8714837 113.861807,58.6526909 103.033618,58.6526909 L88.5960323,58.6526909 L88.5960323,83.0161164 C88.5960323,86.6255129 88.5960323,91.1372583 87.6936831,94.7466546 C85.888985,100.160749 83.1819377,104.672495 79.5725413,108.281891 C75.0607959,113.695986 77.7678431,118.207731 77.7678431,122.719477 L77.7678431,136.254713 L101.22892,137.157062 L104.838316,137.157062 L104.838316,136.254713 C105.740665,135.352364 105.740665,134.450015 105.740665,133.547665 L105.740665,117.305382 C105.740665,114.598335 104.838316,110.988938 107.545363,109.18424 C115.666505,103.770146 118.373552,94.7466547 117.471203,85.7231637 L117.471203,85.7231637 Z M0.165821265,85.7231637 C0.165821265,65.8714837 3.77521769,58.6526909 14.6034067,58.6526909 L28.1386431,58.6526909 L28.1386431,83.0161164 C28.1386431,86.6255129 28.1386431,91.1372583 29.0409922,94.7466546 C30.8456904,100.160749 33.5527376,104.672495 37.1621341,108.281891 C41.6738795,113.695986 38.9668322,118.207731 38.9668322,122.719477 L38.9668322,136.254713 L16.408105,135.352364 L12.7987085,135.352364 L12.7987085,134.450015 C11.8963594,133.547665 11.8963594,132.645316 11.8963594,131.742967 L11.8963594,117.305382 C11.8963594,114.598335 12.7987085,110.988938 10.0916612,109.18424 C1.9705194,103.770146 -0.736527876,94.7466547 0.165821265,85.7231637 L0.165821265,85.7231637 Z" id="形状"></path>
                    </g>
                </g>
            </g>
        </g>
    </g>
</svg>