<?xml version="1.0" encoding="UTF-8"?>
<svg width="120px" height="118px" viewBox="0 0 120 118" version="1.1" xmlns="http://www.w3.org/2000/svg" xmlns:xlink="http://www.w3.org/1999/xlink">
    <title>形状备份 2</title>
    <defs>
        <rect id="path-1" x="0" y="0" width="120" height="118"></rect>
        <linearGradient x1="71.8724022%" y1="7.86810369%" x2="29.1452788%" y2="77.7780937%" id="linearGradient-3">
            <stop stop-color="#FFFFFF" offset="0%"></stop>
            <stop stop-color="#FFFFFF" stop-opacity="0.0152750082" offset="100%"></stop>
        </linearGradient>
        <linearGradient x1="50%" y1="0%" x2="11.0311402%" y2="83.3571927%" id="linearGradient-4">
            <stop stop-color="#FFFFFF" offset="0%"></stop>
            <stop stop-color="#FFFFFF" stop-opacity="0" offset="100%"></stop>
        </linearGradient>
        <linearGradient x1="50%" y1="5.23098008%" x2="11.3534032%" y2="88.9680353%" id="linearGradient-5">
            <stop stop-color="#FFFFFF" offset="0%"></stop>
            <stop stop-color="#00A3FF" stop-opacity="0" offset="100%"></stop>
        </linearGradient>
        <linearGradient x1="50%" y1="0%" x2="29.6163507%" y2="93.5212066%" id="linearGradient-6">
            <stop stop-color="#FFFFFF" offset="0%"></stop>
            <stop stop-color="#00A3FF" stop-opacity="0" offset="100%"></stop>
        </linearGradient>
    </defs>
    <g id="页面-1" stroke="none" stroke-width="1" fill="none" fill-rule="evenodd" opacity="0.146722703">
        <g id="画板" transform="translate(-301.000000, -137.000000)">
            <g id="形状备份-2" transform="translate(301.904861, 137.822315)">
                <mask id="mask-2" fill="white">
                    <use xlink:href="#path-1"></use>
                </mask>
                <g id="蒙版"></g>
                <rect id="矩形" fill="url(#linearGradient-3)" fill-rule="nonzero" opacity="0" mask="url(#mask-2)" x="-4.8" y="-23.8224623" width="151" height="152.164738"></rect>
                <g id="咨询1" mask="url(#mask-2)" fill-rule="nonzero">
                    <g transform="translate(3.936510, -5.998530)">
                        <rect id="矩形" fill="url(#linearGradient-4)" opacity="0" x="0" y="0" width="117.096774" height="118"></rect>
                        <path d="M91.6056984,50.7215625 C91.6056984,30.6050977 72.3793,14.2374375 48.7456489,14.2374375 C25.1113117,14.2374375 5.88491337,30.6052129 5.88491337,50.7216777 C5.88491337,59.5977207 9.66505796,68.150877 16.4343722,74.6930781 C17.2736038,76.0113594 17.3844112,83.1145215 16.6687944,89.8927227 L16.0914296,95.3503379 L20.6480264,92.3460625 C25.8522004,88.9121934 32.5181401,85.2349492 34.3526944,85.105541 C38.9596062,86.499877 43.8009403,87.2082227 48.7455346,87.2082227 C72.3793,87.2083379 91.6056984,70.8404473 91.6056984,50.7215625 Z M28.2086586,55.102597 C25.4867304,55.1152188 23.2689815,52.8979941 23.2588413,50.1553008 C23.243824,47.412377 25.4438483,45.1776367 28.1680636,45.1622565 C30.8849603,45.1496348 33.107855,47.3692793 33.1179717,50.1095527 C33.1304968,52.8574316 30.9303582,55.089752 28.2086586,55.102597 L28.2086586,55.102597 Z M48.8741809,55.102597 C46.1523671,55.1152188 43.9371339,52.8979941 43.9243872,50.1553008 C43.9118621,47.412377 46.1120007,45.1776367 48.8338146,45.1622565 C51.5557428,45.1496348 53.7733773,47.3692793 53.7833827,50.1095527 C53.7962478,52.8574316 51.5983962,55.089752 48.8741809,55.102597 L48.8741809,55.102597 Z M68.4881193,55.102597 C65.7661911,55.1152188 63.5510723,52.8979941 63.5383256,50.1553008 C63.5258005,47.412377 65.7259391,45.1776367 68.447753,45.1622565 C71.1694525,45.1496348 73.3873157,47.3692793 73.3975468,50.1095527 C73.4100718,52.8574316 71.212449,55.089752 68.4881193,55.102597 Z" id="形状" fill="url(#linearGradient-5)"></path>
                        <path d="M110.315682,59.5595781 C110.315682,49.3553438 105.255134,39.5523555 96.4293079,32.662377 C95.3004218,31.7861348 93.6823365,31.9891777 92.80777,33.127002 C92.5633991,33.4445879 92.4249184,33.8000859 92.3467014,34.1682598 C95.2550239,39.4253672 96.9284558,45.271668 96.9284558,51.4581406 C96.9284558,71.1934102 80.3807605,87.6933594 58.4828632,91.4495391 C58.248441,91.779916 58.0645624,92.1480898 58.0016687,92.5772227 C57.7999512,93.9994453 58.7777778,95.3173809 60.1889998,95.5230742 C67.4245284,96.5720527 74.9749833,96.0208867 81.8450419,93.9409063 C83.6798248,94.0704297 90.348166,97.7477891 95.5524543,101.181428 L100.111567,104.188238 L99.5318007,98.7279727 C98.8136681,91.9521914 98.9219597,84.8514492 99.6729114,83.6399902 C106.532907,76.9890078 110.313052,68.4355059 110.315682,59.5594629 L110.315682,59.5595781 Z" id="路径" fill="url(#linearGradient-6)"></path>
                    </g>
                </g>
            </g>
        </g>
    </g>
</svg>