<?xml version="1.0" encoding="UTF-8"?>
<svg width="610px" height="497px" viewBox="0 0 610 497" version="1.1" xmlns="http://www.w3.org/2000/svg" xmlns:xlink="http://www.w3.org/1999/xlink">
    <title>编组 32备份</title>
    <defs>
        <linearGradient x1="50%" y1="-8.84950175%" x2="50%" y2="176.694254%" id="linearGradient-1">
            <stop stop-color="#B3C9FF" offset="0%"></stop>
            <stop stop-color="#FFFFFF" offset="72.1546373%"></stop>
            <stop stop-color="#FFFFFF" stop-opacity="0" offset="100%"></stop>
        </linearGradient>
        <linearGradient x1="76.7880329%" y1="8.72264231%" x2="2.07558454%" y2="36.1050043%" id="linearGradient-2">
            <stop stop-color="#457DF9" stop-opacity="0.588617925" offset="0%"></stop>
            <stop stop-color="#FFFFFF" stop-opacity="0" offset="100%"></stop>
        </linearGradient>
        <linearGradient x1="50%" y1="-8.84950175%" x2="50%" y2="176.694254%" id="linearGradient-3">
            <stop stop-color="#B3C9FF" stop-opacity="0" offset="0%"></stop>
            <stop stop-color="#FFFFFF" offset="72.1546373%"></stop>
            <stop stop-color="#FFFFFF" stop-opacity="0" offset="100%"></stop>
        </linearGradient>
        <linearGradient x1="99.3282896%" y1="97.0554986%" x2="80.4477774%" y2="20.9166351%" id="linearGradient-4">
            <stop stop-color="#BED0FF" offset="0%"></stop>
            <stop stop-color="#FFFFFF" offset="100%"></stop>
        </linearGradient>
        <linearGradient x1="96.6781112%" y1="85.7238246%" x2="58.191484%" y2="22.3850654%" id="linearGradient-5">
            <stop stop-color="#FFFFFF" stop-opacity="0" offset="0%"></stop>
            <stop stop-color="#FFFFFF" stop-opacity="0" offset="100%"></stop>
        </linearGradient>
        <linearGradient x1="50%" y1="27.6671577%" x2="89.1052988%" y2="71.0119062%" id="linearGradient-6">
            <stop stop-color="#D8E7FF" offset="0%"></stop>
            <stop stop-color="#D2E3FF" offset="7.53059775%"></stop>
            <stop stop-color="#E9F2FF" offset="10.6321176%"></stop>
            <stop stop-color="#CCDFFE" offset="13.8784971%"></stop>
            <stop stop-color="#BCD5FE" offset="33.6870099%"></stop>
            <stop stop-color="#FAFCFF" offset="42.0163274%"></stop>
            <stop stop-color="#B7D3FD" offset="47.0994324%"></stop>
            <stop stop-color="#84B3FB" offset="100%"></stop>
        </linearGradient>
        <linearGradient x1="3.49196228%" y1="15.2513977%" x2="87.1346715%" y2="67.785455%" id="linearGradient-7">
            <stop stop-color="#A7E7FF" offset="0%"></stop>
            <stop stop-color="#2B58F9" offset="100%"></stop>
        </linearGradient>
        <linearGradient x1="40.080822%" y1="24.3483841%" x2="95.5899675%" y2="74.0502116%" id="linearGradient-8">
            <stop stop-color="#FFFFFF" stop-opacity="0" offset="0%"></stop>
            <stop stop-color="#FFFFFF" stop-opacity="0" offset="100%"></stop>
        </linearGradient>
        <linearGradient x1="89.3768294%" y1="39.4463719%" x2="67.18917%" y2="60.1574542%" id="linearGradient-9">
            <stop stop-color="#FFFFFF" offset="0%"></stop>
            <stop stop-color="#FFFFFF" stop-opacity="0" offset="100%"></stop>
        </linearGradient>
        <linearGradient x1="73.4651174%" y1="100.696173%" x2="93.2806764%" y2="6.29350427%" id="linearGradient-10">
            <stop stop-color="#CED8FC" offset="0%"></stop>
            <stop stop-color="#FFFFFF" offset="40.8113925%"></stop>
            <stop stop-color="#EEF3FF" offset="100%"></stop>
        </linearGradient>
        <linearGradient x1="84.444404%" y1="79.5590951%" x2="29.443106%" y2="28.8294056%" id="linearGradient-11">
            <stop stop-color="#005BFF" offset="0%"></stop>
            <stop stop-color="#C7DCFF" offset="100%"></stop>
        </linearGradient>
        <linearGradient x1="10.6161506%" y1="24.7014709%" x2="33.2245765%" y2="35.5702859%" id="linearGradient-12">
            <stop stop-color="#54D7E1" stop-opacity="0" offset="0%"></stop>
            <stop stop-color="#FFFFFF" stop-opacity="0.570825964" offset="100%"></stop>
        </linearGradient>
        <linearGradient x1="32.177515%" y1="10.8528732%" x2="74.0736902%" y2="78.870042%" id="linearGradient-13">
            <stop stop-color="#D6E1FF" offset="0%"></stop>
            <stop stop-color="#8EABFF" offset="10.4242207%"></stop>
            <stop stop-color="#ACBEFF" offset="100%"></stop>
        </linearGradient>
        <linearGradient x1="32.177515%" y1="10.8528732%" x2="74.0736902%" y2="78.870042%" id="linearGradient-14">
            <stop stop-color="#D6E1FF" stop-opacity="0" offset="0%"></stop>
            <stop stop-color="#ACBEFF" stop-opacity="0" offset="100%"></stop>
        </linearGradient>
        <linearGradient x1="50%" y1="0%" x2="50%" y2="100%" id="linearGradient-15">
            <stop stop-color="#CDF6FA" offset="0%"></stop>
            <stop stop-color="#9FEAF4" offset="100%"></stop>
        </linearGradient>
        <linearGradient x1="50%" y1="0%" x2="50%" y2="100%" id="linearGradient-16">
            <stop stop-color="#CDF6FA" stop-opacity="0" offset="0%"></stop>
            <stop stop-color="#9FEAF4" stop-opacity="0" offset="100%"></stop>
        </linearGradient>
        <linearGradient x1="50%" y1="0%" x2="50%" y2="100%" id="linearGradient-17">
            <stop stop-color="#CDF6FA" offset="0%"></stop>
            <stop stop-color="#9FEAF4" offset="100%"></stop>
        </linearGradient>
        <linearGradient x1="50%" y1="0%" x2="50%" y2="100%" id="linearGradient-18">
            <stop stop-color="#CDF6FA" stop-opacity="0" offset="0%"></stop>
            <stop stop-color="#9FEAF4" stop-opacity="0" offset="100%"></stop>
        </linearGradient>
        <linearGradient x1="100%" y1="52.0841044%" x2="50%" y2="57.6092705%" id="linearGradient-19">
            <stop stop-color="#FFFFFF" offset="0%"></stop>
            <stop stop-color="#FFFFFF" offset="100%"></stop>
        </linearGradient>
        <linearGradient x1="100%" y1="50.6642765%" x2="50%" y2="52.425339%" id="linearGradient-20">
            <stop stop-color="#FFFFFF" offset="0%"></stop>
            <stop stop-color="#FFFFFF" offset="100%"></stop>
        </linearGradient>
    </defs>
    <g id="页面-1" stroke="none" stroke-width="1" fill="none" fill-rule="evenodd">
        <g id="编组-32备份" transform="translate(0.000000, 0.674163)">
            <rect id="矩形" x="0" y="0" width="610" height="496"></rect>
            <g id="编组-14备份" transform="translate(102.824664, 68.823762)">
                <path d="M398.988132,106.440637 L369.372149,343.528751 L369.372149,343.528751 L363.89496,347.315142 L86.3724757,275.89978 L126.191751,77.2708037 C127.204638,72.2182585 131.891144,68.7626814 137.017306,69.2886232 L390.085887,95.2533368 C395.579893,95.8170192 399.576711,100.727746 399.013028,106.221753 C399.005533,106.294803 398.997234,106.367769 398.988132,106.440637 Z" id="路径-25" fill="#458EF9"></path>
                <path d="M355.16975,226.676969 C355.16975,226.676969 328.599264,62.8945064 400.255265,6.96134817 C400.255265,6.96134817 347.532756,4.75878693 229.706716,0 C181.883198,62.7907096 165.663362,149.604168 188.623476,196.705264 C188.623476,196.705264 355.16975,226.676969 355.16975,226.676969 Z" id="路径-27" stroke="url(#linearGradient-2)" fill="url(#linearGradient-1)" opacity="0.59455145"></path>
                <path d="M355.16975,226.676969 C355.16975,226.676969 328.599264,62.8945064 400.255265,6.96134817 C400.255265,6.96134817 347.532756,4.75878693 229.706716,0 C181.883198,62.7907096 165.663362,149.604168 188.623476,196.705264 C188.623476,196.705264 355.16975,226.676969 355.16975,226.676969 Z" id="路径-27备份" fill="url(#linearGradient-3)"></path>
                <path d="M78.6605784,107.570358 L78.6605784,278.514342 C78.6605784,281.290712 80.5653686,283.704475 83.2656655,284.349941 L356.895727,349.757121 C360.118639,350.52751 363.35585,348.539347 364.126239,345.316435 C364.225927,344.899392 364.280622,344.472864 364.289386,344.044161 L368.396354,143.156546 C368.459037,140.090494 366.199557,137.470653 363.157563,137.082229 L85.4205333,101.61868 C82.1335124,101.198968 79.1286121,103.523382 78.7089006,106.810403 C78.6767183,107.062442 78.6605784,107.316272 78.6605784,107.570358 Z" id="路径-24" fill="url(#linearGradient-4)"></path>
                <path d="M80.3869401,106.658819 L80.3869401,276.888746 C80.3869401,279.656331 82.2799436,282.064855 84.9691518,282.71883 L356.807233,348.825743 C360.0271,349.608766 363.272083,347.633314 364.055105,344.413448 C364.154172,344.006077 364.210269,343.589444 364.222477,343.170379 L370.074533,142.2911 C370.164415,139.205782 367.8988,136.555652 364.837032,136.164703 L87.146895,100.707141 C83.8598741,100.28743 80.8549738,102.611843 80.4352623,105.898864 C80.40308,106.150904 80.3869401,106.404733 80.3869401,106.658819 Z" id="路径-24备份" stroke="#FFFFFF" fill="url(#linearGradient-5)" opacity="0.375704811"></path>
                <path d="M10.3036974,104.563573 L20.9012281,102.34567 L101.598307,112.349259 C102.560097,112.468487 103.445891,112.932849 104.091064,113.656041 L130.061345,142.766901 L130.061345,142.766901 L315.341475,170.090648 C319.508416,170.705157 322.843588,173.864791 323.682281,177.992455 L357.396363,343.917859 C357.836245,346.082761 359.94784,347.481165 362.112741,347.041283 C362.430264,346.976766 362.738771,346.873908 363.031481,346.734971 L364.416493,346.077565 C367.194285,344.759064 369.106716,342.113673 369.487847,339.062557 L383.936608,223.394152 L383.936608,223.394152 L398.719013,105.054789 C398.160412,101.70933 396.349099,98.7020244 393.653112,96.6439234 L391.501587,95.0014622 L391.501587,95.0014622 L396.083387,96.2902174 C400.838464,97.6277114 403.904596,102.236742 403.300668,107.139284 L374.181889,343.518521 C373.766576,346.889927 371.6682,349.819968 368.610052,351.298682 L360.959281,354.99808 C357.97602,356.440584 354.388228,355.191554 352.945724,352.208293 C352.729855,351.761852 352.570165,351.290371 352.470306,350.804637 L317.816383,182.240396 C316.973707,178.141437 313.667908,175.000645 309.531207,174.368769 L126.329092,146.384875 L126.329092,146.384875 L98.253285,116.800403 C97.6198417,116.132921 96.7756289,115.704256 95.8629647,115.586672 L10.3036974,104.563573 L10.3036974,104.563573 Z" id="路径-26" fill="url(#linearGradient-6)"></path>
                <path d="M13.082659,104.547704 L97.8439176,114.821549 L97.8439176,114.821549 L126.329092,146.384875 L309.538944,174.369951 C313.671828,175.001244 316.975774,178.136962 317.821991,182.231248 L352.72578,351.10772 C353.060742,352.728383 354.175912,354.078313 355.704215,354.713164 L358.41409,355.838833 L358.41409,355.838833 L76.7607261,288.187236 C71.0562998,286.817064 66.4614616,282.602475 64.6048499,277.03733 L8.80693159,109.784511 C8.10781076,107.688914 9.23987807,105.423348 11.3354747,104.724227 C11.8976039,104.536693 12.4943785,104.476399 13.082659,104.547704 Z" id="路径-23" fill="url(#linearGradient-7)"></path>
                <path d="M13.082659,104.755877 L97.8439176,115.029721 L97.8439176,115.029721 L126.329092,146.593048 L309.540643,174.578383 C313.672688,175.209547 316.976227,178.344152 317.82322,182.437411 L352.72533,351.10857 C353.060584,352.728754 354.175606,354.078186 355.703531,354.712879 L358.41409,355.838833 L358.41409,355.838833 L76.7695338,288.390953 C71.0602013,287.023689 66.4603751,282.807391 64.6024683,277.238363 L8.80693159,109.992683 C8.10781076,107.897087 9.23987807,105.631521 11.3354747,104.9324 C11.8976039,104.744865 12.4943785,104.684572 13.082659,104.755877 Z" id="路径-23备份" stroke="url(#linearGradient-9)" fill="url(#linearGradient-8)"></path>
                <g id="编组-22" transform="translate(0.000000, 210.881311)">
                    <path d="M30.9050285,2.92456171 L118.886321,25.1236702 C124.412969,26.5647228 128.178707,33.4866189 126.596332,39.316812 L107.48763,124.885755 C105.40788,133.426935 95.3648289,135.5145 90.1582477,133.779972 L7.02281335,109.001914 C1.67931872,107.142166 -0.886720857,99.9843733 0.27539728,94.3434513 L18.1640311,11.9023247 C19.43003,6.35515652 24.0038212,1.46234914 30.9050285,2.92456171 Z" id="矩形备份-140" fill="#B3C3FD" opacity="0.397798084"></path>
                    <path d="M30.3843408,1.49207134 L119.648016,24.0447449 C125.212304,25.4956122 129.00369,32.4646517 127.410538,38.334553 L108.17169,124.486286 C106.077776,133.085638 96.8068729,134.113008 91.564831,132.366667 L7.86318026,107.419851 C2.48329232,105.547436 -0.94077296,99.4153071 0.229260096,93.7359661 L18.2397293,10.7333518 C19.5143507,5.1484032 23.436131,0.0198999748 30.3843408,1.49207134 Z" id="矩形备份-141" fill-opacity="0" fill="#F4FCFF"></path>
                    <path d="M30.2021712,0.295151455 L118.815636,23.1247555 C124.38201,24.6066723 128.17688,31.7169173 126.5853,37.7040971 L107.370693,125.578546 C105.279148,134.349793 96.0059578,135.394578 90.7618197,133.611367 L7.02771192,108.134816 C6.6768601,108.010184 6.33431589,107.867088 6.00081083,107.706863 L90.342551,132.327625 C95.711302,134.110026 101.25938,130.573758 102.746365,124.443479 L122.966869,37.4429106 C124.548031,31.438308 121.257141,25.3791521 115.606541,23.8952923 L28.8311049,1.42810967 C21.8129537,-0.0791656658 17.976271,2.94774526 16.6666262,8.66217846 L12.1798108,29.041 L16.1287074,8.93979461 C17.4017652,3.24317715 23.2514736,-1.20897598 30.2021712,0.295151455 Z" id="形状结合" fill="url(#linearGradient-10)"></path>
                    <path d="M65.5642365,50.3743993 L58.6256545,59.0807899 C57.9970489,59.870401 57.0392944,60.2826234 56.0646336,60.1827288 L45.2578132,59.1223554 L51.0539449,68.7360148 C51.5776549,69.6037033 51.6617716,70.6874544 51.2727794,71.6313123 L46.9926717,82.0468572 L57.5130451,79.2793676 C58.4648302,79.0326838 59.4741261,79.2883567 60.2145738,79.9637137 L68.3812853,87.4649797 L69.0835294,76.1430973 C69.1461624,75.1165667 69.6891418,74.1983525 70.532753,73.6703491 L79.8579299,67.8871905 L69.7777628,63.6565124 C68.8621966,63.2708962 68.1881552,62.4453105 67.9691969,61.4476781 L65.5642365,50.3743993 Z M63.6730795,77.1780633 L55.6410175,75.1433967 C54.6558962,74.8938477 54.0492015,73.858133 54.2851467,72.8287313 C54.5210919,71.7993296 55.509931,71.1677925 56.4950522,71.4173415 L64.5271142,73.4520081 C65.5122355,73.7015571 66.1189302,74.7372718 65.882985,75.7666735 C65.6470398,76.7960752 64.6582007,77.4276123 63.6730795,77.1780633 Z M89.9830885,46.6502897 L47.2127016,35.5532067 C45.2364154,35.0525777 43.2587373,36.3156519 42.7853994,38.3807707 L31.5143706,83.1775383 C31.0424802,85.2363417 32.2544221,87.3140864 34.2307083,87.8147154 L76.5324841,99.648599 C78.5027266,100.147697 80.4864484,98.8861537 80.9597863,96.821035 L92.7054699,51.2889979 C93.1727641,49.2223481 91.953331,47.1493878 89.9830885,46.6502897 Z M82.9298803,70.4427911 L72.7175925,76.7763439 L71.9411353,89.1752797 C71.8664892,90.3658179 71.164747,91.3908193 70.1079056,91.8447615 C69.5119372,92.1013958 68.8687391,92.145605 68.2704139,91.9940384 C67.8110936,91.8776842 67.3717849,91.6461229 66.9976886,91.2974404 L58.0540137,83.0848392 L46.5337593,86.1135571 C45.4241517,86.407128 44.277985,86.0232348 43.5352548,85.1067466 C42.791077,84.1965736 42.6104407,82.9480498 43.0597955,81.8524321 L47.7404755,70.4425065 L41.4097403,59.9249889 C40.7972555,58.9145356 40.7928265,57.65051 41.3906321,56.6325897 C41.9884378,55.6146694 43.0638432,55.0518353 44.2028775,55.1599585 L56.0416468,56.3213746 L63.6370981,46.7857584 C64.3654771,45.867735 65.5103324,45.4761805 66.6223711,45.75788 C67.7344098,46.0395795 68.5839717,46.936356 68.8346702,48.1023974 L71.4651399,60.2284243 L82.5077752,64.8632817 C83.5700911,65.3061183 84.2821699,66.3284365 84.3733447,67.520888 C84.4691158,68.7211858 83.9129293,69.8365153 82.9298803,70.4427911 Z" id="形状" fill="#FFFFFF" fill-rule="nonzero"></path>
                </g>
                <g id="编组-6" transform="translate(116.162555, 58.501462) rotate(-8.000000) translate(-116.162555, -58.501462) translate(78.660578, 22.001462)">
                    <path d="M15.6666743,13.191853 C31.7842444,-1.34225102 53.5677266,-3.42804037 64.3214581,8.5331192 C75.0751805,20.494287 70.7269346,41.9729544 54.6093846,56.5070808 C38.4918145,71.0411848 17.4179484,72.4333406 6.66421662,60.4721813 C-4.0895055,48.5110133 -0.450875694,27.7259795 15.6666743,13.191853 Z M24.7151274,23.2562738 C16.0874976,31.0363062 13.7599071,42.5337105 19.5163115,48.9364533 C25.2727207,55.3391917 36.9332906,54.2226808 45.5609311,46.4426604 C54.1885609,38.6626279 56.5161514,27.1652236 50.759747,20.7624808 C45.0033378,14.3597425 33.3427679,15.4762533 24.7151274,23.2562738 Z" id="形状结合备份" fill="#F5FAFF"></path>
                    <path d="M16.3762802,12.4982083 C32.493853,-2.0358981 54.2773417,-4.12168437 65.0310788,7.83948138 C75.7848068,19.8006554 71.4365633,41.2793296 55.3190107,55.8134585 C39.2014379,70.3475649 17.4179491,72.4333511 6.66421204,60.4721854 C-4.08951591,48.5110114 0.258727588,27.0323371 16.3762802,12.4982083 Z M25.4247383,22.5626342 C16.7971071,30.3426677 12.8746427,43.9485473 18.6310505,50.3512929 C24.3874622,56.754035 37.6429108,53.5290544 46.2705531,45.7490332 C54.8981838,37.968999 58.2686819,25.7807612 52.5122743,19.3780154 C46.7558624,12.9752735 34.05238,14.7826124 25.4247383,22.5626342 Z" id="形状结合备份-5" fill="url(#linearGradient-11)"></path>
                    <path d="M60.5620666,5.2095776 L50.1675935,16.1006473 C42.9956323,11.6876692 31.7393244,13.6926131 23.111604,21.4727056 C13.2427266,30.3720427 10.5179547,43.4867975 16.9427619,50.9107246 L7.23325208,61.0860824 C7.21252288,61.0632087 7.19182979,61.0402837 7.1711729,61.0173075 C-3.58254904,49.0561397 -0.450875691,27.7259795 15.6666743,13.191853 C30.080863,0.193782196 49.0266466,-2.84812967 60.5620666,5.2095776 Z" id="形状结合" fill="#7CE4FA"></path>
                    <path d="M39.0678767,0.966468331 C47.0996381,-0.426765377 54.7984611,0.728463929 60.5410686,4.65236233 L50.1839737,15.5049572 C46.5536262,13.0506526 41.8008976,12.2882339 36.824584,13.1565505 C31.8415153,14.0260458 26.6352238,16.5306591 22.1354733,20.5883329 C17.0732349,25.1532459 13.9226321,30.4028045 12.8785738,35.442255 C11.8269661,40.5181447 12.9031311,45.385471 16.3021701,49.16616 C16.586163,49.4820396 16.8819465,49.7853432 17.1887867,50.0759007 L7.29127511,60.4459278 C7.02650529,60.1789774 6.76722671,59.9044727 6.51363861,59.6224118 C1.16941554,53.6781303 -0.619214181,45.5188909 0.94473635,37.0597386 C2.49107535,28.6958443 7.31163174,20.0386955 15.226288,12.9015927 C22.4058169,6.42741435 30.9098307,2.38160807 39.0678767,0.966468331 Z" id="形状结合备份-6" stroke="url(#linearGradient-12)" stroke-width="0.8" fill-opacity="0" fill="#FFFFFF"></path>
                    <path d="M67.8403834,10.7440414 C79.4848021,23.4790621 76.9233146,46.6400325 60.2280311,61.4180072 C43.5327476,76.1959819 22.0223747,76.6247433 10.3773944,63.8902283 L10.0342263,63.5087896 C21.3711877,71.8030689 39.9025596,68.9581332 54.7615274,55.6601148 C70.3085353,41.7456866 75.3116021,21.758 66.7599427,9.63027933 C67.1276569,9.98840185 67.4884924,10.3592604 67.8403834,10.7440414 Z M22.429995,20.3216107 C32.1055932,11.6640593 45.1823206,10.4215287 51.6378348,17.5464142 C53.7078343,19.8311123 54.8456618,22.6987517 55.117284,25.8260186 C54.8797483,25.5094003 54.6255327,25.202702 54.3544409,24.9064519 C48.2381926,18.223794 35.8493162,19.3891618 26.6828097,27.5096451 C18.8991293,34.4051016 15.9417911,44.098251 18.9710929,50.9578013 C18.1094047,50.3730245 17.3140055,49.6870816 16.5996781,48.8986858 C10.1442582,41.7737153 12.7546056,28.9793939 22.429995,20.3216107 Z" id="形状结合" fill="url(#linearGradient-13)"></path>
                    <path d="M67.8403834,10.7440414 C79.4848021,23.4790621 76.9233146,46.6400325 60.2280311,61.4180072 C43.5327476,76.1959819 22.0223747,76.6247433 10.3773944,63.8902283 L10.0342263,63.5087896 C21.3711877,71.8030689 39.9025596,68.9581332 54.7615274,55.6601148 C70.3085353,41.7456866 75.3116021,21.758 66.7599427,9.63027933 C67.1276569,9.98840185 67.4884924,10.3592604 67.8403834,10.7440414 Z M22.429995,20.3216107 C32.1055932,11.6640593 45.1823206,10.4215287 51.6378348,17.5464142 C53.7078343,19.8311123 54.8456618,22.6987517 55.117284,25.8260186 C54.8797483,25.5094003 54.6255327,25.202702 54.3544409,24.9064519 C48.2381926,18.223794 35.8493162,19.3891618 26.6828097,27.5096451 C18.8991293,34.4051016 15.9417911,44.098251 18.9710929,50.9578013 C18.1094047,50.3730245 17.3140055,49.6870816 16.5996781,48.8986858 C10.1442582,41.7737153 12.7546056,28.9793939 22.429995,20.3216107 Z" id="形状结合备份-7" fill="url(#linearGradient-14)"></path>
                </g>
                <g id="编组-16" transform="translate(36.752901, 145.129250)">
                    <polygon id="路径-28" fill="url(#linearGradient-15)" points="3.3252739e-13 1.29280126 51.950694 8.51037254 55.345581 18.9629593 3.29126929 10.9072603"></polygon>
                    <polygon id="路径-28备份-2" fill="url(#linearGradient-16)" points="5.12813324e-13 1.29280126 51.950694 8.51037254 55.345581 18.9629593 3.29126929 10.9072603"></polygon>
                    <polygon id="路径-28备份" fill="url(#linearGradient-17)" points="56.3125124 9.25716188 73.2102089 11.5278452 76.3369559 22.3560104 59.5312856 19.3616206"></polygon>
                    <polygon id="路径-28备份-3" fill="url(#linearGradient-18)" points="56.3125124 9.25716188 73.2102089 11.5278452 76.3369559 22.3560104 59.5312856 19.3616206"></polygon>
                    <polygon id="路径-30" fill="#5EBFCC" points="0 1.29280126 1.64772971 0 53.7105888 7.0580602 56.7668538 17.1853472 55.4581778 19.5782464 51.8354482 8.58919825"></polygon>
                    <polygon id="路径-31" fill="#5EBFCC" points="56.3125124 9.25716188 57.557543 7.80363147 74.7827246 10.1327145 77.3099153 19.5782464 76.3369559 22.3560104 73.2102089 11.5278452"></polygon>
                </g>
                <path d="M251.378078,53.8772007 L291.413689,57.2652841 C296.296055,57.6784628 300.048558,61.7619416 300.048558,66.6617589 C300.048558,70.9722878 296.554184,74.4666618 292.243655,74.4666618 C291.971894,74.4666618 291.700318,74.452468 291.430038,74.4241384 L251.36281,70.2244726 C246.787871,69.744948 243.313871,65.8877878 243.313871,61.287786 C243.313871,57.1804034 246.643562,53.8507119 250.750945,53.8507119 C250.960269,53.8507119 251.1695,53.8595494 251.378078,53.8772007 Z" id="路径-29" fill="url(#linearGradient-19)"></path>
                <path d="M251.378078,53.8772007 L291.413689,57.2652841 C296.296055,57.6784628 300.048558,61.7619416 300.048558,66.6617589 C300.048558,70.9722878 296.554184,74.4666618 292.243655,74.4666618 C291.971894,74.4666618 291.700318,74.452468 291.430038,74.4241384 L251.36281,70.2244726 C246.787871,69.744948 243.313871,65.8877878 243.313871,61.287786 C243.313871,57.1804034 246.643562,53.8507119 250.750945,53.8507119 C250.960269,53.8507119 251.1695,53.8595494 251.378078,53.8772007 Z" id="路径-29备份-2" fill="#FFFFFF" opacity="0.246103196"></path>
                <path d="M251.368975,86.0321258 L375.49717,98.0920611 C380.38997,98.5674313 384.122292,102.679949 384.122292,107.595787 C384.122292,111.904275 380.629572,115.396995 376.321083,115.396995 C376.048225,115.396995 375.775555,115.38268 375.504197,115.354108 L251.362412,102.283025 C246.787142,101.801287 243.313871,97.9431094 243.313871,93.3425482 C243.313871,89.2861025 246.60227,85.9977034 250.658715,85.9977034 C250.895885,85.9977034 251.132916,86.009191 251.368975,86.0321258 Z" id="路径-29备份" fill="url(#linearGradient-20)"></path>
                <path d="M251.368975,86.0321258 L375.49717,98.0920611 C380.38997,98.5674313 384.122292,102.679949 384.122292,107.595787 C384.122292,111.904275 380.629572,115.396995 376.321083,115.396995 C376.048225,115.396995 375.775555,115.38268 375.504197,115.354108 L251.362412,102.283025 C246.787142,101.801287 243.313871,97.9431094 243.313871,93.3425482 C243.313871,89.2861025 246.60227,85.9977034 250.658715,85.9977034 C250.895885,85.9977034 251.132916,86.009191 251.368975,86.0321258 Z" id="路径-29备份-3" fill="#FFFFFF" opacity="0.246103196"></path>
                <path d="M249.798707,53.8598396 L249.982328,53.8305203 C254.728738,53.0726458 259.549021,52.8878542 264.339523,53.2801192 L293.944229,55.704268 C298.765977,56.0990916 302.478051,60.1275485 302.478051,64.9654353 C302.478051,69.8294037 298.798934,73.9051516 293.960347,74.401399 L292.707014,74.5299413 L292.707014,74.5299413 L293.95634,74.2231601 C297.5335,73.3447624 300.048558,70.1373962 300.048558,66.4539667 L300.048558,65.7964711 L300.048558,65.7964711 L299.950802,65.2047494 C299.291264,61.2125341 296.196747,58.0639469 292.216554,57.3353598 L292.216554,57.3353598 L292.216554,57.3353598 L251.015213,53.8598396 L249.798707,53.8598396 Z" id="路径-32" fill="#92AAFC"></path>
                <path d="M248.879115,86.1716145 C252.212946,85.0531539 255.743583,84.6431211 259.245009,84.9677648 L378.577624,96.0319918 C383.412016,96.4802247 387.109591,100.536489 387.109591,105.391615 C387.109591,110.309763 383.496526,114.48102 378.628697,115.182746 L376.864882,115.437011 L376.864882,115.437011 L378.732384,115.038493 L379.862713,114.545294 C382.144743,113.549572 383.726119,111.416634 384.01575,108.943733 L384.122292,108.03407 L384.122292,108.03407 L384.066184,106.936938 C383.836279,102.441382 380.439435,98.7458986 375.979119,98.1388858 L375.979119,98.1388858 L375.979119,98.1388858 L250.861365,85.9828079 L248.879115,86.1716145 Z" id="路径-33" fill="#92AAFC"></path>
            </g>
        </g>
    </g>
</svg>