<?xml version="1.0" encoding="UTF-8"?>
<svg width="25px" height="25px" viewBox="0 0 25 25" version="1.1" xmlns="http://www.w3.org/2000/svg" xmlns:xlink="http://www.w3.org/1999/xlink">
    <title>保险-浅</title>
    <g id="2023Q2-品牌官网2.0" stroke="none" stroke-width="1" fill="none" fill-rule="evenodd">
        <g id="画板" transform="translate(-46.000000, -251.000000)">
            <g id="编组-19" transform="translate(22.248608, 53.000000)">
                <g id="保险-浅" transform="translate(24.000000, 198.573913)">
                    <rect id="矩形备份-6" x="0" y="0" width="24" height="24.0695652"></rect>
                    <ellipse id="椭圆形" fill="#73E1DB" cx="11.9914894" cy="10.5018704" rx="6.5106383" ry="6.49027622"></ellipse>
                    <path d="M16.8,7.82940374 C19.009139,7.82940374 20.8,9.62026474 20.8,11.8294037 L20.8,16.4591304 C20.8,18.6682694 19.009139,20.4591304 16.8,20.4591304 L6.8,20.4591304 C4.590861,20.4591304 2.8,18.6682694 2.8,16.4591304 L2.8,11.8294037 C2.8,9.62026474 4.590861,7.82940374 6.8,7.82940374 L16.8,7.82940374 Z M12.4237624,11.2654323 L11.5137139,11.2654323 L11.5137139,11.7187972 C10.5126606,11.7187972 9.69361702,12.534854 9.69361702,13.5322567 C9.69361702,14.5296595 10.5126606,15.3457163 11.5137139,15.3457163 L11.5137139,17.1591758 C11.0131873,17.1591758 10.6036655,16.7511474 10.6036655,16.252446 L9.69361702,16.252446 C9.69361702,17.2498488 10.5126606,18.0659056 11.5137139,18.0659056 L11.5137139,18.5192705 L12.4237624,18.5192705 L12.4237624,18.0659056 C13.4248157,18.0659056 14.2438593,17.2498488 14.2893617,16.252446 C14.2893617,15.7084082 14.0163472,15.2097068 13.6523278,14.8923514 C13.3338108,14.6203325 12.924289,14.4389865 12.6057721,14.4389865 L12.4237624,14.4389865 L12.4237624,12.625527 C12.924289,12.625527 13.3338108,13.0335554 13.3338108,13.5322567 L14.2438593,13.5322567 C14.2438593,12.534854 13.4248157,11.7187972 12.4237624,11.7187972 L12.4237624,11.2654323 Z M12.4237624,15.3457163 C12.924289,15.3457163 13.3338108,15.7537447 13.3338108,16.252446 C13.3338108,16.7511474 12.924289,17.1591758 12.4237624,17.1591758 Z M11.5137139,12.625527 L11.5137139,14.4389865 C11.0131873,14.4389865 10.6036655,14.0309581 10.6036655,13.5322567 C10.6036655,13.0335554 11.0131873,12.625527 11.5137139,12.625527 Z" id="形状结合" fill="#FFFFFF"></path>
                    <path d="M12.4237624,15.3457163 C12.924289,15.3457163 13.3338108,15.7537447 13.3338108,16.252446 C13.3338108,16.5085359 13.2258215,16.7407157 13.0529738,16.9060118 C12.8459692,16.9401388 12.6361378,16.9641988 12.4235205,16.9780843 L12.4237624,15.3457163 Z M16.8,7.82940374 C17.2205242,7.82940374 17.6258918,7.89429673 18.0066352,8.01461505 C18.3261657,8.78146051 18.5021277,9.62118067 18.5021277,10.5018704 C18.5021277,13.2980376 16.7283496,15.6812125 14.2412991,16.5942062 C14.2681193,16.4833974 14.284037,16.3691634 14.2893617,16.252446 C14.2893617,15.7084082 14.0163472,15.2097068 13.6523278,14.8923514 C13.3338108,14.6203325 12.924289,14.4389865 12.6057721,14.4389865 L12.4237624,14.4389865 L12.4237624,12.625527 C12.924289,12.625527 13.3338108,13.0335554 13.3338108,13.5322567 L14.2438593,13.5322567 C14.2438593,12.534854 13.4248157,11.7187972 12.4237624,11.7187972 L12.4237624,11.2654323 L11.5137139,11.2654323 L11.5137139,11.7187972 C10.5126606,11.7187972 9.69361702,12.534854 9.69361702,13.5322567 C9.69361702,14.5296595 10.5126606,15.3457163 11.5137139,15.3457163 L11.5134521,16.974918 C11.2975029,16.9592956 11.0844748,16.9331734 10.8748792,16.8970611 C10.7076332,16.7319787 10.6036655,16.5037222 10.6036655,16.252446 L9.69361702,16.252446 C9.69361702,16.3670412 9.70442884,16.4792426 9.72508632,16.5880874 C7.24705124,15.6710184 5.48085106,13.2920584 5.48085106,10.5018704 C5.48085106,9.57836133 5.67433965,8.69990257 6.02310946,7.90458203 C6.27468498,7.85530623 6.53431756,7.82940374 6.8,7.82940374 L16.8,7.82940374 Z M11.5137139,12.625527 L11.5137139,14.4389865 C11.0131873,14.4389865 10.6036655,14.0309581 10.6036655,13.5322567 C10.6036655,13.0335554 11.0131873,12.625527 11.5137139,12.625527 Z" id="形状结合" fill="#071EF3"></path>
                    <path d="M12.4237624,18.0659056 L12.4237624,18.5192705 L11.5137139,18.5192705 L11.5137139,18.0659056 C10.5126606,18.0659056 9.69361702,17.2498488 9.69361702,16.252446 L10.6036655,16.252446 C10.6036655,16.7511474 11.0131873,17.1591758 11.5137139,17.1591758 L11.5137139,15.3457163 C10.5126606,15.3457163 9.69361702,14.5296595 9.69361702,13.5322567 C9.69361702,12.534854 10.5126606,11.7187972 11.5137139,11.7187972 L11.5137139,11.2654323 L12.4237624,11.2654323 L12.4237624,11.7187972 C13.4248157,11.7187972 14.2438593,12.534854 14.2438593,13.5322567 L13.3338108,13.5322567 C13.3338108,13.0335554 12.924289,12.625527 12.4237624,12.625527 L12.4237624,14.4389865 L12.6057721,14.4389865 C12.924289,14.4389865 13.3338108,14.6203325 13.6523278,14.8923514 C14.0163472,15.2097068 14.2893617,15.7084082 14.2893617,16.252446 C14.2438593,17.2498488 13.4248157,18.0659056 12.4237624,18.0659056 Z M12.4237624,17.1591758 C12.924289,17.1591758 13.3338108,16.7511474 13.3338108,16.252446 C13.3338108,15.7537447 12.924289,15.3457163 12.4237624,15.3457163 L12.4237624,17.1591758 L12.4237624,17.1591758 Z M11.5137139,12.625527 C11.0131873,12.625527 10.6036655,13.0335554 10.6036655,13.5322567 C10.6036655,14.0309581 11.0131873,14.4389865 11.5137139,14.4389865 L11.5137139,12.625527 Z" id="形状" fill="#FFFFFF" fill-rule="nonzero"></path>
                </g>
            </g>
        </g>
    </g>
</svg>