<svg xmlns="http://www.w3.org/2000/svg" xmlns:xlink="http://www.w3.org/1999/xlink" width="36.00390625" height="36.0003662109375" viewBox="0 0 36.00390625 36.0003662109375" fill="none"><g opacity="1"  transform="translate(0 0)  rotate(0)"><g opacity="1"  transform="translate(0 0)  rotate(0)"><g opacity="1"  transform="translate(0 0.5404052734375)  rotate(0)"><g opacity="1"  transform="translate(0 0)  rotate(0)"><path id="矩形" fill-rule="evenodd" style="fill:#000000" opacity="0" d="M0 35.46L35.79 35.46L35.79 0L0 0L0 35.46Z"></path><path id="路径" fill-rule="evenodd" style="fill:#A8AEB9" opacity="1" d="M35.41 24.0562C35.16 23.4762 34.82 22.9762 34.39 22.5562C33.96 22.1262 33.46 21.7862 32.89 21.5362C32.32 21.2962 31.7 21.1662 31.03 21.1662L30.71 21.2062C30.97 20.5462 31.17 19.8562 31.31 19.1362C31.46 18.4062 31.53 17.6662 31.53 16.9162C31.53 15.2362 31.21 13.6562 30.56 12.1762C29.92 10.7062 29.04 9.40619 27.93 8.29619C26.82 7.18619 25.52 6.31619 24.01 5.67619C22.51 5.03619 20.91 4.71619 19.22 4.71619C17.62 4.71619 16.12 4.99619 14.71 5.56619C13.3 6.13619 12.05 6.91619 10.97 7.90619C9.88 8.89619 8.99 10.0662 8.3 11.4062C7.61 12.7362 7.18 14.1762 7.01 15.7062C6.04 15.7762 5.12 16.0262 4.28 16.4562C3.43 16.8762 2.69 17.4262 2.06 18.0862C1.42 18.7462 0.92 19.5162 0.55 20.3862C0.19 21.2662 0 22.1962 0 23.1962C0 24.1862 0.19 25.1262 0.55 26.0062C0.92 26.8962 1.43 27.6762 2.08 28.3462C2.72 29.0262 3.48 29.5662 4.35 29.9662C5.22 30.3662 6.16 30.5862 7.16 30.6762L7.68 30.6862L7.77 30.6762L31.78 30.6062C32.35 30.5062 32.88 30.3262 33.37 30.0562C33.86 29.7762 34.28 29.4362 34.64 29.0062C35 28.5762 35.28 28.1062 35.48 27.5862C35.69 27.0662 35.79 26.5162 35.79 25.9162C35.79 25.2562 35.66 24.6362 35.41 24.0562Z"></path><path id="路径" fill-rule="evenodd" style="fill:#FFFFFF" opacity="1" d="M24.2659 19.8618C24.1458 19.7818 23.8458 19.7518 23.3658 19.7518C23.0858 19.7518 22.6858 19.7418 22.1658 19.7318C21.6558 19.7218 21.2659 19.7118 21.0058 19.7118C20.6259 19.7118 20.3858 19.5618 20.2758 19.2518C20.1658 18.9518 20.1158 18.5218 20.1158 17.9818C20.1158 17.2218 20.1059 16.6118 20.0958 16.1518C20.0858 15.6918 20.0758 15.1918 20.0758 14.6418C20.0758 14.0318 20.0359 13.5818 19.9558 13.3018C19.8658 13.0118 19.5258 12.8718 18.9359 12.8718C18.5058 12.8718 18.1758 12.8818 17.9658 12.8918C17.7558 12.9018 17.4558 12.9118 17.0658 12.9118C16.4258 12.9118 16.0259 13.0918 15.8758 13.4518C15.7158 13.8218 15.6358 14.1818 15.6358 14.5418L15.6358 15.6718C15.6358 15.9818 15.6458 16.2718 15.6558 16.5618C15.6658 16.8418 15.6758 17.1418 15.6758 17.4418L15.6758 18.4718C15.6758 18.8518 15.6258 19.1418 15.5358 19.3418C15.4359 19.5418 15.2058 19.6418 14.8558 19.6418C14.7058 19.6718 14.5159 19.6818 14.2659 19.7018C14.0058 19.7118 13.7558 19.7218 13.4958 19.7318C13.2258 19.7418 12.9758 19.7518 12.7358 19.7518L12.1658 19.7518C11.6658 19.7518 11.3658 19.9018 11.2758 20.2118C11.1758 20.5218 11.3358 20.9118 11.7358 21.3818C12.1458 21.8818 12.5758 22.4118 13.0458 22.9918C13.5058 23.5718 13.9658 24.1618 14.4258 24.7518C14.8758 25.3418 15.3158 25.9118 15.7258 26.4718C16.1458 27.0218 16.5359 27.5018 16.8958 27.9118C17.5359 28.6118 18.1558 28.6018 18.7558 27.8718C19.1059 27.4718 19.5258 26.9518 20.0058 26.3118C20.4858 25.6718 20.9758 25.0018 21.4758 24.3118C21.9758 23.6118 22.4459 22.9318 22.9058 22.2818C23.3559 21.6318 23.7258 21.1018 24.0159 20.6718C24.2958 20.2018 24.3858 19.9318 24.2659 19.8618Z"></path><path id="椭圆形" fill-rule="evenodd" style="fill:#C8CDD5" opacity="1" d="M36.004 25.911C36.004 23.261 33.834 21.111 31.154 21.111C28.484 21.111 26.314 23.261 26.314 25.911C26.314 28.561 28.484 30.711 31.154 30.711C33.834 30.711 36.004 28.561 36.004 25.911Z"></path></g></g></g></g></svg>