<?xml version="1.0" encoding="UTF-8"?>
<svg width="645px" height="510px" viewBox="0 0 645 510" version="1.1" xmlns="http://www.w3.org/2000/svg" xmlns:xlink="http://www.w3.org/1999/xlink">
    <title>编组 42</title>
    <defs>
        <linearGradient x1="32.6598364%" y1="77.2119971%" x2="68.1986306%" y2="19.8375897%" id="linearGradient-1">
            <stop stop-color="#6F77FF" offset="0%"></stop>
            <stop stop-color="#649BFB" offset="41.1108258%"></stop>
            <stop stop-color="#00D1FF" offset="100%"></stop>
        </linearGradient>
        <linearGradient x1="50%" y1="0%" x2="50%" y2="100%" id="linearGradient-2">
            <stop stop-color="#FFFFFF" stop-opacity="0.203762668" offset="0%"></stop>
            <stop stop-color="#FFFFFF" stop-opacity="0.272889571" offset="100%"></stop>
        </linearGradient>
        <linearGradient x1="20.1756125%" y1="24.4331924%" x2="56.0351776%" y2="112.777406%" id="linearGradient-3">
            <stop stop-color="#61C7F3" offset="0%"></stop>
            <stop stop-color="#AFE4FA" offset="30.283164%"></stop>
            <stop stop-color="#DEEAFF" offset="40.5310878%"></stop>
            <stop stop-color="#95A9FD" offset="49.2668078%"></stop>
            <stop stop-color="#637CFC" offset="100%"></stop>
        </linearGradient>
        <linearGradient x1="17.5845995%" y1="20.1590481%" x2="50%" y2="100%" id="linearGradient-4">
            <stop stop-color="#FFFFFF" stop-opacity="0" offset="0%"></stop>
            <stop stop-color="#5F78FC" stop-opacity="0" offset="100%"></stop>
        </linearGradient>
        <linearGradient x1="37.6333624%" y1="-3.8453392%" x2="68.7714006%" y2="52.9371891%" id="linearGradient-5">
            <stop stop-color="#8DA5FC" offset="0%"></stop>
            <stop stop-color="#83C4FC" offset="60.8507684%"></stop>
            <stop stop-color="#8BC7FD" offset="73.9130399%"></stop>
            <stop stop-color="#A5C6FF" offset="100%"></stop>
        </linearGradient>
        <linearGradient x1="30.1710399%" y1="0%" x2="68.6061612%" y2="52.9371891%" id="linearGradient-6">
            <stop stop-color="#56B4F9" stop-opacity="0" offset="0%"></stop>
            <stop stop-color="#A5D1FF" stop-opacity="0" offset="100%"></stop>
        </linearGradient>
        <linearGradient x1="50%" y1="0%" x2="50%" y2="100%" id="linearGradient-7">
            <stop stop-color="#BFEAFE" offset="0%"></stop>
            <stop stop-color="#AACAFE" offset="100%"></stop>
        </linearGradient>
        <linearGradient x1="50%" y1="0%" x2="50%" y2="100%" id="linearGradient-8">
            <stop stop-color="#A7D2FE" stop-opacity="0" offset="0%"></stop>
            <stop stop-color="#DAF3FF" stop-opacity="0" offset="100%"></stop>
        </linearGradient>
        <linearGradient x1="50%" y1="0%" x2="31.3063262%" y2="73.2811629%" id="linearGradient-9">
            <stop stop-color="#FFFFFF" stop-opacity="0" offset="0%"></stop>
            <stop stop-color="#ECF8FF" offset="100%"></stop>
        </linearGradient>
        <linearGradient x1="31.3063262%" y1="75.1014445%" x2="70.6539322%" y2="14.896522%" id="linearGradient-10">
            <stop stop-color="#E1EEFF" offset="0%"></stop>
            <stop stop-color="#FFFFFF" offset="100%"></stop>
        </linearGradient>
        <linearGradient x1="-22.486187%" y1="13.2179726%" x2="93.1595471%" y2="70.2518155%" id="linearGradient-11">
            <stop stop-color="#99D4FF" offset="0%"></stop>
            <stop stop-color="#87B1F8" offset="57.0862243%"></stop>
            <stop stop-color="#7D9DF4" offset="100%"></stop>
        </linearGradient>
        <linearGradient x1="-22.486187%" y1="13.8257753%" x2="93.1595471%" y2="69.9171654%" id="linearGradient-12">
            <stop stop-color="#99D4FF" offset="0%"></stop>
            <stop stop-color="#87B1F8" offset="57.0862243%"></stop>
            <stop stop-color="#7D9DF4" offset="100%"></stop>
        </linearGradient>
        <linearGradient x1="-22.486187%" y1="14.1665089%" x2="93.1595471%" y2="69.7295609%" id="linearGradient-13">
            <stop stop-color="#99D4FF" offset="0%"></stop>
            <stop stop-color="#87B1F8" offset="57.0862243%"></stop>
            <stop stop-color="#7D9DF4" offset="100%"></stop>
        </linearGradient>
        <linearGradient x1="50%" y1="0%" x2="50%" y2="100%" id="linearGradient-14">
            <stop stop-color="#83CBFF" offset="0%"></stop>
            <stop stop-color="#90E0FF" offset="100%"></stop>
        </linearGradient>
        <linearGradient x1="82.922383%" y1="11.9458448%" x2="14.3957087%" y2="86.4560835%" id="linearGradient-15">
            <stop stop-color="#0AF2E8" stop-opacity="0.475131802" offset="0%"></stop>
            <stop stop-color="#4B8AF1" stop-opacity="0.813179496" offset="100%"></stop>
        </linearGradient>
        <linearGradient x1="50%" y1="0%" x2="50%" y2="99.4345498%" id="linearGradient-16">
            <stop stop-color="#EFFBFF" stop-opacity="0" offset="0%"></stop>
            <stop stop-color="#DBF5FF" stop-opacity="0" offset="100%"></stop>
        </linearGradient>
        <linearGradient x1="50%" y1="0.530963177%" x2="50%" y2="100%" id="linearGradient-17">
            <stop stop-color="#4D9EAF" offset="0%"></stop>
            <stop stop-color="#6BB9F0" offset="100%"></stop>
        </linearGradient>
        <linearGradient x1="50%" y1="1.51609601%" x2="50%" y2="100%" id="linearGradient-18">
            <stop stop-color="#51ADC1" offset="0%"></stop>
            <stop stop-color="#6BB9F0" offset="100%"></stop>
        </linearGradient>
        <linearGradient x1="50%" y1="1.67131259%" x2="50%" y2="100%" id="linearGradient-19">
            <stop stop-color="#58B7CB" offset="0%"></stop>
            <stop stop-color="#6BB9F0" offset="100%"></stop>
        </linearGradient>
        <linearGradient x1="65.5262143%" y1="20.6819463%" x2="50%" y2="37.4660232%" id="linearGradient-20">
            <stop stop-color="#FFFFFF" offset="0%"></stop>
            <stop stop-color="#FFFFFF" stop-opacity="0" offset="100%"></stop>
        </linearGradient>
        <linearGradient x1="-4.96110523%" y1="2.547224%" x2="92.8033488%" y2="87.4928676%" id="linearGradient-21">
            <stop stop-color="#2B58F9" offset="0%"></stop>
            <stop stop-color="#45BDFF" offset="58.2615342%"></stop>
            <stop stop-color="#11CFF9" offset="100%"></stop>
        </linearGradient>
        <linearGradient x1="-5.30279375%" y1="2.25033746%" x2="73.7581433%" y2="79.818292%" id="linearGradient-22">
            <stop stop-color="#FFFFFF" stop-opacity="0" offset="0%"></stop>
            <stop stop-color="#11C1E8" stop-opacity="0.0881142783" offset="100%"></stop>
        </linearGradient>
        <linearGradient x1="6.75885676%" y1="60.5487562%" x2="100%" y2="37.6085416%" id="linearGradient-23">
            <stop stop-color="#FFFFFF" stop-opacity="0" offset="0%"></stop>
            <stop stop-color="#FFFFFF" offset="100%"></stop>
        </linearGradient>
        <linearGradient x1="50%" y1="0%" x2="50%" y2="100%" id="linearGradient-24">
            <stop stop-color="#F6FAFF" offset="0%"></stop>
            <stop stop-color="#6DD5F3" offset="100%"></stop>
        </linearGradient>
        <linearGradient x1="50%" y1="0%" x2="50%" y2="100%" id="linearGradient-25">
            <stop stop-color="#F6FAFF" offset="0%"></stop>
            <stop stop-color="#6DD5F3" offset="100%"></stop>
        </linearGradient>
        <linearGradient x1="50%" y1="0%" x2="50%" y2="100%" id="linearGradient-26">
            <stop stop-color="#F6FAFF" offset="0%"></stop>
            <stop stop-color="#6DD5F3" offset="100%"></stop>
        </linearGradient>
    </defs>
    <g id="页面-1" stroke="none" stroke-width="1" fill="none" fill-rule="evenodd">
        <g id="互联网解决方案页" transform="translate(-677.000000, -67.000000)">
            <g id="编组-42" transform="translate(677.000000, 67.000000)">
                <rect id="矩形" x="0" y="0" width="644.442101" height="510"></rect>
                <g id="编组-38备份" transform="translate(112.073307, 50.513585)">
                    <path d="M165.622238,15.0404942 L360.72229,74.7366919 C368.387973,77.0822175 373.578665,84.2144622 373.453523,92.2299808 L369.179073,366.013656 C369.023886,375.95357 360.84019,383.885659 350.900276,383.730472 C348.887885,383.699054 346.895013,383.330357 345.004582,382.639722 L154.17898,312.925078 C147.078726,310.331129 142.355664,303.577265 142.355664,296.018021 L142.355664,32.2527922 C142.355664,22.3116667 150.414539,14.2527922 160.355664,14.2527922 C162.140533,14.2527922 163.915477,14.518264 165.622238,15.0404942 Z" id="路径-7" fill="url(#linearGradient-1)" opacity="0.200111026"></path>
                    <path d="M164.32965,14.6449917 L361.302235,74.9141419 C368.607678,77.149442 373.524692,83.9835193 373.322281,91.6206061 L365.973067,368.910618 C365.724315,378.296162 357.914175,385.702997 348.52863,385.454245 C346.628949,385.403896 344.751154,385.035385 342.973342,384.364038 L153.349971,312.757378 C146.73393,310.258991 142.355664,303.925606 142.355664,296.853553 L142.355664,30.901051 C142.355664,21.5122102 149.966823,13.901051 159.355664,13.901051 C161.041374,13.901051 162.717709,14.1517743 164.32965,14.6449917 Z" id="路径-7备份-2" fill="url(#linearGradient-2)"></path>
                    <path d="M190.623799,5.96419825 L373.980856,61.9407234 C381.131933,64.1238543 386.017135,70.7230244 386.017135,78.1999199 L386.017135,358.118885 C386.017135,362.791795 383.509152,367.105189 379.448059,369.416815 L361.366395,379.710739 C362.705922,377.671111 363.487162,375.231691 363.492341,372.609396 L364.052751,88.8167823 C364.063997,83.1220643 360.36754,78.0829311 354.932303,76.3834812 L161.510376,15.9057437 C160.281451,15.5214927 159.002259,15.3219479 157.714689,15.3136439 C157.392001,15.3115628 157.071983,15.3212567 156.755043,15.3423232 L169.619845,8.18984886 C176.028481,4.62663857 183.610726,3.82319807 190.623799,5.96419825 Z" id="形状结合" fill="url(#linearGradient-3)"></path>
                    <path d="M189.897168,5.43197401 L373.93485,61.7581646 C381.07895,63.9446731 385.958173,70.5392507 385.959666,78.0104612 L386.015672,358.356662 C386.01658,362.90172 383.643723,367.117232 379.757661,369.474365 L359.494543,381.765227 C361.950586,379.40565 363.481892,376.089968 363.48913,372.415154 L364.048082,88.6465127 C364.059306,82.9483061 360.358366,77.9069536 354.918556,76.2104415 L161.533867,15.8996091 C160.300001,15.5148037 159.015648,15.3161529 157.723184,15.310211 C156.079457,15.3026541 154.505581,15.6004925 153.055331,16.1504416 L152.98054,14.8047633 L170.794487,6.68280022 C176.795555,3.94671622 183.590557,3.50178564 189.897168,5.43197401 Z" id="形状结合备份" fill="url(#linearGradient-4)"></path>
                    <g id="编组-25" transform="translate(101.750838, 30.316969)">
                        <path d="M34.7507192,3.27290077 L228.337514,61.5996946 C233.828873,63.2542153 237.587202,68.3117949 237.587202,74.04699 L237.587202,354.618018 C237.587202,357.662882 236.104297,360.516965 233.612826,362.267327 L230.340059,364.56769 C231.239178,362.800326 231.746062,360.799925 231.746062,358.681134 L231.746062,77.4364013 C231.746062,71.6947178 227.979375,66.6330289 222.479573,64.9840565 L21.9361421,4.85720369 C25.7602311,2.57136158 30.4091185,1.96479683 34.7507192,3.27290077 Z" id="形状结合" fill="url(#linearGradient-5)"></path>
                        <path d="M36.915405,1.99411614 L229.669195,60.7161622 C235.141328,62.3832364 238.880678,67.4314473 238.880678,73.1518826 L238.880678,354.245681 C238.880678,354.851429 238.83834,355.456438 238.753973,356.056283 L238.23394,359.753692 C237.830258,362.623853 236.009758,365.098381 233.389843,366.338069 L228.28889,368.752318 C231.094669,366.367768 232.874841,362.812871 232.874841,358.842192 L232.874841,77.5974587 C232.874841,71.8557752 229.108154,66.7940863 223.608352,65.1451139 L20.8802169,4.36179538 L24.1524129,2.85770288 C28.1574985,1.01683128 32.6988417,0.709548804 36.915405,1.99411614 Z" id="形状结合备份-2" fill="url(#linearGradient-6)"></path>
                        <path d="M28.8472066,4.95374862 L222.13625,64.4952321 C227.588928,66.1748957 231.309145,71.21361 231.309145,76.9191313 L231.309145,358.239648 C231.309145,365.419349 225.488847,371.239648 218.309145,371.239648 C216.792498,371.239648 215.28755,370.974253 213.862389,370.455472 L8.95632573,295.866363 C3.62512597,293.92572 0.16815064,288.751947 0.415437122,283.083911 L12.0324566,16.8110196 C12.3453967,9.6381411 18.4138517,4.07706229 25.5867302,4.3900024 C26.6931315,4.43827275 27.7888301,4.62772235 28.8472066,4.95374862 Z" id="路径-7备份" fill="url(#linearGradient-7)"></path>
                        <path d="M28.4297839,4.93213173 L223.829836,64.5130766 C229.300422,66.1811557 233.038249,71.2286122 233.038249,76.9478613 L233.038249,358.239648 C233.038249,365.419349 227.217951,371.239648 220.038249,371.239648 C218.521602,371.239648 217.016653,370.974253 215.591492,370.455472 L10.613835,295.840301 C5.3170783,293.912196 1.86636361,288.790284 2.06899411,283.157154 L11.6465996,16.899593 C11.9046952,9.72453176 17.9304594,4.11722321 25.1055207,4.37531882 C26.2330765,4.41587836 27.3505545,4.60305553 28.4297839,4.93213173 Z" id="路径-7备份-8" fill="url(#linearGradient-8)"></path>
                    </g>
                    <path d="M109.986669,45.1527668 L310.328978,106.344085 C315.524164,107.930871 319.059336,112.64564 319.059336,117.987542 L319.059336,400.755397 C319.059336,407.507395 313.48014,412.994554 306.597853,413.011383 C305.081603,413.011383 303.578083,412.747182 302.161186,412.22102 L101.818878,337.824254 C96.9870925,336.029979 93.794061,331.49201 93.794061,326.419304 L93.794061,56.8568969 C93.794061,50.1048987 99.3732571,44.6177406 106.255544,44.6009486 C107.521066,44.6009486 108.779205,44.7839663 109.986669,45.1527668 Z" id="路径-7备份-9" stroke="url(#linearGradient-10)" stroke-width="2" fill="url(#linearGradient-9)"></path>
                    <g id="编组-33" opacity="0.853429885" transform="translate(31.036390, 218.720155)">
                        <g id="编组-36">
                            <g id="组件|智能抽象|部署01" transform="translate(0.000000, 1.287237)" fill="#ADC6FF" fill-rule="nonzero">
                                <path d="M6.84247833,0.471584432 L88.9522182,30.8573596 C92.7312147,32.2558263 95.7946966,36.3403214 95.7946966,39.9803347 L95.7946966,63.7073125 C95.7946966,65.1633178 94.5693038,65.8901708 93.0577052,65.3307842 L2.73699133,31.9064314 C1.22539276,31.3470448 0,29.7132467 0,28.2572414 L0,4.53026365 C0,0.890250324 3.06348189,-0.926882257 6.84247833,0.471584432 Z" id="矩形"></path>
                                <path d="M2.73699133,72.7695598 L93.0577052,106.193913 C94.5693038,106.753299 95.7946966,108.387097 95.7946966,109.843103 L95.7946966,133.57008 C95.7946966,137.210094 92.7312147,139.027226 88.9522182,137.62876 L6.84247833,107.242984 C3.06348189,105.844518 0,101.760023 0,98.1200092 L0,74.3930315 C0,72.9370261 1.22539276,72.2101731 2.73699133,72.7695598 Z" id="矩形备份-2"></path>
                                <path d="M5.38824334,36.842058 L93.1829399,69.3316252 C94.7526313,69.9125099 95.7946966,71.4092698 95.7946966,73.0829956 L95.7946966,97.5069155 C95.7946966,99.7160545 94.0038356,101.506916 91.7946966,101.506916 C91.3208754,101.506916 90.8508229,101.422731 90.4064532,101.258286 L2.61175666,68.7687188 C1.04206522,68.1878341 4.6458644e-15,66.6910741 0,65.0173483 L0,40.5934284 C6.17636919e-16,38.3842894 1.790861,36.5934284 4,36.5934284 C4.47382114,36.5934284 4.94387368,36.6776132 5.38824334,36.842058 Z" id="矩形备份"></path>
                            </g>
                            <g id="编组-35" transform="translate(0.000000, 0.000000)">
                                <g id="编组-32">
                                    <g id="组件|智能抽象|部署01备份" transform="translate(0.000000, 1.287237)" fill="#ADC6FF" fill-opacity="0" fill-rule="nonzero">
                                        <path d="M6.84247833,0.471584432 L88.9522182,30.8573596 C92.7312147,32.2558263 95.7946966,36.3403214 95.7946966,39.9803347 L95.7946966,63.7073125 C95.7946966,65.1633178 94.5693038,65.8901708 93.0577052,65.3307842 L2.73699133,31.9064314 C1.22539276,31.3470448 0,29.7132467 0,28.2572414 L0,4.53026365 C0,0.890250324 3.06348189,-0.926882257 6.84247833,0.471584432 Z" id="矩形"></path>
                                        <path d="M2.73699133,72.7695598 L93.0577052,106.193913 C94.5693038,106.753299 95.7946966,108.387097 95.7946966,109.843103 L95.7946966,133.57008 C95.7946966,137.210094 92.7312147,139.027226 88.9522182,137.62876 L6.84247833,107.242984 C3.06348189,105.844518 0,101.760023 0,98.1200092 L0,74.3930315 C0,72.9370261 1.22539276,72.2101731 2.73699133,72.7695598 Z" id="矩形备份-2"></path>
                                        <path d="M4.04118251,36.3435606 L93.8358791,69.5732538 C95.0131476,70.0089173 95.7946966,71.1314873 95.7946966,72.3867816 L95.7946966,98.9432555 C95.7946966,100.60011 94.4515508,101.943255 92.7946966,101.943255 C92.4393307,101.943255 92.0867913,101.880117 91.7535141,101.756783 L1.95881749,68.5270902 C0.781548918,68.0914266 -5.17534129e-15,66.9688567 0,65.7135623 L0,39.1570885 C-3.55293451e-16,37.5002342 1.34314575,36.1570885 3,36.1570885 C3.35536586,36.1570885 3.70790526,36.220227 4.04118251,36.3435606 Z" id="矩形备份"></path>
                                    </g>
                                    <g id="编组-27" transform="translate(0.546627, 0.000000)">
                                        <path d="M93.6225916,67.1156563 L96.2363961,65.0067326 C96.9422663,64.4372078 97.3525885,63.5789166 97.3525885,62.6719374 L97.3525885,39.7965245 C97.3525885,36.0440869 95.0244102,32.6854358 91.5105588,31.3687595 L9.68782395,0.708938103 C8.46037672,0.249000986 7.11608134,0.203673727 5.86044066,0.579885518 L2.46827157,1.59623838 L2.46827157,1.59623838 L87.8364222,34.2322688 C91.3210537,35.5644347 93.6225916,38.908298 93.6225916,42.6388908 L93.6225916,67.1156563 L93.6225916,67.1156563 Z" id="路径-12" fill="url(#linearGradient-11)"></path>
                                        <path d="M92.5625088,103.131936 L94.7187374,101.577253 C95.5007992,101.013371 95.9641895,100.107976 95.9641895,99.1438271 L95.9641895,76.3696388 C95.9641895,72.6172012 93.6360112,69.2585501 90.1221599,67.9418738 L8.29942501,37.2820524 C7.07197778,36.8221153 5.72768241,36.776788 4.47204172,37.1529998 L1.07987263,38.1693527 L1.07987263,38.1693527 L86.5153037,70.8311043 C89.9664619,72.1504734 92.2606596,75.4450746 92.3009384,79.1396118 L92.5625088,103.131936 L92.5625088,103.131936 Z" id="路径-12备份" fill="url(#linearGradient-12)"></path>
                                        <path d="M92.3685995,139.350743 L94.1598052,138.136455 C94.9832519,137.578227 95.4764144,136.648101 95.4764144,135.653273 L95.4764144,112.919847 C95.4764144,109.174551 93.156961,105.820724 89.6526553,104.498951 L7.22479085,73.408347 C5.99417624,72.9441769 4.64513491,72.897225 3.38522724,73.2747153 L0,74.2889882 L0,74.2889882 L86.1059556,107.41229 C89.5173894,108.724603 91.7963228,111.969811 91.8727006,115.624153 L92.3685995,139.350743 L92.3685995,139.350743 Z" id="路径-12备份-2" fill="url(#linearGradient-13)"></path>
                                        <ellipse id="椭圆形" fill-opacity="0.659772113" fill="#FFFFFF" transform="translate(20.762100, 25.080041) rotate(-44.000000) translate(-20.762100, -25.080041) " cx="20.7620997" cy="25.0800408" rx="3.66330205" ry="4.33943526"></ellipse>
                                        <ellipse id="椭圆形备份-13" fill-opacity="0.659772113" fill="#FFFFFF" transform="translate(20.762100, 97.687625) rotate(-44.000000) translate(-20.762100, -97.687625) " cx="20.7620997" cy="97.6876248" rx="3.66330205" ry="4.33943526"></ellipse>
                                        <path d="M31.251902,26.4477766 L78.4897976,44.5198912 C79.7183851,44.9899201 80.5297519,46.1690478 80.5297519,47.4844772 C80.5297519,48.3163298 79.8554021,48.9906796 79.0235495,48.9906796 C78.840613,48.9906796 78.6592069,48.957354 78.488215,48.8923347 L31.2535279,30.9314578 C29.9907944,30.4513064 29.1560721,29.240874 29.1560721,27.8899332 C29.1560721,27.0371534 29.8473868,26.3458387 30.7001666,26.3458387 C30.8887604,26.3458387 31.0757587,26.3803883 31.251902,26.4477766 Z" id="路径-13" fill-opacity="0.659772113" fill="#FFFFFF"></path>
                                        <path d="M31.251902,99.0553606 L78.4897976,117.127475 C79.7183851,117.597504 80.5297519,118.776632 80.5297519,120.092061 C80.5297519,120.923914 79.8554021,121.598264 79.0235495,121.598264 C78.840613,121.598264 78.6592069,121.564938 78.488215,121.499919 L31.2535279,103.539042 C29.9907944,103.05889 29.1560721,101.848458 29.1560721,100.497517 C29.1560721,99.6447374 29.8473868,98.9534228 30.7001666,98.9534228 C30.8887604,98.9534228 31.0757587,98.9879723 31.251902,99.0553606 Z" id="路径-13备份-2" fill-opacity="0.659772113" fill="#FFFFFF"></path>
                                    </g>
                                </g>
                                <ellipse id="椭圆形备份" fill-opacity="0.659772113" fill="#FFFFFF" transform="translate(20.651687, 61.986664) rotate(-44.000000) translate(-20.651687, -61.986664) " cx="20.6516868" cy="61.9866637" rx="3.66330205" ry="4.33943526"></ellipse>
                                <path d="M31.1414891,63.3543995 L78.3793847,81.4265142 C79.6079723,81.8965431 80.4193391,83.0756707 80.4193391,84.3911001 C80.4193391,85.2229528 79.7449893,85.8973026 78.9131366,85.8973026 C78.7302002,85.8973026 78.548794,85.8639769 78.3778021,85.7989577 L31.1431151,67.8380808 C29.8803816,67.3579294 29.0456593,66.147497 29.0456593,64.7965561 C29.0456593,63.9437763 29.7369739,63.2524617 30.5897537,63.2524617 C30.7783475,63.2524617 30.9653459,63.2870112 31.1414891,63.3543995 Z" id="路径-13备份" fill-opacity="0.659772113" fill="#FFFFFF"></path>
                            </g>
                        </g>
                    </g>
                    <g id="编组-26">
                        <g id="编组-21">
                            <path d="M0.281647368,3.3469296 C1.19536547,0.741055399 4.04855876,-0.63070816 6.65443297,0.283009937 L106.780495,35.3909957 C108.784545,36.0936916 110.126062,37.9856724 110.126062,40.1093484 L110.126062,94.1972366 C110.126062,94.743334 110.036599,95.285743 109.861227,95.8029153 C108.974436,98.4180752 106.135543,99.8191944 103.520383,98.9324025 L88.749,93.923 L88.7496917,108.585615 L79.168,90.674 L3.39432134,64.9799953 C1.43765195,64.3164953 0.0983599336,62.5219378 0.00519196981,60.4734406 L0,60.2448294 L0,5.00136257 C-3.62171116e-15,4.43795542 0.0952234959,3.87860032 0.281647368,3.3469296 Z" id="形状结合" stroke="url(#linearGradient-15)" stroke-width="0.5" fill="url(#linearGradient-14)"></path>
                            <path d="M0.281647368,3.3469296 C1.19536547,0.741055399 4.04855876,-0.63070816 6.65443297,0.283009937 L106.780495,35.3909957 C108.784545,36.0936916 110.126062,37.9856724 110.126062,40.1093484 L110.126062,94.1972366 C110.126062,94.743334 110.036599,95.285743 109.861227,95.8029153 C108.974436,98.4180752 106.135543,99.8191944 103.520383,98.9324025 L88.749,93.923 L88.7496917,108.585615 L79.168,90.674 L3.39432134,64.9799953 C1.43765195,64.3164953 0.0983599336,62.5219378 0.00519196981,60.4734406 L0,60.2448294 L0,5.00136257 C-3.62171116e-15,4.43795542 0.0952234959,3.87860032 0.281647368,3.3469296 Z" id="形状结合备份-3" fill="url(#linearGradient-16)"></path>
                        </g>
                        <ellipse id="椭圆形" fill="#C7FFFC" transform="translate(23.178224, 40.453486) rotate(-38.000000) translate(-23.178224, -40.453486) " cx="23.1782243" cy="40.453486" rx="7.38843218" ry="9.32181049"></ellipse>
                        <path d="M20.5160775,32.0643345 C23.7527811,30.9184007 28.028521,32.3281275 30.8258671,35.7015884 C34.112604,39.6652303 34.113793,44.8388632 30.8285227,47.2572208 C29.8667864,47.9651755 28.7300212,48.3585285 27.5206671,48.4613665 C28.0866036,48.2609016 28.6205645,47.9823702 29.1093206,47.6225865 C32.3945912,45.2042294 32.3933879,40.0305782 29.106633,36.0669132 C26.8059045,33.2923477 23.5051231,31.8461455 20.6048719,32.0576316 Z" id="形状结合" fill="url(#linearGradient-17)"></path>
                        <path d="M50.5661388,40.8457932 C53.8028424,39.6998594 58.0785823,41.1095862 60.8759284,44.4830471 C64.1626653,48.446689 64.1638543,53.6203218 60.878584,56.0386795 C59.9168477,56.7466342 58.7800825,57.1399872 57.5707283,57.2428252 C58.1366649,57.0423603 58.6706258,56.7638289 59.1593818,56.4040452 C62.4446525,53.9856881 62.4434492,48.8120369 59.1566943,44.8483719 C56.8559658,42.0738064 53.5551843,40.6276042 50.6549332,40.8390902 Z" id="形状结合备份-4" fill="url(#linearGradient-18)"></path>
                        <path d="M80.4620254,49.6034391 C83.698729,48.4575053 87.9744689,49.8672321 90.771815,53.240693 C94.0585519,57.2043349 94.0597409,62.3779678 90.7744706,64.7963254 C89.8127343,65.5042801 88.6759691,65.8976331 87.4666149,66.0004711 C88.0325515,65.8000062 88.5665124,65.5214748 89.0552684,65.1616911 C92.3405391,62.743334 92.3393358,57.5696828 89.0525808,53.6060178 C86.7518524,50.8314523 83.4510709,49.3852501 80.5508198,49.5967362 Z" id="形状结合备份-5" fill="url(#linearGradient-19)"></path>
                        <ellipse id="椭圆形备份-15" fill="#C7FFFC" transform="translate(53.284686, 49.211132) rotate(-38.000000) translate(-53.284686, -49.211132) " cx="53.2846859" cy="49.2111319" rx="7.38843218" ry="9.32181049"></ellipse>
                        <ellipse id="椭圆形备份-16" fill="#C7FFFC" transform="translate(83.391148, 57.968778) rotate(-38.000000) translate(-83.391148, -57.968778) " cx="83.3911476" cy="57.9687778" rx="7.38843218" ry="9.32181049"></ellipse>
                    </g>
                    <path d="M228.106755,36.0562042 L353.370594,76.4165045 C359.600316,78.4237352 363.809345,84.2384905 363.770176,90.7834788 L362.689021,271.438949 L362.689021,271.438949" id="路径-9" stroke="url(#linearGradient-20)"></path>
                    <g id="编组-23" transform="translate(145.572409, 102.410570)">
                        <path d="M15.7741225,10.917535 L15.7741225,148.332084 C15.7741225,151.765091 17.9644416,154.815381 21.2174078,155.912534 L264.166364,237.853743 C268.35293,239.265778 272.891493,237.016575 274.303528,232.830009 C274.58137,232.006229 274.723078,231.142668 274.723078,230.273294 L274.723078,87.6803832 C274.723078,84.1906098 272.460954,81.1035066 269.133332,80.0521018 L26.1843762,3.28925357 C21.9713927,1.95810724 17.4769874,4.29429784 16.1458411,8.50728133 C15.899485,9.28698089 15.7741225,10.0998414 15.7741225,10.917535 Z" id="路径-8" fill="url(#linearGradient-21)"></path>
                        <path d="M0,22.2944413 L0,159.708991 C-6.68500535e-15,163.141997 2.19031911,166.192288 5.44328526,167.28944 L248.392241,249.23065 C252.578808,250.642684 257.11737,248.393482 258.529405,244.206915 C258.807248,243.383135 258.948956,242.519574 258.948956,241.650201 L258.948956,99.0572895 C258.948956,95.5675162 256.686831,92.480413 253.35921,91.4290081 L10.4102537,14.6661599 C6.19727016,13.3350136 1.70286492,15.6712042 0.371718586,19.8841877 C0.125362481,20.6638872 -1.87649542e-15,21.4767478 0,22.2944413 Z" id="路径-8备份-4" stroke="url(#linearGradient-23)" stroke-width="1.6" fill="url(#linearGradient-22)"></path>
                        <path d="M137.63402,184.933679 L137.63402,140.649877 C137.63402,139.545307 138.529451,138.649877 139.63402,138.649877 C139.821276,138.649877 140.007603,138.676174 140.187543,138.727999 L158.437372,143.984161 C160.150508,144.477564 161.330326,146.045141 161.330326,147.827915 L161.330326,193.472293 L161.330326,193.472293 L137.63402,184.933679 Z" id="路径-10" fill="url(#linearGradient-24)"></path>
                        <path d="M171.318971,196.73867 L171.318971,128.157195 C171.318971,127.052626 172.214402,126.157195 173.318971,126.157195 C173.506226,126.157195 173.692553,126.183493 173.872494,126.235318 L192.122322,131.491479 C193.835459,131.984883 195.015276,133.55246 195.015276,135.335234 L195.015276,204.900655 L195.015276,204.900655 L171.318971,196.73867 Z" id="路径-10备份" fill="url(#linearGradient-25)"></path>
                        <path d="M206.484271,209.231351 L206.484271,107.962604 C206.484271,106.858034 207.379701,105.962604 208.484271,105.962604 C208.671526,105.962604 208.857853,105.988901 209.037793,106.040726 L226.564383,111.088587 C228.705804,111.705341 230.180576,113.664812 230.180576,115.89328 L230.180576,217.393336 L230.180576,217.393336 L206.484271,209.231351 Z" id="路径-10备份-2" fill="url(#linearGradient-26)"></path>
                        <g id="编组-22" transform="translate(78.328189, 117.981620) rotate(-30.000000) translate(-78.328189, -117.981620) translate(38.758622, 77.169692)">
                            <path d="M34.4843019,9.59191905 L34.8807497,27.6661703 C33.2677194,27.64131 31.7265187,27.9720765 30.3579818,28.6997405 C24.9556394,31.5722169 23.8164241,39.7934312 27.8134731,47.0623367 C31.8105222,54.3312421 39.9034852,57.6436201 45.8896119,54.4607401 C49.897335,52.3297959 51.7325136,47.9405052 51.1331256,43.183766 L67.5708899,42.2559644 C68.8496221,53.7389345 64.3608716,64.4865142 55.0987597,69.4069498 C42.0901179,76.3164732 24.592189,69.1154686 16.0157863,53.322576 C7.43938368,37.5296833 11.0322165,19.1253496 24.0408532,12.2158168 C27.3094486,10.4794003 30.8615214,9.63395698 34.4843019,9.59191905 Z M63.1233211,28.29924 C65.2963627,32.300756 66.6881561,36.469923 67.3434975,40.5773001 L50.824359,41.5103906 C50.3830726,39.6934357 49.5910147,37.8555206 48.4341206,36.0981439 C45.3543911,31.4198896 40.6871873,28.3896746 36.3174102,27.7789722 L35.9193794,9.61693897 C46.2795466,10.0957883 56.9858577,16.9974967 63.1233211,28.29924 Z" id="形状结合" fill-opacity="0.447370729" fill="#FFFFFF" transform="translate(39.569566, 40.811928) rotate(28.000000) translate(-39.569566, -40.811928) "></path>
                            <path d="M42.543821,35.4779171 C42.543821,35.4779171 42.5593292,29.4175048 42.5903455,17.2966802 C45.729197,17.704209 48.0226549,18.1915117 49.4707192,18.7585884 C58.1436896,22.1550113 64.3637506,27.1921969 69.340403,36.6826324 C70.8266389,39.4146345 72.6827403,44.0574685 73.0045222,47.4657728 C73.0045222,47.4657728 67.5037934,47.9347372 56.5023359,48.8726662 C53.9140517,41.7108575 49.2612134,37.2459411 42.543821,35.4779171 Z" id="路径-14" fill="#FDFDFD" transform="translate(57.774172, 33.084673) rotate(28.000000) translate(-57.774172, -33.084673) "></path>
                        </g>
                    </g>
                </g>
            </g>
        </g>
    </g>
</svg>