<?xml version="1.0" encoding="UTF-8"?>
<svg width="888px" height="553px" viewBox="0 0 888 553" version="1.1" xmlns="http://www.w3.org/2000/svg" xmlns:xlink="http://www.w3.org/1999/xlink">
    <title>编组 48</title>
    <defs>
        <rect id="path-1" x="0" y="98.5" width="244" height="349" rx="15"></rect>
        <mask id="mask-2" maskContentUnits="userSpaceOnUse" maskUnits="objectBoundingBox" x="0" y="0" width="244" height="349" fill="white">
            <use xlink:href="#path-1"></use>
        </mask>
        <rect id="path-3" x="262.222222" y="99" width="244" height="349" rx="15"></rect>
        <mask id="mask-4" maskContentUnits="userSpaceOnUse" maskUnits="objectBoundingBox" x="0" y="0" width="244" height="349" fill="white">
            <use xlink:href="#path-3"></use>
        </mask>
        <rect id="path-5" x="524" y="98.5" width="244" height="349" rx="15"></rect>
        <mask id="mask-6" maskContentUnits="userSpaceOnUse" maskUnits="objectBoundingBox" x="0" y="0" width="244" height="349" fill="white">
            <use xlink:href="#path-5"></use>
        </mask>
        <rect id="path-7" x="0" y="0" width="31.0661765" height="31.0661765" rx="3.705"></rect>
        <rect id="path-9" x="-11.1838235" y="7.45588235" width="34.7941176" height="34.7941176" rx="3.705"></rect>
        <filter x="-8.6%" y="-25.9%" width="134.5%" height="134.5%" filterUnits="objectBoundingBox" id="filter-10">
            <feOffset dx="3" dy="-3" in="SourceAlpha" result="shadowOffsetOuter1"></feOffset>
            <feGaussianBlur stdDeviation="1.5" in="shadowOffsetOuter1" result="shadowBlurOuter1"></feGaussianBlur>
            <feColorMatrix values="0 0 0 0 0.0781507261   0 0 0 0 0.290849864   0 0 0 0 0.652438399  0 0 0 0.15 0" type="matrix" in="shadowBlurOuter1"></feColorMatrix>
        </filter>
        <linearGradient x1="50%" y1="0%" x2="21.9649969%" y2="96.9851515%" id="linearGradient-11">
            <stop stop-color="#C4DAFF" stop-opacity="0.3" offset="0%"></stop>
            <stop stop-color="#C4DAFF" stop-opacity="0.5" offset="100%"></stop>
        </linearGradient>
        <linearGradient x1="6.83185371%" y1="95.6941501%" x2="50%" y2="34.8022101%" id="linearGradient-12">
            <stop stop-color="#4086FD" stop-opacity="0.0737987598" offset="0%"></stop>
            <stop stop-color="#FFFFFF" stop-opacity="0.453857422" offset="100%"></stop>
        </linearGradient>
        <filter x="-38.1%" y="-59.5%" width="176.2%" height="219.5%" filterUnits="objectBoundingBox" id="filter-13">
            <feOffset dx="0" dy="1" in="SourceAlpha" result="shadowOffsetOuter1"></feOffset>
            <feGaussianBlur stdDeviation="1" in="shadowOffsetOuter1" result="shadowBlurOuter1"></feGaussianBlur>
            <feColorMatrix values="0 0 0 0 0.520813881   0 0 0 0 0.698290222   0 0 0 0 1  0 0 0 0.271400718 0" type="matrix" in="shadowBlurOuter1" result="shadowMatrixOuter1"></feColorMatrix>
            <feMerge>
                <feMergeNode in="shadowMatrixOuter1"></feMergeNode>
                <feMergeNode in="SourceGraphic"></feMergeNode>
            </feMerge>
        </filter>
        <linearGradient x1="16.8575894%" y1="49.5726691%" x2="96.8234138%" y2="50.2251467%" id="linearGradient-14">
            <stop stop-color="#15ACFF" offset="0%"></stop>
            <stop stop-color="#1A4BF8" offset="100%"></stop>
        </linearGradient>
        <linearGradient x1="50%" y1="0%" x2="50%" y2="100%" id="linearGradient-15">
            <stop stop-color="#C4DAFF" stop-opacity="0.3" offset="0%"></stop>
            <stop stop-color="#C4DAFF" stop-opacity="0.5" offset="100%"></stop>
        </linearGradient>
        <linearGradient x1="73.7766545%" y1="57.9588114%" x2="13.6273213%" y2="25.9601108%" id="linearGradient-16">
            <stop stop-color="#FFFFFF" stop-opacity="0.45" offset="0%"></stop>
            <stop stop-color="#4086FD" stop-opacity="0.07" offset="100%"></stop>
        </linearGradient>
        <path d="M7.26848443,11.8112499 C7.26848443,18.3344232 12.5565612,23.6224999 19.0797344,23.6224999 C25.6029076,23.6224999 30.8909843,18.3344232 30.8909843,11.8112499 C30.8909843,5.28807672 25.6029076,0 19.0797344,0 C12.5565612,0 7.26848443,5.28807672 7.26848443,11.8112499 Z M29.0738632,23.7805509 L9.08560554,23.7805509 C4.08850386,23.7805509 0,27.8690175 0,32.8661565 L0,33.7746798 C0,35.3192439 1.18111754,36.5003614 2.72568166,36.5003614 L35.4337871,36.5003614 C36.9783512,36.5003614 38.1594687,35.3192439 38.1594687,33.7746798 L38.1594687,32.8661565 C38.1594687,27.8690548 34.0709649,23.7805509 29.0738632,23.7805509 L29.0738632,23.7805509 Z" id="path-17"></path>
        <filter x="-15.7%" y="-38.4%" width="152.4%" height="154.8%" filterUnits="objectBoundingBox" id="filter-18">
            <feMorphology radius="0.5" operator="dilate" in="SourceAlpha" result="shadowSpreadOuter1"></feMorphology>
            <feOffset dx="4" dy="-4" in="shadowSpreadOuter1" result="shadowOffsetOuter1"></feOffset>
            <feGaussianBlur stdDeviation="2.5" in="shadowOffsetOuter1" result="shadowBlurOuter1"></feGaussianBlur>
            <feComposite in="shadowBlurOuter1" in2="SourceAlpha" operator="out" result="shadowBlurOuter1"></feComposite>
            <feColorMatrix values="0 0 0 0 0.0784313725   0 0 0 0 0.290196078   0 0 0 0 0.650980392  0 0 0 0.15 0" type="matrix" in="shadowBlurOuter1"></feColorMatrix>
        </filter>
        <path d="M15.8090335,18.2412006 C15.8090335,18.727014 16.0682118,19.1759241 16.4889386,19.4188308 C16.9096653,19.6617375 17.428022,19.6617375 17.8487488,19.4188308 C18.2694755,19.1759241 18.5286539,18.727014 18.5286539,18.2412006 C18.5286539,17.4901982 17.9198461,16.8813905 17.1688437,16.8813905 C16.4178413,16.8813905 15.8090335,17.4901982 15.8090335,18.2412006 L15.8090335,18.2412006 Z M23.4022135,18.2412006 C23.4022135,18.9922031 24.0110213,19.6010108 24.7620237,19.6010108 C25.5130261,19.6010108 26.1218339,18.9922031 26.1218339,18.2412006 C26.1218339,17.4901982 25.5130261,16.8813905 24.7620237,16.8813905 C24.0110213,16.8813905 23.4022135,17.4901982 23.4022135,18.2412006 L23.4022135,18.2412006 Z" id="path-19"></path>
        <filter x="-53.3%" y="-128.7%" width="206.7%" height="504.5%" filterUnits="objectBoundingBox" id="filter-20">
            <feOffset dx="0" dy="2" in="SourceAlpha" result="shadowOffsetOuter1"></feOffset>
            <feGaussianBlur stdDeviation="1.5" in="shadowOffsetOuter1" result="shadowBlurOuter1"></feGaussianBlur>
            <feColorMatrix values="0 0 0 0 0.521568627   0 0 0 0 0.698039216   0 0 0 0 1  0 0 0 0.27 0" type="matrix" in="shadowBlurOuter1"></feColorMatrix>
        </filter>
        <linearGradient x1="82.922383%" y1="13.0028462%" x2="14.3957087%" y2="85.4434706%" id="linearGradient-21">
            <stop stop-color="#DBE6FF" stop-opacity="0.365138767" offset="0%"></stop>
            <stop stop-color="#A6C8FF" stop-opacity="0.27672913" offset="100%"></stop>
        </linearGradient>
        <linearGradient x1="100%" y1="33.1829702%" x2="6.76477673%" y2="77.2022893%" id="linearGradient-22">
            <stop stop-color="#C4D3FF" offset="0%"></stop>
            <stop stop-color="#89B3FF" stop-opacity="0.215352519" offset="100%"></stop>
        </linearGradient>
        <linearGradient x1="50%" y1="0%" x2="50%" y2="100%" id="linearGradient-23">
            <stop stop-color="#AECBFF" stop-opacity="0.453391335" offset="0%"></stop>
            <stop stop-color="#BCCFFF" stop-opacity="0.064878237" offset="100%"></stop>
        </linearGradient>
        <linearGradient x1="50%" y1="0%" x2="50%" y2="100%" id="linearGradient-24">
            <stop stop-color="#A5CAFF" stop-opacity="0.454522406" offset="0%"></stop>
            <stop stop-color="#C6D8FF" stop-opacity="0.259162956" offset="100%"></stop>
        </linearGradient>
        <linearGradient x1="26.0099876%" y1="44.9156822%" x2="-25.0358255%" y2="-30.7638131%" id="linearGradient-25">
            <stop stop-color="#A7D1FD" stop-opacity="0.452954272" offset="0%"></stop>
            <stop stop-color="#9AC0FF" stop-opacity="0.65040599" offset="100%"></stop>
        </linearGradient>
        <rect id="path-26" x="11.2972264" y="0" width="31.0661765" height="31.0661765" rx="3.705"></rect>
        <linearGradient x1="90.6696517%" y1="13.0557249%" x2="50%" y2="92.6539996%" id="linearGradient-28">
            <stop stop-color="#E0EFFF" stop-opacity="0.441992166" offset="0%"></stop>
            <stop stop-color="#A7D5FF" stop-opacity="0.20961436" offset="100%"></stop>
        </linearGradient>
        <linearGradient x1="87.6494522%" y1="10.3552958%" x2="0%" y2="89.8522159%" id="linearGradient-29">
            <stop stop-color="#C8E3FF" stop-opacity="0.861765188" offset="0%"></stop>
            <stop stop-color="#97C2FF" stop-opacity="0.424208848" offset="100%"></stop>
        </linearGradient>
        <linearGradient x1="50%" y1="0%" x2="50%" y2="100%" id="linearGradient-30">
            <stop stop-color="#BADDFF" stop-opacity="0.197659899" offset="0%"></stop>
            <stop stop-color="#D5EAFF" stop-opacity="0.360592289" offset="100%"></stop>
        </linearGradient>
        <linearGradient x1="95.7014232%" y1="34.4647287%" x2="28.0745577%" y2="81.8694075%" id="linearGradient-31">
            <stop stop-color="#98C1FD" stop-opacity="0.495714734" offset="0%"></stop>
            <stop stop-color="#CDDFFC" stop-opacity="0.298471304" offset="100%"></stop>
        </linearGradient>
        <linearGradient x1="50%" y1="0%" x2="50%" y2="100%" id="linearGradient-32">
            <stop stop-color="#AED4FF" stop-opacity="0.142782785" offset="0%"></stop>
            <stop stop-color="#B2D7FF" stop-opacity="0.149757225" offset="98.7970526%"></stop>
        </linearGradient>
        <linearGradient x1="89.2655308%" y1="14.3967506%" x2="50%" y2="100%" id="linearGradient-33">
            <stop stop-color="#98C1FD" offset="0%"></stop>
            <stop stop-color="#E3EEFF" offset="100%"></stop>
        </linearGradient>
    </defs>
    <g id="页面-1" stroke="none" stroke-width="1" fill="none" fill-rule="evenodd">
        <g id="编组-48" transform="translate(0.000000, 0.500000)">
            <rect id="矩形备份-28" fill="#F6FCFF" x="0" y="0" width="888" height="552" rx="8"></rect>
            <g id="编组-6备份" transform="translate(60.000000, 54.000000)">
                <use id="矩形" stroke="#00C8BD" mask="url(#mask-2)" stroke-width="2" stroke-dasharray="2,2" xlink:href="#path-1"></use>
                <text id="精细化人群拆分" font-family="PingFangSC-Semibold, PingFang SC" font-size="14" font-weight="500" letter-spacing="0.116666667" fill="#0A0F2C" fill-opacity="0.85">
                    <tspan x="73.0916667" y="218.5">精细化人群拆分</tspan>
                </text>
                <text id="7天后过期" font-family="PingFangSC-Semibold, PingFang SC" font-size="14" font-weight="500" letter-spacing="0.116666667" fill="#0A0F2C" fill-opacity="0.85">
                    <tspan x="90.3373333" y="322.5">7天后过期</tspan>
                </text>
                <text id="1个月后过期" font-family="PingFangSC-Semibold, PingFang SC" font-size="14" font-weight="500" letter-spacing="0.116666667" fill="#0A0F2C" fill-opacity="0.85">
                    <tspan x="84.28" y="348.5">1个月后过期</tspan>
                </text>
                <text id="近30天登录未续费" font-family="PingFangSC-Semibold, PingFang SC" font-size="14" font-weight="500" letter-spacing="0.116666667" fill="#0A0F2C" fill-opacity="0.85">
                    <tspan x="64.075" y="374.5">近30天登录未续费</tspan>
                </text>
                <text id="…" font-family="PingFangSC-Semibold, PingFang SC" font-size="16" font-weight="500" letter-spacing="0.133333333" fill="#0A0F2C" fill-opacity="0.85">
                    <tspan x="114.433333" y="404.5">…</tspan>
                </text>
                <use id="矩形" stroke="#00C8BD" mask="url(#mask-4)" stroke-width="2" stroke-dasharray="2,2" xlink:href="#path-3"></use>
                <text id="用户往期购买会员情况" font-family="PingFangSC-Semibold, PingFang SC" font-size="14" font-weight="500" letter-spacing="0.116666667" fill="#0A0F2C" fill-opacity="0.85">
                    <tspan x="314.638889" y="204">用户往期购买会员情况</tspan>
                </text>
                <text id="匹配人群包：主推/挽留/关怀等" font-family="PingFangSC-Semibold, PingFang SC" font-size="14" font-weight="500" letter-spacing="0.116666667" fill="#0A0F2C" fill-opacity="0.85">
                    <tspan x="285.347222" y="308">匹配人群包：主推/挽留/关怀等</tspan>
                </text>
                <text id="免费体验券、折扣、特别权益等" font-family="PingFangSC-Semibold, PingFang SC" font-size="14" font-weight="500" letter-spacing="0.116666667" fill="#0A0F2C" fill-opacity="0.85">
                    <tspan x="285.405556" y="412">免费体验券、折扣、特别权益等</tspan>
                </text>
                <use id="矩形" stroke="#00C8BD" mask="url(#mask-6)" stroke-width="2" stroke-dasharray="2,2" xlink:href="#path-5"></use>
                <text id="AI多轮对话" font-family="PingFangSC-Semibold, PingFang SC" font-size="14" font-weight="500" letter-spacing="0.116666667" fill="#0A0F2C" fill-opacity="0.85">
                    <tspan x="611.098" y="204">AI多轮对话</tspan>
                </text>
                <text id="用户意向判断" font-family="PingFangSC-Semibold, PingFang SC" font-size="14" font-weight="500" letter-spacing="0.116666667" fill="#0A0F2C" fill-opacity="0.85">
                    <tspan x="603.65" y="308.5">用户意向判断</tspan>
                </text>
                <g id="编组-49" transform="translate(620.000000, 233.500000)">
                    <rect id="矩形" x="0" y="0" width="52" height="52"></rect>
                    <g id="编组-2" transform="translate(5.200000, 5.850000)">
                        <g id="编组-3" transform="translate(11.183824, 0.000000)">
                            <mask id="mask-8" fill="white">
                                <use xlink:href="#path-7"></use>
                            </mask>
                            <rect stroke="#639DFF" stroke-width="0.6175" x="0.30875" y="0.30875" width="30.4486765" height="30.4486765" rx="3.705"></rect>
                            <g id="矩形" mask="url(#mask-8)" fill="black" fill-opacity="1">
                                <use filter="url(#filter-10)" xlink:href="#path-9"></use>
                            </g>
                        </g>
                        <rect id="矩形" stroke="url(#linearGradient-12)" stroke-width="0.6175" fill="url(#linearGradient-11)" x="0.30875" y="7.76463235" width="34.1766176" height="34.1766176" rx="3.705"></rect>
                        <g id="编组" filter="url(#filter-13)" transform="translate(7.455882, 19.261029)" opacity="0.95" stroke="#FFFFFF" stroke-linecap="round" stroke-linejoin="round" stroke-width="1.67188125">
                            <polyline id="路径-21" points="3.89914804 2.23987664 0 6.23245714 3.89914804 9.8200141"></polyline>
                            <polyline id="路径-21" transform="translate(17.311455, 6.029945) scale(-1, 1) translate(-17.311455, -6.029945) " points="19.2610294 2.23987664 15.3618814 6.23245714 19.2610294 9.8200141"></polyline>
                            <line x1="11.6673223" y1="0.306643276" x2="6.72957468" y2="11.5496405" id="路径-22"></line>
                        </g>
                    </g>
                </g>
                <text id="发送挂机短信、引导转化" font-family="PingFangSC-Semibold, PingFang SC" font-size="14" font-weight="500" letter-spacing="0.116666667" fill="#0A0F2C" fill-opacity="0.85">
                    <tspan x="568.358333" y="412">发送挂机短信、引导转化</tspan>
                </text>
                <rect id="矩形" fill="url(#linearGradient-14)" x="0.222222222" y="0" width="768" height="71" rx="35.5"></rect>
                <rect id="矩形" x="0.222222222" y="0" width="256" height="71" rx="35.5"></rect>
                <rect id="矩形" x="256.222222" y="0" width="256" height="71" rx="35.5"></rect>
                <rect id="矩形" x="512.222222" y="0" width="256" height="71" rx="35.5"></rect>
                <polygon id="路径-5" fill="#F6FCFF" points="236.222222 0 251.609755 0 295.087491 35.8930838 252.997672 71 237.512685 71 279.738544 35.8930838"></polygon>
                <polygon id="路径-5" fill="#F6FCFF" points="473.222222 0 488.609755 0 532.087491 35.8930838 489.997672 71 474.512685 71 516.738544 35.8930838"></polygon>
                <text id="平台用户" font-family="PingFangSC-Regular, PingFang SC" font-size="16" font-weight="normal" letter-spacing="0.133333333" fill="#FFFFFF">
                    <tspan x="95.4555556" y="28">平台用户</tspan>
                </text>
                <text id="会员权益" font-family="PingFangSC-Regular, PingFang SC" font-size="16" font-weight="normal" letter-spacing="0.133333333" fill="#FFFFFF">
                    <tspan x="352.455556" y="28">会员权益</tspan>
                </text>
                <text id="规模化触达" font-family="PingFangSC-Regular, PingFang SC" font-size="16" font-weight="normal" letter-spacing="0.133333333" fill="#FFFFFF">
                    <tspan x="600.388889" y="28">规模化触达</tspan>
                </text>
                <text id="人群分层、打标签" font-family="PingFangSC-Semibold, PingFang SC" font-size="18" font-weight="500" letter-spacing="0.15" fill="#FFFFFF">
                    <tspan x="55.6222222" y="53">人群分层、打标签</tspan>
                </text>
                <text id="利益点" font-family="PingFangSC-Semibold, PingFang SC" font-size="18" font-weight="500" letter-spacing="0.15" fill="#FFFFFF">
                    <tspan x="356.997222" y="53">利益点</tspan>
                </text>
                <text id="AI语音+短信" font-family="PingFangSC-Semibold, PingFang SC" font-size="18" font-weight="500" letter-spacing="0.15" fill="#FFFFFF">
                    <tspan x="589.828222" y="53">AI语音+短信</tspan>
                </text>
                <g id="编组-5" transform="translate(96.000000, 143.500000)">
                    <rect id="矩形" x="0" y="0" width="52" height="52"></rect>
                    <g id="编组-4" transform="translate(1.997938, 6.611312)" fill-rule="nonzero">
                        <path d="M24.4973117,14.9934383 C24.4973117,20.104696 28.6408048,24.2481891 33.7520625,24.2481891 C38.8633202,24.2481891 43.0068133,20.104696 43.0068133,14.9934383 C43.0068133,9.88218056 38.8633202,5.7386875 33.7520625,5.7386875 C28.6408048,5.7386875 24.4973117,9.88218056 24.4973117,14.9934383 Z M41.583001,25.6720306 L25.921124,25.6720306 C22.0056256,25.6720306 18.8020625,28.8755645 18.8020625,32.7910921 L18.8020625,33.502969 C18.8020625,34.7132183 19.7275317,35.6386875 20.937781,35.6386875 L46.566344,35.6386875 C47.7765933,35.6386875 48.7020625,34.7132183 48.7020625,33.502969 L48.7020625,32.7910921 C48.7020625,28.8755937 45.4984994,25.6720306 41.583001,25.6720306 L41.583001,25.6720306 Z" id="形状" stroke="#639DFF" fill="#0C71FF"></path>
                        <g id="形状" opacity="0.659852527">
                            <use fill="black" fill-opacity="1" filter="url(#filter-18)" xlink:href="#path-17"></use>
                            <use stroke="url(#linearGradient-16)" stroke-width="1" fill="url(#linearGradient-15)" xlink:href="#path-17"></use>
                        </g>
                    </g>
                    <path d="M9.26642193,18.4225624 C9.26642193,24.9457357 14.5544987,30.2338124 21.0776719,30.2338124 C27.6008451,30.2338124 32.8889218,24.9457357 32.8889218,18.4225624 C32.8889218,11.8993892 27.6008451,6.6113125 21.0776719,6.6113125 C14.5544987,6.6113125 9.26642193,11.8993892 9.26642193,18.4225624 Z M31.0718007,30.3918634 L11.083543,30.3918634 C6.08644136,30.3918634 1.9979375,34.48033 1.9979375,39.477469 L1.9979375,40.3859923 C1.9979375,41.9305564 3.17905504,43.1116739 4.72361916,43.1116739 L37.4317246,43.1116739 C38.9762887,43.1116739 40.1574063,41.9305564 40.1574063,40.3859923 L40.1574063,39.477469 C40.1574063,34.4803673 36.0689024,30.3918634 31.0718007,30.3918634 L31.0718007,30.3918634 Z" id="形状" stroke="url(#linearGradient-16)" fill="url(#linearGradient-15)" fill-rule="nonzero"></path>
                    <g id="形状" fill-rule="nonzero">
                        <use fill="black" fill-opacity="1" filter="url(#filter-20)" xlink:href="#path-19"></use>
                        <use fill="#FFFFFF" xlink:href="#path-19"></use>
                    </g>
                </g>
                <g id="编组-32" transform="translate(619.916912, 129.000000)">
                    <rect id="矩形备份-18" x="0" y="0" width="52" height="52"></rect>
                    <g id="编组-25" transform="translate(4.666526, 8.149223)">
                        <path d="M27.9836753,6.1991211 L27.9836753,6.20744023 C36.2324989,6.20744023 42.9815364,11.7108057 42.9815364,18.4889895 C42.9815364,25.2671732 36.2324989,30.7706266 27.9836753,30.7706266 C27.6861087,30.7817718 27.3934076,30.8496379 27.1212983,30.9705785 C25.5015293,31.6004887 22.8169122,33.5885548 20.9346806,35.0783521 C20.7217666,35.2511055 20.4587432,35.3504585 20.1847876,35.3616125 C19.8308854,35.354893 19.494684,35.2055829 19.252401,34.9475309 C19.0069471,34.6859262 18.873319,34.3388335 18.8799736,33.9801688 C18.8799736,31.4780159 18.737494,28.1918147 17.9876009,27.639413 C14.9130394,25.3897045 12.9858142,22.1201708 12.9858142,18.4815198 C12.9858142,11.6958079 19.7348517,6.1999413 27.9836753,6.1999413 L27.9836753,6.1991211 Z" id="形状备份-4" stroke="#639DFF" stroke-width="0.6" fill="#0B6FFD" fill-rule="nonzero" transform="translate(27.983675, 20.780367) scale(-1, 1) translate(-27.983675, -20.780367) "></path>
                        <rect id="矩形备份-19" fill="#000000" fill-rule="nonzero" opacity="0" x="0" y="0" width="35.7015542" height="35.7015542"></rect>
                        <path d="M17.8507771,0.587123216 L17.8507771,0.597024819 C27.6687045,0.597024819 35.7015542,7.14724894 35.7015542,15.2147891 C35.7015542,23.2823293 27.6687045,29.832658 17.8507771,29.832658 C17.4966069,29.8459233 17.1482278,29.926699 16.8243574,30.0706451 C14.8964735,30.8203777 11.7011844,33.1866168 9.46091187,34.9598056 C9.20749707,35.1654205 8.89444094,35.2836726 8.56837301,35.2969482 C8.147151,35.2889506 7.74699696,35.1112385 7.45862646,34.8040994 C7.16648198,34.4927319 7.00743487,34.0796147 7.0153554,33.6527243 C7.0153554,30.674608 6.84577302,26.7633005 5.95323416,26.1058202 C2.29382486,23.4281687 0,19.5366993 0,15.2058986 C0,7.12939816 8.0328497,0.58809943 17.8507771,0.58809943 L17.8507771,0.587123216 Z" id="形状备份-5" stroke="url(#linearGradient-22)" stroke-width="0.6" fill="url(#linearGradient-21)" fill-rule="nonzero"></path>
                        <path d="M23.6522797,11.4869751 L12.0492745,11.4869751 C11.3094435,11.4869751 10.7104663,12.1008396 10.7104663,12.8575103 C10.7104663,13.6141811 11.3094435,14.2280456 12.0492745,14.2280456 L23.6522797,14.2280456 C24.3921107,14.2280456 24.9910879,13.6141811 24.9910879,12.8575103 C24.9910879,12.1008396 24.3921107,11.4869751 23.6522797,11.4869751 L23.6522797,11.4869751 Z" id="路径备份-5" fill="#FFFFFF"></path>
                        <path d="M21.867202,17.8835152 L13.8343523,17.8835152 C13.0945212,17.8835152 12.495544,18.4963686 12.495544,19.2530393 C12.495544,20.0107211 13.0945212,20.6235746 13.8343523,20.6235746 L21.867202,20.6235746 C22.607033,20.6235746 23.2060102,20.0107211 23.2060102,19.2530393 C23.2060102,18.4963686 22.607033,17.8825041 21.867202,17.8825041 L21.867202,17.8835152 Z" id="路径备份-6" fill="#FFFFFF"></path>
                    </g>
                </g>
                <g id="编组-35" transform="translate(620.000000, 337.000000)">
                    <rect id="矩形备份-22" x="0" y="0" width="52" height="52"></rect>
                    <g id="编组-33备份" transform="translate(3.341349, 11.337746)">
                        <rect id="矩形" stroke="#639DFF" stroke-width="0.6" fill="#0B6FFD" x="0.3" y="4.82001102" width="33.0246887" height="4.34352113" rx="2.17176056"></rect>
                        <rect id="矩形备份-20" stroke="#639DFF" stroke-width="0.6" fill="#0B6FFD" x="0.3" y="12.4904936" width="33.0246887" height="4.34352113" rx="2.17176056"></rect>
                        <rect id="矩形备份-21" stroke="#639DFF" stroke-width="0.6" fill="#0B6FFD" x="0.3" y="20.1609762" width="33.0246887" height="4.34352113" rx="2.17176056"></rect>
                        <path d="M42.6653515,0 L12.7381812,0 C10.7572912,0 9.15153973,1.60586694 9.15153973,3.58683391 L9.15153973,25.7377514 C9.15153973,27.7187568 10.7572912,29.3245083 12.7381812,29.3245083 L42.6653515,29.3245083 C44.6464339,29.3245083 46.2523779,27.7187568 46.2523779,25.7377514 L46.2523779,3.58683391 C46.2523779,1.60582845 44.6464339,0 42.6653515,0 Z" id="形状" fill="url(#linearGradient-23)" fill-rule="nonzero"></path>
                        <path d="M41.4686487,5.04562783 L28.0276563,18.7295465 C27.90107,18.8575915 27.7294419,18.9303128 27.5490618,18.9303128 L27.5476031,18.9303128 C27.3674656,18.9295807 27.1951209,18.8567528 27.0690441,18.7280878 L13.7225111,5.05797338 C13.4650691,4.79323788 13.4694096,4.36847277 13.7341451,4.11028361 C14.0003749,3.85134732 14.4222226,3.85714652 14.682582,4.12117046 L27.5504849,17.3018035 L40.5114597,4.10590753 C40.7703959,3.84113645 41.1951255,3.83821906 41.4598966,4.09786691 C41.7232089,4.35687436 41.7275494,4.78160389 41.4686487,5.04562783 L41.4686487,5.04562783 Z" id="路径" fill="#FFFFFF"></path>
                    </g>
                </g>
                <g id="编组-27" transform="translate(359.222222, 337.000000)">
                    <rect id="矩形备份-14" x="0" y="0" width="52" height="52"></rect>
                    <g id="编组-25备份-3" transform="translate(6.666652, 6.283348)">
                        <rect id="矩形" stroke="#639DFF" stroke-width="0.6" fill="#0B6FFD" x="6.63334844" y="22.5707854" width="25.4" height="17.7254227" rx="4"></rect>
                        <path d="M38.6666969,5.31665156 L38.6666969,12.0833031 C38.6666969,12.884116 38.0175098,13.5333031 37.2166969,13.5333031 C35.3481252,13.5333032 33.8333485,15.0480799 33.8333485,16.9166516 C33.8333485,18.7852233 35.3481252,20.2999999 37.2166969,20.3 C38.0175098,20.3 38.6666969,20.9491871 38.6666969,21.75 L38.6666969,28.5166516 C38.6666969,31.4529016 36.28625,33.8333031 33.35,33.8333031 L5.31669687,33.8333031 C2.38044688,33.8333031 0,31.4529016 0,28.5166516 L0,21.75 C0,20.9491871 0.649187113,20.3 1.45,20.3 C3.31857175,20.3 4.83334844,18.7852233 4.83334844,16.9166516 C4.83334844,15.0480798 3.31857175,13.5333031 1.45,13.5333031 C0.649187113,13.5333031 0,12.884116 0,12.0833031 L0,5.31665156 C0,2.38040156 2.38044687,0 5.31669687,0 L33.35,0 C36.28625,0 38.6666969,2.38040156 38.6666969,5.31665156 Z" id="形状" stroke="url(#linearGradient-25)" stroke-width="0.6" fill="url(#linearGradient-24)" fill-rule="nonzero"></path>
                        <path d="M15.5531984,8.66955 C15.0270628,8.11363333 14.159442,8.06240892 13.5715469,8.55255312 L13.5028984,8.61345312 C12.9469675,9.13960641 12.8957622,10.0072593 13.3859469,10.59515 L16.6402,14.5 L14.5,14.5 L14.4149484,14.5024016 C13.6484563,14.5474387 13.0499497,15.1821858 13.05,15.95 L13.0524469,16.0350516 C13.0974829,16.8015263 13.7322033,17.4000263 14.5,17.4 L18.125,17.4 L18.125,19.3333031 L14.5,19.3333031 L14.4149484,19.33575 C13.6484737,19.3807861 13.0499737,20.0155064 13.05,20.7833031 L13.0524469,20.8684 C13.097506,21.6348569 13.7322198,22.2333308 14.5,22.2333031 L18.125,22.2333031 L18.125,24.1666516 L18.1274469,24.2517031 C18.1724829,25.0181778 18.8072033,25.6166516 19.575,25.6166516 L19.6600969,25.61425 C20.4265712,25.5691899 21.0250517,24.9344492 21.025,24.1666516 L21.025,22.2333031 L24.1666969,22.2333031 L24.2517484,22.2309016 C25.0182406,22.1858645 25.6167472,21.5511173 25.6166969,20.7833031 L25.61425,20.6982516 C25.5692139,19.9317768 24.9344936,19.3332768 24.1666969,19.3333031 L21.025,19.3333031 L21.025,17.4 L24.1666969,17.4 L24.2517484,17.3975531 C25.0182232,17.3525171 25.6167232,16.7177967 25.6166969,15.95 L25.61425,15.8649031 C25.5691909,15.0984463 24.9344771,14.4999723 24.1666969,14.5 L22.0255,14.5 L25.28075,10.5946516 L25.3373,10.5226047 C25.8041578,9.89066592 25.6827752,9.00186434 25.0635674,8.51824831 C24.4443595,8.03463227 23.5526257,8.13216584 23.0525984,8.73819844 L19.3333484,13.2017062 L15.6140984,8.73810781 L15.5531984,8.66955 Z" id="路径" fill="#FFFFFF"></path>
                    </g>
                </g>
                <g id="编组-26" transform="translate(359.222222, 233.000000)">
                    <rect id="矩形备份-6" x="0" y="0" width="52" height="52"></rect>
                    <g id="编组-25备份-2" transform="translate(5.077266, 6.273785)">
                        <mask id="mask-27" fill="white">
                            <use xlink:href="#path-26"></use>
                        </mask>
                        <rect stroke="#639DFF" stroke-width="0.6175" x="11.6059764" y="0.30875" width="30.4486765" height="30.4486765" rx="3.705"></rect>
                        <path d="M31.9290623,5.24107738 L4.6076596,5.24107738 C2.07669165,5.24107738 0,7.29613683 0,9.84873698 L0,34.3795852 C0,36.9105532 2.05505945,38.9872448 4.6076596,38.9872448 L31.9290623,38.9872448 C34.4600302,38.9872448 36.5367219,36.9321854 36.5367219,34.3795852 L36.5367219,9.82710478 C36.5367219,7.29613683 34.4816624,5.24107738 31.9290623,5.24107738 L31.9290623,5.24107738 Z" id="形状" stroke="url(#linearGradient-29)" stroke-width="0.6" fill="url(#linearGradient-28)" fill-rule="nonzero"></path>
                        <path d="M25.244747,13.3098538 C27.7324505,13.3098538 29.7658418,15.343281 29.7658418,17.8309846 C29.7658418,20.3186881 27.7324146,22.3521154 25.244747,22.3521154 C22.7570793,22.3521154 20.7236162,20.3186881 20.7236162,17.8309846 C20.7236162,15.343281 22.7570434,13.3098538 25.244747,13.3098538 L25.244747,13.3098538 Z" id="路径" fill="#FFFFFF"></path>
                        <path d="M13.7580463,29.1230314 L6.9223055,29.1230314 C6.29497157,29.1230314 5.77579866,28.6038585 5.77579866,27.9765245 C5.77579866,27.3491906 6.29497157,26.8300177 6.9223055,26.8300177 L13.73645,26.8300177 C14.363748,26.8300177 14.8829209,27.3491906 14.8829209,27.9765245 C14.8829209,28.6038585 14.3853802,29.1230314 13.7580463,29.1230314 L13.7580463,29.1230314 Z" id="路径" fill="#FFFFFF"></path>
                        <path d="M13.7580463,22.63337 L6.9223055,22.63337 C6.29497157,22.63337 5.77579866,22.114197 5.77579866,21.4868631 C5.77579866,20.8595292 6.29497157,20.3403563 6.9223055,20.3403563 L13.73645,20.3403563 C14.363748,20.3403563 14.8829209,20.8595292 14.8829209,21.4868631 C14.8829209,22.114197 14.3853802,22.63337 13.7580463,22.63337 L13.7580463,22.63337 Z" id="路径" fill="#FFFFFF"></path>
                        <path d="M13.7580463,16.5330882 L6.9223055,16.5330882 C6.29497157,16.5330882 5.77579866,16.0139153 5.77579866,15.3865814 C5.77579866,14.7592474 6.29497157,14.2400745 6.9223055,14.2400745 L13.73645,14.2400745 C14.363748,14.2400745 14.8829209,14.7592474 14.8829209,15.3865814 C14.8829209,16.0139153 14.3853802,16.5330882 13.7580463,16.5330882 L13.7580463,16.5330882 Z" id="路径" fill="#FFFFFF"></path>
                        <path d="M25.244747,29.5556755 C20.4640297,29.5556755 18.3440737,28.4740652 18.3440737,28.0630533 C18.3440737,27.4573516 18.5171313,26.7867533 18.79835,26.1377871 C19.858328,23.6068192 22.3243993,22.2223581 24.8553673,22.5035767 C25.0067927,22.5252089 25.1365859,22.5252089 25.2880114,22.5252089 C25.3961724,22.5252089 25.5259656,22.5252089 25.6341266,22.5035767 C28.1866909,22.2872547 30.6743944,23.6500836 31.7127402,26.2026837 C31.9723267,26.8516499 32.1453843,27.500616 32.1453843,28.0846855 C32.1670165,28.4956974 30.0254283,29.5556755 25.244747,29.5556755 L25.244747,29.5556755 Z" id="路径" fill="#FFFFFF"></path>
                    </g>
                </g>
                <g id="编组-24" transform="translate(359.222222, 129.000000)">
                    <rect id="矩形备份-4" x="0" y="0" width="52" height="52"></rect>
                    <g id="编组-23" transform="translate(2.514652, 6.719265)" fill-rule="nonzero">
                        <path d="M24.8796366,4.40236749 L37.5313834,4.40236749 C38.4100238,4.40236749 39.2379153,4.8140716 39.7686127,5.51433524 L46.5995161,14.5249166 C47.4356108,15.6276709 47.3435768,17.1751691 46.3826704,18.1710507 L33.2402073,31.7950166 C32.7118417,32.3427671 31.983765,32.6525829 31.2227131,32.6535155 C30.4616612,32.6544438 29.7328291,32.3464093 29.2031257,31.7999524 L16.0311795,18.2053709 C15.0677319,17.2111946 14.9726793,15.6631575 15.8072592,14.5585787 L22.6403015,5.51709928 C23.1708653,4.8151921 23.9997664,4.40236749 24.8796366,4.40236749 L24.8796366,4.40236749 Z" id="路径备份-2" stroke="#639DFF" stroke-width="0.6" fill="#0C6BF4"></path>
                        <path d="M29.0473374,0 C30.1922539,0 31.2710418,0.561956467 31.9625696,1.51778292 L40.863611,13.8167966 C41.9530881,15.3220036 41.8331627,17.4342648 40.5810491,18.7935957 L23.4556999,37.3896591 C22.7672106,38.1373125 21.8184867,38.5601962 20.8267944,38.561472 C19.8351021,38.5627363 18.885394,38.1422839 18.1951614,37.3963962 L1.03139408,18.8404411 C-0.224030962,17.4834379 -0.347889684,15.3704411 0.73961359,13.8627437 L9.64344198,1.52155571 C10.3347957,0.563485897 11.4148993,0 12.5614184,0 L29.0473374,0 Z" id="路径备份-3" stroke="url(#linearGradient-31)" stroke-width="0.6" fill="url(#linearGradient-30)"></path>
                        <path d="M28.2415002,12.7108068 C28.758349,12.1964055 29.5872796,12.1761481 30.1286383,12.6646888 C30.6699971,13.1532296 30.7346456,13.9798836 30.2758169,14.5466441 L30.1816153,14.6509219 L21.773535,23.0590022 C21.2760498,23.5568388 20.4825598,23.5975339 19.9367543,23.1532037 L19.8324766,23.0590022 L11.4244392,14.6509219 C10.9054656,14.1349006 10.8828478,13.302388 11.373038,12.7589497 C11.8632281,12.2155113 12.6936578,12.1524613 13.2602766,12.6156619 L13.3645543,12.7099063 L20.8030058,20.1483149 L28.2415002,12.7099492 L28.2415002,12.7108068 Z" id="路径备份-4" fill="#FFFFFF"></path>
                    </g>
                </g>
                <g id="编组-22" transform="translate(96.500000, 247.500000)">
                    <rect id="矩形备份-3" x="0" y="0" width="52" height="52"></rect>
                    <g id="编组-21" transform="translate(6.335473, 5.251490)">
                        <circle id="椭圆形备份" stroke="#639DFF" stroke-width="0.5" fill="#0C6EFB" cx="26.2462206" cy="13.1823432" r="12.9323432"></circle>
                        <path d="M18.08352,5.28147002 C8.105292,5.28147002 0,13.386762 0,23.36499 C0,33.343218 8.105292,41.44851 18.08352,41.44851 C28.061748,41.44851 36.16704,33.343218 36.16704,23.36499 C36.16704,13.386762 28.061748,5.28147002 18.08352,5.28147002 Z" id="形状备份" stroke="url(#linearGradient-33)" stroke-width="0.6" fill="url(#linearGradient-32)" fill-rule="nonzero"></path>
                        <polygon id="路径备份" fill="#FFFFFF" points="24.9545406 31.68018 16.3002846 26.67492 15.9450726 26.67492 15.9450726 15.0498 18.5284326 15.0498 18.5284326 24.995736 26.2462206 29.452032"></polygon>
                    </g>
                </g>
            </g>
        </g>
    </g>
</svg>