<?xml version="1.0" encoding="UTF-8"?>
<svg width="1200px" height="584px" viewBox="0 0 1200 584" version="1.1" xmlns="http://www.w3.org/2000/svg" xmlns:xlink="http://www.w3.org/1999/xlink">
    <title>banner2</title>
    <defs>
        <rect id="path-1" x="0" y="0" width="1200" height="584"></rect>
        <linearGradient x1="50%" y1="62.0822895%" x2="50%" y2="0%" id="linearGradient-3">
            <stop stop-color="#000000" stop-opacity="0" offset="0%"></stop>
            <stop stop-color="#000000" offset="100%"></stop>
        </linearGradient>
        <rect id="path-4" x="0" y="0" width="1172" height="568" rx="20"></rect>
    </defs>
    <g id="首页" stroke="none" stroke-width="1" fill="none" fill-rule="evenodd">
        <g id="banner" transform="translate(-1327.000000, -119.000000)">
            <g id="编组-20" transform="translate(1327.000000, 119.000000)">
                <mask id="mask-2" fill="white">
                    <use xlink:href="#path-1"></use>
                </mask>
                <g id="矩形"></g>
                <g id="编组-57" mask="url(#mask-2)">
                    <g transform="translate(14.000000, 15.000000)">
                        <g id="矩形备份-21">
                            <mask id="mask-5" fill="white">
                                <use xlink:href="#path-4"></use>
                            </mask>
                            <use id="蒙版" fill="url(#linearGradient-3)" xlink:href="#path-4"></use>
                        </g>
                        <g id="编组-35" transform="translate(586.000000, 338.297710) scale(1, -1) translate(-586.000000, -338.297710) translate(173.000000, 289.490458)">
                            <path id="路径-12" d="M413.910365,0 C413.910365,27.5077857 391.610899,49.8072519 364.103113,49.8072519 L48.8072519,49.8072519 C24.9174741,49.8072519 4.82744177,67.4251607 1.4854766,90.7742813 C4.80668956,91.4902855 7.1982834,94.5410575 6.98727946,98.0363162 C6.75431891,101.895284 3.43715549,104.834744 -0.421812399,104.601783 C-4.28078029,104.368823 -7.22024002,101.051659 -6.98727946,97.1926914 C-6.77338268,93.649513 -3.95940628,90.8815088 -0.513278102,90.6325315 C2.90669498,66.2328183 23.8693893,47.8072519 48.8072519,47.8072519 L364.103113,47.8072519 C390.50633,47.8072519 411.910365,26.4032162 411.910365,0 L413.910365,0 Z M-4.9909139,97.3132092 C-5.1573143,100.069615 -3.05770021,102.439017 -0.301294571,102.605418 C2.45511106,102.771818 4.82451351,100.672204 4.9909139,97.9157984 C5.1573143,95.1593928 3.05770021,92.7899903 0.301294571,92.6235899 C-2.45511106,92.4571895 -4.82451351,94.5568036 -4.9909139,97.3132092 Z" fill="#2B58F9" fill-rule="nonzero"></path>
                            <path id="路径-12备份" d="M827,4.21757467e-15 C827,27.5077857 804.700534,49.8072519 777.192748,49.8072519 L461.896887,49.8072519 C438.007109,49.8072519 417.917076,67.4251607 414.575111,90.7742813 C417.896805,91.4908984 420.287897,94.5414085 420.076914,98.0363162 C419.843954,101.895284 416.52679,104.834744 412.667822,104.601783 C408.808854,104.368823 405.869395,101.051659 406.102355,97.1926914 C406.316253,93.6494884 409.130268,90.8814703 412.576428,90.6325263 C415.99633,66.2328183 436.959024,47.8072519 461.896887,47.8072519 L777.192748,47.8072519 C803.595964,47.8072519 825,26.4032162 825,-4.21757467e-15 L827,4.21757467e-15 Z M408.098721,97.3132092 C407.93232,100.069615 410.031934,102.439017 412.78834,102.605418 C415.544746,102.771818 417.914148,100.672204 418.080549,97.9157984 C418.246949,95.1593928 416.147335,92.7899903 413.390929,92.6235899 C410.634524,92.4571895 408.265121,94.5568036 408.098721,97.3132092 Z" transform="translate(619.544817, 48.807252) scale(-1, 1) translate(-619.544817, -48.807252) " fill="#2B58F9" fill-rule="nonzero"></path>
                            <path id="路径-13" d="M274.72403,88.3630912 L276.689646,88.7323493 C276.562412,89.4096362 276.44975,90.0904284 276.351781,90.774384 C279.672952,91.4902855 282.064546,94.5410575 281.853542,98.0363162 C281.620581,101.895284 278.303418,104.834744 274.44445,104.601783 C270.585482,104.368823 267.646022,101.051659 267.878983,97.1926914 C268.092861,93.6498305 270.906352,90.8820048 274.352058,90.6325985 C274.458594,89.8720696 274.58268,89.1155182 274.72403,88.3630912 Z M269.875348,97.3132092 C269.708948,100.069615 271.808562,102.439017 274.564968,102.605418 C277.321373,102.771818 279.690776,100.672204 279.857176,97.9157984 C280.023577,95.1593928 277.923963,92.7899903 275.167557,92.6235899 C272.411151,92.4571895 270.041749,94.5568036 269.875348,97.3132092 Z M276.317072,82.1405212 L278.218273,82.7613562 C277.899441,83.7377257 277.61212,84.7250912 277.356874,85.7222065 L275.419348,85.2262294 C275.685356,84.187074 275.984794,83.1580679 276.317072,82.1405212 Z M278.718134,76.1458032 L280.522305,77.0089173 C280.078455,77.9366984 279.664665,78.8789043 279.281678,79.83421 L277.425304,79.0899811 C277.824416,78.0944546 278.255619,77.1126007 278.718134,76.1458032 Z M281.85609,70.5471566 L283.534067,71.635456 C282.974344,72.4984545 282.44257,73.3792955 281.939672,74.2766348 L280.194981,73.2988535 C280.718938,72.3639384 281.272964,71.44624 281.85609,70.5471566 Z M285.716384,65.3636718 L287.239901,66.6593939 C286.573349,67.4431293 285.932129,68.2480606 285.31734,69.0728837 L283.713774,67.8776525 C284.354173,67.0184704 285.022091,66.1800256 285.716384,65.3636718 Z M290.152545,60.775117 L291.498984,62.2540029 C290.738437,62.9464359 290.000237,63.6631384 289.285618,64.4029046 L287.847167,63.0133509 C288.591493,62.242833 289.360379,61.4963377 290.152545,60.775117 Z M295.191638,56.7492452 L296.336631,58.3890591 C295.493389,58.9778501 294.669227,59.5936879 293.865465,60.2355121 L292.617481,58.6726506 C293.454723,58.0040916 294.313232,57.3625886 295.191638,56.7492452 Z M300.712762,53.4039897 L301.636012,55.1781403 C300.72354,55.6529809 299.826748,56.1572037 298.946978,56.6899235 L297.911049,54.9791195 C298.827656,54.4240937 299.762027,53.8987424 300.712762,53.4039897 Z M306.634731,50.798208 L307.31888,52.6775538 C306.352108,53.0294932 305.397589,53.4125884 304.456631,53.8261414 L303.651917,51.9951756 C304.632491,51.5642112 305.627219,51.1649784 306.634731,50.798208 Z M312.71069,49.0178698 L313.14904,50.969241 C312.144531,51.1948907 311.149042,51.4528223 310.163795,51.7425128 L309.59962,49.8237353 C310.626409,49.5218305 311.663861,49.2530262 312.71069,49.0178698 Z M319.075854,48.0166958 L319.258189,50.008367 C318.231485,50.1023602 317.210749,50.2291258 316.19708,50.3882959 L315.886834,48.4125056 C316.942936,48.2466725 318.00633,48.1146091 319.075854,48.0166958 Z M325.484193,47.8072519 L325.484194,49.8072519 L323.666613,49.8072524 C323.228826,49.8073142 322.791742,49.813258 322.355437,49.8250638 L322.30134,47.8257955 C322.755578,47.8135045 323.210602,47.8073168 323.666472,47.8072524 L325.484193,47.8072519 Z M331.781904,47.8072519 L331.781904,49.8072519 L328.633049,49.8072519 L328.633049,47.8072519 L331.781904,47.8072519 Z M338.079614,47.8072519 L338.079614,49.8072519 L334.930759,49.8072519 L334.930759,47.8072519 L338.079614,47.8072519 Z M344.377323,47.8072519 L344.377323,49.8072519 L341.228469,49.8072519 L341.228469,47.8072519 L344.377323,47.8072519 Z M350.675033,47.8072519 L350.675033,49.8072519 L347.526178,49.8072519 L347.526178,47.8072519 L350.675033,47.8072519 Z M356.972743,47.8072519 L356.972743,49.8072519 L353.823888,49.8072519 L353.823888,47.8072519 L356.972743,47.8072519 Z M362.629415,47.8072519 L362.629415,49.8072519 L360.121598,49.8072519 L360.121598,47.8072519 L362.629415,47.8072519 Z" fill="#2B58F9" fill-rule="nonzero"></path>
                            <path id="路径-13备份" d="M463.529135,88.3630912 L465.494752,88.7323493 C465.367518,89.4096362 465.254856,90.0904284 465.156887,90.774384 C468.478058,91.4902855 470.869652,94.5410575 470.658648,98.0363162 C470.425687,101.895284 467.108524,104.834744 463.249556,104.601783 C459.390588,104.368823 456.451128,101.051659 456.684089,97.1926914 C456.897966,93.6498305 459.711458,90.8820048 463.157164,90.6325985 C463.2637,89.8720696 463.387785,89.1155182 463.529135,88.3630912 Z M458.680454,97.3132092 C458.514054,100.069615 460.613668,102.439017 463.370074,102.605418 C466.126479,102.771818 468.495882,100.672204 468.662282,97.9157984 C468.828682,95.1593928 466.729068,92.7899903 463.972663,92.6235899 C461.216257,92.4571895 458.846855,94.5568036 458.680454,97.3132092 Z M465.122178,82.1405212 L467.023379,82.7613562 C466.704546,83.7377257 466.417226,84.7250912 466.16198,85.7222065 L464.224454,85.2262294 C464.490462,84.187074 464.789899,83.1580679 465.122178,82.1405212 Z M467.523239,76.1458032 L469.327411,77.0089173 C468.883561,77.9366984 468.46977,78.8789043 468.086784,79.83421 L466.23041,79.0899811 C466.629521,78.0944546 467.060724,77.1126007 467.523239,76.1458032 Z M470.661196,70.5471566 L472.339172,71.635456 C471.77945,72.4984545 471.247675,73.3792955 470.744777,74.2766348 L469.000087,73.2988535 C469.524044,72.3639384 470.07807,71.44624 470.661196,70.5471566 Z M474.52149,65.3636718 L476.045007,66.6593939 C475.378455,67.4431293 474.737235,68.2480606 474.122446,69.0728837 L472.51888,67.8776525 C473.159279,67.0184704 473.827196,66.1800256 474.52149,65.3636718 Z M478.957651,60.775117 L480.304089,62.2540029 C479.543543,62.9464359 478.805343,63.6631384 478.090724,64.4029046 L476.652273,63.0133509 C477.396599,62.242833 478.165485,61.4963377 478.957651,60.775117 Z M483.996744,56.7492452 L485.141737,58.3890591 C484.298494,58.9778501 483.474333,59.5936879 482.670571,60.2355121 L481.422587,58.6726506 C482.259829,58.0040916 483.118338,57.3625886 483.996744,56.7492452 Z M489.517868,53.4039897 L490.441118,55.1781403 C489.528646,55.6529809 488.631853,56.1572037 487.752084,56.6899235 L486.716154,54.9791195 C487.632762,54.4240937 488.567133,53.8987424 489.517868,53.4039897 Z M495.439837,50.798208 L496.123985,52.6775538 C495.157214,53.0294932 494.202694,53.4125884 493.261737,53.8261414 L492.457023,51.9951756 C493.437597,51.5642112 494.432324,51.1649784 495.439837,50.798208 Z M501.515796,49.0178698 L501.954146,50.969241 C500.949637,51.1948907 499.954148,51.4528223 498.9689,51.7425128 L498.404726,49.8237353 C499.431514,49.5218305 500.468967,49.2530262 501.515796,49.0178698 Z M507.88096,48.0166958 L508.063295,50.008367 C507.03659,50.1023602 506.015855,50.2291258 505.002186,50.3882959 L504.69194,48.4125056 C505.748042,48.2466725 506.811436,48.1146091 507.88096,48.0166958 Z M514.289299,47.8072519 L514.2893,49.8072519 L512.471719,49.8072524 C512.033931,49.8073142 511.596848,49.813258 511.160543,49.8250638 L511.106445,47.8257955 C511.560684,47.8135045 512.015707,47.8073168 512.471578,47.8072524 L514.289299,47.8072519 Z M520.587009,47.8072519 L520.587009,49.8072519 L517.438154,49.8072519 L517.438154,47.8072519 L520.587009,47.8072519 Z M526.884719,47.8072519 L526.884719,49.8072519 L523.735864,49.8072519 L523.735864,47.8072519 L526.884719,47.8072519 Z M533.182429,47.8072519 L533.182429,49.8072519 L530.033574,49.8072519 L530.033574,47.8072519 L533.182429,47.8072519 Z M539.480139,47.8072519 L539.480139,49.8072519 L536.331284,49.8072519 L536.331284,47.8072519 L539.480139,47.8072519 Z M545.777849,47.8072519 L545.777849,49.8072519 L542.628994,49.8072519 L542.628994,47.8072519 L545.777849,47.8072519 Z M549.267529,47.8072519 L549.267529,49.8072519 L548.926704,49.8072519 L548.926704,47.8072519 L549.267529,47.8072519 Z" transform="translate(506.469449, 73.210878) scale(-1, 1) translate(-506.469449, -73.210878) " fill="#2B58F9" fill-rule="nonzero"></path>
                        </g>
                    </g>
                </g>
            </g>
        </g>
    </g>
</svg>