<?xml version="1.0" encoding="UTF-8"?>
<svg width="1200px" height="584px" viewBox="0 0 1200 584" version="1.1" xmlns="http://www.w3.org/2000/svg" xmlns:xlink="http://www.w3.org/1999/xlink">
    <title>banner3</title>
    <defs>
        <rect id="path-1" x="0" y="0" width="1200" height="584"></rect>
        <linearGradient x1="0%" y1="50%" x2="100%" y2="50%" id="linearGradient-3">
            <stop stop-color="#2B58F9" offset="0%"></stop>
            <stop stop-color="#2B58F9" offset="100%"></stop>
        </linearGradient>
        <linearGradient x1="100%" y1="50%" x2="0%" y2="50%" id="linearGradient-4">
            <stop stop-color="#FFFFFF" offset="0%"></stop>
            <stop stop-color="#D3DCFF" offset="100%"></stop>
        </linearGradient>
    </defs>
    <g id="首页" stroke="none" stroke-width="1" fill="none" fill-rule="evenodd">
        <g id="banner" transform="translate(-2608.000000, -119.000000)">
            <g id="编组-20" transform="translate(2608.000000, 119.000000)">
                <mask id="mask-2" fill="white">
                    <use xlink:href="#path-1"></use>
                </mask>
                <g id="矩形"></g>
                <g id="编组-57" mask="url(#mask-2)">
                    <g transform="translate(22.000000, 400.999489)">
                        <path d="M60,22.0005108 L569.019308,22.0005108 L569.019308,22.0005108 L1096,22.0005108 C1129.13708,22.0005108 1156,48.8634259 1156,82.0005108 C1156,115.137596 1129.13708,142.000511 1096,142.000511 L60,142.000511 C26.862915,142.000511 4.05812251e-15,115.137596 0,82.0005108 C-4.05812251e-15,48.8634259 26.862915,22.0005108 60,22.0005108 Z" id="矩形" stroke="#FFFFFF" stroke-width="44"></path>
                        <path d="M60,22.0005108 L569.019308,22.0005108 L569.019308,22.0005108 L1096,22.0005108 C1129.13708,22.0005108 1156,48.8634259 1156,82.0005108 C1156,115.137596 1129.13708,142.000511 1096,142.000511 L60,142.000511 C26.862915,142.000511 4.05812251e-15,115.137596 0,82.0005108 C-4.05812251e-15,48.8634259 26.862915,22.0005108 60,22.0005108 Z" id="矩形" stroke-opacity="0.177474869" stroke="#2B58F9" stroke-width="2" stroke-dasharray="3,8"></path>
                        <g id="编组-6" stroke="none" stroke-width="1" fill-rule="evenodd" transform="translate(65.750000, 0.000000)">
                            <rect id="矩形" fill="url(#linearGradient-3)" x="391.25" y="0.000510843897" width="248" height="44" rx="22"></rect>
                            <rect id="矩形备份-20" fill="url(#linearGradient-4)" x="8" y="0" width="197.5" height="44.0005108" rx="22.0002554"></rect>
                            <g id="编组-48" transform="translate(0.000000, 120.000000)">
                                <rect id="矩形备份-24" fill="url(#linearGradient-4)" transform="translate(98.750000, 22.000255) scale(-1, 1) translate(-98.750000, -22.000255) " x="0" y="0" width="197.5" height="44.0005108" rx="22.0002554"></rect>
                                <rect id="矩形备份-25" fill="url(#linearGradient-4)" transform="translate(512.250000, 22.000255) scale(-1, 1) translate(-512.250000, -22.000255) " x="413.5" y="0" width="197.5" height="44.0005108" rx="22.0002554"></rect>
                                <rect id="矩形备份-26" fill="url(#linearGradient-4)" transform="translate(918.750000, 22.000255) scale(-1, 1) translate(-918.750000, -22.000255) " x="820" y="0" width="197.5" height="44.0005108" rx="22.0002554"></rect>
                                <text id="策略生成和迭代" font-family="PingFangSC-Semibold, PingFang SC" font-size="18" font-weight="500" line-spacing="24" fill="#1A1A1A">
                                    <tspan x="35.75" y="30.0005108">策略生成和迭代</tspan>
                                </text>
                                <text id="策略自动化执行" font-family="PingFangSC-Semibold, PingFang SC" font-size="18" font-weight="500" line-spacing="24" fill="#1A1A1A">
                                    <tspan x="449.25" y="30.0005108">策略自动化执行</tspan>
                                </text>
                                <text id="触达和对话交互" font-family="PingFangSC-Semibold, PingFang SC" font-size="18" font-weight="500" line-spacing="24" fill="#1A1A1A">
                                    <tspan x="855.25" y="30.0005108">触达和对话交互</tspan>
                                </text>
                            </g>
                            <rect id="矩形备份-27" fill="url(#linearGradient-4)" x="820" y="0" width="197.5" height="44.0005108" rx="22.0002554"></rect>
                            <g id="编组-5" transform="translate(417.250000, 8.681545)" fill="#FFFFFF" fill-opacity="0.9" font-family="PingFangSC-Semibold, PingFang SC" font-size="20" font-weight="500">
                                <text id="智能用户运营平台">
                                    <tspan x="18.5" y="21">智能用户运营平台</tspan>
                                </text>
                            </g>
                        </g>
                        <text id="用户感知洞察" stroke="none" font-family="PingFangSC-Semibold, PingFang SC" font-size="18" font-weight="500" line-spacing="24">
                            <tspan x="118.5" y="30.6815453" fill="#1A1A1A">用户感知洞察</tspan>
                        </text>
                        <text id="策略效果分析" stroke="none" font-family="PingFangSC-Semibold, PingFang SC" font-size="18" font-weight="500" line-spacing="24">
                            <tspan x="930.5" y="30.6815453" fill="#1A1A1A">策略效果分析</tspan>
                        </text>
                    </g>
                </g>
            </g>
        </g>
    </g>
</svg>