<?xml version="1.0" encoding="UTF-8"?>
<svg width="37px" height="36px" viewBox="0 0 37 36" version="1.1" xmlns="http://www.w3.org/2000/svg" xmlns:xlink="http://www.w3.org/1999/xlink">
    <title>编组 14备份 4</title>
    <g id="页面-1" stroke="none" stroke-width="1" fill="none" fill-rule="evenodd">
        <g id="图标" transform="translate(-400.000000, -87.000000)">
            <g id="编组-21" transform="translate(400.971159, 87.864607)">
                <rect id="矩形备份-3" x="0" y="0" width="36" height="35.6698307"></rect>
                <g id="编组-3" transform="translate(0.000000, 0.540362)">
                    <rect id="矩形" fill="#000000" fill-rule="nonzero" opacity="0" x="0" y="0" width="35.7878619" height="35.4596381"></rect>
                    <path d="M35.7878619,25.9209955 C35.7878619,26.5119894 35.6864629,27.0675238 35.4836651,27.5875985 C35.2808672,28.1076732 35.0005289,28.5804683 34.6426503,29.005984 C34.2847717,29.4314997 33.861282,29.7801861 33.3721812,30.0520433 C32.8830804,30.3239005 32.3522271,30.5071087 31.7796213,30.6016677 L31.7796213,30.672587 L7.76596603,30.672587 C7.71824888,30.672587 7.68842566,30.6784969 7.67649637,30.6903168 C7.66456709,30.7021367 7.63474387,30.7080466 7.58702672,30.7080466 C7.53930957,30.7080466 7.50352171,30.7021367 7.47966313,30.6903168 C7.45580456,30.6784969 7.4200167,30.672587 7.37229955,30.672587 L7.15757238,30.672587 L7.15757238,30.6371273 C6.15551224,30.5898478 5.21906319,30.3652701 4.34822522,29.9633942 C3.47738725,29.5615183 2.7198775,29.0237138 2.07569599,28.3499807 C1.43151448,27.6762476 0.924519765,26.8961355 0.554711859,26.0096446 C0.184903953,25.1231536 0,24.1834732 0,23.1906033 C0,22.1977335 0.184903953,21.263963 0.554711859,20.3892919 C0.924519765,19.5146209 1.42554983,18.7463287 2.05780206,18.0844154 C2.69005428,17.4225022 3.4296701,16.8787878 4.27664949,16.4532721 C5.12362889,16.0277564 6.03621937,15.779539 7.01442093,15.7086197 C7.18143095,14.1720354 7.61088529,12.73592 8.30278396,11.4002737 C8.99468262,10.0646273 9.88341452,8.90036917 10.9689797,7.9074993 C12.0545448,6.91462944 13.3011553,6.1345174 14.7088112,5.56716319 C16.1164671,4.99980898 17.6195573,4.71613187 19.2180818,4.71613187 C20.9120406,4.71613187 22.5105651,5.03526862 24.0136553,5.6735421 C25.5167455,6.31181559 26.8230025,7.18648666 27.9324262,8.29755532 C29.0418499,9.40862399 29.9186525,10.7029008 30.562834,12.1803857 C31.2070156,13.6578706 31.5291063,15.2358245 31.5291063,16.9142474 C31.5291063,17.6707197 31.4575306,18.4094621 31.3143791,19.1304748 C31.1712277,19.8514874 30.9684298,20.5429504 30.7059855,21.2048636 C30.7537026,21.2048636 30.8073844,21.1989537 30.8670309,21.1871338 C30.9266773,21.1753139 30.9803591,21.169404 31.0280762,21.169404 C31.6961163,21.169404 32.3164393,21.2935127 32.8890451,21.5417302 C33.4616509,21.7899476 33.9626809,22.1268142 34.3921353,22.5523299 C34.8215896,22.9778455 35.1615743,23.4801904 35.4120893,24.0593645 C35.6626044,24.6385386 35.7878619,25.2590822 35.7878619,25.9209955 Z" id="路径" fill="#2B58F9" fill-rule="nonzero"></path>
                    <path d="M24.0136553,20.672969 C24.2999582,20.2001739 24.3834632,19.9283166 24.2641704,19.8573974 C24.1448775,19.7864781 23.8466453,19.7510184 23.3694738,19.7510184 C23.0831709,19.7510184 22.6835398,19.7451085 22.1705804,19.7332886 C21.6576211,19.7214687 21.2699192,19.7155588 21.0074749,19.7155588 C20.6257377,19.7155588 20.3811873,19.5619004 20.2738238,19.2545835 C20.1664602,18.9472666 20.1127784,18.521751 20.1127784,17.9780365 C20.1127784,17.2215643 20.1068137,16.6128405 20.0948844,16.1518652 C20.0829552,15.6908899 20.0769905,15.188545 20.0769905,14.6448306 C20.0769905,14.0301968 20.035238,13.5810414 19.951733,13.2973643 C19.868228,13.0136872 19.5282433,12.8718486 18.9317789,12.8718486 C18.5023246,12.8718486 18.1802338,12.8777586 17.9655067,12.8895785 C17.7507795,12.9013983 17.4525473,12.9073083 17.0708101,12.9073083 C16.4266286,12.9073083 16.0269975,13.0905164 15.8719167,13.4569327 C15.716836,13.8233489 15.6392956,14.1838553 15.6392956,14.5384516 L15.6392956,15.6731601 C15.6392956,15.9804769 15.6452603,16.2759739 15.6571896,16.559651 C15.6691189,16.8433281 15.6750835,17.1388251 15.6750835,17.446142 L15.6750835,18.4744715 C15.6750835,18.8527076 15.6273664,19.1422947 15.5319321,19.3432326 C15.4364978,19.5441706 15.2098413,19.6446395 14.8519627,19.6446395 C14.7088112,19.6682793 14.511978,19.6860091 14.261463,19.697829 C14.0109479,19.7096489 13.7544682,19.7214687 13.4920239,19.7332886 C13.2295796,19.7451085 12.9790646,19.7510184 12.7404788,19.7510184 L12.167873,19.7510184 C11.666843,19.7510184 11.3686108,19.9046769 11.2731765,20.2119937 C11.1777422,20.5193106 11.3328229,20.9093666 11.7384187,21.3821618 C12.1440145,21.8785967 12.5794334,22.4164012 13.0446757,22.9955753 C13.5099179,23.5747494 13.9691954,24.1598334 14.4225083,24.7508274 C14.8758213,25.3418214 15.3112402,25.9150855 15.7287653,26.4706199 C16.1462904,27.0261542 16.5339922,27.5048593 16.8918708,27.9067352 C17.5360523,28.615928 18.1563753,28.6041081 18.7528396,27.8712756 C19.1107182,27.4693997 19.5282433,26.949325 20.0054148,26.3110515 C20.4825863,25.672778 20.9716871,25.0049548 21.4727171,24.3075819 C21.9737472,23.6102091 22.4509187,22.9364759 22.9042316,22.2863826 C23.3575445,21.6362892 23.7273524,21.0984847 24.0136553,20.672969 L24.0136553,20.672969 Z" id="路径" fill="#FFFFFF" fill-rule="nonzero"></path>
                    <ellipse id="椭圆形" fill="#00C8BD" cx="31.1570127" cy="25.9094761" rx="4.84298731" ry="4.79857048"></ellipse>
                </g>
            </g>
        </g>
    </g>
</svg>