<?xml version="1.0" encoding="UTF-8"?>
<svg width="1200px" height="584px" viewBox="0 0 1200 584" version="1.1" xmlns="http://www.w3.org/2000/svg" xmlns:xlink="http://www.w3.org/1999/xlink">
    <title>banner1</title>
    <defs>
        <rect id="path-1" x="0" y="0" width="1200" height="584"></rect>
        <linearGradient x1="50%" y1="62.0822895%" x2="50%" y2="0%" id="linearGradient-3">
            <stop stop-color="#000000" stop-opacity="0" offset="0%"></stop>
            <stop stop-color="#000000" offset="100%"></stop>
        </linearGradient>
        <rect id="path-4" x="0" y="0" width="1172" height="568" rx="20"></rect>
        <linearGradient x1="-23.6287678%" y1="117.378238%" x2="50%" y2="3.18030225%" id="linearGradient-6">
            <stop stop-color="#17A9FF" offset="0%"></stop>
            <stop stop-color="#E8FBFF" offset="100%"></stop>
        </linearGradient>
        <rect id="path-7" x="0" y="0" width="257.419355" height="239" rx="24"></rect>
        <filter x="-9.7%" y="-9.6%" width="119.4%" height="120.9%" filterUnits="objectBoundingBox" id="filter-8">
            <feOffset dx="0" dy="2" in="SourceAlpha" result="shadowOffsetOuter1"></feOffset>
            <feGaussianBlur stdDeviation="8" in="shadowOffsetOuter1" result="shadowBlurOuter1"></feGaussianBlur>
            <feComposite in="shadowBlurOuter1" in2="SourceAlpha" operator="out" result="shadowBlurOuter1"></feComposite>
            <feColorMatrix values="0 0 0 0 0.204737413   0 0 0 0 0.418516171   0 0 0 0 0.719076405  0 0 0 0.136478024 0" type="matrix" in="shadowBlurOuter1"></feColorMatrix>
        </filter>
        <rect id="path-9" x="0" y="0" width="130.952381" height="110"></rect>
        <linearGradient x1="87.7794569%" y1="8.03216967%" x2="31.5150074%" y2="92.3589284%" id="linearGradient-11">
            <stop stop-color="#00A3FF" offset="0%"></stop>
            <stop stop-color="#00A3FF" stop-opacity="0" offset="100%"></stop>
        </linearGradient>
        <path d="M10.2430692,73.3595228 L10.8956129,73.6698789 L63.7755231,101.800877 C64.571308,102.27039 65.4307558,102.365884 66.2504143,102.095317 L66.8631687,101.824751 L118.310666,74.8874299 C120.101373,73.854241 122.384999,74.3645622 123.565553,76.0617379 C124.746107,77.7589135 124.430229,80.0774468 122.838682,81.3969508 L122.241844,81.8028011 L70.7943463,108.74808 C67.7266029,110.517583 63.9905041,110.686731 60.7754138,109.201677 L59.7249776,108.644628 L6.84506748,80.5295452 C5.06630499,79.4856849 4.38001613,77.2556902 5.26407343,75.3923375 C6.14813073,73.5289849 8.30944776,72.650021 10.2430692,73.3674806 L10.2430692,73.3595228 Z M10.1316593,48.6901892 L10.7762451,49.0005453 L63.6641132,77.1315434 C64.4598981,77.6010566 65.3193459,77.6965508 66.1390044,77.4259839 L66.7517588,77.155417 L118.199256,50.2180963 C119.988846,49.2029856 122.257186,49.7196212 123.430667,51.4095991 C124.604148,53.099577 124.295706,55.4054696 122.719315,56.7276172 L122.130434,57.1334676 L70.6829364,84.0787461 C67.615193,85.8482491 63.8790942,86.0173973 60.6640039,84.5323435 L59.6135677,83.975294 L6.73365758,55.8602116 C4.95489509,54.8163513 4.26860623,52.5863566 5.15266354,50.723004 C6.03672084,48.8596513 8.19803786,47.9806874 10.1316593,48.6981471 L10.1316593,48.6901892 Z M69.8394044,1.46831006 L122.058813,27.5780144 C123.409318,28.2511032 124.262874,29.6302081 124.262874,31.1391521 C124.262874,32.648096 123.409318,34.0272009 122.058813,34.7002897 L69.9826457,60.7383734 C66.5618657,62.4484318 62.5288311,62.4158835 59.1360968,60.6508371 L7.03605586,33.5702751 C5.69576076,32.8763131 4.86348877,31.4837623 4.88660575,29.974651 C4.91070119,28.4655397 5.78612117,27.0997014 7.14746576,26.4479998 L59.335043,1.38077372 C62.6618362,-0.215115274 66.5396695,-0.182799996 69.8394044,1.46831006 Z" id="path-12"></path>
        <filter x="-0.8%" y="-0.9%" width="101.7%" height="101.8%" filterUnits="objectBoundingBox" id="filter-13">
            <feGaussianBlur stdDeviation="0.5" in="SourceAlpha" result="shadowBlurInner1"></feGaussianBlur>
            <feOffset dx="0" dy="1" in="shadowBlurInner1" result="shadowOffsetInner1"></feOffset>
            <feComposite in="shadowOffsetInner1" in2="SourceAlpha" operator="arithmetic" k2="-1" k3="1" result="shadowInnerInner1"></feComposite>
            <feColorMatrix values="0 0 0 0 1   0 0 0 0 1   0 0 0 0 1  0 0 0 1 0" type="matrix" in="shadowInnerInner1"></feColorMatrix>
        </filter>
        <linearGradient x1="-16.7902235%" y1="115.596118%" x2="72.0830901%" y2="6.89939055%" id="linearGradient-14">
            <stop stop-color="#9EB2FF" offset="0%"></stop>
            <stop stop-color="#EFF5FF" offset="100%"></stop>
        </linearGradient>
        <rect id="path-15" x="4.54747351e-13" y="0" width="257.419355" height="239" rx="24"></rect>
        <filter x="-9.7%" y="-9.6%" width="119.4%" height="120.9%" filterUnits="objectBoundingBox" id="filter-16">
            <feOffset dx="0" dy="2" in="SourceAlpha" result="shadowOffsetOuter1"></feOffset>
            <feGaussianBlur stdDeviation="8" in="shadowOffsetOuter1" result="shadowBlurOuter1"></feGaussianBlur>
            <feComposite in="shadowBlurOuter1" in2="SourceAlpha" operator="out" result="shadowBlurOuter1"></feComposite>
            <feColorMatrix values="0 0 0 0 0.204737413   0 0 0 0 0.418516171   0 0 0 0 0.719076405  0 0 0 0.136478024 0" type="matrix" in="shadowBlurOuter1"></feColorMatrix>
        </filter>
        <rect id="path-17" x="0" y="0" width="130.952381" height="110"></rect>
        <linearGradient x1="5.04585486%" y1="86.2880098%" x2="77.3829161%" y2="18.6434586%" id="linearGradient-19">
            <stop stop-color="#9EB2FF" stop-opacity="0" offset="0%"></stop>
            <stop stop-color="#7D98FF" offset="100%"></stop>
        </linearGradient>
        <path d="M24.4427283,73.1012447 C23.0615072,73.1012447 21.7592129,73.3774889 20.5226911,73.811587 C15.9712385,75.4164345 12.6826167,79.6653338 12.6826167,84.7035025 C12.6826167,91.0965833 17.9575661,96.3057602 24.4427283,96.3057602 C29.4151245,96.2926058 33.8350322,93.1881468 35.4793431,88.5709217 C35.9265957,87.3607089 36.2028399,86.0584147 36.2028399,84.7035025 C36.1896855,83.3880537 35.9397502,82.072605 35.4793431,80.8360832 C34.2954393,77.5606159 31.6776963,74.9823364 28.3627655,73.811587 C27.1262437,73.3774889 25.8239495,73.1012447 24.4427283,73.1012447 Z M44.0266968,84.9967711 L44.0297599,84.7035025 C44.0166054,95.3717917 35.2557169,104.027444 24.4427283,104.040599 C13.6428943,104.040599 4.85569677,95.3586372 4.85569677,84.7035025 C4.86885126,75.5216704 11.4066314,67.6158235 20.5226911,65.7610408 C21.7986764,65.5111055 23.1009706,65.3664062 24.4427283,65.3664062 C35.1276705,65.4054498 43.8039422,73.8525824 44.0255518,84.3637253 L44.0296968,84.7027711 L44.0285419,84.4846603 C44.0244818,84.0814657 44.0102717,83.6009616 43.9859116,83.1235024 L43.9642581,82.7437084 C43.9007412,81.7407835 43.7910303,80.8492377 43.6351253,80.8492377 L103.146026,80.8492377 C109.631188,80.8360832 114.879828,75.6532152 114.892983,69.2469799 C114.892983,62.8802081 109.657497,57.6447222 103.224953,57.6447222 L24.4427283,57.6447222 C23.1009706,57.6447222 21.7855219,57.4737138 20.5226911,57.2237786 C11.4066314,55.3558414 4.86885126,47.43684 4.85569677,38.2418534 C4.85569677,27.5735642 13.6428943,18.9705296 24.4427283,18.983669 L60.5254869,18.983669 C62.6565139,18.983669 64.3534427,20.7069219 64.3534427,22.8116398 L64.3534427,22.8905668 C64.3534427,24.9952847 62.6565139,26.7185226 60.5254869,26.7185226 L24.4295738,26.7185226 C17.9444116,26.7316771 12.6826167,31.914545 12.6826167,38.3207803 C12.6826167,44.6875522 17.9049482,49.9230381 24.3506469,49.9230381 L103.119717,49.9230381 C104.422011,49.9230381 105.697996,50.0151195 106.934518,50.2650548 C116.49783,52.132992 123.574944,60.8412626 122.627821,71.0096812 C121.680698,81.072864 112.748801,88.5840762 102.51461,88.5840762 L43.6351253,88.5840762 C43.8787269,88.5840762 44.00955,86.4074507 44.0275945,85.0302996 L44.0266968,84.9967711 L44.0292185,84.8690694 C44.0295794,84.8167321 44.0297599,84.7658645 44.0297599,84.716657 L44.0266968,84.9967711 Z M103.027635,3.40877112 C113.827469,3.40877112 122.614667,12.0907327 122.614667,22.7458674 C122.601512,33.4141566 113.840624,42.0566547 103.027635,42.0829637 C93.7274128,42.0566547 85.71633,35.5978015 83.8352384,26.6132867 C83.3090589,24.0613161 83.3090589,21.4304187 83.8352384,18.8784482 C85.7031756,9.88077886 93.7274128,3.42192561 103.027635,3.40877112 Z M103.027635,10.6327722 C97.2018133,10.6410124 92.1752908,14.686951 91.0051823,20.3232484 C90.6755742,21.9218473 90.6755742,23.5698875 91.0051823,25.1684865 C92.183531,30.7965436 97.2018133,34.8424822 103.027635,34.8589626 C109.80108,34.8424822 115.289054,29.4286703 115.297294,22.7458674 C115.297294,16.0713047 109.79284,10.6327722 103.027635,10.6327722 Z M78.9812326,19.0757655 C79.1653954,19.0757655 79.3100947,19.2204648 79.3100947,19.4046276 L79.3100947,26.4422783 C79.3100947,26.6132867 79.1653954,26.7711405 78.9812326,26.7711405 L68.6549601,26.7711405 C68.4707972,26.7711405 68.3260979,26.6264412 68.3260979,26.4422783 L68.3260979,19.4046276 C68.3260979,19.2204648 68.4707972,19.0757655 68.6549601,19.0757655 L78.9812326,19.0757655 Z" id="path-20"></path>
        <filter x="-0.8%" y="-1.0%" width="101.7%" height="102.0%" filterUnits="objectBoundingBox" id="filter-21">
            <feGaussianBlur stdDeviation="0.5" in="SourceAlpha" result="shadowBlurInner1"></feGaussianBlur>
            <feOffset dx="0" dy="1" in="shadowBlurInner1" result="shadowOffsetInner1"></feOffset>
            <feComposite in="shadowOffsetInner1" in2="SourceAlpha" operator="arithmetic" k2="-1" k3="1" result="shadowInnerInner1"></feComposite>
            <feColorMatrix values="0 0 0 0 1   0 0 0 0 1   0 0 0 0 1  0 0 0 1 0" type="matrix" in="shadowInnerInner1"></feColorMatrix>
        </filter>
        <linearGradient x1="4.92308458%" y1="93.1006094%" x2="66.5057763%" y2="11.7711509%" id="linearGradient-22">
            <stop stop-color="#D7C0FF" offset="0%"></stop>
            <stop stop-color="#FBFBFF" offset="100%"></stop>
        </linearGradient>
        <rect id="path-23" x="4.54747351e-13" y="0" width="257.419355" height="239" rx="24"></rect>
        <filter x="-9.7%" y="-9.6%" width="119.4%" height="120.9%" filterUnits="objectBoundingBox" id="filter-24">
            <feOffset dx="0" dy="2" in="SourceAlpha" result="shadowOffsetOuter1"></feOffset>
            <feGaussianBlur stdDeviation="8" in="shadowOffsetOuter1" result="shadowBlurOuter1"></feGaussianBlur>
            <feComposite in="shadowBlurOuter1" in2="SourceAlpha" operator="out" result="shadowBlurOuter1"></feComposite>
            <feColorMatrix values="0 0 0 0 0.204737413   0 0 0 0 0.418516171   0 0 0 0 0.719076405  0 0 0 0.136478024 0" type="matrix" in="shadowBlurOuter1"></feColorMatrix>
        </filter>
        <rect id="path-25" x="0" y="0" width="130.952381" height="110"></rect>
        <linearGradient x1="8.90449921%" y1="100%" x2="99.9987633%" y2="0%" id="linearGradient-27">
            <stop stop-color="#FF8CCD" stop-opacity="0" offset="0%"></stop>
            <stop stop-color="#FF8CCD" offset="100%"></stop>
        </linearGradient>
        <path d="M149.889798,45.14139 C149.889798,46.9908788 148.395578,48.4850986 146.54609,48.4850986 L116.452712,48.4850986 C115.533192,48.4850986 114.697265,48.1089314 114.091217,47.5028843 C113.48517,46.8968371 113.109003,46.06091 113.109003,45.14139 C113.109003,38.7987926 116.327323,33.1980807 121.207047,29.8961684 C117.299088,26.8345852 114.780857,22.0698004 114.780857,16.7198665 C114.780857,7.55601498 122.147466,0.116263214 131.27997,0.00132327108 C140.45427,-0.113616776 148.071657,7.27388953 148.217944,16.4481902 C148.301537,21.913064 145.772857,26.7823397 141.791754,29.8961684 C144.236841,31.5471246 146.263964,33.7727806 147.674591,36.3746039 C149.085218,38.9868763 149.889798,41.9648668 149.889798,45.14139 Z M184.998739,103.656291 C184.998739,105.50578 183.504519,107 181.65503,107 L151.561652,107 C150.642133,107 149.806205,106.623833 149.200158,106.017786 C148.594111,105.411738 148.217944,104.575811 148.217944,103.656291 C148.217944,97.313694 151.436263,91.7129821 156.315988,88.4110697 C152.408029,85.3494865 149.889798,80.5847016 149.889798,75.2347678 C149.889798,66.0709163 157.256406,58.6311646 166.388911,58.5162245 C175.563211,58.4012846 183.180597,65.7887909 183.326885,74.9630916 C183.410477,80.4279653 180.881798,85.2972411 176.900695,88.4110697 C179.345782,90.0620259 181.372905,92.2876819 182.783532,94.8895053 C184.194159,97.5017776 184.998739,100.479768 184.998739,103.656291 L184.998739,103.656291 Z M114.780857,103.656291 C114.780857,105.50578 113.286638,107 111.437149,107 L81.3437708,107 C80.424251,107 79.5883238,106.623833 78.9822767,106.017786 C78.3762295,105.411738 78.0000622,104.575811 78.0000622,103.656291 C78.0000622,97.313694 81.2183818,91.7129821 86.0981066,88.4110697 C82.1901471,85.3494865 79.6719165,80.5847016 79.6719165,75.2347678 C79.6719165,66.0709163 87.0385246,58.6311646 96.1710289,58.5162245 C105.34533,58.4012846 112.962716,65.7887909 113.109003,74.9630916 C113.192596,80.4279653 110.663916,85.2972411 106.682813,88.4110697 C109.1279,90.0620259 111.155023,92.2876819 112.56565,94.8895053 C113.976277,97.5017776 114.780857,100.479768 114.780857,103.656291 L114.780857,103.656291 Z M144.383128,75.2347678 C143.766632,76.3110241 142.63813,76.9066222 141.48873,76.9066222 C140.924479,76.9066222 140.349779,76.7603349 139.816876,76.4573113 L131.499401,71.6611792 L123.181925,76.4573113 C121.583215,77.3768312 119.535193,76.8334785 118.615673,75.2347678 C118.31265,74.7123133 118.166362,74.1376134 118.166362,73.5629135 C118.166362,72.4030645 118.761961,71.285012 119.838217,70.6685158 L128.155692,65.8723836 L128.155692,56.8443702 C128.155692,54.9948814 129.649912,53.5006616 131.499401,53.5006616 C132.41892,53.5006616 133.254848,53.8768288 133.860895,54.4828761 C134.466942,55.0889232 134.843109,55.9248504 134.843109,56.8443702 L134.843109,65.8619345 L143.160584,70.6580666 C144.759295,71.5880356 145.302648,73.6360572 144.383128,75.2347678 L144.383128,75.2347678 Z" id="path-28"></path>
        <filter x="-0.9%" y="-0.9%" width="101.9%" height="101.9%" filterUnits="objectBoundingBox" id="filter-29">
            <feGaussianBlur stdDeviation="0.5" in="SourceAlpha" result="shadowBlurInner1"></feGaussianBlur>
            <feOffset dx="0" dy="1" in="shadowBlurInner1" result="shadowOffsetInner1"></feOffset>
            <feComposite in="shadowOffsetInner1" in2="SourceAlpha" operator="arithmetic" k2="-1" k3="1" result="shadowInnerInner1"></feComposite>
            <feColorMatrix values="0 0 0 0 1   0 0 0 0 1   0 0 0 0 1  0 0 0 1 0" type="matrix" in="shadowInnerInner1"></feColorMatrix>
        </filter>
        <linearGradient x1="83.0069268%" y1="12.180404%" x2="7.51491295%" y2="93.1006094%" id="linearGradient-30">
            <stop stop-color="#F5FDFA" offset="0%"></stop>
            <stop stop-color="#8FFFD3" offset="100%"></stop>
        </linearGradient>
        <rect id="path-31" x="0" y="0.5" width="257.419355" height="239" rx="24"></rect>
        <filter x="-9.7%" y="-9.6%" width="119.4%" height="120.9%" filterUnits="objectBoundingBox" id="filter-32">
            <feOffset dx="0" dy="2" in="SourceAlpha" result="shadowOffsetOuter1"></feOffset>
            <feGaussianBlur stdDeviation="8" in="shadowOffsetOuter1" result="shadowBlurOuter1"></feGaussianBlur>
            <feComposite in="shadowBlurOuter1" in2="SourceAlpha" operator="out" result="shadowBlurOuter1"></feComposite>
            <feColorMatrix values="0 0 0 0 0.204737413   0 0 0 0 0.418516171   0 0 0 0 0.719076405  0 0 0 0.136478024 0" type="matrix" in="shadowBlurOuter1"></feColorMatrix>
        </filter>
        <rect id="path-33" x="0" y="0" width="130.952381" height="110"></rect>
        <linearGradient x1="88.0404051%" y1="6.05379449%" x2="31.5150074%" y2="93.9462055%" id="linearGradient-35">
            <stop stop-color="#2CC578" offset="0%"></stop>
            <stop stop-color="#2CC578" stop-opacity="0" offset="100%"></stop>
        </linearGradient>
        <path d="M99.859392,35.4327796 C100.410815,34.8813563 101.25483,34.7575675 101.963803,35.106427 C103.910665,36.0854846 106.105104,36.6369078 108.434586,36.6369078 C116.390835,36.6369078 122.839111,30.1886322 122.839111,22.2323827 C122.839111,14.2873869 116.379582,7.82785767 108.434586,7.82785767 C100.478336,7.82785767 94.0300607,14.2761333 94.0300607,22.2323827 C94.0300607,24.3480474 94.4914557,26.3624302 95.3129638,28.1742493 C95.6168092,28.8494615 95.4592597,29.6484625 94.9415971,30.1773786 L92.2182416,32.9007341 C91.5767901,33.5421856 90.5414648,33.6097069 89.8324921,33.0357766 C85.5448952,29.6484625 80.1206912,27.6340797 74.2350923,27.6340797 C72.1194277,27.6340797 70.0600307,27.892911 68.0906621,28.3880665 C67.3141681,28.5793766 66.5039136,28.230517 66.0987863,27.5440514 L65.356053,26.2611484 C64.9734328,25.6084433 65.0522075,24.7869352 65.5361096,24.2017514 C67.6292671,21.6584525 68.8784095,18.3949272 68.8333954,14.8388101 C68.72086,7.0401102 62.328852,0.693116337 54.5301521,0.625064145 C46.5851562,0.558073915 40.1143735,6.93882838 40.0130917,14.8388101 C39.9118099,22.7500454 46.2813108,29.3108564 54.1925461,29.4233918 C55.2503784,29.4458988 56.2857036,29.344617 57.2760147,29.1420534 C58.0412551,28.9845039 58.8064955,29.3333635 59.2003692,30.0085756 L59.447947,30.4362099 C59.8980884,31.2239574 59.6955248,32.225522 58.9752985,32.7769453 C54.2037996,36.4118371 50.7602178,41.7122522 49.5223289,47.8116683 C49.3535259,48.6444299 48.6107926,49.2408673 47.7555239,49.2408673 L37.1659473,49.2408673 C36.4232139,49.2408673 35.7480018,48.7907259 35.4891705,48.0930067 C33.4522806,42.6913098 28.2531474,38.8426007 22.1537313,38.7750795 C14.2087354,38.6963048 7.65917792,45.1333269 7.60254604,53.0783228 C7.54664256,61.0795863 14.0174253,67.5841297 22.0074353,67.5841297 C28.3881898,67.5841297 33.8011402,63.4315752 35.6917342,57.6922722 C35.9393119,56.9495389 36.6257776,56.4431298 37.4022715,56.4431298 L47.7555239,56.4431298 C48.6107926,56.4431298 49.3535259,57.0508207 49.5223289,57.8948359 C50.5914148,63.1502368 53.2922632,67.7979469 57.0621975,71.3090498 C57.6698884,71.8717266 57.8049309,72.7945165 57.3885501,73.5147428 L54.9465329,77.746072 C54.5414056,78.4550447 53.6973905,78.8039043 52.8983895,78.5788336 C51.6492471,78.229974 50.343837,78.0499174 48.9821592,78.0499174 C41.1271917,78.061171 34.6901695,84.4419254 34.6001412,92.296893 C34.510113,100.365678 41.0596705,106.926489 49.1284552,106.858968 C56.9496622,106.791446 63.3416702,100.410692 63.4091914,92.5894849 C63.442952,89.4384951 62.4526409,86.5238295 60.7646106,84.13808 C60.3594834,83.5641497 60.3257227,82.8101628 60.6745823,82.2024719 L63.4767126,77.3521983 C63.9156005,76.5982114 64.8271368,76.2606053 65.6486449,76.5644508 C68.3157328,77.5322548 71.1966378,78.0499174 74.2013317,78.0499174 C78.1288155,78.0499174 81.8424821,77.1496346 85.1510214,75.5516326 C86.0062901,75.1465054 87.0303618,75.4503508 87.5030103,76.2718589 L91.6668183,83.4741214 C88.7071386,86.1187022 86.8277982,89.9674112 86.8277982,94.2550082 C86.8277982,102.233765 93.3548486,108.715801 101.333605,108.659897 C109.177319,108.603266 115.535567,102.278779 115.636848,94.4463183 C115.73813,86.5575901 109.222333,79.8954972 101.333605,79.8504831 C100.635886,79.8504831 99.9494203,79.8954972 99.2742081,79.9855255 C98.5427284,80.0868073 97.8337556,79.7379477 97.462389,79.1077498 L93.0510032,71.4665993 C92.668383,70.8026408 92.7471577,69.9698792 93.2535668,69.3959489 C97.1022759,64.9733095 99.4317576,59.1889924 99.4317576,52.8532521 C99.4317576,48.4756269 98.3176577,44.356833 96.348289,40.7669553 C95.9656688,40.0692361 96.1007112,39.2027139 96.663388,38.6400371 L99.859392,35.4327796 L99.859392,35.4327796 Z M104.844708,20.1279717 C104.991004,18.3724202 106.420203,16.9544747 108.187008,16.8306858 C110.291419,16.6843899 112.035717,18.3499131 112.035717,20.4205636 C112.035717,21.4896494 111.563069,22.4574535 110.820335,23.121412 C111.450533,23.6728353 111.878168,24.4380757 112.001956,25.3045979 C112.046971,25.5746827 111.833153,25.8222605 111.551815,25.8222605 L105.317357,25.8222605 C105.047272,25.8222605 104.833455,25.5746827 104.867215,25.3045979 C104.991004,24.4380757 105.418638,23.6728353 106.048836,23.121412 C105.238582,22.4124393 104.75468,21.3208464 104.844708,20.1279717 L104.844708,20.1279717 Z M25.574806,55.9254672 C25.6198201,56.195552 25.406003,56.4431298 25.1246646,56.4431298 L18.8902061,56.4431298 C18.6201212,56.4431298 18.4063041,56.195552 18.4400647,55.9254672 C18.5638535,55.058945 18.9914879,54.2937046 19.6216859,53.7422814 C18.8001778,53.0220551 18.3162758,51.9304622 18.4175576,50.7375875 C18.5638535,48.982036 19.9930525,47.5640905 21.7598575,47.4403016 C23.8642686,47.2940057 25.6085666,48.9595289 25.6085666,51.0301794 C25.6085666,52.0992652 25.1359181,53.0670693 24.3931848,53.7310278 C25.0121292,54.2937046 25.4510171,55.058945 25.574806,55.9254672 Z M52.5832905,95.5379112 C52.6283047,95.807996 52.4144875,96.0555738 52.1331491,96.0555738 L45.8986906,96.0555738 C45.6286058,96.0555738 45.4147886,95.807996 45.4485492,95.5379112 C45.5723381,94.671389 45.9999724,93.9061486 46.6301704,93.3547253 C45.8086623,92.6344991 45.3247603,91.5429062 45.4260421,90.3500314 C45.5723381,88.5944799 47.001537,87.1765345 48.7683421,87.0527456 C50.8727532,86.9064497 52.6170511,88.5719729 52.6170511,90.6426234 C52.6170511,91.7117092 52.1444026,92.6795132 51.4016693,93.3434718 C52.0206138,93.9061486 52.4595016,94.671389 52.5832905,95.5379112 Z M57.9849874,18.1135889 C58.0300016,18.3836737 57.8161844,18.6312515 57.534846,18.6312515 L51.3003875,18.6312515 C51.0303027,18.6312515 50.8164855,18.3836737 50.8502461,18.1135889 C50.974035,17.2470666 51.4016693,16.4818263 52.0318673,15.930403 C51.2103592,15.2101768 50.7264572,14.1185839 50.827739,12.9257091 C50.974035,11.1701576 52.403234,9.75221219 54.170039,9.6284233 C56.2744501,9.48212734 58.018748,11.1476506 58.018748,13.218301 C58.018748,14.2873869 57.5460995,15.2551909 56.8033662,15.9191495 C57.4223107,16.4818263 57.8611985,17.2470666 57.9849874,18.1135889 Z M81.3585801,60.820755 C81.4373548,61.3609247 81.0097205,61.8448267 80.4695508,61.8448267 L67.9893802,61.8448267 C67.437957,61.8448267 67.0215762,61.3609247 67.100351,60.820755 C67.4267035,58.5475409 68.8108883,56.6119328 70.7352428,55.542847 C68.4282681,54.259944 66.8977873,51.7504056 67.0328297,48.8920077 C67.2016328,45.2008481 70.1950731,42.2074078 73.8862327,42.0386047 C78.0162801,41.8472946 81.4373548,45.1445805 81.4373548,49.2296137 C81.4373548,51.9417157 79.9406346,54.3049581 77.7236882,55.5315935 C79.6480427,56.6119328 81.0322276,58.5475409 81.3585801,60.820755 Z M97.6424455,92.1505971 C97.7887415,90.3950456 99.2179405,88.9771001 100.984746,88.8533113 C103.089157,88.7070153 104.833455,90.3725385 104.833455,92.443189 C104.833455,93.5122748 104.360806,94.4800789 103.618073,95.1440374 C104.248271,95.6954607 104.675905,96.4607011 104.799694,97.3272233 C104.844708,97.5973081 104.630891,97.8448859 104.349553,97.8448859 L98.115094,97.8448859 C97.8450092,97.8448859 97.631192,97.5973081 97.6649526,97.3272233 C97.7887415,96.4607011 98.2163758,95.6954607 98.8465738,95.1440374 C98.0363193,94.4350647 97.5524173,93.3434718 97.6424455,92.1505971 L97.6424455,92.1505971 Z" id="path-36"></path>
        <filter x="-0.9%" y="-0.9%" width="101.7%" height="101.9%" filterUnits="objectBoundingBox" id="filter-37">
            <feGaussianBlur stdDeviation="0.5" in="SourceAlpha" result="shadowBlurInner1"></feGaussianBlur>
            <feOffset dx="0" dy="1" in="shadowBlurInner1" result="shadowOffsetInner1"></feOffset>
            <feComposite in="shadowOffsetInner1" in2="SourceAlpha" operator="arithmetic" k2="-1" k3="1" result="shadowInnerInner1"></feComposite>
            <feColorMatrix values="0 0 0 0 1   0 0 0 0 1   0 0 0 0 1  0 0 0 1 0" type="matrix" in="shadowInnerInner1"></feColorMatrix>
        </filter>
    </defs>
    <g id="首页" stroke="none" stroke-width="1" fill="none" fill-rule="evenodd">
        <g id="banner" transform="translate(-52.000000, -119.000000)">
            <g id="编组-20" transform="translate(52.000000, 119.000000)">
                <mask id="mask-2" fill="white">
                    <use xlink:href="#path-1"></use>
                </mask>
                <g id="矩形"></g>
                <g id="编组-57" mask="url(#mask-2)">
                    <g transform="translate(14.000000, 15.000000)">
                        <g id="矩形备份-21">
                            <mask id="mask-5" fill="white">
                                <use xlink:href="#path-4"></use>
                            </mask>
                            <use id="蒙版" fill="url(#linearGradient-3)" xlink:href="#path-4"></use>
                            <rect stroke="#FFFFFF" stroke-width="2" fill-opacity="0.152785" fill="#FFFFFF" mask="url(#mask-5)" x="11" y="8.5" width="1150" height="569" rx="20"></rect>
                        </g>
                        <g id="编组-47" transform="translate(44.064516, 37.500000)">
                            <g id="编组-5" transform="translate(0.000000, 0.500000)">
                                <g id="矩形">
                                    <use fill="black" fill-opacity="1" filter="url(#filter-8)" xlink:href="#path-7"></use>
                                    <use fill="#FFFFFF" fill-rule="evenodd" xlink:href="#path-7"></use>
                                    <rect stroke="#FFFFFF" stroke-width="1" stroke-linejoin="square" fill="url(#linearGradient-6)" fill-rule="evenodd" x="0.5" y="0.5" width="256.419355" height="238" rx="24"></rect>
                                </g>
                                <g id="形状" opacity="0.146722703" transform="translate(126.411674, 0.500000)">
                                    <mask id="mask-10" fill="white">
                                        <use xlink:href="#path-9"></use>
                                    </mask>
                                    <g id="蒙版"></g>
                                    <g fill-rule="nonzero" mask="url(#mask-10)">
                                        <use fill="url(#linearGradient-11)" xlink:href="#path-12"></use>
                                        <use fill="black" fill-opacity="1" filter="url(#filter-13)" xlink:href="#path-12"></use>
                                    </g>
                                </g>
                                <g id="编组-21" transform="translate(32.000000, 32.000000)" fill="#1A1A1A">
                                    <text id="效果" font-family="PingFangSC-Medium, PingFang SC" font-size="28.9032258" font-weight="400" line-spacing="25.2903226">
                                        <tspan x="9.09494702e-13" y="31">效果</tspan>
                                    </text>
                                    <text id="精细化数据驱动业务决策" font-family="PingFangSC-Regular, PingFang SC" font-size="12.6451613" font-weight="normal" line-spacing="25.2903226">
                                        <tspan x="9.09494702e-13" y="162.682547">精细化数据驱动业务决策</tspan>
                                    </text>
                                    <text id="业务转化效果提升" font-family="PingFangSC-Semibold, PingFang SC" font-size="12.6451613" font-weight="500" line-spacing="25.2903226">
                                        <tspan x="0" y="116">业务转化效果提升</tspan>
                                    </text>
                                    <text id="30%" font-family="DINAlternate-Bold, DIN Alternate" font-size="52.0258065" font-weight="bold">
                                        <tspan x="0.2" y="91">30</tspan>
                                        <tspan x="50.1427419" y="91" font-size="34.683871">%</tspan>
                                    </text>
                                </g>
                            </g>
                            <g id="编组-5备份" transform="translate(273.419355, 0.500000)">
                                <g id="矩形">
                                    <use fill="black" fill-opacity="1" filter="url(#filter-16)" xlink:href="#path-15"></use>
                                    <use fill="#FFFFFF" fill-rule="evenodd" xlink:href="#path-15"></use>
                                    <rect stroke="#FFFFFF" stroke-width="1" stroke-linejoin="square" fill="url(#linearGradient-14)" fill-rule="evenodd" x="0.5" y="0.5" width="256.419355" height="238" rx="24"></rect>
                                </g>
                                <g id="编组-2" opacity="0.179481143" transform="translate(126.499232, 0.000000)">
                                    <mask id="mask-18" fill="white">
                                        <use xlink:href="#path-17"></use>
                                    </mask>
                                    <g id="蒙版"></g>
                                    <g id="形状结合" fill-rule="nonzero" mask="url(#mask-18)">
                                        <use fill="url(#linearGradient-19)" xlink:href="#path-20"></use>
                                        <use fill="black" fill-opacity="1" filter="url(#filter-21)" xlink:href="#path-20"></use>
                                    </g>
                                </g>
                                <g id="编组-22" transform="translate(32.000000, 32.000000)" fill="#1A1A1A">
                                    <text id="沟通效率" font-family="PingFangSC-Medium, PingFang SC" font-size="28.9032258" font-weight="400" line-spacing="25.2903226">
                                        <tspan x="0" y="31">沟通效率</tspan>
                                    </text>
                                    <text id="多模态情感AI赋能全渠道触达" font-family="PingFangSC-Regular, PingFang SC" font-size="12.6451613" font-weight="normal" line-spacing="25.2903226">
                                        <tspan x="0" y="162.682547">多模态情感AI赋能全渠道触达</tspan>
                                    </text>
                                    <text id="客户连续触达效率提升" font-family="PingFangSC-Semibold, PingFang SC" font-size="12.6451613" font-weight="500" line-spacing="25.2903226">
                                        <tspan x="0" y="116">客户连续触达效率提升</tspan>
                                    </text>
                                    <text id="150%" font-family="DINAlternate-Bold, DIN Alternate" font-size="52.0258065" font-weight="bold">
                                        <tspan x="0" y="91">150</tspan>
                                        <tspan x="74.9141129" y="91" font-size="34.683871">%</tspan>
                                    </text>
                                </g>
                            </g>
                            <g id="编组-5备份-2" transform="translate(546.838710, 0.500000)">
                                <g id="矩形">
                                    <use fill="black" fill-opacity="1" filter="url(#filter-24)" xlink:href="#path-23"></use>
                                    <rect stroke="#FFFFFF" stroke-width="1" stroke-linejoin="square" fill="url(#linearGradient-22)" fill-rule="evenodd" x="0.5" y="0.5" width="256.419355" height="238" rx="24"></rect>
                                </g>
                                <g id="编组-3" opacity="0.178738549" transform="translate(127.047619, 0.000000)">
                                    <mask id="mask-26" fill="white">
                                        <use xlink:href="#path-25"></use>
                                    </mask>
                                    <g id="蒙版"></g>
                                    <g id="保障责任" mask="url(#mask-26)">
                                        <g transform="translate(-55.047619, -0.000000)" id="组织,合作,协作,人员,分支,关联人员">
                                            <rect id="矩形" fill="#000000" fill-rule="nonzero" opacity="0" x="0" y="1.00000038" width="102" height="102"></rect>
                                            <g id="形状" fill-rule="nonzero">
                                                <use fill="url(#linearGradient-27)" xlink:href="#path-28"></use>
                                                <use fill="black" fill-opacity="1" filter="url(#filter-29)" xlink:href="#path-28"></use>
                                            </g>
                                        </g>
                                    </g>
                                </g>
                                <g id="编组-16" transform="translate(32.000000, 32.000000)" fill="#1A1A1A">
                                    <text id="运营人效" font-family="PingFangSC-Medium, PingFang SC" font-size="28.9032258" font-weight="400" line-spacing="25.2903226">
                                        <tspan x="0" y="31">运营人效</tspan>
                                    </text>
                                    <text id="策略自动化执行解放人力" font-family="PingFangSC-Regular, PingFang SC" font-size="12.6451613" font-weight="normal" line-spacing="25.2903226">
                                        <tspan x="0" y="162.682547">策略自动化执行解放人力</tspan>
                                    </text>
                                    <text id="减少运营重复工作" font-family="PingFangSC-Semibold, PingFang SC" font-size="12.6451613" font-weight="500" line-spacing="25.2903226">
                                        <tspan x="0" y="116">减少运营重复工作</tspan>
                                    </text>
                                    <text id="90%" font-family="DINAlternate-Bold, DIN Alternate" font-size="52.0258065" font-weight="bold">
                                        <tspan x="0" y="91">90</tspan>
                                        <tspan x="49.9427419" y="91" font-size="34.683871">%</tspan>
                                    </text>
                                </g>
                            </g>
                            <g id="编组-5备份-3" transform="translate(820.258065, 0.000000)">
                                <g id="矩形">
                                    <use fill="black" fill-opacity="1" filter="url(#filter-32)" xlink:href="#path-31"></use>
                                    <rect stroke="#FFFFFF" stroke-width="1" stroke-linejoin="square" fill="url(#linearGradient-30)" fill-rule="evenodd" x="0.5" y="1" width="256.419355" height="238" rx="24"></rect>
                                </g>
                                <g id="编组-4" opacity="0.179670061" transform="translate(127.112135, 0.000000)">
                                    <mask id="mask-34" fill="white">
                                        <use xlink:href="#path-33"></use>
                                    </mask>
                                    <g id="蒙版"></g>
                                    <g id="形状" fill-rule="nonzero" mask="url(#mask-34)">
                                        <use fill="url(#linearGradient-35)" xlink:href="#path-36"></use>
                                        <use fill="black" fill-opacity="1" filter="url(#filter-37)" xlink:href="#path-36"></use>
                                    </g>
                                </g>
                                <g id="编组-14" transform="translate(32.000000, 32.500000)" fill="#1A1A1A">
                                    <text id="数据生产力" font-family="PingFangSC-Medium, PingFang SC" font-size="28.9032258" font-weight="400" line-spacing="25.2903226">
                                        <tspan x="0" y="31">数据生产力</tspan>
                                    </text>
                                    <text id="不间断的全天候运营策略调度" font-family="PingFangSC-Regular, PingFang SC" font-size="12.6451613" font-weight="normal" line-spacing="25.2903226">
                                        <tspan x="0" y="162.682547">不间断的全天候运营策略调度</tspan>
                                    </text>
                                    <text id="日均运营策略调度" font-family="PingFangSC-Semibold, PingFang SC" font-size="12.6451613" font-weight="500" line-spacing="25.2903226">
                                        <tspan x="0" y="116">日均运营策略调度</tspan>
                                    </text>
                                    <text id="千万级" font-family="PingFangSC-Semibold, PingFang SC" font-size="43.3548387" font-weight="500">
                                        <tspan x="0" y="88">千万级</tspan>
                                    </text>
                                </g>
                            </g>
                        </g>
                    </g>
                </g>
            </g>
        </g>
    </g>
</svg>