<?xml version="1.0" encoding="UTF-8"?>
<svg width="25px" height="25px" viewBox="0 0 25 25" version="1.1" xmlns="http://www.w3.org/2000/svg" xmlns:xlink="http://www.w3.org/1999/xlink">
    <title>互联网-浅</title>
    <g id="2023Q2-品牌官网2.0" stroke="none" stroke-width="1" fill="none" fill-rule="evenodd">
        <g id="画板" transform="translate(-46.000000, -131.000000)">
            <g id="编组-19" transform="translate(22.248608, 53.000000)">
                <g id="互联网-浅" transform="translate(23.985986, 78.234891)">
                    <rect id="矩形" x="0" y="0" width="24" height="24.0695652"></rect>
                    <ellipse id="椭圆形" fill="#73E1DB" cx="18.4086957" cy="16.8795541" rx="3.99130435" ry="3.98073579"></ellipse>
                    <path d="M10.1115268,3.67174897 L10.5058645,3.67174897 L10.1115268,3.67174897 Z M10.7976744,3.65216451 L11.1920121,3.65216451 L10.7976744,3.65216451 Z M10.4979778,20.88649 L10.10364,20.88649 L10.4979778,20.88649 Z M10.5926188,3.61043478 L10.69909,3.61043478 C11.8190091,3.70835709 13.4318504,6.87712283 13.5501517,11.6753157 L7.7455005,11.6753157 C7.86380183,6.87712283 9.46481294,3.70835709 10.5926188,3.61043478 Z M19.2956522,11.6753157 C19.0502594,7.92261657 16.3831861,4.76138024 12.706269,3.86503278 C13.8222447,5.47095856 14.5912032,8.34987428 14.6779575,11.6753157 L19.2956522,11.6753157 Z M7.7455005,12.7798793 C7.86380181,17.5780722 9.46481294,20.7468379 10.5965622,20.8447602 L10.69909,20.8447602 C11.8190091,20.7468379 13.4318504,17.5780722 13.5501517,12.7798793 L7.7455005,12.7798793 Z M2,12.7798793 C2.24539275,16.5325784 4.91246612,19.6938148 8.58938322,20.5901622 C7.49312437,18.9842365 6.70444895,16.1053207 6.6255814,12.7798793 L2,12.7798793 Z M12.706269,20.5901622 C16.3831861,19.6938148 19.0502594,16.5325784 19.2956522,12.7798793 L14.6700708,12.7798793 C14.5912032,16.1053207 13.8222447,18.9842365 12.706269,20.5901622 Z M8.58938322,3.86503278 C4.91246612,4.76138024 2.24539275,7.92261657 2,11.6753157 L6.6255814,11.6753157 C6.70444893,8.34987428 7.49312437,5.47095856 8.58938322,3.86503278 Z" id="形状" fill="#FFFFFF" fill-rule="nonzero"></path>
                    <path d="M18.4086957,12.8988183 C18.7076796,12.8988183 18.9989853,12.9316055 19.2791953,12.9937716 C19.0363704,15.675766 17.5558043,18.0349959 15.3620326,19.4499242 C14.7722826,18.7563862 14.4173913,17.859305 14.4173913,16.8795541 C14.4173913,14.6810544 16.2043591,12.8988183 18.4086957,12.8988183 Z" id="形状结合" fill="#071EF3" fill-rule="nonzero"></path>
                    <path d="M20.3023,16.2986628 C20.2663583,16.2638791 20.2280479,16.2325236 20.1885709,16.2034497 L20.1884995,16.2035131 C20.147868,16.1656813 20.0926967,16.1423808 20.0318713,16.1423808 C19.9070306,16.1423808 19.8058356,16.2403538 19.8058356,16.3612068 C19.8058356,16.4146817 19.8256782,16.4636624 19.8585965,16.5016728 L19.8585906,16.5016728 C19.8585965,16.5016786 19.8586084,16.5016901 19.8586203,16.5016958 C19.8744337,16.5199549 19.8932467,16.535696 19.9143689,16.5481587 C19.9356816,16.5651732 19.9566015,16.5819284 19.9761644,16.6008673 L19.9947988,16.6189132 C20.2290656,16.8454253 20.1591284,17.2356811 19.9248616,17.4624814 L18.9251955,18.4299736 C18.6909347,18.6564858 18.31008,18.6564858 18.0758073,18.4299736 L18.0570241,18.4117779 C17.8227454,18.1849892 17.8227454,17.8160116 18.0570241,17.5897702 L18.4986683,17.1623569 C18.5553335,17.1188152 18.5917097,17.05161 18.5917097,16.9761425 C18.5917097,16.844878 18.4817955,16.7384697 18.3462062,16.7384697 C18.2950404,16.7384697 18.2475466,16.7536347 18.2082184,16.7795569 C18.2080935,16.7793034 18.2079625,16.7790614 18.2078316,16.7788021 L18.2031239,16.7830658 C18.1857393,16.7951655 18.1700211,16.8093567 18.1564455,16.8253514 L17.6974821,17.2411202 C17.2660567,17.6590727 17.2660567,18.3426368 17.6974821,18.7600074 L17.7161165,18.7780417 C18.1475419,19.195418 18.853324,19.195418 19.2847494,18.7780417 L20.2841179,17.8102614 C20.7149481,17.39262 20.751479,16.7337912 20.3206548,16.3164148 L20.3023,16.2986628 Z" id="路径" fill="#FFFFFF" fill-rule="nonzero" transform="translate(19.000000, 17.616727) scale(-1, 1) translate(-19.000000, -17.616727) "></path>
                    <path d="M19.1193186,14.9754297 L19.1006479,14.9586907 C18.6683883,14.5711487 17.9612318,14.5711487 17.5289663,14.9586907 L16.5276517,15.8566682 C16.0953862,16.2442102 16.0715811,16.8038416 16.5038466,17.1916349 L16.5222192,17.2078553 C16.54185,17.2254497 16.5622262,17.242039 16.5830258,17.2579494 C16.5980829,17.2730257 16.6157697,17.2859315 16.6354303,17.2961374 C16.6355794,17.2962443 16.6357345,17.2963566 16.6358835,17.2964635 L16.6359491,17.29641 C16.6672857,17.3125663 16.7035955,17.321858 16.7423443,17.321858 C16.8604274,17.321858 16.9561484,17.2360299 16.9561484,17.1301747 C16.9561484,17.1002947 16.9485156,17.0720132 16.9349076,17.0468005 L16.9349076,17.0468005 C16.9066421,16.9899007 16.8537307,16.9552625 16.8171346,16.9224474 L16.7987561,16.9062377 C16.564039,16.6958052 16.6531708,16.3900818 16.8878878,16.1796493 L17.8897928,15.2819284 C18.1239314,15.0714852 18.5056589,15.0714852 18.7403879,15.2819284 L18.7590705,15.2984001 C18.9937935,15.5088486 18.9937935,15.8513487 18.7590705,16.0615246 L18.3180153,16.4572142 C18.2580137,16.4970703 18.2191039,16.5610003 18.2191039,16.6330834 C18.2191039,16.7538919 18.3283435,16.8518346 18.4630996,16.8518346 C18.5100001,16.8518346 18.5537938,16.8399446 18.5909802,16.8193831 C18.5912605,16.8198108 18.5915228,16.8202064 18.5918031,16.8206394 L18.5986429,16.8149778 C18.6197168,16.8023286 18.6384352,16.7867979 18.6541721,16.7690431 L19.1190026,16.3845056 C19.5515841,15.996969 19.5515841,15.3629663 19.1193186,14.9754297 Z" id="路径" fill="#FFFFFF" fill-rule="nonzero" transform="translate(17.817391, 15.994946) scale(-1, 1) translate(-17.817391, -15.994946) "></path>
                </g>
            </g>
        </g>
    </g>
</svg>