<?xml version="1.0" encoding="UTF-8"?>
<svg width="81px" height="81px" viewBox="0 0 81 81" version="1.1" xmlns="http://www.w3.org/2000/svg" xmlns:xlink="http://www.w3.org/1999/xlink">
    <title>编组 1132</title>
    <defs>
        <linearGradient x1="50%" y1="0%" x2="50%" y2="100%" id="linearGradient-1">
            <stop stop-color="#E2ECFC" stop-opacity="0.571316379" offset="0%"></stop>
            <stop stop-color="#E0EAFC" stop-opacity="0.145506959" offset="100%"></stop>
        </linearGradient>
        <linearGradient x1="50%" y1="0%" x2="50%" y2="78.7378705%" id="linearGradient-2">
            <stop stop-color="#4086FD" stop-opacity="0.133015666" offset="0%"></stop>
            <stop stop-color="#4086FD" stop-opacity="0.0458361219" offset="100%"></stop>
        </linearGradient>
        <path d="M50.3843137,0 L4.63006536,0 C2.12091503,0.117597471 0.107843137,1.95995785 0,4.24657534 L0,59.3213909 C0,59.3671233 0,59.4063224 0.00718954248,59.4520548 C0.00718954248,59.4716544 0.00718954248,59.491254 0.014379085,59.5173867 C0.014379085,59.5369863 0.014379085,59.5631191 0.0215686275,59.5827187 C0.0215686275,59.6088514 0.0287581699,59.6349842 0.0287581699,59.661117 C0.0287581699,59.6807165 0.0359477124,59.6937829 0.0359477124,59.7133825 C0.0431372549,59.7395153 0.0431372549,59.7721812 0.0503267974,59.798314 C0.0503267974,59.8113804 0.0575163399,59.8244468 0.0575163399,59.8440464 C0.0647058824,59.8701791 0.0718954248,59.9028451 0.0790849673,59.9289779 C0.0862745098,59.9420443 0.0862745098,59.9551106 0.0862745098,59.968177 L0.107843137,60.0465753 C0.11503268,60.0596417 0.11503268,60.0792413 0.122222222,60.0923077 C0.129411765,60.1184405 0.136601307,60.1445732 0.150980392,60.1641728 C0.158169935,60.1837724 0.165359477,60.1968388 0.17254902,60.2164384 C0.179738562,60.2360379 0.194117647,60.2621707 0.20130719,60.2817703 L0.222875817,60.340569 C0.230065359,60.3601686 0.244444444,60.3797682 0.251633987,60.3993678 C0.258823529,60.4189673 0.273202614,60.4451001 0.280392157,60.4646997 C0.287581699,60.4777661 0.294771242,60.4973656 0.309150327,60.510432 C0.323529412,60.5365648 0.337908497,60.5561644 0.345098039,60.5822972 C0.352287582,60.5953635 0.359477124,60.6084299 0.373856209,60.6214963 C0.388235294,60.6476291 0.402614379,60.6672287 0.416993464,60.6933614 C0.424183007,60.7064278 0.431372549,60.7194942 0.445751634,60.7325606 C0.460130719,60.7586934 0.481699346,60.7782929 0.496078431,60.8044257 C0.503267974,60.8174921 0.517647059,60.8305585 0.524836601,60.8436249 C0.539215686,60.8697576 0.560784314,60.8893572 0.582352941,60.91549 C0.596732026,60.9285564 0.603921569,60.9416228 0.618300654,60.9546891 C0.632679739,60.9742887 0.654248366,60.9938883 0.668627451,61.0134879 C0.683006536,61.0330875 0.704575163,61.0461538 0.718954248,61.0657534 C0.733333333,61.0788198 0.747712418,61.0984194 0.762091503,61.1114858 C0.798039216,61.1441517 0.826797386,61.1768177 0.862745098,61.2094837 C0.89869281,61.2421496 0.934640523,61.2682824 0.970588235,61.3009484 C0.98496732,61.3140148 1.00653595,61.3270811 1.02091503,61.3401475 C1.04248366,61.3532139 1.05686275,61.3728135 1.07843137,61.3858799 C1.1,61.4054795 1.12156863,61.4185458 1.14313725,61.4316122 C1.15751634,61.4446786 1.17189542,61.4512118 1.18627451,61.4642782 C1.21503268,61.4838778 1.23660131,61.4969442 1.26535948,61.5165437 C1.27973856,61.5230769 1.29411765,61.5361433 1.30849673,61.5426765 C1.3372549,61.5557429 1.35882353,61.5753425 1.3875817,61.5884089 C1.40196078,61.594942 1.41633987,61.6014752 1.43071895,61.6145416 C1.45947712,61.627608 1.48104575,61.6406744 1.50980392,61.6537408 C1.52418301,61.660274 1.53856209,61.6668072 1.55294118,61.6798736 C1.58169935,61.6929399 1.60326797,61.7060063 1.63202614,61.7125395 C1.64640523,61.7190727 1.66797386,61.7256059 1.68235294,61.7386723 C1.70392157,61.7517387 1.73267974,61.7582719 1.75424837,61.7648051 C1.77581699,61.7713383 1.79738562,61.7844046 1.81895425,61.7909378 L1.88366013,61.8105374 C1.90522876,61.8170706 1.93398693,61.830137 1.95555556,61.8366702 C1.97712418,61.8432034 1.99150327,61.8497366 2.0130719,61.8562698 C2.04183007,61.862803 2.07058824,61.8758693 2.09215686,61.8824025 C2.10653595,61.8889357 2.12810458,61.8889357 2.14248366,61.8954689 L2.22875817,61.9150685 C2.24313725,61.9216017 2.25751634,61.9216017 2.27908497,61.9281349 C2.30784314,61.9346681 2.34379085,61.9412013 2.37254902,61.9477345 C2.3869281,61.9477345 2.40130719,61.9542677 2.42287582,61.9542677 C2.45163399,61.9608008 2.4875817,61.967334 2.51633987,61.967334 C2.5379085,61.967334 2.55228758,61.9738672 2.57385621,61.9738672 C2.60261438,61.9804004 2.63137255,61.9804004 2.66013072,61.9804004 C2.68169935,61.9804004 2.71045752,61.9869336 2.73202614,61.9869336 C2.75359477,61.9869336 2.7751634,61.9934668 2.80392157,61.9934668 C2.85424837,61.9934668 2.89738562,62 2.94771242,62 C2.99803922,62 3.04836601,62 3.09150327,61.9934668 C3.1130719,61.9934668 3.13464052,61.9934668 3.16339869,61.9869336 C3.18496732,61.9869336 3.21372549,61.9869336 3.23529412,61.9804004 C3.26405229,61.9804004 3.29281046,61.9738672 3.32156863,61.9738672 C3.34313725,61.9738672 3.35751634,61.967334 3.37908497,61.967334 C3.40784314,61.9608008 3.44379085,61.9608008 3.47254902,61.9542677 C3.4869281,61.9542677 3.50130719,61.9477345 3.52287582,61.9477345 C3.55163399,61.9412013 3.5875817,61.9346681 3.61633987,61.9281349 C3.63071895,61.9216017 3.64509804,61.9216017 3.66666667,61.9150685 L3.75294118,61.8954689 C3.76732026,61.8889357 3.78888889,61.8889357 3.80326797,61.8824025 C3.83202614,61.8758693 3.86078431,61.8693361 3.88235294,61.8562698 C3.90392157,61.8497366 3.91830065,61.8432034 3.93986928,61.8366702 C3.96143791,61.830137 3.99019608,61.8170706 4.01176471,61.8105374 L4.07647059,61.7909378 C4.09803922,61.7844046 4.11960784,61.7713383 4.14117647,61.7648051 C4.1627451,61.7582719 4.19150327,61.7452055 4.2130719,61.7386723 C4.22745098,61.7321391 4.24901961,61.7256059 4.26339869,61.7125395 C4.29215686,61.6994731 4.31372549,61.6864067 4.34248366,61.6798736 C4.35686275,61.6733404 4.37124183,61.6668072 4.38562092,61.6537408 C4.41437908,61.6406744 4.43594771,61.627608 4.46470588,61.6145416 C4.47908497,61.6080084 4.49346405,61.6014752 4.50784314,61.5884089 C4.53660131,61.5753425 4.56535948,61.5557429 4.5869281,61.5426765 C4.60130719,61.5361433 4.61568627,61.5230769 4.63006536,61.5165437 C4.65882353,61.5034773 4.68039216,61.4838778 4.70915033,61.4642782 C4.72352941,61.4512118 4.7379085,61.4446786 4.75228758,61.4316122 C4.77385621,61.4185458 4.79542484,61.3989463 4.82418301,61.3858799 C4.84575163,61.3728135 4.86013072,61.3597471 4.88169935,61.3401475 C4.89607843,61.3270811 4.91764706,61.3140148 4.93202614,61.3009484 C4.96797386,61.2748156 5.00392157,61.2421496 5.03267974,61.2094837 L27.4640523,40.825922 L49.8954248,61.2094837 C50.4777778,61.7386723 51.2470588,62 52.0163399,61.9934668 L52.0522876,61.9934668 C53.6771242,61.9934668 55,60.7978925 55,59.3148577 L55,4.29884089 C54.9065359,1.99262381 52.9006536,0.130663857 50.3843137,0 Z" id="path-3"></path>
        <filter x="-13.6%" y="-8.9%" width="127.3%" height="124.2%" filterUnits="objectBoundingBox" id="filter-4">
            <feMorphology radius="0.5" operator="dilate" in="SourceAlpha" result="shadowSpreadOuter1"></feMorphology>
            <feOffset dx="0" dy="2" in="shadowSpreadOuter1" result="shadowOffsetOuter1"></feOffset>
            <feGaussianBlur stdDeviation="2" in="shadowOffsetOuter1" result="shadowBlurOuter1"></feGaussianBlur>
            <feComposite in="shadowBlurOuter1" in2="SourceAlpha" operator="out" result="shadowBlurOuter1"></feComposite>
            <feColorMatrix values="0 0 0 0 0.204737413   0 0 0 0 0.418516171   0 0 0 0 0.719076405  0 0 0 0.1 0" type="matrix" in="shadowBlurOuter1"></feColorMatrix>
        </filter>
    </defs>
    <g id="页面-1" stroke="none" stroke-width="1" fill="none" fill-rule="evenodd">
        <g id="图标样式" transform="translate(-272.000000, -173.000000)">
            <g id="编组-113" transform="translate(272.250000, 173.210275)">
                <rect id="矩形" x="0" y="0" width="80" height="80"></rect>
                <g id="编组-111" transform="translate(10.000000, 9.000000)">
                    <g id="tianchongxing-备份" fill-rule="nonzero">
                        <g id="路径">
                            <use fill="black" fill-opacity="1" filter="url(#filter-4)" xlink:href="#path-3"></use>
                            <use stroke="url(#linearGradient-2)" stroke-width="1" fill="url(#linearGradient-1)" xlink:href="#path-3"></use>
                        </g>
                    </g>
                    <rect id="矩形" fill="#FFFFFF" opacity="0.94826" x="11" y="17" width="34" height="3" rx="1.5"></rect>
                    <rect id="矩形备份-23" fill="#FFFFFF" opacity="0.94826" x="11" y="25" width="34" height="3" rx="1.5"></rect>
                </g>
            </g>
        </g>
    </g>
</svg>