<?xml version="1.0" encoding="UTF-8"?>
<svg width="81px" height="81px" viewBox="0 0 81 81" version="1.1" xmlns="http://www.w3.org/2000/svg" xmlns:xlink="http://www.w3.org/1999/xlink">
    <title>编组 1112</title>
    <g id="页面-1" stroke="none" stroke-width="1" fill="none" fill-rule="evenodd">
        <g id="图标样式" transform="translate(-87.000000, -173.000000)">
            <path d="M154.305686,182.683003 L115.206601,182.683003 C113.062418,182.798703 111.342157,184.611348 111.25,186.861085 L111.25,241.047597 C111.25,241.092592 111.25,241.131159 111.256144,241.176153 C111.256144,241.195437 111.256144,241.21472 111.262288,241.240432 C111.262288,241.259715 111.262288,241.285426 111.268431,241.30471 C111.268431,241.330421 111.274575,241.356132 111.274575,241.381844 C111.274575,241.401127 111.280719,241.413983 111.280719,241.433266 C111.286863,241.458977 111.286863,241.491117 111.293007,241.516828 C111.293007,241.529683 111.29915,241.542539 111.29915,241.561823 C111.305294,241.587534 111.311438,241.619673 111.317582,241.645384 C111.323725,241.65824 111.323725,241.671095 111.323725,241.683951 L111.342157,241.761085 C111.348301,241.773941 111.348301,241.793224 111.354444,241.80608 C111.360588,241.831791 111.366732,241.857502 111.37902,241.876786 C111.385163,241.896069 111.391307,241.908925 111.397451,241.928208 C111.403595,241.947492 111.415882,241.973203 111.422026,241.992486 L111.440458,242.050337 C111.446601,242.06962 111.458889,242.088904 111.465033,242.108187 C111.471176,242.127471 111.483464,242.153182 111.489608,242.172465 C111.495752,242.185321 111.501895,242.204604 111.514183,242.21746 C111.526471,242.243171 111.538758,242.262455 111.544902,242.288166 C111.551046,242.301022 111.55719,242.313877 111.569477,242.326733 C111.581765,242.352444 111.594052,242.371728 111.60634,242.397439 C111.612484,242.410295 111.618627,242.42315 111.630915,242.436006 C111.643203,242.461717 111.661634,242.481001 111.673922,242.506712 C111.680065,242.519568 111.692353,242.532423 111.698497,242.545279 C111.710784,242.57099 111.729216,242.590274 111.747647,242.615985 C111.759935,242.62884 111.766078,242.641696 111.778366,242.654552 C111.790654,242.673835 111.809085,242.693119 111.821373,242.712402 C111.83366,242.731686 111.852092,242.744541 111.864379,242.763825 C111.876667,242.77668 111.888954,242.795964 111.901242,242.808819 C111.931961,242.840958 111.956536,242.873098 111.987255,242.905237 C112.017974,242.937376 112.048693,242.963087 112.079412,242.995226 C112.091699,243.008082 112.110131,243.020937 112.122418,243.033793 C112.14085,243.046649 112.153137,243.065932 112.171569,243.078788 C112.19,243.098071 112.208431,243.110927 112.226863,243.123782 C112.23915,243.136638 112.251438,243.143066 112.263725,243.155922 C112.288301,243.175205 112.306732,243.188061 112.331307,243.207344 C112.343595,243.213772 112.355882,243.226628 112.36817,243.233055 C112.392745,243.245911 112.411176,243.265194 112.435752,243.27805 C112.448039,243.284478 112.460327,243.290906 112.472614,243.303761 C112.49719,243.316617 112.515621,243.329473 112.540196,243.342328 C112.552484,243.348756 112.564771,243.355184 112.577059,243.36804 C112.601634,243.380895 112.620065,243.393751 112.644641,243.400179 C112.656928,243.406606 112.675359,243.413034 112.687647,243.42589 C112.706078,243.438746 112.730654,243.445173 112.749085,243.451601 C112.767516,243.458029 112.785948,243.470885 112.804379,243.477312 L112.859673,243.496596 C112.878105,243.503024 112.90268,243.515879 112.921111,243.522307 C112.939542,243.528735 112.95183,243.535163 112.970261,243.541591 C112.994837,243.548019 113.019412,243.560874 113.037843,243.567302 C113.050131,243.57373 113.068562,243.57373 113.08085,243.580158 L113.154575,243.599441 C113.166863,243.605869 113.17915,243.605869 113.197582,243.612297 C113.222157,243.618725 113.252876,243.625152 113.277451,243.63158 C113.289739,243.63158 113.302026,243.638008 113.320458,243.638008 C113.345033,243.644436 113.375752,243.650864 113.400327,243.650864 C113.418758,243.650864 113.431046,243.657291 113.449477,243.657291 C113.474052,243.663719 113.498627,243.663719 113.523203,243.663719 C113.541634,243.663719 113.566209,243.670147 113.584641,243.670147 C113.603072,243.670147 113.621503,243.676575 113.646078,243.676575 C113.689085,243.676575 113.725948,243.683003 113.768954,243.683003 C113.811961,243.683003 113.854967,243.683003 113.89183,243.676575 C113.910261,243.676575 113.928693,243.676575 113.953268,243.670147 C113.971699,243.670147 113.996275,243.670147 114.014706,243.663719 C114.039281,243.663719 114.063856,243.657291 114.088431,243.657291 C114.106863,243.657291 114.11915,243.650864 114.137582,243.650864 C114.162157,243.644436 114.192876,243.644436 114.217451,243.638008 C114.229739,243.638008 114.242026,243.63158 114.260458,243.63158 C114.285033,243.625152 114.315752,243.618725 114.340327,243.612297 C114.352614,243.605869 114.364902,243.605869 114.383333,243.599441 L114.457059,243.580158 C114.469346,243.57373 114.487778,243.57373 114.500065,243.567302 C114.524641,243.560874 114.549216,243.554446 114.567647,243.541591 C114.586078,243.535163 114.598366,243.528735 114.616797,243.522307 C114.635229,243.515879 114.659804,243.503024 114.678235,243.496596 L114.733529,243.477312 C114.751961,243.470885 114.770392,243.458029 114.788824,243.451601 C114.807255,243.445173 114.83183,243.432318 114.850261,243.42589 C114.862549,243.419462 114.88098,243.413034 114.893268,243.400179 C114.917843,243.387323 114.936275,243.374467 114.96085,243.36804 C114.973137,243.361612 114.985425,243.355184 114.997712,243.342328 C115.022288,243.329473 115.040719,243.316617 115.065294,243.303761 C115.077582,243.297334 115.089869,243.290906 115.102157,243.27805 C115.126732,243.265194 115.151307,243.245911 115.169739,243.233055 C115.182026,243.226628 115.194314,243.213772 115.206601,243.207344 C115.231176,243.194488 115.249608,243.175205 115.274183,243.155922 C115.286471,243.143066 115.298758,243.136638 115.311046,243.123782 C115.329477,243.110927 115.347908,243.091643 115.372484,243.078788 C115.390915,243.065932 115.403203,243.053076 115.421634,243.033793 C115.433922,243.020937 115.452353,243.008082 115.464641,242.995226 C115.495359,242.969515 115.526078,242.937376 115.550654,242.905237 L134.719281,222.850442 L153.887908,242.905237 C154.385556,243.42589 155.042941,243.683003 155.700327,243.676575 L155.731046,243.676575 C157.119542,243.676575 158.25,242.500284 158.25,241.041169 L158.25,186.912507 C158.170131,184.643487 156.456013,182.811559 154.305686,182.683003 Z" id="路径" stroke="#639DFF" fill="#0C71FF" fill-rule="nonzero"></path>
            <g id="编组-111" transform="translate(87.250000, 173.210275)">
                <rect id="矩形" x="0" y="0" width="80" height="80"></rect>
            </g>
        </g>
    </g>
</svg>