<?xml version="1.0" encoding="UTF-8"?>
<svg width="80px" height="80px" viewBox="0 0 80 80" version="1.1" xmlns="http://www.w3.org/2000/svg" xmlns:xlink="http://www.w3.org/1999/xlink">
    <title>1-2</title>
    <defs>
        <linearGradient x1="50%" y1="0%" x2="50%" y2="100%" id="linearGradient-1">
            <stop stop-color="#C4DAFF" stop-opacity="0.3" offset="0%"></stop>
            <stop stop-color="#C4DAFF" stop-opacity="0.5" offset="100%"></stop>
        </linearGradient>
        <linearGradient x1="73.7766545%" y1="57.9588114%" x2="13.6273213%" y2="25.9601108%" id="linearGradient-2">
            <stop stop-color="#FFFFFF" stop-opacity="0.45" offset="0%"></stop>
            <stop stop-color="#4086FD" stop-opacity="0.07" offset="100%"></stop>
        </linearGradient>
        <path d="M24.32159,24.9864625 C24.32159,25.7338678 24.7203259,26.4244987 25.3675978,26.7982013 C26.0148697,27.1719039 26.8123416,27.1719039 27.4596135,26.7982013 C28.1068854,26.4244987 28.5056213,25.7338678 28.5056213,24.9864625 C28.5056213,23.8310742 27.568994,22.8944469 26.4136057,22.8944469 C25.2582173,22.8944469 24.32159,23.8310742 24.32159,24.9864625 L24.32159,24.9864625 Z M36.0034054,24.9864625 C36.0034054,26.1418509 36.9400327,27.0784782 38.0954211,27.0784782 C39.2508094,27.0784782 40.1874367,26.1418509 40.1874367,24.9864625 C40.1874367,23.8310742 39.2508094,22.8944469 38.0954211,22.8944469 C36.9400327,22.8944469 36.0034054,23.8310742 36.0034054,24.9864625 L36.0034054,24.9864625 Z M37.0952582,29.6666474 C36.8776199,29.5268849 36.6133316,29.4794185 36.3606609,29.5347131 C36.1079901,29.5900077 35.8876847,29.7435228 35.7483153,29.9614131 C35.1138857,30.9511233 33.6751946,31.5914092 32.0861924,31.5914092 C30.4971902,31.5914092 29.0604511,30.9530754 28.4260215,29.9633652 C28.2419872,29.6609755 27.9086543,29.4819301 27.5549242,29.495467 C27.2011942,29.5090039 26.8825199,29.7130009 26.7221343,30.0285713 C26.5617488,30.3441416 26.5847949,30.7218147 26.7823608,31.0155423 C27.7818314,32.5752631 29.8139583,33.5435003 32.0861924,33.5435003 C34.3603785,33.5435003 36.3925054,32.5752631 37.3919761,31.0135902 C37.6815309,30.5596248 37.5487621,29.9569245 37.0952582,29.6666474 L37.0952582,29.6666474 Z" id="path-3"></path>
        <filter x="-34.7%" y="-32.9%" width="169.3%" height="203.3%" filterUnits="objectBoundingBox" id="filter-4">
            <feOffset dx="0" dy="2" in="SourceAlpha" result="shadowOffsetOuter1"></feOffset>
            <feGaussianBlur stdDeviation="1.5" in="shadowOffsetOuter1" result="shadowBlurOuter1"></feGaussianBlur>
            <feColorMatrix values="0 0 0 0 0.521568627   0 0 0 0 0.698039216   0 0 0 0 1  0 0 0 0.27 0" type="matrix" in="shadowBlurOuter1"></feColorMatrix>
        </filter>
    </defs>
    <g id="页面-1" stroke="none" stroke-width="1" fill="none" fill-rule="evenodd">
        <g id="画板" transform="translate(-146.000000, -232.000000)">
            <g id="1-2" transform="translate(146.000000, 232.000000)">
                <rect id="矩形" x="0" y="0" width="80" height="80"></rect>
                <path d="M14.2560337,28.3424038 C14.2560337,38.3780549 22.3915364,46.5135575 32.4271875,46.5135575 C42.4628386,46.5135575 50.5983413,38.3780549 50.5983413,28.3424038 C50.5983413,18.3067526 42.4628386,10.17125 32.4271875,10.17125 C22.3915364,10.17125 14.2560337,18.3067526 14.2560337,28.3424038 Z M47.8027703,46.756713 L17.0516047,46.756713 C9.36375594,46.756713 3.07375,53.0466616 3.07375,60.7345676 L3.07375,62.1322958 C3.07375,64.5085483 4.89085391,66.3256522 7.2671064,66.3256522 L57.5872686,66.3256522 C59.9635211,66.3256522 61.780625,64.5085483 61.780625,62.1322958 L61.780625,60.7345676 C61.780625,53.0467189 55.4906191,46.756713 47.8027703,46.756713 L47.8027703,46.756713 Z" id="形状" stroke="url(#linearGradient-2)" fill="url(#linearGradient-1)" fill-rule="nonzero"></path>
                <g id="形状" fill-rule="nonzero">
                    <use fill="black" fill-opacity="1" filter="url(#filter-4)" xlink:href="#path-3"></use>
                    <use fill="#FFFFFF" xlink:href="#path-3"></use>
                </g>
            </g>
        </g>
    </g>
</svg>