<?xml version="1.0" encoding="UTF-8"?>
<svg width="80px" height="80px" viewBox="0 0 80 80" version="1.1" xmlns="http://www.w3.org/2000/svg" xmlns:xlink="http://www.w3.org/1999/xlink">
    <title>3-1</title>
    <defs>
        <path d="M3,0 L38.9882522,0 C40.6451065,-4.27501655e-15 41.9882522,1.34314575 41.9882522,3 L41.9882522,32.84363 C41.9882522,34.5004842 40.6451065,35.84363 38.9882522,35.84363 L21.4610521,35.84363 L21.4610521,35.84363 L10.6536297,43.057158 C10.1942694,43.3637629 9.5733319,43.2399302 9.26672701,42.7805699 C9.16464443,42.6276281 9.10670808,42.4495008 9.09928712,42.2657701 L8.83989425,35.84363 L8.83989425,35.84363 L3,35.84363 C1.34314575,35.84363 2.02906125e-16,34.5004842 0,32.84363 L0,3 C2.41183085e-16,1.34314575 1.34314575,7.48448398e-16 3,0 Z" id="path-1"></path>
    </defs>
    <g id="页面-1" stroke="none" stroke-width="1" fill="none" fill-rule="evenodd">
        <g id="3-1" transform="translate(30.220975, 24.904873)">
            <mask id="mask-2" fill="white">
                <use xlink:href="#path-1" transform="translate(20.994126, 22.023305) scale(-1, 1) translate(-20.994126, -22.023305) "></use>
            </mask>
            <use id="矩形" fill="#0C71FF" transform="translate(20.994126, 22.023305) scale(-1, 1) translate(-20.994126, -22.023305) " xlink:href="#path-1"></use>
        </g>
    </g>
</svg>