<?xml version="1.0" encoding="UTF-8"?>
<svg width="80px" height="80px" viewBox="0 0 80 80" version="1.1" xmlns="http://www.w3.org/2000/svg" xmlns:xlink="http://www.w3.org/1999/xlink">
    <title>2-2</title>
    <defs>
        <linearGradient x1="65.8671915%" y1="16.5837655%" x2="33.317392%" y2="85.8350916%" id="linearGradient-1">
            <stop stop-color="#C4DAFF" stop-opacity="0.3" offset="0%"></stop>
            <stop stop-color="#C4DAFF" stop-opacity="0.5" offset="100%"></stop>
        </linearGradient>
        <linearGradient x1="54.1125614%" y1="43.5501807%" x2="27.7914485%" y2="85.2227365%" id="linearGradient-2">
            <stop stop-color="#FFFFFF" stop-opacity="0.45" offset="0%"></stop>
            <stop stop-color="#FFFFFF" stop-opacity="0.45" offset="0%"></stop>
            <stop stop-color="#4086FD" stop-opacity="0.07" offset="100%"></stop>
        </linearGradient>
        <path d="M46.6068962,46.1458468 C46.0636212,45.6016265 45.1833367,45.6016265 44.6400618,46.1458468 L43.0035357,47.7858487 C42.9868242,47.8026436 42.9581562,47.7907982 42.9581562,47.7670796 L42.9581562,37.9006248 C42.9581562,35.1940656 40.7688454,33 38.0680421,33 C35.6121546,33 33.5796144,34.8140679 33.2309542,37.1779173 C33.2290766,37.1908976 33.2179597,37.2005346 33.2048443,37.2005514 L33.2043438,37.2005514 C33.1896734,37.2005514 33.1777765,37.2124359 33.1777612,37.2271062 L33.1777612,49.1020489 C33.1777612,50.2619512 32.2393898,51.2022968 31.08199,51.2022968 C29.9244234,51.2022968 28.9861911,50.2619512 28.9861911,49.1020489 L28.9861911,35.8269039 C28.9861911,35.8122223 28.9844115,35.7971514 28.9841612,35.7836098 C28.9777102,35.4340319 28.7918545,34.9996456 28.5256392,34.7328741 C27.9800007,34.1860956 26.9067699,34.2635077 26.3611037,34.8102862 L22.4092497,38.7705654 C21.8635834,39.3174552 21.8635834,40.2039404 22.4092497,40.7506633 C22.954916,41.2976087 23.8395104,41.2976087 24.3851767,40.7506633 L26.1461906,38.9859512 C26.162902,38.9691842 26.1915701,38.9810295 26.1915701,39.0047203 L26.1915701,49.1020489 C26.1915701,51.8086081 28.3810198,54.0026737 31.08199,54.0026737 C33.5375995,54.0026737 35.5702508,52.188578 35.9189111,49.8247564 C35.9207887,49.8117761 35.9319056,49.802139 35.945021,49.8021223 L35.9455215,49.8021223 C35.9525717,49.8021223 35.9593331,49.7993216 35.9643183,49.7943364 C35.9693035,49.7893512 35.9721041,49.7825898 35.9721041,49.7755397 L35.9721041,37.9006248 C35.9721041,36.7407225 36.9105033,35.8003769 38.0680421,35.8003769 C39.2254418,35.8003769 40.1638132,36.7407225 40.1638132,37.9006248 L40.1638132,51.175742 C40.1638132,51.1904236 40.1666772,51.2583816 40.1681232,51.2718398 C40.2014904,51.5758713 40.33863,51.9611244 40.5712277,52.1942505 C41.1143636,52.7384708 42.1303695,52.602527 42.6735055,52.0582788 L46.6068962,48.1166853 C47.1498653,47.5725205 47.1498653,46.6901228 46.6068962,46.1458746 L46.6068962,46.1458468 Z" id="path-3"></path>
        <filter x="-22.0%" y="-16.7%" width="144.0%" height="152.4%" filterUnits="objectBoundingBox" id="filter-4">
            <feOffset dx="0" dy="2" in="SourceAlpha" result="shadowOffsetOuter1"></feOffset>
            <feGaussianBlur stdDeviation="1.5" in="shadowOffsetOuter1" result="shadowBlurOuter1"></feGaussianBlur>
            <feColorMatrix values="0 0 0 0 0.521568627   0 0 0 0 0.698039216   0 0 0 0 1  0 0 0 0.27 0" type="matrix" in="shadowBlurOuter1"></feColorMatrix>
        </filter>
    </defs>
    <g id="页面-1" stroke="none" stroke-width="1" fill="none" fill-rule="evenodd">
        <g id="画板" transform="translate(-289.000000, -232.000000)">
            <g id="2-2" transform="translate(289.000000, 232.000000)">
                <rect id="矩形" fill="#000000" fill-rule="nonzero" opacity="0" x="0" y="0" width="80" height="80"></rect>
                <path d="M32.4667728,11.3244017 L7.88589467,26.6281861 C6.71300617,27.3584136 6,28.6422244 6,30.0238538 L6,57.1340069 C6,58.5705663 6.77034747,59.896804 8.01819414,60.6085494 L32.5998922,74.6294323 C33.8348429,75.3338222 35.3508753,75.3297712 36.5820441,74.6187916 L60.8366092,60.6121811 C62.0740185,59.8975977 62.8362632,58.5771989 62.8362632,57.1482793 L62.8362632,30.0093023 C62.8362632,28.635594 62.1313494,27.3579853 60.9692467,26.625461 L36.7138616,11.3362281 C35.4173364,10.5189714 33.7678293,10.5143782 32.4667728,11.3244017 Z" id="路径-3" stroke="url(#linearGradient-2)" fill="url(#linearGradient-1)"></path>
                <g id="路径" fill-rule="nonzero">
                    <use fill="black" fill-opacity="1" filter="url(#filter-4)" xlink:href="#path-3"></use>
                    <use fill="#FFFFFF" xlink:href="#path-3"></use>
                </g>
            </g>
        </g>
    </g>
</svg>