<?xml version="1.0" encoding="UTF-8"?>
<svg width="80px" height="80px" viewBox="0 0 80 80" version="1.1" xmlns="http://www.w3.org/2000/svg" xmlns:xlink="http://www.w3.org/1999/xlink">
    <title>2-1</title>
    <defs>
        <path d="M20.0464646,1.32440172 L1.88589467,12.6309729 C0.713006173,13.3612004 2.8342894e-15,14.6450112 0,16.0266405 L0,36.0291738 C-5.99557493e-16,37.4657332 0.77034747,38.7919708 2.01819414,39.5037163 L20.179584,49.8625906 C21.4145348,50.5669805 22.9305672,50.5629295 24.1617359,49.8519499 L42.0749792,39.507348 C43.3123885,38.7927646 44.0746332,37.4723658 44.0746332,36.0434462 L44.0746332,16.012089 C44.0746332,14.6383807 43.3697194,13.3607721 42.2076167,12.6282478 L24.2935535,1.33622814 C22.9970283,0.518971436 21.3475212,0.514378227 20.0464646,1.32440172 Z" id="path-1"></path>
    </defs>
    <g id="页面-1" stroke="none" stroke-width="1" fill="none" fill-rule="evenodd">
        <g id="画板" transform="translate(-289.000000, -125.000000)">
            <g id="2-1" transform="translate(289.000000, 125.000000)">
                <rect id="矩形" fill="#000000" fill-rule="nonzero" opacity="0" x="0" y="0" width="80" height="80"></rect>
                <g id="编组-7" transform="translate(30.561288, 6.200000)">
                    <mask id="mask-2" fill="white">
                        <use xlink:href="#path-1"></use>
                    </mask>
                    <use id="路径-3" stroke="#639DFF" fill="#0C71FF" xlink:href="#path-1"></use>
                </g>
            </g>
        </g>
    </g>
</svg>