<svg xmlns="http://www.w3.org/2000/svg" xmlns:xlink="http://www.w3.org/1999/xlink" width="27.199951171875" height="28.88330078125" viewBox="0 0 32 32.0927536231884" fill="none"><g opacity="1"  transform="translate(0 0)  rotate(0)"><path id="椭圆形" fill-rule="evenodd" style="fill:#73E1DB" opacity="1" d="M21.6121 8.61828C21.6121 5.36828 18.9921 2.73828 15.7521 2.73828C12.5121 2.73828 9.88208 5.36828 9.88208 8.61828C9.88208 11.8683 12.5121 14.5083 15.7521 14.5083C18.9921 14.5083 21.6121 11.8683 21.6121 8.61828Z"></path><path id="形状结合" fill-rule="evenodd" style="fill:#2B58F9" opacity="1" d="M4.2666,13.9067h0.00263l11.46737,-7.48824l11.4574,7.48824h0.0026v2.5h-3.3538v8.9822h2.0238c0.73,0 1.33,0.6 1.33,1.33v0.83c0,0.73 -0.6,1.33 -1.33,1.33h-20.27c-0.73,0 -1.33,-0.6 -1.33,-1.33v-0.83c0,-0.73 0.6,-1.33 1.33,-1.33h2.0262v-8.9822h-3.3562zM13.3366,24.6064c0.59,0 1.06,-0.48 1.06,-1.07v-6.42c0,-0.59 -0.47,-1.07 -1.06,-1.07c-0.59,0 -1.07,0.48 -1.07,1.07v6.42c0,0.59 0.48,1.07 1.07,1.07zM18.1367,24.6064c0.59,0 1.06,-0.48 1.06,-1.07v-6.42c0,-0.59 -0.47,-1.07 -1.06,-1.07c-0.5901,0 -1.07,0.48 -1.07,1.07v6.42c0,0.59 0.4799,1.07 1.07,1.07z"></path><path id="形状结合" fill-rule="evenodd" style="fill:#071EF3" opacity="1" d="M15.7521,14.5083c-2.7241,0 -5.017,-1.8662 -5.6781,-4.3921l5.6626,-3.69774l5.6804,3.71254c-0.664,2.5184 -2.9462,4.3773 -5.6649,4.3773z"></path></g></svg>