<svg xmlns="http://www.w3.org/2000/svg" xmlns:xlink="http://www.w3.org/1999/xlink" width="29.066650390625" height="28.031982421875" viewBox="0 0 32 32.0927536231884" fill="none"><g opacity="1"  transform="translate(0 0)  rotate(0)"><g opacity="1"  transform="translate(2.933349609375 4.06201171875)  rotate(0)"><path id="椭圆形" fill-rule="evenodd" style="fill:#73E1DB" opacity="1" d="M13.11 16.6513C13.11 13.0313 10.17 10.1013 6.55 10.1013C2.93 10.1013 0 13.0313 0 16.6513C0 20.2713 2.93 23.2113 6.55 23.2113C10.17 23.2113 13.11 20.2713 13.11 16.6513Z"></path><g opacity="1"  transform="translate(5.291015625 0)  rotate(0)"><path id="路径" fill-rule="evenodd" style="fill:#2B58F9" opacity="1" d="M10.4202 9.83986C11.1102 9.83986 11.6602 9.28986 11.6602 8.59986C11.6602 7.91986 11.1102 7.35986 10.4202 7.35986C9.74018 7.35986 9.18018 7.91986 9.18018 8.59986C9.18018 9.28986 9.74018 9.83986 10.4202 9.83986Z"></path><path id="形状" fill-rule="evenodd" style="fill:#2B58F9" opacity="1" d="M19.85,1.88c0.58,0.21 0.99,0.78 0.99,1.45v9.8c0,5.16 -7.29,9.48 -9.74,10.68c-0.21,0.11 -0.47,0.16 -0.68,0.16c-0.21,0 -0.47,-0.05 -0.68,-0.16c-2.45,-1.2 -9.74,-5.52 -9.74,-10.68v-9.8c0,-0.67 0.42,-1.24 0.99,-1.45c3.02,-1.2 5.89,-1.88 9.43,-1.88c3.54,0 6.41,0.68 9.43,1.88zM12.6702,8.60693c0,-1.27 -0.97,-2.25 -2.25,-2.25c-1.27003,0 -2.25003,0.98 -2.25003,2.25c0,0.98 0.6,1.79997 1.5,2.09997v6.15c0,0.45 0.3,0.75 0.75003,0.75c0.45,0 0.75,-0.3 0.75,-0.75v-6.15c0.83,-0.3 1.5,-1.11997 1.5,-2.09997z"></path></g></g></g></svg>