<svg xmlns="http://www.w3.org/2000/svg" xmlns:xlink="http://www.w3.org/1999/xlink" width="27.7333984375" height="27.279296875" viewBox="0 0 32 32.09275362318836" fill="none"><g opacity="1"  transform="translate(0 0)  rotate(0)"><path id="椭圆形" fill-rule="evenodd" style="fill:#73E1DB" opacity="1" d="M24.6679 13.9989C24.6679 9.22888 20.7779 5.34888 15.9879 5.34888C11.1979 5.34888 7.30786 9.22888 7.30786 13.9989C7.30786 18.7789 11.1979 22.6589 15.9879 22.6589C20.7779 22.6589 24.6679 18.7789 24.6679 13.9989Z"></path><path id="形状结合" fill-rule="evenodd" style="fill:#2B58F9" opacity="1" d="M22.4034,27.2792h-13.34c-2.94,0 -5.33,-2.39 -5.33,-5.33v-6.18c0,-2.94 2.39,-5.33 5.33,-5.33h13.34c2.94,0 5.33,2.39 5.33,5.33v6.18c0,2.94 -2.39,5.33 -5.33,5.33zM16.8048,19.2505h-0.24v-2.42c0.67,0 1.21,0.55 1.21,1.21h1.22c0,-1.33 -1.09,-2.42 -2.43,-2.42v-0.6h-1.21v0.6c-1.34,0 -2.43,1.09 -2.43,2.42c0,1.33 1.09,2.42 2.43,2.42v2.42c-0.67,0 -1.22,-0.55 -1.22,-1.21h-1.21c0,1.33 1.09,2.42 2.43,2.42v0.6h1.21v-0.6c1.34,0 2.43,-1.09 2.49,-2.42c0,-0.73 -0.37,-1.39 -0.85,-1.81c-0.43,-0.37 -0.97,-0.61 -1.4,-0.61zM15.3482,19.254c-0.66,0 -1.21,-0.55 -1.21,-1.21c0,-0.67 0.55,-1.21 1.21,-1.21zM16.5649,22.8809v-2.42c0.67,0 1.21,0.54 1.21,1.21c0,0.66 -0.54,1.21 -1.21,1.21z"></path><path id="形状结合" fill-rule="evenodd" style="fill:#071EF3" opacity="1" d="M24.0064,10.6852c0.4262,1.0211 0.6615,2.1405 0.6615,3.3137c0,3.726 -2.3637,6.9052 -5.6749,8.126c0.0338,-0.1473 0.0548,-0.2992 0.0618,-0.4544c0,-0.73 -0.37,-1.39 -0.85,-1.81c-0.43,-0.37 -0.97,-0.61 -1.4,-0.61h-0.24v-2.42c0.67,0 1.21,0.55 1.21,1.21h1.22c0,-1.33 -1.09,-2.42 -2.43,-2.42v-0.6h-1.21v0.6c-1.34,0 -2.43,1.09 -2.43,2.42c0,1.33 1.09,2.42 2.43,2.42v2.1756c-0.288,-0.0207 -0.5721,-0.0555 -0.8517,-0.1037c-0.2268,-0.2207 -0.3683,-0.5272 -0.3683,-0.8619h-1.21c0,0.1531 0.0145,0.3031 0.0421,0.4486c-3.30288,-1.2251 -5.65904,-4.4001 -5.65904,-8.1202c0,-1.2294 0.2584,-2.3997 0.72399,-3.4596c0.33381,-0.0657 0.67872,-0.1001 1.03155,-0.1001h13.34c0.5584,0 1.0969,0.0862 1.603,0.246zM17.3996,22.5447c-0.2742,0.0448 -0.5526,0.0768 -0.8347,0.0953v-2.1791c0.67,0 1.2101,0.54 1.2101,1.21c0,0.3408 -0.144,0.6522 -0.3754,0.8738zM15.3482,19.254c-0.66,0 -1.21,-0.55 -1.21,-1.21c0,-0.67 0.55,-1.21 1.21,-1.21z"></path><path id="形状" fill-rule="evenodd" style="fill:#FFFFFF" opacity="1" d="M18.2048,19.8605c0.48,0.42 0.85,1.08 0.85,1.81c-0.06,1.33 -1.15,2.42 -2.49,2.42v0.6h-1.21v-0.6c-1.34,0 -2.43,-1.09 -2.43,-2.42h1.21c0,0.66 0.55,1.21 1.22,1.21v-2.42c-1.34,0 -2.43,-1.09 -2.43,-2.42c0,-1.33 1.09,-2.42 2.43,-2.42v-0.6h1.21v0.6c1.34,0 2.43,1.09 2.43,2.42h-1.22c0,-0.66 -0.54,-1.21 -1.21,-1.21v2.42h0.24c0.43,0 0.97,0.24 1.4,0.61zM15.3482,16.834c-0.66,0 -1.21,0.54 -1.21,1.21c0,0.66 0.55,1.21 1.21,1.21zM17.7749,21.6709c0,-0.67 -0.54,-1.21 -1.21,-1.21v2.42c0.67,0 1.21,-0.55 1.21,-1.21z"></path></g></svg>