<svg xmlns="http://www.w3.org/2000/svg" xmlns:xlink="http://www.w3.org/1999/xlink" width="28.8359375" height="27.0130615234375" viewBox="0 0 32 32.0927536231884" fill="none"><g opacity="1"  transform="translate(0 0)  rotate(0)"><g opacity="1"  transform="translate(3.16259765625 5.081298828125)  rotate(0)"><path id="矩形备份 18" fill-rule="evenodd" style="fill:#73E1DB" opacity="1" d="M6.67315 13.2296L18.3222 16.6115C20.4535 17.233 22.6895 16.0017 23.2918 13.8649L24.5378 9.4472C25.1345 7.32967 23.9238 5.13075 21.8117 4.51473L10.153 1.13004C8.0218 0.508516 5.79538 1.74264 5.19307 3.8794L3.93751 8.29434C3.34072 10.4119 4.56113 12.6136 6.67315 13.2296Z"></path><path id="矩形" fill-rule="evenodd" style="fill:#FFFFFF" opacity="1" d="M0 11.2818L22.23 11.2818L22.23 9.13184L0 9.13184L0 11.2818Z"></path><g opacity="1"  transform="translate(0 5.81494140625)  rotate(0)"><path id="形状" fill-rule="evenodd" style="fill:#2B58F9" opacity="1" d="M0,1.36c0,-0.75 0.57,-1.36 1.27,-1.36h19.69c0.7,0 1.27,0.61 1.27,1.36v2.28h-22.23zM20.96,16.1168h-19.69c-0.7,0 -1.27,-0.61 -1.27,-1.36v-9.32003h22.23v9.32003c0,0.75 -0.57,1.36 -1.27,1.36zM15.4778,14.0403h3.54c0.12,0 0.22,-0.08 0.25,-0.21l0.44,-1.93c0.04,-0.17 -0.08,-0.34 -0.25,-0.34h-3.54c-0.12,0 -0.22,0.09 -0.25,0.21l-0.44,1.93c-0.04,0.17 0.08,0.34 0.25,0.34zM7.74697,14.0453c0.13,0 0.25,-0.12 0.25,-0.27v-0.56c0,-0.15 -0.12,-0.27 -0.25,-0.27h-2.35c-0.14,0 -0.25,0.12 -0.25,0.27v0.56c0,0.15 0.11,0.27 0.25,0.27zM3.69629,14.0482c0.19,0 0.34,-0.17 0.34,-0.37v-0.36c0,-0.2 -0.15,-0.37 -0.34,-0.37h-2.16c-0.19,0 -0.34,0.16 -0.34,0.37v0.36c0,0.2 0.15,0.37 0.34,0.37z"></path><path id="形状" fill-rule="evenodd" style="fill:#2B58F9" opacity="1" d="M0,1.36c0,-0.75 0.57,-1.36 1.27,-1.36h19.69c0.7,0 1.27,0.61 1.27,1.36v2.28h-22.23zM20.96,16.1168h-19.69c-0.7,0 -1.27,-0.61 -1.27,-1.36v-9.32003h22.23v9.32003c0,0.75 -0.57,1.36 -1.27,1.36zM15.4778,14.0403h3.54c0.12,0 0.22,-0.08 0.25,-0.21l0.44,-1.93c0.04,-0.17 -0.08,-0.34 -0.25,-0.34h-3.54c-0.12,0 -0.22,0.09 -0.25,0.21l-0.44,1.93c-0.04,0.17 0.08,0.34 0.25,0.34zM7.74697,14.0453c0.13,0 0.25,-0.12 0.25,-0.27v-0.56c0,-0.15 -0.12,-0.27 -0.25,-0.27h-2.35c-0.14,0 -0.25,0.12 -0.25,0.27v0.56c0,0.15 0.11,0.27 0.25,0.27zM3.69629,14.0482c0.19,0 0.34,-0.17 0.34,-0.37v-0.36c0,-0.2 -0.15,-0.37 -0.34,-0.37h-2.16c-0.19,0 -0.34,0.16 -0.34,0.37v0.36c0,0.2 0.15,0.37 0.34,0.37z"></path></g><path id="形状结合" fill-rule="evenodd" style="fill:#071EF3" opacity="1" d="M4.2501,11.252h17.98v4.3929c-0.9992,0.9661 -2.4771,1.3838 -3.9078,0.9666l-11.64905,-3.3819c-1.08468,-0.3164 -1.93419,-1.051 -2.42315,-1.9776zM3.93761,8.29434l0.70504,-2.47915h16.31745c0.7,0 1.27,0.61 1.27,1.36v2.28h-18.44323c-0.00684,-0.38295 0.04151,-0.77331 0.15074,-1.16085z"></path></g></g></svg>