<svg xmlns="http://www.w3.org/2000/svg" xmlns:xlink="http://www.w3.org/1999/xlink" width="29.331298828125" height="28.880615234375" viewBox="0 0 32 32.0927536231884" fill="none"><g opacity="1"  transform="translate(0 0)  rotate(0)"><g opacity="1"  transform="translate(1.60009765625 4.279052734375)  rotate(0)"><path id="路径" fill-rule="evenodd" style="fill:#73E1DB" opacity="1" d="M18.6199 1.85491C17.8199 0.954912 16.9399 0.514912 15.9699 0.534912C15.0099 0.554912 14.1299 1.01491 13.3299 1.90491L7.9999 7.84491C7.3799 8.53491 7.8699 9.62491 8.7899 9.62491L23.2099 9.62491C24.1299 9.62491 24.6199 8.53491 23.9999 7.84491L18.6199 1.85491Z"></path><g opacity="1"  transform="translate(0 0)  rotate(0)"><path id="路径" fill-rule="evenodd" style="fill:#2B58F9" opacity="1" d="M9.51392 20.7015C9.26392 20.8115 9.05392 20.9515 8.86392 21.1315C8.68392 21.3115 8.53392 21.5315 8.42392 21.7815C8.32392 22.0315 8.26392 22.2915 8.26392 22.5715C8.26392 22.8415 8.32392 23.1115 8.42392 23.3515C8.53392 23.6015 8.68392 23.8215 8.86392 24.0015C9.05392 24.1815 9.26392 24.3315 9.51392 24.4415C9.76392 24.5515 10.0339 24.6015 10.3339 24.6015C10.6039 24.6015 10.8739 24.5515 11.1239 24.4415C11.3739 24.3315 11.5839 24.1815 11.7639 24.0015C11.9539 23.8215 12.0939 23.6015 12.2039 23.3515C12.3139 23.1115 12.3739 22.8415 12.3739 22.5715C12.3739 22.2915 12.3139 22.0315 12.2039 21.7815C12.0939 21.5315 11.9539 21.3115 11.7639 21.1315C11.5839 20.9515 11.3739 20.8115 11.1239 20.7015C10.8739 20.6015 10.6039 20.5515 10.3339 20.5515C10.0339 20.5515 9.76392 20.6015 9.51392 20.7015Z"></path><path id="路径备份 3" fill-rule="evenodd" style="fill:#2B58F9" opacity="1" d="M20.2991 20.7015C20.0491 20.8115 19.8391 20.9515 19.6491 21.1315C19.4691 21.3115 19.3191 21.5315 19.2091 21.7815C19.1091 22.0315 19.0491 22.2915 19.0491 22.5715C19.0491 22.8415 19.1091 23.1115 19.2091 23.3515C19.3191 23.6015 19.4691 23.8215 19.6491 24.0015C19.8391 24.1815 20.0491 24.3315 20.2991 24.4415C20.5491 24.5515 20.8191 24.6015 21.1191 24.6015C21.3891 24.6015 21.6591 24.5515 21.9091 24.4415C22.1591 24.3315 22.3691 24.1815 22.5491 24.0015C22.7391 23.8215 22.8791 23.6015 22.9891 23.3515C23.0991 23.1115 23.1591 22.8415 23.1591 22.5715C23.1591 22.2915 23.0991 22.0315 22.9891 21.7815C22.8791 21.5315 22.7391 21.3115 22.5491 21.1315C22.3691 20.9515 22.1591 20.8115 21.9091 20.7015C21.6591 20.6015 21.3891 20.5515 21.1191 20.5515C20.8191 20.5515 20.5491 20.6015 20.2991 20.7015Z"></path><path id="路径" fill-rule="evenodd" style="fill:#2B58F9" opacity="1" d="M6.5 4.12C6.44 3.75 6.38 3.39 6.33 3.06C6.29 2.77 6.25 2.5 6.21 2.23C6.18 1.96 6.14 1.75 6.1 1.6C6.1 1.6 6.02 1.31 5.96 1.12C5.9 0.93 5.81 0.76 5.68 0.59C5.55 0.42 5.14 0.17 5.14 0.17C4.92 0.06 4.62 0 4.25 0L3.29 0L2.59 0L2 0L1.41 0C0.97 0 0.63 0.12 0.38 0.37C0.13 0.61 0 0.92 0 1.29C0 1.48 0.02 1.68 0.07 1.91C0.12 2.13 0.2 2.34 0.32 2.54C0.44 2.73 0.6 2.9 0.79 3.04C0.97 3.18 1.21 3.25 1.49 3.25L3.6 3.25C4.05 5.57 4.45 7.67 4.81 9.56C4.96 10.36 5.11 11.16 5.26 11.95C5.41 12.75 5.54 13.47 5.67 14.11C5.79 14.76 5.89 15.29 5.97 15.73C6.06 16.15 6.11 16.42 6.13 16.54C6.18 16.82 6.26 17.12 6.37 17.43C6.47 17.75 6.61 18.05 6.78 18.32C6.94 18.59 7.16 18.81 7.41 18.98C7.66 19.14 7.97 19.23 8.35 19.23L9.87 19.23L12.59 19.23L15.88 19.23L19.14 19.23L21.73 19.23L23.08 19.23C23.6 19.23 23.96 19.09 24.13 18.82C24.31 18.55 24.4 18.23 24.4 17.86C24.4 17.09 23.95 16.71 23.05 16.71L8.86 16.71L8.46 14.18L15.43 14.18L18.08 14.18L20.44 14.18L22.24 14.18L23.22 14.18C23.76 14.18 24.22 14.04 24.58 13.75C24.95 13.46 25.25 12.94 25.5 12.19C25.63 11.84 25.8 11.35 26.02 10.74C26.23 10.12 26.45 9.5 26.66 8.87C26.88 8.25 27.08 7.67 27.27 7.15C27.46 6.62 27.58 6.28 27.63 6.11C27.69 5.94 27.72 5.74 27.73 5.51C27.74 5.27 27.69 5.06 27.56 4.85C27.44 4.64 27.24 4.47 26.95 4.33C26.65 4.19 26.25 4.12 25.72 4.12L6.5 4.12Z"></path></g></g></g></svg>