<svg xmlns="http://www.w3.org/2000/svg" xmlns:xlink="http://www.w3.org/1999/xlink" width="28.313232421875" height="27.813720703125" viewBox="0 0 32 32.0927536231884" fill="none"><g opacity="1"  transform="translate(0 0)  rotate(0)"><path id="路径 25" fill-rule="evenodd" style="fill:#73E1DB" opacity="1" d="M9.06616 14.3563L22.9362 14.3563L21.6962 6.6963C21.4862 5.4063 20.3762 4.4563 19.0662 4.4563L12.9362 4.4563C11.6262 4.4563 10.5162 5.4063 10.3062 6.6963L9.06616 14.3563Z"></path><path id="形状" fill-rule="evenodd" style="fill:#2B58F9" opacity="1" d="M25.2833,13.9034c1.22,0 2.22,0.93 2.33,2.09l0.64,5.79c0.06,0.64 -0.11,1.28 -0.58,1.8c-0.47,0.46 -1.06,0.75 -1.75,0.75h-0.59v2.32c0,0.64 -0.52,1.16 -1.17,1.16h-2.33c-0.64,0 -1.17,-0.52 -1.17,-1.16v-2.32h-9.33v2.32c0,0.64 -0.5299,1.16 -1.17,1.16h-2.33995c-0.64,0 -1.16,-0.52 -1.16,-1.16v-2.32h-0.58c-0.71,0 -1.29,-0.29 -1.76,-0.75c-0.46,-0.52 -0.64,-1.11 -0.58,-1.8l0.64,-5.79c0.18,-1.22 1.11,-2.09 2.34,-2.09h0.29l0.76,-4.98003c0.17,-1.16 1.16,-1.97 2.32995,-1.97h11.79c1.17,0 2.16,0.81 2.34,1.97l0.75,4.98003zM10.1578,13.9003h11.68c0.17,0 0.29,-0.06 0.47,-0.17c0.11,-0.11 0.11,-0.29 0.11,-0.46l-0.47,-3.48004c-0.05,-0.29 -0.29,-0.52 -0.58,-0.52h-10.74c-0.29,0 -0.52,0.23 -0.58,0.52l-0.46999,3.48004c-0.06,0.17 0,0.35 0.12,0.46c0.11,0.12 0.29,0.17 0.45999,0.17zM11.9191,19.1167c0,-0.99 -0.76,-1.74 -1.76,-1.74c-0.98997,0 -1.74997,0.76 -1.74997,1.74c0,0.99 0.76,1.74 1.74997,1.74c1,0 1.76,-0.75 1.76,-1.74zM21.8339,20.8621c1,0 1.76,-0.76 1.76,-1.74c0,-0.99 -0.77,-1.74 -1.76,-1.74c-0.99,0 -1.75,0.76 -1.75,1.74c0,0.98 0.76,1.74 1.75,1.74z"></path><path id="形状结合" fill-rule="evenodd" style="fill:#071EF3" opacity="1" d="M22.9362,14.3563h-13.87004l1.19834,-7.40293h11.4733zM10.1576,13.9003h11.68c0.17,0 0.29,-0.06 0.47,-0.17c0.11,-0.11 0.11,-0.29 0.11,-0.46l-0.47,-3.48004c-0.05,-0.29 -0.29,-0.52 -0.58,-0.52h-10.74c-0.29,0 -0.52,0.23 -0.58,0.52l-0.47003,3.48004c-0.06,0.17 0,0.35 0.12,0.46c0.11,0.12 0.29,0.17 0.46003,0.17z"></path><path id="路径 26" fill-rule="evenodd" style="fill:#FFFFFF" opacity="1" d="M9.06616 14.3603L22.9362 14.3603L22.1162 9.27026L9.89616 9.27026L9.06616 14.3603Z"></path></g></svg>