<svg xmlns="http://www.w3.org/2000/svg" xmlns:xlink="http://www.w3.org/1999/xlink" width="29.241943359375" height="29.9140625" viewBox="0 0 32 32.09275362318841" fill="none"><g opacity="1"  transform="translate(0 0)  rotate(0)"><g opacity="1"  transform="translate(2.751953125 2.02978515625)  rotate(0)"><g opacity="1"  transform="translate(0 0)  rotate(0)"><path id="矩形" fill-rule="evenodd" style="fill:#73E1DB" opacity="1" d="M19.3315 13.0437L21.9315 13.0437C22.5215 13.0437 23.0015 12.5637 23.0015 11.9737L23.0015 2.84368C23.0015 2.25368 22.5215 1.77368 21.9315 1.77368L19.3315 1.77368C18.7415 1.77368 18.2615 2.25368 18.2615 2.84368L18.2615 11.9737C18.2615 12.5637 18.7415 13.0437 19.3315 13.0437Z"></path><path id="形状备份" fill-rule="evenodd" style="fill:#2B58F9" opacity="1" d="M14.21,0.47l0.16,0.13l11.72,10.71c0.28,0.25 0.4,0.66 0.31,1.05c-0.09,0.39 -0.37,0.69 -0.72,0.75l-24.73,0.01c-0.35,0 -0.67,-0.24 -0.81,-0.61c-0.14,-0.37 -0.08,-0.8 0.16,-1.09l0.1,-0.11l11.73,-10.71c0.6,-0.55 1.43,-0.6 2.08,-0.13zM23.1992,14.3443c0.28,0 0.52,0.27 0.51,0.6v9.93h1.97c0.29,0 0.52,0.27 0.52,0.6v0.9c0,0.84 -0.58,1.51 -1.3,1.51h-23.30995c-0.71,0 -1.29,-0.67 -1.29,-1.51v-0.9c0,-0.33 0.23,-0.6 0.52,-0.6h1.97v-9.93c0,-0.33 0.23,-0.6 0.51,-0.6zM16.6365,25.3331l-0.85,-2.96c-0.04,-0.16 0.01,-0.32 0.14,-0.42l2.43,-1.9c0.31,-0.23 0.14,-0.72 -0.24,-0.72l-3.07,-0.11c-0.17,0 -0.31,-0.11 -0.37,-0.26l-1.05,-2.89c-0.13,-0.35 -0.62,-0.35 -0.75,0l-1.06,2.89c-0.06,0.15 -0.2,0.25 -0.36,0.26l-3.08001,0.11c-0.38,0.01 -0.53,0.49 -0.23,0.72l2.42001,1.9c0.13,0.1 0.18,0.26 0.14,0.42l-0.84001,2.96c-0.11,0.36 0.29001,0.65 0.60001,0.45l2.56,-1.72c0.14,-0.09 0.31,-0.09 0.45,0l2.55,1.72c0.31,0.22 0.73,-0.09 0.61,-0.45z"></path><path id="形状结合" fill-rule="evenodd" style="fill:#071EF3" opacity="1" d="M18.262,4.15601l4.74,4.33151v3.48058c0,0.59 -0.48,1.07 -1.07,1.07h-2.6c-0.59,0 -1.07,-0.48 -1.07,-1.07z"></path></g></g></g></svg>