<svg xmlns="http://www.w3.org/2000/svg" xmlns:xlink="http://www.w3.org/1999/xlink" width="29.619873046875" height="30.531982421875" viewBox="0 0 32 33.096923828125" fill="none"><g opacity="1"  transform="translate(0 0)  rotate(0)"><g opacity="1"  transform="translate(0 0)  rotate(0)"><g opacity="1"  transform="translate(2.380126953125 0)  rotate(0)"><g opacity="1"  transform="translate(4.966064453125 3.57080078125)  rotate(0)"><g opacity="1"  transform="translate(0 0)  rotate(0)"><path id="形状结合" fill-rule="evenodd" style="fill:#2B58F9" opacity="1" d="M10.3369,9.2802c0,1.03 0.84,1.86 1.87,1.86h10.0631v13.6898c0,1.18 -0.95,2.13 -2.13,2.13h-18.01c-1.18,0 -2.13,-0.95 -2.13,-2.13v-22.7c0,-1.18 0.95,-2.13 2.13,-2.13h8.2069zM22.27,9.5402h-10.0631c-0.15,0 -0.27,-0.12 -0.27,-0.26v-9.2802h3.5231c0.56,0 1.09,0.21 1.49,0.6l4.68,4.55c0.41,0.4 0.64,0.95 0.64,1.53z"></path></g></g><path id="形状" fill-rule="evenodd" style="fill:#73E1DB" opacity="1" d="M3.83,14.7686c1.08,-0.47 2.23,-0.7 3.37,-0.7c1.15,0 2.29,0.23 3.37,0.7l3.84,1.66v4.73c0,1.07 -0.19,2.14 -0.55,3.15c-0.35,1 -0.86,1.93 -1.5,2.77c-0.64,0.85 -1.42,1.59 -2.3,2.19c-0.87,0.59 -1.84,1.02 -2.86,1.26c-1.02,-0.24 -2,-0.67 -2.87,-1.27c-0.88,-0.6 -1.65,-1.34 -2.3,-2.19c-0.63,-0.83 -1.14,-1.76 -1.49,-2.75c-0.36,-1.02 -0.54,-2.08 -0.54,-3.16v-4.73z"></path><path id="路径" fill-rule="evenodd" style="fill:#FFFFFF" opacity="1" d="M11.0548 19.8759L8.61476 19.5259C8.61476 19.5259 8.54476 19.4859 8.52476 19.4459L7.43476 17.2359C7.33476 17.0459 7.06476 17.0459 6.97476 17.2359L5.88476 19.4459C5.86476 19.4859 5.78476 19.5259 5.78476 19.5259L3.34476 19.8759C3.13476 19.9059 3.05476 20.1659 3.20476 20.3159L4.96476 22.0359C4.99476 22.0659 5.01476 22.1059 5.00476 22.1459L4.58476 24.5759C4.55476 24.7859 4.77476 24.9459 4.96476 24.8459L7.14476 23.7059C7.18476 23.6859 7.22476 23.6859 7.26476 23.7059L9.44476 24.8459C9.63476 24.9459 9.85476 24.7859 9.81476 24.5759L9.40476 22.1459C9.39476 22.1059 9.40476 22.0659 9.43476 22.0359L11.2048 20.3159C11.3548 20.1659 11.2748 19.9059 11.0548 19.8759Z"></path></g></g></g></svg>