<svg xmlns="http://www.w3.org/2000/svg" xmlns:xlink="http://www.w3.org/1999/xlink" width="29.863037109375" height="27.818603515625" viewBox="0 0 32 32.09275362318841" fill="none"><g opacity="1"  transform="translate(0 0)  rotate(0)"><path id="椭圆形" fill-rule="evenodd" style="fill:#73E1DB" opacity="1" d="M29.8631 22.5085C29.8631 19.5785 27.4831 17.1985 24.5431 17.1985C21.6031 17.1985 19.2231 19.5785 19.2231 22.5085C19.2231 25.4385 21.6031 27.8185 24.5431 27.8185C27.4831 27.8185 29.8631 25.4385 29.8631 22.5085Z"></path><path id="形状" fill-rule="evenodd" style="fill:#2B58F9" opacity="1" d="M18.0674,15.564h-7.74c0.16,-6.39003 2.29,-10.62004 3.8,-10.75004h0.14c1.49,0.13 3.64,4.36001 3.8,10.75004zM8.83675,15.5633h-6.17c0.33,-5 3.88,-9.20998 8.78995,-10.40998c-1.46995,2.14 -2.51995,5.97998 -2.61995,10.40998zM25.7319,15.5633h-6.16c-0.12,-4.43 -1.14,-8.26998 -2.63,-10.40998c4.9,1.2 8.46,5.40998 8.79,10.40998zM2.66675,17.0398h6.17c0.1,4.43 1.15,8.27 2.61995,10.41c-4.90995,-1.19 -8.45995,-5.41 -8.78995,-10.41zM14.2674,27.7898h-0.14c-1.51,-0.13 -3.64,-4.35 -3.8,-10.75h7.74c-0.16,6.4 -2.31,10.62 -3.8,10.75zM19.5619,17.0398h6.17c-0.33,5 -3.89,9.22 -8.79,10.41c1.49,-2.14 2.51,-5.98 2.62,-10.41z"></path><path id="形状结合" fill-rule="evenodd" style="fill:#071EF3" opacity="1" d="M20.4783,25.934c-0.7832,-0.925 -1.2552,-2.1207 -1.2552,-3.4255c0,-2.93 2.38,-5.31 5.32,-5.31c0.4006,0 0.7908,0.0442 1.166,0.1279c-0.3259,3.574 -2.3038,6.7223 -5.2308,8.6076z"></path><path id="路径" fill-rule="evenodd" style="fill:#FFFFFF" opacity="1" d="M23.5753 21.7532C22.9953 22.3132 23.0453 23.1932 23.6253 23.7432L24.9553 25.0332C25.5253 25.5932 26.4653 25.5932 27.0453 25.0332L27.0653 25.0132C27.6453 24.4532 27.6453 23.5432 27.0653 22.9832L26.4553 22.4332L26.3953 22.3732L26.3853 22.3732C26.3353 22.3432 26.2753 22.3132 26.2053 22.3132C26.0253 22.3132 25.8753 22.4632 25.8753 22.6332C25.8753 22.7332 25.9253 22.8232 26.0053 22.8832L26.5953 23.4532C26.9053 23.7532 26.9053 24.2432 26.5953 24.5532L26.5653 24.5732C26.2553 24.8732 25.7453 24.8732 25.4353 24.5732L24.0953 23.2832C23.7853 22.9832 23.6953 22.4632 24.0053 22.1632L24.0353 22.1332C24.0553 22.1132 24.0853 22.0832 24.1153 22.0632C24.1453 22.0432 24.1653 22.0232 24.1853 22.0032C24.2353 21.9532 24.2553 21.8832 24.2553 21.8132C24.2553 21.6532 24.1253 21.5232 23.9553 21.5232C23.8753 21.5232 23.8053 21.5532 23.7453 21.6032C23.6953 21.6432 23.6453 21.6832 23.5953 21.7332L23.5753 21.7532Z"></path><path id="路径" fill-rule="evenodd" style="fill:#FFFFFF" opacity="1" d="M22.0184 21.8474L22.6384 22.3574C22.6584 22.3874 22.6884 22.4074 22.7284 22.4274C22.7784 22.4574 22.8284 22.4674 22.8984 22.4674C23.0784 22.4674 23.2184 22.3374 23.2184 22.1774C23.2184 22.0774 23.1684 21.9974 23.0884 21.9474L22.4984 21.4174C22.1884 21.1374 22.1884 20.6774 22.4984 20.3974L22.5284 20.3774C22.8384 20.0974 23.3484 20.0974 23.6584 20.3774L24.9984 21.5774C25.3084 21.8574 25.4284 22.2574 25.1184 22.5374L25.0884 22.5674C25.0384 22.6074 24.9684 22.6574 24.9284 22.7274C24.9184 22.7674 24.9084 22.7974 24.9084 22.8374C24.9084 22.9774 25.0284 23.0974 25.1884 23.0974C25.2384 23.0974 25.2884 23.0874 25.3284 23.0574C25.3584 23.0474 25.3784 23.0274 25.3984 23.0074C25.4284 22.9874 25.4584 22.9674 25.4784 22.9474L25.5084 22.9174C26.0884 22.4074 26.0484 21.6574 25.4784 21.1374L24.1384 19.9474C23.5684 19.4274 22.6184 19.4274 22.0484 19.9474L22.0184 19.9674C21.4484 20.4874 21.4484 21.3274 22.0184 21.8474Z"></path></g></svg>