<?xml version="1.0" encoding="UTF-8"?>
<svg width="80px" height="81px" viewBox="0 0 80 81" version="1.1" xmlns="http://www.w3.org/2000/svg" xmlns:xlink="http://www.w3.org/1999/xlink">
    <title>矩形 23</title>
    <defs>
        <linearGradient x1="50%" y1="4.40946186%" x2="50%" y2="95.2917489%" id="linearGradient-1">
            <stop stop-color="#C4DAFF" stop-opacity="0.557048664" offset="0%"></stop>
            <stop stop-color="#BFD7FF" stop-opacity="0.148210432" offset="100%"></stop>
        </linearGradient>
        <linearGradient x1="50%" y1="0%" x2="50%" y2="100%" id="linearGradient-2">
            <stop stop-color="#4086FD" stop-opacity="0.0454186926" offset="0%"></stop>
            <stop stop-color="#4086FD" stop-opacity="0.130374508" offset="0%"></stop>
            <stop stop-color="#4086FD" stop-opacity="0.0514231862" offset="100%"></stop>
        </linearGradient>
        <path d="M4.86202478,0 L54.6617847,0 C57.3470069,3.38846699e-15 59.5238095,2.17680264 59.5238095,4.86202478 L59.5238095,52.1379752 C59.5238095,54.8231974 57.3470069,57 54.6617847,57 L4.86202478,57 C2.17680264,57 3.2884487e-16,54.8231974 0,52.1379752 L0,4.86202478 C-3.2884487e-16,2.17680264 2.17680264,-3.94911115e-16 4.86202478,0 Z" id="path-3"></path>
        <filter x="-11.8%" y="-8.8%" width="123.5%" height="124.6%" filterUnits="objectBoundingBox" id="filter-4">
            <feOffset dx="0" dy="2" in="SourceAlpha" result="shadowOffsetOuter1"></feOffset>
            <feGaussianBlur stdDeviation="2" in="shadowOffsetOuter1" result="shadowBlurOuter1"></feGaussianBlur>
            <feComposite in="shadowBlurOuter1" in2="SourceAlpha" operator="out" result="shadowBlurOuter1"></feComposite>
            <feColorMatrix values="0 0 0 0 0.204737413   0 0 0 0 0.418516171   0 0 0 0 0.719076405  0 0 0 0.1 0" type="matrix" in="shadowBlurOuter1"></feColorMatrix>
        </filter>
        <path d="M14.5165615,0 C9.71013624,0 5.80660258,3.88010579 5.80660258,8.66874069 C5.80660258,13.4573756 9.70841275,17.3374814 14.5165981,17.3374814 C19.3264337,17.3374814 23.2282438,13.4573756 23.2282438,8.66874069 C23.2282438,3.88010579 19.3298073,0 14.5165615,0 Z" id="path-5"></path>
        <filter x="-40.2%" y="-28.8%" width="180.4%" height="180.7%" filterUnits="objectBoundingBox" id="filter-6">
            <feOffset dx="0" dy="2" in="SourceAlpha" result="shadowOffsetOuter1"></feOffset>
            <feGaussianBlur stdDeviation="2" in="shadowOffsetOuter1" result="shadowBlurOuter1"></feGaussianBlur>
            <feColorMatrix values="0 0 0 0 0.204737413   0 0 0 0 0.418516171   0 0 0 0 0.719076405  0 0 0 0.1 0" type="matrix" in="shadowBlurOuter1"></feColorMatrix>
        </filter>
        <path d="M11.2531046,18.80267 C5.03854704,18.80267 0,23.8166586 0,29.9992083 L0,30.718701 C0,33.2482493 5.03854704,33.25 11.2531046,33.25 L18.5122471,33.25 C24.7250812,33.25 29.7619048,33.1563572 29.7619048,30.718701 L29.7619048,29.9992455 C29.7619048,23.8166958 24.7250812,18.80267 18.5122471,18.80267 L11.2531046,18.80267 L11.2531046,18.80267 Z" id="path-7"></path>
        <filter x="-23.5%" y="-34.6%" width="147.0%" height="196.9%" filterUnits="objectBoundingBox" id="filter-8">
            <feOffset dx="0" dy="2" in="SourceAlpha" result="shadowOffsetOuter1"></feOffset>
            <feGaussianBlur stdDeviation="2" in="shadowOffsetOuter1" result="shadowBlurOuter1"></feGaussianBlur>
            <feColorMatrix values="0 0 0 0 0.204737413   0 0 0 0 0.418516171   0 0 0 0 0.719076405  0 0 0 0.1 0" type="matrix" in="shadowBlurOuter1"></feColorMatrix>
        </filter>
    </defs>
    <g id="页面-1" stroke="none" stroke-width="1" fill="none" fill-rule="evenodd">
        <g id="图标样式" transform="translate(-81.000000, -309.000000)">
            <rect id="矩形" x="81" y="309.5" width="80" height="80"></rect>
            <g id="编组-105" transform="translate(98.476190, 320.500000)">
                <g id="矩形">
                    <use fill="black" fill-opacity="1" filter="url(#filter-4)" xlink:href="#path-3"></use>
                    <path stroke="url(#linearGradient-2)" stroke-width="0.9975" d="M54.6617847,0.49875 C55.8666698,0.49875 56.9574885,0.987126165 57.7470859,1.7767236 C58.5366834,2.56632103 59.0250595,3.65713972 59.0250595,4.86202478 L59.0250595,52.1379752 C59.0250595,53.3428603 58.5366834,54.433679 57.7470859,55.2232764 C56.9574885,56.0128738 55.8666698,56.50125 54.6617847,56.50125 L4.86202478,56.50125 C3.65713972,56.50125 2.56632103,56.0128738 1.7767236,55.2232764 C0.987126165,54.433679 0.49875,53.3428603 0.49875,52.1379752 L0.49875,4.86202478 C0.49875,3.65713972 0.987126165,2.56632103 1.7767236,1.7767236 C2.56632103,0.987126165 3.65713972,0.49875 4.86202478,0.49875 Z" stroke-linejoin="square" fill="url(#linearGradient-1)" fill-rule="evenodd"></path>
                </g>
                <g id="编组-104" transform="translate(15.476190, 11.875000)" fill-rule="nonzero" opacity="0.948111">
                    <g id="编组-103">
                        <g id="路径">
                            <use fill="black" fill-opacity="1" filter="url(#filter-6)" xlink:href="#path-5"></use>
                            <use fill="#FFFFFF" xlink:href="#path-5"></use>
                        </g>
                        <g id="路径">
                            <use fill="black" fill-opacity="1" filter="url(#filter-8)" xlink:href="#path-7"></use>
                            <use fill="#FFFFFF" xlink:href="#path-7"></use>
                        </g>
                    </g>
                </g>
            </g>
        </g>
    </g>
</svg>