<?xml version="1.0" encoding="UTF-8"?>
<svg width="451px" height="409px" viewBox="0 0 451 409" version="1.1" xmlns="http://www.w3.org/2000/svg" xmlns:xlink="http://www.w3.org/1999/xlink">
    <title>编组 21备份</title>
    <g id="页面-1" stroke="none" stroke-width="1" fill="none" fill-rule="evenodd">
        <g id="编组-21备份" transform="translate(0.500000, 0.500000)">
            <text id="One-ID-用户识别" font-family="PingFangSC-Medium, PingFang SC" font-size="36" font-weight="400" line-spacing="56" fill="#000000" fill-opacity="0.8">
                <tspan x="0" y="38">One ID 用户识别</tspan>
            </text>
            <g id="编组-19" transform="translate(0.000000, 96.000000)">
                <text id="整合多通路" font-family="PingFangSC-Medium, PingFang SC" font-size="22" font-weight="400" line-spacing="28" fill="#000000" fill-opacity="0.8">
                    <tspan x="68" y="23">整合多通路</tspan>
                </text>
                <text id="使用户在分析和服务运营中以唯一身份呈现，" font-family="PingFangSC-Regular, PingFang SC" font-size="16" font-weight="normal" line-spacing="24" fill="#000000" fill-opacity="0.65">
                    <tspan x="68" y="53">使用户在分析和服务运营中以唯一身份呈现，丰富用</tspan>
                    <tspan x="68" y="77">户画像，实现精细化数据治理</tspan>
                </text>
                <g id="编组-73">
                    <g id="编组-18" fill="#FFFFFF">
                        <rect id="矩形" x="0" y="0" width="48" height="48" rx="8"></rect>
                    </g>
                    <g id="用户-圆" transform="translate(13.000000, 13.500000)" fill="#000000" fill-rule="nonzero">
                        <rect id="矩形" opacity="0" x="0" y="0" width="22" height="22"></rect>
                        <path d="M10.9856699,1.36066992 C5.66991992,1.36066992 1.36066992,5.66991992 1.36066992,10.9856699 C1.36066992,16.3014199 5.66991992,20.6106699 10.9856699,20.6106699 C16.3014199,20.6106699 20.6106699,16.3014199 20.6106699,10.9856699 C20.6106699,5.66991992 16.3014199,1.36066992 10.9856699,1.36066992 L10.9856699,1.36066992 Z M10.9856699,19.2356699 C9.87131836,19.2356699 8.79104102,19.0177324 7.77480859,18.587916 C7.00113477,18.2606875 6.28974414,17.8215684 5.65189453,17.279582 C5.91350977,16.5924043 6.55909375,15.9072676 7.46137305,15.3695566 C8.51187305,14.743502 9.80164453,14.3844336 11,14.3844336 C12.1951973,14.3844336 13.4796406,14.7423203 14.5239961,15.366334 C15.4212266,15.9024336 16.0641895,16.5869043 16.3257402,17.2742324 C15.6862793,17.8186895 14.9727402,18.2596133 14.1965098,18.587916 C13.1803203,19.0177324 12.1000215,19.2356699 10.9856699,19.2356699 L10.9856699,19.2356699 Z M17.3508027,16.2352051 C16.9105234,15.4631211 16.1830625,14.7558984 15.2292852,14.1860039 C13.9594727,13.4272832 12.4574785,13.0094336 11,13.0094336 C9.53983594,13.0094336 8.03313672,13.4281211 6.75745898,14.1883887 C5.79831055,14.760002 5.06758398,15.4687285 4.62631641,16.2419941 C4.11423633,15.6242109 3.69746094,14.9389238 3.38344531,14.1965098 C2.95362891,13.1802988 2.73569141,12.1 2.73569141,10.9856484 C2.73569141,9.87129687 2.95362891,8.79101953 3.38344531,7.77478711 C3.79888867,6.79254297 4.39394141,5.91011523 5.15206055,5.15201758 C5.9101582,4.39389844 6.79258594,3.79886719 7.77483008,3.38340234 C8.79104102,2.95358594 9.87133984,2.73564844 10.9856914,2.73564844 C12.100043,2.73564844 13.1803203,2.95358594 14.1965527,3.38340234 C15.1787969,3.7988457 16.0612246,4.39389844 16.8193223,5.15201758 C17.5774414,5.91011523 18.1724727,6.79254297 18.5879375,7.77478711 C19.0177539,8.79099805 19.2356914,9.87129687 19.2356914,10.9856484 C19.2356914,12.1 19.0177539,13.1802773 18.5879375,14.1965098 C18.2750605,14.9361953 17.8602832,15.6192051 17.3508027,16.2352051 Z" id="形状"></path>
                        <path d="M11,4.73135352 C9.1045625,4.73135352 7.5625,6.27341602 7.5625,8.16885352 C7.5625,10.064291 9.1045625,11.6063535 11,11.6063535 C12.895459,11.6063535 14.4375,10.0643125 14.4375,8.16885352 C14.4375,6.27339453 12.895459,4.73135352 11,4.73135352 L11,4.73135352 Z M11,10.2313535 C9.86272461,10.2313535 8.9375,9.30612891 8.9375,8.16885352 C8.9375,7.03157812 9.86272461,6.10635352 11,6.10635352 C12.1372754,6.10635352 13.0625,7.03157812 13.0625,8.16885352 C13.0625,9.30612891 12.1372754,10.2313535 11,10.2313535 Z" id="形状"></path>
                    </g>
                </g>
            </g>
            <g id="编组-20" transform="translate(0.000000, 210.000000)">
                <text id="统一客户视图" font-family="PingFangSC-Medium, PingFang SC" font-size="22" font-weight="400" line-spacing="28" fill="#000000" fill-opacity="0.8">
                    <tspan x="68" y="23">统一客户视图</tspan>
                </text>
                <text id="构建360度全面的用户认知，深入了解每位" font-family="PingFangSC-Regular, PingFang SC" font-size="16" font-weight="normal" line-spacing="24" fill="#000000" fill-opacity="0.65">
                    <tspan x="68" y="53">构建360度全面的用户认知，深入了解每位客户的需求</tspan>
                    <tspan x="68" y="77">和行为</tspan>
                </text>
                <g id="编组-74">
                    <g id="编组-18" fill="#FFFFFF">
                        <rect id="矩形" x="0" y="0" width="48" height="48" rx="8"></rect>
                    </g>
                    <g id="客户" transform="translate(14.000000, 12.500000)" fill="#000000" fill-rule="nonzero">
                        <rect id="矩形" opacity="0" x="0" y="0" width="22" height="22"></rect>
                        <path d="M17.5634766,8.4734375 L16.5642383,8.4734375 L16.5642383,7.84974609 C16.5642383,7.43423828 16.2262891,7.09650391 15.8109961,7.09650391 L15.211582,7.09650391 C14.7960742,7.09650391 14.458125,7.43445312 14.458125,7.84974609 L14.458125,8.4734375 L13.4588867,8.4734375 L13.4588867,7.84974609 C13.4588867,6.88337891 14.2452148,6.09726562 15.211582,6.09726562 L15.8109961,6.09726562 C16.7773633,6.09726562 17.5634766,6.88359375 17.5634766,7.84974609 L17.5634766,8.4734375 Z M15.5110742,7.09628906 C14.5565234,7.09628906 13.7798633,6.31984375 13.7798633,5.36529297 C13.7798633,4.41074219 14.5565234,3.63408203 15.5110742,3.63408203 C16.4658398,3.63408203 17.2422852,4.41074219 17.2422852,5.36529297 C17.2422852,6.31984375 16.4658398,7.09628906 15.5110742,7.09628906 Z M15.5110742,4.63310547 C15.1073828,4.63310547 14.7791016,4.96138672 14.7791016,5.36529297 C14.7791016,5.76876953 15.1073828,6.09705078 15.5110742,6.09705078 C15.9147656,6.09705078 16.2432617,5.76876953 16.2432617,5.36529297 C16.2432617,4.96138672 15.9149805,4.63310547 15.5110742,4.63310547 L15.5110742,4.63310547 Z M15.5325586,10.8756055 C12.9146875,10.8756055 10.7847266,8.74564453 10.7847266,6.12755859 C10.7847266,3.5096875 12.9146875,1.37972656 15.5325586,1.37972656 C18.1504297,1.37972656 20.2803906,3.5096875 20.2803906,6.12755859 C20.2803906,8.74564453 18.1506445,10.8756055 15.5325586,10.8756055 Z M15.5325586,2.37896484 C13.4655469,2.37896484 11.7839648,4.06054687 11.7839648,6.12755859 C11.7839648,8.19457031 13.4657617,9.87636719 15.5325586,9.87636719 C17.5993555,9.87636719 19.2811523,8.19457031 19.2811523,6.12755859 C19.2811523,4.06054687 17.5995703,2.37896484 15.5325586,2.37896484 L15.5325586,2.37896484 Z M15.2981641,19.985625 L3.61388672,19.985625 C2.78738281,19.985625 2.11513672,19.3133789 2.11513672,18.486875 L2.11513672,5.19599609 C2.11513672,4.36949219 2.78738281,3.69724609 3.61388672,3.69724609 L12.5687891,3.69724609 L12.1966797,4.42449219 C11.9227539,4.95945312 11.7839648,5.53244141 11.7839648,6.12777344 C11.7839648,8.19478516 13.4655469,9.87658203 15.5325586,9.87658203 C15.7484766,9.87658203 15.9695508,9.85552734 16.2080273,9.81212891 L16.7969141,9.70513672 L16.7969141,18.4870898 C16.7969141,19.3133789 16.124668,19.985625 15.2981641,19.985625 L15.2981641,19.985625 Z M3.61388672,4.69626953 C3.33824219,4.69626953 3.114375,4.92056641 3.114375,5.19578125 L3.114375,18.4866602 C3.114375,18.7620898 3.33845703,18.9861719 3.61388672,18.9861719 L15.2979492,18.9861719 C15.5735938,18.9861719 15.7974609,18.761875 15.7974609,18.4866602 L15.7974609,10.8674414 C15.7085156,10.8728125 15.6202148,10.8753906 15.5323438,10.8753906 C12.9144727,10.8753906 10.7845117,8.74542969 10.7845117,6.12734375 C10.7845117,5.63621094 10.8588477,5.15732422 11.0062305,4.69605469 L3.61388672,4.69605469 L3.61388672,4.69626953 Z M5.37324219,8.03730469 L9.64003906,8.03730469 L9.64003906,9.03654297 L5.37324219,9.03654297 L5.37324219,8.03730469 Z M5.37324219,11.3418164 L13.5755469,11.3418164 L13.5755469,12.3410547 L5.37324219,12.3410547 L5.37324219,11.3418164 Z M5.37324219,14.6463281 L13.5755469,14.6463281 L13.5755469,15.6455664 L5.37324219,15.6455664 L5.37324219,14.6463281 Z" id="形状"></path>
                    </g>
                </g>
            </g>
            <g id="编组-19" transform="translate(0.000000, 324.000000)">
                <text id="群体洞察" font-family="PingFangSC-Medium, PingFang SC" font-size="22" font-weight="400" line-spacing="28" fill="#000000" fill-opacity="0.8">
                    <tspan x="68" y="23">群体洞察</tspan>
                </text>
                <text id="从宏观角度描绘用户群特征，深入挖掘目标客" font-family="PingFangSC-Regular, PingFang SC" font-size="16" font-weight="normal" line-spacing="24" fill="#000000" fill-opacity="0.65">
                    <tspan x="68" y="53">从宏观角度描绘用户群特征，深入挖掘目标客户画</tspan>
                    <tspan x="68" y="77">像，助力精准营销</tspan>
                </text>
                <g id="编组-75">
                    <g id="编组-18" fill="#FFFFFF">
                        <rect id="矩形" x="0" y="0" width="48" height="48" rx="8"></rect>
                    </g>
                    <g id="群" transform="translate(13.000000, 13.000000)" fill="#000000" fill-rule="nonzero">
                        <rect id="矩形" opacity="0" x="0" y="0" width="22" height="22"></rect>
                        <path d="M8.646,12.155 C5.874,12.155 3.619,9.9 3.619,7.128 C3.619,4.356 5.863,2.09 8.646,2.09 C11.429,2.09 13.673,4.345 13.673,7.117 C13.673,9.889 11.418,12.155 8.646,12.155 Z M8.646,3.553 C6.677,3.553 5.082,5.148 5.082,7.117 C5.082,9.086 6.677,10.681 8.646,10.681 C10.615,10.681 12.21,9.086 12.21,7.117 C12.21,5.148 10.604,3.553 8.646,3.553 Z M15.994,19.943 L1.298,19.943 C0.891,19.943 0.561,19.613 0.561,19.206 C0.561,15.653 4.191,12.771 8.646,12.771 C13.101,12.771 16.731,15.653 16.731,19.206 C16.72,19.613 16.401,19.943 15.994,19.943 Z M2.101,18.469 L15.191,18.469 C14.718,16.071 11.968,14.234 8.646,14.234 C5.324,14.234 2.574,16.082 2.101,18.469 Z M21.351,17.985 C21.351,16.225 20.57,14.41 19.272,13.123 C18.7,12.562 18.062,12.122 17.369,11.803 C18.37,11.011 19.008,9.79 19.008,8.426 C19.008,6.061 17.083,4.125 14.707,4.125 C14.2999661,4.125 13.97,4.45496615 13.97,4.862 C13.97,5.26903385 14.2999661,5.59899999 14.707,5.599 C16.269,5.599 17.534,6.864 17.534,8.426 C17.534,9.977 16.28,11.242 14.729,11.253 L14.707,11.253 C14.3,11.253 13.981,11.583 13.981,11.99 C13.981,12.397 14.311,12.716 14.718,12.716 L14.751,12.716 C16.434,12.716 17.578,13.497 18.238,14.157 C19.25,15.169 19.877,16.632 19.877,17.985 C19.877,18.3920339 20.2069661,18.722 20.614,18.722 C21.0210339,18.722 21.351,18.3920339 21.351,17.985 L21.351,17.985 Z" id="形状"></path>
                    </g>
                </g>
            </g>
        </g>
    </g>
</svg>