<?xml version="1.0" encoding="UTF-8"?>
<svg width="450px" height="409px" viewBox="0 0 450 409" version="1.1" xmlns="http://www.w3.org/2000/svg" xmlns:xlink="http://www.w3.org/1999/xlink">
    <title>编组 21</title>
    <g id="页面-1" stroke="none" stroke-width="1" fill="none" fill-rule="evenodd">
        <g id="CDP+" transform="translate(-870.000000, -2385.000000)">
            <g id="编组-23" transform="translate(0.000000, 2214.500000)">
                <g id="编组-21" transform="translate(870.000000, 171.000000)">
                    <g id="编组-71">
                        <text id="One-ID-用户识别" font-family="PingFangSC-Medium, PingFang SC" font-size="36" font-weight="400" line-spacing="56" fill="#000000" fill-opacity="0.8">
                            <tspan x="0" y="38">One ID 用户识别</tspan>
                        </text>
                        <text id="整合多通路" font-family="PingFangSC-Medium, PingFang SC" font-size="22" font-weight="400" line-spacing="28" fill="#000000" fill-opacity="0.8">
                            <tspan x="68" y="119">整合多通路</tspan>
                        </text>
                        <text id="使用户在分析和服务运营中以唯一身份呈现，" font-family="PingFangSC-Regular, PingFang SC" font-size="16" font-weight="normal" line-spacing="24" fill="#000000" fill-opacity="0.65">
                            <tspan x="68" y="149">使用户在分析和服务运营中以唯一身份呈现，丰富用</tspan>
                            <tspan x="68" y="173">户画像，实现精细化数据治理</tspan>
                        </text>
                        <rect id="矩形" fill="#FFFFFF" x="0" y="96" width="48" height="48" rx="8"></rect>
                        <text id="统一客户视图" font-family="PingFangSC-Medium, PingFang SC" font-size="22" font-weight="400" line-spacing="28" fill="#000000" fill-opacity="0.8">
                            <tspan x="68" y="233">统一客户视图</tspan>
                        </text>
                        <text id="构建360度全面的用户认知，深入了解每位" font-family="PingFangSC-Regular, PingFang SC" font-size="16" font-weight="normal" line-spacing="24" fill="#000000" fill-opacity="0.65">
                            <tspan x="68" y="263">构建360度全面的用户认知，深入了解每位客户的需求</tspan>
                            <tspan x="68" y="287">和行为</tspan>
                        </text>
                        <rect id="矩形" fill="#FFFFFF" x="0" y="210" width="48" height="48" rx="8"></rect>
                        <text id="群体洞察" font-family="PingFangSC-Medium, PingFang SC" font-size="22" font-weight="400" line-spacing="28" fill="#000000" fill-opacity="0.8">
                            <tspan x="68" y="347">群体洞察</tspan>
                        </text>
                        <text id="从宏观角度描绘用户群特征，深入挖掘目标客" font-family="PingFangSC-Regular, PingFang SC" font-size="16" font-weight="normal" line-spacing="24" fill="#000000" fill-opacity="0.65">
                            <tspan x="68" y="377">从宏观角度描绘用户群特征，深入挖掘目标客户画</tspan>
                            <tspan x="68" y="401">像，助力精准营销</tspan>
                        </text>
                        <rect id="矩形" fill="#FFFFFF" x="0" y="324" width="48" height="48" rx="8"></rect>
                        <rect id="矩形" fill="#000000" fill-rule="nonzero" opacity="0" x="13" y="337" width="22" height="22"></rect>
                        <path d="M21.646,349.155 C18.874,349.155 16.619,346.9 16.619,344.128 C16.619,341.356 18.863,339.09 21.646,339.09 C24.429,339.09 26.673,341.345 26.673,344.117 C26.673,346.889 24.418,349.155 21.646,349.155 Z M21.646,340.553 C19.677,340.553 18.082,342.148 18.082,344.117 C18.082,346.086 19.677,347.681 21.646,347.681 C23.615,347.681 25.21,346.086 25.21,344.117 C25.21,342.148 23.604,340.553 21.646,340.553 Z M28.994,356.943 L14.298,356.943 C13.891,356.943 13.561,356.613 13.561,356.206 C13.561,352.653 17.191,349.771 21.646,349.771 C26.101,349.771 29.731,352.653 29.731,356.206 C29.72,356.613 29.401,356.943 28.994,356.943 Z M15.101,355.469 L28.191,355.469 C27.718,353.071 24.968,351.234 21.646,351.234 C18.324,351.234 15.574,353.082 15.101,355.469 Z M34.351,354.985 C34.351,353.225 33.57,351.41 32.272,350.123 C31.7,349.562 31.062,349.122 30.369,348.803 C31.37,348.011 32.008,346.79 32.008,345.426 C32.008,343.061 30.083,341.125 27.707,341.125 C27.2999661,341.125 26.97,341.454966 26.97,341.862 C26.97,342.269034 27.2999661,342.599 27.707,342.599 C29.269,342.599 30.534,343.864 30.534,345.426 C30.534,346.977 29.28,348.242 27.729,348.253 L27.707,348.253 C27.3,348.253 26.981,348.583 26.981,348.99 C26.981,349.397 27.311,349.716 27.718,349.716 L27.751,349.716 C29.434,349.716 30.578,350.497 31.238,351.157 C32.25,352.169 32.877,353.632 32.877,354.985 C32.877,355.392034 33.2069661,355.722 33.614,355.722 C34.0210339,355.722 34.351,355.392034 34.351,354.985 L34.351,354.985 Z" id="形状" fill="#000000" fill-rule="nonzero"></path>
                        <rect id="矩形" fill="#000000" fill-rule="nonzero" opacity="0" x="13" y="109.5" width="22" height="22"></rect>
                        <path d="M23.9856699,110.86067 C18.6699199,110.86067 14.3606699,115.16992 14.3606699,120.48567 C14.3606699,125.80142 18.6699199,130.11067 23.9856699,130.11067 C29.3014199,130.11067 33.6106699,125.80142 33.6106699,120.48567 C33.6106699,115.16992 29.3014199,110.86067 23.9856699,110.86067 L23.9856699,110.86067 Z M23.9856699,128.73567 C22.8713184,128.73567 21.791041,128.517732 20.7748086,128.087916 C20.0011348,127.760687 19.2897441,127.321568 18.6518945,126.779582 C18.9135098,126.092404 19.5590937,125.407268 20.461373,124.869557 C21.511873,124.243502 22.8016445,123.884434 24,123.884434 C25.1951973,123.884434 26.4796406,124.24232 27.5239961,124.866334 C28.4212266,125.402434 29.0641895,126.086904 29.3257402,126.774232 C28.6862793,127.318689 27.9727402,127.759613 27.1965098,128.087916 C26.1803203,128.517732 25.1000215,128.73567 23.9856699,128.73567 L23.9856699,128.73567 Z M30.3508027,125.735205 C29.9105234,124.963121 29.1830625,124.255898 28.2292852,123.686004 C26.9594727,122.927283 25.4574785,122.509434 24,122.509434 C22.5398359,122.509434 21.0331367,122.928121 19.757459,123.688389 C18.7983105,124.260002 18.067584,124.968729 17.6263164,125.741994 C17.1142363,125.124211 16.6974609,124.438924 16.3834453,123.69651 C15.9536289,122.680299 15.7356914,121.6 15.7356914,120.485648 C15.7356914,119.371297 15.9536289,118.29102 16.3834453,117.274787 C16.7988887,116.292543 17.3939414,115.410115 18.1520605,114.652018 C18.9101582,113.893898 19.7925859,113.298867 20.7748301,112.883402 C21.791041,112.453586 22.8713398,112.235648 23.9856914,112.235648 C25.100043,112.235648 26.1803203,112.453586 27.1965527,112.883402 C28.1787969,113.298846 29.0612246,113.893898 29.8193223,114.652018 C30.5774414,115.410115 31.1724727,116.292543 31.5879375,117.274787 C32.0177539,118.290998 32.2356914,119.371297 32.2356914,120.485648 C32.2356914,121.6 32.0177539,122.680277 31.5879375,123.69651 C31.2750605,124.436195 30.8602832,125.119205 30.3508027,125.735205 Z" id="形状" fill="#000000" fill-rule="nonzero"></path>
                        <path d="M24,114.231354 C22.1045625,114.231354 20.5625,115.773416 20.5625,117.668854 C20.5625,119.564291 22.1045625,121.106354 24,121.106354 C25.895459,121.106354 27.4375,119.564312 27.4375,117.668854 C27.4375,115.773395 25.895459,114.231354 24,114.231354 L24,114.231354 Z M24,119.731354 C22.8627246,119.731354 21.9375,118.806129 21.9375,117.668854 C21.9375,116.531578 22.8627246,115.606354 24,115.606354 C25.1372754,115.606354 26.0625,116.531578 26.0625,117.668854 C26.0625,118.806129 25.1372754,119.731354 24,119.731354 Z" id="形状" fill="#000000" fill-rule="nonzero"></path>
                        <rect id="矩形" fill="#000000" fill-rule="nonzero" opacity="0" x="14" y="222.5" width="22" height="22"></rect>
                        <path d="M31.5634766,230.973437 L30.5642383,230.973437 L30.5642383,230.349746 C30.5642383,229.934238 30.2262891,229.596504 29.8109961,229.596504 L29.211582,229.596504 C28.7960742,229.596504 28.458125,229.934453 28.458125,230.349746 L28.458125,230.973437 L27.4588867,230.973437 L27.4588867,230.349746 C27.4588867,229.383379 28.2452148,228.597266 29.211582,228.597266 L29.8109961,228.597266 C30.7773633,228.597266 31.5634766,229.383594 31.5634766,230.349746 L31.5634766,230.973437 Z M29.5110742,229.596289 C28.5565234,229.596289 27.7798633,228.819844 27.7798633,227.865293 C27.7798633,226.910742 28.5565234,226.134082 29.5110742,226.134082 C30.4658398,226.134082 31.2422852,226.910742 31.2422852,227.865293 C31.2422852,228.819844 30.4658398,229.596289 29.5110742,229.596289 Z M29.5110742,227.133105 C29.1073828,227.133105 28.7791016,227.461387 28.7791016,227.865293 C28.7791016,228.26877 29.1073828,228.597051 29.5110742,228.597051 C29.9147656,228.597051 30.2432617,228.26877 30.2432617,227.865293 C30.2432617,227.461387 29.9149805,227.133105 29.5110742,227.133105 L29.5110742,227.133105 Z M29.5325586,233.375605 C26.9146875,233.375605 24.7847266,231.245645 24.7847266,228.627559 C24.7847266,226.009687 26.9146875,223.879727 29.5325586,223.879727 C32.1504297,223.879727 34.2803906,226.009687 34.2803906,228.627559 C34.2803906,231.245645 32.1506445,233.375605 29.5325586,233.375605 Z M29.5325586,224.878965 C27.4655469,224.878965 25.7839648,226.560547 25.7839648,228.627559 C25.7839648,230.69457 27.4657617,232.376367 29.5325586,232.376367 C31.5993555,232.376367 33.2811523,230.69457 33.2811523,228.627559 C33.2811523,226.560547 31.5995703,224.878965 29.5325586,224.878965 L29.5325586,224.878965 Z M29.2981641,242.485625 L17.6138867,242.485625 C16.7873828,242.485625 16.1151367,241.813379 16.1151367,240.986875 L16.1151367,227.695996 C16.1151367,226.869492 16.7873828,226.197246 17.6138867,226.197246 L26.5687891,226.197246 L26.1966797,226.924492 C25.9227539,227.459453 25.7839648,228.032441 25.7839648,228.627773 C25.7839648,230.694785 27.4655469,232.376582 29.5325586,232.376582 C29.7484766,232.376582 29.9695508,232.355527 30.2080273,232.312129 L30.7969141,232.205137 L30.7969141,240.98709 C30.7969141,241.813379 30.124668,242.485625 29.2981641,242.485625 L29.2981641,242.485625 Z M17.6138867,227.19627 C17.3382422,227.19627 17.114375,227.420566 17.114375,227.695781 L17.114375,240.98666 C17.114375,241.26209 17.338457,241.486172 17.6138867,241.486172 L29.2979492,241.486172 C29.5735938,241.486172 29.7974609,241.261875 29.7974609,240.98666 L29.7974609,233.367441 C29.7085156,233.372813 29.6202148,233.375391 29.5323438,233.375391 C26.9144727,233.375391 24.7845117,231.24543 24.7845117,228.627344 C24.7845117,228.136211 24.8588477,227.657324 25.0062305,227.196055 L17.6138867,227.196055 L17.6138867,227.19627 Z M19.3732422,230.537305 L23.6400391,230.537305 L23.6400391,231.536543 L19.3732422,231.536543 L19.3732422,230.537305 Z M19.3732422,233.841816 L27.5755469,233.841816 L27.5755469,234.841055 L19.3732422,234.841055 L19.3732422,233.841816 Z M19.3732422,237.146328 L27.5755469,237.146328 L27.5755469,238.145566 L19.3732422,238.145566 L19.3732422,237.146328 Z" id="形状" fill="#000000" fill-rule="nonzero"></path>
                    </g>
                    <g id="编组-18" transform="translate(0.000000, 96.000000)"></g>
                    <g id="编组-18" transform="translate(0.000000, 210.000000)"></g>
                    <g id="编组-18" transform="translate(0.000000, 324.000000)"></g>
                </g>
            </g>
        </g>
    </g>
</svg>