<svg xmlns="http://www.w3.org/2000/svg" xmlns:xlink="http://www.w3.org/1999/xlink" width="36" height="34.52005906817269" viewBox="0 0 36 34.52005906817269" fill="none"><g opacity="1"  transform="translate(0 0)  rotate(0)"><path id="矩形" fill-rule="evenodd" style="fill:#000000" opacity="0" d="M0 34.52L36 34.52L36 0L0 0L0 34.52Z"></path><path id="路径" fill-rule="evenodd" style="fill:#A8AEB9" opacity="1" d="M34.076 24.254L34.076 4.75397C34.076 3.22397 32.746 1.94397 31.146 1.94397L4.94599 1.94397C3.34599 1.94397 2.01599 3.22397 2.01599 4.75397L2.01599 24.254C2.01599 25.784 3.34599 27.064 4.94599 27.064L15.016 27.064C15.086 27.514 15.146 27.964 15.146 28.474C15.146 31.284 12.216 31.284 12.216 31.284C11.416 31.284 10.746 31.604 10.746 31.984C10.746 32.374 11.416 32.694 12.216 32.694L23.876 32.694C24.686 32.694 25.346 32.374 25.346 31.984C25.346 31.604 24.686 31.284 23.876 31.284C23.876 31.284 20.946 31.284 20.946 28.474C20.946 27.964 21.016 27.514 21.076 27.064L31.086 27.064C32.676 27.064 34.016 25.784 34.076 24.254Z"></path><path id="路径" fill-rule="evenodd" style="fill:#FFFFFF" opacity="1" d="M4.94897 4.75623L4.94897 21.5062L31.149 21.5062L31.079 4.75623L4.94897 4.75623Z"></path><path id="路径" fill-rule="evenodd" style="fill:#C8CDD5" opacity="1" d="M18.0273 18.4975L26.4273 9.80747C27.0173 9.19747 26.9773 8.24747 26.3373 7.67747C25.7073 7.11747 24.7173 7.14747 24.1273 7.75747L16.7673 15.3775L13.1773 12.3375C12.5273 11.7875 11.5373 11.8475 10.9573 12.4675C10.3873 13.0875 10.4473 14.0375 11.0973 14.5875L15.8373 18.6075C16.1373 18.8575 16.5073 18.9875 16.8773 18.9875C17.2973 18.9875 17.7173 18.8175 18.0273 18.4975Z"></path></g></svg>