<svg xmlns="http://www.w3.org/2000/svg" xmlns:xlink="http://www.w3.org/1999/xlink" width="36" height="36" viewBox="0 0 36 36" fill="none"><g opacity="1"  transform="translate(0 0)  rotate(0)"><g opacity="1"  transform="translate(0 0)  rotate(0)"><path id="矩形" fill-rule="evenodd" style="fill:#000000" opacity="0" d="M0 36L36 36L36 0L0 0L0 36Z"></path><path id="路径" fill-rule="evenodd" style="fill:#2B58F9" opacity="1" d="M34.076 25.2973L34.076 4.95734C34.076 3.35734 32.746 2.02734 31.146 2.02734L4.94599 2.02734C3.34599 2.02734 2.01599 3.35734 2.01599 4.95734L2.01599 25.2973C2.01599 26.8973 3.34599 28.2273 4.94599 28.2273L15.016 28.2273C15.086 28.6873 15.146 29.1573 15.146 29.6873C15.146 32.6273 12.216 32.6273 12.216 32.6273C11.416 32.6273 10.746 32.9573 10.746 33.3573C10.746 33.7573 11.416 34.0873 12.216 34.0873L23.876 34.0873C24.686 34.0873 25.346 33.7573 25.346 33.3573C25.346 32.9573 24.686 32.6273 23.876 32.6273C23.876 32.6273 20.946 32.6273 20.946 29.6873C20.946 29.1573 21.016 28.6873 21.076 28.2273L31.086 28.2273C32.676 28.2273 34.016 26.8973 34.076 25.2973Z"></path><path id="路径" fill-rule="evenodd" style="fill:#FFFFFF" opacity="1" d="M4.94897 4.96021L4.94897 22.4302L31.149 22.4302L31.079 4.96021L4.94897 4.96021Z"></path><path id="路径" fill-rule="evenodd" style="fill:#00C8BD" opacity="1" d="M18.0273 19.2895L26.4273 10.2295C27.0173 9.58948 26.9773 8.59948 26.3373 8.00948C25.7073 7.41948 24.7173 7.45948 24.1273 8.08948L16.7673 16.0395L13.1773 12.8695C12.5273 12.2895 11.5373 12.3495 10.9573 12.9995C10.3873 13.6495 10.4473 14.6395 11.0973 15.2195L15.8373 19.3995C16.1373 19.6695 16.5073 19.7995 16.8773 19.7995C17.2973 19.7995 17.7173 19.6295 18.0273 19.2895Z"></path></g></g></svg>