<?xml version="1.0" encoding="UTF-8"?>
<svg width="36px" height="36px" viewBox="0 0 36 36" version="1.1" xmlns="http://www.w3.org/2000/svg" xmlns:xlink="http://www.w3.org/1999/xlink">
    <title>编组</title>
    <g id="页面-1" stroke="none" stroke-width="1" fill="none" fill-rule="evenodd">
        <g id="图标" transform="translate(-287.000000, -177.000000)" fill-rule="nonzero">
            <g id="编组" transform="translate(287.971159, 177.479941)">
                <rect id="矩形" fill="#000000" opacity="0" x="0" y="0" width="36" height="34.5200591"></rect>
                <path d="M31.0801772,27.0647177 L21.0808611,27.0647177 C21.0143536,27.5122435 20.9474595,27.9593986 20.9474595,28.4710685 C20.9474595,31.2833992 23.8803603,31.2833992 23.8803603,31.2833992 C24.6803829,31.2833992 25.347004,31.6030076 25.347004,31.9863892 C25.347004,32.3701417 24.6803829,32.6893792 23.8803603,32.6893792 L12.2144914,32.6893792 C11.4144688,32.6893792 10.7478477,32.3697709 10.7478477,31.9863892 C10.7478477,31.6030076 11.4144688,31.2833992 12.2144914,31.2833992 C12.2144914,31.2833992 15.1473921,31.2833992 15.1473921,28.4710685 C15.1473921,27.9597693 15.0808847,27.5122435 15.0139906,27.0647177 L4.94894033,27.0647177 C3.34928175,27.0647177 2.01603959,25.7862845 2.01603959,24.252387 L2.01603959,4.75627953 C2.01603959,3.22238207 3.34928175,1.94394879 4.94894033,1.94394879 L31.1466847,1.94394879 C32.7463433,1.94394879 34.0795854,3.22238207 34.0795854,4.75627953 L34.0795854,24.2520162 C34.013078,25.7862845 32.6798358,27.0647177 31.0801772,27.0647177 Z" id="路径" fill="#A8AEB9"></path>
                <polygon id="路径" fill="#FFFFFF" points="31.0801772 4.75627953 4.94894033 4.75627953 4.94894033 21.5034588 31.1466847 21.5034588 31.1466847 4.75627953"></polygon>
                <path d="M16.8738789,18.9825575 C16.5042212,18.9825575 16.1337903,18.857977 15.8356668,18.605479 L11.0973984,14.5918362 C10.4481775,14.0416057 10.3866968,13.0909378 10.9605168,12.468406 C11.5343368,11.8458743 12.5257617,11.786921 13.1749826,12.3371516 L16.7648376,15.3782507 L24.1247364,7.75955956 C24.7136366,7.15000495 25.7062215,7.11366897 26.3419089,7.67835977 C26.9775962,8.24305057 27.01549,9.19483079 26.4265898,9.80438541 L18.0253856,18.5005496 C17.716822,18.8201579 17.2961238,18.9825575 16.8738789,18.9825575 Z" id="路径" fill="#C8CDD5"></path>
            </g>
        </g>
    </g>
</svg>