<?xml version="1.0" encoding="UTF-8"?>
<svg width="36px" height="36px" viewBox="0 0 36 36" version="1.1" xmlns="http://www.w3.org/2000/svg" xmlns:xlink="http://www.w3.org/1999/xlink">
    <title>编组备份</title>
    <g id="页面-1" stroke="none" stroke-width="1" fill="none" fill-rule="evenodd">
        <g id="图标" transform="translate(-287.000000, -89.000000)" fill-rule="nonzero">
            <g id="编组-4" transform="translate(287.971159, 89.677774)">
                <rect id="矩形" fill="#000000" opacity="0" x="0" y="0" width="36" height="36"></rect>
                <path d="M31.0801772,28.2250339 L21.0808611,28.2250339 C21.0143536,28.691746 20.9474595,29.1580714 20.9474595,29.6916776 C20.9474595,32.6245784 23.8803603,32.6245784 23.8803603,32.6245784 C24.6803829,32.6245784 25.347004,32.9578889 25.347004,33.3577069 C25.347004,33.7579115 24.6803829,34.0908354 23.8803603,34.0908354 L12.2144914,34.0908354 C11.4144688,34.0908354 10.7478477,33.7575249 10.7478477,33.3577069 C10.7478477,32.9578889 11.4144688,32.6245784 12.2144914,32.6245784 C12.2144914,32.6245784 15.1473921,32.6245784 15.1473921,29.6916776 C15.1473921,29.1584581 15.0808847,28.691746 15.0139906,28.2250339 L4.94894033,28.2250339 C3.34928175,28.2250339 2.01603959,26.8917918 2.01603959,25.2921332 L2.01603959,4.96019033 C2.01603959,3.36053175 3.34928175,2.02728959 4.94894033,2.02728959 L31.1466847,2.02728959 C32.7463433,2.02728959 34.0795854,3.36053175 34.0795854,4.96019033 L34.0795854,25.2917465 C34.013078,26.8917918 32.6798358,28.2250339 31.0801772,28.2250339 Z" id="路径" fill="#2B58F9"></path>
                <polygon id="路径" fill="#FFFFFF" points="31.0801772 4.96019033 4.94894033 4.96019033 4.94894033 22.4253532 31.1466847 22.4253532 31.1466847 4.96019033"></polygon>
                <path d="M16.8738789,19.796376 C16.5042212,19.796376 16.1337903,19.6664545 15.8356668,19.4031314 L11.0973984,15.2174162 C10.4481775,14.6435962 10.3866968,13.6521713 10.9605168,13.0029504 C11.5343368,12.3537296 12.5257617,12.2922488 13.1749826,12.8660688 L16.7648376,16.0375457 L24.1247364,8.09222671 C24.7136366,7.45653933 25.7062215,7.41864556 26.3419089,8.00754573 C26.9775962,8.5964459 27.01549,9.58903077 26.4265898,10.2247182 L18.0253856,19.2937035 C17.716822,19.627014 17.2961238,19.796376 16.8738789,19.796376 Z" id="路径" fill="#00C8BD"></path>
            </g>
        </g>
    </g>
</svg>