<?xml version="1.0" encoding="UTF-8"?>
<svg width="287px" height="195px" viewBox="0 0 287 195" version="1.1" xmlns="http://www.w3.org/2000/svg" xmlns:xlink="http://www.w3.org/1999/xlink">
    <title>形状结合</title>
    <defs>
        <linearGradient x1="0%" y1="73.1657178%" x2="100%" y2="26.8342822%" id="linearGradient-1">
            <stop stop-color="#0091FF" stop-opacity="0.331254439" offset="0%"></stop>
            <stop stop-color="#83C9FF" offset="100%"></stop>
        </linearGradient>
    </defs>
    <g id="2023Q2-品牌官网2.0" stroke="none" stroke-width="1" fill="none" fill-rule="evenodd" fill-opacity="0.37">
        <g id="编组-35备份-2" transform="translate(-422.000000, -117.000000)" fill="url(#linearGradient-1)" fill-rule="nonzero">
            <g id="编组-2备份" transform="translate(120.000000, 116.000000)">
                <path d="M561.25,178.012525 C566.220563,178.012525 570.25,182.041962 570.25,187.012525 C570.25,191.983088 566.220563,196.012525 561.25,196.012525 C556.279437,196.012525 552.25,191.983088 552.25,187.012525 C552.25,182.041962 556.279437,178.012525 561.25,178.012525 Z M531.429907,109.731317 C530.73994,153.393508 494.947952,188.546729 450.962617,188.546729 C445.61538,188.546729 440.354389,187.945085 435.352135,186.999643 C433.454728,186.569897 431.557322,185.968253 429.659915,185.28066 C428.883703,185.022812 419.310425,181.069149 435.697118,165.254497 C452.074881,152.341352 469.905449,141.251374 488.10693,131.340656 C502.494281,123.506734 517.113382,116.409626 531.429907,109.731317 Z M388.606936,18.453271 C400.250113,18.453271 409.6509,27.8217333 409.6509,39.3389255 C421.725306,32.1191931 435.86961,27.9936317 450.962617,27.9936317 C487.254397,27.9936317 517.916833,51.9439595 528.029395,84.6464234 C548.509606,70.2505196 559.463614,57.4238522 555.558399,50.2082667 C552.640709,44.8753462 542.085538,43.4130938 526.553132,45.3054204 C526.209875,45.3054204 525.952432,45.2194055 525.694988,44.961361 C524.064515,43.0690344 522.348227,41.1767077 520.546125,39.370396 C520.031238,38.768292 520.288681,37.8221287 521.061011,37.650099 C556.588172,29.220644 582.332491,29.220644 587.910427,39.4564108 C597.435825,57.0894544 543.458569,98.6346254 466.997941,132.094401 C390.537312,165.554176 319.65462,178.714448 310.043407,161.081404 C304.379657,150.673608 322.229052,131.578312 352.521534,111.106778 C353.122235,110.676704 354.066193,111.192793 354.066193,111.966927 L354.066193,120.482396 C354.066193,120.826456 353.894565,121.0845 353.722936,121.25653 C342.738693,130.890193 337.675643,139.233633 340.507519,144.480539 C344.094534,151.029292 359.241252,151.742096 380.872126,147.594034 C374.559072,136.469827 370.843221,123.649042 370.495327,109.989164 L370.495327,26.1027494 C370.495327,21.8912388 373.945157,18.453271 378.171199,18.453271 L388.606936,18.453271 Z M306,95.7625249 C307.932997,95.7625249 309.5,97.3295283 309.5,99.2625249 C309.5,101.195522 307.932997,102.762525 306,102.762525 C304.067003,102.762525 302.5,101.195522 302.5,99.2625249 C302.5,97.3295283 304.067003,95.7625249 306,95.7625249 Z M519.25,12.5125249 C521.735281,12.5125249 523.75,14.5272435 523.75,17.0125249 C523.75,19.4978063 521.735281,21.5125249 519.25,21.5125249 C516.764719,21.5125249 514.75,19.4978063 514.75,17.0125249 C514.75,14.5272435 516.764719,12.5125249 519.25,12.5125249 Z M328.631262,1 C332.293608,1 335.262525,3.96891733 335.262525,7.63126246 C335.262525,11.2936076 332.293608,14.2625249 328.631262,14.2625249 C324.968917,14.2625249 322,11.2936076 322,7.63126246 C322,3.96891733 324.968917,1 328.631262,1 Z" id="形状结合"></path>
            </g>
        </g>
    </g>
</svg>