<?xml version="1.0" encoding="UTF-8"?>
<svg width="36px" height="36px" viewBox="0 0 36 36" version="1.1" xmlns="http://www.w3.org/2000/svg" xmlns:xlink="http://www.w3.org/1999/xlink">
    <title>编组 2</title>
    <g id="页面-1" stroke="none" stroke-width="1" fill="none" fill-rule="evenodd">
        <g id="图标" transform="translate(-67.000000, -219.000000)">
            <g id="编组-2" transform="translate(67.000000, 219.000000)">
                <g id="编组">
                    <g id="用户画像" fill-rule="nonzero">
                        <rect id="矩形" fill="#000000" opacity="0" x="0" y="0" width="36" height="36"></rect>
                        <path d="M18.0527344,35.9015625 C15.6375,35.9015625 13.2960938,35.4269531 11.0917969,34.4953125 C8.96132813,33.5953125 7.04882813,32.3050781 5.40703125,30.6632813 C3.76523438,29.0214844 2.475,27.1089844 1.575,24.9785156 C0.643359375,22.7742187 0.16875,20.4328125 0.16875,18.0175781 C0.16875,15.6023437 0.643359375,13.2609375 1.575,11.0566406 C2.475,8.92617188 3.76523438,7.01367188 5.40703125,5.371875 C7.04882813,3.73007813 8.96484375,2.446875 11.0917969,1.546875 C13.2960938,0.615234375 15.6375,0.140625 18.0527344,0.140625 C20.4679688,0.140625 22.809375,0.615234375 25.0136719,1.546875 C27.1441406,2.446875 29.0566406,3.73710938 30.6984375,5.37890625 C32.3402344,7.02070312 33.6304688,8.93320313 34.5304688,11.0636719 C35.4621094,13.2679687 35.9367188,15.609375 35.9367188,18.0246094 C35.9367188,20.4398438 35.4621094,22.78125 34.5304688,24.9855469 C33.6304688,27.1160156 32.3402344,29.0285156 30.6984375,30.6703125 C29.0566406,32.3121094 27.1441406,33.6023438 25.0136719,34.5023438 C22.809375,35.4269531 20.4644531,35.9015625 18.0527344,35.9015625 Z M18.0527344,1.828125 C9.12304688,1.828125 1.85976563,9.09140625 1.85976563,18.0210938 C1.85976563,26.9507813 9.12304688,34.2140625 18.0527344,34.2140625 C26.9824219,34.2140625 34.2457031,26.9507813 34.2457031,18.0210938 C34.2457031,9.09140625 26.9824219,1.828125 18.0527344,1.828125 Z M18.0703125,32.0660156 L18.0667969,30.3785156 C18.5835938,30.3785156 19.1074219,30.3433594 19.6171875,30.2800781 L19.828125,31.9535156 C19.2480469,32.0273438 18.6574219,32.0660156 18.0703125,32.0660156 L18.0703125,32.0660156 Z M16.3089844,31.9570312 C15.7253906,31.8832031 15.1417969,31.7742187 14.5757813,31.6300781 L14.990625,29.9953125 C15.4898438,30.121875 16.003125,30.2203125 16.5164063,30.2835937 L16.3089844,31.9570312 L16.3089844,31.9570312 Z M21.5613281,31.6230469 L21.1394531,29.9882813 C21.6386719,29.8582031 22.134375,29.7 22.6125,29.5066406 L23.2382813,31.078125 C22.6933594,31.2925781 22.1273438,31.4789063 21.5613281,31.6230469 Z M12.8953125,31.0886719 C12.3503906,30.8742188 11.8125,30.6210938 11.2992188,30.3398438 L12.1113281,28.8597656 C12.5648438,29.109375 13.0359375,29.3308594 13.5140625,29.5207031 L12.8953125,31.0886719 Z M24.8308594,30.3222656 L24.0152344,28.8457031 C24.4652344,28.5960938 24.9046875,28.3148438 25.3230469,28.0125 L26.3179688,29.3765625 C25.8433594,29.7210938 25.3441406,30.0410156 24.8308594,30.3222656 L24.8308594,30.3222656 Z M9.80859375,29.3941406 C9.33398438,29.0496094 8.87695313,28.6734375 8.44804688,28.2726562 L9.60117188,27.0421875 C9.97734375,27.39375 10.3816406,27.7277344 10.7964844,28.0300781 L9.80859375,29.3941406 Z M27.675,28.2515625 L26.5183594,27.0210938 C26.8945313,26.6660156 27.253125,26.2863281 27.5800781,25.8890625 L28.8808594,26.9648438 C28.5082031,27.4183594 28.1003906,27.8507813 27.675,28.2515625 Z M7.2421875,26.9859375 C6.86601563,26.5359375 6.51796875,26.0542969 6.2015625,25.5621094 L7.62539063,24.6550781 C7.903125,25.0910156 8.20898438,25.509375 8.53945313,25.9066406 L7.2421875,26.9859375 Z M29.9179688,25.5410156 L28.4941406,24.6375 C28.771875,24.2015625 29.0214844,23.7445312 29.2429687,23.2769531 L30.76875,23.9941406 C30.5191406,24.525 30.2308594,25.0453125 29.9179687,25.5410156 L29.9179688,25.5410156 Z M5.35078125,24.0222656 C5.10117188,23.4914063 4.8796875,22.9394531 4.696875,22.3839844 L6.3,21.8601563 C6.45820313,22.3488281 6.6515625,22.8339844 6.87304688,23.3015625 L5.35078125,24.0222656 Z M31.415625,22.3523438 L29.8125,21.8320313 C29.9707031,21.3433594 30.1007813,20.8371094 30.1957031,20.3308594 L31.8550781,20.64375 C31.7425781,21.2203125 31.5984375,21.7933594 31.415625,22.3523438 Z M4.25742188,20.671875 C4.1484375,20.0988281 4.07460938,19.5082031 4.0359375,18.9210937 L5.71992188,18.815625 C5.7515625,19.3324219 5.81835938,19.8492187 5.91328125,20.3554687 L4.25742188,20.671875 Z M32.0695313,18.8929688 L30.3855469,18.7910156 C30.3996094,18.5378906 30.4101563,18.2777344 30.4101563,18.0210938 C30.4101563,17.7609375 30.403125,17.4972656 30.3855469,17.2371094 L32.0695313,17.1316406 C32.0871094,17.4269531 32.0976563,17.7257813 32.0976563,18.0210938 C32.0976563,18.309375 32.0871094,18.6046875 32.0695313,18.8929688 Z M5.71640625,17.2652344 L4.03242187,17.1632813 C4.06757812,16.5761719 4.14140625,15.9890625 4.246875,15.4125 L5.90625,15.7253906 C5.81132812,16.2316406 5.74804687,16.7484375 5.71640625,17.2652344 L5.71640625,17.2652344 Z M30.1921875,15.6972656 C30.0972656,15.1910156 29.9671875,14.6847656 29.8054688,14.1960937 L31.4085938,13.6757812 C31.5914063,14.2347656 31.7355469,14.8078125 31.8480469,15.384375 L30.1921875,15.6972656 Z M6.28945312,14.2207031 L4.6828125,13.7039062 C4.86210937,13.1449219 5.08007812,12.5929687 5.3296875,12.0621094 L6.85898437,12.7792969 C6.64101562,13.246875 6.44765625,13.7320312 6.28945312,14.2207031 L6.28945312,14.2207031 Z M29.2359375,12.7546875 C29.0144531,12.290625 28.7648438,11.8335937 28.4871094,11.3976562 L29.9109375,10.490625 C30.2273438,10.9863281 30.5121094,11.503125 30.7617188,12.0339844 L29.2359375,12.7546875 L29.2359375,12.7546875 Z M7.60429687,11.41875 L6.17695312,10.5152344 C6.48984375,10.0195312 6.83789062,9.54140625 7.21054687,9.08789062 L8.51132812,10.1601562 C8.18789062,10.5574219 7.88203125,10.9828125 7.60429687,11.41875 Z M27.5730469,10.1425781 C27.2425781,9.7453125 26.8875,9.365625 26.5113281,9.01054688 L27.6679688,7.78007813 C28.096875,8.18085938 28.5011719,8.61328125 28.8738281,9.06328125 L27.5730469,10.1425781 L27.5730469,10.1425781 Z M9.5765625,9.028125 L8.41992188,7.80117187 C8.8453125,7.40039062 9.30234375,7.02070312 9.77695312,6.67617187 L10.771875,8.04023437 C10.3535156,8.3390625 9.95273437,8.67304687 9.5765625,9.028125 Z M25.3160156,8.01914062 C24.8976563,7.71679687 24.4582031,7.43554687 24.0046875,7.1859375 L24.8203125,5.709375 C25.3335938,5.990625 25.8328125,6.31054687 26.3074219,6.65507812 L25.3160156,8.01914062 Z M12.0761719,7.2 L11.2605469,5.7234375 C11.7738281,5.43867188 12.3082031,5.18554688 12.853125,4.96757813 L13.4789063,6.53554688 C13.0007813,6.72890625 12.5296875,6.95039063 12.0761719,7.2 L12.0761719,7.2 Z M22.6019531,6.525 C22.1238281,6.33515625 21.6246094,6.1734375 21.1253906,6.046875 L21.54375,4.41210938 C22.1132813,4.55625 22.6757813,4.74257812 23.2242188,4.95703125 L22.6019531,6.525 L22.6019531,6.525 Z M14.9519531,6.05390625 L14.5300781,4.41914062 C15.0960938,4.27148437 15.6796875,4.1625 16.2632813,4.08515625 L16.4777344,5.75859375 C15.9644531,5.82890625 15.4511719,5.92734375 14.9519531,6.05390625 L14.9519531,6.05390625 Z M19.603125,5.75859375 C19.0933594,5.6953125 18.5730469,5.66367188 18.0527344,5.66367188 L18.0246094,5.66367188 L18.0175781,3.97617188 L18.0492187,3.97617188 C18.6363281,3.97617188 19.2269531,4.01132813 19.8070313,4.08515625 L19.603125,5.75859375 Z M10.9230469,21.6175781 L10.9230469,25.5269531 C10.9230469,25.7449219 11.109375,25.9207031 11.3378906,25.9207031 L25.2105469,25.9207031 C25.4390625,25.9207031 25.6253906,25.7414062 25.6253906,25.5269531 L25.6253906,21.6175781 C25.6253906,19.2269531 20.7175781,18.0210937 18.2742187,18.0210937 C15.8308594,18.0210937 10.9230469,19.2269531 10.9230469,21.6175781 Z M21.6667969,12.8671875 C21.4804688,11.4433594 20.278125,10.3183594 18.8085938,10.1425781 C16.6359375,9.8859375 14.8113281,11.6226563 15.103125,13.696875 C15.3140625,15.1207031 16.4917969,16.2457031 17.9824219,16.4214844 C20.1550781,16.678125 21.9585938,14.9203125 21.6667969,12.8671875 Z" id="形状" fill="#2B58F9"></path>
                    </g>
                    <circle id="椭圆形" fill="#00C8BD" cx="18.3851146" cy="13.430105" r="3.3127688"></circle>
                </g>
                <rect id="矩形" x="0" y="0" width="36" height="36"></rect>
            </g>
        </g>
    </g>
</svg>