<?xml version="1.0" encoding="UTF-8"?>
<svg width="25px" height="25px" viewBox="0 0 25 25" version="1.1" xmlns="http://www.w3.org/2000/svg" xmlns:xlink="http://www.w3.org/1999/xlink">
    <title>品牌零售-深</title>
    <g id="2023Q2-品牌官网2.0" stroke="none" stroke-width="1" fill="none" fill-rule="evenodd">
        <g id="画板" transform="translate(-273.000000, -71.000000)">
            <g id="品牌零售-深" transform="translate(273.248608, 71.052174)">
                <rect id="矩形" x="0" y="0" width="24" height="24.0695652"></rect>
                <g id="编组-8" transform="translate(1.200000, 3.209275)" fill-rule="nonzero">
                    <path d="M17.4074849,7.22086957 L6.59251505,7.22086957 C6.15068725,7.22086957 5.79251505,6.86269737 5.79251505,6.42086957 C5.79251505,6.22366771 5.86535148,6.03341413 5.99704305,5.8866289 L9.99344262,1.43218688 L9.99344262,1.43218688 C10.5967213,0.759764145 11.2590164,0.416243834 11.9803279,0.401625949 C12.7016393,0.387008063 13.3639344,0.715910488 13.9672131,1.38833322 L18.002957,5.8866289 C18.2980099,6.21549901 18.2705957,6.7212886 17.9417256,7.01634157 C17.7949404,7.14803314 17.6046868,7.22086957 17.4074849,7.22086957 Z" id="路径" fill="#73E1DB"></path>
                    <g id="编组-5" fill="#2B58F9">
                        <path d="M7.74683176,15.4137027 C7.95555956,15.4137027 8.15330169,15.4520404 8.34005814,15.5287158 C8.52681459,15.6053911 8.68885328,15.712189 8.8261742,15.8491093 C8.96349513,15.9860296 9.07335186,16.1475955 9.15574442,16.3338071 C9.23813697,16.5200187 9.27933324,16.717184 9.27933324,16.9253028 C9.27933324,17.1334217 9.23813697,17.3305869 9.15574442,17.5167985 C9.07335186,17.7030101 8.96349513,17.8645761 8.8261742,18.0014963 C8.68885328,18.1384166 8.52681459,18.2479529 8.34005814,18.3301051 C8.15330169,18.4122572 7.95555956,18.4533333 7.74683176,18.4533333 C7.52711828,18.4533333 7.32388332,18.4122572 7.13712687,18.3301051 C6.95037041,18.2479529 6.78833173,18.1384166 6.6510108,18.0014963 C6.51368988,17.8645761 6.40383315,17.7030101 6.32144059,17.5167985 C6.23904804,17.3305869 6.19785176,17.1334217 6.19785176,16.9253028 C6.19785176,16.717184 6.23904804,16.5200187 6.32144059,16.3338071 C6.40383315,16.1475955 6.51368988,15.9860296 6.6510108,15.8491093 C6.78833173,15.712189 6.95037041,15.6053911 7.13712687,15.5287158 C7.32388332,15.4520404 7.52711828,15.4137027 7.74683176,15.4137027 Z" id="路径"></path>
                        <path d="M15.8357206,15.4137027 C16.0444484,15.4137027 16.2421906,15.4520404 16.428947,15.5287158 C16.6157035,15.6053911 16.7777422,15.712189 16.9150631,15.8491093 C17.052384,15.9860296 17.1622408,16.1475955 17.2446333,16.3338071 C17.3270259,16.5200187 17.3682221,16.717184 17.3682221,16.9253028 C17.3682221,17.1334217 17.3270259,17.3305869 17.2446333,17.5167985 C17.1622408,17.7030101 17.052384,17.8645761 16.9150631,18.0014963 C16.7777422,18.1384166 16.6157035,18.2479529 16.428947,18.3301051 C16.2421906,18.4122572 16.0444484,18.4533333 15.8357206,18.4533333 C15.6160072,18.4533333 15.4127722,18.4122572 15.2260158,18.3301051 C15.0392593,18.2479529 14.8772206,18.1384166 14.7398997,18.0014963 C14.6025788,17.8645761 14.492722,17.7030101 14.4103295,17.5167985 C14.3279369,17.3305869 14.2867407,17.1334217 14.2867407,16.9253028 C14.2867407,16.717184 14.3279369,16.5200187 14.4103295,16.3338071 C14.492722,16.1475955 14.6025788,15.9860296 14.7398997,15.8491093 C14.8772206,15.712189 15.0392593,15.6053911 15.2260158,15.5287158 C15.4127722,15.4520404 15.6160072,15.4137027 15.8357206,15.4137027 Z" id="路径备份-3"></path>
                        <path d="M19.2917496,3.09028821 C19.6853154,3.09028821 19.9910316,3.14284413 20.2088984,3.24795597 C20.4267651,3.35306781 20.5813803,3.48270576 20.6727437,3.63686979 C20.7641072,3.79103383 20.806275,3.95570905 20.799247,4.13089546 C20.792219,4.30608186 20.7676212,4.45674217 20.7254534,4.58287639 C20.6832857,4.7090106 20.5919222,4.96828648 20.451363,5.36070403 C20.3108038,5.75312158 20.1597027,6.18408014 19.9980596,6.65357971 C19.8364165,7.12307928 19.6747734,7.58907512 19.5131304,8.05156723 C19.3514873,8.51405934 19.22147,8.87844707 19.1230786,9.1447304 C18.9403516,9.7053269 18.7119429,10.0942407 18.4378525,10.3114719 C18.1637621,10.528703 17.822906,10.6373186 17.4152844,10.6373186 L16.6773486,10.6373186 L15.3279803,10.6373186 L13.5569344,10.6373186 L11.5750498,10.6373186 L6.34624769,10.6373186 L6.641422,12.5293318 L17.2887811,12.5293318 C17.9634652,12.5293318 18.3008073,12.8166375 18.3008073,13.3912489 C18.3008073,13.6715471 18.2340417,13.9133044 18.1005104,14.1165206 C17.9669792,14.3197368 17.7034307,14.421345 17.309865,14.421345 L16.2978388,14.421345 L14.3581219,14.421345 L11.9123918,14.421345 L9.44557796,14.421345 L7.40044166,14.421345 L6.26191217,14.421345 C5.98079378,14.421345 5.74535713,14.3582779 5.55560222,14.2321436 C5.3658473,14.1060094 5.20771821,13.9413342 5.08121493,13.738118 C4.95471165,13.5349017 4.85280624,13.3141669 4.77549868,13.0759134 C4.69819112,12.8376598 4.63845346,12.6134212 4.5962857,12.4031976 C4.58222978,12.3191081 4.54357601,12.1158919 4.48032437,11.7935489 C4.41707273,11.4712059 4.33976517,11.0682771 4.24840169,10.5847627 C4.15703822,10.1012482 4.0551328,9.56167405 3.94268544,8.96604027 C3.83023809,8.37040649 3.71779073,7.77126898 3.60534337,7.16862774 C3.3382809,5.75312158 3.03607863,4.17644392 2.69873656,2.43859477 L1.11744561,2.43859477 C0.906606813,2.43859477 0.730907818,2.38603885 0.590348623,2.28092701 C0.449789427,2.17581517 0.33382809,2.04968095 0.242464613,1.90252437 C0.151101136,1.75536779 0.0878494974,1.59770002 0.0527096984,1.42952107 C0.0175698995,1.26134212 0,1.10717809 0,0.967028962 C0,0.686730712 0.0948774572,0.455484656 0.284632372,0.273290794 C0.474387286,0.0910969312 0.730907818,0 1.05419397,0 L1.49695544,0 L1.9397169,0 L2.46681389,0 L3.18366579,0 C3.46478418,0 3.68967889,0.0420447375 3.85834993,0.126134212 C4.02702096,0.210223687 4.1605522,0.315335531 4.25894363,0.441469744 C4.35733507,0.567603956 4.42761467,0.700745625 4.46978243,0.84089475 C4.51195019,0.981043875 4.54708999,1.10017063 4.57520182,1.19827502 C4.60331366,1.31039432 4.6314255,1.46806208 4.65953734,1.67127832 C4.68764918,1.87449455 4.71576102,2.08121451 4.74387286,2.29143819 C4.78604062,2.54370662 4.82820838,2.80998996 4.87037614,3.09028821 L19.2917496,3.09028821 L19.2917496,3.09028821 Z" id="路径"></path>
                    </g>
                    <path d="M8.51451505,3.07937798 L15.4835151,3.07937798 L18.002957,5.8866289 C18.2980099,6.21549901 18.2705957,6.7212886 17.9417256,7.01634157 C17.7949404,7.14803314 17.6046868,7.22086957 17.4074849,7.22086957 L6.59251505,7.22086957 C6.15068725,7.22086957 5.79251505,6.86269737 5.79251505,6.42086957 C5.79251505,6.22366771 5.86535148,6.03341413 5.99704305,5.8866289 L8.51451505,3.07937798 Z" id="形状结合" fill="#071EF3"></path>
                </g>
            </g>
        </g>
    </g>
</svg>