<?xml version="1.0" encoding="UTF-8"?>
<svg width="682px" height="518px" viewBox="0 0 682 518" version="1.1" xmlns="http://www.w3.org/2000/svg" xmlns:xlink="http://www.w3.org/1999/xlink">
    <title>CDP+</title>
    <defs>
        <linearGradient x1="13.8093013%" y1="30.4287372%" x2="100%" y2="65.9816017%" id="linearGradient-1">
            <stop stop-color="#4889FE" offset="0%"></stop>
            <stop stop-color="#47B1FF" offset="57.9570608%"></stop>
            <stop stop-color="#67D6FF" offset="100%"></stop>
        </linearGradient>
        <rect id="path-2" x="0" y="0" width="680" height="518" rx="24"></rect>
        <filter x="-24.8%" y="-25.4%" width="149.6%" height="150.8%" filterUnits="objectBoundingBox" id="filter-4">
            <feGaussianBlur stdDeviation="50" in="SourceGraphic"></feGaussianBlur>
        </filter>
        <linearGradient x1="50%" y1="47.3319599%" x2="50%" y2="98.4755143%" id="linearGradient-5">
            <stop stop-color="#00A3FF" stop-opacity="0.156767305" offset="0%"></stop>
            <stop stop-color="#FFFFFF" stop-opacity="0" offset="100%"></stop>
        </linearGradient>
        <path d="M3.62852865,53.2813414 C30.4245478,40.3258277 57.8727669,37.2874484 85.9731857,44.1662033 C128.123814,54.4843356 149.182825,46.7238012 167.960661,33.1661268 C176.930447,26.6899044 192.314144,18.3666582 206.704074,12.6352711 C221.094004,6.90388398 240.441364,1.14065001 287.754371,4.59286719" id="path-6"></path>
        <filter x="-3.0%" y="-21.3%" width="111.3%" height="151.1%" filterUnits="objectBoundingBox" id="filter-7">
            <feMorphology radius="1" operator="dilate" in="SourceAlpha" result="shadowSpreadOuter1"></feMorphology>
            <feOffset dx="11" dy="2" in="shadowSpreadOuter1" result="shadowOffsetOuter1"></feOffset>
            <feMorphology radius="1" operator="erode" in="SourceAlpha" result="shadowInner"></feMorphology>
            <feOffset dx="11" dy="2" in="shadowInner" result="shadowInner"></feOffset>
            <feComposite in="shadowOffsetOuter1" in2="shadowInner" operator="out" result="shadowOffsetOuter1"></feComposite>
            <feGaussianBlur stdDeviation="2" in="shadowOffsetOuter1" result="shadowBlurOuter1"></feGaussianBlur>
            <feColorMatrix values="0 0 0 0 0.204737413   0 0 0 0 0.418516171   0 0 0 0 0.719076405  0 0 0 0.1 0" type="matrix" in="shadowBlurOuter1"></feColorMatrix>
        </filter>
        <path d="M78.4903226,153.649203 C121.839331,153.649203 156.980645,119.253657 156.980645,76.8246014 C156.980645,34.3955456 121.839331,0 78.4903226,0 C35.1413144,0 0,34.3955456 0,76.8246014 C0,119.253657 35.1413144,153.649203 78.4903226,153.649203 Z" id="path-8"></path>
        <filter x="-17.8%" y="-16.9%" width="135.7%" height="136.4%" filterUnits="objectBoundingBox" id="filter-9">
            <feOffset dx="0" dy="2" in="SourceAlpha" result="shadowOffsetOuter1"></feOffset>
            <feMorphology radius="1" operator="erode" in="SourceAlpha" result="shadowInner"></feMorphology>
            <feOffset dx="0" dy="2" in="shadowInner" result="shadowInner"></feOffset>
            <feComposite in="shadowOffsetOuter1" in2="shadowInner" operator="out" result="shadowOffsetOuter1"></feComposite>
            <feGaussianBlur stdDeviation="9" in="shadowOffsetOuter1" result="shadowBlurOuter1"></feGaussianBlur>
            <feColorMatrix values="0 0 0 0 0.204737413   0 0 0 0 0.418516171   0 0 0 0 0.719076405  0 0 0 0.1 0" type="matrix" in="shadowBlurOuter1"></feColorMatrix>
        </filter>
        <mask id="mask-10" maskContentUnits="userSpaceOnUse" maskUnits="objectBoundingBox" x="0" y="0" width="156.980645" height="153.649203" fill="white">
            <use xlink:href="#path-8"></use>
        </mask>
        <ellipse id="path-11" cx="78.4903226" cy="76.8246014" rx="58.0561133" ry="56.8240468"></ellipse>
        <filter x="-24.1%" y="-22.9%" width="148.2%" height="149.3%" filterUnits="objectBoundingBox" id="filter-12">
            <feOffset dx="0" dy="2" in="SourceAlpha" result="shadowOffsetOuter1"></feOffset>
            <feGaussianBlur stdDeviation="9" in="shadowOffsetOuter1" result="shadowBlurOuter1"></feGaussianBlur>
            <feComposite in="shadowBlurOuter1" in2="SourceAlpha" operator="out" result="shadowBlurOuter1"></feComposite>
            <feColorMatrix values="0 0 0 0 0.204737413   0 0 0 0 0.418516171   0 0 0 0 0.719076405  0 0 0 0.1 0" type="matrix" in="shadowBlurOuter1"></feColorMatrix>
        </filter>
        <linearGradient x1="50%" y1="0%" x2="50%" y2="100%" id="linearGradient-13">
            <stop stop-color="#00A3FF" offset="0%"></stop>
            <stop stop-color="#2B58F9" offset="100%"></stop>
        </linearGradient>
        <linearGradient x1="50%" y1="0%" x2="50%" y2="100%" id="linearGradient-14">
            <stop stop-color="#00A3FF" offset="0%"></stop>
            <stop stop-color="#2B58F9" offset="100%"></stop>
        </linearGradient>
        <rect id="path-15" x="0" y="0" width="77.4709677" height="76.8490553" rx="10"></rect>
        <filter x="-30.3%" y="-28.0%" width="160.7%" height="161.2%" filterUnits="objectBoundingBox" id="filter-16">
            <feOffset dx="0" dy="2" in="SourceAlpha" result="shadowOffsetOuter1"></feOffset>
            <feGaussianBlur stdDeviation="7.5" in="shadowOffsetOuter1" result="shadowBlurOuter1"></feGaussianBlur>
            <feColorMatrix values="0 0 0 0 0.204737413   0 0 0 0 0.418516171   0 0 0 0 0.719076405  0 0 0 0.1 0" type="matrix" in="shadowBlurOuter1"></feColorMatrix>
        </filter>
        <rect id="path-17" x="0" y="0" width="56.6337662" height="56.1791283" rx="10"></rect>
        <filter x="-28.3%" y="-24.9%" width="156.5%" height="157.0%" filterUnits="objectBoundingBox" id="filter-18">
            <feOffset dx="0" dy="2" in="SourceAlpha" result="shadowOffsetOuter1"></feOffset>
            <feGaussianBlur stdDeviation="5" in="shadowOffsetOuter1" result="shadowBlurOuter1"></feGaussianBlur>
            <feColorMatrix values="0 0 0 0 0.204737413   0 0 0 0 0.418516171   0 0 0 0 0.719076405  0 0 0 0.1 0" type="matrix" in="shadowBlurOuter1"></feColorMatrix>
        </filter>
        <rect id="path-19" x="415.754304" y="235.353745" width="132.516129" height="35.9179954" rx="17.9589977"></rect>
        <filter x="-21.1%" y="-72.4%" width="142.3%" height="255.9%" filterUnits="objectBoundingBox" id="filter-20">
            <feOffset dx="0" dy="2" in="SourceAlpha" result="shadowOffsetOuter1"></feOffset>
            <feGaussianBlur stdDeviation="9" in="shadowOffsetOuter1" result="shadowBlurOuter1"></feGaussianBlur>
            <feColorMatrix values="0 0 0 0 0.204737413   0 0 0 0 0.246952114   0 0 0 0 0.719076405  0 0 0 0.383532971 0" type="matrix" in="shadowBlurOuter1"></feColorMatrix>
        </filter>
        <linearGradient x1="50%" y1="0%" x2="50%" y2="97.4971318%" id="linearGradient-21">
            <stop stop-color="#FFFFFF" offset="0%"></stop>
            <stop stop-color="#F6F7FE" offset="100%"></stop>
        </linearGradient>
        <linearGradient x1="50%" y1="0%" x2="50%" y2="97.4971318%" id="linearGradient-22">
            <stop stop-color="#FFFFFF" offset="0%"></stop>
            <stop stop-color="#F6F7FE" offset="100%"></stop>
        </linearGradient>
        <linearGradient x1="50%" y1="0%" x2="50%" y2="97.4971318%" id="linearGradient-23">
            <stop stop-color="#FFFFFF" offset="0%"></stop>
            <stop stop-color="#F6F7FE" offset="100%"></stop>
        </linearGradient>
        <linearGradient x1="50%" y1="0%" x2="50%" y2="97.4971318%" id="linearGradient-24">
            <stop stop-color="#FFFFFF" offset="0%"></stop>
            <stop stop-color="#F6F7FE" offset="100%"></stop>
        </linearGradient>
    </defs>
    <g id="页面-1" stroke="none" stroke-width="1" fill="none" fill-rule="evenodd">
        <g id="CDP+" transform="translate(-639.000000, -1597.000000)">
            <rect fill="#FFFFFF" x="0" y="0" width="1440" height="5974"></rect>
            <g id="编组-22" transform="translate(0.000000, 1496.000000)">
                <rect id="矩形" fill="#FFFFFF" x="0" y="0" width="1440" height="718"></rect>
                <g id="编组-57" transform="translate(640.000000, 101.000000)">
                    <g id="编组-16">
                        <mask id="mask-3" fill="white">
                            <use xlink:href="#path-2"></use>
                        </mask>
                        <use id="矩形" fill="url(#linearGradient-1)" xlink:href="#path-2"></use>
                        <ellipse id="椭圆形" fill="#5F72FF" opacity="0.517264957" filter="url(#filter-4)" mask="url(#mask-3)" cx="0.512048193" cy="334.5" rx="302.620482" ry="295.5"></ellipse>
                    </g>
                    <g id="编组-119" transform="translate(24.000000, 39.000000)">
                        <rect id="矩形" fill="#FFFFFF" x="0" y="0" width="632" height="438" rx="20"></rect>
                        <rect id="矩形" fill="#F6F7FE" x="141.98051" y="87.7995444" width="373.083871" height="298.817768" rx="14"></rect>
                        <g id="编组-118" transform="translate(181.349719, 280.341671)">
                            <path d="M6.4092375,53.2813414 C6.4092375,53.2813414 6.4092375,67.6304384 6.4092375,96.3286326 L287.754371,96.3286326 L287.754371,4.59286719 C246.691088,-0.763023725 209.754781,6.68713824 176.94545,26.9433531 C152.160133,41.400335 142.709649,53.7761513 96.613333,46.598548 C48.9057661,34.5766633 25.1800406,42.9328797 6.4092375,53.2813414 Z" id="路径-16" fill="url(#linearGradient-5)"></path>
                            <g id="路径-14" stroke-linecap="round" stroke-linejoin="round">
                                <use fill="black" fill-opacity="1" filter="url(#filter-7)" xlink:href="#path-6"></use>
                                <use stroke="#2B58F9" stroke-width="2" xlink:href="#path-6"></use>
                            </g>
                            <ellipse id="椭圆形" stroke="#F6F7FE" fill="#2B58F9" cx="287.754371" cy="3.55152404" rx="3.12852865" ry="3.05152404"></ellipse>
                            <ellipse id="椭圆形备份-15" stroke="#F6F7FE" fill="#2B58F9" cx="3.62852865" cy="53.1722736" rx="3.12852865" ry="3.05152404"></ellipse>
                            <ellipse id="椭圆形备份-14" stroke="#F6F7FE" fill="#00C8BD" cx="230.510785" cy="5.38662969" rx="3.12852865" ry="3.05152404"></ellipse>
                        </g>
                        <g id="组件|智能抽象|部署01" transform="translate(460.073493, 45.959771)" fill-rule="nonzero">
                            <path d="M7.35391705,0 L95.6009217,0 C99.6623779,0 102.954839,3.22258822 102.954839,7.19785226 L102.954839,33.1101204 C102.954839,34.700226 101.637854,35.9892613 100.013272,35.9892613 L2.94156682,35.9892613 C1.31698432,35.9892613 0,34.700226 0,33.1101204 L0,7.19785226 C0,3.22258822 3.29246081,0 7.35391705,0 Z" id="矩形" fill="#00C8BD"></path>
                            <rect id="矩形备份-3" fill="#FFFFFF" x="64.71447" y="14.3957045" width="29.4156682" height="7.19785226" rx="3.59892613"></rect>
                            <path d="M2.94156682,80.6210262 L100.013272,80.6210262 C101.637854,80.6210262 102.954839,81.9100615 102.954839,83.5001671 L102.954839,109.412435 C102.954839,113.387699 99.6623779,116.610287 95.6009217,116.610287 L7.35391705,116.610287 C3.29246081,116.610287 0,113.387699 0,109.412435 L0,83.5001671 C0,81.9100615 1.31698432,80.6210262 2.94156682,80.6210262 Z" id="矩形备份-2" fill="#00A3FF"></path>
                            <rect id="矩形备份-5" fill="#FFFFFF" x="64.71447" y="95.0116499" width="29.4156682" height="7.19785226" rx="3.59892613"></rect>
                            <ellipse id="椭圆形" fill="#FFFFFF" cx="12.501659" cy="17.9946307" rx="3.67695853" ry="3.59892613"></ellipse>
                            <ellipse id="椭圆形备份" fill="#FFFFFF" cx="27.2094931" cy="17.9946307" rx="3.67695853" ry="3.59892613"></ellipse>
                            <ellipse id="椭圆形备份-4" fill="#FFFFFF" cx="12.501659" cy="98.610576" rx="3.67695853" ry="3.59892613"></ellipse>
                            <ellipse id="椭圆形备份-5" fill="#FFFFFF" cx="27.2094931" cy="98.610576" rx="3.67695853" ry="3.59892613"></ellipse>
                            <rect id="矩形备份" fill="#00A3FF" x="0" y="40.3105131" width="102.954839" height="35.9892613"></rect>
                            <rect id="矩形备份-4" fill="#FFFFFF" x="64.71447" y="54.7036772" width="29.4156682" height="7.19785226" rx="3.59892613"></rect>
                            <ellipse id="椭圆形备份-2" fill="#FFFFFF" cx="12.501659" cy="58.3026033" rx="3.67695853" ry="3.59892613"></ellipse>
                            <ellipse id="椭圆形备份-3" fill="#FFFFFF" cx="27.2094931" cy="58.3026033" rx="3.67695853" ry="3.59892613"></ellipse>
                        </g>
                        <g id="编组-117" transform="translate(245.463077, 124.710774)">
                            <g id="椭圆形" stroke-dasharray="3">
                                <use fill="black" fill-opacity="1" filter="url(#filter-9)" xlink:href="#path-8"></use>
                                <use stroke="#A3B7FF" mask="url(#mask-10)" stroke-width="2" xlink:href="#path-8"></use>
                            </g>
                            <g id="椭圆形备份-12">
                                <use fill="black" fill-opacity="1" filter="url(#filter-12)" xlink:href="#path-11"></use>
                                <ellipse stroke-opacity="0.1" stroke="#346BB7" stroke-width="1" stroke-linejoin="square" fill="#FFFFFF" fill-rule="evenodd" cx="78.4903226" cy="76.8246014" rx="57.5561133" ry="56.3240468"></ellipse>
                            </g>
                            <g id="客户" transform="translate(47.909677, 46.892938)" fill-rule="nonzero">
                                <rect id="矩形" fill="#000000" opacity="0" x="0" y="0" width="61.1612903" height="59.8633257"></rect>
                                <path d="M25.8024194,39.2853075 C25.8024194,44.2979106 28.5345933,48.9297469 32.969758,51.4360485 C37.4049227,53.9423501 42.8692709,53.9423501 47.3044355,51.4360485 C51.7396002,48.9297469 54.4717742,44.2979106 54.4717742,39.2853075 C54.4717742,34.2727044 51.7396002,29.6408681 47.3044355,27.1345665 C42.8692709,24.6282649 37.4049227,24.6282649 32.969758,27.1345665 C28.5345933,29.6408681 25.8024194,34.2727044 25.8024194,39.2853075 L25.8024194,39.2853075 Z" id="路径" fill="#E6F1FD"></path>
                                <path d="M55.8932964,50.1823035 C54.7763861,41.7990995 49.56812,37.2684279 45.1661794,34.2460315 C43.2190524,32.9189831 40.5790827,33.0008275 38.7514113,34.4506424 C36.207006,36.4675221 33.5550907,37.490577 30.8733115,37.490577 C28.1736139,37.490577 25.4918347,36.461676 22.6786542,34.3395679 C20.8569556,32.9715974 18.3603327,32.8429848 16.4609879,34.0238824 C9.7296623,38.2154844 6.16988407,43.3541429 5.26799395,50.1823035 C5.07089214,51.6730406 5.54274194,53.1754698 6.55811492,54.3095992 C7.59140625,55.4612667 9.07862903,56.1218679 10.6375252,56.1218679 L50.5297379,56.1218679 C52.0886341,56.1218679 53.5758569,55.4612667 54.6091482,54.3095992 C55.6245212,53.1754698 56.0903982,51.6671946 55.8932964,50.1823035 Z M10.6375252,51.2930488 C10.4882056,51.2930488 10.3508317,51.2287425 10.2492944,51.117668 C10.1895665,51.0533617 10.1238659,50.9422872 10.1417843,50.7961365 C10.8525454,45.4236368 13.6119708,41.5009521 19.0949849,38.0868718 C19.1606855,38.0517956 19.2323589,38.0284115 19.3159778,38.0284115 C19.4414063,38.0284115 19.5728075,38.0751797 19.6803175,38.1570241 C22.0754032,39.9692928 24.5541079,41.2028047 27.0447581,41.8224836 C26.9133569,41.7932535 26.7939012,41.7640233 26.6923639,41.7347932 C26.3937248,41.9160201 25.9517389,42.7052338 25.5754536,43.8627474 C25.5694808,47.0488326 28.3826613,51.0533617 28.555872,51.2930488 L10.6375252,51.2930488 L10.6375252,51.2930488 Z M50.9179688,51.1293601 C50.8164315,51.2404346 50.6790575,51.3047409 50.5297379,51.3047409 L32.6054183,51.3047409 L32.6054183,51.2988949 C34.2718246,49.5041643 35.55,46.4349996 35.687374,44.2427392 C35.2991431,43.1203018 34.9885585,42.0329406 34.6003276,41.8458677 C37.1208417,41.2203428 39.5935736,39.9809848 41.8393397,38.2037924 C41.9707409,38.0985639 42.1917339,38.0985639 42.3470262,38.2037924 C47.7404486,41.892636 50.3326361,45.6574779 51.0254788,50.8078285 C51.0433972,50.9539792 50.9776966,51.0592077 50.9179688,51.1293601 L50.9179688,51.1293601 Z" id="形状" fill="url(#linearGradient-13)"></path>
                                <path d="M30.8673387,33.2989749 C39.0440776,33.2989749 45.452873,26.8391141 45.4469044,18.5903687 C45.4469044,10.4059297 38.7753024,3.74145786 30.5746724,3.74145786 C22.3800151,3.74145786 15.7084173,10.4000836 15.7084173,18.5903687 C15.7084173,26.7046555 22.5114163,33.2989749 30.8673387,33.2989749 Z M30.5806452,8.55858485 C36.0696321,8.55858485 40.5372732,13.0600263 40.543246,18.5903687 C40.543246,24.1324032 36.2965978,28.4760019 30.8733115,28.4760019 C25.318624,28.4760019 20.6299899,23.9511763 20.6299899,18.5903687 C20.6299899,13.0600263 25.0916583,8.55858485 30.5806452,8.55858485 Z" id="形状" fill="url(#linearGradient-14)"></path>
                                <path d="M32.8264113,52.175799 C31.9961946,53.8126869 29.6190272,53.8243789 28.7649194,52.1991832 L24.7631552,44.5701167 C24.3092238,43.7107506 24.4764617,42.6584656 25.1752772,41.9744804 L28.9918851,38.2388685 C29.8818296,37.3678104 31.3212702,37.3678104 32.2112147,38.2388685 L36.1950605,42.1381691 C36.8879032,42.8221544 37.0611139,43.8510553 36.6251008,44.7104214 L32.8264113,52.175799 Z" id="路径" fill="#2B58F9"></path>
                            </g>
                        </g>
                        <path d="M397.692413,217.159987 L425.701105,227.747172 C426.734324,228.137725 427.255308,229.291921 426.864754,230.32514 C426.681919,230.808836 426.318848,231.202918 425.851723,231.424695 L415.836655,236.179571 C415.410669,236.381817 415.069846,236.728078 414.874368,237.157211 L410.118401,247.597968 C409.660515,248.603162 408.474455,249.046844 407.469261,248.588958 C407.004999,248.377478 406.639103,247.996578 406.44644,247.524196 L395.133358,219.786098 C394.716216,218.763324 395.207177,217.596042 396.229951,217.1789 C396.697567,216.988181 397.220021,216.981425 397.692413,217.159987 Z" id="路径" fill="#2B58F9"></path>
                        <g id="编组-35" transform="translate(112.894107, 72.701296)">
                            <g id="矩形">
                                <use fill="black" fill-opacity="1" filter="url(#filter-16)" xlink:href="#path-15"></use>
                                <use fill="#00A3FF" fill-rule="evenodd" xlink:href="#path-15"></use>
                            </g>
                            <g id="商店-面" transform="translate(16.182499, 17.656878)" fill="#FFFFFF" fill-rule="nonzero">
                                <path d="M8.38146316,0 C6.1131787,0 4.27433761,4.01996416 4.27433761,4.01996416 L0,15.9581513 C0,20.2665309 3.56835543,23.7592122 7.97020452,23.7592122 C11.1694047,23.7592122 15.2972816,18.9944776 15.2972816,18.9944776 C15.2972816,18.9944776 19.3537848,23.7592122 22.5529849,23.7592122 C25.7942885,23.7592122 28.1970197,21.8083456 29.8900554,18.9944776 C29.8900554,18.9944776 33.9365652,23.7592122 37.1357654,23.7592122 C41.5376144,23.7592122 45.1059699,20.2665309 45.1059699,15.9581513 L40.8315777,4.01996416 C40.8315777,4.01996416 38.9928458,0 36.7245613,0 L8.38135394,0 L8.38146316,0 Z M8.42968271,7.9489032 L36.6763418,7.9489032 L8.42968271,7.9489032 Z M37.6046909,29.7984587 C34.4054361,29.7984587 30.3589809,26.1086543 30.3589809,26.1086543 C29.1134095,28.2834758 25.7942338,29.7984587 22.5529849,29.7984587 C19.3537848,29.7984587 15.7662071,26.1086543 15.7662071,26.1086543 C15.7662071,26.1086543 11.6383848,29.7984587 8.43913002,29.7984587 C6.4220459,29.7984587 4.58031054,29.7676716 3.1764829,28.8004429 L3.1764829,39.2096432 C3.1764829,40.4887519 4.24572261,41.5353002 5.55251047,41.5353002 L39.5535686,41.5353002 C40.8603565,41.5353002 41.9295962,40.4887519 41.9295962,39.2096967 L41.9295962,28.800336 C40.6838063,29.4316857 39.1990485,29.7984587 37.6046909,29.7984587 Z" id="形状"></path>
                            </g>
                        </g>
                        <g id="编组-44" transform="translate(48.929032, 181.029300)">
                            <g id="矩形备份-24">
                                <use fill="black" fill-opacity="1" filter="url(#filter-18)" xlink:href="#path-17"></use>
                                <use fill="#FFD53B" fill-rule="evenodd" xlink:href="#path-17"></use>
                            </g>
                            <g id="编组-116" transform="translate(12.516883, 11.829177)" fill="#FFFFFF" fill-rule="nonzero">
                                <path d="M31.1823789,23.7505657 L27.9023128,22.1453374 L17.2921256,27.3357174 L15.8,28.0680762 L14.3078744,27.3357174 L3.69768722,22.1453374 L0.417621145,23.7505657 C-0.139207048,24.0230713 -0.139207048,24.802267 0.417621145,25.0790305 L15.4606828,32.4409394 C15.6738436,32.5473869 15.9261564,32.5473869 16.1393172,32.4409394 L31.1823789,25.0790305 C31.739207,24.802267 31.739207,24.0230713 31.1823789,23.7505657 Z" id="路径" fill-opacity="0.680488213"></path>
                                <path d="M0.417621145,8.76701592 L15.4606828,16.1289249 C15.6748475,16.2311145 15.9251525,16.2311145 16.1393172,16.1289249 L31.1823789,8.76701592 C31.739207,8.49451033 31.739207,7.71531464 31.1823789,7.44280905 L16.1393172,0.0766421984 C15.9251525,-0.0255473995 15.6748475,-0.0255473995 15.4606828,0.0766421984 L0.417621145,7.44280905 C-0.139207048,7.71531464 -0.139207048,8.49451033 0.417621145,8.76701592 Z" id="路径"></path>
                                <path d="M31.1693282,15.5541084 L27.9762665,13.9872012 L17.2921256,19.2159023 L15.8,19.9482611 L14.3078744,19.2159023 L3.62373348,13.9872012 L0.430671806,15.5498505 C-0.134856828,15.826614 -0.134856828,16.6143255 0.430671806,16.8868311 L15.4563326,24.2402242 C15.6694934,24.3466717 15.9261564,24.3466717 16.1393172,24.2402242 L31.164978,16.8868311 C31.7348568,16.6143255 31.7348568,15.826614 31.1693282,15.5541084 Z" id="路径" fill-opacity="0.892015897"></path>
                            </g>
                        </g>
                        <g id="矩形">
                            <use fill="black" fill-opacity="1" filter="url(#filter-20)" xlink:href="#path-19"></use>
                            <use fill="#2B58F9" fill-rule="evenodd" xlink:href="#path-19"></use>
                        </g>
                        <text id="全渠道获客管理" font-family="PingFangSC-Medium, PingFang SC" font-size="14" font-weight="400" fill="#FFFFFF">
                            <tspan x="434.931524" y="258.335522">全渠道获客管理</tspan>
                        </text>
                        <line x1="227.755477" y1="322.538484" x2="227.755477" y2="386.617312" id="路径-18" stroke="url(#linearGradient-21)" stroke-width="2"></line>
                        <line x1="306.245799" y1="330.034708" x2="306.245799" y2="384.555967" id="路径-18备份" stroke="url(#linearGradient-22)" stroke-width="2"></line>
                        <line x1="360.781283" y1="307.585961" x2="360.781283" y2="376.670304" id="路径-18备份-2" stroke="url(#linearGradient-23)" stroke-width="2"></line>
                        <line x1="411.749025" y1="289.626964" x2="411.749025" y2="376.670304" id="路径-18备份-3" stroke="url(#linearGradient-24)" stroke-width="2"></line>
                    </g>
                </g>
            </g>
        </g>
    </g>
</svg>