<svg xmlns="http://www.w3.org/2000/svg" xmlns:xlink="http://www.w3.org/1999/xlink" width="436" height="498" viewBox="0 0 436 498" fill="none"><g opacity="1" transform="translate(1.4210854715202004e-14 0)  rotate(0 218.0000000000001 248)"><g opacity="1" transform="translate(2.842170943040401e-14 0)  rotate(0 218.00000000000006 248)"><g opacity="1" transform="translate(-4.263256414560601e-14 0)  rotate(0 218.00000000000006 248)"><g opacity="1" transform="translate(0 0)  rotate(0 108 25)"><g opacity="1" transform="translate(0 0)  rotate(0 108 26.5)"><text><tspan x="0" y="41.76" font-size="36" line-height="0" fill="#000000" opacity="0.8" font-family="SourceHanSansCN-Regular" letter-spacing="0" >全端数据采集</tspan></text></g></g><g opacity="1" transform="translate(0 96)  rotate(0 170.00000000000006 29)"><g opacity="1" transform="translate(68.00000000000001 0)  rotate(0 88 15)"><g opacity="1" transform="translate(0 0)  rotate(0 88 16)"><text><tspan x="0" y="25.52" font-size="22" line-height="0" fill="#000000" opacity="0.8" font-family="SourceHanSansCN-Regular" letter-spacing="0" >跨平台全触点采集</tspan></text></g></g><g opacity="1" transform="translate(68.00000000000001 36)  rotate(0 136.00000000000006 11)"><g opacity="1" transform="translate(0 0)  rotate(0 136 12)"><text><tspan x="0" y="18.56" font-size="16" line-height="0" fill="#000000" opacity="0.65" font-family="SourceHanSansCN-Regular" letter-spacing="0" >整合企业一方数据，积累企业数据资产</tspan></text></g></g><g opacity="1" transform="translate(0 0)  rotate(0 24.000000000000004 24)"><g opacity="1" transform="translate(0 0)  rotate(0 24 24)"><path id="矩形" fill-rule="evenodd" style="fill:#F6F7FA" transform="translate(0 0)  rotate(0 23.999999999999996 24)" opacity="1" d="M8,48L40,48C44.42,48 48,44.42 48,40L48,8C48,3.58 44.42,0 40,0L8,0C3.58,0 0,3.58 0,8L0,40C0,44.42 3.58,48 8,48Z " /></g><g opacity="1" transform="translate(13 13)  rotate(0 10.5 10.5)"><path id="矩形" fill-rule="evenodd" style="fill:#000000" transform="translate(0 0)  rotate(0 10.5 10.5)" opacity="0" d="M0,21L21,21L21,0L0,0L0,21Z " /><path id="形状" fill-rule="evenodd" style="fill:#000000" transform="translate(1.90909091 2.909090909999999)  rotate(0 9.068181795000005 8.590909095)" opacity="1" d="M1.29545 1.32168L1.29545 13.2217L16.8455 13.2117L16.8355 1.32168L1.29545 1.32168Z M1.29 0C0.58 0 0 0.59 0 1.32L0 13.22C0 13.95 0.58 14.54 1.29 14.54L16.84 14.54C17.56 14.54 18.13 13.95 18.14 13.22L18.14 1.32C18.13 0.59 17.56 0 16.84 0L1.29 0Z M2.59091 15.8601L2.59091 17.1801L15.5409 17.1801L15.5409 15.8601L2.59091 15.8601Z M7.77273 13.2168L7.77273 15.8568L10.3627 15.8568L10.3627 13.2168L7.77273 13.2168Z M1.29545 13.2151L16.8455 13.2151L16.8455 11.8951L1.29545 11.8951L1.29545 13.2151Z " /></g></g></g><g opacity="1" transform="translate(0 186)  rotate(0 217.50000000000006 41)"><g opacity="1" transform="translate(68.00000000000001 0)  rotate(0 88.00000000000006 15)"><g opacity="1" transform="translate(0 0)  rotate(0 88 16)"><text><tspan x="0" y="25.52" font-size="22" line-height="0" fill="#000000" opacity="0.8" font-family="SourceHanSansCN-Regular" letter-spacing="0" >海量数据实时处理</tspan></text></g></g><g opacity="1" transform="translate(68.00000000000001 36)  rotate(0 183.5 23.000000000000004)"><g opacity="1" transform="translate(0 0)  rotate(0 181.5 12)"><text><tspan x="0" y="18.56" font-size="16" line-height="0" fill="#000000" opacity="0.65" font-family="SourceHanSansCN-Regular" letter-spacing="0"  >毫秒级响应支撑个性化推荐、</tspan><tspan x="208" y="18.56" font-size="16" line-height="0" fill="#000000" opacity="0.65" font-family="Roboto-Regular" letter-spacing="0"  >A/B</tspan><tspan x="234.9921875" y="18.56" font-size="16" line-height="0" fill="#000000" opacity="0.65" font-family="Roboto-Regular" letter-spacing="0"  > test</tspan><tspan x="266.1328125" y="18.56" font-size="16" line-height="0" fill="#000000" opacity="0.65" font-family="SourceHanSansCN-Regular" letter-spacing="0" >、自动化营销</tspan></text></g><g opacity="1" transform="translate(0 24)  rotate(0 40 12)"><text><tspan x="0" y="18.56" font-size="16" line-height="0" fill="#000000" opacity="0.65" font-family="SourceHanSansCN-Regular" letter-spacing="0" >等业务场景</tspan></text></g></g><g opacity="1" transform="translate(0 0)  rotate(0 24.00000000000001 24.000000000000004)"><g opacity="1" transform="translate(0 0)  rotate(0 24.000000000000004 23.999999999999996)"><path id="矩形" fill-rule="evenodd" style="fill:#F6F7FA" transform="translate(0 0)  rotate(0 24 23.999999999999996)" opacity="1" d="M8,48L40,48C44.42,48 48,44.42 48,40L48,8C48,3.58 44.42,0 40,0L8,0C3.58,0 0,3.58 0,8L0,40C0,44.42 3.58,48 8,48Z " /></g><g opacity="1" transform="translate(14 14)  rotate(0 10.500000000000005 10.5)"><path id="矩形" fill-rule="evenodd" style="fill:#000000" transform="translate(0 0)  rotate(0 10.500000000000005 10.5)" opacity="0" d="M0,21L21,21L21,0L0,0L0,21Z " /><path id="形状" fill-rule="evenodd" style="fill:#000000" transform="translate(0 0)  rotate(0 10.500000000000005 10.5)" opacity="1" d="M20.24 6.56L18.8 6.56C18.86 6.67 18.9 6.78 18.97 6.92C19.45 8.06 19.69 9.26 19.69 10.5C19.69 11.74 19.45 12.94 18.97 14.08C18.51 15.17 17.84 16.15 17 17C16.15 17.84 15.17 18.5 14.08 18.97C12.94 19.45 11.74 19.69 10.5 19.69C9.26 19.69 8.06 19.45 6.92 18.97C5.83 18.51 4.85 17.84 4 17C3.16 16.15 2.5 15.17 2.03 14.08C1.55 12.94 1.31 11.74 1.31 10.5C1.31 9.26 1.55 8.06 2.03 6.92C2.49 5.83 3.16 4.85 4 4C4.85 3.16 5.83 2.5 6.92 2.03C8.06 1.55 9.26 1.31 10.5 1.31C11.74 1.31 12.94 1.55 14.08 2.03C14.67 2.28 15.23 2.59 15.85 3.03C15.94 3.09 15.94 3.22 15.86 3.29L14.85 4.12C14.75 4.2 14.78 4.36 14.9 4.4L18.84 5.88C19.07 5.97 19.32 5.77 19.28 5.52L18.59 1.37C18.56 1.24 18.42 1.19 18.32 1.27L17.16 2.22C17.1 2.26 16.96 2.22 16.96 2.22C16.9 2.18 16.79 2.09 16.79 2.09C15.04 0.78 12.86 0 10.5 0C4.7 0 0 4.7 0 10.5C0 16.3 4.7 21 10.5 21C16.3 21 21 16.3 21 10.5C21 9.23 20.78 8.02 20.36 6.89C20.32 6.78 20.28 6.67 20.24 6.56Z M10.4975 4.06875C8.3575 4.06875 6.4475 4.54875 5.2475 5.29875C4.4275 5.80875 3.9375 6.44875 3.9375 7.13875L3.9375 14.1187C3.9375 15.8188 6.8775 17.1987 10.4975 17.1987C14.1275 17.1987 17.0675 15.8188 17.0675 14.1187L17.0675 7.14875C17.0675 6.44875 16.5775 5.81875 15.7475 5.29875C14.5575 4.54875 12.6475 4.06875 10.4975 4.06875Z M6.42 15.0992C6.92 15.3392 7.53 15.5292 8.2 15.6592C8.93 15.8092 9.7 15.8792 10.5 15.8792C11.3 15.8792 12.07 15.8092 12.8 15.6592C13.47 15.5292 14.08 15.3392 14.58 15.0992C15.43 14.7092 15.75 14.2892 15.75 14.1192L15.75 13.6192C14.55 14.3692 12.65 14.8492 10.5 14.8492C8.35 14.8492 6.45 14.3692 5.25 13.6192L5.25 14.1192C5.25 14.2892 5.57 14.7092 6.42 15.0992Z M8.2 13.3152C8.93 13.4652 9.7 13.5352 10.5 13.5352C11.3 13.5352 12.07 13.4652 12.8 13.3152C13.47 13.1852 14.08 12.9952 14.58 12.7552C15.43 12.3652 15.75 11.9452 15.75 11.7752L15.75 11.2752C14.55 12.0252 12.65 12.5052 10.5 12.5052C8.35 12.5052 6.45 12.0252 5.25 11.2752L5.25 11.7752C5.25 11.9452 5.57 12.3652 6.42 12.7552C6.92 12.9952 7.53 13.1852 8.2 13.3152Z M12.8 10.9827C13.47 10.8427 14.08 10.6527 14.58 10.4227C15.43 10.0227 15.75 9.60268 15.75 9.43268L15.75 8.99268C14.55 9.74268 12.65 10.2227 10.5 10.2227C8.35 10.2227 6.45 9.74268 5.25 8.99268L5.25 9.43268C5.25 9.60268 5.57 10.0227 6.42 10.4227C6.92 10.6527 7.53 10.8427 8.2 10.9827C8.93 11.1227 9.7 11.1927 10.5 11.1927C11.3 11.1927 12.07 11.1227 12.8 10.9827Z M8.2 8.69125C8.93 8.83125 9.7 8.91125 10.5 8.91125C11.3 8.91125 12.07 8.83125 12.8 8.69125C13.47 8.56125 14.08 8.36125 14.58 8.13125C15.43 7.73125 15.75 7.31125 15.75 7.14125C15.75 6.97125 15.43 6.55125 14.58 6.16125C14.08 5.92125 13.47 5.73125 12.8 5.60125C12.08 5.45125 11.3 5.38125 10.5 5.38125C9.7 5.38125 8.93 5.45125 8.2 5.60125C7.53 5.73125 6.92 5.92125 6.42 6.16125C5.57 6.55125 5.25 6.97125 5.25 7.14125C5.25 7.31125 5.57 7.73125 6.42 8.13125C6.92 8.36125 7.53 8.56125 8.2 8.69125Z " /></g></g><g opacity="0" transform="translate(14 14)  rotate(0 10.5 10.5)"><path id="矩形" fill-rule="evenodd" style="fill:#000000" transform="translate(0 0)  rotate(0 10.5 10.5)" opacity="1" d="M0,21L21,21L21,0L0,0L0,21Z " /></g></g><g opacity="1" transform="translate(0 300)  rotate(0 218.00000000000006 41)"><g opacity="1" transform="translate(68.00000000000001 0)  rotate(0 66 15)"><g opacity="1" transform="translate(0 0)  rotate(0 66 16)"><text><tspan x="0" y="25.52" font-size="22" line-height="0" fill="#000000" opacity="0.8" font-family="SourceHanSansCN-Regular" letter-spacing="0" >用户关联分析</tspan></text></g></g><g opacity="1" transform="translate(68.00000000000001 36)  rotate(0 184.00000000000006 23.000000000000004)"><g opacity="1" transform="translate(0 0)  rotate(0 184 12)"><text><tspan x="0" y="18.56" font-size="16" line-height="0" fill="#000000" opacity="0.65" font-family="SourceHanSansCN-Regular" letter-spacing="0" >深入挖掘跨平台用户行为路径，精准满足数据分析，</tspan></text></g><g opacity="1" transform="translate(0 24)  rotate(0 56 12)"><text><tspan x="0" y="18.56" font-size="16" line-height="0" fill="#000000" opacity="0.65" font-family="SourceHanSansCN-Regular" letter-spacing="0" >提升个性化体验</tspan></text></g></g><g opacity="1" transform="translate(0 0)  rotate(0 24.000000000000004 24.000000000000004)"><g opacity="1" transform="translate(0 0)  rotate(0 24 23.999999999999996)"><path id="矩形" fill-rule="evenodd" style="fill:#F6F7FA" transform="translate(0 0)  rotate(0 23.999999999999996 23.999999999999996)" opacity="1" d="M8,48L40,48C44.42,48 48,44.42 48,40L48,8C48,3.58 44.42,0 40,0L8,0C3.58,0 0,3.58 0,8L0,40C0,44.42 3.58,48 8,48Z " /></g><g opacity="1" transform="translate(14 14)  rotate(0 10.5 10.5)"><path id="矩形" fill-rule="evenodd" style="fill:#000000" transform="translate(0 0)  rotate(0 10.5 10.5)" opacity="0" d="M0,21L21,21L21,0L0,0L0,21Z " /><path id="形状" fill-rule="evenodd" style="fill:#000000" transform="translate(1 0)  rotate(0 10 10)" opacity="1" d="M7.58253 7.69871C7.58253 8.98871 8.60254 10.0087 9.89253 10.0087C11.1825 10.0087 12.2025 8.98871 12.2025 7.69871C12.2025 6.40871 11.1825 5.38871 9.89253 5.38871C8.60254 5.38871 7.58253 6.40871 7.58253 7.69871Z M9.89544 3.85517C7.77544 3.85517 6.04544 5.59517 6.04544 7.69516C6.04544 8.87516 6.59544 9.90516 7.42544 10.6052C5.69544 11.5052 4.51544 13.3152 4.51544 15.3852L6.05544 15.3852C6.05544 13.2552 7.77544 11.5452 9.90544 11.5452C12.0354 11.5452 13.7454 13.2552 13.7454 15.3852L15.2954 15.3852C15.2954 13.3152 14.1154 11.5052 12.3854 10.6052C13.2154 9.90516 13.7554 8.86517 13.7554 7.69516C13.7354 5.58517 12.0154 3.85517 9.89544 3.85517Z M0 10C0 15.52 4.48 20 10 20C15.52 20 20 15.52 20 10C20 7.21 18.86 4.69 17.02 2.88L15.93 3.96C17.5 5.5 18.47 7.64 18.47 10.01C18.47 14.7 14.69 18.48 10 18.48C5.31 18.48 1.53 14.7 1.53 10.01C1.53 5.36 5.26 1.61 9.89 1.54L9.89 0C4.43 0.05 0 4.52 0 10Z M18.358 1.57677L13.738 0.766773L14.538 5.39677L18.358 1.57677Z " /></g></g></g><g opacity="1" transform="translate(0 413.9999999999998)  rotate(0 210.00000000000006 41)"><g opacity="1" transform="translate(68.00000000000001 0)  rotate(0 44.00000000000002 15)"><g opacity="1" transform="translate(0 0)  rotate(0 44 16)"><text><tspan x="0" y="25.52" font-size="22" line-height="0" fill="#000000" opacity="0.8" font-family="SourceHanSansCN-Regular" letter-spacing="0" >隐私计算</tspan></text></g></g><g opacity="1" transform="translate(68.00000000000001 36)  rotate(0 176.0000000000001 23.000000000000004)"><g opacity="1" transform="translate(0 0)  rotate(0 176 12)"><text><tspan x="0" y="18.56" font-size="16" line-height="0" fill="#000000" opacity="0.65" font-family="SourceHanSansCN-Regular" letter-spacing="0" >融合多种隐私保护计算技术，多方的数据协作和计</tspan></text></g><g opacity="1" transform="translate(0 24)  rotate(0 104 12)"><text><tspan x="0" y="18.56" font-size="16" line-height="0" fill="#000000" opacity="0.65" font-family="SourceHanSansCN-Regular" letter-spacing="0" >算，实现数据合规高效的流转</tspan></text></g></g><g opacity="1" transform="translate(0 0)  rotate(0 24.000000000000004 24.000000000000004)"><path id="矩形" fill-rule="evenodd" style="fill:#F6F7FA" transform="translate(0 0)  rotate(0 24 23.999999999999996)" opacity="1" d="M8,48L40,48C44.42,48 48,44.42 48,40L48,8C48,3.58 44.42,0 40,0L8,0C3.58,0 0,3.58 0,8L0,40C0,44.42 3.58,48 8,48Z " /><g opacity="1" transform="translate(13.5 15)  rotate(0 10.500000000000005 10.5)"><path id="矩形" fill-rule="evenodd" style="fill:#000000" transform="translate(0 0)  rotate(0 10.500000000000005 10.5)" opacity="0" d="M0,21L21,21L21,0L0,0L0,21Z " /><path id="形状" fill-rule="evenodd" style="fill:#000000" transform="translate(0 0)  rotate(0 10.500000000000005 10.5)" opacity="1" d="M4.2 21.005L16.8 21.005L16.8 19.425L4.2 19.425L4.2 21.005Z M1.05 0C0.53 0 0 0.52 0 1.05L0 16.8C0 17.33 0.53 17.85 1.05 17.85L19.95 17.85C20.48 17.85 21 17.33 21 16.8L21 1.05C21 0.52 20.48 0 19.95 0L1.05 0Z M1.575 2.095L1.575 15.755C1.575 16.105 1.745 16.275 2.095 16.275L18.905 16.275C19.255 16.275 19.425 16.105 19.425 15.755L19.425 2.095C19.425 1.925 19.425 1.925 19.255 1.745C19.255 1.575 19.075 1.575 18.905 1.575L2.095 1.575C1.925 1.575 1.925 1.575 1.745 1.745C1.575 1.745 1.575 1.925 1.575 2.095Z M15.395 8.93L12.775 11.55L14.005 12.6L16.625 9.98L17.675 8.93L16.455 7.87L14.005 5.25L12.775 6.3L15.395 8.93Z M7.00499 5.25L4.37499 7.87L3.32499 8.93L4.55499 9.98L7.00499 12.6L8.22499 11.55L5.60499 8.93L8.22499 6.3L7.00499 5.25Z M11.37 12.6L11.37 5.25L9.80001 5.25L9.80001 12.6L11.37 12.6Z " /></g></g></g></g></g></g></svg>