<?xml version="1.0" encoding="UTF-8"?>
<svg width="450px" height="498px" viewBox="0 0 450 498" version="1.1" xmlns="http://www.w3.org/2000/svg" xmlns:xlink="http://www.w3.org/1999/xlink">
    <title>编组 78</title>
    <g id="页面-1" stroke="none" stroke-width="1" fill="none" fill-rule="evenodd">
        <g id="CDP+" transform="translate(-120.000000, -1607.000000)">
            <g id="编组-22" transform="translate(0.000000, 1496.000000)">
                <g id="编组-78" transform="translate(120.000000, 111.000000)">
                    <text id="全端数据采集" font-family="PingFangSC-Medium, PingFang SC" font-size="36" font-weight="400" line-spacing="56" fill="#000000" fill-opacity="0.8">
                        <tspan x="0" y="38">全端数据采集</tspan>
                    </text>
                    <g id="编组-61" transform="translate(0.000000, 96.000000)">
                        <g id="编组-19">
                            <text id="跨平台全触点采集" font-family="PingFangSC-Medium, PingFang SC" font-size="22" font-weight="400" line-spacing="28" fill="#000000" fill-opacity="0.8">
                                <tspan x="68" y="23">跨平台全触点采集</tspan>
                            </text>
                            <text id="整合企业一方数据，积累企业数据资产" font-family="PingFangSC-Regular, PingFang SC" font-size="16" font-weight="normal" line-spacing="24" fill="#000000" fill-opacity="0.65">
                                <tspan x="68" y="53">整合企业一方数据，积累企业数据资产</tspan>
                            </text>
                            <g id="编组-18" fill="#F6F7FA">
                                <rect id="矩形" x="0" y="0" width="48" height="48" rx="8"></rect>
                            </g>
                        </g>
                        <g id="平台自监控" transform="translate(13.000000, 13.000000)" fill="#000000" fill-rule="nonzero">
                            <rect id="矩形" opacity="0" x="0" y="0" width="21" height="21"></rect>
                            <path d="M18.7477734,4.23076923 L18.75,4.23304087 L18.75,16.1236025 L18.7477734,16.1258741 L3.20677202,16.1258741 L3.20454545,16.1236025 L3.20454545,4.23304087 L3.20677202,4.23076923 L18.7477734,4.23076923 M18.75,2.90909091 L3.20454545,2.90909091 C2.48996232,2.91124569 1.91120294,3.50172085 1.90909091,4.23076923 L1.90909091,16.1258741 C1.91120294,16.8549225 2.48996232,17.4453977 3.20454545,17.4475524 L18.75,17.4475524 C19.4645831,17.4453977 20.0433425,16.8549225 20.0454545,16.1258741 L20.0454545,4.23076923 C20.0433425,3.50172085 19.4645831,2.91124569 18.75,2.90909091 L18.75,2.90909091 Z M17.4545455,18.7692308 L4.5,18.7692308 L4.5,20.0909091 L17.4545455,20.0909091 L17.4545455,18.7692308 Z M12.2727273,16.1258741 L9.68181818,16.1258741 L9.68181818,18.7692308 L12.2727273,18.7692308 L12.2727273,16.1258741 Z M3.20454545,14.8041958 L18.75,14.8041958 L18.75,16.1258741 L3.20454545,16.1258741 L3.20454545,14.8041958 Z" id="形状"></path>
                        </g>
                    </g>
                    <g id="编组-66" transform="translate(0.000000, 186.000000)">
                        <g id="编组-64">
                            <g id="编组-20">
                                <text id="海量数据实时处理" font-family="PingFangSC-Medium, PingFang SC" font-size="22" font-weight="400" line-spacing="28" fill="#000000" fill-opacity="0.8">
                                    <tspan x="68" y="23">海量数据实时处理</tspan>
                                </text>
                                <text id="毫秒级响应支撑个性化推荐、A/B-tes" font-family="PingFangSC-Regular, PingFang SC" font-size="16" font-weight="normal" line-spacing="24" fill="#000000" fill-opacity="0.65">
                                    <tspan x="68" y="53">毫秒级响应支撑个性化推荐、A/B test、自动化营销</tspan>
                                    <tspan x="68" y="77">等业务场景</tspan>
                                </text>
                                <g id="编组-18" fill="#F6F7FA">
                                    <rect id="矩形" x="0" y="0" width="48" height="48" rx="8"></rect>
                                </g>
                            </g>
                            <g id="数据更新,数据库更新" transform="translate(14.000000, 14.000000)" fill="#000000" fill-rule="nonzero" opacity="0">
                                <rect id="矩形" x="0" y="0" width="21" height="21"></rect>
                            </g>
                        </g>
                        <g id="数据更新,数据库更新" transform="translate(14.000000, 14.000000)" fill="#000000" fill-rule="nonzero">
                            <rect id="矩形" opacity="0" x="0" y="0" width="21" height="21"></rect>
                            <path d="M21,10.5 C21,16.2996094 16.2996094,21 10.5,21 C4.70039063,21 0,16.2996094 0,10.5 C0,4.70039063 4.70039062,0 10.5,0 C12.8604492,0 15.0404297,0.779296875 16.7938477,2.09384766 C16.8492188,2.13486328 16.9025391,2.17587891 16.9579102,2.21894531 C17.0173828,2.26611328 17.1035156,2.2640625 17.1629883,2.21689453 L18.3175781,1.26738281 C18.4160156,1.18740234 18.5636719,1.24277344 18.5841797,1.36787109 L19.275293,5.52070312 C19.3163086,5.76884766 19.0722656,5.96982422 18.8364258,5.88164063 L14.8948242,4.40302734 C14.7758789,4.35791016 14.7512695,4.20205078 14.8476562,4.12207031 L15.8607422,3.28740234 C15.9427734,3.21972656 15.9407227,3.09052734 15.8525391,3.02695313 L15.7479492,2.953125 C15.2270508,2.59013672 14.6671875,2.28046875 14.0765625,2.03232422 C12.9445313,1.55449219 11.7407227,1.3125 10.5,1.3125 C9.25927734,1.3125 8.05546875,1.55449219 6.9234375,2.034375 C5.83037109,2.49785156 4.84599609,3.16025391 4.003125,4.003125 C3.15820312,4.84804687 2.49580078,5.83037109 2.034375,6.9234375 C1.55449219,8.05546875 1.3125,9.25927734 1.3125,10.5 C1.3125,11.7407227 1.55449219,12.9445313 2.034375,14.0765625 C2.49785156,15.1696289 3.16025391,16.1540039 4.003125,16.996875 C4.84804687,17.8417969 5.83037109,18.5041992 6.9234375,18.965625 C8.05546875,19.4455078 9.25927734,19.6875 10.5,19.6875 C11.7407227,19.6875 12.9445313,19.4455078 14.0765625,18.965625 C15.1696289,18.5021484 16.1540039,17.8397461 16.996875,16.996875 C17.8417969,16.1519531 18.5041992,15.1696289 18.965625,14.0765625 C19.4455078,12.9445313 19.6875,11.7407227 19.6875,10.5 C19.6875,9.25927734 19.4455078,8.05546875 18.965625,6.9234375 C18.9615234,6.91113281 18.9553711,6.90087891 18.9512695,6.890625 C18.9041016,6.77988281 18.8548828,6.67119141 18.8036133,6.5625 L20.2371094,6.5625 C20.2801758,6.67119141 20.3232422,6.77988281 20.3642578,6.890625 C20.7744141,8.01650391 21,9.23261719 21,10.5 Z M15.75,5.29921875 C14.5523438,4.55273438 12.647168,4.06875 10.5,4.06875 C8.35283203,4.06875 6.44765625,4.55273438 5.25,5.29921875 C4.42763672,5.81191406 3.93955078,6.44970703 3.9375,7.14082031 L3.9375,14.1175781 C3.9375,15.815625 6.87626953,17.19375 10.5,17.19375 C14.1237305,17.19375 17.0625,15.815625 17.0625,14.1175781 L17.0625,7.14492188 C17.0625,6.45380859 16.5744141,5.81396484 15.75,5.29921875 Z M15.75,14.1175781 C15.75,14.287793 15.4321289,14.7061523 14.5831055,15.1040039 C14.0847656,15.337793 13.4674805,15.5326172 12.7989258,15.6638672 C12.0729492,15.8074219 11.2998047,15.88125 10.5,15.88125 C9.70019531,15.88125 8.925,15.8074219 8.20107422,15.6638672 C7.53251953,15.5305664 6.91523438,15.337793 6.41689453,15.1040039 C5.56787109,14.7061523 5.25,14.287793 5.25,14.1175781 L5.25,13.6192383 C6.44765625,14.3657227 8.35283203,14.849707 10.5,14.849707 C12.647168,14.849707 14.5523438,14.3657227 15.75,13.6192383 L15.75,14.1175781 Z M15.75,11.7735352 C15.75,11.94375 15.4321289,12.3621094 14.5831055,12.7599609 C14.0847656,12.99375 13.4674805,13.1885742 12.7989258,13.3198242 C12.0729492,13.4633789 11.2998047,13.537207 10.5,13.537207 C9.70019531,13.537207 8.925,13.4633789 8.20107422,13.3198242 C7.53251953,13.1865234 6.91523438,12.99375 6.41689453,12.7599609 C5.56787109,12.3621094 5.25,11.94375 5.25,11.7735352 L5.25,11.2751953 C6.44765625,12.0216797 8.35283203,12.5056641 10.5,12.5056641 C12.647168,12.5056641 14.5523438,12.0216797 15.75,11.2751953 L15.75,11.7735352 Z M15.75,9.43154297 C15.75,9.60175781 15.4321289,10.0201172 14.5831055,10.4179688 C14.0847656,10.6517578 13.4674805,10.846582 12.7989258,10.977832 C12.0729492,11.1213867 11.2998047,11.1952148 10.5,11.1952148 C9.70019531,11.1952148 8.925,11.1213867 8.20107422,10.977832 C7.53251953,10.8445312 6.91523438,10.6517578 6.41689453,10.4179688 C5.56787109,10.0201172 5.25,9.60175781 5.25,9.43154297 L5.25,8.99267578 C6.44765625,9.73916016 8.35283203,10.2231445 10.5,10.2231445 C12.647168,10.2231445 14.5523438,9.73916016 15.75,8.99267578 L15.75,9.43154297 Z M14.5831055,8.13134766 C14.0847656,8.36513672 13.4674805,8.55996094 12.7989258,8.69121094 C12.0729492,8.83476562 11.2998047,8.90859375 10.5,8.90859375 C9.70019531,8.90859375 8.925,8.83476562 8.20107422,8.69121094 C7.53251953,8.55791016 6.91523438,8.36513672 6.41689453,8.13134766 C5.56787109,7.73349609 5.25,7.31513672 5.25,7.14492187 C5.25,6.97470703 5.56787109,6.55634766 6.41689453,6.15849609 C6.91523438,5.92470703 7.53251953,5.72988281 8.20107422,5.59863281 C8.92705078,5.45507812 9.70019531,5.38125 10.5,5.38125 C11.2998047,5.38125 12.075,5.45302734 12.7989258,5.59863281 C13.4674805,5.73193359 14.0847656,5.92470703 14.5831055,6.15849609 C15.4341797,6.55634766 15.75,6.97470703 15.75,7.14492187 C15.75,7.31513672 15.4341797,7.73349609 14.5831055,8.13134766 Z" id="形状"></path>
                        </g>
                    </g>
                    <g id="编组-67" transform="translate(0.000000, 300.000000)">
                        <g id="编组-19">
                            <text id="用户关联分析" font-family="PingFangSC-Medium, PingFang SC" font-size="22" font-weight="400" line-spacing="28" fill="#000000" fill-opacity="0.8">
                                <tspan x="68" y="23">用户关联分析</tspan>
                            </text>
                            <text id="深入挖掘跨平台用户行为路径，精准满足数据" font-family="PingFangSC-Regular, PingFang SC" font-size="16" font-weight="normal" line-spacing="24" fill="#000000" fill-opacity="0.65">
                                <tspan x="68" y="53">深入挖掘跨平台用户行为路径，精准满足数据分析，</tspan>
                                <tspan x="68" y="77">提升个性化体验</tspan>
                            </text>
                            <g id="编组-18" fill="#F6F7FA">
                                <rect id="矩形" x="0" y="0" width="48" height="48" rx="8"></rect>
                            </g>
                        </g>
                        <g id="HTSCIT_用户2" transform="translate(14.000000, 14.000000)" fill="#000000" fill-rule="nonzero">
                            <rect id="矩形" opacity="0" x="0" y="0" width="21" height="21"></rect>
                            <path d="M10.8935037,5.3887114 C12.1821086,5.3887114 13.2044728,6.41107561 13.2044728,7.69968051 C13.2044728,8.98828541 12.1821086,10.0106496 10.8935037,10.0106496 C9.60489883,10.0106496 8.58253461,8.98828541 8.58253461,7.69968051 C8.58253461,6.41107561 9.60489883,5.3887114 10.8935037,5.3887114 L10.8935037,5.3887114 Z M10.8935037,3.85516507 C8.7742279,3.85516507 7.04898829,5.59105431 7.04898829,7.69968051 C7.04898829,8.87113951 7.59211928,9.90415335 8.4227902,10.6070288 C6.69755059,11.5015974 5.51544196,13.3120341 5.51544196,15.3887114 L7.05963791,15.3887114 C7.05963791,13.2587859 8.7742279,11.544196 10.9041534,11.544196 C13.0340788,11.544196 14.7486688,13.2587859 14.7486688,15.3887114 L16.2928647,15.3887114 C16.2928647,13.3120341 15.1107561,11.5015974 13.3855165,10.6070288 C14.2161874,9.90415335 14.7593184,8.86048988 14.7593184,7.69968051 C14.7380192,5.58040469 13.0127796,3.85516507 10.8935037,3.85516507 L10.8935037,3.85516507 Z M18.0181044,2.87539936 L16.9318424,3.96166134 C18.4973376,5.49520767 19.4664537,7.63578275 19.4664537,10.0106496 C19.4664537,14.6964856 15.685836,18.4771033 11,18.4771033 C6.314164,18.4771033 2.53354633,14.6964856 2.53354633,10.0106496 C2.53354633,5.35676251 6.26091587,1.60809372 10.8935037,1.54419595 L10.8935037,0 C5.43024494,0.0532481363 1,4.51544196 1,10 C1,15.5165069 5.48349308,20 11,20 C16.5165069,20 21,15.5165069 21,10 C21,7.20979766 19.8604899,4.685836 18.0181044,2.87539936 Z M15.5367412,5.39936102 L14.7380192,0.766773163 L19.3599574,1.57614483 L15.5367412,5.39936102 Z" id="形状"></path>
                        </g>
                    </g>
                    <g id="编组-19" transform="translate(0.000000, 414.000000)">
                        <text id="隐私计算" font-family="PingFangSC-Medium, PingFang SC" font-size="22" font-weight="400" line-spacing="28" fill="#000000" fill-opacity="0.8">
                            <tspan x="68" y="23">隐私计算</tspan>
                        </text>
                        <text id="融合多种隐私保护计算技术，多方的数据协作" font-family="PingFangSC-Regular, PingFang SC" font-size="16" font-weight="normal" line-spacing="24" fill="#000000" fill-opacity="0.65">
                            <tspan x="68" y="53">融合多种隐私保护计算技术，多方的数据协作和计</tspan>
                            <tspan x="68" y="77">算，实现数据合规高效的流转</tspan>
                        </text>
                        <g id="编组-18">
                            <rect id="矩形" fill="#F6F7FA" x="0" y="0" width="48" height="48" rx="8"></rect>
                            <g id="配置测试资源" transform="translate(13.500000, 15.000000)" fill="#000000" fill-rule="nonzero">
                                <rect id="矩形" opacity="0" x="0" y="0" width="21" height="21"></rect>
                                <path d="M4.2,19.425 L16.8,19.425 L16.8,21 L4.2,21 L4.2,19.425 Z M19.95,0 L1.05,0 C0.525,0 0,0.525 0,1.05 L0,16.8 C0,17.325 0.525,17.85 1.05,17.85 L19.95,17.85 C20.475,17.85 21,17.325 21,16.8 L21,1.05 C21,0.525 20.475,0 19.95,0 Z M19.425,15.75 C19.425,16.1000068 19.2500068,16.275 18.9,16.275 L2.1,16.275 C1.74999316,16.275 1.575,16.1000068 1.575,15.75 L1.575,2.1 C1.575,1.92500684 1.575,1.74999316 1.74999316,1.74999316 C1.92500684,1.575 1.92500684,1.575 2.1,1.575 L18.9,1.575 C19.075,1.575 19.2500068,1.575 19.2500068,1.74999316 C19.425,1.92500684 19.425,1.92500684 19.425,2.1 L19.425,15.75 L19.425,15.75 Z M12.7749932,6.3 L15.3999932,8.925 L12.7749932,11.55 L14.0000068,12.6 L16.6250068,9.975 L17.6750068,8.925 L16.4499932,7.875 L14.0000068,5.25 L12.7749932,6.3 L12.7749932,6.3 Z M8.22500684,6.3 L5.60000684,8.925 L8.22500684,11.55 L6.99999316,12.6 L4.55000684,9.975 L3.32499316,8.925 L4.37499316,7.875 L6.99999316,5.25 L8.22500684,6.3 L8.22500684,6.3 Z M9.80000684,12.6 L9.80000684,5.25 L11.3750068,5.25 L11.3750068,12.6 L9.80000684,12.6 Z" id="形状"></path>
                            </g>
                        </g>
                    </g>
                </g>
            </g>
        </g>
    </g>
</svg>