<?xml version="1.0" encoding="UTF-8"?>
<svg width="80px" height="81px" viewBox="0 0 80 81" version="1.1" xmlns="http://www.w3.org/2000/svg" xmlns:xlink="http://www.w3.org/1999/xlink">
    <title>编组 10</title>
    <defs>
        <linearGradient x1="50%" y1="0%" x2="50%" y2="100%" id="linearGradient-1">
            <stop stop-color="#C4DAFF" stop-opacity="0.574326308" offset="0%"></stop>
            <stop stop-color="#C4DAFF" stop-opacity="0" offset="100%"></stop>
        </linearGradient>
    </defs>
    <g id="页面-1" stroke="none" stroke-width="1" fill="none" fill-rule="evenodd">
        <g id="icon" transform="translate(-273.000000, -245.000000)">
            <g id="编组-10" transform="translate(273.000000, 245.151149)">
                <rect id="矩形" x="0" y="0" width="80" height="80"></rect>
                <g id="编组-98" transform="translate(8.500326, 10.802352)" fill-rule="nonzero">
                    <g id="编组-3">
                        <path d="M40.5165587,2.67479737 C36.3934264,0.893653498 32.0052795,0 27.6109696,0 C23.2166596,0 18.8161865,0.893653498 14.6992173,2.68096049 L0,9.04130814 L0,27.1732295 C-0.0121681993,31.3025249 0.696591471,35.3948416 2.08329517,39.277612 C3.42685698,43.0802617 5.35591591,46.6425494 7.79651443,49.8412127 C10.2617655,53.1015071 13.2385561,55.9365458 16.6036237,58.2415555 C19.950202,60.5280759 23.6788942,62.179794 27.6048064,63.1104263 C31.5245556,62.1736309 35.2409215,60.534239 38.5751735,58.2600449 C41.9402412,55.9611983 44.9170318,53.1199965 47.3822828,49.859702 C49.8413707,46.6548757 51.7827559,43.0802617 53.138644,39.2652857 C54.5253477,35.3825154 55.2279442,31.2901987 55.2218213,27.1609032 L55.2218213,9.04130814 L40.5165587,2.67479737 Z" id="路径" stroke-opacity="0.05" stroke="#4086FD" fill="url(#linearGradient-1)"></path>
                        <path d="M42.944831,23.9499137 L36.1777169,30.5444602 C36.0606175,30.6553965 36.0113124,30.821801 36.035965,30.9820423 L37.632215,40.294528 C37.7739669,41.1018978 36.9234553,41.7120474 36.2023694,41.3360966 L27.8390053,36.9417867 C27.6972534,36.8678291 27.5246858,36.8678291 27.3829338,36.9417867 L19.0195697,41.3360966 C18.2984838,41.7182105 17.4479722,41.1018978 17.5897241,40.294528 L19.1859742,30.9820423 C19.2106267,30.821801 19.1613217,30.6615597 19.0442222,30.5444602 L12.2771082,23.9499137 C11.6916111,23.3767429 12.0120937,22.3844793 12.8256265,22.2673799 L22.1750911,20.9114918 C22.3353324,20.8868393 22.4770843,20.7882293 22.5448787,20.6403142 L26.7234792,12.1660138 C27.0871037,11.4326016 28.1286723,11.4326016 28.4922968,12.1660138 L32.6708973,20.6403142 C32.7448548,20.7882293 32.8804436,20.8868393 33.040685,20.9114918 L42.3901495,22.2673799 C43.2036823,22.3844793 43.5303281,23.3767429 42.944831,23.9499137 Z" id="路径" fill="#FFFFFF"></path>
                    </g>
                </g>
            </g>
        </g>
    </g>
</svg>