<?xml version="1.0" encoding="UTF-8"?>
<svg width="80px" height="80px" viewBox="0 0 80 80" version="1.1" xmlns="http://www.w3.org/2000/svg" xmlns:xlink="http://www.w3.org/1999/xlink">
    <title>编组 11</title>
    <defs>
        <linearGradient x1="50%" y1="0%" x2="50%" y2="100%" id="linearGradient-1">
            <stop stop-color="#C4DAFF" offset="0%"></stop>
            <stop stop-color="#C4DAFF" stop-opacity="0.0436004425" offset="100%"></stop>
        </linearGradient>
    </defs>
    <g id="页面-1" stroke="none" stroke-width="1" fill="none" fill-rule="evenodd">
        <g id="icon" transform="translate(-106.000000, -245.000000)">
            <g id="编组" transform="translate(106.500000, 245.151149)">
                <rect id="矩形" x="0" y="0" width="80" height="80"></rect>
                <g id="编组-61" transform="translate(6.240824, 10.394158)" fill-rule="nonzero">
                    <path d="M26.1337528,5.72088265 L26.1337528,5.36548226 C26.144322,2.39912083 28.5520063,0 31.5183865,0 C34.4847668,0 36.892451,2.39912083 36.9030203,5.36548226 L36.9030203,5.72088265 C47.615618,7.62701546 55.7491531,16.9882166 55.7491531,28.2500819 L55.7491531,47.6132166 L62.3183524,54.6885487 C63.046251,55.4733967 63.2400611,56.6148988 62.8119963,57.5960122 C62.3839315,58.5771256 61.4153167,59.2116834 60.3448856,59.2116834 L2.69188752,59.2116834 C1.62144393,59.2116834 0.652804336,58.5771629 0.224722134,57.5960435 C-0.203360067,56.6149242 -0.00955474422,55.4734058 0.718352361,54.6885487 L7.2876883,47.6132166 L7.2876883,28.2500819 C7.28912562,17.1689054 15.2270063,7.67966989 26.1336844,5.72088265 L26.1337528,5.72088265 Z" id="路径" stroke-opacity="0.061477341" stroke="#4086FD" fill="url(#linearGradient-1)"></path>
                    <path d="M20.8185695,34.0832315 C20.407735,27.6106509 25.7434152,22.2775546 32.2159958,22.6858052 C37.551676,23.0217075 41.8822329,27.3522644 42.2181353,32.6905285 C42.6289697,39.1605252 37.2932895,44.4962054 30.820709,44.0879548 C25.4850288,43.7494685 21.1544719,39.4189116 20.8185695,34.0832315 Z M36.2080664,31.956711 L26.8260544,31.956711 C26.0844853,31.956711 25.4850288,32.5587514 25.4850288,33.2977367 C25.4850288,34.0393058 26.0870692,34.6387623 26.8260544,34.6387623 L36.2106503,34.6387623 C36.9496355,34.6387623 37.5490921,34.0393058 37.5490921,33.2977367 C37.5490921,32.5561675 36.9470517,31.956711 36.2080664,31.956711 Z" id="形状结合" fill="#FFFFFF"></path>
                </g>
            </g>
        </g>
    </g>
</svg>