<?xml version="1.0" encoding="UTF-8"?>
<svg width="121px" height="119px" viewBox="0 0 121 119" version="1.1" xmlns="http://www.w3.org/2000/svg" xmlns:xlink="http://www.w3.org/1999/xlink">
    <title>形状备份 4</title>
    <defs>
        <rect id="path-1" x="0" y="0" width="120.92562" height="118"></rect>
        <linearGradient x1="86.3528973%" y1="13.1450255%" x2="11.7907699%" y2="95.4108185%" id="linearGradient-3">
            <stop stop-color="#FFFFFF" offset="0%"></stop>
            <stop stop-color="#41B3FF" stop-opacity="0" offset="100%"></stop>
        </linearGradient>
    </defs>
    <g id="页面-1" stroke="none" stroke-width="1" fill="none" fill-rule="evenodd" opacity="0.146722703">
        <g id="形状备份-4" transform="translate(0.000000, 0.537931)">
            <mask id="mask-2" fill="white">
                <use xlink:href="#path-1"></use>
            </mask>
            <g id="蒙版"></g>
            <g id="yunyingfenxi" mask="url(#mask-2)" fill="url(#linearGradient-3)" fill-rule="nonzero">
                <g transform="translate(8.565565, 4.593294)" id="形状">
                    <path d="M97.3328452,2.20895089e-15 L11.5002127,2.20895089e-15 C5.17327412,2.20895089e-15 -2.20895089e-15,5.17327412 -2.20895089e-15,11.5002127 L-2.20895089e-15,89.3179135 C-2.20895089e-15,95.644852 5.17327412,100.818126 11.5002127,100.818126 L97.3328452,100.818126 C103.659784,100.818126 108.833058,95.644852 108.833058,89.3179135 L108.833058,11.5002127 C108.833058,5.17327412 103.659784,2.20895089e-15 97.3328452,2.20895089e-15 Z M87.9092285,39.7224874 L77.9391392,63.6579881 C79.6149885,65.2852621 80.6593584,67.5683033 80.6593584,70.0942211 C80.6593584,75.0610501 76.6397487,79.0806598 71.6729198,79.0806598 C66.7060909,79.0806598 62.6864812,75.0610501 62.6864812,70.0942211 C62.6864812,68.9162691 62.9172141,67.7868923 63.3301045,66.7546663 L45.0050561,48.4296178 C44.2885697,48.6117753 43.5356519,48.708926 42.7584464,48.708926 C41.5683505,48.708926 40.4389737,48.4781931 39.3946038,48.0531589 L29.8616926,58.9097482 C30.0317063,59.6019469 30.128857,60.330577 30.128857,61.0834949 C30.128857,66.0503238 26.1092473,70.0699335 21.1424184,70.0699335 C16.1755895,70.0699335 12.1559798,66.0503238 12.1559798,61.0834949 C12.1559798,56.116666 16.1755895,52.0970563 21.1424184,52.0970563 C22.8911308,52.0970563 24.5305486,52.5949535 25.9028021,53.4693097 L34.6220763,43.5356519 C34.0756037,42.3698437 33.7720078,41.082597 33.7720078,39.7103436 C33.7720078,34.7435147 37.7916175,30.723905 42.7584464,30.723905 C47.7252753,30.723905 51.744885,34.7435147 51.744885,39.7103436 C51.744885,41.4711998 51.2348439,43.1106176 50.3604877,44.4950149 L67.81118,61.9457072 C68.9769882,61.3870908 70.2763787,61.0834949 71.660776,61.0834949 L71.879365,61.0834949 L81.728016,37.4394463 C79.8700091,35.7878846 78.692057,33.3955489 78.692057,30.7117611 C78.692057,25.7449322 82.7116667,21.7253225 87.6784956,21.7253225 C92.6453245,21.7253225 96.6649624,25.7449322 96.6649624,30.7117611 C96.6770781,35.6300147 92.7667629,39.6010491 87.9092285,39.7224874 Z"></path>
                </g>
            </g>
        </g>
    </g>
</svg>