<?xml version="1.0" encoding="UTF-8"?>
<svg width="121px" height="119px" viewBox="0 0 121 119" version="1.1" xmlns="http://www.w3.org/2000/svg" xmlns:xlink="http://www.w3.org/1999/xlink">
    <title>形状备份 4</title>
    <defs>
        <rect id="path-1" x="0" y="0" width="120.92562" height="118"></rect>
        <linearGradient x1="78.2138478%" y1="13.9072138%" x2="0%" y2="91.4883918%" id="linearGradient-3">
            <stop stop-color="#FFFFFF" offset="0%"></stop>
            <stop stop-color="#3A99FF" stop-opacity="0" offset="100%"></stop>
        </linearGradient>
        <linearGradient x1="78.2130439%" y1="-13.9098902%" x2="0.00142471037%" y2="123.463948%" id="linearGradient-4">
            <stop stop-color="#FFFFFF" offset="0%"></stop>
            <stop stop-color="#3A99FF" stop-opacity="0" offset="100%"></stop>
        </linearGradient>
    </defs>
    <g id="页面-1" stroke="none" stroke-width="1" fill="none" fill-rule="evenodd" opacity="0.146722703">
        <g id="形状备份-4" transform="translate(0.000000, 0.537931)">
            <mask id="mask-2" fill="white">
                <use xlink:href="#path-1"></use>
            </mask>
            <g id="蒙版"></g>
            <g id="zengchang" mask="url(#mask-2)" fill-rule="nonzero">
                <g transform="translate(5.542424, 1.307580)">
                    <path d="M62.3572664,67.2392173 L62.3572664,85.1404393 C62.3572664,85.4554945 62.4874841,85.7702938 62.7466403,86.0115419 C63.0054128,86.2526621 63.3479697,86.3735419 63.6886079,86.3735419 L73.4759123,86.3735419 C73.8182134,86.3735419 74.1587237,86.2526621 74.419287,86.0115419 C74.6781873,85.7701659 74.808405,85.4554945 74.808405,85.1404393 L74.808405,61.285276 L64.8555784,69.2079603 L62.3572664,67.2392173 L62.3572664,67.2392173 Z M20.5238761,85.1404393 C20.5238761,85.4554945 20.6546054,85.7723405 20.9151687,86.0115419 C21.174197,86.2526621 21.5144515,86.3735419 21.8562409,86.3735419 L31.6422661,86.3735419 C31.9846952,86.3735419 32.3253334,86.2526621 32.5841058,86.0115419 C32.844925,85.7701659 32.974631,85.4554945 32.974631,85.1404393 L32.974631,66.8790081 L20.5236203,76.3782474 L20.5236203,85.1405672 L20.5237482,85.1405672 L20.5238761,85.1404393 Z M41.436478,60.4185225 L41.436478,85.1404393 C41.436478,85.4554945 41.5666956,85.7702938 41.8275148,86.0115419 C42.0884618,86.2526621 42.4288442,86.3735419 42.7689707,86.3735419 L52.5588334,86.3735419 C52.9012624,86.3735419 53.2416448,86.2526621 53.5001614,86.0115419 C53.7611084,85.7701659 53.891582,85.4554945 53.891582,85.1404393 L53.891582,60.5739395 L47.6679953,55.6722286 L41.436478,60.4186504 L41.436478,60.4185225 Z M83.2737057,85.1404393 C83.2737057,85.4554945 83.4021326,85.7723405 83.661033,86.0115419 C83.9215963,86.2526621 84.2641532,86.3735419 84.6049193,86.3735419 L94.3965728,86.3735419 C94.7388739,86.3735419 95.0788725,86.2526621 95.3380288,86.0115419 C95.5982083,85.7701659 95.7288097,85.4554945 95.7288097,85.1404393 L95.7288097,44.6239361 L83.2737057,54.5438885 L83.2737057,85.1405672 L83.2737057,85.1404393 Z M81.1261373,23.6458326 C80.9508934,23.6458326 80.7833245,23.7399872 80.7142503,23.9001371 C80.6430015,24.0581124 80.6896906,24.2334841 80.8122333,24.3487357 L90.1719172,32.8586788 L64.8555784,53.0205463 L47.6682512,39.4799538 L20.4530111,60.2455811 L20.4530111,69.2161469 L47.6682512,48.4521825 L64.8557063,61.9899608 L95.4356281,37.6404052 L103.167463,44.6743347 C103.291924,44.7858767 103.481111,44.8257863 103.652645,44.7590146 C103.821493,44.6931382 103.92357,44.5427099 103.92357,44.382688 L103.92357,24.0546586 C103.92357,23.9439894 103.875575,23.8387378 103.793224,23.7648028 C103.707002,23.6875294 103.5951,23.6451218 103.47932,23.6458326 L81.1261373,23.6458326 L81.1261373,23.6458326 Z" id="形状" fill="url(#linearGradient-3)"></path>
                    <path d="M57.7799485,115.38484 C56.2516176,115.38484 54.7179142,115.324464 53.1792222,115.203839 C45.4169435,114.594707 38.004257,112.482571 31.1471064,108.926017 C24.5257034,105.491877 18.7009564,100.862754 13.8346781,95.1679685 C8.96839975,89.4731833 5.30478022,82.9974758 2.94538417,75.9215901 C0.501819911,68.5933277 -0.428123666,60.9418236 0.181008564,53.1795449 C0.79026871,45.4171383 2.90240466,38.004324 6.45883125,31.1470454 C9.89297089,24.5255145 14.5219665,18.7008954 20.2167517,13.8346171 C25.9115368,8.96833877 32.3871164,5.30471924 39.4632579,2.94532319 C46.7915203,0.501886842 54.4430244,-0.428056735 62.2051752,0.18094758 C70.718572,0.849048723 78.7735207,3.3096257 86.1457859,7.49475555 C87.9277727,8.50656486 88.5525106,10.7710478 87.5408292,12.5532904 C86.5291478,14.3352772 84.2646649,14.9600151 82.4822943,13.9483337 C76.0629974,10.3044131 69.0453132,8.16144962 61.6244402,7.57917959 C33.9919406,5.40973762 9.74740338,26.1275246 7.57911266,53.7600241 C5.41094984,81.3926516 26.1273298,105.637317 53.7598293,107.805735 C55.0801469,107.909404 56.4040174,107.961334 57.7283987,107.961408 C83.6785574,107.962687 105.741629,87.9264326 107.805541,61.624635 C107.912457,60.2624222 107.964689,58.8964689 107.962109,57.5300691 C107.957888,55.4808675 109.615541,53.8161789 111.664742,53.8118298 L111.672673,53.8118298 C113.718293,53.8118298 115.378761,55.467948 115.383196,57.5144635 C115.385786,59.0798225 115.325917,60.6446635 115.203645,62.2052421 C114.59464,69.9676488 112.482249,77.3804631 108.925822,84.2376138 C105.491682,90.8592725 100.862687,96.6840195 95.1679015,101.550298 C89.4731164,106.416576 82.9974089,110.080196 75.9212674,112.439592 C70.045738,114.398485 63.961579,115.38484 57.7799485,115.38484 L57.7799485,115.38484 Z" id="路径" fill="url(#linearGradient-4)"></path>
                </g>
            </g>
        </g>
    </g>
</svg>