<?xml version="1.0" encoding="UTF-8"?>
<svg width="120px" height="119px" viewBox="0 0 120 119" version="1.1" xmlns="http://www.w3.org/2000/svg" xmlns:xlink="http://www.w3.org/1999/xlink">
    <title>形状备份 4</title>
    <defs>
        <rect id="path-1" x="0" y="0" width="120" height="118"></rect>
        <linearGradient x1="87.7794569%" y1="5.16609929%" x2="31.5150074%" y2="95.2517077%" id="linearGradient-3">
            <stop stop-color="#FFFFFF" offset="0%"></stop>
            <stop stop-color="#00A3FF" stop-opacity="0" offset="100%"></stop>
        </linearGradient>
    </defs>
    <g id="页面-1" stroke="none" stroke-width="1" fill="none" fill-rule="evenodd" opacity="0.146722703">
        <g id="形状备份-4" transform="translate(0.000000, 0.537931)">
            <mask id="mask-2" fill="white">
                <use xlink:href="#path-1"></use>
            </mask>
            <g id="蒙版"></g>
            <path d="M97.4181074,101.889471 C116.774517,87.4697295 124.769622,62.1647672 117.249531,39.1218874 C109.729441,16.0790076 88.3903281,0.49558338 64.3190216,0.468021356 L57.7602016,0.468021356 C27.322986,0.437100763 2.48328748,25.005761 1.94624349,55.6729948 C1.4091995,86.3402286 25.3732079,111.776774 55.7925556,112.828047 L102.360178,112.828047 C103.368047,112.733852 104.304206,112.262162 104.983706,111.506165 C105.935315,110.013771 105.65604,108.043769 104.327824,106.879577 L97.4181074,101.889471 Z M72.4945909,80.6765647 L39.7004904,80.6765647 C35.5474099,80.6246327 32.1967609,77.2378622 32.1578472,73.0526085 C32.1211772,71.023535 32.9033087,69.0663505 34.3251687,67.6291623 C35.7470286,66.1919741 37.6868462,65.3978657 39.7004904,65.4286522 L72.4945909,65.4286522 C76.6729558,65.4286522 80.0601899,68.8420137 80.0601899,73.0526085 C80.0601899,77.2632033 76.6729558,80.6765647 72.4945909,80.6765647 Z M82.3328211,50.8449856 L39.7004904,50.8449856 C35.5474099,50.7930536 32.1967609,47.4062831 32.1578472,43.2210294 C32.1211772,41.1919559 32.9033087,39.2347714 34.3251687,37.7975832 C35.7470286,36.3603949 37.6868462,35.5662866 39.7004904,35.5970731 L82.3328211,35.5970731 C86.511186,35.5970731 89.8984201,39.0104346 89.8984201,43.2210294 C89.8984201,47.4316242 86.511186,50.8449856 82.3328211,50.8449856 Z" id="形状" fill="url(#linearGradient-3)" fill-rule="nonzero" mask="url(#mask-2)"></path>
        </g>
    </g>
</svg>