<?xml version="1.0" encoding="UTF-8"?>
<svg width="120px" height="119px" viewBox="0 0 120 119" version="1.1" xmlns="http://www.w3.org/2000/svg" xmlns:xlink="http://www.w3.org/1999/xlink">
    <title>形状备份</title>
    <defs>
        <rect id="path-1" x="0" y="0" width="120" height="118"></rect>
        <linearGradient x1="69.1314283%" y1="17.3411294%" x2="15.673801%" y2="83.7777646%" id="linearGradient-3">
            <stop stop-color="#FFFFFF" offset="0%"></stop>
            <stop stop-color="#4290FF" stop-opacity="0" offset="100%"></stop>
            <stop stop-color="#4290FF" stop-opacity="0" offset="100%"></stop>
        </linearGradient>
    </defs>
    <g id="页面-1" stroke="none" stroke-width="1" fill="none" fill-rule="evenodd" opacity="0.146722703">
        <g id="形状备份" transform="translate(0.000000, 0.537931)">
            <mask id="mask-2" fill="white">
                <use xlink:href="#path-1"></use>
            </mask>
            <g id="蒙版"></g>
            <g id="gongyiliucheng_1" mask="url(#mask-2)" fill="url(#linearGradient-3)" fill-rule="nonzero">
                <g transform="translate(6.000000, -4.746006)" id="形状">
                    <path d="M29.3684482,108.978567 C34.7606258,106.024004 38.9650352,101.271347 41.2609649,95.5352876 C52.2969928,101.727259 65.7289866,101.713764 76.7527403,95.499629 C79.0392386,101.236105 83.2341272,105.992807 88.6187177,108.954794 C70.6816787,121.006413 47.3150047,121.015788 29.3684482,108.978567 L29.3684482,108.978567 Z M83.428827,85.3131655 C83.6635859,75.7635738 91.4949328,68.1907008 100.97305,68.3479902 C110.451167,68.5052797 118.030823,76.3338985 117.953422,85.8861015 C117.876021,95.4383045 110.170513,103.14115 100.691111,103.142448 C91.038911,103.021746 83.3108416,95.0398402 83.428827,85.3131655 L83.428827,85.3131655 Z M0.00133363373,85.3131655 C0.236102021,75.7631877 8.06804787,68.1901669 17.5465391,68.3480064 C27.0250304,68.505846 34.6043964,76.335502 34.5259127,85.8880822 C34.447429,95.4406625 26.7404544,103.142448 17.2606691,103.142448 C7.60962613,103.02012 -0.116658191,95.0386942 0.00133363373,85.3131655 L0.00133363373,85.3131655 Z M5.8488071,61.2822639 C6.60336729,48.221522 12.1199056,35.9022058 21.3388616,26.6904838 C24.4273848,23.5852729 27.8792384,20.870143 31.6183838,18.6049041 C31.9796855,24.7651828 34.4183171,30.616285 38.5303746,35.1891086 C30.3845571,40.7714197 24.9039715,49.5109262 23.3971251,59.3210428 C21.3883863,58.8210119 19.3268381,58.5685648 17.2577203,58.5692414 C13.2968163,58.5592467 9.38928511,59.48971 5.8517559,61.2852354 L5.8488071,61.2822639 Z M112.094127,61.2436338 C106.661032,58.5331722 100.449054,57.8559999 94.5664504,59.332929 C92.9896799,48.7324176 86.7410288,39.4187592 77.5666095,33.9945467 C81.4021731,29.1787554 83.4957582,23.1901711 83.502547,17.0151264 C94.1240049,22.5884071 102.587771,31.5850755 107.544126,42.5704316 C110.18072,48.4615075 111.724805,54.7892216 112.100024,61.2406622 L112.094127,61.2436338 Z M40.2790139,16.9675816 C40.5137729,7.41798997 48.3451197,-0.154883024 57.8232367,0.00240642816 C67.3013537,0.15969588 74.8810104,7.98831464 74.8036092,17.5405177 C74.7262079,27.0927207 67.0207002,34.7955661 57.5412982,34.7968644 C52.9058525,34.7396858 48.4828438,32.8290393 45.2454622,29.4853224 C42.0080807,26.1416055 40.2215699,21.6387741 40.2790139,16.9675816 L40.2790139,16.9675816 Z"></path>
                </g>
            </g>
        </g>
    </g>
</svg>