<?xml version="1.0" encoding="UTF-8"?>
<svg width="36px" height="36px" viewBox="0 0 36 36" version="1.1" xmlns="http://www.w3.org/2000/svg" xmlns:xlink="http://www.w3.org/1999/xlink">
    <title>编组 90</title>
    <g id="页面-1" stroke="none" stroke-width="1" fill="none" fill-rule="evenodd">
        <g id="图标" transform="translate(-119.000000, -99.000000)">
            <g id="编组-90" transform="translate(119.000000, 99.000000)">
                <g id="编组-89" transform="translate(2.000000, 2.000000)" fill-rule="nonzero">
                    <g id="编组-86">
                        <path d="M15.7680471,6.02898551 C18.5856061,6.02898551 20.8695652,8.3129958 20.8695652,11.1300965 C20.8695652,13.9477571 18.5856291,16.2318841 15.7680471,16.2318841 C12.9505799,16.2318841 10.6666667,13.9477805 10.6666667,11.1300965 C10.6666667,8.31234263 12.9513371,6.02898551 15.7680471,6.02898551 L15.7680471,6.02898551 L15.7680471,6.02898551 Z" id="路径" fill="#2B58F9"></path>
                        <path d="M15.7680471,6.02898551 C18.5856061,6.02898551 20.8695652,8.3129958 20.8695652,11.1300965 C20.8695652,13.9477571 18.5856291,16.2318841 15.7680471,16.2318841 C12.9505799,16.2318841 10.6666667,13.9477805 10.6666667,11.1300965 C10.6666667,8.31234263 12.9513371,6.02898551 15.7680471,6.02898551 L15.7680471,6.02898551 L15.7680471,6.02898551 Z" id="路径" fill="#C8CDD5"></path>
                        <path d="M13.9071396,17.6231884 L18.0928604,17.6231884 C21.6756519,17.6231884 24.5797101,20.5189724 24.5797101,24.0924799 L24.5797101,24.5092552 C24.5797101,25.9174919 21.675042,25.9710145 18.0928604,25.9710145 L13.9071396,25.9710145 C10.3242352,25.9710145 7.42028986,25.9689533 7.42028986,24.5092552 L7.42028986,24.09248 C7.42028986,20.5189724 10.3242578,17.6231884 13.9071396,17.6231884 L13.9071396,17.6231884 L13.9071396,17.6231884 Z" id="路径" fill="#A8AEB9"></path>
                        <g id="编组-85" fill="#A8AEB9">
                            <path d="M1.1373494,20.626506 C1.72317678,20.626506 2.21315175,21.0715482 2.26939118,21.6546699 L2.2746988,21.7638554 L2.2746988,29.7253012 L10.2361446,29.7253012 C10.821972,29.7253293 11.3119469,30.1703434 11.3681864,30.7534651 L11.373494,30.8626506 C11.373494,31.448478 10.9284518,31.938453 10.3453301,31.9946924 L10.2361446,32 L1.1373494,32 C0.551522016,32 0.0615470467,31.5549578 0.00530761867,30.9718361 L0,30.8626506 L0,21.7638554 C0,21.1357147 0.50920867,20.626506 1.1373494,20.626506 Z" id="路径"></path>
                            <path d="M29.898741,20.626506 C30.4845963,20.626506 30.9745946,21.0715482 31.0308367,21.6546699 L31.0361446,21.7638554 L31.0361446,30.8626506 C31.0361446,31.448478 30.5910812,31.938453 30.0079317,31.9946924 L29.898741,32 L20.7995124,32 C20.192809,31.9996997 19.6931422,31.5232816 19.663986,30.917308 C19.6348299,30.3113344 20.0864494,29.7891499 20.6903217,29.7306088 L20.7995124,29.7253012 L28.7613374,29.7253012 L28.7613374,21.7638554 C28.7613655,21.178028 29.2064008,20.6880531 29.7895503,20.6318136 L29.898741,20.626506 Z" id="路径"></path>
                            <path d="M10.2366322,0 C10.8433356,0.000300322403 11.3430024,0.47671841 11.3721586,1.08269203 C11.4013147,1.68866565 10.9496952,2.2108501 10.3458229,2.26939118 L10.2366322,2.2746988 L2.27480715,2.2746988 L2.27480715,10.2361446 C2.27477904,10.821972 1.82974374,11.3119469 1.24659432,11.3681864 L1.13740358,11.373494 C0.551548288,11.373494 0.0615499785,10.9284518 0.00530787151,10.3453301 L0,10.2361446 L0,1.1373494 C0,0.551522016 0.445063414,0.0615470467 1.02821283,0.00530761867 L1.13740358,0 L10.2366322,0 Z" id="路径"></path>
                            <path d="M30.8626506,0 C31.448478,0 31.938453,0.445063414 31.9946924,1.02821283 L32,1.13740358 L32,10.2366322 C31.9996997,10.8433356 31.5232816,11.3430024 30.917308,11.3721586 C30.3113344,11.4013147 29.7891499,10.9496952 29.7306088,10.3458229 L29.7253012,10.2366322 L29.7253012,2.27480715 L21.7638554,2.27480715 C21.178028,2.27477904 20.6880531,1.82974374 20.6318136,1.24659432 L20.626506,1.13740358 C20.626506,0.551548288 21.0715482,0.0615499785 21.6546699,0.00530787151 L21.7638554,0 L30.8626506,0 Z" id="路径"></path>
                        </g>
                    </g>
                </g>
                <rect id="矩形" x="0" y="0" width="36" height="36"></rect>
            </g>
        </g>
    </g>
</svg>