<?xml version="1.0" encoding="UTF-8"?>
<svg width="36px" height="37px" viewBox="0 0 36 37" version="1.1" xmlns="http://www.w3.org/2000/svg" xmlns:xlink="http://www.w3.org/1999/xlink">
    <title>编组 16</title>
    <g id="页面-1" stroke="none" stroke-width="1" fill="none" fill-rule="evenodd">
        <g id="图标" transform="translate(-60.000000, -89.000000)" fill-rule="nonzero">
            <g id="编组-16" transform="translate(60.000000, 89.677774)">
                <rect id="矩形" fill="#000000" opacity="0" x="0" y="0" width="36" height="36"></rect>
                <path d="M6.70746094,27.3642187 L6.70746094,30.8559375 C6.70746094,31.2075 6.88324219,31.4708203 7.14585937,31.6466016 L7.149375,31.6487109 C7.32515625,31.7358984 7.41199219,31.7358984 7.58742187,31.7358984 C7.76285156,31.7358984 7.93898437,31.6483594 8.11476562,31.5601172 L8.11828125,31.5580078 L14.0016797,27.3424219 L6.6796875,27.3374792 C6.68695467,27.3372129 6.69402484,27.3399007 6.69926606,27.3449429 C6.70450729,27.349985 6.70746661,27.3569459 6.70746094,27.3642187 L6.70746094,27.3642187 Z" id="路径" fill="#2B58F9"></path>
                <path d="M26.5960547,8.86429688 L4.38855469,8.86429688 C3.83051595,8.86429688 3.29534843,9.08604899 2.90085438,9.48074086 C2.50636032,9.87543272 2.28487644,10.4107113 2.28515599,10.96875 L2.28515599,25.2330469 C2.28515599,25.7908705 2.50677487,26.325842 2.90124871,26.7202499 C3.29572254,27.1146578 3.83073107,27.3360938 4.38855469,27.3360938 L26.5960547,27.3360938 C27.7575354,27.3360938 28.6991018,26.3945276 28.6991018,25.2330469 L28.6991018,10.96875 C28.6993814,10.4107722 28.4779457,9.87554692 28.0835277,9.48086517 C27.6891097,9.08618342 27.1540325,8.86429688 26.5960547,8.86429688 Z" id="路径" fill="#2B58F9"></path>
                <path d="M18.140625,21.2765625 C18.0980859,21.7272656 17.7584766,22.0211719 17.2652344,22.0211719 L9.38285156,22.0211719 C8.85164063,22.0211719 8.42378906,21.58875 8.47125,21.0828516 C8.51378906,20.6325 8.85339844,20.3385937 9.34664063,20.3385937 L17.2265625,20.3385937 C17.7588281,20.3385937 18.1863281,20.7706641 18.140625,21.2765625 L18.140625,21.2765625 Z" id="路径" fill="#FFFFFF"></path>
                <path d="M22.5372656,15.1189453 C22.4947266,15.5692969 22.1551172,15.8635547 21.661875,15.8635547 L9.38285156,15.8635547 C8.85164063,15.8635547 8.42378906,15.4311328 8.47125,14.9252344 C8.51378906,14.4748828 8.85339844,14.1809766 9.34664063,14.1809766 L21.6260156,14.1809766 C22.156875,14.1809766 22.5847266,14.6130469 22.5372656,15.1189453 L22.5372656,15.1189453 Z" id="路径" fill="#FFFFFF"></path>
                <polygon id="路径" fill="#000000" points="28.1214844 9.04394531 27.6714844 9.04394531 27.725651 9.04394531"></polygon>
                <path d="M31.6114453,4.26410156 L8.88292969,4.26410156 C7.7213921,4.2642957 6.77988281,5.2059624 6.77988281,6.3675 L6.77988281,7.1409375 L27.0734766,7.1409375 C27.4289063,7.1409375 27.7660547,7.1409375 28.1211328,7.21476562 C29.475,7.49601562 30.40875,8.77183594 30.4122656,10.125 C30.4150781,11.1842578 30.4122656,12.2438672 30.4122656,13.3034766 L30.4122656,23.1092578 L31.6114453,23.1092578 C32.1692689,23.1092578 32.7042775,22.8878219 33.0987513,22.493414 C33.4932251,22.0990061 33.7148438,21.5640346 33.7148438,21.0062109 L33.7148438,6.3675 C33.7148438,5.20582512 32.7731202,4.26410156 31.6114453,4.26410156 L31.6114453,4.26410156 Z" id="路径" fill="#00C8BD"></path>
            </g>
        </g>
    </g>
</svg>