<?xml version="1.0" encoding="UTF-8"?>
<svg width="680px" height="519px" viewBox="0 0 680 519" version="1.1" xmlns="http://www.w3.org/2000/svg" xmlns:xlink="http://www.w3.org/1999/xlink">
    <title>编组 70备份</title>
    <defs>
        <linearGradient x1="13.8093013%" y1="30.4287372%" x2="100%" y2="65.9816017%" id="linearGradient-1">
            <stop stop-color="#4889FE" offset="0%"></stop>
            <stop stop-color="#47B1FF" offset="57.9570608%"></stop>
            <stop stop-color="#67D6FF" offset="100%"></stop>
        </linearGradient>
        <rect id="path-2" x="0" y="0" width="680" height="518" rx="24"></rect>
        <filter x="-24.8%" y="-25.4%" width="149.6%" height="150.8%" filterUnits="objectBoundingBox" id="filter-4">
            <feGaussianBlur stdDeviation="50" in="SourceGraphic"></feGaussianBlur>
        </filter>
        <rect id="path-5" x="0" y="0" width="680" height="518"></rect>
        <path d="M310,620 C481.208272,620 620,481.208272 620,310 C620,138.791728 481.208272,0 310,0 C138.791728,0 0,138.791728 0,310 C0,481.208272 138.791728,620 310,620 Z" id="path-7"></path>
        <mask id="mask-8" maskContentUnits="userSpaceOnUse" maskUnits="objectBoundingBox" x="0" y="0" width="620" height="620" fill="white">
            <use xlink:href="#path-7"></use>
        </mask>
        <circle id="path-9" cx="518" cy="458.64723" r="36"></circle>
        <filter x="-34.7%" y="-31.9%" width="169.4%" height="169.4%" filterUnits="objectBoundingBox" id="filter-10">
            <feOffset dx="0" dy="2" in="SourceAlpha" result="shadowOffsetOuter1"></feOffset>
            <feGaussianBlur stdDeviation="8" in="shadowOffsetOuter1" result="shadowBlurOuter1"></feGaussianBlur>
            <feColorMatrix values="0 0 0 0 0.204737413   0 0 0 0 0.418516171   0 0 0 0 0.719076405  0 0 0 0.1 0" type="matrix" in="shadowBlurOuter1"></feColorMatrix>
        </filter>
        <rect id="path-11" x="424" y="115.466663" width="88" height="88" rx="8"></rect>
        <filter x="-28.4%" y="-26.1%" width="156.8%" height="156.8%" filterUnits="objectBoundingBox" id="filter-12">
            <feOffset dx="0" dy="2" in="SourceAlpha" result="shadowOffsetOuter1"></feOffset>
            <feGaussianBlur stdDeviation="8" in="shadowOffsetOuter1" result="shadowBlurOuter1"></feGaussianBlur>
            <feColorMatrix values="0 0 0 0 0.204737413   0 0 0 0 0.418516171   0 0 0 0 0.719076405  0 0 0 0.1 0" type="matrix" in="shadowBlurOuter1"></feColorMatrix>
        </filter>
        <rect id="path-13" x="27.2392121" y="287.5" width="312.295238" height="121" rx="8"></rect>
        <filter x="-8.0%" y="-19.0%" width="116.0%" height="141.3%" filterUnits="objectBoundingBox" id="filter-14">
            <feOffset dx="0" dy="2" in="SourceAlpha" result="shadowOffsetOuter1"></feOffset>
            <feGaussianBlur stdDeviation="8" in="shadowOffsetOuter1" result="shadowBlurOuter1"></feGaussianBlur>
            <feColorMatrix values="0 0 0 0 0.204737413   0 0 0 0 0.418516171   0 0 0 0 0.719076405  0 0 0 0.170284671 0" type="matrix" in="shadowBlurOuter1"></feColorMatrix>
        </filter>
    </defs>
    <g id="页面-1" stroke="none" stroke-width="1" fill="none" fill-rule="evenodd">
        <g id="编组-70备份" transform="translate(0.000000, 0.946996)">
            <g id="编组-16">
                <mask id="mask-3" fill="white">
                    <use xlink:href="#path-2"></use>
                </mask>
                <use id="矩形" fill="url(#linearGradient-1)" xlink:href="#path-2"></use>
                <ellipse id="椭圆形" fill="#5F72FF" opacity="0.517264957" filter="url(#filter-4)" mask="url(#mask-3)" cx="0.512048193" cy="334.5" rx="302.620482" ry="295.5"></ellipse>
            </g>
            <g id="编组-67">
                <mask id="mask-6" fill="white">
                    <use xlink:href="#path-5"></use>
                </mask>
                <g id="蒙版"></g>
                <g mask="url(#mask-6)">
                    <g transform="translate(37.276442, -39.629974)">
                        <rect id="矩形" stroke="none" fill="#000000" fill-rule="evenodd" x="196.239212" y="334.520792" width="102" height="12.4792077"></rect>
                        <use id="椭圆形" stroke="#FFFFFF" mask="url(#mask-8)" stroke-width="2" fill-opacity="0.0900361388" fill="#FFFFFF" fill-rule="evenodd" stroke-dasharray="4" xlink:href="#path-7"></use>
                        <circle id="椭圆形备份-13" stroke="none" fill-opacity="0.29292308" fill="#FFFFFF" fill-rule="evenodd" cx="310" cy="310" r="239.072287"></circle>
                        <circle id="椭圆形备份-23" stroke="none" fill="#ABD4FE" fill-rule="evenodd" cx="71.2914094" cy="481.64723" r="28.5"></circle>
                        <path d="M70.9277128,466.718658 C62.6828904,466.718658 55.9991413,473.402407 55.9991413,481.64723 C55.9991413,489.892052 62.6828904,496.575801 70.9277128,496.575801 C79.1725351,496.575801 85.8562842,489.892052 85.8562842,481.64723 C85.8562842,477.687926 84.2834571,473.890786 81.4838069,471.091136 C78.6841566,468.291485 74.8870161,466.718658 70.9277128,466.718658 Z M78.4129043,480.13647 C77.8311458,481.069218 76.9234209,481.7524 75.8660959,482.053275 C75.635532,482.12851 75.3949949,482.168767 75.1524985,482.172704 C74.6861348,482.169969 74.3095163,481.791136 74.3095163,481.324764 C74.3095163,480.858392 74.6861348,480.479559 75.1524985,480.476824 C75.217024,480.478301 75.2811302,480.466088 75.3405926,480.44099 C76.0196483,480.272226 76.6051472,479.843286 76.970781,479.246704 C77.1835007,478.89898 77.2951667,478.49888 77.2932614,478.091256 C77.2932614,476.750658 76.05419,475.645944 74.5434303,475.645944 C74.0206221,475.647046 73.5067605,475.781674 73.0505731,476.037061 C72.2848599,476.440282 71.7971348,477.22613 71.7756673,478.091256 L71.7756673,485.212184 C71.7605727,486.681116 70.9486761,488.025887 69.6558101,488.723373 C68.9460861,489.122418 68.1441043,489.328317 67.329927,489.320515 C64.8696868,489.320515 62.8513556,487.469373 62.8513556,485.179324 C62.8557079,484.460942 63.0548591,483.757196 63.4275926,483.143061 C64.0093512,482.210313 64.9170761,481.527131 65.9744011,481.226256 C66.2052342,481.152124 66.4456066,481.111895 66.6879985,481.106827 C66.9921228,481.105044 67.2739115,481.266269 67.4264908,481.529355 C67.5790701,481.792441 67.5790701,482.117093 67.4264908,482.380179 C67.2739115,482.643265 66.9921228,482.80449 66.6879985,482.802707 C66.6234729,482.80123 66.5593668,482.813443 66.4999043,482.838541 C65.8266853,483.019616 65.2453281,483.445522 64.869716,484.032827 C64.6569962,484.380551 64.5453303,484.78065 64.5472355,485.188275 C64.5472355,486.528873 65.7863069,487.633587 67.3149985,487.633587 C67.8378066,487.632485 68.3516682,487.497857 68.8078556,487.24247 C69.5724068,486.838454 70.0588881,486.052759 70.0797582,485.188275 L70.0797582,478.100236 C70.0962784,476.630129 70.9090294,475.284697 72.2026186,474.586045 C72.8994938,474.168442 73.6981848,473.951462 74.5105699,473.959045 C76.9708101,473.959045 78.9891413,475.810187 78.9891413,478.100236 C78.9847891,478.818618 78.7856378,479.522364 78.4129043,480.136499 L78.4129043,480.13647 Z" id="形状" stroke="none" fill="#5483FF" fill-rule="nonzero"></path>
                        <circle id="椭圆形备份-21" stroke="none" fill="#E8EFFF" fill-rule="evenodd" cx="310" cy="310" r="130"></circle>
                        <rect id="矩形" stroke="none" fill="#FFFFFF" fill-rule="evenodd" x="83" y="140.35277" width="454" height="339.294459" rx="9"></rect>
                        <g id="编组-101" stroke="none" stroke-width="1" fill="none" fill-rule="evenodd" transform="translate(301.153052, 264.301316)">
                            <path d="M9.45747391,0 L131.294316,0 C132.95117,-3.04359188e-16 134.294316,1.34314575 134.294316,3 L134.294316,29.8552632 C134.294316,31.5121174 132.95117,32.8552632 131.294316,32.8552632 L9.45747391,32.8552632 C7.80061966,32.8552632 6.45747391,31.5121174 6.45747391,29.8552632 L6.45747391,3 C6.45747391,1.34314575 7.80061966,3.04359188e-16 9.45747391,0 Z M-3.30632759e-15,13.9608249 L6.45747391,17.1895618 L6.45747391,10.7320879 L-3.30632759e-15,13.9608249 Z" id="形状结合" fill="#EAF0F7"></path>
                        </g>
                        <path d="M324.35,200.219626 L476.055263,200.219626 C477.712117,200.219626 479.055263,201.562772 479.055263,203.219626 L479.055263,243.814363 C479.055263,245.471217 477.712117,246.814363 476.055263,246.814363 L324.35,246.814363 C322.693146,246.814363 321.35,245.471217 321.35,243.814363 L321.35,203.219626 C321.35,201.562772 322.693146,200.219626 324.35,200.219626 Z M314.892526,214.180451 L321.35,217.409188 L321.35,210.951714 L314.892526,214.180451 Z" id="形状结合备份" stroke="none" fill="#F7F7F7" fill-rule="evenodd" transform="translate(396.973895, 223.516995) scale(-1, 1) translate(-396.973895, -223.516995) "></path>
                        <path d="M324.35,316.167392 L476.055263,316.167392 C477.712117,316.167392 479.055263,317.510538 479.055263,319.167392 L479.055263,421.888445 C479.055263,423.545299 477.712117,424.888445 476.055263,424.888445 L324.35,424.888445 C322.693146,424.888445 321.35,423.545299 321.35,421.888445 L321.35,319.167392 C321.35,317.510538 322.693146,316.167392 324.35,316.167392 Z M314.892526,330.128217 L321.35,333.356954 L321.35,326.89948 L314.892526,330.128217 Z" id="形状结合备份-2" stroke="none" fill="#F7F7F7" fill-rule="evenodd" transform="translate(396.973895, 370.527918) scale(-1, 1) translate(-396.973895, -370.527918) "></path>
                        <rect id="矩形备份-80" stroke="none" fill="#F7F7F7" fill-rule="evenodd" x="487.053055" y="200.219626" width="34.3791236" height="34.3791236" rx="17"></rect>
                        <rect id="矩形备份-81" stroke="none" fill="#F7F7F7" fill-rule="evenodd" x="487.053055" y="316.167392" width="34.3791236" height="34.3791236" rx="17"></rect>
                        <rect id="矩形" stroke="none" fill="#F7F7F7" fill-rule="evenodd" x="92.3258925" y="178.415679" width="138.589474" height="54.3605263" rx="2"></rect>
                        <rect id="矩形备份-79" stroke="none" fill="#FBFAFB" fill-rule="evenodd" x="238.913158" y="178.415679" width="4.18157895" height="293.307895" rx="2"></rect>
                        <g id="编组-103" stroke="none" stroke-width="1" fill="none" fill-rule="evenodd" transform="translate(92.325893, 358.550111)">
                            <rect id="矩形备份-77" fill="#FBFAFB" x="0" y="0" width="138.589474" height="54.3605263" rx="2"></rect>
                            <rect id="矩形备份-78" fill="#FAFAFB" x="0" y="58.7053738" width="138.589474" height="54.3605263" rx="2"></rect>
                        </g>
                        <rect id="矩形备份-76" stroke="none" fill="#F7F7F7" fill-rule="evenodd" x="92.3258925" y="237.121053" width="138.589474" height="54.3605263" rx="2"></rect>
                        <path d="M92,140.35277 L528,140.35277 C532.970563,140.35277 537,144.382208 537,149.35277 L537,171.415928 L537,171.415928 L83,171.415928 L83,149.35277 C83,144.382208 87.0294373,140.35277 92,140.35277 Z" id="矩形备份-70" stroke="none" fill="#F0F7FC" fill-rule="evenodd"></path>
                        <g id="编组-122" stroke="none" stroke-width="1" fill="none" fill-rule="evenodd" transform="translate(101.767632, 153.092301)">
                            <circle id="椭圆形" stroke="#D84840" stroke-width="0.5" fill="#FC6157" cx="3.9867849" cy="3.9867849" r="3.7367849"></circle>
                            <circle id="椭圆形备份" stroke="#E3A71E" stroke-width="0.5" fill="#FEBD2C" cx="18.3392105" cy="3.9867849" r="3.7367849"></circle>
                            <circle id="椭圆形备份-2" stroke="#289534" stroke-width="0.5" fill="#2FC840" cx="32.6916362" cy="3.9867849" r="3.7367849"></circle>
                        </g>
                        <g id="椭圆形备份-22" stroke="none" fill="none">
                            <use fill="black" fill-opacity="1" filter="url(#filter-10)" xlink:href="#path-9"></use>
                            <use fill="#2B58F9" fill-rule="evenodd" xlink:href="#path-9"></use>
                        </g>
                        <rect id="矩形" stroke="none" fill="#FFFFFF" fill-rule="nonzero" opacity="0" x="501.125" y="441.77223" width="33.75" height="33.75"></rect>
                        <path d="M518.980859,452.043469 L510.483605,443.575745 C510.158761,443.737475 509.83952,443.906917 509.52875,444.086939 C508.277198,444.803402 507.098025,445.688647 506.032791,446.749663 C505.572255,447.20598 505.153906,447.684808 504.763672,448.174183 C503.803906,449.377944 503.032567,450.68223 502.451105,452.046303 C502.451105,452.046303 518.468281,451.961928 518.980859,452.043469 Z M514.035792,453.24723 L502.017958,453.24723 C501.901942,453.583313 501.799308,453.929975 501.703661,454.278714 C501.328917,455.664573 501.125,457.120767 501.125,458.626136 C501.125,459.269495 501.165078,459.903 501.238214,460.525991 C501.411183,462.054563 501.793672,463.517777 502.352656,464.890288 C502.352656,464.890288 513.615302,453.546761 514.035792,453.24723 Z M533.103125,451.080902 C532.943505,450.762386 532.77337,450.44387 532.592656,450.130991 C531.87125,448.887844 530.985313,447.711538 529.917277,446.649797 C529.460927,446.195589 528.982098,445.774406 528.488505,445.384897 C527.279833,444.42935 525.972745,443.66012 524.603761,443.082152 C524.603761,443.082152 524.688828,459.038881 524.603761,459.547241 L533.103125,451.080902 Z M523.423895,454.637308 L523.423895,442.664495 C523.084286,442.549897 522.736239,442.44512 522.3875,442.348089 C520.998114,441.976839 519.535625,441.77223 518.023895,441.77223 C517.377734,441.77223 516.742812,441.812308 516.116328,441.884719 C514.58423,442.057688 513.115413,442.440209 511.733772,442.993558 C511.733772,442.993558 523.118036,454.219652 523.423895,454.637308 Z M511.380089,457.661427 L502.885636,466.129216 C503.043114,466.453367 503.216808,466.767631 503.396105,467.081236 C504.113984,468.326492 505.002723,469.502799 506.071484,470.565231 C506.527109,471.020164 507.00663,471.437821 507.500256,471.830164 C508.708895,472.787821 510.013214,473.553524 511.385,474.130767 C511.385,474.130075 511.297823,458.173345 511.380056,457.661427 L511.380089,457.661427 Z M516.936875,465.314272 L525.436239,473.781995 C525.759271,473.620178 526.077902,473.449719 526.391786,473.270802 C527.637042,472.555756 528.815458,471.67262 529.885636,470.606694 C530.339844,470.153178 530.760302,469.677152 531.154062,469.18425 C532.111719,467.979797 532.885167,466.67973 533.46452,465.312855 C533.463136,465.312855 517.450145,465.400031 516.936875,465.314272 L516.936875,465.314272 Z M534.761094,456.77483 C534.586016,455.248334 534.206328,453.783703 533.648069,452.409083 C533.648069,452.409083 522.383281,463.751917 521.962131,464.054975 L533.979933,464.054975 C534.09439,463.713836 534.198729,463.369384 534.292812,463.022073 C534.669698,461.63483 534.875,460.182855 534.875,458.676761 C534.875,458.032709 534.833505,457.39848 534.761094,456.774797 L534.761094,456.77483 Z M512.576797,462.655042 L512.576797,474.629272 C512.917823,474.744563 513.264453,474.848647 513.6125,474.942152 C515.003995,475.31973 516.464375,475.52223 517.976105,475.52223 C518.620156,475.52223 519.256495,475.482152 519.880145,475.409016 C521.414386,475.235355 522.881094,474.857777 524.260625,474.301594 C524.262734,474.301594 512.879855,463.076917 512.576797,462.655042 Z" id="形状" stroke="none" fill="#FFFFFF" fill-rule="nonzero"></path>
                        <circle id="椭圆形备份-24" stroke="none" fill="#ABD4FE" fill-rule="evenodd" cx="202" cy="97.1829785" r="28.5"></circle>
                        <rect id="矩形" stroke="none" fill="#4E83FE" fill-rule="nonzero" opacity="0" x="185.734835" y="80.9178136" width="32.53033" height="32.53033"></rect>
                        <path d="M187.767981,97.1829785 C187.767981,89.3230917 194.140113,82.9509592 202,82.9509592 C209.859855,82.9509592 216.232019,89.3230917 216.232019,97.1829785 C216.232019,105.042834 209.859855,111.414998 202,111.414998 C194.140113,111.414998 187.767981,105.042834 187.767981,97.1829785 M198.913558,90.7576983 C197.998896,90.2538594 197.256004,90.6884443 197.256004,91.7321151 L197.256004,102.632889 C197.256004,103.668967 197.997943,104.112066 198.913558,103.607306 L208.895858,98.0976082 C209.808582,97.592848 209.810488,96.7730773 208.895858,96.2673959 L198.913558,90.7576983 Z" id="形状" stroke="none" fill="#5A95FE" fill-rule="nonzero"></path>
                        <g id="矩形" stroke="none" fill="none">
                            <use fill="black" fill-opacity="1" filter="url(#filter-12)" xlink:href="#path-11"></use>
                            <use fill="#FF9921" fill-rule="evenodd" xlink:href="#path-11"></use>
                        </g>
                        <rect id="矩形" stroke="none" fill="#000000" fill-rule="nonzero" opacity="0" x="444.253968" y="133.859452" width="47.4920635" height="47.4920635"></rect>
                        <path d="M484.648612,167.560173 L484.648612,162.75995 L479.862302,162.75995 L479.862302,167.560173 L475.062079,167.560173 L475.062079,172.346483 L479.862302,172.346483 L479.862302,177.146706 L484.648612,177.146706 L484.648612,172.346483 L489.448835,172.346483 L489.448835,167.560173 L484.648612,167.560173 Z M472.408553,169.953328 C472.408553,165.387643 475.563157,161.559384 479.811471,160.527545 C478.444415,159.433695 476.933131,158.533466 475.320271,157.852267 C474.810102,157.634286 474.290658,157.444132 473.766575,157.27253 C476.702364,155.389543 478.645643,152.096637 478.645643,148.353854 C478.645643,142.505466 473.905712,137.765536 468.057324,137.765536 C462.208937,137.765536 457.45973,142.500828 457.45973,148.349216 C457.45973,152.040982 459.347354,155.28751 462.208937,157.18441 C461.592096,157.374563 460.984532,157.597182 460.386243,157.847629 C458.104398,158.812311 456.054447,160.194405 454.296685,161.952167 C452.538922,163.70993 451.156828,165.759881 450.192146,168.041726 C449.19036,170.407053 448.684829,172.916156 448.684829,175.504102 L448.684829,177.730292 L476.310276,177.730292 C473.941934,175.961631 472.408553,173.136595 472.408553,169.953328 Z" id="形状" stroke="none" fill="#FFFFFF" fill-rule="nonzero"></path>
                        <rect id="矩形备份-14" stroke="none" fill="#FFFFFF" fill-rule="evenodd" transform="translate(407.090106, 331.818132) scale(1, -1) translate(-407.090106, -331.818132) " x="350.888803" y="328.796643" width="112.402607" height="6.04297852" rx="3"></rect>
                        <rect id="矩形备份-15" stroke="none" fill="#FFFFFF" fill-rule="evenodd" transform="translate(394.791409, 377.796643) scale(1, -1) translate(-394.791409, -377.796643) " x="326.291409" y="340.796643" width="137" height="74" rx="3"></rect>
                        <rect id="矩形" stroke="none" fill="#000000" fill-rule="nonzero" opacity="0" x="383.791409" y="365.182979" width="22" height="22"></rect>
                        <path d="M394.791409,363.682979 C387.887809,363.682979 382.291409,369.279378 382.291409,376.182979 C382.291409,383.086579 387.887809,388.682979 394.791409,388.682979 C401.69501,388.682979 407.291409,383.086579 407.291409,376.182979 C407.291409,369.279378 401.69501,363.682979 394.791409,363.682979 Z M400.026152,377.01288 L392.923865,381.700383 C392.618516,381.901666 392.227318,381.919076 391.905296,381.745714 C391.583274,381.572351 391.382415,381.236204 391.382316,380.870482 L391.382316,371.496354 C391.382316,371.130516 391.583238,370.794237 391.905378,370.62085 C392.227518,370.447463 392.61885,370.464979 392.924212,370.666453 L400.026498,375.353956 C400.305362,375.537977 400.473162,375.849749 400.473162,376.183857 C400.473162,376.517966 400.305362,376.829738 400.026498,377.013759 L400.026152,377.01288 Z" id="形状" stroke="none" fill-opacity="0.153511528" fill="#5C5C66" fill-rule="nonzero"></path>
                        <rect id="矩形" stroke="none" fill="#000000" fill-rule="nonzero" opacity="0" x="258.791409" y="263.682979" width="30" height="30"></rect>
                        <path d="M273.791468,263.682979 C265.511585,263.682979 258.798353,270.396211 258.798353,278.676094 C258.798353,283.775918 261.345657,288.280547 265.236722,290.989014 C265.995042,288.348398 267.911146,286.359199 270.518597,285.450938 C270.627706,285.41286 270.737541,285.376896 270.84804,285.343066 C270.865618,285.337705 270.882904,285.331846 270.900628,285.326602 C271.161866,285.248221 271.426348,285.181089 271.693343,285.125391 C271.720677,285.119648 271.748245,285.114551 271.775579,285.109043 C271.918777,285.080342 272.06258,285.05475 272.206888,285.032285 C272.308515,285.016568 272.410372,285.002377 272.512425,284.989717 C272.549163,284.985088 272.585638,284.980049 272.622493,284.975947 C272.760573,284.959902 272.89896,284.946627 273.037572,284.936133 L274.552366,284.936133 C274.691732,284.946504 274.829339,284.960156 274.966126,284.975684 C275.004798,284.980195 275.043118,284.985439 275.081556,284.990332 C275.222529,285.007863 275.363117,285.028365 275.503226,285.051826 C275.603275,285.068643 275.70262,285.086982 275.801087,285.106611 C275.834749,285.11332 275.868909,285.119531 275.902337,285.126621 C276.163215,285.181358 276.4217,285.246932 276.677122,285.323174 C276.708382,285.332461 276.739114,285.342568 276.770228,285.352207 C276.864681,285.381504 276.958489,285.412119 277.051243,285.444199 C279.666986,286.348945 281.589417,288.339844 282.351048,290.985615 C286.239388,288.27665 288.78473,283.773721 288.78473,278.67583 C288.78473,270.396064 282.071351,263.682979 273.791468,263.682979 Z" id="路径" stroke="none" fill="#A0D9F6" fill-rule="nonzero"></path>
                        <path d="M273.791468,284.932617 C269.971947,284.932617 266.863021,281.898604 266.73845,278.109463 C266.734173,278.106768 266.729896,278.10457 266.725618,278.101875 C266.579339,275.366924 268.009202,273.265986 269.81931,272.038272 C269.829798,272.031064 269.839906,272.023623 269.850423,272.016563 C269.919476,271.970186 269.989495,271.92627 270.059544,271.882441 C270.086995,271.865244 270.113831,271.847314 270.141546,271.830586 C271.255999,271.153652 272.482249,270.799922 273.560989,270.82043 C273.637747,270.817881 273.714212,270.81457 273.791585,270.81457 C273.865032,270.81457 273.937396,270.817881 274.010374,270.820078 C274.83763,270.805811 275.750784,271.011504 276.63429,271.412227 C277.292303,271.702436 277.902121,272.091464 278.44264,272.56585 C279.914134,273.828223 280.979456,275.72543 280.850491,278.101875 L280.844632,278.105303 C280.721995,281.896289 277.612337,284.932617 273.791468,284.932617 L273.791468,284.932617 Z" id="路径" stroke="none" fill="#A0D9F6" fill-rule="nonzero"></path>
                        <path d="M269.819163,272.339206 C269.944163,272.248456 270.067751,272.150206 270.194163,272.061331 C270.067751,272.151706 269.945929,272.248831 269.819163,272.338831 L269.819163,272.339206 Z" id="路径" stroke="none" fill="#FCE9EA" fill-rule="nonzero"></path>
                        <path d="M274.010111,270.976336 C273.937161,270.948211 273.864798,270.906211 273.791351,270.906211 C273.714007,270.906211 273.637484,270.948211 273.560755,270.981211 C273.634671,270.999961 273.708499,271.020211 273.78098,271.082461 C273.857275,271.022607 273.933676,270.987221 274.010111,270.976336 Z" id="路径" stroke="none" fill="#FCE9EA" fill-rule="nonzero"></path>
                        <path d="M272.627738,275.012842 C271.271058,277.392861 268.972542,279.50127 266.738333,278.109463 C266.862933,281.898604 269.971829,284.932617 273.79138,284.932617 C277.612279,284.932617 280.722025,281.896289 280.844544,278.105303 C278.977601,279.267217 274.082386,277.581621 272.627738,275.012842 L272.627738,275.012842 Z" id="路径" stroke="none" fill="#FCE9EA" fill-rule="nonzero"></path>
                        <path d="M270.059561,272.205615 C270.185052,272.081886 270.308266,271.951378 270.434427,271.830615 C270.307195,271.952225 270.185052,272.081886 270.059427,272.205615 L270.059561,272.205615 Z" id="路径" stroke="none" fill="#FCE9EA" fill-rule="nonzero"></path>
                        <path d="M276.634056,271.412227 C277.28819,271.709647 277.897004,272.098029 278.442435,272.56585 C277.901874,272.091505 277.292054,271.702481 276.634056,271.412227 Z" id="路径" stroke="none" fill="#FCE9EA" fill-rule="nonzero"></path>
                        <path d="M276.677093,285.324847 C276.802998,285.443722 276.926778,285.573097 277.052093,285.696472 C276.926778,285.573097 276.802998,285.443722 276.677093,285.325222 L276.677093,285.324847 Z" id="路径" stroke="none" fill="#CFE07D" fill-rule="nonzero"></path>
                        <path d="M271.693197,285.394693 C271.81784,285.321193 271.943553,285.255943 272.068197,285.185443 C271.943018,285.255568 271.817306,285.321193 271.693197,285.394693 Z" id="路径" stroke="none" fill="#CFE07D" fill-rule="nonzero"></path>
                        <path d="M270.847864,285.613061 C270.973213,285.544436 271.09689,285.469436 271.222864,285.402311 C271.09689,285.469436 270.973213,285.544436 270.847864,285.613061 Z" id="路径" stroke="none" fill="#CFE07D" fill-rule="nonzero"></path>
                        <path d="M277.051068,285.444346 C277.072542,285.451787 277.093782,285.459346 277.115023,285.466904 C277.03533,285.692738 276.932663,285.909794 276.808636,286.114658 C277.310843,286.888008 277.184808,290.259873 276.43015,289.729834 L275.108978,288.799482 L273.791204,287.872529 L273.877864,287.81165 C273.849066,287.812383 273.820267,287.813848 273.791234,287.813848 C273.76097,287.813848 273.731087,287.812266 273.701058,287.811533 L273.787806,287.872529 L272.470032,288.799482 L271.14889,289.729834 C270.390101,290.26084 270.264417,286.876172 270.771605,286.110645 C270.648924,285.907489 270.547257,285.692365 270.468177,285.468604 C270.484876,285.462627 270.501488,285.45665 270.518304,285.450938 C267.910882,286.359082 265.994749,288.348398 265.236458,290.989014 C267.662825,292.678066 270.611175,293.66918 273.791234,293.66918 C276.973343,293.66918 279.923538,292.676719 282.350638,290.985879 C281.589388,288.340078 279.666956,286.349063 277.051068,285.444346 L277.051068,285.444346 Z" id="路径" stroke="none" fill="#CFE07D" fill-rule="nonzero"></path>
                        <path d="M275.801058,285.161522 C275.925732,285.247397 276.052251,285.326897 276.176058,285.417647 C276.05236,285.326897 275.926166,285.245897 275.801058,285.161522 Z" id="路径" stroke="none" fill="#CFE07D" fill-rule="nonzero"></path>
                        <path d="M272.512279,285.243926 C272.637378,285.186176 272.761779,285.120176 272.887279,285.067676 C272.761779,285.120176 272.637378,285.184676 272.512279,285.243926 Z" id="路径" stroke="none" fill="#CFE07D" fill-rule="nonzero"></path>
                        <path d="M274.96598,285.062109 C275.091614,285.118359 275.216107,285.186984 275.34098,285.249609 C275.216107,285.188484 275.091995,285.121359 274.96598,285.062109 Z" id="路径" stroke="none" fill="#CFE07D" fill-rule="nonzero"></path>
                        <path d="M270.771751,286.110527 C270.872532,285.958477 270.998216,285.909199 271.149007,286.015254 L272.470179,286.945606 L273.701175,287.811533 C273.731322,287.812266 273.761087,287.813877 273.791351,287.813877 C273.820384,287.813877 273.849183,287.812412 273.877982,287.81165 L275.109095,286.945606 L276.430267,286.015254 C276.58182,285.908232 276.707855,285.959238 276.808782,286.11457 C276.932824,285.909708 277.035482,285.69264 277.11514,285.466787 L277.051214,285.444229 C276.958052,285.412028 276.864368,285.38136 276.770198,285.352236 C276.739085,285.342568 276.708353,285.332461 276.677093,285.323174 C276.421675,285.246908 276.163189,285.181323 275.902308,285.126592 C275.868909,285.119561 275.83472,285.11332 275.801058,285.106611 C275.562752,285.058861 275.32274,285.020064 275.081527,284.990303 C275.043089,284.985439 275.004769,284.980049 274.966097,284.975654 C274.828444,284.959821 274.690498,284.946645 274.552337,284.936133 L273.037542,284.936133 C272.898931,284.946627 272.760543,284.959902 272.622464,284.975947 C272.585609,284.980107 272.549134,284.985234 272.512396,284.989717 C272.265376,285.020219 272.019596,285.060033 271.775579,285.109072 C271.748099,285.114551 271.720501,285.119678 271.693314,285.12542 C271.426345,285.181233 271.161868,285.248364 270.900599,285.326631 C270.882904,285.331875 270.86556,285.337734 270.848011,285.343096 C270.720537,285.38204 270.59397,285.423896 270.468411,285.468633 C270.547485,285.692344 270.649122,285.907427 270.771751,286.110557 L270.771751,286.110527 Z" id="路径" stroke="none" fill="#FEFEFE" fill-rule="nonzero"></path>
                        <path d="M276.430267,286.015254 L275.109095,286.945606 L273.877982,287.81165 L273.791351,287.872529 L275.109124,288.799482 L276.430267,289.729834 C277.184954,290.259873 277.31096,286.888008 276.808782,286.114688 C276.708001,285.959238 276.581937,285.908232 276.430267,286.015254 L276.430267,286.015254 Z" id="路径" stroke="none" fill="#7EA701" fill-rule="nonzero"></path>
                        <path d="M271.149007,286.015254 C270.998187,285.909199 270.872532,285.958506 270.771751,286.110527 C270.264534,286.876055 270.390189,290.260723 271.149007,289.729717 L272.470179,288.799365 L273.787952,287.872412 L273.701175,287.811416 L272.470179,286.945488 L271.149007,286.015254 L271.149007,286.015254 Z" id="路径" stroke="none" fill="#7EA701" fill-rule="nonzero"></path>
                        <path d="M272.627708,275.012842 C274.082357,277.581592 278.977572,279.267246 280.844515,278.105303 L280.850374,278.101875 C280.979339,275.72543 279.9139,273.828223 278.442523,272.56585 C277.897042,272.098097 277.288238,271.709722 276.634144,271.412227 C275.750667,271.011504 274.837484,270.805781 274.010228,270.820078 C273.933265,270.821426 273.856507,270.823242 273.781126,270.828369 C274.025374,271.693213 273.5389,273.414229 272.627708,275.012842 Z" id="路径" stroke="none" fill="#F7B970" fill-rule="nonzero"></path>
                        <path d="M272.627708,275.012842 C273.5389,273.414111 274.025491,271.693213 273.781126,270.828369 C273.707787,270.823878 273.634345,270.821241 273.560872,270.820459 C272.482161,270.799951 271.255882,271.153652 270.141429,271.830615 C270.113831,271.847314 270.086878,271.865361 270.059398,271.882471 C269.989378,271.92627 269.919359,271.970186 269.850277,272.016563 C269.839788,272.023623 269.829681,272.031211 269.819163,272.038242 C268.009085,273.265986 266.579222,275.366953 266.725501,278.101875 C266.729779,278.10457 266.734056,278.106768 266.738304,278.109463 C268.972513,279.50127 271.271029,277.392861 272.627708,275.012842 Z" id="路径" stroke="none" fill="#FBCE77" fill-rule="nonzero"></path>
                        <g id="矩形备份-43" stroke="none" fill="none">
                            <use fill="black" fill-opacity="1" filter="url(#filter-14)" xlink:href="#path-13"></use>
                            <use fill="#FFFFFF" fill-rule="evenodd" xlink:href="#path-13"></use>
                        </g>
                        <g id="编组-100" stroke="none" stroke-width="1" fill="none" fill-rule="evenodd" transform="translate(136.079419, 337.664512)">
                            <rect id="矩形" fill="#EBF0F7" x="26.5645555" y="0" width="121.798207" height="14.3808012"></rect>
                            <rect id="矩形备份-68" fill="#EBF0F7" x="26.5645555" y="27.0809524" width="152.114286" height="14.3808012"></rect>
                            <g id="话单,电话账单,通话记录,电话记录" transform="translate(0.000000, 0.675441)" fill="#BDD6FA" fill-rule="nonzero">
                                <rect id="矩形" opacity="0" x="0" y="0" width="13.5581879" height="13.5581879"></rect>
                                <path d="M11.4397211,0 L2.11846687,0 C1.65108011,0 1.27108012,0.378675952 1.27108012,0.847386746 L1.27108012,12.7108012 C1.27108012,13.1781879 1.65108011,13.5581879 2.11846687,13.5581879 L11.4397211,13.5581879 C11.9071078,13.5581879 12.2871078,13.1781879 12.2871078,12.7108012 L12.2871078,0.847386746 C12.2871078,0.378675952 11.9071078,0 11.4397211,0 Z M3.38954698,11.3867594 L3.38954698,10.645296 C3.38954698,10.6161671 3.41337974,10.5923343 3.44250866,10.5923343 L10.1156793,10.5923343 C10.1448082,10.5923343 10.168641,10.6161671 10.168641,10.645296 L10.168641,11.3867594 C10.168641,11.4158883 10.1448082,11.4397211 10.1156793,11.4397211 L3.44250866,11.4397211 C3.41337974,11.4397211 3.38954698,11.4158883 3.38954698,11.3867594 Z M10.168641,9.69198591 C10.168641,9.72111483 10.1448082,9.74494758 10.1156793,9.74494758 L3.44250866,9.74494758 C3.41337974,9.74494758 3.38954698,9.72111483 3.38954698,9.69198591 L3.38954698,8.95052251 C3.38954698,8.92139359 3.41337974,8.89756083 3.44250866,8.89756083 L10.1156793,8.89756083 C10.1448082,8.89756083 10.168641,8.92139359 10.168641,8.95052251 L10.168641,9.69198591 Z M5.01017414,4.88836229 C5.04857135,4.98104522 5.1041811,5.06578389 5.1770034,5.13728215 L5.43916368,5.39944242 C5.56229956,5.52257831 5.69999991,5.63247378 5.84829259,5.7251567 C5.91317064,5.766202 5.98069677,5.80327517 6.04954694,5.83770026 C6.11839711,5.87212534 6.18857133,5.9025783 6.26006959,5.93038318 L6.86648073,6.16209049 C7.05714274,6.23491279 7.26766539,6.22829258 7.45303124,6.14487795 C7.54571417,6.10383266 7.6291288,6.04425077 7.69665493,5.97142848 C7.7655051,5.89860618 7.81979082,5.81254346 7.85553994,5.71721245 L7.98529604,5.37693371 C8.03560963,5.24585357 8.13226468,5.13993023 8.25804865,5.07902431 C8.33351903,5.04195114 8.41693366,5.02341455 8.5003483,5.02341455 C8.53344934,5.02341455 8.56522634,5.02606264 8.59832739,5.03268285 L9.80717754,5.2498257 C9.90383259,5.26703824 9.97930298,5.34383267 9.99519148,5.44048772 L10.0733099,5.9025783 C10.0958187,6.03630652 10.0534493,6.17268283 9.95944235,6.27066192 C9.54104514,6.70362359 8.99686397,6.9922647 8.40501729,7.09818804 L7.98529604,7.17365842 C7.72843193,7.21999988 7.46494762,7.21337968 7.21073159,7.15644588 L6.78439014,7.05052254 C5.93170722,6.83867585 5.15449469,6.39776993 4.53616718,5.77282221 L4.23428565,5.3703135 L4.1283623,5.22996507 C3.97212537,5.02076647 3.85825778,4.78376299 3.79602781,4.53087101 L3.69275255,4.11776997 C3.54710796,3.53386754 3.58815325,2.91951215 3.81191632,2.36076651 C3.83707311,2.29721251 3.87679436,2.24292679 3.92578391,2.19923341 C3.97477346,2.15554004 4.03435534,2.12376303 4.10055743,2.10655049 L4.55470376,1.98871077 C4.65003477,1.96487802 4.7493379,2.00195119 4.80494766,2.08271774 L5.49874556,3.09693375 C5.56494765,3.1935888 5.59804869,3.30878044 5.59407657,3.42529611 C5.59142848,3.49547033 5.57686402,3.56299646 5.54905914,3.62655046 C5.52125427,3.69010447 5.48285706,3.74703827 5.43386751,3.79602781 L5.1770034,4.05156788 C5.03268285,4.19588843 4.9519163,4.39052258 4.9519163,4.59442501 C4.9519163,4.69637623 4.97177692,4.79567937 5.01017414,4.88836229 Z" id="形状"></path>
                            </g>
                            <g id="401位置" transform="translate(0.000000, 27.121636)" fill="#BDD6FA" fill-rule="nonzero">
                                <rect id="矩形" opacity="0" x="0" y="0" width="13.5581879" height="13.5581879"></rect>
                                <path d="M6.77909397,0.847386746 C4.05686405,0.847386746 1.85365851,3.05059229 1.85365851,5.77282221 C1.85365851,7.11804867 2.39386756,8.34675945 3.27303131,9.23651553 L6.77909397,12.7108012 L10.2745643,9.2259232 C11.153728,8.33616711 11.6939751,7.11804867 11.6939751,5.76222987 C11.7045294,3.05059229 9.50132389,0.847386746 6.77909397,0.847386746 Z M8.47386746,5.23261316 C8.41031345,6.05881523 7.75358873,6.71553996 6.92738665,6.77909397 C5.93170722,6.86383264 5.09491281,6.06940757 5.09491281,5.09491281 C5.09491281,4.16278739 5.85756088,3.40013932 6.7896863,3.40013932 C7.76418106,3.40013932 8.55860614,4.23693373 8.47386746,5.23261316 L8.47386746,5.23261316 Z" id="形状"></path>
                            </g>
                        </g>
                        <circle id="椭圆形" stroke="none" fill="#E8EFFF" fill-rule="evenodd" cx="80.2487359" cy="358.395389" r="33.9952381"></circle>
                        <path d="M34.2392121,287.5 L332.53445,287.5 C336.400443,287.5 339.53445,290.634007 339.53445,294.5 L339.53445,311.7 L339.53445,311.7 L27.2392121,311.7 L27.2392121,294.5 C27.2392121,290.634007 30.3732188,287.5 34.2392121,287.5 Z" id="矩形备份-51" stroke="none" fill="#2B58F9" fill-rule="evenodd"></path>
                        <rect id="矩形" stroke="none" fill="#000000" fill-rule="nonzero" opacity="0" x="57.1246734" y="335.271327" width="46.248125" height="46.248125"></rect>
                        <path d="M80.2487359,341.978208 C82.4662974,341.978208 84.6161126,342.411784 86.639468,343.265387 C88.5950772,344.091892 90.351964,345.275194 91.8604478,346.783677 C93.3689315,348.292161 94.5522332,350.049048 95.3787377,352.004657 C96.2323408,354.028013 96.665917,356.177828 96.665917,358.395389 C96.665917,360.612951 96.2323408,362.762766 95.3787377,364.786121 C94.5522332,366.741731 93.3689315,368.498617 91.8604478,370.007101 C90.351964,371.515585 88.5950772,372.698886 86.639468,373.525391 C84.6161126,374.378994 82.4662974,374.81257 80.2487359,374.81257 C78.0311744,374.81257 75.8813593,374.378994 73.8580038,373.525391 C71.9023946,372.698886 70.1455078,371.515585 68.6370241,370.007101 C67.1285403,368.498617 65.9452387,366.741731 65.1187341,364.786121 C64.265131,362.762766 63.8315548,360.612951 63.8315548,358.395389 C63.8315548,356.177828 64.265131,354.028013 65.1187341,352.004657 C65.9452387,350.049048 67.1285403,348.292161 68.6370241,346.783677 C70.1455078,345.275194 71.9023946,344.091892 73.8580038,343.265387 C75.8813593,342.411784 78.0311744,341.978208 80.2487359,341.978208 M80.2487359,339.719999 C69.9332362,339.719999 61.5733456,348.079889 61.5733456,358.395389 C61.5733456,368.710889 69.9332362,377.07078 80.2487359,377.07078 C90.5642357,377.07078 98.9241262,368.710889 98.9241262,358.395389 C98.9241262,348.079889 90.5642357,339.719999 80.2487359,339.719999 Z M75.4613323,353.382165 C75.4613323,356.026175 77.6047259,358.169568 80.2487359,358.169568 C82.8927459,358.169568 85.0361395,356.026175 85.0361395,353.382165 C85.0361395,350.738155 82.8927459,348.594761 80.2487359,348.594761 C77.6047259,348.594761 75.4613323,350.738155 75.4613323,353.382165 L75.4613323,353.382165 Z M80.3616464,359.696118 C75.6148906,359.696118 71.5546304,362.803414 69.9016212,367.202405 C71.1752512,368.462486 72.629538,369.465131 74.2328665,370.178725 C76.0484667,370.99168 77.9814938,371.402674 79.9732344,371.402674 C81.9649749,371.402674 83.898002,370.99168 85.7136022,370.178725 C87.470489,369.392868 89.0467191,368.26828 90.4016446,366.832059 C90.4648745,366.764313 90.5235879,366.696566 90.5868178,366.633337 C88.8163817,362.541461 84.9051633,359.696118 80.3616464,359.696118 Z" id="形状" stroke="none" fill="#2B58F9" fill-rule="nonzero"></path>
                        <rect id="矩形" stroke="none" fill="#FFFFFF" fill-rule="evenodd" x="319.791409" y="271.830615" width="98" height="6.04297852" rx="3"></rect>
                        <g id="编组-27" stroke="none" stroke-width="1" fill="none" fill-rule="evenodd" transform="translate(397.691409, 223.986077) scale(-1, 1) translate(-397.691409, -223.986077) translate(332.091409, 210.664588)">
                            <rect id="矩形备份-6" fill="#FFFFFF" transform="translate(21.200000, 3.021489) scale(-1, -1) translate(-21.200000, -3.021489) " x="0" y="0" width="42.4" height="6.04297852" rx="3"></rect>
                            <rect id="矩形备份-14" fill="#FFFFFF" transform="translate(65.600000, 13.321489) scale(-1, -1) translate(-65.600000, -13.321489) " x="0" y="10.3" width="131.2" height="6.04297852" rx="3"></rect>
                            <rect id="矩形备份-16" fill="#FFFFFF" transform="translate(43.650000, 23.621489) scale(-1, -1) translate(-43.650000, -23.621489) " x="0" y="20.6" width="87.3" height="6.04297852" rx="3"></rect>
                        </g>
                        <rect id="矩形备份-5" stroke="none" fill="#FFFFFF" fill-rule="evenodd" x="319.791409" y="281.130615" width="61.7" height="6.04297852" rx="3"></rect>
                    </g>
                </g>
            </g>
        </g>
    </g>
</svg>