<svg xmlns="http://www.w3.org/2000/svg" xmlns:xlink="http://www.w3.org/1999/xlink" width="36" height="36" viewBox="0 0 36 36" fill="none"><g opacity="1"  transform="translate(0 0)  rotate(0)"><path id="矩形" fill-rule="evenodd" style="fill:#000000" opacity="0" d="M0 36L36 36L36 0L0 0L0 36Z"></path><path id="路径" fill-rule="evenodd" style="fill:#2B58F9" opacity="1" d="M6.70969 30.8575C6.70969 31.2075 6.87969 31.4675 7.14969 31.6475C7.32969 31.7375 7.40969 31.7375 7.58969 31.7375C7.75969 31.7375 7.93969 31.6475 8.11969 31.5575L13.9997 27.3375L6.67969 27.3375C6.67969 27.3375 6.70969 27.3575 6.70969 27.3675L6.70969 30.8575Z"></path><path id="路径" fill-rule="evenodd" style="fill:#2B58F9" opacity="1" d="M4.38516 8.86426C3.83516 8.86426 3.29516 9.08426 2.90516 9.48426C2.50516 9.87426 2.28516 10.4143 2.28516 10.9643L2.28516 25.2343C2.28516 25.7943 2.50516 26.3243 2.90516 26.7243C3.29516 27.1143 3.83516 27.3343 4.38516 27.3343L26.5952 27.3343C27.7552 27.3343 28.6952 26.3943 28.6952 25.2343L28.6952 10.9643C28.6952 10.4143 28.4752 9.87426 28.0852 9.48426C27.6852 9.08426 27.1552 8.86426 26.5952 8.86426L4.38516 8.86426Z"></path><path id="路径" fill-rule="evenodd" style="fill:#FFFFFF" opacity="1" d="M17.2277 20.3386L9.34765 20.3386C8.85765 20.3386 8.51765 20.6286 8.46765 21.0786C8.42765 21.5886 8.84765 22.0186 9.38765 22.0186L17.2677 22.0186C17.7577 22.0186 18.0977 21.7286 18.1377 21.2786C18.1877 20.7686 17.7577 20.3386 17.2277 20.3386Z"></path><path id="路径" fill-rule="evenodd" style="fill:#FFFFFF" opacity="1" d="M21.6277 14.181L9.34765 14.181C8.85765 14.181 8.51765 14.471 8.46765 14.921C8.42765 15.431 8.84765 15.861 9.37765 15.861L21.6576 15.861C22.1576 15.861 22.4977 15.571 22.5377 15.121C22.5877 14.611 22.1576 14.181 21.6277 14.181Z"></path><path id="路径" fill-rule="evenodd" style="fill:#00C8BD" opacity="1" d="M8.87991 4.26416C7.71991 4.26416 6.77991 5.20416 6.77991 6.36416L6.77991 7.14416L27.0699 7.14416C27.4299 7.14416 27.7699 7.14416 28.1199 7.21416C29.4799 7.49416 30.4099 8.77416 30.4099 10.1242C30.4199 11.1842 30.4099 12.2442 30.4099 13.3042L30.4099 23.1142L31.6099 23.1142C32.1699 23.1142 32.6999 22.8842 33.0999 22.4942C33.4899 22.1042 33.7099 21.5642 33.7099 21.0042L33.7099 6.36416C33.7099 5.20416 32.7699 4.26416 31.6099 4.26416L8.87991 4.26416Z"></path></g></svg>