<?xml version="1.0" encoding="UTF-8"?>
<svg width="25px" height="25px" viewBox="0 0 25 25" version="1.1" xmlns="http://www.w3.org/2000/svg" xmlns:xlink="http://www.w3.org/1999/xlink">
    <title>消费金融-深</title>
    <g id="2023Q2-品牌官网2.0" stroke="none" stroke-width="1" fill="none" fill-rule="evenodd">
        <g id="画板" transform="translate(-276.000000, -306.000000)">
            <g id="消费金融-深" transform="translate(276.248608, 306.743587)">
                <rect id="矩形备份-5" x="0" y="0" width="24" height="24.0695652"></rect>
                <g id="编组-2" transform="translate(2.372001, 3.811014)">
                    <path d="M6.13415307,1.91429415 L15.2366592,1.95001071 C16.8843711,1.95647603 18.2184802,3.29065003 18.2248653,4.93836226 L18.2382044,8.38059073 C18.2446249,10.0374325 16.9066941,11.3857731 15.2498523,11.3921936 C15.2420534,11.3922238 15.2342545,11.3922236 15.2264556,11.392193 L6.1239495,11.3564764 C4.47623759,11.3500111 3.14212852,10.0158371 3.13574339,8.36812489 L3.12240424,4.92589642 C3.11598373,3.26905461 4.45391455,1.92071409 6.11075636,1.91429359 C6.11855523,1.91426336 6.1263542,1.91426355 6.13415307,1.91429415 Z" id="矩形备份-18" fill="#73E1DB" transform="translate(10.680304, 6.653244) rotate(16.000000) translate(-10.680304, -6.653244) "></path>
                    <rect id="矩形" fill="#FFFFFF" x="0" y="6.84890028" width="16.673613" height="1.61150595"></rect>
                    <g id="xinyongka备份-2" transform="translate(0.000000, 4.361242)" fill="#2B58F9" fill-rule="nonzero">
                        <path d="M15.7204048,0 L0.953208228,0 C0.428190603,0 0,0.457259264 0,1.01662497 L0,2.73245706 L16.673613,2.73245706 L16.673613,1.01662497 C16.673613,0.457259264 16.2432707,0 15.7204048,0 Z M0,11.0696697 C0,11.6290354 0.428190603,12.0862946 0.953208228,12.0862946 L15.7204048,12.0862946 C16.2454224,12.0862946 16.673613,11.6290354 16.673613,11.0696697 L16.673613,4.07759839 L0,4.07759839 L0,11.0696697 Z M11.4191333,10.2750152 L11.7526486,8.82776744 C11.7741657,8.73453982 11.8516274,8.67016837 11.9419992,8.67016837 L14.5950596,8.67016837 C14.7220106,8.67016837 14.8145342,8.79669157 14.7844102,8.92765417 L14.4508949,10.3749019 C14.4293778,10.4681296 14.3519162,10.532501 14.2615443,10.532501 L11.6084839,10.532501 C11.481533,10.532501 11.3890094,10.4059778 11.4191333,10.2750152 Z M3.86017057,9.90876385 C3.86017057,9.7999983 3.94408732,9.70899039 4.04736947,9.70899039 L5.80746954,9.70899039 C5.9107517,9.70899039 5.99466845,9.7977786 5.99466845,9.90876385 L5.99466845,10.3327275 C5.99466845,10.4414931 5.9107517,10.532501 5.80746954,10.532501 L4.04736947,10.532501 C3.94408732,10.532501 3.86017057,10.4437128 3.86017057,10.3327275 L3.86017057,9.90876385 Z M0.897263727,9.98645353 C0.897263727,9.83329388 1.01345615,9.71121009 1.15546912,9.71121009 L2.77140451,9.71121009 C2.91341747,9.71121009 3.0296099,9.83551358 3.0296099,9.98645353 L3.0296099,10.2572576 C3.0296099,10.4104172 2.91341747,10.532501 2.77140451,10.532501 L1.15546912,10.532501 C1.01345615,10.532501 0.897263727,10.4081975 0.897263727,10.2572576 L0.897263727,9.98645353 Z" id="形状"></path>
                    </g>
                    <path d="M16.673613,8.43884 L16.6745869,11.7318771 C15.9316039,12.4533203 14.8348899,12.7700036 13.7666041,12.4681528 C13.759099,12.4660322 13.7516022,12.4638823 13.7441139,12.4617032 L5.00406829,9.91837957 C4.19211957,9.68210524 3.55595866,9.1324476 3.18956899,8.43896698 L16.673613,8.43884 Z M15.7204048,4.36124161 C16.2432707,4.36124161 16.673613,4.81850088 16.673613,5.37786658 L16.673613,7.09369867 L2.8420391,7.09375311 C2.83678283,6.80620437 2.87311184,6.51308029 2.95532153,6.22213046 L3.4805419,4.36113234 Z" id="形状结合" fill="#071EF3"></path>
                </g>
            </g>
        </g>
    </g>
</svg>