<?xml version="1.0" encoding="UTF-8"?>
<svg width="80px" height="81px" viewBox="0 0 80 81" version="1.1" xmlns="http://www.w3.org/2000/svg" xmlns:xlink="http://www.w3.org/1999/xlink">
    <title>矩形4</title>
    <defs>
        <linearGradient x1="50%" y1="0%" x2="50%" y2="100%" id="linearGradient-1">
            <stop stop-color="#4086FD" stop-opacity="0.130374508" offset="0%"></stop>
            <stop stop-color="#4086FD" stop-opacity="0.0514231862" offset="100%"></stop>
        </linearGradient>
        <path d="M98.8463998,452.21875 L142.12235,452.21875 C144.807572,452.21875 146.984375,454.395553 146.984375,457.080775 L146.984375,479.356725 C146.984375,482.041947 144.807572,484.21875 142.12235,484.21875 L98.8463998,484.21875 C96.1611776,484.21875 93.984375,482.041947 93.984375,479.356725 L93.984375,457.080775 C93.984375,454.395553 96.1611776,452.21875 98.8463998,452.21875 Z" id="path-2"></path>
        <filter x="-13.2%" y="-15.6%" width="126.4%" height="143.8%" filterUnits="objectBoundingBox" id="filter-3">
            <feOffset dx="0" dy="2" in="SourceAlpha" result="shadowOffsetOuter1"></feOffset>
            <feGaussianBlur stdDeviation="2" in="shadowOffsetOuter1" result="shadowBlurOuter1"></feGaussianBlur>
            <feComposite in="shadowBlurOuter1" in2="SourceAlpha" operator="out" result="shadowBlurOuter1"></feComposite>
            <feColorMatrix values="0 0 0 0 0.204737413   0 0 0 0 0.418516171   0 0 0 0 0.719076405  0 0 0 0.1 0" type="matrix" in="shadowBlurOuter1"></feColorMatrix>
        </filter>
    </defs>
    <g id="页面-1" stroke="none" stroke-width="1" fill="none" fill-rule="evenodd">
        <g id="图标样式" transform="translate(-81.000000, -441.000000)">
            <rect id="矩形" x="81" y="441.879767" width="80" height="80"></rect>
            <g id="矩形备份-20">
                <use fill="black" fill-opacity="1" filter="url(#filter-3)" xlink:href="#path-2"></use>
                <path stroke="url(#linearGradient-1)" stroke-width="0.9975" d="M142.12235,452.7175 C143.327235,452.7175 144.418054,453.205876 145.207651,453.995474 C145.997249,454.785071 146.485625,455.87589 146.485625,457.080775 L146.485625,479.356725 C146.485625,480.56161 145.997249,481.652429 145.207651,482.442026 C144.418054,483.231624 143.327235,483.72 142.12235,483.72 L98.8463998,483.72 C97.6415147,483.72 96.550696,483.231624 95.7610986,482.442026 C94.9715012,481.652429 94.483125,480.56161 94.483125,479.356725 L94.483125,457.080775 C94.483125,455.87589 94.9715012,454.785071 95.7610986,453.995474 C96.550696,453.205876 97.6415147,452.7175 98.8463998,452.7175 Z" stroke-linejoin="square" fill="#0C71FF" fill-rule="evenodd"></path>
            </g>
        </g>
    </g>
</svg>