<?xml version="1.0" encoding="UTF-8"?>
<svg width="80px" height="81px" viewBox="0 0 80 81" version="1.1" xmlns="http://www.w3.org/2000/svg" xmlns:xlink="http://www.w3.org/1999/xlink">
    <title>编组 1024</title>
    <defs>
        <linearGradient x1="50%" y1="4.40946186%" x2="50%" y2="95.2917489%" id="linearGradient-1">
            <stop stop-color="#C4DAFF" stop-opacity="0.557048664" offset="0%"></stop>
            <stop stop-color="#BFD7FF" stop-opacity="0.148210432" offset="100%"></stop>
        </linearGradient>
        <linearGradient x1="50%" y1="0%" x2="50%" y2="100%" id="linearGradient-2">
            <stop stop-color="#4086FD" stop-opacity="0.0454186926" offset="0%"></stop>
            <stop stop-color="#4086FD" stop-opacity="0.130374508" offset="0%"></stop>
            <stop stop-color="#4086FD" stop-opacity="0.0514231862" offset="100%"></stop>
        </linearGradient>
        <path d="M10.8463998,20 L68.1223502,20 C70.8075724,20 72.984375,22.1768026 72.984375,24.8620248 L72.984375,64.4769583 C72.984375,67.1621804 70.8075724,69.3389831 68.1223502,69.3389831 L10.8463998,69.3389831 C8.16117764,69.3389831 5.984375,67.1621804 5.984375,64.4769583 L5.984375,24.8620248 C5.984375,22.1768026 8.16117764,20 10.8463998,20 Z" id="path-3"></path>
        <filter x="-10.4%" y="-10.1%" width="120.9%" height="128.4%" filterUnits="objectBoundingBox" id="filter-4">
            <feOffset dx="0" dy="2" in="SourceAlpha" result="shadowOffsetOuter1"></feOffset>
            <feGaussianBlur stdDeviation="2" in="shadowOffsetOuter1" result="shadowBlurOuter1"></feGaussianBlur>
            <feComposite in="shadowBlurOuter1" in2="SourceAlpha" operator="out" result="shadowBlurOuter1"></feComposite>
            <feColorMatrix values="0 0 0 0 0.204737413   0 0 0 0 0.418516171   0 0 0 0 0.719076405  0 0 0 0.1 0" type="matrix" in="shadowBlurOuter1"></feColorMatrix>
        </filter>
        <path d="M18.8665266,55.9567558 C19.2917991,55.9567558 24.9651058,50.2420408 35.8864469,38.8126108 L42.1105533,45.0462171 L53.2905799,34.0021801 L51.5046152,32.1633169 L60.0807908,29.8658715 L57.9471106,38.4916649 L56.0222446,36.8694539 L42.277695,50.6202831 L35.8864469,44.8200128 L21.299837,58.8658715 C19.2523576,56.926461 18.4412541,55.9567558 18.8665266,55.9567558 Z" id="path-5"></path>
        <filter x="-16.9%" y="-17.2%" width="133.9%" height="148.3%" filterUnits="objectBoundingBox" id="filter-6">
            <feOffset dx="0" dy="2" in="SourceAlpha" result="shadowOffsetOuter1"></feOffset>
            <feGaussianBlur stdDeviation="2" in="shadowOffsetOuter1" result="shadowBlurOuter1"></feGaussianBlur>
            <feColorMatrix values="0 0 0 0 0.204737413   0 0 0 0 0.418516171   0 0 0 0 0.719076405  0 0 0 0.1 0" type="matrix" in="shadowBlurOuter1"></feColorMatrix>
        </filter>
    </defs>
    <g id="页面-1" stroke="none" stroke-width="1" fill="none" fill-rule="evenodd">
        <g id="图标样式" transform="translate(-266.000000, -441.000000)">
            <g id="编组-102" transform="translate(266.000000, 441.879767)">
                <rect id="矩形" x="0" y="0" width="80" height="80"></rect>
                <g id="矩形">
                    <use fill="black" fill-opacity="1" filter="url(#filter-4)" xlink:href="#path-3"></use>
                    <path stroke="url(#linearGradient-2)" stroke-width="0.9975" d="M68.1223502,20.49875 C69.3272353,20.49875 70.418054,20.9871262 71.2076514,21.7767236 C71.9972488,22.566321 72.485625,23.6571397 72.485625,24.8620248 L72.485625,64.4769583 C72.485625,65.6818433 71.9972488,66.772662 71.2076514,67.5622595 C70.418054,68.3518569 69.3272353,68.8402331 68.1223502,68.8402331 L10.8463998,68.8402331 C9.64151472,68.8402331 8.55069603,68.3518569 7.7610986,67.5622595 C6.97150117,66.772662 6.483125,65.6818433 6.483125,64.4769583 L6.483125,24.8620248 C6.483125,23.6571397 6.97150117,22.566321 7.7610986,21.7767236 C8.55069603,20.9871262 9.64151472,20.49875 10.8463998,20.49875 Z" stroke-linejoin="square" fill="url(#linearGradient-1)" fill-rule="evenodd"></path>
                </g>
                <g id="路径-5">
                    <use fill="black" fill-opacity="1" filter="url(#filter-6)" xlink:href="#path-5"></use>
                    <use fill="#FFFFFF" fill-rule="evenodd" xlink:href="#path-5"></use>
                </g>
            </g>
        </g>
    </g>
</svg>