<?xml version="1.0" encoding="UTF-8"?>
<svg width="81px" height="81px" viewBox="0 0 81 81" version="1.1" xmlns="http://www.w3.org/2000/svg" xmlns:xlink="http://www.w3.org/1999/xlink">
    <title>编组 291</title>
    <defs>
        <linearGradient x1="50%" y1="0%" x2="50%" y2="100%" id="linearGradient-1">
            <stop stop-color="#FFFFFF" stop-opacity="0" offset="0%"></stop>
            <stop stop-color="#FFFFFF" offset="100%"></stop>
        </linearGradient>
    </defs>
    <g id="页面-1" stroke="none" stroke-width="1" fill="none" fill-rule="evenodd">
        <g id="图标样式" transform="translate(-87.000000, -51.000000)" fill-rule="nonzero">
            <g id="编组-29" transform="translate(87.250000, 51.262452)">
                <rect id="矩形" fill="url(#linearGradient-1)" opacity="0" x="0" y="0" width="80" height="80"></rect>
                <g id="形状-2" transform="translate(28.054054, 14.657143)" fill="#0C71FF" stroke="#639DFF">
                    <path d="M22.4104322,0 C14.9903509,0 8.9641389,5.93385629 8.9641389,13.2571286 C8.9641389,20.5804009 14.9876902,26.5142572 22.4104888,26.5142572 C29.8358349,26.5142572 35.8593861,20.5804009 35.8593861,13.2571286 C35.8593861,5.93385629 29.8410431,0 22.4104322,0 Z M22.4104322,0 C14.9903509,0 8.9641389,5.93385629 8.9641389,13.2571286 C8.9641389,20.5804009 14.9876902,26.5142572 22.4104888,26.5142572 C29.8358349,26.5142572 35.8593861,20.5804009 35.8593861,13.2571286 C35.8593861,5.93385629 29.8410431,0 22.4104322,0 Z M17.3723605,30.9342305 C7.77842721,30.9342305 0,38.6021368 0,48.0571268 L0,49.1574491 C0,53.0258941 7.77842721,53.0285714 17.3723605,53.0285714 L28.5789069,53.0285714 C38.1701794,53.0285714 45.9459459,52.8853632 45.9459459,49.1574491 L45.9459459,48.0571838 C45.9459459,38.6021938 38.1701794,30.9342305 28.5789069,30.9342305 L17.3723605,30.9342305 L17.3723605,30.9342305 Z" id="形状"></path>
                </g>
            </g>
        </g>
    </g>
</svg>