<?xml version="1.0" encoding="UTF-8"?>
<svg width="451px" height="522px" viewBox="0 0 451 522" version="1.1" xmlns="http://www.w3.org/2000/svg" xmlns:xlink="http://www.w3.org/1999/xlink">
    <title>编组 97备份 2</title>
    <g id="页面-1" stroke="none" stroke-width="1" fill="none" fill-rule="evenodd">
        <g id="编组-97备份-2">
            <g id="编组-21">
                <text id="用户画像洞察" font-family="PingFangSC-Medium, PingFang SC" font-size="36" font-weight="400" line-spacing="56" fill="#000000" fill-opacity="0.8">
                    <tspan x="0" y="38">用户画像洞察</tspan>
                </text>
                <g id="编组-19" transform="translate(2.000000, 96.000000)">
                    <text id="客户与内容标签" font-family="PingFangSC-Medium, PingFang SC" font-size="22" font-weight="400" line-spacing="28" fill="#000000" fill-opacity="0.8">
                        <tspan x="68" y="23">客户与内容标签</tspan>
                    </text>
                    <text id="构建系统化的多层级结构化客户标签和内容标" font-family="PingFangSC-Regular, PingFang SC" font-size="16" font-weight="normal" line-spacing="24" fill="#000000" fill-opacity="0.65">
                        <tspan x="68" y="53">构建系统化的多层级结构化客户标签和内容标签体</tspan>
                        <tspan x="68" y="77">系，提升分析效率</tspan>
                    </text>
                    <g id="编组-90">
                        <g id="编组-18" fill="#FFFFFF">
                            <rect id="矩形" x="0" y="0" width="48" height="48" rx="8"></rect>
                        </g>
                        <g id="标签" transform="translate(14.089549, 14.190140)" fill-rule="nonzero">
                            <rect id="矩形" fill="#000000" opacity="0" x="0" y="0" width="20" height="20"></rect>
                            <path d="M9.41554688,19.6755469 C9.56,19.82 9.75333984,19.9 9.95777344,19.9 C10.1611213,19.9 10.3561524,19.8192766 10.5,19.6755469 L19.7177734,10.4577734 C19.8666602,10.3088867 19.9466797,10.1066602 19.9424029,9.89554688 L19.7244531,1.22222656 C19.7133203,0.82 19.3955469,0.495546875 18.9955469,0.475546875 L10.1022266,0.0422265625 C9.88666016,0.03109375 9.67554688,0.113320312 9.52222656,0.266660156 L0.306640625,9.48222656 C0.006640625,9.78222656 0.006640625,10.2666602 0.306640625,10.5666602 L9.41552734,19.6755469 L9.41554688,19.6755469 Z M10.3666602,1.59111328 L18.2066602,1.97333984 L18.3977734,9.60666016 L9.95777344,18.0488867 L1.93333984,10.0244531 L10.3666602,1.59111328 Z M12.2333398,6.22888672 L7.13777344,11.3266602 C6.98888672,11.4755469 6.79109375,11.5511133 6.59554688,11.5511133 C6.4,11.5511133 6.20222656,11.4755469 6.05333984,11.3266602 C5.75333984,11.0266602 5.75333984,10.5422266 6.05333984,10.2422266 L11.1488867,5.14666016 C11.4488867,4.84666016 11.9333398,4.84666016 12.2333398,5.14666016 C12.5333398,5.44445312 12.5333398,5.93111328 12.2333398,6.22888672 Z M9.95777344,14.1444531 C9.80888672,14.2933398 9.61109375,14.3688867 9.41554687,14.3688867 C9.22,14.3688867 9.02222656,14.2933398 8.87333984,14.1444531 C8.57333984,13.8444531 8.57333984,13.36 8.87333984,13.06 L12.2355469,9.69777344 C12.5355469,9.39777344 13.02,9.39777344 13.32,9.69777344 C13.62,9.99777344 13.62,10.4822266 13.32,10.7822266 L9.95777344,14.1444531 Z M15.7044531,4.49554688 C15.3444531,4.13554688 15.3444531,3.55333984 15.7044531,3.19333984 C16.0644531,2.83333984 16.6466602,2.83333984 17.0066602,3.19333984 C17.3666602,3.55333984 17.3666602,4.13554687 17.0066602,4.49554688 C16.6466602,4.85333984 16.0644531,4.85333984 15.7044531,4.49554688 Z" id="形状" fill="#333303"></path>
                        </g>
                    </g>
                </g>
                <g id="编组-20" transform="translate(0.000000, 210.000000)">
                    <text id="智能标签提取" font-family="PingFangSC-Medium, PingFang SC" font-size="22" font-weight="400" line-spacing="28" fill="#000000" fill-opacity="0.8">
                        <tspan x="68" y="23">智能标签提取</tspan>
                    </text>
                    <text id="运用自然语言处理技术，在各类沟通场景中非" font-family="PingFangSC-Regular, PingFang SC" font-size="16" font-weight="normal" line-spacing="24" fill="#000000" fill-opacity="0.65">
                        <tspan x="68" y="53">运用自然语言处理技术，在各类沟通场景中非结构化</tspan>
                        <tspan x="68" y="77">数据自动识别并生成智能标签</tspan>
                    </text>
                    <g id="编组-18">
                        <g id="编组-94">
                            <rect id="矩形" fill="#FFFFFF" x="0" y="0" width="48" height="48" rx="8"></rect>
                            <g id="标签间关系" transform="translate(12.000000, 12.000000)" fill-rule="nonzero">
                                <rect id="矩形" fill="#000000" opacity="0" x="0" y="0" width="24" height="24"></rect>
                                <path d="M20.46,14.1 C20.1,13.86 19.68,13.8 19.26,13.8 C18.6,13.8 18,14.04 17.52,14.52 L17.46,14.46 L15.36,13.26 C15.48,12.84 15.6,12.42 15.6,12 C15.6,10.2 14.28,8.76 12.6,8.46 L12.6,5.94 C13.62,5.7 14.4,4.74 14.4,3.6 C14.4,2.28 13.32,1.2 12,1.2 C10.68,1.2 9.6,2.28 9.6,3.6 C9.6,4.74 10.38,5.64 11.4,5.94 L11.4,8.46 C9.72,8.76 8.4,10.2 8.4,12 C8.4,12.42 8.46,12.84 8.64,13.26 L6.54,14.46 L6.48,14.52 C6,14.04 5.34,13.8 4.74,13.8 C4.32,13.8 3.9,13.92 3.54,14.1 C2.4,14.76 1.98,16.26 2.64,17.4 C3.06,18.18 3.9,18.6 4.74,18.6 C5.16,18.6 5.58,18.48 5.94,18.3 C6.9,17.76 7.32,16.62 7.02,15.54 L7.08,15.54 L9.18,14.34 C9.84,15.12 10.86,15.66 11.94,15.66 C13.02,15.66 14.04,15.18 14.7,14.34 L16.8,15.54 L16.86,15.54 C16.56,16.56 16.98,17.7 17.94,18.3 C18.3,18.54 18.72,18.6 19.14,18.6 C19.98,18.6 20.76,18.18 21.24,17.4 C22.02,16.26 21.6,14.76 20.46,14.1 L20.46,14.1 Z M5.34,17.22 C5.16,17.34 4.98,17.4 4.74,17.4 C4.32,17.4 3.9,17.16 3.72,16.8 C3.36,16.2 3.6,15.48 4.14,15.18 C4.32,15.06 4.5,15 4.74,15 C5.16,15 5.58,15.24 5.76,15.6 C6.12,16.2 5.88,16.92 5.34,17.22 L5.34,17.22 Z M10.8,3.6 C10.8,2.94 11.34,2.4 12,2.4 C12.66,2.4 13.2,2.94 13.2,3.6 C13.2,4.26 12.66,4.8 12,4.8 C11.34,4.8 10.8,4.26 10.8,3.6 L10.8,3.6 Z M12,14.4 C10.68,14.4 9.6,13.32 9.6,12 C9.6,10.68 10.68,9.6 12,9.6 C13.32,9.6 14.4,10.68 14.4,12 C14.4,13.32 13.32,14.4 12,14.4 Z M20.34,16.8 C20.1,17.16 19.74,17.4 19.32,17.4 C19.08,17.4 18.9,17.34 18.72,17.22 C18.12,16.86 17.94,16.14 18.3,15.6 C18.54,15.24 18.9,15 19.32,15 C19.56,15 19.74,15.06 19.92,15.18 C20.46,15.48 20.64,16.2 20.34,16.8 Z M16.26,18.6 L16.08,18.6 L15.96,18.66 C13.56,20.1 10.38,20.1 7.98,18.66 L7.86,18.6 L7.68,18.6 C7.32,18.6 7.08,18.84 7.08,19.2 C7.08,19.44 7.2,19.62 7.38,19.74 C8.76,20.58 10.32,21 11.94,21 C13.56,21 15.12,20.58 16.5,19.74 C16.68,19.62 16.86,19.44 16.86,19.2 C16.86,18.9 16.62,18.6 16.26,18.6 L16.26,18.6 Z" id="形状" fill="#040000"></path>
                                <path d="M3.6,12.78 C3.6,12.78 3.66,12.78 3.6,12.78 C3.96,12.72 4.26,12.48 4.2,12.12 L4.2,12 C4.2,9.18 5.76,6.54 8.22,5.16 C8.52,4.98 8.64,4.62 8.46,4.32 C8.28,4.02 7.92,3.9 7.62,4.08 C4.8,5.7 3,8.7 3,12 L3,12.24 C3.06,12.54 3.3,12.78 3.6,12.78 Z M15.78,5.16 C18.24,6.54 19.8,9.18 19.8,12 L19.8,12.12 C19.74,12.42 19.98,12.72 20.34,12.78 L20.4,12.78 C20.7,12.78 20.94,12.54 21,12.24 L21,12 C21,8.7 19.2,5.7 16.38,4.14 C16.08,3.96 15.72,4.08 15.54,4.38 C15.36,4.68 15.48,5.04 15.78,5.16 L15.78,5.16 Z" id="形状" fill="#040000"></path>
                            </g>
                        </g>
                        <g id="分层" transform="translate(40.000000, 140.000000)" fill-rule="nonzero">
                            <rect id="矩形" fill="#000000" opacity="0" x="0" y="0" width="8" height="8"></rect>
                            <polygon id="路径" fill="#515151" points="0.59165625 3.07949219 4 1.6005 7.40834375 3.07948437 4 4.52702344"></polygon>
                            <polygon id="路径" fill="#515151" points="0.59165625 4.84989844 1.73145312 4.30286719 4 5.25434375 6.3936875 4.24970312 7.40834375 4.84989062 4 6.39950781"></polygon>
                        </g>
                        <g id="客户分层" transform="translate(32.000000, 147.000000)" fill-rule="nonzero">
                            <rect id="矩形" fill="#000000" opacity="0" x="0" y="0" width="8" height="8"></rect>
                            <path d="M5.4,4.71666406 C5.23333594,4.63333594 5.01666406,4.56666406 4.83333594,4.5 C5.56666406,4.1 6.01666406,3.3 6,2.5 C6,2.15 5.91666406,1.81666406 5.75,1.5 C5.18333594,0.416664063 3.88333594,0.0166640625 2.83333594,0.6 C1.78333594,1.18333594 1.38333594,2.51666406 1.95,3.6 C2.15,3.98333594 2.45,4.3 2.83333594,4.5 C1.55,4.9 0.683335938,5.98333594 0.666664063,7.33333594 C0.666664063,7.43333594 0.75,7.5 0.833335938,7.5 C0.916671875,7.5 1,7.45 1,7.33333594 C1,5.86666406 2.31666406,4.66666406 3.83333594,4.66666406 C4.3,4.66666406 4.9,4.8 5.28333594,4.98333594 C5.38333594,5.05 5.5,4.76666406 5.4,4.71666406 L5.4,4.71666406 Z M7.15,6.76666406 C7.18333594,6.85 7.15,6.93333594 7.06666406,6.98333594 L7.05,6.98333594 L5.38333594,7.65 C5.36666406,7.66666406 5.33333594,7.66666406 5.28333594,7.66666406 L5.26666406,7.66666406 L3.6,7 C3.51666406,6.96666406 3.46666406,6.86666406 3.5,6.78333594 C3.53333594,6.7 3.61666406,6.66666406 3.7,6.68333594 L3.71666406,6.68333594 L5.31666406,7.33333594 L6.91666406,6.68333594 C7.01666406,6.65 7.11666406,6.68333594 7.15,6.76666406 L7.15,6.76666406 Z M7.15,6.1 C7.18333594,6.18333594 7.15,6.26666406 7.06666406,6.31666406 L7.05,6.31666406 L5.38333594,6.98333594 C5.36666406,7 5.33333594,7 5.28333594,7 L5.26666406,7 L3.6,6.33333594 C3.51666406,6.3 3.46666406,6.2 3.5,6.11666406 C3.53333594,6.03333594 3.61666406,6 3.7,6.01666406 L3.71666406,6.01666406 L5.31666406,6.66666406 L6.91666406,6.01666406 C7.01666406,5.98333594 7.11666406,6.01666406 7.15,6.1 L7.15,6.1 Z M3.83333594,0.666664063 C4.85,0.666664063 5.66666406,1.48333594 5.66666406,2.5 C5.66666406,3.51666406 4.85,4.33333594 3.83333594,4.33333594 C2.81667188,4.33333594 2,3.51666406 2,2.5 C2,1.48333594 2.81666406,0.666664063 3.83333594,0.666664063 Z M5.26666406,4.68333594 L3.6,5.35 C3.46666406,5.4 3.46666406,5.6 3.6,5.66666406 L5.26666406,6.33333594 C5.3,6.35 5.35,6.35 5.38333594,6.33333594 L7.05,5.66666406 C7.18333594,5.61666406 7.18333594,5.41666406 7.05,5.35 L5.38333594,4.68333594 C5.35,4.66666406 5.31666406,4.66666406 5.26666406,4.68333594 Z M5.33333594,5.01666406 L6.55,5.5 L5.33333594,5.98333594 L4.11666406,5.5 L5.33333594,5.01666406 Z" id="形状" fill="#FE5669"></path>
                        </g>
                    </g>
                </g>
                <g id="编组-19" transform="translate(0.000000, 324.000000)">
                    <text id="精准用户分层" font-family="PingFangSC-Medium, PingFang SC" font-size="22" font-weight="400" line-spacing="28" fill="#000000" fill-opacity="0.8">
                        <tspan x="68" y="23">精准用户分层</tspan>
                    </text>
                    <text id="结合先进Al算法，以多维度视角细化用户画" font-family="PingFangSC-Regular, PingFang SC" font-size="16" font-weight="normal" line-spacing="24" fill="#000000" fill-opacity="0.65">
                        <tspan x="68" y="53">结合先进Al算法，以多维度视角细化用户画像，实现</tspan>
                        <tspan x="68" y="77">精准分层</tspan>
                    </text>
                    <g id="编组-96">
                        <g id="编组-18" fill="#FFFFFF">
                            <rect id="矩形" x="0" y="0" width="48" height="48" rx="8"></rect>
                        </g>
                        <g id="客户分层" transform="translate(12.000000, 12.000000)" fill="#000000" fill-rule="nonzero">
                            <rect id="矩形" opacity="0" x="0" y="0" width="24" height="24"></rect>
                            <path d="M16.2,14.1499922 C15.7000078,13.9000078 15.0499922,13.6999922 14.5000078,13.5 C16.6999922,12.3 18.0499922,9.9 17.9999922,7.5 C17.9999922,6.45 17.7499922,5.44999219 17.25,4.5 C15.5500078,1.24999219 11.6500078,0.0499921875 8.50000781,1.8 C5.35000781,3.55000781 4.15000781,7.54999219 5.85,10.8 C6.45,11.9500078 7.35,12.9 8.50000781,13.5 C4.65,14.7 2.05000781,17.9500078 1.99999219,22.0000078 C1.99999219,22.3000078 2.25,22.5 2.50000781,22.5 C2.75001563,22.5 2.99999219,22.35 2.99999219,22.0000078 C2.99999219,17.5999922 6.94999219,13.9999922 11.5000078,13.9999922 C12.9,13.9999922 14.7,14.4 15.8500078,14.9500078 C16.1500078,15.15 16.4999922,14.2999922 16.2,14.1499922 L16.2,14.1499922 Z M21.45,20.2999922 C21.5500078,20.55 21.45,20.8000078 21.1999922,20.9500078 L21.15,20.9500078 L16.1500078,22.95 C16.0999922,22.9999922 16.0000078,22.9999922 15.8500078,22.9999922 L15.7999922,22.9999922 L10.8,21 C10.5499922,20.8999922 10.3999922,20.5999922 10.5,20.3500078 C10.6000078,20.1 10.8499922,19.9999922 11.1,20.0500078 L11.1499922,20.0500078 L15.9499922,22.0000078 L20.7499922,20.0500078 C21.0499922,19.95 21.3499922,20.0500078 21.45,20.2999922 L21.45,20.2999922 Z M21.45,18.3 C21.5500078,18.5500078 21.45,18.7999922 21.1999922,18.9499922 L21.15,18.9499922 L16.1500078,20.9500078 C16.0999922,21 16.0000078,21 15.8500078,21 L15.7999922,21 L10.8,19.0000078 C10.5499922,18.9 10.3999922,18.6 10.5,18.3499922 C10.6000078,18.1000078 10.8499922,18 11.1,18.0499922 L11.1499922,18.0499922 L15.9499922,19.9999922 L20.7499922,18.0499922 C21.0499922,17.9500078 21.3499922,18.0499922 21.45,18.3 L21.45,18.3 Z M11.5,1.99999219 C14.55,1.99999219 17,4.45000781 17,7.49999219 C17,10.5499922 14.55,13.0000078 11.5,13.0000078 C8.45001563,13.0000078 6,10.5499922 6,7.49999219 C6,4.45000781 8.44999219,1.99999219 11.5,1.99999219 Z M15.7999922,14.0500078 L10.8,16.05 C10.3999922,16.2 10.3999922,16.8 10.8,16.9999922 L15.7999922,19.0000078 C15.9,19.05 16.05,19.05 16.1500078,19.0000078 L21.15,16.9999922 C21.5500078,16.8499922 21.5500078,16.2499922 21.15,16.05 L16.1500078,14.0500078 C16.05,13.9999922 15.9499922,13.9999922 15.7999922,14.0500078 Z M16.0000078,15.0499922 L19.65,16.5 L16.0000078,17.9500078 L12.3499922,16.5 L16.0000078,15.0499922 Z" id="形状"></path>
                        </g>
                    </g>
                </g>
                <g id="编组-19备份" transform="translate(0.000000, 438.000000)">
                    <text id="模型预测标签" font-family="PingFangSC-Medium, PingFang SC" font-size="22" font-weight="400" line-spacing="28" fill="#000000" fill-opacity="0.8">
                        <tspan x="68" y="23">模型预测标签</tspan>
                    </text>
                    <text id="从实施中建立行业知识模型，Plus+的标" font-family="PingFangSC-Regular, PingFang SC" font-size="16" font-weight="normal" line-spacing="24" fill="#000000" fill-opacity="0.65">
                        <tspan x="68" y="53">从实施中建立行业知识模型，Plus+的标签体系，助力</tspan>
                        <tspan x="68" y="77">业务科学决策</tspan>
                    </text>
                    <g id="编组-18" fill="#FFFFFF">
                        <rect id="矩形" x="0" y="0" width="48" height="48" rx="8"></rect>
                    </g>
                </g>
            </g>
            <g id="评分模型管理" transform="translate(13.500000, 450.000000)" fill="#000000" fill-rule="nonzero">
                <rect id="矩形" opacity="0" x="0" y="0" width="24" height="24"></rect>
                <path d="M20.2476563,17.3320312 C19.8632813,17.3320312 19.5046875,17.4328125 19.1929688,17.6085937 L17.5921875,16.2351562 L17.5921875,10.1953125 L12.665625,7.58203125 L12.665625,6.08203125 C13.5890625,5.79609375 14.2617188,4.9359375 14.2617188,3.91875 C14.2617188,2.66953125 13.246875,1.6546875 11.9976563,1.6546875 C10.7484375,1.6546875 9.73359375,2.66953125 9.73359375,3.91875 C9.73359375,4.9078125 10.3710938,5.7515625 11.2570313,6.05859375 L11.2570313,7.6171875 L6.40078125,10.1953125 L6.40078125,16.2398437 L4.96875,17.671875 C4.63359375,17.45625 4.23515625,17.3320312 3.80859375,17.3320312 C2.62265625,17.3320312 1.659375,18.2976562 1.659375,19.48125 C1.659375,20.6648437 2.625,21.6304687 3.80859375,21.6304687 C4.99453125,21.6304687 5.9578125,20.6648437 5.9578125,19.48125 C5.9578125,19.2375 5.91796875,19.003125 5.84296875,18.7851562 L7.69453125,16.9335937 L11.9953125,19.21875 L16.265625,16.9523437 L18.2601563,18.6632812 C18.1546875,18.9164062 18.0984375,19.1929687 18.0984375,19.4835937 C18.0984375,20.6695312 19.0640625,21.6328125 20.2476563,21.6328125 C21.43125,21.6328125 22.396875,20.6671875 22.396875,19.4835937 C22.396875,18.3 21.4335938,17.3320312 20.2476563,17.3320312 Z M11.8828125,12.39375 L8.840625,10.7578125 L11.9976563,9.08203125 L14.9648438,10.6570313 L11.8828125,12.39375 Z M12.665625,13.565625 L15.9492188,11.7140625 L15.9492188,15.2601562 L12.665625,17.0039062 L12.665625,13.565625 Z M12,3.0609375 C12.4734375,3.0609375 12.8578125,3.4453125 12.8578125,3.91875 C12.8578125,4.3921875 12.4734375,4.7765625 12,4.7765625 C11.5265625,4.7765625 11.1421875,4.3921875 11.1421875,3.91875 C11.1421875,3.44765625 11.5265625,3.0609375 12,3.0609375 Z M3.80859375,20.2265625 C3.3984375,20.2265625 3.065625,19.89375 3.065625,19.4835937 C3.065625,19.0734375 3.3984375,18.740625 3.80859375,18.740625 C4.21875,18.740625 4.5515625,19.0734375 4.5515625,19.4835937 C4.5515625,19.89375 4.21875,20.2265625 3.80859375,20.2265625 Z M8.04140625,11.9273438 L11.259375,13.6546875 L11.259375,16.96875 L8.04140625,15.2625 L8.04140625,11.9273438 Z M20.2476563,20.2265625 C19.8375,20.2265625 19.5046875,19.89375 19.5046875,19.4835937 C19.5046875,19.0734375 19.8375,18.740625 20.2476563,18.740625 C20.6578125,18.740625 20.990625,19.0734375 20.990625,19.4835937 C20.990625,19.89375 20.6578125,20.2265625 20.2476563,20.2265625 Z" id="形状"></path>
            </g>
        </g>
    </g>
</svg>