<?xml version="1.0" encoding="UTF-8"?>
<svg width="450px" height="408px" viewBox="0 0 450 408" version="1.1" xmlns="http://www.w3.org/2000/svg" xmlns:xlink="http://www.w3.org/1999/xlink">
    <title>编组 21备份</title>
    <g id="页面-1" stroke="none" stroke-width="1" fill="none" fill-rule="evenodd">
        <g id="编组-21备份" transform="translate(0.000000, 0.000000)">
            <text id="个性化业务流程" font-family="PingFangSC-Medium, PingFang SC" font-size="36" font-weight="400" line-spacing="56" fill="#000000" fill-opacity="0.8">
                <tspan x="0" y="38">个性化业务流程</tspan>
            </text>
            <g id="编组-19" transform="translate(0.000000, 96.000000)">
                <text id="互动与内容管理" font-family="PingFangSC-Medium, PingFang SC" font-size="22" font-weight="400" line-spacing="28" fill="#000000" fill-opacity="0.8">
                    <tspan x="68" y="23">互动与内容管理</tspan>
                </text>
                <text id="利用所见即所得的策略搭建工具，便捷高效地" font-family="PingFangSC-Regular, PingFang SC" font-size="16" font-weight="normal" line-spacing="24" fill="#000000" fill-opacity="0.65">
                    <tspan x="68" y="53">利用所见即所得的策略搭建工具，便捷高效地进行策</tspan>
                    <tspan x="68" y="77">略设计和内容编辑</tspan>
                </text>
                <g id="编组-18">
                    <rect id="矩形" fill="#F6F7FA" x="0" y="0" width="48" height="48" rx="8"></rect>
                    <g id="配置管理" transform="translate(13.000000, 13.000000)" fill="#000000" fill-rule="nonzero">
                        <rect id="矩形" opacity="0" x="0" y="0" width="22" height="22"></rect>
                        <path d="M11.688209,11.0859375 L11.688209,2.0625 C11.688209,1.68284961 11.3771582,1.37504297 10.9974863,1.37504297 C10.6178145,1.37504297 10.3067422,1.68284961 10.3067422,2.0625 L10.3067422,11.087248 C9.12703516,11.3934219 8.24832422,12.4694238 8.24832422,13.7499355 C8.24832422,15.0323809 9.12533789,16.1096934 10.3128008,16.413998 C10.3089971,16.4425405 10.3069736,16.4712921 10.3067422,16.5000859 L10.3067422,19.937457 C10.3067422,20.3171289 10.6178145,20.624957 10.9974648,20.624957 C11.3771152,20.624957 11.688209,20.3171289 11.688209,19.937457 L11.688209,16.5001074 C11.6876647,16.4717639 11.6853831,16.4434803 11.681377,16.415416 C12.8713965,16.1127441 13.7524278,15.0339492 13.7524278,13.7501074 C13.7526641,12.4676621 12.8756504,11.3904141 11.688209,11.085959 L11.688209,11.0859375 Z M11.9722754,14.722168 C11.5084205,15.1860383 10.7814847,15.2576452 10.2360361,14.8931964 C9.69058755,14.5287476 9.47854269,13.8297482 9.72958065,13.2236814 C9.9806186,12.6176145 10.6248211,12.27328 11.2682169,12.4012605 C11.9116126,12.5292409 12.3750055,13.0938918 12.3750055,13.7498926 C12.376032,14.1148016 12.2310124,14.4649529 11.9722754,14.7222754 L11.9722754,14.722168 Z M4.80560352,4.21104492 C4.80947614,4.18253544 4.81157133,4.15381264 4.81187695,4.12504297 L4.81187695,2.06254297 C4.81187695,1.68320317 4.50436129,1.3756875 4.12502148,1.3756875 C3.74568168,1.3756875 3.43816602,1.68320317 3.43816602,2.06254297 L3.43816602,4.12504297 C3.43762687,4.15417079 3.43891848,4.18330371 3.4420332,4.21226953 C2.2545918,4.51650977 1.37581641,5.59375781 1.37581641,6.87635352 C1.37581641,8.15894922 2.25474219,9.23572461 3.44218359,9.54035156 C3.43915483,9.56844727 3.43784185,9.59670151 3.43825195,9.62495703 L3.43825195,19.9375 C3.43825195,20.3168398 3.74576762,20.6243555 4.12510742,20.6243555 C4.50444722,20.6243555 4.81196289,20.3168398 4.81196289,19.9375 L4.81196289,9.625 C4.81165173,9.59709724 4.80965722,9.56923867 4.80599023,9.54157617 C5.99592383,9.23888281 6.87600977,8.16008789 6.87600977,6.87633203 C6.87600977,5.59257617 5.9956875,4.51354492 4.80560352,4.21102344 L4.80560352,4.21104492 Z M5.09725391,7.84867187 C4.63339362,8.31252707 3.90646574,8.38412185 3.3610261,8.01967212 C2.81558646,7.65522239 2.60354569,6.95623122 2.85457824,6.35016961 C3.10561078,5.744108 3.74980144,5.39977046 4.39319269,5.52773807 C5.03658394,5.65570568 5.50000529,6.22033812 5.50000529,6.87633203 C5.50101472,7.24121877 5.35599648,7.59134364 5.09727539,7.84865039 L5.09725391,7.84867187 Z M20.624957,6.87635352 C20.624957,5.592125 19.7430664,4.51356641 18.5527461,4.21104492 C18.5557675,4.18248234 18.557016,4.15375998 18.5564844,4.12504297 L18.5564844,2.06254297 C18.5564844,1.68320317 18.2489687,1.3756875 17.8696289,1.3756875 C17.4902891,1.3756875 17.1827734,1.68320317 17.1827734,2.06254297 L17.1827734,4.12504297 C17.1830851,4.15422511 17.1852378,4.18335851 17.1892187,4.21226953 C16.0017559,4.51650977 15.1242051,5.59375781 15.1242051,6.87635352 C15.1242051,8.15894922 16.0011973,9.23611133 17.1886602,9.54041602 C17.1848627,9.56890872 17.1828392,9.59760985 17.1826016,9.62635352 L17.1826016,19.9375 C17.1826016,20.3168398 17.4901172,20.6243555 17.869457,20.6243555 C18.2487968,20.6243555 18.5563125,20.3168398 18.5563125,19.9375 L18.5563125,9.62633203 C18.5568462,9.59805531 18.5556552,9.56977236 18.5527461,9.54164063 C19.7431523,9.23905469 20.624957,8.16049609 20.624957,6.87633203 L20.624957,6.87635352 Z M18.8472109,7.84858594 C18.3833473,8.31237943 17.6564603,8.38391896 17.1110803,8.01945425 C16.5657003,7.65498954 16.3537213,6.95602773 16.6047799,6.35002158 C16.8558384,5.74401543 17.5000121,5.39974384 18.1433541,5.52774741 C18.7866961,5.65575098 19.2500049,6.22037941 19.2500049,6.87633203 C19.2509747,7.24119832 19.1059345,7.59128931 18.8472109,7.84856445 L18.8472109,7.84858594 Z" id="形状"></path>
                    </g>
                </g>
            </g>
            <g id="编组-20" transform="translate(0.000000, 210.000000)">
                <text id="精准流程管理" font-family="PingFangSC-Medium, PingFang SC" font-size="22" font-weight="400" line-spacing="28" fill="#000000" fill-opacity="0.8">
                    <tspan x="68" y="23">精准流程管理</tspan>
                </text>
                <text id="借助开箱即用的策略中心，轻松实现流程控制" font-family="PingFangSC-Regular, PingFang SC" font-size="16" font-weight="normal" line-spacing="24" fill="#000000" fill-opacity="0.65">
                    <tspan x="68" y="53">借助开箱即用的策略中心，轻松实现流程控制和策略</tspan>
                    <tspan x="68" y="77">管理</tspan>
                </text>
                <g id="编组-18">
                    <rect id="矩形" fill="#F6F7FA" x="0" y="0" width="48" height="48" rx="8"></rect>
                    <g id="工作流程-流程-状态_jurassic" transform="translate(14.000000, 14.000000)" fill="#000000" fill-rule="nonzero">
                        <rect id="矩形" opacity="0" x="0" y="0" width="20" height="20"></rect>
                        <path d="M18.75,9.375 L12.0273438,9.375 L10,7.34765625 L7.97265625,9.375 L2.5,9.375 L2.5,4.375 L5.625,4.375 L5.625,6.25 L18.125,6.25 L18.125,1.25 L5.625,1.25 L5.625,3.125 L1.25,3.125 L1.25,10.625 L7.97265625,10.625 L10,12.6523437 L12.0273438,10.625 L17.5,10.625 L17.5,15.625 L15,15.625 L15,13.75 L2.5,13.75 L2.5,18.75 L15,18.75 L15,16.875 L18.75,16.875 L18.75,9.375 Z M6.875,2.5 L16.875,2.5 L16.875,5 L6.875,5 L6.875,2.5 Z M13.75,17.5 L3.75,17.5 L3.75,15 L13.75,15 L13.75,17.5 Z" id="形状"></path>
                    </g>
                </g>
            </g>
            <g id="编组-19" transform="translate(0.000000, 324.000000)">
                <text id="全时沟通" font-family="PingFangSC-Medium, PingFang SC" font-size="22" font-weight="400" line-spacing="28" fill="#000000" fill-opacity="0.8">
                    <tspan x="68" y="23">全时沟通</tspan>
                </text>
                <text id="通过大规模个性化全链路用户运营，实现与用" font-family="PingFangSC-Regular, PingFang SC" font-size="16" font-weight="normal" line-spacing="24" fill="#000000" fill-opacity="0.65">
                    <tspan x="68" y="53">通过大规模个性化全链路用户运营，实现与用户的不</tspan>
                    <tspan x="68" y="77">间断沟通，提升用户满意度和忠诚度</tspan>
                </text>
                <g id="编组-18">
                    <rect id="矩形" fill="#F6F7FA" x="0" y="0" width="48" height="48" rx="8"></rect>
                    <g id="客服沟通" transform="translate(13.000000, 13.000000)" fill="#000000" fill-rule="nonzero">
                        <rect id="矩形" opacity="0" x="0" y="0" width="22" height="22"></rect>
                        <path d="M20.6254297,8.8312168 C20.1215566,4.61647656 16.0054941,1.33310547 11.0014395,1.33310547 C10.9215391,1.33310547 10.8392969,1.33310547 10.759418,1.33503906 C10.7319824,1.33503906 10.707168,1.33742383 10.6797324,1.33742383 C10.6246895,1.33935742 10.5717949,1.33935742 10.5173965,1.34174219 C10.484998,1.34367578 10.4549844,1.34606055 10.4226074,1.34606055 C10.3753418,1.34799414 10.3252402,1.35037891 10.2779531,1.35469727 L10.1758379,1.3609707 C10.1307207,1.36526758 10.0834551,1.36765234 10.0385312,1.3719707 C10.0035547,1.37411914 9.96857812,1.37845898 9.93360156,1.38060742 L9.80147266,1.39334766 C9.76649609,1.39764453 9.73151953,1.40198438 9.69654297,1.40434766 C9.65335937,1.40866602 9.61017578,1.41493945 9.56699219,1.41925781 C9.53203711,1.42355469 9.49706055,1.42789453 9.46229883,1.43457617 L9.33513281,1.45380469 C9.30015625,1.45831641 9.26517969,1.46458984 9.23020312,1.4689082 C9.18701953,1.47539648 9.14536133,1.48186328 9.10305859,1.4905 C9.06808203,1.4969668 9.03310547,1.50345508 8.99812891,1.50777344 C8.95494531,1.51641016 8.91348047,1.52287695 8.87354102,1.53151367 L8.77121094,1.55095703 C8.72802734,1.55959375 8.68634766,1.56823047 8.64642969,1.57686719 C8.61405273,1.58333398 8.57907617,1.5919707 8.54667773,1.5984375 C8.50349414,1.60707422 8.46181445,1.61788086 8.41951172,1.62866602 C8.38691992,1.63730273 8.35475781,1.64379102 8.32214453,1.65242773 C8.27896094,1.66321289 8.23730273,1.67401953 8.19259375,1.68480469 C8.16281641,1.69344141 8.13043945,1.69992969 8.10042578,1.70854492 C8.05552344,1.7215 8.01062109,1.73445508 7.96571875,1.74526172 C7.9382832,1.75389844 7.90826953,1.76036523 7.88085547,1.76900195 C7.82839062,1.78412695 7.77852539,1.79923047 7.72863867,1.81650391 C7.70706836,1.8229707 7.68545508,1.82924414 7.66388477,1.83592578 C7.59154687,1.8596875 7.52159375,1.88125781 7.44927734,1.90718945 L7.4119375,1.92014453 C7.35450977,1.93935156 7.29469727,1.9611582 7.23726953,1.98253516 C7.21221875,1.99117188 7.1874043,2.00195703 7.16235352,2.01059375 L7.02786133,2.06241406 C7.00042578,2.07319922 6.97041211,2.08400586 6.94299805,2.09696094 C6.90305859,2.11423438 6.86051953,2.12933789 6.82058008,2.14658984 C6.79080273,2.15956641 6.76078906,2.17035156 6.73421289,2.18332813 C6.69429492,2.20058008 6.65693359,2.21570508 6.61699414,2.23295703 L6.52718945,2.27184375 L6.41491211,2.32364258 C6.38489844,2.33638281 6.35490625,2.35172266 6.32510742,2.36682617 C6.28811768,2.38400096 6.25147932,2.40192259 6.21521484,2.42058008 L6.125625,2.46591211 C6.09064844,2.48318555 6.05307227,2.50262891 6.01766602,2.51990234 C5.98786719,2.53500586 5.96045313,2.55013086 5.93129883,2.56523438 C5.89655859,2.58465625 5.86158203,2.60409961 5.82660547,2.62137305 C5.79680664,2.63647656 5.76917773,2.65375 5.74174219,2.66885352 C5.70676563,2.68829688 5.67202539,2.70774023 5.63704883,2.72931055 C5.60961328,2.74443555 5.58198438,2.76170898 5.55218555,2.77898242 C5.51720898,2.7984043 5.48223242,2.81999609 5.44749219,2.84158789 C5.42005664,2.85864648 5.39264258,2.87396484 5.36520703,2.89123828 C5.33025195,2.91283008 5.29527539,2.93442188 5.26289844,2.95601367 C5.23546289,2.97328711 5.21043359,2.98839063 5.18559766,3.00566406 C5.15040625,3.0294043 5.11564453,3.05314453 5.08066797,3.07475781 C5.05585352,3.09203125 5.03080273,3.10713477 5.00835156,3.12438672 C4.97099023,3.15031836 4.93365039,3.17622852 4.89867383,3.20213867 C4.87708203,3.21724219 4.85377148,3.2323457 4.83389844,3.2474707 C4.79041384,3.2787189 4.74722828,3.31038115 4.70434766,3.34245313 C4.68945898,3.35304492 4.67695508,3.36168164 4.66118555,3.37268164 C4.60375781,3.41586523 4.54892969,3.45904883 4.49408008,3.50223242 C4.47897656,3.51301758 4.46666602,3.52597266 4.45089648,3.5367793 C4.41095703,3.56915625 4.3686543,3.6015332 4.32871484,3.63608008 C4.3088418,3.65335352 4.28896875,3.67062695 4.26890234,3.68573047 C4.23457421,3.71325101 4.20129975,3.74206068 4.16915039,3.77209766 C4.14755859,3.79173438 4.1259668,3.81117773 4.10439648,3.83038477 C4.07459766,3.85867969 4.04198438,3.88435352 4.01220703,3.91264844 C3.99061523,3.93185547 3.96730469,3.95346875 3.94483203,3.97289063 C3.91483984,3.9987793 3.8874043,4.02685938 3.85846484,4.05276953 L3.79113281,4.11752344 C3.76369727,4.14343359 3.73606836,4.17151367 3.70863281,4.19957227 C3.68585582,4.22069484 3.66423953,4.2430355 3.64387891,4.26649609 C3.61646484,4.29457617 3.58905078,4.32046484 3.564,4.34854492 C3.5424082,4.37013672 3.52081641,4.39387695 3.49922461,4.41742383 C3.47419531,4.44548242 3.44675977,4.47354102 3.42194531,4.50162109 C3.40185742,4.52536133 3.37876172,4.54695312 3.35955469,4.57069336 C3.33450391,4.59877344 3.30945313,4.62683203 3.28463867,4.65706055 L3.22482617,4.72830273 C3.19977539,4.75636133 3.17474609,4.78658984 3.14991016,4.81466992 L3.09009766,4.88569727 C3.06506836,4.91614063 3.04261719,4.94636914 3.01778125,4.97636133 C2.99769336,5.00033789 2.98020508,5.02386328 2.9627168,5.047625 C2.93790234,5.07783203 2.91545117,5.11023047 2.89061523,5.1404375 C2.87291211,5.16419922 2.85563867,5.18793945 2.83793555,5.20953125 C2.81309961,5.24192969 2.79066992,5.27647656 2.76583398,5.30885352 C2.75070898,5.33044531 2.7332207,5.3539707 2.71833203,5.37577734 L2.64341602,5.48588477 C2.63110547,5.5050918 2.61600195,5.52453516 2.60345508,5.54612695 C2.57109961,5.59360742 2.54130078,5.6432793 2.50870898,5.69292969 L2.49379883,5.71883984 C2.45882227,5.77712695 2.42148242,5.83326563 2.38908398,5.89157422 C2.3791582,5.90882617 2.36901758,5.9280332 2.35907031,5.94530664 C2.33747852,5.9863418 2.31158984,6.02735547 2.28935352,6.06836914 C2.27682813,6.09213086 2.26430273,6.11370117 2.25177734,6.13746289 L2.19196484,6.24757031 C2.17958433,6.27323919 2.16626214,6.29844314 2.15202539,6.32313086 C2.13415091,6.35812902 2.11666157,6.39332255 2.09956055,6.42870508 C2.08727148,6.45461523 2.07474609,6.48267383 2.0622207,6.50858398 C2.04473242,6.54313086 2.02984375,6.57767773 2.01235547,6.61222461 C1.99983008,6.6402832 1.98751953,6.66619336 1.97499414,6.69425195 L1.92858789,6.79529297 C1.9160625,6.82337305 1.90699609,6.85143164 1.89361133,6.87929688 C1.87870117,6.91403711 1.86617578,6.94836914 1.85042773,6.98291602 C1.83815189,7.01112693 1.8273451,7.03995459 1.81805078,7.0692832 C1.80531055,7.10380859 1.79040039,7.13835547 1.77808984,7.17290234 C1.76794922,7.20096094 1.75802344,7.23118945 1.74809766,7.25926953 C1.73557227,7.29381641 1.72304688,7.33029688 1.71073633,7.36484375 C1.7005957,7.39290234 1.69066992,7.42313086 1.68332227,7.45121094 C1.67079688,7.48790625 1.66173047,7.52243164 1.65073047,7.55914844 C1.6407832,7.58720703 1.63324219,7.61743555 1.62589453,7.64551562 L1.59588086,7.75560156 C1.58799848,7.784215 1.58079917,7.81301224 1.57428906,7.84196875 C1.56436328,7.88104883 1.5544375,7.9175293 1.546875,7.95660937 C1.5393125,7.98445312 1.53177148,8.0125332 1.52678711,8.04061328 C1.51707617,8.08160547 1.50953516,8.1204707 1.49937305,8.16150586 C1.49443164,8.18739453 1.4870625,8.21330469 1.48209961,8.24138477 C1.47195898,8.2867168 1.46439648,8.33204883 1.45707031,8.37716602 C1.45208594,8.39875781 1.44972266,8.42034961 1.44454492,8.44194141 C1.43201953,8.50865039 1.42295313,8.57557422 1.41214648,8.64466797 C1.41255419,8.64914458 1.41165887,8.65364359 1.40956836,8.65762305 C1.39964258,8.71808008 1.39229492,8.78068555 1.38473242,8.84092773 C1.34940798,8.98316025 1.33170809,9.12919693 1.3320269,9.27575 L1.3320269,11.3267559 C1.3320269,12.5005977 2.42966797,13.4479512 3.7844082,13.4479512 C5.13914844,13.4479512 6.23657031,12.497998 6.23657031,11.3267559 L6.23657031,9.27575 C6.23657031,8.10169336 5.13871875,7.15433984 3.7844082,7.15433984 C3.60528018,7.15421038 3.42653254,7.17083288 3.2505,7.20399023 C3.26538867,7.16944336 3.28029883,7.13489648 3.29540234,7.10251953 C3.29766179,7.09556089 3.30101212,7.08900527 3.30532812,7.08309766 C3.32691992,7.03342578 3.35023047,6.98616016 3.37506641,6.93648828 C3.3827968,6.92327399 3.38951209,6.90949149 3.3951543,6.89525977 C3.41264258,6.86092773 3.43013086,6.82423242 3.44761914,6.78968555 C3.45494531,6.77458203 3.46487109,6.75730859 3.47243359,6.74220508 C3.49252148,6.70763672 3.50979492,6.67094141 3.52986133,6.63639453 C3.53741903,6.62393831 3.5440609,6.61094898 3.54973437,6.5975293 C3.57714844,6.55004883 3.60219922,6.50254688 3.62961328,6.45721484 L3.64450195,6.43130469 C3.66609375,6.3926543 3.69200391,6.35574414 3.71445508,6.31709375 C3.72440802,6.30249114 3.73355955,6.28735813 3.74186914,6.27176172 C3.76195703,6.23936328 3.78505273,6.20698633 3.80428125,6.17458789 C3.81433356,6.16079456 3.82349039,6.14637039 3.83169531,6.1314043 C3.85910937,6.09039062 3.88652344,6.05154687 3.9139375,6.01268164 C3.91653711,6.00836328 3.9215,6.001875 3.92409961,5.99755664 C3.95647656,5.95222461 3.98627539,5.90904102 4.01886719,5.86392383 C4.02879659,5.85151949 4.03788336,5.83846353 4.04606641,5.82484375 C4.07111719,5.79268164 4.09356836,5.76223828 4.11861914,5.73007617 C4.12854492,5.71495117 4.14021094,5.70199609 4.15099609,5.68689258 C4.17583203,5.65449414 4.20088281,5.62211719 4.22829687,5.59188867 C4.23822266,5.58110352 4.24578516,5.57029687 4.25592578,5.5573418 C4.2906875,5.5141582 4.32566406,5.47314453 4.36388477,5.43213086 C4.37124853,5.42489084 4.37796306,5.41701888 4.38395117,5.40860547 C4.41375,5.37405859 4.44376367,5.34166016 4.47354102,5.30711328 C4.48585431,5.29476998 4.49752841,5.28180514 4.50851758,5.26826953 C4.53595312,5.24018945 4.56098242,5.20996094 4.58841797,5.18190234 C4.60071853,5.16954589 4.61238518,5.15657419 4.62337305,5.14303711 C4.65834961,5.1063418 4.69332617,5.07179492 4.72808789,5.03509961 C4.73305078,5.03078125 4.73565039,5.02646289 4.74061328,5.02214453 L4.86043164,4.90554883 C4.87312139,4.89519839 4.88476445,4.88362729 4.89519336,4.87100195 C4.92520703,4.8431582 4.9552207,4.81509961 4.98499805,4.78918945 C4.99826719,4.77569191 5.01271956,4.763411 5.02818164,4.75249414 C5.06058008,4.72441406 5.09035742,4.69635547 5.1229707,4.66827539 L5.15534766,4.6402168 C5.19853125,4.60352148 5.24021094,4.56680469 5.28489844,4.5322793 C5.2935721,4.52451126 5.3027284,4.5172996 5.3123125,4.5106875 C5.34707422,4.48260742 5.38205078,4.45237891 5.42025,4.42432031 C5.43516016,4.41332031 5.45004883,4.40058008 5.46343359,4.38955859 C5.49583203,4.3660332 5.52820898,4.34012305 5.56080078,4.31638281 C5.57571094,4.30536133 5.58823633,4.29479102 5.60398437,4.28398437 C5.64716797,4.25375586 5.68624805,4.22137891 5.72876562,4.19117187 C5.73375,4.18900195 5.73632812,4.18468359 5.74129102,4.18251367 C5.78857812,4.15013672 5.83348047,4.11773828 5.88098242,4.08536133 C5.89587109,4.07672461 5.90839648,4.06593945 5.92416602,4.05730273 C5.95914258,4.03354102 5.99411914,4.0119707 6.02888086,3.98820898 C6.04424161,3.97741878 6.06008477,3.9673322 6.07636133,3.95798047 C6.11372266,3.93424023 6.14869922,3.91071484 6.18603906,3.88912305 C6.19856445,3.88048633 6.21108984,3.8737832 6.22361523,3.86536133 C6.27348047,3.83513281 6.32076758,3.8049043 6.37084766,3.7768457 C6.38081668,3.76964987 6.39171546,3.76383911 6.40324609,3.75957227 C6.44318555,3.73583203 6.48291016,3.71424023 6.52284961,3.69047852 C6.54033789,3.6818418 6.55522656,3.67105664 6.57292969,3.66241992 C6.61029102,3.64299805 6.64503125,3.62355469 6.68260742,3.60413281 C6.69749609,3.59549609 6.71498437,3.58685937 6.72987305,3.57822266 C6.77739648,3.5523125 6.82726172,3.52857227 6.87476367,3.50481055 C6.87970508,3.50266211 6.88208984,3.50051367 6.88705273,3.49834375 C6.93951758,3.47243359 6.99176758,3.44652344 7.04423242,3.4227832 C7.05912109,3.41650977 7.07660937,3.40787305 7.09171289,3.40119141 C7.1290957,3.38391797 7.16901367,3.36685937 7.206375,3.34958594 C7.22386328,3.34094922 7.24135156,3.33426758 7.26120312,3.3258457 C7.30116406,3.30857227 7.34370312,3.28912891 7.38600586,3.27185547 C7.39853125,3.26538867 7.41341992,3.26107031 7.42594531,3.25458203 C7.48077344,3.2308418 7.53583789,3.20925 7.59045117,3.1876582 C7.6022753,3.1837999 7.61394317,3.1794782 7.62542773,3.17470312 C7.67033008,3.15742969 7.71286914,3.14017773 7.75777148,3.12507422 C7.77525977,3.11858594 7.79513281,3.11209766 7.81262109,3.10563086 C7.85256055,3.09050586 7.89228516,3.07755078 7.93243945,3.06244727 C7.94950912,3.05568855 7.96695483,3.04992114 7.98468945,3.04517383 C8.03973242,3.02790039 8.09262695,3.00847852 8.14681055,2.99120508 C8.14941016,2.99120508 8.15179492,2.98905664 8.15437305,2.98905664 C8.21180078,2.97176172 8.26901367,2.95231836 8.32710742,2.93721484 C8.34457422,2.93291797 8.3620625,2.92664453 8.37955078,2.92232617 C8.42273437,2.90915625 8.46441406,2.89837109 8.50435352,2.8877793 C8.52420508,2.88348242 8.54429297,2.87699414 8.56156641,2.87267578 C8.60646875,2.8597207 8.65137109,2.84869922 8.69627344,2.83812891 C8.71139844,2.83381055 8.72628711,2.83164062 8.73945703,2.82732227 C8.79926953,2.81221875 8.85906055,2.79904883 8.91906641,2.78630859 C8.93139844,2.78416016 8.94650195,2.7798418 8.9588125,2.77767187 C9.00629297,2.76688672 9.05379492,2.75825 9.10108203,2.74744336 L9.16089453,2.73448828 C9.20407812,2.72585156 9.24833594,2.71721484 9.29044531,2.71074805 C9.31051172,2.70642969 9.32778516,2.70428125 9.34785156,2.69996289 C9.40766406,2.68915625 9.46766992,2.68051953 9.52746094,2.66973437 L9.53244531,2.66973437 C9.59483594,2.66109766 9.65722656,2.65246094 9.71703906,2.64382422 L9.7744668,2.63733594 C9.81936914,2.63086914 9.86427148,2.62655078 9.90917383,2.6200625 L9.97158594,2.6135957 C10.0188516,2.60927734 10.0687383,2.60281055 10.1162402,2.59849219 C10.1311289,2.59632227 10.1460176,2.59632227 10.1611426,2.59417383 C10.2235332,2.58768555 10.2883086,2.58336719 10.3506992,2.57904883 C10.3655879,2.57904883 10.3807129,2.57690039 10.3956016,2.57690039 C10.4454668,2.57475195 10.4953535,2.57041211 10.542834,2.56826367 C10.562707,2.56826367 10.5860176,2.56611523 10.6050312,2.56611523 C10.6501484,2.56394531 10.6974141,2.56177539 10.7423164,2.56177539 C10.7621895,2.56177539 10.7822773,2.55962695 10.8021289,2.55962695 C10.8669043,2.55747852 10.9316797,2.55747852 10.9964336,2.55747852 C14.5511738,2.55747852 17.5795684,4.49319922 18.7544844,7.21241211 C18.5785744,7.17865425 18.3999094,7.16130632 18.220791,7.1605918 C16.8686289,7.1605918 15.7686289,8.11054492 15.7686289,9.28200195 L15.7686289,11.3319336 C15.7686289,12.5059902 16.8662656,13.4533438 18.220791,13.4533438 C18.435781,13.4535273 18.6500736,13.4288935 18.8594141,13.3799316 C17.951334,15.7561035 15.6244043,17.5884199 12.7400195,18.1214687 C12.4008457,17.668084 11.8097246,17.3658203 11.1385098,17.3658203 C10.0857754,17.3658203 9.23018164,18.1039805 9.23018164,19.0167871 C9.23018164,19.9295937 10.0834121,20.6677539 11.1385098,20.6677539 C12.076582,20.6677539 12.8574746,20.0807363 13.0168027,19.3058594 C17.2477207,18.5314766 20.4583457,15.3664199 20.6679687,11.5178594 C20.6759045,11.451288 20.6800862,11.3843227 20.6804941,11.3172813 L20.6804941,9.26625391 C20.6786855,9.11934136 20.6602198,8.97310794 20.6254512,8.83035742 L20.6254297,8.8312168 Z M3.7768457,8.35407031 C4.35978125,8.35407031 4.8321582,8.76212305 4.8321582,9.26711328 L4.8321582,11.3181191 C4.8321582,11.8209395 4.35718164,12.2309258 3.7768457,12.2309258 C3.19650977,12.2309258 2.72174766,11.8228945 2.72174766,11.3181191 L2.72174766,9.70300977 C2.72166717,9.4780214 2.73421948,9.25320596 2.7593457,9.029625 C2.87892773,8.64099414 3.2906543,8.35407031 3.7768457,8.35407031 L3.7768457,8.35407031 Z M18.2257324,12.232 C17.6428184,12.232 17.1706562,11.8243984 17.1706562,11.3191934 L17.1706562,9.2681875 C17.1706562,8.76558203 17.6456328,8.35538086 18.2257539,8.35538086 C18.7147383,8.35538086 19.1236719,8.64034961 19.2460684,9.02874414 C19.2710683,9.25305962 19.2835414,9.47859456 19.2834304,9.70429883 L19.2834304,11.1199258 C19.2834304,11.2235664 19.2810664,11.3293555 19.276082,11.4327598 C19.2087285,11.8794629 18.7620254,12.2315918 18.2257539,12.2315918 L18.2257324,12.232 Z" id="形状"></path>
                    </g>
                </g>
            </g>
        </g>
    </g>
</svg>