<?xml version="1.0" encoding="UTF-8"?>
<svg width="450px" height="474px" viewBox="0 0 450 474" version="1.1" xmlns="http://www.w3.org/2000/svg" xmlns:xlink="http://www.w3.org/1999/xlink">
    <title>编组 78备份</title>
    <g id="页面-1" stroke="none" stroke-width="1" fill="none" fill-rule="evenodd">
        <g id="编组-78备份">
            <text id="灵活搭建营销画布" font-family="PingFangSC-Medium, PingFang SC" font-size="36" font-weight="400" line-spacing="56" fill="#000000" fill-opacity="0.8">
                <tspan x="0" y="38">灵活搭建营销画布</tspan>
            </text>
            <g id="编组-19" transform="translate(0.000000, 96.000000)">
                <text id="保持敏捷" font-family="PingFangSC-Medium, PingFang SC" font-size="22" font-weight="400" line-spacing="28" fill="#000000" fill-opacity="0.8">
                    <tspan x="68" y="23">保持敏捷</tspan>
                </text>
                <text id="持续敏捷营销与智能策略迭代，以适应场景的" font-family="PingFangSC-Regular, PingFang SC" font-size="16" font-weight="normal" line-spacing="24" fill="#000000" fill-opacity="0.65">
                    <tspan x="68" y="53">持续敏捷营销与智能策略迭代，以适应场景的变化</tspan>
                </text>
                <g id="编组-18">
                    <rect id="矩形" fill="#F6F7FA" x="0" y="0" width="48" height="48" rx="8"></rect>
                    <g id="访问策略" transform="translate(15.000000, 15.000000)" fill="#000000" fill-rule="nonzero">
                        <rect id="矩形" opacity="0" x="0" y="0" width="17.9927959" height="17.9988048"></rect>
                        <path d="M12.9116233,13.7582934 L13.7596919,12.9099415 L18,17.1516657 L17.1519314,18 L12.9116233,13.7582934 Z M9.09233608,9.09537257 L11.2035025,15.4549796 L13.7464785,12.9111368 L15.4498023,11.2072616 L9.09233608,9.09537257 L9.09233608,9.09537257 Z" id="形状"></path>
                        <polygon id="路径" points="11.9952031 4.79968713 11.9952031 7.19952191 13.1947111 7.19952191 13.1947111 3.59976095 3.59855917 3.59976095 3.59855917 13.1991176 7.19711834 13.1991176 7.19711834 11.999209 4.79808475 11.999209 4.79808475 4.79968713"></polygon>
                        <polygon id="路径" points="0 0 0 17.9988048 13.1947111 17.9988048 13.1947111 16.7988786 1.19952558 16.7988786 1.19952558 1.19992618 16.7932703 1.19992618 16.7932703 13.1991176 17.9927959 13.1991176 17.9927959 0"></polygon>
                    </g>
                </g>
            </g>
            <g id="编组-20" transform="translate(0.000000, 186.000000)">
                <text id="高效测试" font-family="PingFangSC-Medium, PingFang SC" font-size="22" font-weight="400" line-spacing="28" fill="#000000" fill-opacity="0.8">
                    <tspan x="68" y="23">高效测试</tspan>
                </text>
                <text id="通过A/B测试方法，迅速确定运营策略的核" font-family="PingFangSC-Regular, PingFang SC" font-size="16" font-weight="normal" line-spacing="24" fill="#000000" fill-opacity="0.65">
                    <tspan x="68" y="53">通过A/B测试方法，迅速确定运营策略的核心要素</tspan>
                </text>
                <g id="编组-18">
                    <rect id="矩形" fill="#F6F7FA" x="0" y="0" width="48" height="48" rx="8"></rect>
                    <g id="测试" transform="translate(14.000000, 15.000000)" fill="#000000" fill-rule="nonzero">
                        <rect id="矩形" opacity="0" x="0" y="0" width="21" height="21"></rect>
                        <path d="M17.7335603,17.8787109 C17.561965,17.8787109 17.3883268,17.8171875 17.2514591,17.6920898 C16.9593385,17.4254883 16.9389105,16.9702148 17.2044747,16.6790039 C18.7284047,14.9994141 19.5679961,12.8214844 19.5679961,10.547168 C19.5679961,5.52685547 15.4987354,1.44169922 10.4979572,1.44169922 C5.49717899,1.44169922 1.42996109,5.52685547 1.42996109,10.547168 C1.42996109,12.6328125 2.11225681,14.5933594 3.40535019,16.2196289 C3.65252918,16.5292969 3.60145914,16.9804687 3.29299611,17.2286133 C2.98453307,17.4767578 2.53511673,17.4254883 2.28793774,17.1158203 C1.56070039,16.2011719 0.99688716,15.1819336 0.606712062,14.0868164 C0.204280156,12.9527344 0,11.7612305 0,10.547168 C0,9.12392578 0.277821012,7.74375 0.825291829,6.44355469 C1.35437743,5.18847656 2.11225681,4.06054687 3.07441634,3.09257812 C4.03861868,2.12460937 5.16215953,1.36376953 6.41235409,0.834667969 C7.70749027,0.285058594 9.08229572,0.00615234375 10.5,0.00615234375 C11.9177043,0.00615234375 13.2925097,0.285058594 14.5876459,0.834667969 C15.8378405,1.36582031 16.9613813,2.12460937 17.9255837,3.09257812 C18.8877432,4.06054687 19.6456226,5.18847656 20.1747082,6.44355469 C20.722179,7.74375 21,9.12392578 21,10.547168 C21,13.1803711 20.0276265,15.7007812 18.2626459,17.6449219 C18.1216926,17.8007812 17.9276265,17.8787109 17.7335603,17.8787109 Z M13.917607,10.10625 C13.9196498,10.1021484 13.9216926,10.1000977 13.9216926,10.0959961 C14.669358,8.53330078 14.7531128,5.65400391 13.8890078,5.23769531 C13.8052529,5.19667969 13.7092412,5.17822266 13.6030156,5.17822266 C12.620428,5.17822266 10.7819066,6.80039062 10.0914397,8.203125 C8.07110895,8.40820312 6.49610895,10.1206055 6.49610895,12.2021484 C6.49610895,14.4210937 8.28968872,16.2216797 10.5,16.2216797 C12.7103113,16.2216797 14.5038911,14.4210937 14.5038911,12.2021484 C14.5038911,11.5007812 14.3241245,10.8404297 14.0095331,10.2662109 C13.9788911,10.2108398 13.948249,10.1595703 13.917607,10.10625 Z M12.3201362,14.0293945 C11.8339494,14.5174805 11.1884241,14.7861328 10.5,14.7861328 C9.81157588,14.7861328 9.16605058,14.5174805 8.67986381,14.0293945 C8.19367704,13.5413086 7.92607004,12.8932617 7.92607004,12.2021484 C7.92607004,11.5110352 8.19367704,10.8629883 8.67986381,10.3749023 C9.16605058,9.88681641 9.81157588,9.61816406 10.5,9.61816406 C10.963716,9.61816406 11.4172179,9.74326172 11.8114786,9.97910156 C11.9034047,10.0344727 11.9932879,10.0959961 12.0790856,10.1616211 C12.3589494,10.3790039 12.5857004,10.6476562 12.7572957,10.9573242 C12.9677043,11.3408203 13.07393,11.7591797 13.07393,12.2021484 C13.07393,12.8932617 12.806323,13.5413086 12.3201362,14.0293945 L12.3201362,14.0293945 Z" id="形状"></path>
                    </g>
                </g>
            </g>
            <g id="编组-19" transform="translate(0.000000, 276.000000)">
                <text id="客户洞察为基础" font-family="PingFangSC-Medium, PingFang SC" font-size="22" font-weight="400" line-spacing="28" fill="#000000" fill-opacity="0.8">
                    <tspan x="68" y="23">客户洞察为基础</tspan>
                </text>
                <text id="建立以精准客户分析为基础的运营框架和策略" font-family="PingFangSC-Regular, PingFang SC" font-size="16" font-weight="normal" line-spacing="24" fill="#000000" fill-opacity="0.65">
                    <tspan x="68" y="53">建立以精准客户分析为基础的运营框架和策略，提升</tspan>
                    <tspan x="68" y="77">运营效果</tspan>
                </text>
                <g id="编组-18">
                    <rect id="矩形" fill="#F6F7FA" x="0" y="0" width="48" height="48" rx="8"></rect>
                    <g id="负载测试" transform="translate(11.000000, 11.000000)" fill="#000000" fill-rule="nonzero">
                        <rect id="矩形" opacity="0" x="0" y="0" width="26" height="26"></rect>
                        <path d="M20.3936484,5.59949609 L20.3780078,5.59949609 C18.495877,3.71416602 15.8922207,2.55307812 13.0379336,2.55307812 C10.1633594,2.55307812 7.56429883,3.71416602 5.68171094,5.59398633 L5.68171094,5.59949609 L5.67203711,5.59949609 C3.78990625,7.48439453 2.62836133,10.0825156 2.62836133,12.9548047 C2.62836133,15.814627 3.78990625,18.4155156 5.67203711,20.3027246 L5.68171094,20.3105703 C7.554625,22.1880801 10.163334,23.3643262 13.0379336,23.3643262 C15.8922207,23.3643262 18.495877,22.1954687 20.3780078,20.3105703 L20.3780078,20.3027246 C22.2656738,18.415541 23.4322461,15.814627 23.4322461,12.9548047 C23.4322461,10.0825156 22.2758047,7.48441992 20.3936484,5.59949609 L20.3936484,5.59949609 Z M19.2579512,19.1747969 L19.2579512,19.1798496 C17.6522734,20.7758789 15.4628145,21.7558555 13.0379336,21.7558555 C10.5927656,21.7558555 8.39317578,20.7758789 6.80270703,19.1798496 L6.79719727,19.1747969 C5.21178125,17.5866387 4.22995117,15.3842559 4.22995117,12.9547793 C4.22995117,10.5146641 5.21178125,8.31786719 6.79719727,6.73476172 L6.80270703,6.73476172 C8.39320117,5.13367969 10.592791,4.15921289 13.0379336,4.15921289 C15.4628145,4.15921289 17.652248,5.1336543 19.2579512,6.73476172 C20.8382891,8.31786719 21.830707,10.5146895 21.830707,12.9547793 C21.830707,15.3842559 20.8382891,17.5866641 19.2579512,19.1747969 L19.2579512,19.1747969 Z" id="形状"></path>
                        <path d="M18.3793086,9.75538281 C18.3115918,9.9046543 18.225416,10.048873 18.1023984,10.183418 C17.8987402,10.3672715 17.6577832,10.4921172 17.4007031,10.5570918 C17.7936992,11.2698574 18.0167051,12.0848965 18.0167051,12.9543477 C18.0167051,14.3402187 17.4610312,15.587 16.5566172,16.4886973 L16.5538496,16.4909824 C15.6535742,17.3903691 14.4049395,17.9469316 13.0273203,17.9469316 C11.6451055,17.9469316 10.3996953,17.3903691 9.5021875,16.4909824 L9.5021875,16.4886973 C8.59500586,15.5869746 8.04255664,14.3402187 8.04255664,12.9543477 C8.04255664,11.5799277 8.59498047,10.338707 9.5021875,9.42873242 C10.3996953,8.53305273 11.6450801,7.97001562 13.0273203,7.97001562 C13.9635488,7.97001562 14.8366816,8.23494141 15.5844355,8.68186719 C15.6535742,8.44276367 15.7747129,8.20914453 15.9539707,8.03544727 C16.0935684,7.90090234 16.2543672,7.80139648 16.4225547,7.72905859 C15.4430098,7.08954492 14.2773262,6.71498242 13.0273203,6.71498242 C11.3041602,6.71498242 9.74408398,7.40931445 8.6125,8.53858789 L8.6125,8.54826172 C7.48137305,9.67799219 6.78427344,11.2408359 6.78427344,12.9538652 C6.78427344,14.6798437 7.48137305,16.2394121 8.60973242,17.3696504 L8.6125,17.3696504 L8.6125,17.3755918 C9.74408398,18.5053223 11.3041602,19.2024727 13.0273203,19.2024727 C14.7445137,19.2024727 16.3055039,18.5053223 17.438459,17.3755918 L17.4435117,17.3696504 C18.5695859,16.2458613 19.2759023,14.6798184 19.2759023,12.9538652 C19.2759023,11.7872676 18.9446309,10.6939473 18.3793086,9.75538281 Z" id="路径"></path>
                        <path d="M17.5914375,9.59691992 C17.7443906,9.42827539 17.8093652,9.23477344 17.8093652,9.03205469 C17.8093652,8.61600391 17.4675059,8.27411914 17.0417813,8.27411914 C16.8482793,8.27411914 16.6446211,8.34876758 16.491668,8.497125 C16.3483379,8.63580859 16.2686875,8.8486582 16.2686875,9.03205469 C16.2686875,9.47298828 16.6155996,9.81484766 17.0417813,9.81484766 C17.2445,9.81484766 17.438002,9.73512109 17.5914375,9.59691992 L17.5914375,9.59691992 Z M18.3240078,8.15617969 L19.7974766,6.68273633 L19.4085937,6.29385352 L17.934668,7.76823633 C18.0871895,7.87419141 18.2194238,8.00457227 18.3240078,8.15617969 Z M13.5429023,12.9377422 L16.1571719,10.323498 C16.0055645,10.2188887 15.8742441,10.0866797 15.7683145,9.93464063 L13.5429023,12.1604844 L13.5429023,12.9377422 L13.5429023,12.9377422 Z" id="形状"></path>
                        <path d="M13.6184395,13.5468633 C13.7815488,13.3676309 13.8502051,13.1616367 13.8502051,12.9455625 C13.8502051,12.5023184 13.4866875,12.1383438 13.0328809,12.1383438 C12.8273437,12.1383438 12.6103809,12.2175625 12.4467891,12.3756445 C12.29475,12.5230625 12.2099707,12.750207 12.2099707,12.9455625 C12.2099707,13.4146035 12.5790234,13.7790352 13.0328809,13.7790352 C13.2489551,13.7790605 13.4544414,13.6943066 13.6184395,13.5468633 L13.6184395,13.5468633 Z" id="路径"></path>
                    </g>
                </g>
            </g>
            <g id="编组-19" transform="translate(0.000000, 390.000000)">
                <text id="自动化优化" font-family="PingFangSC-Medium, PingFang SC" font-size="22" font-weight="400" line-spacing="28" fill="#000000" fill-opacity="0.8">
                    <tspan x="68" y="23">自动化优化</tspan>
                </text>
                <text id="部署经过验证的策略，实现自动执行并持续优" font-family="PingFangSC-Regular, PingFang SC" font-size="16" font-weight="normal" line-spacing="24" fill="#000000" fill-opacity="0.65">
                    <tspan x="68" y="53">部署经过验证的策略，实现自动执行并持续优化，以</tspan>
                    <tspan x="68" y="77">提高整体运营表现</tspan>
                </text>
                <g id="编组-18">
                    <rect id="矩形" fill="#F6F7FA" x="0" y="0" width="48" height="48" rx="8"></rect>
                    <g id="配置测试资源" transform="translate(15.000000, 15.000000)" fill="#000000" fill-rule="nonzero">
                        <rect id="矩形" opacity="0" x="0" y="0" width="19" height="19"></rect>
                        <path d="M3.8,17.575 L15.2,17.575 L15.2,19 L3.8,19 L3.8,17.575 Z M18.05,0 L0.95,0 C0.475,0 0,0.475 0,0.95 L0,15.2 C0,15.675 0.475,16.15 0.95,16.15 L18.05,16.15 C18.525,16.15 19,15.675 19,15.2 L19,0.95 C19,0.475 18.525,0 18.05,0 Z M17.575,14.25 C17.575,14.5666729 17.4166729,14.725 17.1,14.725 L1.9,14.725 C1.58332715,14.725 1.425,14.5666729 1.425,14.25 L1.425,1.9 C1.425,1.74167285 1.425,1.58332715 1.58332715,1.58332715 C1.74167285,1.425 1.74167285,1.425 1.9,1.425 L17.1,1.425 C17.2583271,1.425 17.4166729,1.425 17.4166729,1.58332715 C17.575,1.74167285 17.575,1.74167285 17.575,1.9 L17.575,14.25 L17.575,14.25 Z M11.5583271,5.7 L13.9333271,8.075 L11.5583271,10.45 L12.6666729,11.4 L15.0416729,9.025 L15.9916729,8.075 L14.8833271,7.125 L12.6666729,4.75 L11.5583271,5.7 L11.5583271,5.7 Z M7.44167285,5.7 L5.06667285,8.075 L7.44167285,10.45 L6.33332715,11.4 L4.11667285,9.025 L3.00832715,8.075 L3.95832715,7.125 L6.33332715,4.75 L7.44167285,5.7 L7.44167285,5.7 Z M8.86667285,11.4 L8.86667285,4.75 L10.2916729,4.75 L10.2916729,11.4 L8.86667285,11.4 Z" id="形状"></path>
                    </g>
                </g>
            </g>
        </g>
    </g>
</svg>