<?xml version="1.0" encoding="UTF-8"?>
<svg width="687px" height="518px" viewBox="0 0 687 518" version="1.1" xmlns="http://www.w3.org/2000/svg" xmlns:xlink="http://www.w3.org/1999/xlink">
    <title>编组 85</title>
    <defs>
        <linearGradient x1="13.8093013%" y1="30.4287372%" x2="100%" y2="65.9816017%" id="linearGradient-1">
            <stop stop-color="#4889FE" offset="0%"></stop>
            <stop stop-color="#47B1FF" offset="57.9570608%"></stop>
            <stop stop-color="#67D6FF" offset="100%"></stop>
        </linearGradient>
        <rect id="path-2" x="0" y="0" width="680" height="518" rx="24"></rect>
        <filter x="-24.8%" y="-25.4%" width="149.6%" height="150.8%" filterUnits="objectBoundingBox" id="filter-4">
            <feGaussianBlur stdDeviation="50" in="SourceGraphic"></feGaussianBlur>
        </filter>
        <filter x="-7.0%" y="-9.8%" width="114.7%" height="119.9%" filterUnits="objectBoundingBox" id="filter-5">
            <feOffset dx="0" dy="6" in="SourceAlpha" result="shadowOffsetOuter1"></feOffset>
            <feGaussianBlur stdDeviation="8" in="shadowOffsetOuter1" result="shadowBlurOuter1"></feGaussianBlur>
            <feColorMatrix values="0 0 0 0 0.173510806   0 0 0 0 0.407128732   0 0 0 0 0.661984651  0 0 0 0.1 0" type="matrix" in="shadowBlurOuter1" result="shadowMatrixOuter1"></feColorMatrix>
            <feMerge>
                <feMergeNode in="shadowMatrixOuter1"></feMergeNode>
                <feMergeNode in="SourceGraphic"></feMergeNode>
            </feMerge>
        </filter>
        <filter x="-32.1%" y="-32.1%" width="164.3%" height="164.3%" filterUnits="objectBoundingBox" id="filter-6">
            <feOffset dx="0" dy="0" in="SourceAlpha" result="shadowOffsetOuter1"></feOffset>
            <feGaussianBlur stdDeviation="3.5" in="shadowOffsetOuter1" result="shadowBlurOuter1"></feGaussianBlur>
            <feColorMatrix values="0 0 0 0 0.114318349   0 0 0 0 0.31124559   0 0 0 0 0.531004975  0 0 0 0.14 0" type="matrix" in="shadowBlurOuter1" result="shadowMatrixOuter1"></feColorMatrix>
            <feMerge>
                <feMergeNode in="shadowMatrixOuter1"></feMergeNode>
                <feMergeNode in="SourceGraphic"></feMergeNode>
            </feMerge>
        </filter>
        <filter x="-32.1%" y="-32.1%" width="164.3%" height="164.3%" filterUnits="objectBoundingBox" id="filter-7">
            <feOffset dx="0" dy="0" in="SourceAlpha" result="shadowOffsetOuter1"></feOffset>
            <feGaussianBlur stdDeviation="3.5" in="shadowOffsetOuter1" result="shadowBlurOuter1"></feGaussianBlur>
            <feColorMatrix values="0 0 0 0 0.114318349   0 0 0 0 0.31124559   0 0 0 0 0.531004975  0 0 0 0.14 0" type="matrix" in="shadowBlurOuter1" result="shadowMatrixOuter1"></feColorMatrix>
            <feMerge>
                <feMergeNode in="shadowMatrixOuter1"></feMergeNode>
                <feMergeNode in="SourceGraphic"></feMergeNode>
            </feMerge>
        </filter>
        <filter x="-32.1%" y="-32.1%" width="164.3%" height="164.3%" filterUnits="objectBoundingBox" id="filter-8">
            <feOffset dx="0" dy="0" in="SourceAlpha" result="shadowOffsetOuter1"></feOffset>
            <feGaussianBlur stdDeviation="3.5" in="shadowOffsetOuter1" result="shadowBlurOuter1"></feGaussianBlur>
            <feColorMatrix values="0 0 0 0 0.114318349   0 0 0 0 0.31124559   0 0 0 0 0.531004975  0 0 0 0.14 0" type="matrix" in="shadowBlurOuter1" result="shadowMatrixOuter1"></feColorMatrix>
            <feMerge>
                <feMergeNode in="shadowMatrixOuter1"></feMergeNode>
                <feMergeNode in="SourceGraphic"></feMergeNode>
            </feMerge>
        </filter>
        <filter x="-32.1%" y="-32.1%" width="164.3%" height="164.3%" filterUnits="objectBoundingBox" id="filter-9">
            <feOffset dx="0" dy="0" in="SourceAlpha" result="shadowOffsetOuter1"></feOffset>
            <feGaussianBlur stdDeviation="3.5" in="shadowOffsetOuter1" result="shadowBlurOuter1"></feGaussianBlur>
            <feColorMatrix values="0 0 0 0 0.114318349   0 0 0 0 0.31124559   0 0 0 0 0.531004975  0 0 0 0.14 0" type="matrix" in="shadowBlurOuter1" result="shadowMatrixOuter1"></feColorMatrix>
            <feMerge>
                <feMergeNode in="shadowMatrixOuter1"></feMergeNode>
                <feMergeNode in="SourceGraphic"></feMergeNode>
            </feMerge>
        </filter>
        <filter x="-11.2%" y="-10.3%" width="122.4%" height="120.5%" filterUnits="objectBoundingBox" id="filter-10">
            <feOffset dx="0" dy="8" in="SourceAlpha" result="shadowOffsetOuter1"></feOffset>
            <feGaussianBlur stdDeviation="6" in="shadowOffsetOuter1" result="shadowBlurOuter1"></feGaussianBlur>
            <feColorMatrix values="0 0 0 0 0.19823354   0 0 0 0 0.485767107   0 0 0 0 0.706946774  0 0 0 0.1 0" type="matrix" in="shadowBlurOuter1" result="shadowMatrixOuter1"></feColorMatrix>
            <feMerge>
                <feMergeNode in="shadowMatrixOuter1"></feMergeNode>
                <feMergeNode in="SourceGraphic"></feMergeNode>
            </feMerge>
        </filter>
        <linearGradient x1="-11.4495005%" y1="44.2153732%" x2="88.83689%" y2="53.5191663%" id="linearGradient-11">
            <stop stop-color="#24FBFF" offset="0%"></stop>
            <stop stop-color="#4E7BFF" offset="100%"></stop>
        </linearGradient>
    </defs>
    <g id="页面-1" stroke="none" stroke-width="1" fill="none" fill-rule="evenodd">
        <g id="产品官网-策略智能与自动化" transform="translate(-640.000000, -1596.000000)">
            <g id="编组-22" transform="translate(0.000000, 1496.000000)">
                <g id="编组-85" transform="translate(640.000000, 100.000000)">
                    <g id="编组-16">
                        <mask id="mask-3" fill="white">
                            <use xlink:href="#path-2"></use>
                        </mask>
                        <use id="矩形" fill="url(#linearGradient-1)" xlink:href="#path-2"></use>
                        <ellipse id="椭圆形" fill="#5F72FF" opacity="0.517264957" filter="url(#filter-4)" mask="url(#mask-3)" cx="0.512048193" cy="334.5" rx="302.620482" ry="295.5"></ellipse>
                    </g>
                    <g id="编组-75" filter="url(#filter-5)" transform="translate(32.000000, 40.000000)">
                        <g id="编组-71">
                            <rect id="矩形" fill="#FFFFFF" x="0" y="0" width="185" height="80" rx="6"></rect>
                            <g id="编组-73" filter="url(#filter-6)" transform="translate(18.000000, 19.000000)">
                                <rect id="矩形" stroke="#F0F0F0" fill="#FFFFFF" x="0.5" y="0.5" width="41" height="41" rx="6"></rect>
                                <g id="营销" transform="translate(9.000000, 9.000000)" fill-rule="nonzero">
                                    <rect id="矩形" fill="#000000" opacity="0" x="0" y="0" width="24" height="24"></rect>
                                    <path d="M9.12,10.572 C8.43074863,10.572 7.872,11.1307486 7.872,11.82 C7.872,12.5092514 8.43074863,13.068 9.12,13.068 C9.80925137,13.068 10.368,12.5092514 10.368,11.82 C10.368,11.1307486 9.80925137,10.572 9.12,10.572 L9.12,10.572 Z M20.28,3.6 L4.32,3.6 C3.80016874,3.60625871 3.30450168,3.82046652 2.94372562,4.19477168 C2.58294956,4.56907684 2.38712605,5.07229049 2.4,5.592 L2.4,16.548 C2.38712605,17.0677095 2.58294956,17.5709232 2.94372562,17.9452283 C3.30450168,18.3195335 3.80016874,18.5337413 4.32,18.54 L9.36,18.54 L7.68,19.74 C7.2842374,20.1022618 7.23207451,20.7073513 7.56,21.132 C7.70217821,21.341703 7.92518217,21.4828113 8.17556708,21.5215071 C8.42595199,21.560203 8.68114974,21.4929985 8.88,21.336 L12.36,18.792 L15.72,21.336 C15.9188503,21.4929985 16.174048,21.560203 16.4244329,21.5215071 C16.6748178,21.4828113 16.8978218,21.341703 17.04,21.132 C17.3679255,20.7073513 17.3157626,20.1022618 16.92,19.74 L15.24,18.54 L20.28,18.54 C21.3856036,18.5340066 22.2876882,17.6531476 22.32,16.548 L22.32,5.592 C22.2876882,4.4868524 21.3856036,3.60599335 20.28,3.6 L20.28,3.6 Z M9.12,14.556 C8.00548777,14.5951296 6.97876143,13.9539046 6.5248686,12.9352536 C6.07097576,11.9166026 6.28076329,10.7244089 7.05512304,9.92189065 C7.82948279,9.11937236 9.0134263,8.86715382 10.0476332,9.28438848 C11.0818401,9.70162314 11.7593133,10.7048013 11.7600331,11.82 C11.767208,13.2968749 10.5961907,14.5104746 9.12,14.556 L9.12,14.556 Z M15.24,13.56 C15.2569755,13.8226914 15.1625489,14.0803883 14.9798674,14.2699204 C14.7971858,14.4594524 14.5431382,14.5632976 14.28,14.556 C13.7467351,14.5306086 13.3257514,14.0938381 13.32,13.56 L13.32,11.064 C13.3257514,10.5301619 13.7467351,10.0933914 14.28,10.068 C14.5431382,10.0607024 14.7971858,10.1645476 14.9798674,10.3540796 C15.1625489,10.5436117 15.2569755,10.8013086 15.24,11.064 L15.24,13.56 Z M18.24,13.56 C18.24,14.0901934 17.8101934,14.52 17.28,14.52 C16.7498066,14.52 16.32,14.0901934 16.32,13.56 L16.32,8.58 C16.32,8.04980664 16.7498066,7.62 17.28,7.62 C17.8101934,7.62 18.24,8.04980664 18.24,8.58 L18.24,13.56 Z" id="形状" fill="#FAAD14"></path>
                                </g>
                            </g>
                            <text id="单次营销" font-family="PingFangSC-Medium, PingFang SC" font-size="18" font-weight="400" fill="#0A0F2C">
                                <tspan x="72" y="47">单次营销</tspan>
                            </text>
                        </g>
                        <g id="编组-71" transform="translate(0.000000, 120.000000)">
                            <rect id="矩形" fill="#FFFFFF" x="0" y="0" width="185" height="80" rx="6"></rect>
                            <g id="编组-73" filter="url(#filter-7)" transform="translate(18.000000, 19.000000)">
                                <rect id="矩形" stroke="#F0F0F0" fill="#FFFFFF" x="0.5" y="0.5" width="41" height="41" rx="6"></rect>
                                <g id="营销" transform="translate(9.000000, 9.000000)" fill-rule="nonzero">
                                    <rect id="矩形" fill="#000000" opacity="0" x="0" y="0" width="24" height="24"></rect>
                                    <path d="M2.37525,19.937625 L7.937625,19.937625 L7.937625,10.999875 L6.4155,9.9375 L2.37525,13.375125 L2.37525,19.937625 Z M9.250125,19.937625 L14.8125,19.937625 L14.8125,11.052 L12.12525,13.3125 L9.250125,11.749875 L9.250125,19.937625 Z M16.125,10.000125 L16.125,19.937625 L21.687375,19.937625 L21.687375,10.062375 L19.312875,6.9375 L16.125,10.000125 Z M21.5625,20.9685 L2.34375,20.9685 C1.92975,20.9685 1.59375,21.3045 1.59375,21.7185 C1.59375,22.1325 1.92975,22.4685 2.34375,22.4685 L21.5625,22.4685 C21.9765,22.4685 22.3125,22.1325 22.3125,21.7185 C22.3125,21.3045 21.9765,20.9685 21.5625,20.9685 Z" id="形状" fill="#0330FF"></path>
                                    <path d="M3.294,10.88775 L6.319125,8.35725 L12.09825,11.8755 L18.95175,5.421 C18.9765,5.39775 18.99675,5.37075 19.01775,5.344875 L20.172,6.51225 L22.030875,1.281 L16.698375,2.998875 L17.9745,4.289625 C17.957625,4.30275 17.939625,4.313625 17.9235,4.328625 L11.902125,9.99975 L6.1815,6.5175 L2.33175,9.73725 C2.01375,10.003125 1.97175,10.476 2.237625,10.793625 C2.5035,11.11125 2.97675,11.154 3.294,10.88775 Z" id="路径" fill="#00D9C1"></path>
                                </g>
                            </g>
                            <text id="实时营销" font-family="PingFangSC-Medium, PingFang SC" font-size="18" font-weight="400" fill="#0A0F2C">
                                <tspan x="72" y="47">实时营销</tspan>
                            </text>
                        </g>
                        <g id="编组-71" transform="translate(0.000000, 240.000000)">
                            <rect id="矩形" fill="#FFFFFF" x="0" y="0" width="185" height="80" rx="6"></rect>
                            <g id="编组-73" filter="url(#filter-8)" transform="translate(18.000000, 19.000000)">
                                <rect id="矩形" stroke="#F0F0F0" fill="#FFFFFF" x="0.5" y="0.5" width="41" height="41" rx="6"></rect>
                                <g id="生命周期" transform="translate(9.000000, 9.000000)" fill-rule="nonzero">
                                    <rect id="矩形" fill="#000000" opacity="0" x="0" y="0" width="24" height="24"></rect>
                                    <path d="M10.0725,6.8325 C10.5825,6.69 11.1225,6.6075 11.6775,6.6075 C13.365,6.6075 14.8725,7.3275 15.945,8.4675 L14.58,8.9025 L20.0775,11.2575 L23.22,6.165 L21.09,6.84 C19.1775,3.6375 15.6825,1.4925 11.685,1.4925 C10.74,1.4925 9.8175,1.6275 8.94,1.8525 L11.685,3.9675 L10.0725,6.8325 Z" id="路径" fill="#1458FE"></path>
                                    <path d="M13.5975,17.9775 C12.9975,18.1875 12.3525,18.3075 11.6775,18.3075 C10.02,18.3075 8.535,17.6175 7.47,16.515 L9.2475,15.4875 L3.6525,14.4225 L1.7775,19.8 L2.97,19.11 C4.9725,21.7275 8.1225,23.4225 11.6775,23.4225 C13.4325,23.4225 15.0825,23.0025 16.5525,22.2675 L13.1325,21.2475 L13.5975,17.9775 Z" id="路径" fill="#1458FE"></path>
                                    <path d="M20.205,12.045 L17.28,10.7925 C17.4375,11.3175 17.52,11.88 17.52,12.4575 C17.52,14.13 16.815,15.63 15.69,16.695 L14.7225,15.1875 L13.9275,20.7825 L19.3425,22.395 L18.48,21.0525 C21.015,19.0425 22.6425,15.945 22.6425,12.465 C22.6425,11.2575 22.44,10.1025 22.08,9.015 L20.205,12.045 Z" id="路径" fill="#00D9C6"></path>
                                    <path d="M3.2325,13.77 L6.1425,14.325 C5.9475,13.74 5.835,13.11 5.835,12.4575 C5.835,10.695 6.6225,9.1125 7.86,8.04 L8.115,9.285 L10.9875,4.14 L6.3225,0.54 L6.75,2.67 C3.1725,4.47 0.7125,8.175 0.7125,12.4575 C0.7125,14.2725 1.1625,15.975 1.935,17.4825 L3.2325,13.77 Z" id="路径" fill="#00D9C6"></path>
                                </g>
                            </g>
                            <text id="周期营销" font-family="PingFangSC-Medium, PingFang SC" font-size="18" font-weight="400" fill="#0A0F2C">
                                <tspan x="72" y="47">周期营销</tspan>
                            </text>
                        </g>
                        <g id="编组-71" transform="translate(0.000000, 358.000000)">
                            <rect id="矩形" fill="#FFFFFF" x="0" y="0" width="185" height="80" rx="6"></rect>
                            <g id="编组-73" filter="url(#filter-9)" transform="translate(18.000000, 19.000000)">
                                <rect id="矩形" stroke="#F0F0F0" fill="#FFFFFF" x="0.5" y="0.5" width="41" height="41" rx="6"></rect>
                                <g id="日期" transform="translate(11.000000, 11.000000)" fill-rule="nonzero">
                                    <rect id="矩形" fill="#000000" opacity="0" x="0" y="0" width="20" height="20"></rect>
                                    <path d="M3.425,18.75 C2.455,18.75 1.25,17.46125 1.25,16.41875 L1.25,6.25 L18.75,6.25 L18.75,16.27 C18.7725,17.33625 17.4775,18.75 16.48125,18.75 L3.42625,18.75 L3.425,18.75 Z M15,0 L15,2.5 L12.5,2.5 L12.495,0 L7.5,0 L7.5,2.5 L5,2.5 L5,0 L3.31875,0 C1.4825,0 0,1.7675 0,3.95 L0,16.05 C0,18.23375 1.4825,20 3.31875,20 L16.68,20 C18.5175,20 20,18.235 20,16.05 L20,3.95 C20,1.795 18.51625,0 16.68,0 L15,0 Z M3.75,16.25 L6.25,16.25 L6.25,13.75 L3.75,13.75 L3.75,16.25 Z M3.75,11.25 L6.25,11.25 L6.25,8.75 L3.75,8.75 L3.75,11.25 Z M13.75,11.25 L16.25,11.25 L16.25,8.75 L13.75,8.75 L13.75,11.25 Z M13.75,16.25 L16.25,16.25 L16.25,13.75 L13.75,13.75 L13.75,16.25 Z M8.75,16.25 L11.25,16.25 L11.25,13.75 L8.75,13.75 L8.75,16.25 Z" id="形状" fill="#FB4000"></path>
                                    <polygon id="路径" fill="#FAAD14" points="8.75 11.25 11.25 11.25 11.25 8.75 8.75 8.75"></polygon>
                                </g>
                            </g>
                            <text id="纪念日营销" font-family="PingFangSC-Medium, PingFang SC" font-size="18" font-weight="400" fill="#0A0F2C">
                                <tspan x="72" y="47">纪念日营销</tspan>
                            </text>
                        </g>
                        <g id="编组-74" transform="translate(222.000000, 0.000000)">
                            <rect id="矩形" fill-opacity="0.26" fill="#FFFFFF" x="0" y="0" width="396" height="438" rx="10"></rect>
                            <g id="编组-70" opacity="0.303738549" transform="translate(97.000000, 57.000000)" stroke="#FFFFFF" stroke-width="3">
                                <path d="M0,204.505368 L0,204.505368 L0,162 C0,150.954305 8.954305,142 20,142 L182,142 C193.045695,142 202,150.954305 202,162 L202,206.097518 L202,206.097518" id="路径"></path>
                                <line x1="95.5" y1="0" x2="95.5" y2="141" id="路径-24"></line>
                                <line x1="202" y1="192" x2="202" y2="322.094195" id="路径-30"></line>
                                <line x1="2" y1="232" x2="2" y2="290.094195" id="路径-30" stroke-dasharray="5"></line>
                            </g>
                            <g id="编组-72" filter="url(#filter-10)" transform="translate(24.000000, 30.000000)">
                                <g id="编组-67" transform="translate(95.000000, 0.000000)">
                                    <rect id="矩形" fill="url(#linearGradient-11)" x="0" y="0" width="147" height="50" rx="8"></rect>
                                    <text id="开始" font-family="PingFangSC-Medium, PingFang SC" font-size="18" font-weight="400" fill="#FFFFFF">
                                        <tspan x="69" y="31">开始</tspan>
                                    </text>
                                    <g id="开始" transform="translate(41.000000, 14.000000)" fill-rule="nonzero">
                                        <rect id="矩形" fill="#000000" opacity="0" x="0" y="0" width="20" height="20"></rect>
                                        <path d="M10,2.5390625 C11.0078125,2.5390625 11.9847656,2.73613281 12.9037109,3.12480469 C13.7919922,3.50058594 14.5900391,4.03867188 15.2755859,4.72421875 C15.9611328,5.40976563 16.4994141,6.2078125 16.875,7.09609375 C17.2638672,8.01523438 17.4609375,8.9921875 17.4609375,10 C17.4609375,11.0078125 17.2638672,11.9847656 16.8751953,12.9037109 C16.4994141,13.7919922 15.9613281,14.5900391 15.2757812,15.2755859 C14.5902344,15.9611328 13.7921875,16.4994141 12.9039063,16.875 C11.9847656,17.2638672 11.0078125,17.4609375 10,17.4609375 C8.9921875,17.4609375 8.01523437,17.2638672 7.09628906,16.8751953 C6.20800781,16.4994141 5.40996094,15.9613281 4.72441406,15.2757813 C4.03886719,14.5902344 3.50058594,13.7921875 3.125,12.9039063 C2.73613281,11.9847656 2.5390625,11.0078125 2.5390625,10 C2.5390625,8.9921875 2.73613281,8.01523437 3.12480469,7.09628906 C3.50058594,6.20800781 4.03867188,5.40996094 4.72421875,4.72441406 C5.40976563,4.03886719 6.2078125,3.50058594 7.09609375,3.125 C8.01523438,2.73613281 8.9921875,2.5390625 10,2.5390625 M10,1.2890625 C5.1890625,1.2890625 1.2890625,5.1890625 1.2890625,10 C1.2890625,14.8109375 5.1890625,18.7109375 10,18.7109375 C14.8109375,18.7109375 18.7109375,14.8109375 18.7109375,10 C18.7109375,5.1890625 14.8109375,1.2890625 10,1.2890625 L10,1.2890625 Z M5.13671875,10 C5.13671875,12.6859161 7.31408393,14.8632812 10,14.8632812 C12.6859161,14.8632812 14.8632813,12.6859161 14.8632813,10 C14.8632813,7.31408393 12.6859161,5.13671875 10,5.13671875 C7.31408393,5.13671875 5.13671875,7.31408393 5.13671875,10 L5.13671875,10 Z" id="形状" fill="#FFFFFF"></path>
                                    </g>
                                </g>
                                <g id="编组-66" transform="translate(95.000000, 81.000000)">
                                    <rect id="矩形" fill="#FFFFFF" x="0" y="0" width="147" height="50" rx="8"></rect>
                                    <g id="编组-64" transform="translate(16.000000, 11.000000)">
                                        <rect id="矩形" fill="#CFF9D6" x="0" y="0" width="28" height="28" rx="6"></rect>
                                        <g id="工作流程图" transform="translate(4.666667, 4.666667)" fill-rule="nonzero">
                                            <rect id="矩形" fill="#000000" opacity="0" x="0" y="0" width="18.6666667" height="18.6666667"></rect>
                                            <path d="M17.9368438,17.3750573 L15.4274714,17.3750573 C15.0315156,17.3750573 14.7105182,17.0546615 14.7105182,16.6595625 L14.7105182,14.512987 C14.7105182,14.1178333 15.0315156,13.7975104 15.4274714,13.7975104 L16.1444245,13.7975104 L16.1444245,10.5777109 C16.1444245,10.1825208 15.8234635,9.86219792 15.4274714,9.86219792 L9.69179167,9.86219792 L9.69179167,13.7975104 L10.4087813,13.7975104 C10.804737,13.7975104 11.1257344,14.1178333 11.1257344,14.512987 L11.1257344,16.6595807 C11.1257344,17.0546797 10.804737,17.3750573 10.4087813,17.3750573 L7.89942708,17.3750573 C7.5034349,17.3750573 7.18247396,17.0546797 7.18247396,16.6595807 L7.18247396,14.512987 C7.18247396,14.1178333 7.5034349,13.7975104 7.89942708,13.7975104 L8.61638021,13.7975104 L8.61638021,9.86219792 L3.23919531,9.86219792 C2.84323958,9.86219792 2.52224219,10.1825208 2.52224219,10.5777109 L2.52224219,13.7975104 L3.23919531,13.7975104 C3.63515104,13.7975104 3.95614844,14.1178333 3.95614844,14.512987 L3.95614844,16.6595807 C3.95614844,17.0546797 3.63515104,17.3750573 3.23919531,17.3750573 L0.729822917,17.3750573 C0.333867188,17.3750573 0.0128697917,17.0546797 0.0128697917,16.6595807 L0.0128697917,14.512987 C0.0128697917,14.1178333 0.333867188,13.7975104 0.729822917,13.7975104 L1.44677604,13.7975104 L1.44677604,10.2199271 C1.44677604,9.42960156 2.08878906,8.78890104 2.88073698,8.78890104 L8.61638021,8.78890104 L8.61638021,4.85364323 L7.89942708,4.85364323 C7.5034349,4.85364323 7.18247396,4.53326563 7.18247396,4.13809375 L7.18247396,1.99157292 C7.18247396,1.59638281 7.5034349,1.2760599 7.89942708,1.2760599 L10.4087995,1.2760599 C10.8047552,1.2760599 11.1257526,1.59638281 11.1257526,1.99157292 L11.1257526,4.13807552 C11.1257526,4.53326563 10.8047552,4.853625 10.4087995,4.853625 L9.6918099,4.853625 L9.6918099,8.78890104 L15.7859844,8.78890104 C16.5778776,8.78890104 17.2198906,9.42960156 17.2198906,10.2199271 L17.2198906,13.7974922 L17.9368438,13.7974922 C18.3327995,13.7974922 18.6537969,14.1178151 18.6537969,14.5129688 L18.6537969,16.6595625 C18.6537969,17.0546797 18.3327813,17.3750573 17.9368438,17.3750573 Z" id="路径" fill="#008C00"></path>
                                        </g>
                                    </g>
                                    <text id="判断分支" font-family="PingFangSC-Regular, PingFang SC" font-size="16" font-weight="normal" fill="#0A0F2C" fill-opacity="0.85">
                                        <tspan x="56" y="31">判断分支</tspan>
                                    </text>
                                </g>
                                <g id="编组-66" transform="translate(0.000000, 208.000000)">
                                    <rect id="矩形" fill="#FFFFFF" x="0" y="0" width="147" height="50" rx="8"></rect>
                                    <g id="编组-64" transform="translate(16.000000, 11.000000)">
                                        <rect id="矩形" fill="#CBF9F4" x="0" y="0" width="28" height="28" rx="6"></rect>
                                        <g id="作业评价模版" transform="translate(5.000000, 5.000000)" fill-rule="nonzero">
                                            <rect id="矩形" fill="#000000" opacity="0" x="0" y="0" width="18" height="18"></rect>
                                            <path d="M15.697125,2.478375 C15.86925,2.667375 15.933375,2.92275 15.8895,3.245625 L15.8895,7.950375 L8.9505,7.950375 C8.616375,7.950375 8.355375,8.04825 8.166375,8.24175 C7.977375,8.436375 7.882875,8.695125 7.882875,9.018 L7.882875,15.640875 C7.871625,15.584625 7.849125,15.552 7.8165,15.54075 L7.767,15.523875 C7.40025,15.2685 7.02675,15.053625 6.649875,14.8815 C6.271875,14.709375 5.896125,14.569875 5.52375,14.464125 C5.151375,14.358375 4.7565,14.2785 4.339125,14.22225 C3.92140474,14.1669024 3.50049606,14.1390923 3.079125,14.139 C2.80125,14.139 2.556,14.04225 2.345625,13.847625 C2.134125,13.653 2.02275,13.39425 2.0115,13.071375 L2.0115,3.245625 C2.02275,2.96775 2.134125,2.7225 2.345625,2.512125 C2.557125,2.300625 2.80125,2.18925 3.079125,2.178 C3.502125,2.134125 3.927375,2.13075 4.354875,2.170125 C4.782375,2.2095 5.20875,2.28375 5.630625,2.395125 C6.053625,2.5065 6.458625,2.6595 6.847875,2.854125 C7.237125,3.04875 7.615125,3.252375 7.981875,3.46275 C8.30475,3.729375 8.6625,3.868875 9.057375,3.880125 C9.45225,3.891375 9.838125,3.79125 10.21725,3.57975 C10.59525,3.313125 10.98675,3.09375 11.392875,2.9205 C11.799,2.748375 12.1905,2.608875 12.5685,2.503125 C12.9465,2.397375 13.34475,2.3175 13.761,2.26125 C14.1787203,2.20590226 14.5996289,2.17809222 15.021,2.178 C15.3,2.18925 15.525,2.289375 15.697125,2.478375 Z M9.342,9.250875 C9.147375,9.462375 9.050625,9.7065 9.050625,9.984375 L9.050625,11.9025 L12.036375,11.9025 L12.036375,8.917875 L10.117125,8.917875 C9.795375,8.929125 9.536625,9.0405 9.342,9.250875 L9.342,9.250875 Z M9.0495,14.78925 C9.0495,15.112125 9.14625,15.3675 9.340875,15.5565 C9.5355,15.7455 9.79425,15.845625 10.117125,15.856875 L12.03525,15.856875 L12.03525,12.85425 L9.0495,12.85425 L9.0495,14.78925 L9.0495,14.78925 Z M13.003875,15.856875 L14.922,15.856875 C15.244875,15.845625 15.5025,15.7455 15.69825,15.5565 C15.892875,15.3675 15.989625,15.112125 15.989625,14.78925 L15.989625,9.9855 C15.989625,9.651375 15.89175,9.390375 15.69825,9.201375 C15.503625,9.012375 15.244875,8.917875 14.922,8.917875 L13.003875,8.917875 L13.003875,15.856875 Z" id="形状" fill="#008A7A"></path>
                                        </g>
                                    </g>
                                    <text id="模版消息" font-family="PingFangSC-Regular, PingFang SC" font-size="16" font-weight="normal" fill="#0A0F2C" fill-opacity="0.85">
                                        <tspan x="56" y="31">模版消息</tspan>
                                    </text>
                                </g>
                                <g id="编组-66" transform="translate(201.000000, 208.000000)">
                                    <rect id="矩形" fill="#FFFFFF" x="0" y="0" width="147" height="50" rx="8"></rect>
                                    <g id="编组-64" transform="translate(16.000000, 11.000000)">
                                        <rect id="矩形" fill="#FFDEDA" x="0" y="0" width="28" height="28" rx="6"></rect>
                                        <g id="时间" transform="translate(5.000000, 5.000000)" fill-rule="nonzero">
                                            <rect id="矩形" fill="#000000" opacity="0" x="0" y="0" width="18" height="18"></rect>
                                            <path d="M8.96308594,1.13203125 C4.62832031,1.13203125 1.11269531,4.64765625 1.11269531,8.98242188 C1.11269531,13.3171875 4.6265625,16.8328125 8.96308594,16.8328125 C13.2996094,16.8328125 16.8134766,13.3189453 16.8134766,8.98242188 C16.8134766,4.64765625 13.2996094,1.13203125 8.96308594,1.13203125 L8.96308594,1.13203125 Z M11.0214844,9.77871094 L8.83125,9.77871094 C8.39179688,9.77871094 8.03496094,9.421875 8.03496094,8.98242188 L8.03496094,4.82167969 C8.03496094,4.38222656 8.39179688,4.02539062 8.83125,4.02539062 C9.27070313,4.02539062 9.62753906,4.38222656 9.62753906,4.82167969 L9.62753906,8.18789063 L11.0214844,8.18789063 C11.4609375,8.18789063 11.8177734,8.54472656 11.8177734,8.98417969 C11.8177734,9.42363281 11.4609375,9.77871094 11.0214844,9.77871094 Z" id="形状" fill="#FF4D4F"></path>
                                        </g>
                                    </g>
                                    <text id="隔天发送" font-family="PingFangSC-Regular, PingFang SC" font-size="16" font-weight="normal" fill="#0A0F2C" fill-opacity="0.85">
                                        <tspan x="56" y="31">隔天发送</tspan>
                                    </text>
                                </g>
                                <g id="编组-66" transform="translate(181.000000, 330.000000)">
                                    <rect id="矩形" fill="#FFFFFF" x="0" y="0" width="147" height="50" rx="8"></rect>
                                    <g id="编组-64" transform="translate(16.000000, 11.000000)">
                                        <rect id="矩形" fill="#FFF5CD" x="0" y="0" width="28" height="28" rx="6"></rect>
                                        <g id="短信管理" transform="translate(6.000000, 6.000000)" fill-rule="nonzero">
                                            <rect id="矩形" fill="#000000" opacity="0" x="0" y="0" width="16" height="16"></rect>
                                            <path d="M13.240625,2.75625 L2.740625,2.75625 C1.7796875,2.75625 0.9984375,3.4296875 0.9984375,4.259375 L0.9984375,4.271875 L7.584375,7.8671875 C7.89375,8.0359375 8.45,8.0328125 8.7578125,7.8609375 L14.984375,4.3421875 L14.984375,4.2609375 C14.9828125,3.4296875 14.203125,2.75625 13.240625,2.75625 Z" id="路径" fill="#FAAD14"></path>
                                            <path d="M0.996875,5.5015625 L0.996875,11.74375 C0.996875,12.5703125 1.7765625,13.246875 2.7390625,13.246875 L13.2390625,13.246875 C14.2,13.246875 14.98125,12.5734375 14.98125,11.74375 L14.98125,5.584375 L9.5,8.8078125 C8.753125,9.2296875 7.609375,9.2359375 6.8546875,8.8234375 L0.996875,5.5015625 Z" id="路径" fill="#FAAD14"></path>
                                        </g>
                                    </g>
                                    <text id="发送短信" font-family="PingFangSC-Regular, PingFang SC" font-size="16" font-weight="normal" fill="#0A0F2C" fill-opacity="0.85">
                                        <tspan x="56" y="31">发送短信</tspan>
                                    </text>
                                </g>
                            </g>
                        </g>
                    </g>
                </g>
            </g>
        </g>
    </g>
</svg>