<?xml version="1.0" encoding="UTF-8"?>
<svg width="700px" height="518px" viewBox="0 0 700 518" version="1.1" xmlns="http://www.w3.org/2000/svg" xmlns:xlink="http://www.w3.org/1999/xlink">
    <title>编组 86</title>
    <defs>
        <linearGradient x1="13.8093013%" y1="30.4287372%" x2="100%" y2="65.9816017%" id="linearGradient-1">
            <stop stop-color="#4889FE" offset="0%"></stop>
            <stop stop-color="#47B1FF" offset="57.9570608%"></stop>
            <stop stop-color="#67D6FF" offset="100%"></stop>
        </linearGradient>
        <rect id="path-2" x="0" y="0" width="680" height="518" rx="24"></rect>
        <filter x="-25.4%" y="-25.4%" width="150.8%" height="150.8%" filterUnits="objectBoundingBox" id="filter-4">
            <feGaussianBlur stdDeviation="50" in="SourceGraphic"></feGaussianBlur>
        </filter>
        <filter x="-7.3%" y="-10.5%" width="114.6%" height="121.0%" filterUnits="objectBoundingBox" id="filter-5">
            <feOffset dx="0" dy="8" in="SourceAlpha" result="shadowOffsetOuter1"></feOffset>
            <feGaussianBlur stdDeviation="8" in="shadowOffsetOuter1" result="shadowBlurOuter1"></feGaussianBlur>
            <feColorMatrix values="0 0 0 0 0.19275941   0 0 0 0 0.395901733   0 0 0 0 0.692379717  0 0 0 0.15 0" type="matrix" in="shadowBlurOuter1" result="shadowMatrixOuter1"></feColorMatrix>
            <feMerge>
                <feMergeNode in="shadowMatrixOuter1"></feMergeNode>
                <feMergeNode in="SourceGraphic"></feMergeNode>
            </feMerge>
        </filter>
        <path d="M2.65414729,4.90866668 C2.48165534,5.10016416 2.58385805,5.40538212 2.84069027,5.45715148 L4.69311575,5.8305682 L3.01908707,9.15412284 C2.87539118,9.49443489 3.31566037,9.77931169 3.57688425,9.51505546 L8.25201811,5.42693033 L8.2575475,5.42121916 C8.43719581,5.23123051 8.33689312,4.91911667 8.07635187,4.86672143 L6.33605015,4.51673057 L7.74302974,1.08485367 C7.86101283,0.743301039 7.42082328,0.485739508 7.17159112,0.750509856 L2.65944914,4.90289963 L2.65414729,4.90866668 Z M6.75299388,2.07595876 L5.56831816,4.66070573 L5.56587203,4.66804867 C5.50559485,4.85637202 5.62415818,5.05569302 5.82206712,5.0954924 L7.33155662,5.39906742 L4.29823281,8.07079727 L5.47902874,5.71269007 L5.48187308,5.70574949 C5.5581013,5.51352555 5.44014097,5.29895986 5.23334631,5.25727166 L3.56807819,4.92160902 L6.75299388,2.07595876 Z" id="path-6"></path>
        <path d="M6.56745546,7.33361695 C6.45208098,7.33361695 6.33768946,7.28267283 6.26003592,7.18450313 L4.8718561,5.43182695 C4.79174517,5.33551653 4.74431754,5.20425174 4.74431754,5.06889655 L4.74431754,2.97051926 C4.74431754,2.75149671 4.92038956,2.57387401 5.1375,2.57387401 C5.35461044,2.57387401 5.53068246,2.75149671 5.53068246,2.97051926 L5.53068246,4.99303815 L6.87438352,6.68944028 C7.00990859,6.86049354 6.98226295,7.11013214 6.81258015,7.2468508 C6.74021,7.30535598 6.65358699,7.33361695 6.56745546,7.33361695 Z M5.49610698,4.94137511 L5.53699795,4.9921457 C5.52441611,4.9754866 5.51104791,4.9588275 5.49610698,4.94137511 Z M5.1375,0.770997427 C2.75272551,0.770997427 0.812492945,2.72831776 0.812492945,5.13409512 C0.812492945,6.30320697 1.27313077,7.3639851 2.01784292,8.14810317 L1.27165634,9.27717865 C1.15124421,9.45938756 1.20002341,9.70580341 1.38076447,9.82727602 C1.44517809,9.87079441 1.52096481,9.89396207 1.59848926,9.89396207 C1.72553634,9.89396207 1.85012603,9.83198618 1.92605939,9.71733092 L2.61670896,8.67229465 C3.32726338,9.18904903 4.19644236,9.49719281 5.1375,9.49719281 C6.07855764,9.49719281 6.94773662,9.18904903 7.65841391,8.6721707 L8.34906348,9.71720697 C8.42487397,9.83186223 8.54946366,9.89383805 8.67651074,9.89383805 C8.75133828,9.89383805 8.82727164,9.87239442 8.89423553,9.82715207 C9.07485372,9.70567946 9.12363292,9.45938756 9.00334366,9.2770547 L8.25715708,8.14797922 C9.00186923,7.3639851 9.46250706,6.30320697 9.46250706,5.13409512 C9.46250706,2.72831776 7.52227449,0.770997427 5.1375,0.770997427 Z M1.59885786,5.13409512 C1.59885786,3.16574309 3.18633204,1.56428792 5.1375,1.56428792 C7.08866796,1.56428792 8.67614214,3.16574309 8.67614214,5.13409512 C8.67614214,7.10244714 7.08866796,8.70390232 5.1375,8.70390232 C3.18633204,8.70390232 1.59885786,7.10244714 1.59885786,5.13409512 Z M9.90102837,2.35906582 C9.41815116,1.51755815 8.72221821,0.815496065 7.88830278,0.328614028 C7.70018955,0.218792876 7.4597339,0.283867486 7.35099438,0.47326559 C7.24237772,0.662911598 7.30651561,0.905608907 7.49438311,1.01530611 C8.20972944,1.43265128 8.80662956,2.03480834 9.22069984,2.75645478 C9.2934386,2.88350521 9.42552333,2.95440555 9.56129415,2.95440555 C9.62813517,2.95440555 9.69583627,2.93717627 9.75788538,2.90098239 C9.94575287,2.79140914 10.0098908,2.54871183 9.90102837,2.35906582 Z M1.05479164,2.75657873 C1.4684933,2.03493229 2.06539343,1.43277523 2.78073976,1.01543006 C2.96873013,0.905608907 3.03286802,0.662911598 2.92412849,0.473389542 C2.8152661,0.283991438 2.57493332,0.219536585 2.38682009,0.328737979 C1.55278179,0.815620017 0.856725972,1.51793 0.374094502,2.35918978 C0.265477848,2.54883578 0.329615737,2.79153309 0.517483231,2.90123029 C0.577207796,2.9361751 0.645031474,2.95456325 0.71407446,2.95453 C0.849722409,2.95453 0.981807142,2.88362916 1.05479164,2.75657873 Z" id="path-8"></path>
    </defs>
    <g id="页面-1" stroke="none" stroke-width="1" fill="none" fill-rule="evenodd">
        <g id="产品官网-策略智能与自动化" transform="translate(-630.000000, -3064.000000)">
            <g id="编组-22" transform="translate(0.000000, 2964.000000)">
                <g id="编组-86" transform="translate(640.000000, 100.000000)">
                    <g id="编组-16">
                        <mask id="mask-3" fill="white">
                            <use xlink:href="#path-2"></use>
                        </mask>
                        <use id="矩形" fill="url(#linearGradient-1)" xlink:href="#path-2"></use>
                        <circle id="椭圆形" fill="#5F72FF" opacity="0.517264957" filter="url(#filter-4)" mask="url(#mask-3)" cx="16.5" cy="334.5" r="295.5"></circle>
                    </g>
                    <g id="编组-58" filter="url(#filter-5)" transform="translate(24.000000, 40.000000)">
                        <rect id="矩形" fill="#FFFFFF" x="0" y="0" width="632" height="438" rx="16"></rect>
                        <g id="模版-001备份" transform="translate(24.000000, 64.000000)">
                            <rect id="矩形" stroke="#0364FF" fill="#E6F4FF" x="0.5" y="0.5" width="273" height="142" rx="6.84"></rect>
                            <text id="沉睡客户激活SOP" font-family="PingFangSC-Medium, PingFang SC" font-size="13.68" font-weight="400" line-spacing="20.52" fill="#0A0F2C" fill-opacity="0.85">
                                <tspan x="20.55" y="59.2161905">沉睡客户激活SOP</tspan>
                            </text>
                            <text id="老客沉默唤醒，通过福利触达来吸引沉睡用户" font-family="PingFangSC-Regular, PingFang SC" font-size="10.26" font-weight="normal" line-spacing="17.1" fill="#0A0F2C" fill-opacity="0.45">
                                <tspan x="20.55" y="79.0190476">老客沉默唤醒，通过福利触达来吸引沉睡用户消费</tspan>
                                <tspan x="20.55" y="96.1190476">的策略，完成二次唤醒，提升活跃度和复购率。</tspan>
                            </text>
                            <g id="AI外呼渠道icon" transform="translate(20.550000, 13.619048)">
                                <rect id="矩形" fill="#0364FF" x="0" y="0" width="20.55" height="20.4285714" rx="3.42"></rect>
                                <g id="1.全局/1.3-图标Icon/品牌和标识/mail-fill" transform="translate(3.425000, 3.404762)">
                                    <rect id="矩形" x="0" y="-8.8817842e-16" width="13.7" height="13.6190476"></rect>
                                    <path d="M12.2171049,10.0521767 L10.4815873,8.3269063 C10.1359429,7.98473294 9.56338685,7.99519806 9.20564153,8.3507873 L8.33131649,9.21983037 C8.27613264,9.18944775 8.21894873,9.15786482 8.1587962,9.1243189 C7.6067061,8.8202426 6.85089992,8.40347552 6.05559584,7.612377 C5.2581156,6.81969058 4.83823027,6.06726427 4.53150516,5.51810147 C4.49893826,5.45988686 4.46798147,5.40383529 4.43740204,5.35055942 L5.02424777,4.76803825 L5.31270824,4.4809287 C5.67104478,4.12473932 5.68096957,3.55583406 5.33592898,3.21267294 L3.60041132,1.48721496 C3.25555942,1.14444145 2.68280211,1.15490657 2.32446558,1.51109595 L1.83528281,2.00006866 L1.84878003,2.01329698 C1.68480084,2.22128667 1.54761482,2.46123438 1.44576306,2.7199368 C1.35167252,2.9662111 1.29310493,3.20123257 1.26629919,3.43664165 C1.03721136,5.32510303 1.90537272,7.05096112 4.26151059,9.39308635 C7.51835156,12.6301111 10.1430877,12.3856123 10.2562605,12.3735843 C10.5030218,12.3443769 10.7392671,12.2857622 10.9794873,12.1930265 C11.2375696,12.0927763 11.4787835,11.9568172 11.6878331,11.7942139 L11.6985503,11.8034912 L12.1940729,11.3212077 C12.5516295,10.9650308 12.5619568,10.3961255 12.2171049,10.0521767 Z M7.84773135,7.06278909 L6.81707513,6.03233051 L9.40085425,3.4635609 L8.36882692,2.43666571 L11.4718022,2.43775349 L11.4718022,5.51765135 L10.4370201,4.4912938 L7.84773135,7.06278909 Z" id="形状" fill="#FFFFFF" fill-rule="nonzero"></path>
                                </g>
                            </g>
                            <g id="短信渠道icon" transform="translate(47.950000, 13.619048)">
                                <rect id="矩形" fill="#FFC609" x="0" y="0" width="20.55" height="20.4285714" rx="3.42"></rect>
                                <g id="1.全局/1.3-图标Icon/品牌和标识/mail-fill备份" transform="translate(3.425000, 3.404762)">
                                    <polygon id="路径" points="13.7 8.8817842e-16 13.7 13.6190476 0 13.6190476 0 8.8817842e-16"></polygon>
                                    <g id="MailFill" transform="translate(0.856250, 2.127976)" fill="#FFFFFF" fill-rule="nonzero">
                                        <path d="M11.559375,0 L0.428125,0 C0.191318359,0 0,0.190187872 0,0.425595238 L0,8.9375 C0,9.17290737 0.191318359,9.36309524 0.428125,9.36309524 L11.559375,9.36309524 C11.7961816,9.36309524 11.9875,9.17290737 11.9875,8.9375 L11.9875,0.425595238 C11.9875,0.190187872 11.7961816,0 11.559375,0 Z M10.4783594,1.44835379 L6.25731445,4.71346726 C6.15295898,4.79459635 6.00712891,4.79459635 5.90277344,4.71346726 L1.68039063,1.44835379 C1.65630859,1.429734 1.64292969,1.40180432 1.64292969,1.37254464 C1.64292969,1.31934524 1.68574219,1.27678571 1.73925781,1.27678571 L10.4194922,1.27678571 C10.4489258,1.27678571 10.4770215,1.29008557 10.495752,1.3140253 C10.5278613,1.35525484 10.5211719,1.41510417 10.4783594,1.44835379 Z" id="形状"></path>
                                    </g>
                                </g>
                            </g>
                            <g id="编组-7备份" transform="translate(20.550000, 112.357143)">
                                <g id="编组-5" transform="translate(0.000000, 3.420000)">
                                    <rect id="矩形" x="0" y="0" width="10.275" height="10.26"></rect>
                                    <g id="编组" transform="translate(0.000000, 1.282500)" fill="#0A0F2C" fill-opacity="0.65" fill-rule="nonzero">
                                        <path d="M8.68858192,0.0547775512 L8.73346668,0.0913761138 L10.1783886,1.50212611 C10.1965565,1.52023892 10.2105609,1.53741477 10.2227004,1.55592031 L10.1783886,1.50212611 C10.2027272,1.5258892 10.2224673,1.55255077 10.2376088,1.58101552 C10.2446205,1.59418995 10.250948,1.60839675 10.2562302,1.62310078 C10.2582944,1.62886666 10.2602591,1.63489941 10.2620403,1.64097454 C10.2666587,1.65664741 10.2700771,1.67271814 10.2722446,1.68918232 C10.2734414,1.69842684 10.2742459,1.70752686 10.274663,1.7166413 C10.2748804,1.72118709 10.275,1.72626716 10.275,1.73137513 L10.2738499,1.7585766 C10.2731128,1.76727564 10.2720215,1.77595031 10.2705759,1.78457721 L10.275,1.73137513 C10.275,1.76619197 10.2694423,1.79971265 10.2591646,1.83110086 C10.2567893,1.83836432 10.2539941,1.84596894 10.2509013,1.85347984 C10.2422581,1.87444215 10.2313387,1.89446557 10.2185027,1.91306841 L10.1783886,1.96062414 L8.73346668,3.37137414 C8.60667084,3.4951713 8.40337835,3.49289045 8.2794002,3.36627972 C8.1691974,3.25373684 8.15875743,3.08084041 8.24685074,2.95686169 L8.28450207,2.91287611 L9.164,2.052 L3.2109375,2.05200013 C1.79233861,2.05200013 0.6421875,3.17197864 0.6421875,4.55287513 C0.6421875,5.89472268 1.7193213,6.98375317 3.07854572,7.05050718 L3.2109375,7.05375013 L6.58242187,7.05375013 C7.52925703,7.05375013 8.40344499,6.63132232 8.97851752,5.92149489 C9.19665832,5.65225652 9.3655982,5.34842207 9.47701428,5.02277118 C9.52903832,4.87077408 9.56836531,4.71454109 9.59447785,4.5552709 C9.62312833,4.3805209 9.7882241,4.26204994 9.96322958,4.29065859 C10.1382351,4.31926724 10.2568792,4.48412199 10.2282287,4.65887198 C10.1963197,4.85349735 10.1482555,5.0444401 10.0847039,5.23011692 C9.94879486,5.62735686 9.74301105,5.99745425 9.47778147,6.32481154 C8.81639268,7.14118145 7.82922191,7.64304373 6.75304902,7.69118903 L6.58242187,7.69500013 L3.2109375,7.69500013 C1.43906177,7.69500013 0,6.29606681 0,4.55287513 C0,2.85992579 1.36637282,1.48484654 3.07192638,1.41364635 L3.2109375,1.41075013 L9.166,1.41 L8.28450207,0.54987414 C8.17179466,0.439832218 8.15746683,0.267213668 8.24274813,0.141289767 L8.2794002,0.0964705363 C8.389603,-0.0160723383 8.56247392,-0.0303792557 8.68858192,0.0547775512 Z M5.24453125,2.82150013 C5.45470628,2.82150013 5.62950842,2.93492132 5.66575858,3.08449238 L5.67265625,3.14212513 L5.67265625,5.96362513 C5.67265625,6.14070142 5.48097816,6.28425013 5.24453125,6.28425013 C5.03435622,6.28425013 4.85955408,6.17082893 4.82330392,6.02125788 L4.81640625,5.96362513 L4.816,3.903 L4.2782909,4.42943664 C4.15149506,4.5532338 3.94820257,4.55095295 3.82422442,4.42434222 C3.71402162,4.31179934 3.70358165,4.13890291 3.79167496,4.01492419 L3.82932629,3.97093861 L4.9130177,2.91287611 C4.98836015,2.83931548 5.09071182,2.81027011 5.18738365,2.82537323 L5.24453125,2.82150013 Z" id="形状结合"></path>
                                    </g>
                                </g>
                                <text id="title备份" font-family="PingFangSC-Regular, PingFang SC" font-size="10.26" font-weight="normal" line-spacing="17.1" fill="#0A0F2C" fill-opacity="0.65">
                                    <tspan x="17.1" y="11">单次营销</tspan>
                                </text>
                            </g>
                        </g>
                        <text id="客户全生命周期运营" font-family="PingFangSC-Medium, PingFang SC" font-size="14" font-weight="400" fill="#000000" fill-opacity="0.8">
                            <tspan x="24" y="47">客户全生命周期运营</tspan>
                        </text>
                        <text id="零售行业SOP" font-family="PingFangSC-Medium, PingFang SC" font-size="14" font-weight="400" fill="#000000" fill-opacity="0.8">
                            <tspan x="24" y="246">零售行业SOP</tspan>
                        </text>
                        <g id="模版-001备份-6" transform="translate(24.000000, 263.000000)">
                            <rect id="矩形" stroke="#F0F0F0" stroke-width="0.855" fill="#FFFFFF" x="0.4275" y="0.4275" width="273.145" height="142.145" rx="6.84"></rect>
                            <text id="客服质保回访" font-family="PingFangSC-Medium, PingFang SC" font-size="13.68" font-weight="400" line-spacing="20.52" fill="#0A0F2C" fill-opacity="0.85">
                                <tspan x="20.55" y="59.2161905">客服质保回访</tspan>
                            </text>
                            <text id="智能回访自动调研客户满意度并采集信息，确" font-family="PingFangSC-Regular, PingFang SC" font-size="10.26" font-weight="normal" line-spacing="17.1" fill="#0A0F2C" fill-opacity="0.45">
                                <tspan x="20.55" y="79.0190476">智能回访自动调研客户满意度并采集信息，确保业</tspan>
                                <tspan x="20.55" y="96.1190476">务数据沉淀，推动产品流程优化，同时引流客户…</tspan>
                            </text>
                            <g id="AI外呼渠道icon" transform="translate(20.550000, 13.619048)">
                                <rect id="矩形" fill="#0364FF" x="0" y="0" width="20.55" height="20.4285714" rx="3.42"></rect>
                                <g id="1.全局/1.3-图标Icon/品牌和标识/mail-fill" transform="translate(3.425000, 3.404762)">
                                    <rect id="矩形" x="0" y="-8.8817842e-16" width="13.7" height="13.6190476"></rect>
                                    <path d="M12.2171049,10.0521767 L10.4815873,8.3269063 C10.1359429,7.98473294 9.56338685,7.99519806 9.20564153,8.3507873 L8.33131649,9.21983037 C8.27613264,9.18944775 8.21894873,9.15786482 8.1587962,9.1243189 C7.6067061,8.8202426 6.85089992,8.40347552 6.05559584,7.612377 C5.2581156,6.81969058 4.83823027,6.06726427 4.53150516,5.51810147 C4.49893826,5.45988686 4.46798147,5.40383529 4.43740204,5.35055942 L5.02424777,4.76803825 L5.31270824,4.4809287 C5.67104478,4.12473932 5.68096957,3.55583406 5.33592898,3.21267294 L3.60041132,1.48721496 C3.25555942,1.14444145 2.68280211,1.15490657 2.32446558,1.51109595 L1.83528281,2.00006866 L1.84878003,2.01329698 C1.68480084,2.22128667 1.54761482,2.46123438 1.44576306,2.7199368 C1.35167252,2.9662111 1.29310493,3.20123257 1.26629919,3.43664165 C1.03721136,5.32510303 1.90537272,7.05096112 4.26151059,9.39308635 C7.51835156,12.6301111 10.1430877,12.3856123 10.2562605,12.3735843 C10.5030218,12.3443769 10.7392671,12.2857622 10.9794873,12.1930265 C11.2375696,12.0927763 11.4787835,11.9568172 11.6878331,11.7942139 L11.6985503,11.8034912 L12.1940729,11.3212077 C12.5516295,10.9650308 12.5619568,10.3961255 12.2171049,10.0521767 Z M7.84773135,7.06278909 L6.81707513,6.03233051 L9.40085425,3.4635609 L8.36882692,2.43666571 L11.4718022,2.43775349 L11.4718022,5.51765135 L10.4370201,4.4912938 L7.84773135,7.06278909 Z" id="形状" fill="#FFFFFF" fill-rule="nonzero"></path>
                                </g>
                            </g>
                            <g id="短信渠道icon" transform="translate(47.950000, 13.619048)">
                                <rect id="矩形" fill="#FFC609" x="0" y="0" width="20.55" height="20.4285714" rx="3.42"></rect>
                                <g id="1.全局/1.3-图标Icon/品牌和标识/mail-fill备份" transform="translate(3.425000, 3.404762)">
                                    <polygon id="路径" points="13.7 8.8817842e-16 13.7 13.6190476 0 13.6190476 0 8.8817842e-16"></polygon>
                                    <g id="MailFill" transform="translate(0.856250, 2.127976)" fill="#FFFFFF" fill-rule="nonzero">
                                        <path d="M11.559375,0 L0.428125,0 C0.191318359,0 0,0.190187872 0,0.425595238 L0,8.9375 C0,9.17290737 0.191318359,9.36309524 0.428125,9.36309524 L11.559375,9.36309524 C11.7961816,9.36309524 11.9875,9.17290737 11.9875,8.9375 L11.9875,0.425595238 C11.9875,0.190187872 11.7961816,0 11.559375,0 Z M10.4783594,1.44835379 L6.25731445,4.71346726 C6.15295898,4.79459635 6.00712891,4.79459635 5.90277344,4.71346726 L1.68039063,1.44835379 C1.65630859,1.429734 1.64292969,1.40180432 1.64292969,1.37254464 C1.64292969,1.31934524 1.68574219,1.27678571 1.73925781,1.27678571 L10.4194922,1.27678571 C10.4489258,1.27678571 10.4770215,1.29008557 10.495752,1.3140253 C10.5278613,1.35525484 10.5211719,1.41510417 10.4783594,1.44835379 Z" id="形状"></path>
                                    </g>
                                </g>
                            </g>
                            <g id="加微渠道icon" transform="translate(75.350000, 13.619048)">
                                <rect id="矩形" fill="#00C881" x="0" y="0" width="20.55" height="20.4285714" rx="3.42"></rect>
                                <g id="1.全局/1.3-图标Icon/品牌和标识/mail-fill备份-2" transform="translate(3.425000, 4.255952)" fill="#FFFFFF" fill-rule="nonzero">
                                    <g id="加微信" transform="translate(0.000000, 0.000000)">
                                        <path d="M11.304029,5.82457483 C11.8407143,5.82305485 12.3712835,5.94161352 12.8575112,6.17113095 C12.8728013,6.01153274 12.8804464,5.85193452 12.8804464,5.69233631 C12.8804464,2.54901148 9.99824777,0 6.44022321,0 C2.88219866,0 0,2.54901148 0,5.69233631 C0,7.56191539 1.01985491,9.22021684 2.59321429,10.2568452 C2.63602679,10.2918048 2.68189732,10.3267645 2.72776786,10.3602041 C2.81492187,10.4270833 2.86537946,10.5334821 2.86690848,10.6459609 C2.86690848,10.6778805 2.8516183,10.725 2.8516183,10.7569196 C2.77516741,11.0745961 2.6375558,11.5974702 2.62226562,11.6126701 C2.60697545,11.6613095 2.59168527,11.6917092 2.59168527,11.7388287 C2.59168527,11.8345876 2.66813616,11.9136267 2.75987723,11.9136267 C2.79045759,11.9136267 2.82103795,11.8984269 2.8516183,11.8817071 L3.94027902,11.2326743 C4.01825893,11.1825149 4.12070312,11.1612351 4.21091518,11.1445153 C4.28736607,11.1293155 4.38522321,11.1353954 4.41580357,11.1369154 C4.48919643,11.1369154 4.65127232,11.1627551 4.69867187,11.174915 C5.25370536,11.3117134 5.83779018,11.3861926 6.44175223,11.3861926 C6.98761161,11.3861926 7.51665179,11.3253933 8.0227567,11.2129145 C7.76741071,10.7082802 7.62368304,10.1367666 7.62368304,9.53333333 C7.62368304,7.48439626 9.27043527,5.82457483 11.304029,5.82457483 L11.304029,5.82457483 Z M8.5625,3.40628189 C9.03496652,3.40628189 9.41875,3.78779762 9.41875,4.25747236 C9.41875,4.72714711 9.03496652,5.10866284 8.5625,5.10866284 C8.09003348,5.10866284 7.70625,4.72714711 7.70625,4.25747236 C7.70625,3.78627764 8.09003348,3.40628189 8.5625,3.40628189 Z M4.28277902,5.10866284 C3.8103125,5.10866284 3.42652902,4.72714711 3.42652902,4.25747236 C3.42652902,3.78779762 3.8103125,3.40628189 4.28277902,3.40628189 C4.75524554,3.40628189 5.13902902,3.78779762 5.13902902,4.25747236 C5.13902902,4.72714711 4.75524554,5.10866284 4.28277902,5.10866284 Z M12.84375,8.51190476 L11.9875,8.51190476 L11.9875,7.66071429 C11.9875,7.19103954 11.6037165,6.80952381 11.13125,6.80952381 C10.6587835,6.80952381 10.275,7.19103954 10.275,7.66071429 L10.275,8.51190476 L9.41875,8.51190476 C8.94628348,8.51190476 8.5625,8.89342049 8.5625,9.36309524 C8.5625,9.83276998 8.94628348,10.2142857 9.41875,10.2142857 L10.275,10.2142857 L10.275,11.0654762 C10.275,11.5351509 10.6587835,11.9166667 11.13125,11.9166667 C11.6037165,11.9166667 11.9875,11.5351509 11.9875,11.0654762 L11.9875,10.2142857 L12.84375,10.2142857 C13.3162165,10.2142857 13.7,9.83276998 13.7,9.36309524 C13.7,8.89342049 13.3162165,8.51190476 12.84375,8.51190476 Z" id="形状"></path>
                                    </g>
                                </g>
                            </g>
                            <g id="发微信渠道icon" transform="translate(102.750000, 13.619048)">
                                <rect id="矩形" fill="#00C881" x="0" y="0" width="20.55" height="20.4285714" rx="3.42"></rect>
                                <g id="1.全局/1.3-图标Icon/品牌和标识/mail-fill备份-4" transform="translate(3.425000, 3.404762)" fill="#FFFFFF" fill-rule="nonzero">
                                    <path d="M11.3754981,6.361208 C11.5390987,6.43145083 11.6990807,6.51377726 11.8541558,6.60826964 C13.2202036,7.44064769 13.9088931,9.03634905 13.5730309,10.5909227 C13.426453,11.2741891 13.4993436,12.2832907 13.6881424,13.1324369 C13.7178677,13.2499793 13.6910076,13.3745455 13.6154061,13.4697577 C13.5398046,13.5649699 13.4239892,13.6200886 13.3017821,13.6190327 C13.2970023,13.6190327 13.2205269,13.6063789 13.2205269,13.6063789 C12.334288,13.4318103 11.2297754,13.3121399 10.6757267,13.4720954 C10.4132846,13.5376941 10.1428267,13.5662802 9.87233619,13.55701 C8.36064745,13.5567316 7.00384992,12.6657949 6.40576334,11.3076652 C7.83142853,11.1345025 9.09441362,10.4397023 9.99584484,9.42104 L11.4965546,9.42128387 C11.6617879,9.42128387 11.795736,9.28487532 11.795736,9.11660685 C11.795736,8.94833837 11.6617879,8.81192982 11.4965546,8.81192982 L10.4653354,8.81237884 C10.9153854,8.13947098 11.2248083,7.36560295 11.3518973,6.5322351 L11.3754981,6.361208 Z M11.4963473,10.3860945 L9.5004221,10.3860945 C9.33507425,10.3860945 9.20103333,10.522503 9.20103333,10.6907715 C9.20103333,10.85904 9.33507425,10.9954485 9.5004221,10.9954485 L11.4963473,10.9954485 C11.6616951,10.9954485 11.795736,10.85904 11.795736,10.6907715 C11.795736,10.522503 11.6616951,10.3860945 11.4963473,10.3860945 Z M8.68791035,1.16769999 C10.4336343,2.56688852 11.1005165,4.90513934 10.3523575,7.00365521 C9.60419839,9.10217109 7.6034368,10.5053265 5.35872933,10.5057399 C4.98004263,10.5187183 4.60140151,10.4786977 4.23398261,10.3868594 C3.45831445,10.1629218 1.91199682,10.3304603 0.67126234,10.5748564 L0.65442878,10.5776244 L0.578102698,10.5898037 C0.567124289,10.5914645 0.559178012,10.5925717 0.557505111,10.5925717 C0.386415088,10.59405 0.224273571,10.5168838 0.118431459,10.3835867 C0.0125893462,10.2502896 -0.0250148308,10.075897 0.0166006406,9.91133757 C0.280918908,8.72253294 0.382965834,7.30979069 0.177756715,6.35321766 C-0.292450398,4.1768146 0.671714896,1.94283269 2.58418182,0.777503426 C4.49664875,-0.387825837 6.9421864,-0.231488547 8.68791035,1.16769999 Z M5.87940906,6.06645818 L3.08511384,6.06645818 C2.85362685,6.06645818 2.66596956,6.25743015 2.66596956,6.49300602 C2.66596956,6.72858189 2.85362685,6.91955386 3.08511384,6.91955386 L5.87940906,6.91955386 C6.11089605,6.91955386 6.29855334,6.72858189 6.29855334,6.49300602 C6.29855334,6.25743015 6.11089605,6.06645818 5.87940906,6.06645818 Z M7.55259975,3.86262767 L3.08482358,3.86262767 C2.85349689,3.86262767 2.66596956,4.05359964 2.66596956,4.28917551 C2.66596956,4.52475138 2.85349689,4.71572335 3.08482358,4.71572335 L7.55259975,4.71572335 C7.78392643,4.71572335 7.97145376,4.52475138 7.97145376,4.28917551 C7.97145376,4.05359964 7.78392643,3.86262767 7.55259975,3.86262767 Z" id="形状结合"></path>
                                </g>
                            </g>
                            <g id="编组-7备份-5" transform="translate(20.550000, 112.357143)">
                                <g id="编组-4" transform="translate(0.000000, 3.420000)">
                                    <rect id="矩形" x="0" y="0" width="10.275" height="10.26"></rect>
                                    <path d="M6.48947368,4.32 C6.66867555,4.32 6.81394737,4.46505974 6.81394737,4.644 C6.81394737,4.80504623 6.6962772,4.93864925 6.542105,4.96375939 L6.48947368,4.968 L4.32631579,4.968 C3.54525607,4.968 2.92026316,5.55307548 2.92026316,6.264 C2.92026316,6.94648754 3.49625662,7.5129926 4.23336775,7.55722103 L4.32631579,7.56 L7.78736842,7.56 C8.56842814,7.56 9.19342105,6.97492452 9.19342105,6.264 C9.19342105,5.94793247 9.07041272,5.64935985 8.84901762,5.41454756 C8.72617775,5.28426323 8.73236709,5.0792109 8.86284189,4.95655035 C8.9933167,4.83388981 9.19866882,4.84007011 9.32150869,4.97035444 C9.65429938,5.32331322 9.84236842,5.77980478 9.84236842,6.264 C9.84236842,7.30769708 8.97649199,8.15193883 7.89609868,8.20531999 L7.78736842,8.208 L4.32631579,8.208 C3.19587941,8.208 2.27131579,7.34248698 2.27131579,6.264 C2.27131579,5.22030292 3.13719223,4.37606117 4.21758553,4.32268001 L4.32631579,4.32 L6.48947368,4.32 Z M6.05684211,2.7 C7.18727849,2.7 8.11184211,3.56551302 8.11184211,4.644 C8.11184211,5.68769708 7.24596567,6.53193883 6.16557237,6.58531999 L6.05684211,6.588 L3.89368421,6.588 C3.71448234,6.588 3.56921053,6.44294026 3.56921053,6.264 C3.56921053,6.10295377 3.6868807,5.96935075 3.84105289,5.94424061 L3.89368421,5.94 L6.05684211,5.94 C6.83790183,5.94 7.46289474,5.35492452 7.46289474,4.644 C7.46289474,3.96151246 6.88690127,3.3950074 6.14979014,3.35077897 L6.05684211,3.348 L2.59578947,3.348 C1.81473247,3.348 1.18973684,3.93307701 1.18973684,4.644 C1.18973684,4.96007311 1.31274286,5.25864335 1.53413759,5.4934496 C1.65697904,5.62373245 1.65079217,5.82878487 1.52031884,5.95144698 C1.38984552,6.07410909 1.18449332,6.06793126 1.06165188,5.9376484 C0.72885682,5.58469349 0.540789474,5.12820108 0.540789474,4.644 C0.540789474,3.60030415 1.40666867,2.75606125 2.48705948,2.70268001 L2.59578947,2.7 L6.05684211,2.7 Z" id="形状结合" fill-opacity="0.65" fill="#0A0F2C" fill-rule="nonzero"></path>
                                </g>
                                <text id="title备份" font-family="PingFangSC-Regular, PingFang SC" font-size="10.26" font-weight="normal" line-spacing="17.1" fill="#0A0F2C" fill-opacity="0.65">
                                    <tspan x="17.1" y="11">外部信号触发</tspan>
                                </text>
                            </g>
                        </g>
                        <g id="模版-001备份-11" transform="translate(314.000000, 263.000000)">
                            <rect id="矩形" stroke="#F0F0F0" stroke-width="0.855" fill="#FFFFFF" x="0.4275" y="0.4275" width="273.145" height="142.145" rx="6.84"></rect>
                            <text id="物流关怀自动化" font-family="PingFangSC-Medium, PingFang SC" font-size="13.68" font-weight="400" line-spacing="20.52" fill="#0A0F2C" fill-opacity="0.85">
                                <tspan x="20.55" y="59.2161905">物流关怀自动化</tspan>
                            </text>
                            <text id="订单发货后进行自动化提醒（有赞等订单），" font-family="PingFangSC-Regular, PingFang SC" font-size="10.26" font-weight="normal" line-spacing="17.1" fill="#0A0F2C" fill-opacity="0.45">
                                <tspan x="20.55" y="79.0190476">订单发货后进行自动化提醒（有赞等订单），提高</tspan>
                                <tspan x="20.55" y="96.1190476">客户外呼营销触达转化效率。</tspan>
                            </text>
                            <g id="AI外呼渠道icon" transform="translate(20.550000, 13.619048)">
                                <rect id="矩形" fill="#0364FF" x="0" y="0" width="20.55" height="20.4285714" rx="3.42"></rect>
                                <g id="1.全局/1.3-图标Icon/品牌和标识/mail-fill" transform="translate(3.425000, 3.404762)">
                                    <rect id="矩形" x="0" y="-8.8817842e-16" width="13.7" height="13.6190476"></rect>
                                    <path d="M12.2171049,10.0521767 L10.4815873,8.3269063 C10.1359429,7.98473294 9.56338685,7.99519806 9.20564153,8.3507873 L8.33131649,9.21983037 C8.27613264,9.18944775 8.21894873,9.15786482 8.1587962,9.1243189 C7.6067061,8.8202426 6.85089992,8.40347552 6.05559584,7.612377 C5.2581156,6.81969058 4.83823027,6.06726427 4.53150516,5.51810147 C4.49893826,5.45988686 4.46798147,5.40383529 4.43740204,5.35055942 L5.02424777,4.76803825 L5.31270824,4.4809287 C5.67104478,4.12473932 5.68096957,3.55583406 5.33592898,3.21267294 L3.60041132,1.48721496 C3.25555942,1.14444145 2.68280211,1.15490657 2.32446558,1.51109595 L1.83528281,2.00006866 L1.84878003,2.01329698 C1.68480084,2.22128667 1.54761482,2.46123438 1.44576306,2.7199368 C1.35167252,2.9662111 1.29310493,3.20123257 1.26629919,3.43664165 C1.03721136,5.32510303 1.90537272,7.05096112 4.26151059,9.39308635 C7.51835156,12.6301111 10.1430877,12.3856123 10.2562605,12.3735843 C10.5030218,12.3443769 10.7392671,12.2857622 10.9794873,12.1930265 C11.2375696,12.0927763 11.4787835,11.9568172 11.6878331,11.7942139 L11.6985503,11.8034912 L12.1940729,11.3212077 C12.5516295,10.9650308 12.5619568,10.3961255 12.2171049,10.0521767 Z M7.84773135,7.06278909 L6.81707513,6.03233051 L9.40085425,3.4635609 L8.36882692,2.43666571 L11.4718022,2.43775349 L11.4718022,5.51765135 L10.4370201,4.4912938 L7.84773135,7.06278909 Z" id="形状" fill="#FFFFFF" fill-rule="nonzero"></path>
                                </g>
                            </g>
                            <g id="短信渠道icon" transform="translate(47.950000, 13.619048)">
                                <rect id="矩形" fill="#FFC609" x="0" y="0" width="20.55" height="20.4285714" rx="3.42"></rect>
                                <g id="1.全局/1.3-图标Icon/品牌和标识/mail-fill备份" transform="translate(3.425000, 3.404762)">
                                    <polygon id="路径" points="13.7 8.8817842e-16 13.7 13.6190476 0 13.6190476 0 8.8817842e-16"></polygon>
                                    <g id="MailFill" transform="translate(0.856250, 2.127976)" fill="#FFFFFF" fill-rule="nonzero">
                                        <path d="M11.559375,0 L0.428125,0 C0.191318359,0 0,0.190187872 0,0.425595238 L0,8.9375 C0,9.17290737 0.191318359,9.36309524 0.428125,9.36309524 L11.559375,9.36309524 C11.7961816,9.36309524 11.9875,9.17290737 11.9875,8.9375 L11.9875,0.425595238 C11.9875,0.190187872 11.7961816,0 11.559375,0 Z M10.4783594,1.44835379 L6.25731445,4.71346726 C6.15295898,4.79459635 6.00712891,4.79459635 5.90277344,4.71346726 L1.68039063,1.44835379 C1.65630859,1.429734 1.64292969,1.40180432 1.64292969,1.37254464 C1.64292969,1.31934524 1.68574219,1.27678571 1.73925781,1.27678571 L10.4194922,1.27678571 C10.4489258,1.27678571 10.4770215,1.29008557 10.495752,1.3140253 C10.5278613,1.35525484 10.5211719,1.41510417 10.4783594,1.44835379 Z" id="形状"></path>
                                    </g>
                                </g>
                            </g>
                            <g id="编组-7备份-4" transform="translate(20.550000, 112.357143)">
                                <g id="闪电" transform="translate(0.000000, 3.420000)">
                                    <rect id="矩形" fill-opacity="0.65" fill="#0A0F2C" fill-rule="nonzero" opacity="0" x="0" y="0" width="10.275" height="10.26"></rect>
                                    <mask id="mask-7" fill="white">
                                        <use xlink:href="#path-6"></use>
                                    </mask>
                                    <use id="形状" fill-opacity="0.5525" fill="#0A0F2C" fill-rule="nonzero" xlink:href="#path-6"></use>
                                </g>
                                <text id="title备份" font-family="PingFangSC-Regular, PingFang SC" font-size="10.26" font-weight="normal" line-spacing="17.1" fill="#0A0F2C" fill-opacity="0.65">
                                    <tspan x="17.1" y="11">条件触发</tspan>
                                </text>
                            </g>
                        </g>
                        <text id="…" font-family="PingFangSC-Medium, PingFang SC" font-size="14" font-weight="400" fill="#000000" fill-opacity="0.8">
                            <tspan x="596" y="401">…</tspan>
                        </text>
                        <g id="模版-001备份-4" transform="translate(314.000000, 64.000000)">
                            <rect id="矩形" stroke="#F0F0F0" stroke-width="0.855" fill="#FFFFFF" x="0.4275" y="0.4275" width="273.145" height="142.145" rx="6.84"></rect>
                            <text id="新客私域引流SOP" font-family="PingFangSC-Medium, PingFang SC" font-size="13.68" font-weight="400" line-spacing="20.52" fill="#0A0F2C" fill-opacity="0.85">
                                <tspan x="20.55" y="59.2161905">新客私域引流SOP</tspan>
                            </text>
                            <text id="新客户外呼触达引流全私域，进行机器人触达" font-family="PingFangSC-Regular, PingFang SC" font-size="10.26" font-weight="normal" line-spacing="17.1" fill="#0A0F2C" fill-opacity="0.45">
                                <tspan x="20.55" y="79.0190476">新客户外呼触达引流全私域，进行机器人触达自动</tspan>
                                <tspan x="20.55" y="96.1190476">推送营销内容，自动化完成预设引导，完成来客…</tspan>
                            </text>
                            <g id="AI外呼渠道icon" transform="translate(20.550000, 13.619048)">
                                <rect id="矩形" fill="#0364FF" x="0" y="0" width="20.55" height="20.4285714" rx="3.42"></rect>
                                <g id="1.全局/1.3-图标Icon/品牌和标识/mail-fill" transform="translate(3.425000, 3.404762)">
                                    <rect id="矩形" x="0" y="-8.8817842e-16" width="13.7" height="13.6190476"></rect>
                                    <path d="M12.2171049,10.0521767 L10.4815873,8.3269063 C10.1359429,7.98473294 9.56338685,7.99519806 9.20564153,8.3507873 L8.33131649,9.21983037 C8.27613264,9.18944775 8.21894873,9.15786482 8.1587962,9.1243189 C7.6067061,8.8202426 6.85089992,8.40347552 6.05559584,7.612377 C5.2581156,6.81969058 4.83823027,6.06726427 4.53150516,5.51810147 C4.49893826,5.45988686 4.46798147,5.40383529 4.43740204,5.35055942 L5.02424777,4.76803825 L5.31270824,4.4809287 C5.67104478,4.12473932 5.68096957,3.55583406 5.33592898,3.21267294 L3.60041132,1.48721496 C3.25555942,1.14444145 2.68280211,1.15490657 2.32446558,1.51109595 L1.83528281,2.00006866 L1.84878003,2.01329698 C1.68480084,2.22128667 1.54761482,2.46123438 1.44576306,2.7199368 C1.35167252,2.9662111 1.29310493,3.20123257 1.26629919,3.43664165 C1.03721136,5.32510303 1.90537272,7.05096112 4.26151059,9.39308635 C7.51835156,12.6301111 10.1430877,12.3856123 10.2562605,12.3735843 C10.5030218,12.3443769 10.7392671,12.2857622 10.9794873,12.1930265 C11.2375696,12.0927763 11.4787835,11.9568172 11.6878331,11.7942139 L11.6985503,11.8034912 L12.1940729,11.3212077 C12.5516295,10.9650308 12.5619568,10.3961255 12.2171049,10.0521767 Z M7.84773135,7.06278909 L6.81707513,6.03233051 L9.40085425,3.4635609 L8.36882692,2.43666571 L11.4718022,2.43775349 L11.4718022,5.51765135 L10.4370201,4.4912938 L7.84773135,7.06278909 Z" id="形状" fill="#FFFFFF" fill-rule="nonzero"></path>
                                </g>
                            </g>
                            <g id="加微渠道icon" transform="translate(47.950000, 13.619048)">
                                <rect id="矩形" fill="#00C881" x="0" y="0" width="20.55" height="20.4285714" rx="3.42"></rect>
                                <g id="1.全局/1.3-图标Icon/品牌和标识/mail-fill备份-2" transform="translate(3.425000, 4.255952)" fill="#FFFFFF" fill-rule="nonzero">
                                    <g id="加微信" transform="translate(0.000000, 0.000000)">
                                        <path d="M11.304029,5.82457483 C11.8407143,5.82305485 12.3712835,5.94161352 12.8575112,6.17113095 C12.8728013,6.01153274 12.8804464,5.85193452 12.8804464,5.69233631 C12.8804464,2.54901148 9.99824777,0 6.44022321,0 C2.88219866,0 0,2.54901148 0,5.69233631 C0,7.56191539 1.01985491,9.22021684 2.59321429,10.2568452 C2.63602679,10.2918048 2.68189732,10.3267645 2.72776786,10.3602041 C2.81492188,10.4270833 2.86537946,10.5334821 2.86690848,10.6459609 C2.86690848,10.6778805 2.8516183,10.725 2.8516183,10.7569196 C2.77516741,11.0745961 2.6375558,11.5974702 2.62226563,11.6126701 C2.60697545,11.6613095 2.59168527,11.6917092 2.59168527,11.7388287 C2.59168527,11.8345876 2.66813616,11.9136267 2.75987723,11.9136267 C2.79045759,11.9136267 2.82103795,11.8984269 2.8516183,11.8817071 L3.94027902,11.2326743 C4.01825893,11.1825149 4.12070313,11.1612351 4.21091518,11.1445153 C4.28736607,11.1293155 4.38522321,11.1353954 4.41580357,11.1369154 C4.48919643,11.1369154 4.65127232,11.1627551 4.69867188,11.174915 C5.25370536,11.3117134 5.83779018,11.3861926 6.44175223,11.3861926 C6.98761161,11.3861926 7.51665179,11.3253933 8.0227567,11.2129145 C7.76741071,10.7082802 7.62368304,10.1367666 7.62368304,9.53333333 C7.62368304,7.48439626 9.27043527,5.82457483 11.304029,5.82457483 L11.304029,5.82457483 Z M8.5625,3.40628189 C9.03496652,3.40628189 9.41875,3.78779762 9.41875,4.25747236 C9.41875,4.72714711 9.03496652,5.10866284 8.5625,5.10866284 C8.09003348,5.10866284 7.70625,4.72714711 7.70625,4.25747236 C7.70625,3.78627764 8.09003348,3.40628189 8.5625,3.40628189 Z M4.28277902,5.10866284 C3.8103125,5.10866284 3.42652902,4.72714711 3.42652902,4.25747236 C3.42652902,3.78779762 3.8103125,3.40628189 4.28277902,3.40628189 C4.75524554,3.40628189 5.13902902,3.78779762 5.13902902,4.25747236 C5.13902902,4.72714711 4.75524554,5.10866284 4.28277902,5.10866284 Z M12.84375,8.51190476 L11.9875,8.51190476 L11.9875,7.66071429 C11.9875,7.19103954 11.6037165,6.80952381 11.13125,6.80952381 C10.6587835,6.80952381 10.275,7.19103954 10.275,7.66071429 L10.275,8.51190476 L9.41875,8.51190476 C8.94628348,8.51190476 8.5625,8.89342049 8.5625,9.36309524 C8.5625,9.83276998 8.94628348,10.2142857 9.41875,10.2142857 L10.275,10.2142857 L10.275,11.0654762 C10.275,11.5351509 10.6587835,11.9166667 11.13125,11.9166667 C11.6037165,11.9166667 11.9875,11.5351509 11.9875,11.0654762 L11.9875,10.2142857 L12.84375,10.2142857 C13.3162165,10.2142857 13.7,9.83276998 13.7,9.36309524 C13.7,8.89342049 13.3162165,8.51190476 12.84375,8.51190476 Z" id="形状"></path>
                                    </g>
                                </g>
                            </g>
                            <g id="发微信渠道icon" transform="translate(75.350000, 13.619048)">
                                <rect id="矩形" fill="#00C881" x="0" y="0" width="20.55" height="20.4285714" rx="3.42"></rect>
                                <g id="1.全局/1.3-图标Icon/品牌和标识/mail-fill备份-4" transform="translate(3.425000, 3.404762)" fill="#FFFFFF" fill-rule="nonzero">
                                    <path d="M11.3754981,6.361208 C11.5390987,6.43145083 11.6990807,6.51377726 11.8541558,6.60826964 C13.2202036,7.44064769 13.9088931,9.03634905 13.5730309,10.5909227 C13.426453,11.2741891 13.4993436,12.2832907 13.6881424,13.1324369 C13.7178677,13.2499793 13.6910076,13.3745455 13.6154061,13.4697577 C13.5398046,13.5649699 13.4239892,13.6200886 13.3017821,13.6190327 C13.2970023,13.6190327 13.2205269,13.6063789 13.2205269,13.6063789 C12.334288,13.4318103 11.2297754,13.3121399 10.6757267,13.4720954 C10.4132846,13.5376941 10.1428267,13.5662802 9.87233619,13.55701 C8.36064745,13.5567316 7.00384992,12.6657949 6.40576334,11.3076652 C7.83142853,11.1345025 9.09441362,10.4397023 9.99584484,9.42104 L11.4965546,9.42128387 C11.6617879,9.42128387 11.795736,9.28487532 11.795736,9.11660685 C11.795736,8.94833837 11.6617879,8.81192982 11.4965546,8.81192982 L10.4653354,8.81237884 C10.9153854,8.13947098 11.2248083,7.36560295 11.3518973,6.5322351 L11.3754981,6.361208 Z M11.4963473,10.3860945 L9.5004221,10.3860945 C9.33507425,10.3860945 9.20103333,10.522503 9.20103333,10.6907715 C9.20103333,10.85904 9.33507425,10.9954485 9.5004221,10.9954485 L11.4963473,10.9954485 C11.6616951,10.9954485 11.795736,10.85904 11.795736,10.6907715 C11.795736,10.522503 11.6616951,10.3860945 11.4963473,10.3860945 Z M8.68791035,1.16769999 C10.4336343,2.56688852 11.1005165,4.90513934 10.3523575,7.00365521 C9.60419839,9.10217109 7.6034368,10.5053265 5.35872933,10.5057399 C4.98004263,10.5187183 4.60140151,10.4786977 4.23398261,10.3868594 C3.45831445,10.1629218 1.91199682,10.3304603 0.67126234,10.5748564 L0.65442878,10.5776244 L0.578102698,10.5898037 C0.567124289,10.5914645 0.559178012,10.5925717 0.557505111,10.5925717 C0.386415088,10.59405 0.224273571,10.5168838 0.118431459,10.3835867 C0.0125893462,10.2502896 -0.0250148308,10.075897 0.0166006406,9.91133757 C0.280918908,8.72253294 0.382965834,7.30979069 0.177756715,6.35321766 C-0.292450398,4.1768146 0.671714896,1.94283269 2.58418182,0.777503426 C4.49664875,-0.387825837 6.9421864,-0.231488547 8.68791035,1.16769999 Z M5.87940906,6.06645818 L3.08511384,6.06645818 C2.85362685,6.06645818 2.66596956,6.25743015 2.66596956,6.49300602 C2.66596956,6.72858189 2.85362685,6.91955386 3.08511384,6.91955386 L5.87940906,6.91955386 C6.11089605,6.91955386 6.29855334,6.72858189 6.29855334,6.49300602 C6.29855334,6.25743015 6.11089605,6.06645818 5.87940906,6.06645818 Z M7.55259975,3.86262767 L3.08482358,3.86262767 C2.85349689,3.86262767 2.66596956,4.05359964 2.66596956,4.28917551 C2.66596956,4.52475138 2.85349689,4.71572335 3.08482358,4.71572335 L7.55259975,4.71572335 C7.78392643,4.71572335 7.97145376,4.52475138 7.97145376,4.28917551 C7.97145376,4.05359964 7.78392643,3.86262767 7.55259975,3.86262767 Z" id="形状结合"></path>
                                </g>
                            </g>
                            <g id="编组-7备份-2" transform="translate(20.550000, 112.357143)">
                                <g id="闹钟备份" transform="translate(0.000000, 3.420000)">
                                    <rect id="矩形" fill="#000000" fill-rule="nonzero" opacity="0" x="0" y="0" width="10.275" height="10.26"></rect>
                                    <mask id="mask-9" fill="white">
                                        <use xlink:href="#path-8"></use>
                                    </mask>
                                    <use id="形状" fill-opacity="0.65" fill="#0A0F2C" fill-rule="nonzero" xlink:href="#path-8"></use>
                                </g>
                                <text id="title备份" font-family="PingFangSC-Regular, PingFang SC" font-size="10.26" font-weight="normal" line-spacing="17.1" fill="#0A0F2C" fill-opacity="0.65">
                                    <tspan x="17.1" y="11">周期性营销</tspan>
                                </text>
                            </g>
                        </g>
                        <text id="…" font-family="PingFangSC-Medium, PingFang SC" font-size="14" font-weight="400" fill="#000000" fill-opacity="0.8">
                            <tspan x="596" y="202">…</tspan>
                        </text>
                    </g>
                </g>
            </g>
        </g>
    </g>
</svg>