<?xml version="1.0" encoding="UTF-8"?>
<svg width="480px" height="438px" viewBox="0 0 480 438" version="1.1" xmlns="http://www.w3.org/2000/svg" xmlns:xlink="http://www.w3.org/1999/xlink">
    <title>编组 60</title>
    <g id="页面-1" stroke="none" stroke-width="1" fill="none" fill-rule="evenodd">
        <g id="产品官网-策略智能与自动化" transform="translate(-120.000000, -3112.000000)">
            <g id="编组-22" transform="translate(0.000000, 2964.000000)">
                <g id="编组-60" transform="translate(120.000000, 148.000000)">
                    <text id="策略知识图谱" font-family="PingFangSC-Medium, PingFang SC" font-size="36" font-weight="400" line-spacing="56" fill="#000000" fill-opacity="0.8">
                        <tspan x="1.13686838e-13" y="38">策略知识图谱</tspan>
                    </text>
                    <g id="编组-19" transform="translate(0.000000, 96.000000)">
                        <text id="智能化策略" font-family="PingFangSC-Medium, PingFang SC" font-size="22" font-weight="400" line-spacing="30" fill="#000000" fill-opacity="0.8">
                            <tspan x="68" y="23">智能化策略</tspan>
                        </text>
                        <text id="针对各行业独特的营销场景和需求，提炼最佳" font-family="PingFangSC-Regular, PingFang SC" font-size="16" font-weight="normal" line-spacing="24" fill="#000000" fill-opacity="0.65">
                            <tspan x="68" y="55">针对各行业独特的营销场景和需求，提炼最佳实践，</tspan>
                            <tspan x="68" y="79">为客户提供有针对性的解决方案</tspan>
                        </text>
                        <g id="编组-18">
                            <rect id="矩形" fill="#FFFFFF" x="0" y="0" width="48" height="48" rx="8"></rect>
                            <g id="智能化策略">
                                <rect id="矩形" x="0" y="0" width="48" height="48" rx="8"></rect>
                                <g id="策略管理" transform="translate(13.000000, 13.000000)" fill="#000000" fill-rule="nonzero">
                                    <rect id="矩形" opacity="0" x="0" y="0" width="22" height="22"></rect>
                                    <path d="M19.9478125,16.5917383 L2.25048828,16.5917383 C1.84547802,16.5912647 1.51727043,16.2630571 1.51679687,15.8580469 L1.51679687,3.74580078 C1.51727043,3.34079052 1.84547802,3.01258293 2.25048828,3.01210938 L19.9478125,3.01210938 C20.3528228,3.01258293 20.6810303,3.34079052 20.6815039,3.74580078 L20.6815039,15.8580469 C20.6810303,16.2630571 20.3528228,16.5912647 19.9478125,16.5917383 L19.9478125,16.5917383 Z M2.89802734,15.2109375 L19.3002734,15.2109375 L19.3002734,4.39333984 L2.89802734,4.39333984 L2.89802734,15.2109375 Z M3.44287109,17.6066602 L18.7554297,17.6066602 L18.7554297,18.9878906 L3.44287109,18.9878906 L3.44287109,17.6066602 Z M9.63982422,7.29802734 L17.4717383,7.29802734 L17.4717383,8.67925781 L9.63982422,8.67925781 L9.63982422,7.29802734 Z M9.63982422,11.1164453 L17.4717383,11.1164453 L17.4717383,12.4976758 L9.63982422,12.4976758 L9.63982422,11.1164453 Z M5.40568359,9.83318359 L4.14240234,8.23195313 L5.22693359,7.37644531 L5.63664062,7.89550781 L7.64328125,6.31984375 L8.49642578,7.40609375 L5.40568359,9.83318359 Z M5.40568359,13.8361523 L4.14240234,12.234707 L5.22693359,11.3791992 L5.63664062,11.8984766 L7.64328125,10.3228125 L8.49642578,11.4090625 L5.40568359,13.8361523 Z" id="形状"></path>
                                </g>
                            </g>
                        </g>
                    </g>
                    <g id="编组-20" transform="translate(0.000000, 212.000000)">
                        <text id="执行与控制模块" font-family="PingFangSC-Medium, PingFang SC" font-size="22" font-weight="400" line-spacing="30" fill="#000000" fill-opacity="0.8">
                            <tspan x="68" y="23">执行与控制模块</tspan>
                        </text>
                        <text id="根据客户行为特点，实时进行流程执行和控制" font-family="PingFangSC-Regular, PingFang SC" font-size="16" font-weight="normal" line-spacing="24" fill="#000000" fill-opacity="0.65">
                            <tspan x="68" y="55">根据客户行为特点，实时进行流程执行和控制，以实</tspan>
                            <tspan x="68" y="79">现精准的营销投放</tspan>
                        </text>
                        <g id="编组-18">
                            <rect id="矩形" fill="#FFFFFF" x="0" y="0" width="48" height="48" rx="8"></rect>
                            <g id="执行与控制模块">
                                <rect id="矩形" x="0" y="0" width="48" height="48" rx="8"></rect>
                                <g id="模块" transform="translate(12.000000, 12.000000)" fill="#000000" fill-rule="nonzero">
                                    <rect id="矩形" opacity="0" x="0" y="0" width="24" height="24"></rect>
                                    <path d="M17.2769062,12.70125 L11.2569844,12.70125 L11.2569844,6.70483594 C11.2569844,6.290625 10.9211953,5.95483594 10.5069844,5.95483594 L3.7370625,5.95483594 C3.32285156,5.95483594 2.9870625,6.290625 2.9870625,6.70483594 L2.9870625,20.2211953 C2.9870625,20.6354062 3.32285156,20.9711953 3.7370625,20.9711953 L17.2769062,20.9711953 C17.6911172,20.9711953 18.0269062,20.6354062 18.0269062,20.2211953 L18.0269062,13.45125 C18.0269062,13.0370391 17.6911172,12.70125 17.2769062,12.70125 Z M9.75698438,7.45483594 L9.75698438,12.70125 L4.4870625,12.70125 L4.4870625,7.45483594 L9.75698438,7.45483594 Z M4.4870625,14.2247578 L9.75698438,14.2247578 L9.75698438,19.4711953 L4.4870625,19.4711953 L4.4870625,14.2247578 Z M16.5269062,19.4711953 L11.2569844,19.4711953 L11.2569844,14.20125 L16.5269062,14.20125 L16.5269062,19.4711953 Z" id="形状"></path>
                                    <path d="M19.7700703,3.43823437 L13.2075703,3.43823437 C12.8060391,3.43823437 12.4805391,3.76373437 12.4805391,4.16526562 L12.4805391,10.7277656 C12.4805391,11.1292969 12.8060391,11.4547969 13.2075703,11.4547969 L19.7700703,11.4547969 C20.1716016,11.4547969 20.4971016,11.1292969 20.4971016,10.7277656 L20.4971016,4.16526562 C20.4971016,3.76373437 20.1716016,3.43823437 19.7700703,3.43823437 Z M19.0430625,10.0007344 L13.9346016,10.0007344 L13.9346016,4.89227344 L19.0430625,4.89227344 L19.0430625,10.0007344 Z" id="形状"></path>
                                    <polygon id="路径" points="15.7388203 6.69651562 17.2388203 6.69651562 17.2388203 8.19651562 15.7388203 8.19651562"></polygon>
                                </g>
                            </g>
                        </g>
                    </g>
                    <g id="编组-19" transform="translate(0.000000, 328.000000)">
                        <text id="运营体系建设" font-family="PingFangSC-Medium, PingFang SC" font-size="22" font-weight="400" line-spacing="30" fill="#000000" fill-opacity="0.8">
                            <tspan x="68" y="23">运营体系建设</tspan>
                        </text>
                        <text id="构建体系化的客户标签、内容标签及运营流程" font-family="PingFangSC-Regular, PingFang SC" font-size="16" font-weight="normal" line-spacing="24" fill="#000000" fill-opacity="0.65">
                            <tspan x="68" y="55">构建体系化的客户标签、内容标签及运营流程，提供</tspan>
                            <tspan x="68" y="79">行业策略解决方案和顾问式陪跑服务，助力客户在行</tspan>
                            <tspan x="68" y="103">业中占得先机</tspan>
                        </text>
                        <g id="编组-18">
                            <rect id="矩形" fill="#FFFFFF" x="0" y="0" width="48" height="48" rx="8"></rect>
                            <g id="运营体系建设">
                                <rect id="矩形" x="0" y="0" width="48" height="48" rx="8"></rect>
                                <g id="运营" transform="translate(12.000000, 12.000000)" fill="#000000" fill-rule="nonzero">
                                    <rect id="矩形" opacity="0" x="0" y="0" width="24" height="24"></rect>
                                    <path d="M8.503125,4.618125 C11.1078028,3.23899792 14.2799057,3.52029346 16.60125,5.33625 C16.2807476,6.38321999 16.7604553,7.50890466 17.7376253,8.00287488 C18.7147954,8.4968451 19.9056876,8.21566703 20.5587198,7.33679453 C21.211752,6.45792203 21.1373036,5.23655279 20.3823597,4.44350328 C19.6274157,3.65045377 18.4111888,3.51600132 17.50125,4.125 C14.6655926,1.93309372 10.7996765,1.63259957 7.659375,3.36 L7.69125,3.388125 C8.0417916,3.73939272 8.31791752,4.15772668 8.503125,4.618125 L8.503125,4.618125 Z M4.5,11.25 C4.50012501,10.2169829 4.71531577,9.19530568 5.131875,8.25 L5.274375,8.25 C6.35636667,8.25159103 7.28627577,7.48282603 7.48816764,6.41983582 C7.69005952,5.35684561 7.10675652,4.30067888 6.09952452,3.9054673 C5.09229251,3.51025572 3.94638891,3.88792689 3.37152351,4.80457201 C2.7966581,5.72121713 2.95563809,6.91723382 3.75,7.651875 C2.79071889,9.84984558 2.74833727,12.3397745 3.63226008,14.5691187 C4.51618289,16.7984629 6.25329978,18.5828303 8.458125,19.52625 C8.46683826,19.0082253 8.5823732,18.4975736 8.7975,18.02625 C6.17555543,16.7881329 4.50217978,14.1495728 4.5,11.25 Z M19.29375,9.50625 C20.2299209,13.4250109 17.9026552,17.3832667 14.023125,18.470625 C13.5216489,17.4977753 12.392862,17.0269097 11.3487041,17.3550088 C10.3045461,17.6831079 9.64795547,18.7149814 9.79305184,19.7998141 C9.93814821,20.8846467 10.8428352,21.7076994 11.9365158,21.7498626 C13.0301963,21.7920258 13.9955641,21.041067 14.22375,19.970625 C16.5469903,19.3786208 18.5380051,17.8841315 19.7552064,15.8186205 C20.9724076,13.7531095 21.3151801,11.2873144 20.7075,8.968125 C20.2780069,9.24228926 19.7968404,9.42543887 19.29375,9.50625 L19.29375,9.50625 Z" id="形状"></path>
                                </g>
                            </g>
                        </g>
                    </g>
                </g>
            </g>
        </g>
    </g>
</svg>