<?xml version="1.0" encoding="UTF-8"?>
<svg width="24px" height="25px" viewBox="0 0 24 25" version="1.1" xmlns="http://www.w3.org/2000/svg" xmlns:xlink="http://www.w3.org/1999/xlink">
    <title>政务-深</title>
    <g id="2023Q2-品牌官网2.0" stroke="none" stroke-width="1" fill="none" fill-rule="evenodd">
        <g id="画板" transform="translate(-187.000000, -659.000000)">
            <g id="政务-深" transform="translate(187.000000, 659.069565)">
                <rect id="矩形" x="0" y="0" width="24" height="24.0695652"></rect>
                <g id="编组-22" transform="translate(2.116444, 1.634783)">
                    <rect id="矩形" fill="#73E1DB" x="13.6435559" y="1.21779472" width="3.55140068" height="8.44887192" rx="0.8"></rect>
                    <path d="M17.3443645,10.6456618 C17.5590075,10.6456618 17.7328586,10.8476203 17.7328586,11.0969657 L17.7328586,18.5434804 L19.2081647,18.5434804 C19.4218365,18.5434804 19.5966588,18.7454389 19.5966588,18.9947843 L19.5966588,19.6717402 C19.5966588,20.2948609 19.161822,20.8 18.6254236,20.8 L1.14319141,20.8 C0.606793059,20.8 0.171956279,20.2948609 0.171956279,19.6717402 L0.171956279,18.9947843 C0.171956279,18.7454389 0.346778601,18.5434804 0.560450336,18.5434804 L2.0357565,18.5434804 L2.0357565,11.0969657 C2.0357565,10.8476203 2.20960758,10.6456618 2.42425053,10.6456618 L17.3443645,10.6456618 Z M9.98721659,11.7624658 C9.83158423,11.7056307 9.65934531,11.7857217 9.6025102,11.941354 L8.81023158,14.1108617 C8.76836227,14.225513 8.66120462,14.3033675 8.53922643,14.3077584 L6.23107449,14.3908454 C6.14267944,14.3940274 6.06019372,14.436056 6.00566213,14.5056988 C5.90351569,14.6361509 5.92646201,14.8247094 6.05691417,14.9268558 L7.87541098,16.3507723 C7.97151253,16.4260216 8.01244311,16.5519929 7.97892574,16.6693579 L7.34468802,18.8902162 C7.32039868,18.9752682 7.33488074,19.0667043 7.38426378,19.1400877 C7.47676617,19.2775467 7.66318669,19.3139912 7.80064567,19.2214888 L9.71681713,17.93201 C9.81808046,17.8638653 9.9505346,17.8638653 10.0517979,17.93201 L11.9679694,19.2214888 C12.0413528,19.2708718 12.1327889,19.2853539 12.2178409,19.2610646 C12.377157,19.2155667 12.4694249,19.0495323 12.423927,18.8902162 L11.7896893,16.6693579 C11.7561719,16.5519929 11.7971025,16.4260216 11.8932041,16.3507723 L13.7117009,14.9268558 C13.7813437,14.8723242 13.8233722,14.7898385 13.8265542,14.7014434 C13.8325146,14.5358653 13.7031188,14.3968058 13.5375406,14.3908454 L11.2293886,14.3077584 C11.1074104,14.3033675 11.0002528,14.225513 10.9583835,14.1108617 L10.1661049,11.941354 C10.135763,11.8582686 10.070302,11.7928076 9.98721659,11.7624658 Z M10.6078777,0.241978174 L10.7244259,0.337880239 L19.5170175,8.36770525 C19.7223162,8.5548976 19.8120824,8.86601845 19.7453618,9.15912463 C19.6786413,9.4522308 19.4682233,9.67113874 19.2101072,9.71597572 L19.1129837,9.72500529 L0.655631371,9.72500529 C0.395764501,9.72591468 0.160115256,9.54791294 0.0554139993,9.27161719 C-0.0492872578,8.99532145 -0.0031506845,8.67321894 0.172927521,8.45119647 L0.250626324,8.36770525 L9.04418914,0.337880239 C9.49567377,-0.0745155674 10.1215226,-0.112899292 10.6078777,0.241978174 L10.6078777,0.241978174 Z" id="形状备份" fill="#2B58F9" fill-rule="nonzero"></path>
                    <path d="M13.6435559,3.0032 L17.1945559,6.2462 L17.1953124,8.86666664 C17.1953124,9.30849444 16.8371402,9.66666664 16.3953124,9.66666664 L14.4439117,9.66666664 C14.0020839,9.66666664 13.6439117,9.30849444 13.6439117,8.86666664 L13.6435559,3.0032 Z" id="形状结合" fill="#071EF3" fill-rule="nonzero"></path>
                </g>
            </g>
        </g>
    </g>
</svg>