<?xml version="1.0" encoding="UTF-8"?>
<svg width="25px" height="25px" viewBox="0 0 25 25" version="1.1" xmlns="http://www.w3.org/2000/svg" xmlns:xlink="http://www.w3.org/1999/xlink">
    <title>综治-浅</title>
    <g id="2023Q2-品牌官网2.0" stroke="none" stroke-width="1" fill="none" fill-rule="evenodd">
        <g id="画板" transform="translate(-90.000000, -703.000000)">
            <g id="综治-浅" transform="translate(90.514014, 703.139130)">
                <rect id="矩形备份-7" x="0" y="0" width="24" height="24.0695652"></rect>
                <g id="编组-21" transform="translate(2.200000, 3.046514)">
                    <circle id="椭圆形" fill="#73E1DB" cx="4.91557928" cy="12.4915464" r="4.91557928"></circle>
                    <g id="编组-12" transform="translate(3.968228, 0.000000)" fill-rule="nonzero">
                        <path d="M6.88505708,6.45071392 C6.88505708,6.96479652 7.30180337,7.38154281 7.81588597,7.38154281 C8.32996856,7.38154281 8.74671485,6.96479652 8.74671485,6.45071392 C8.74671485,5.93663132 8.32996856,5.51988503 7.81588597,5.51988503 C7.30180337,5.51988503 6.88505708,5.93663132 6.88505708,6.45071392 Z" id="路径" fill="#2B58F9"></path>
                        <path d="M14.8892628,1.40685947 C12.6226558,0.5080326 10.4732872,0 7.81588597,0 C5.15848473,0 3.0091161,0.5080326 0.742509178,1.40685947 C0.312635444,1.5631772 0,1.99305092 0,2.50108352 L0,9.84801631 C0,13.7168799 5.47112018,16.9604725 7.30785338,17.8592994 C7.4641711,17.9374583 7.65956825,17.9765377 7.81588597,17.9765377 C7.97220368,17.9765377 8.16760083,17.9374583 8.32391855,17.8592994 C10.1606518,16.9604725 15.6317719,13.7168799 15.6317719,9.84801631 L15.6317719,2.50108352 C15.6317719,1.99305094 15.3191365,1.5631772 14.8892628,1.40685947 Z M8.37862975,8.03160441 L8.37862975,12.6461035 C8.37862975,12.9837498 8.15353224,13.2088473 7.81588597,13.2088473 C7.47823969,13.2088473 7.25314219,12.9837498 7.25314219,12.6461035 L7.25314219,8.14415318 L7.25314219,8.03160441 C6.57784964,7.8065069 6.1276546,7.18748873 6.1276546,6.45592181 C6.1276546,5.49925736 6.85922152,4.76769044 7.81588597,4.76769044 C8.77255042,4.76769044 9.50411733,5.49925736 9.50411733,6.45592181 C9.50411733,7.18748873 8.99764792,7.8065069 8.37862975,8.03160441 Z" id="形状" fill="#FFFFFF"></path>
                    </g>
                    <path d="M4.91565072,7.57596709 C7.63045019,7.57596709 9.83123,9.77674689 9.83123,12.4915464 C9.83123,13.8938931 9.24399503,15.1590838 8.30201619,16.0546273 C6.20773397,14.5425285 3.96829951,12.3232401 3.96829951,9.84801631 L3.9675465,7.66732247 C4.27432754,7.60737757 4.59132097,7.57596709 4.91565072,7.57596709 Z" id="形状结合" fill="#071EF3"></path>
                </g>
            </g>
        </g>
    </g>
</svg>