<?xml version="1.0" encoding="UTF-8"?>
<svg width="32px" height="32px" viewBox="0 0 32 32" version="1.1" xmlns="http://www.w3.org/2000/svg" xmlns:xlink="http://www.w3.org/1999/xlink">
    <title>编组 4</title>
    <g id="页面-1" stroke="none" stroke-width="1" fill="none" fill-rule="evenodd">
        <g id="编组-4" transform="translate(0.927491, 0.000000)">
            <g id="分析机器人">
                <rect id="矩形备份-5" x="0" y="0" width="32" height="32"></rect>
                <g id="编组-4" transform="translate(1.000000, 2.000000)" fill-rule="nonzero">
                    <path d="M19.8091286,11.4606654 L30,11.4606654 L30,11.4606654 L30,18.6401231 C30,23.0584011 26.418278,26.6401231 22,26.6401231 L15.8091286,26.6401231 L15.8091286,26.6401231 L15.8091286,15.4606654 C15.8091286,13.2515264 17.5999896,11.4606654 19.8091286,11.4606654 Z" id="矩形" fill="#00C8BD" opacity="0.551279"></path>
                    <path d="M24.4303039,0 L3,0 C1.34314575,0 0,1.34314575 0,3 L0,20.7823843 C0,22.4392385 1.34314575,23.7823843 3,23.7823843 L6.89169953,23.7823843 L6.89169953,23.7823843 L6.89169953,28.4614832 L13.8635351,23.8440499 L15.5019791,23.8365821 C22.081424,23.806594 27.4025853,18.4706948 27.4143757,11.8911921 L27.4303039,3.00537596 C27.4332681,1.34852437 26.0925314,0.00297387893 24.4356798,0 C24.4338878,0 24.4320958,0 24.4303039,0 Z" id="形状备份" fill="#2B58F9"></path>
                    <path d="M27.4147619,11.4603117 L27.4143757,11.8911921 C27.4027691,18.3681221 22.2460447,23.6399211 15.8087619,23.8313264 L15.8091286,15.4606654 C15.8091286,13.2515264 17.5999896,11.4606654 19.8091286,11.4606654 L27.4147619,11.4603117 Z" id="形状结合" fill="#071EF3"></path>
                    <g id="编组-3" transform="translate(8.514523, 5.692297)" fill="#FFFFFF">
                        <rect id="矩形" x="4.5951393" y="4.74358054" width="2.16241849" height="7.58972886" rx="1.08120924"></rect>
                        <rect id="矩形备份-7" x="9.1902786" y="0" width="2.16241849" height="12.3333094" rx="1.08120924"></rect>
                        <rect id="矩形备份-6" x="0" y="6.64101276" width="2.16241849" height="5.69229665" rx="1.08120924"></rect>
                    </g>
                </g>
            </g>
            <rect id="矩形备份-2" x="0" y="0" width="32" height="32"></rect>
        </g>
    </g>
</svg>