<?xml version="1.0" encoding="UTF-8"?>
<svg width="32px" height="32px" viewBox="0 0 32 32" version="1.1" xmlns="http://www.w3.org/2000/svg" xmlns:xlink="http://www.w3.org/1999/xlink">
    <title>编组 3</title>
    <g id="页面-1" stroke="none" stroke-width="1" fill="none" fill-rule="evenodd">
        <g id="编组-3" transform="translate(0.927491, 0.000000)">
            <g id="虚拟机器人">
                <rect id="矩形" x="0" y="0" width="32" height="32"></rect>
                <g id="编组-10" transform="translate(0.000000, 2.000000)">
                    <g id="编组-9" opacity="0.547572545" transform="translate(11.000000, 5.000000)" fill="#00C8BD" fill-rule="nonzero">
                        <path d="M17,6.5 C17,10.0894174 14.0901122,13 10.5,13 C6.90988776,13 4,10.0901122 4,6.5 C4,2.91058258 6.90988776,0 10.5,0 C14.0901122,0 17,2.90988776 17,6.5 Z" id="路径"></path>
                        <path d="M15.6017374,13.0383543 C14.1763241,14.2384937 12.4095962,14.9051604 10.5532895,14.9051604 C8.67540554,14.9051604 6.8916773,14.223152 5.45972537,13 C1.68564934,14.4776848 0,19.6415621 0,22 L21,22 C21,19.6624826 19.3012735,14.5348675 15.6017374,13.0390516 L15.6017374,13.0383543 Z" id="路径"></path>
                    </g>
                    <g id="编组-8" fill="#2B58F9" fill-rule="nonzero">
                        <path d="M21,8 C21,12.4177445 17.4185997,16 13,16 C8.58140032,16 5,12.4185997 5,8 C5,3.58225548 8.58140032,0 13,0 C17.4185997,0 21,3.58140032 21,8 Z" id="路径"></path>
                        <path d="M19.3164368,16.0468774 C17.5516393,17.5137146 15.3642619,18.3285294 13.0659775,18.3285294 C10.7409783,18.3285294 8.53255285,17.4949636 6.75965999,16 C2.08699442,17.8060592 0,24.1174647 0,27 L26,27 C26,24.1430342 23.8968148,17.8759492 19.3164368,16.0477297 L19.3164368,16.0468774 Z" id="路径"></path>
                    </g>
                    <path d="M16.4597254,18 C17.8916773,19.223152 19.6754055,19.9051604 21.5532895,19.9051604 C22.219058,19.9051604 22.8733038,19.8194061 23.5044134,19.6540423 C25.1369298,22.0799587 25.9411189,25.0157201 25.9968801,26.8045697 L26,27 L11,27 C11,24.6415621 12.6856493,19.4776848 16.4597254,18 Z M19.3164368,16.0468774 C20.3917726,16.4762888 21.3305731,17.1503102 22.1376776,17.9673881 C21.9269899,17.9895894 21.7147115,18 21.5,18 C20.2096974,18 19.0072604,17.6241251 17.996201,16.9758871 C18.3603208,16.7619389 18.7115393,16.5234587 19.0485868,16.2619925 L19.3164368,16.0468774 Z M21,8 C21,11.2650713 19.043693,14.0737644 16.2389574,15.3171651 C15.4592418,14.245113 15,12.9262334 15,11.5 C15,8.26764322 17.3597548,5.58578321 20.4509989,5.08420783 C20.80587,5.98790543 21,6.97126249 21,8 Z" id="形状结合" fill="#0333D2" fill-rule="nonzero"></path>
                    <path d="M11,11 C12.0240214,12.3807119 13.9734428,12.6698667 15.3541547,11.6458453 C15.6000239,11.4634935 15.8176482,11.2458692 16,11 L16,11 L16,11" id="路径-2" stroke="#FFFFFF" stroke-width="1.5" stroke-linecap="round" stroke-linejoin="round"></path>
                </g>
            </g>
            <rect id="矩形备份" x="0" y="0" width="32" height="32"></rect>
        </g>
    </g>
</svg>