<?xml version="1.0" encoding="UTF-8"?>
<svg width="32px" height="32px" viewBox="0 0 32 32" version="1.1" xmlns="http://www.w3.org/2000/svg" xmlns:xlink="http://www.w3.org/1999/xlink">
    <title>编组 2</title>
    <g id="页面-1" stroke="none" stroke-width="1" fill="none" fill-rule="evenodd">
        <g id="编组-2" transform="translate(0.927491, 0.000000)">
            <g id="nlszhinengyuyinjiaohu" transform="translate(2.000000, 2.260597)">
                <path d="M25.1631931,0 L2.8318584,0 C1.26786619,2.87300707e-16 2.52555405e-16,1.26786619 0,2.8318584 L0,19.4062763 C1.91533805e-16,20.9702686 1.26786619,22.2381347 2.8318584,22.2381347 L25.1342557,22.2381347 C26.6963174,22.2381347 27.9633826,20.9732799 27.9661098,19.4112205 L27.9950472,2.83680255 C27.9977778,1.27281273 26.7321271,0.002734899 25.1681373,4.31602007e-06 C25.1664892,1.43867391e-06 25.1648412,4.40858936e-16 25.1631931,0 Z" id="路径" fill="#2B58F9" fill-rule="nonzero"></path>
                <path d="M17.1742399,17.1742536 L10.3045522,17.1742536 C7.45902867,17.1742536 5.15227609,19.4810062 5.15227609,22.3265297 C5.15227609,25.1720533 7.45902867,27.4788058 10.3045522,27.4788058 L17.1504255,27.4788058 C19.9978807,27.4788058 22.3080419,25.1739773 22.3146225,22.3265297 C22.3211835,19.4875748 20.0250745,17.1808284 17.1861196,17.1742674 C17.1821597,17.1742582 17.1781998,17.1742536 17.1742399,17.1742536 Z" id="路径" fill="#00C8BD" fill-rule="nonzero" opacity="0.546078637"></path>
                <path d="M17.1861196,17.1742674 C20.0250745,17.1808284 22.3211835,19.4875748 22.3146225,22.3265297 L22.3120324,22.2372536 L5.1530324,22.237347 C5.19939652,19.5056322 7.37173617,17.2916767 10.0867582,17.1787737 L10.3045522,17.1742536 Z" id="形状结合" fill="#2B58F9" fill-rule="nonzero" style="mix-blend-mode: multiply;"></path>
                <g id="&gt;_" transform="translate(7.599607, 5.534403)" stroke="#FFFFFF" stroke-linecap="round">
                    <path d="M0,0 L5.40130277,2.29190415 L0,4.5838083" id="路径" stroke-width="2.3" stroke-linejoin="round" fill-rule="nonzero"></path>
                    <line x1="8.11781813" y1="7.346287" x2="13.4087057" y2="7.346287" id="直线" stroke-width="2.5"></line>
                </g>
            </g>
            <rect id="矩形" x="0" y="0" width="32" height="32"></rect>
        </g>
    </g>
</svg>