<?xml version="1.0" encoding="UTF-8"?>
<svg width="148px" height="27px" viewBox="0 0 148 27" version="1.1" xmlns="http://www.w3.org/2000/svg" xmlns:xlink="http://www.w3.org/1999/xlink">
    <title>画板</title>
    <defs>
        <polygon id="path-1" points="0 0 148 0 148 27.0815365 0 27.0815365"></polygon>
    </defs>
    <g id="画板" stroke="none" stroke-width="1" fill="none" fill-rule="evenodd">
        <g id="编组备份-8" transform="translate(-0.000000, -0.210935)">
            <mask id="mask-2" fill="white">
                <use xlink:href="#path-1"></use>
            </mask>
            <g id="Clip-2"></g>
            <path d="M53.3680758,15.9625044 L68.156935,15.9625044 L68.156935,10.6229102 L53.3680758,10.6229102 L53.3680758,15.9625044 Z M68.156935,21.5086339 C68.156935,22.8098612 67.6135503,23.4597918 66.5292398,23.4597918 L53.3680758,23.4597918 L53.3680758,17.8117606 L68.156935,17.8117606 L68.156935,21.5086339 Z M71.9245657,3.74195044 L49.5436205,3.74195044 C49.2911885,3.74195044 49.0865655,3.94657342 49.0865655,4.1990055 L49.0865655,5.13333203 C49.0865655,5.38576411 49.2911885,5.59038708 49.5436205,5.59038708 L58.9538186,5.59038708 C58.7502884,6.68699138 58.5120625,7.71365779 58.2418727,8.67147908 L51.4843971,8.67147908 C51.0636769,8.67147908 50.7227297,9.01242631 50.7227297,9.43314644 L50.7227297,24.3411185 C50.7227297,24.7618387 51.0636769,25.1027859 51.4843971,25.1027859 L67.0384751,25.1027859 C69.5464042,25.1705382 70.7675854,24.0403309 70.7006526,21.7140764 L70.7006526,9.43314644 C70.7006526,9.01242631 70.3597054,8.67147908 69.9389852,8.67147908 L61.1921044,8.67147908 C61.4622941,7.84998204 61.7005201,6.82331563 61.9037771,5.59038708 L71.9245657,5.59038708 C72.1769978,5.59038708 72.3816208,5.38576411 72.3816208,5.13333203 L72.3816208,4.1990055 C72.3816208,3.94657342 72.1769978,3.74195044 71.9245657,3.74195044 L71.9245657,3.74195044 Z" id="Fill-1" fill="#333333" mask="url(#mask-2)"></path>
            <path d="M112.675982,15.1701026 C112.757121,15.3138031 112.909291,15.4031378 113.074301,15.4031378 L115.021634,15.4031378 C115.395911,15.4031378 115.611461,14.9775002 115.390174,14.6756198 L112.262912,10.4118671 C112.176855,10.2943933 112.039985,10.2250018 111.894645,10.2250018 L110.676742,10.2250018 C110.327053,10.2250018 110.107131,10.6014644 110.278424,10.9060767 L112.675982,15.1701026 Z" id="Fill-3" fill="#333333" mask="url(#mask-2)"></path>
            <path d="M108.476403,3.0809554 C107.274346,3.38447492 105.834062,3.53664448 104.769148,3.53664448 L100.343118,3.53664448 C100.090686,3.53664448 99.886063,3.74126745 99.886063,3.99369954 L99.886063,4.92802607 C99.886063,5.18045815 100.090686,5.38508112 100.343118,5.38508112 L103.242535,5.38508112 L103.242535,8.98005271 L100.037686,8.98005271 C99.7855272,8.98005271 99.5806311,9.18440249 99.5806311,9.43683457 L99.5806311,10.268713 C99.5806311,10.5208719 99.7855272,10.7254949 100.037686,10.7254949 L102.822088,10.7254949 C102.67511,11.0984059 101.728489,13.4235676 99.0306898,18.5741109 C98.9965404,18.6394045 98.9774168,18.7137135 98.9774168,18.787203 L98.9774168,20.4075219 C98.9774168,20.8582934 99.562327,21.0383289 99.8136663,20.6637787 C101.398197,18.3009161 102.944753,15.5564002 102.944753,15.5564002 L103.242535,15.1583552 L103.242535,25.2086489 C103.242535,25.461081 103.447158,25.665704 103.69959,25.665704 L105.328925,25.665704 C105.581357,25.665704 105.78598,25.461081 105.78598,25.2086489 L105.78598,15.5558538 L107.858163,18.2506482 C108.124255,18.5967861 108.677475,18.4085548 108.677475,17.9722626 L108.677475,16.6590147 C108.677475,16.5694068 108.652067,16.482804 108.602346,16.4079486 C108.243641,15.8667496 106.688069,13.5129024 105.78598,12.05732 L105.78598,10.7254949 L108.584588,10.7254949 C108.836747,10.7254949 109.04137,10.5208719 109.04137,10.268713 L109.04137,9.43683457 C109.04137,9.18440249 108.836747,8.98005271 108.584588,8.98005271 L105.78598,8.98005271 L105.78598,5.38508112 C106.138948,5.38508112 107.427881,5.24383936 108.681846,4.9583507 C108.891386,4.91054159 109.04137,4.72640824 109.04137,4.51167705 L109.04137,3.52298474 C109.04137,3.22602189 108.764624,3.00828556 108.476403,3.0809554" id="Fill-4" fill="#333333" mask="url(#mask-2)"></path>
            <path d="M113.389649,9.33935863 C113.469422,9.48688388 113.623504,9.57867736 113.791519,9.57867736 L115.545977,9.57867736 C115.912058,9.57867736 116.129521,9.16970461 115.924625,8.86618508 L113.20415,4.83246249 C113.11946,4.70651965 112.977125,4.63111786 112.825502,4.63111786 L111.60514,4.63111786 C111.258729,4.63111786 111.038534,5.00129694 111.203271,5.30563605 L113.389649,9.33935863 Z" id="Fill-5" fill="#333333" mask="url(#mask-2)"></path>
            <path d="M130.428842,14.4102656 L132.557577,13.0500283 C132.68871,12.9661574 132.76821,12.8210909 132.76821,12.6648235 L132.76821,11.7963369 C132.76821,11.4510186 132.400763,11.2305503 132.096424,11.3931012 L130.428842,12.2834434 L130.428842,8.07514927 L132.311428,8.07514927 C132.563587,8.07514927 132.76821,7.8705263 132.76821,7.61809421 L132.76821,6.78621577 C132.76821,6.53378369 132.563587,6.32916071 132.311428,6.32916071 L130.428842,6.32916071 L130.428842,2.88389992 C130.428842,2.63146784 130.224219,2.42711806 129.971787,2.42711806 L128.241097,2.42711806 C127.988665,2.42711806 127.784042,2.63146784 127.784042,2.88389992 L127.784042,6.32916071 L125.494396,6.32916071 C125.241964,6.32916071 125.037341,6.53378369 125.037341,6.78621577 L125.037341,7.61809421 C125.037341,7.8705263 125.241964,8.07514927 125.494396,8.07514927 L127.784042,8.07514927 L127.784042,13.6882115 L124.974506,15.1812216 C124.825342,15.2607213 124.731909,15.415896 124.731909,15.5850037 L124.731909,17.0323902 C124.731909,17.3872704 125.119026,17.6066459 125.423912,17.4244249 L127.784042,16.0111877 L127.784042,22.9656369 C127.850975,23.7182888 127.443915,24.0600556 126.563134,23.9928497 L125.90173,23.9928497 C125.649298,23.9928497 125.444675,24.1974727 125.444675,24.4499047 L125.444675,25.2817832 C125.444675,25.5342153 125.649298,25.7388382 125.90173,25.7388382 L127.478884,25.7388382 C129.51282,25.805771 130.495775,24.8818259 130.428842,22.9656369 L130.428842,14.4102656 Z" id="Fill-6" fill="#333333" mask="url(#mask-2)"></path>
            <path d="M147.70495,24.1319059 C145.469396,23.2694296 143.68516,22.2790981 142.12631,21.0978034 C144.348204,19.0581303 146.001853,16.3444855 147.087802,12.9535905 C147.102828,12.9066009 147.110477,12.8568795 147.110477,12.8079776 L147.110477,11.5933531 C147.110477,11.3411942 146.906128,11.1365712 146.653696,11.1365712 L141.719249,11.1365712 L141.719249,7.13126092 L147.467543,7.13126092 C147.719975,7.13126092 147.924598,6.92663794 147.924598,6.67447906 L147.924598,5.84205422 C147.924598,5.58962214 147.719975,5.38499916 147.467543,5.38499916 L141.719249,5.38499916 L141.719249,2.84647222 C141.719249,2.59404014 141.514626,2.38941717 141.262194,2.38941717 L139.42933,2.38941717 C139.176898,2.38941717 138.972275,2.59404014 138.972275,2.84647222 L138.972275,5.38499916 L133.936473,5.38499916 C133.684041,5.38499916 133.479691,5.58962214 133.479691,5.84205422 L133.479691,6.67447906 C133.479691,6.92663794 133.684041,7.13126092 133.936473,7.13126092 L138.972275,7.13126092 L138.972275,11.1365712 L134.037829,11.1365712 C133.785397,11.1365712 133.580774,11.3411942 133.580774,11.5933531 L133.580774,12.4252315 C133.580774,12.6776636 133.785397,12.8820134 134.037829,12.8820134 L144.364049,12.8820134 C143.346671,15.6901837 142.024408,17.9145365 140.396713,19.5575306 C139.0933,18.1762572 137.947521,16.4168821 136.958009,14.2785857 C136.883427,14.1171275 136.722788,14.0114011 136.544938,14.0114011 L134.777914,14.0114011 C134.450899,14.0114011 134.22606,14.347704 134.355827,14.6473988 C135.530292,17.3591313 136.966751,19.5091751 138.667116,21.0978034 C136.851463,22.4074997 134.819986,23.432527 132.571865,24.179715 C132.385819,24.241457 132.25851,24.413843 132.25851,24.6102701 L132.25851,25.3905147 C132.25851,25.7033229 132.568313,25.924884 132.86391,25.824075 C135.911946,24.7837489 138.423153,23.6524488 140.396713,22.4323605 C142.29733,23.7117321 144.560476,24.809156 147.394054,25.7858278 C147.689924,25.8877295 148,25.6653488 148,25.3525407 L148,24.5575435 C148,24.3684927 147.881433,24.1999314 147.70495,24.1319059" id="Fill-7" fill="#333333" mask="url(#mask-2)"></path>
            <path d="M122.659617,16.1097291 L119.926575,16.5446554 L119.926575,2.86442113 C119.926575,2.61198905 119.721952,2.40736607 119.46952,2.40736607 L117.738011,2.40736607 C117.485852,2.40736607 117.281229,2.61198905 117.281229,2.86442113 L117.281229,16.9659219 L110.134723,18.1032322 C109.912889,18.1384744 109.749519,18.329984 109.749519,18.5545502 L109.749519,19.7347521 C109.749519,20.0158697 110.000858,20.2300545 110.278424,20.1860701 L117.281229,19.0714349 L117.281229,19.5574486 L117.281229,25.2087582 C117.281229,25.4609171 117.485852,25.6658132 117.738011,25.6658132 L119.46952,25.6658132 C119.721952,25.6658132 119.926575,25.4609171 119.926575,25.2087582 L119.926575,19.5574486 L119.926575,18.6504416 L122.803044,18.192567 C123.025151,18.1570516 123.188522,17.9658152 123.188522,17.741249 L123.188522,16.5610471 C123.188522,16.2799295 122.937183,16.0654715 122.659617,16.1097291" id="Fill-8" fill="#333333" mask="url(#mask-2)"></path>
            <path d="M82.1339135,9.35643332 L80.908088,9.35643332 C80.622053,9.35643332 80.4065022,9.61651485 80.4592288,9.8973592 L82.3691343,20.0427247 C82.4098403,20.2585487 82.5980716,20.4150894 82.8177203,20.4150894 L84.5787346,20.4150894 C84.8743315,20.4150894 85.0917946,20.1388893 85.0226763,19.8514883 L82.5778552,9.70612278 C82.5284069,9.50095341 82.3448199,9.35643332 82.1339135,9.35643332" id="Fill-9" fill="#333333" mask="url(#mask-2)"></path>
            <path d="M78.7795446,12.5774011 L78.7795446,6.44390257 L96.7355521,6.44390257 C96.987711,6.44390257 97.192334,6.23927959 97.192334,5.98684751 L97.192334,5.15496906 C97.192334,4.90253698 96.987711,4.69791401 96.7355521,4.69791401 L88.3424587,4.69791401 L87.9138159,2.76861168 C87.8673727,2.55934439 87.6818734,2.41045317 87.4676886,2.41045317 L85.650123,2.41045317 C85.3578045,2.41045317 85.1406145,2.68118931 85.2042689,2.96667798 L85.5886541,4.69791401 L76.6931552,4.69791401 C76.2724351,4.69791401 75.9314879,5.03913443 75.9314879,5.45958137 L75.9314879,12.7828437 C75.9314879,15.9325076 75.7946172,18.2254323 75.5244275,19.6635302 C75.3271808,21.0570974 74.8433526,22.2140777 74.0721235,23.4068466 C74.0251339,23.4795165 73.998634,23.5652997 73.998634,23.6519025 L73.998634,24.6332185 C73.998634,25.0217016 74.458421,25.2391648 74.751286,24.9840007 C77.6242034,22.4807159 78.9677759,18.5811321 78.7795446,12.5774011" id="Fill-10" fill="#333333" mask="url(#mask-2)"></path>
            <path d="M96.9491359,22.9886945 L92.8176096,22.9886945 C94.3182691,18.7932406 95.7315063,11.5754315 96.11234,9.55679445 C96.1650666,9.2756769 95.9489694,9.01860051 95.6629344,9.01860051 L93.596215,9.01860051 C93.3631798,9.01860051 93.1683918,9.1901669 93.1424383,9.42183617 C92.9501091,11.1549846 92.1045709,18.1064286 90.4323449,22.9886945 L79.1450248,22.9886945 C78.8928659,22.9886945 78.6885161,23.1930443 78.6885161,23.4452032 L78.6885161,24.2779012 C78.6885161,24.5297869 78.8928659,24.7344099 79.1450248,24.7344099 L96.9491359,24.7344099 C97.201568,24.7344099 97.4059178,24.5297869 97.4059178,24.2779012 L97.4059178,23.4452032 C97.4059178,23.1930443 97.201568,22.9886945 96.9491359,22.9886945" id="Fill-11" fill="#333333" mask="url(#mask-2)"></path>
            <path d="M87.5948882,9.35643332 L86.1980427,9.35643332 C85.9158323,9.35643332 85.7013744,9.60968498 85.7475443,9.88779738 L87.430698,20.0331629 C87.4673061,20.2536312 87.6579962,20.4150894 87.8814696,20.4150894 L89.5588862,20.4150894 C89.8457409,20.4150894 90.0615648,20.1533687 90.0071991,19.8717047 L88.043201,9.7263392 C88.0016753,9.51133482 87.8137173,9.35643332 87.5948882,9.35643332" id="Fill-12" fill="#333333" mask="url(#mask-2)"></path>
            <path d="M22.6085165,1.51808938 C20.2087726,1.51808938 17.9644765,2.18086019 16.046102,3.33128388 C16.0433701,1.49104308 14.5511796,-5.46389785e-05 12.7106656,-5.46389785e-05 L11.0496406,-5.46389785e-05 C10.3743028,-5.46389785e-05 9.82682028,0.547427925 9.82682028,1.22303889 L9.82682028,14.298966 L9.82682028,14.2997856 L9.82682028,14.3008784 L9.82682028,14.6043979 L9.83283057,14.5970217 C9.89457261,17.2912697 10.7895591,19.7789824 12.2708218,21.8131915 C12.271095,21.8131915 12.2716414,21.8129184 12.2719146,21.8126452 C15.6734642,21.0220191 19.8317636,19.6418385 24.2020623,17.7742783 C28.4737377,15.9490632 32.2919095,13.9328849 35.1902341,12.0587679 C34.1302379,6.0686967 28.9026536,1.51808938 22.6085165,1.51808938" id="Fill-13" fill="#2B58F9" mask="url(#mask-2)"></path>
            <path d="M20.1936376,23.3704844 C17.5895439,25.8950784 19.1167033,26.5182359 19.2314452,26.5635863 C19.5360575,26.6794209 19.8357523,26.7687557 20.1359935,26.8403327 C20.9361813,26.9971466 21.7623227,27.0815638 22.6084072,27.0815638 C29.5923615,27.0815638 35.2644338,21.4794293 35.3843664,14.5241606 C30.2376478,16.9345591 24.8483322,19.6864513 20.1936376,23.3704844" id="Fill-14" fill="#2B58F9" mask="url(#mask-2)"></path>
            <path d="M44.4925202,3.33387923 C43.606276,1.70700365 39.496332,1.71164796 33.8253524,3.04019472 C33.7026879,3.06860699 33.6587035,3.22077655 33.7472187,3.31038447 C34.0313414,3.59723911 34.3042631,3.89502154 34.5657106,4.20373177 C34.5998599,4.24416461 34.6531329,4.26438103 34.7058596,4.25809755 C37.1782733,3.95976873 38.8679837,4.19061841 39.3302295,5.03970814 C40.4721841,7.13565935 33.7220847,12.1919504 24.253423,16.3330386 C14.7850344,20.4741268 6.1834932,22.1318734 5.04181174,20.0359222 C4.5839371,19.1953015 5.39614552,17.8782289 7.14295366,16.3357706 C7.17710302,16.3054459 7.19759264,16.2614615 7.19731944,16.2161112 L7.1943143,14.8629769 C7.1940411,14.7351217 7.04870142,14.6599931 6.9427018,14.7315701 C2.10469345,17.9946099 -0.736806625,21.0259805 0.166648884,22.6842735 C1.6954475,25.4908046 13.0114531,23.3945802 25.1970381,18.0650942 C37.3823499,12.7356083 46.0213188,6.14013717 44.4925202,3.33387923" id="Fill-15" fill="#00C8BD" mask="url(#mask-2)"></path>
        </g>
    </g>
</svg>