<?xml version="1.0" encoding="UTF-8"?>
<svg width="32px" height="32px" viewBox="0 0 32 32" version="1.1" xmlns="http://www.w3.org/2000/svg" xmlns:xlink="http://www.w3.org/1999/xlink">
    <title>编组 8</title>
    <g id="页面-1" stroke="none" stroke-width="1" fill="none" fill-rule="evenodd">
        <g id="编组-8" transform="translate(0.927491, 0.183594)">
            <g id="编组-7" transform="translate(1.267781, 3.886250)">
                <rect id="矩形" fill="#00C8BD" opacity="0.547224499" x="15.0749372" y="10.3573194" width="14.3894999" height="13.8701805" rx="2"></rect>
                <g id="编组-6" transform="translate(-0.000000, 0.000000)" fill-rule="nonzero">
                    <rect id="矩形" fill="#000000" opacity="0" x="1.52547972e-06" y="0" width="24.2274999" height="24.2274999"></rect>
                    <path d="M0.00728870319,20.876037 C-0.0506891659,21.7257939 0.239080619,22.5626388 0.810121186,23.1945889 C1.38116175,23.826539 2.18445895,24.199352 3.03572619,24.2274999 L21.2063511,24.2274999 C22.0576184,24.199352 22.8609156,23.826539 23.4319561,23.1945889 C24.0029967,22.5626388 24.2927665,21.7257939 24.2347886,20.876037 L24.2347886,8.54019372 L0.00728870319,8.54019372 L0.00728870319,20.876037 Z" id="路径" fill="#2B58F9"></path>
                    <path d="M21.2063511,1.42108547e-14 L3.03572619,1.42108547e-14 C2.18445895,0.0281479395 1.38116175,0.400960969 0.810121186,1.03291104 C0.239080619,1.66486112 -0.0506891659,2.50170603 0.00728870319,3.35146294 L0.00728870319,6.71302855 L24.2347886,6.71302855 L24.2347886,3.35146294 C24.2986145,2.50031167 24.0108683,1.66018572 23.4386152,1.02689381 C22.8663621,0.393601901 22.0595963,0.0224706954 21.2063511,1.42108547e-14 L21.2063511,1.42108547e-14 Z" id="路径" fill="#2B58F9"></path>
                    <path d="M4.24710119,4.49219016 L3.82311994,4.49219016 C3.61252789,4.4922075 3.41070483,4.40786481 3.26274598,4.25800757 C3.11478714,4.10815033 3.03302419,3.90526846 3.03572619,3.69469374 L3.03572619,3.02843749 C3.03302419,2.81786277 3.11478714,2.6149809 3.26274598,2.46512366 C3.41070483,2.31526642 3.61252789,2.23092373 3.82311994,2.23094107 L4.24710119,2.23094107 C4.4603513,2.22824572 4.66579659,2.31107603 4.8175432,2.46092876 C4.96928981,2.61078149 5.05467663,2.81517035 5.05467663,3.02843749 L5.05467663,3.70479642 C5.05201412,3.91630689 4.96543134,4.11809514 4.81397854,4.26576307 C4.66252574,4.41343099 4.45861131,4.49488027 4.24710119,4.49219016 L4.24710119,4.49219016 Z" id="路径" fill="#FFFFFF"></path>
                    <path d="M8.28502573,4.49219016 L7.88122618,4.49219016 C7.66797607,4.4948855 7.46253078,4.4120552 7.31078417,4.26220247 C7.15903756,4.11234974 7.0736337,3.90796088 7.07365074,3.69469374 L7.07365074,3.02843749 C7.07091577,2.81342839 7.15512083,2.60642552 7.30716752,2.45437883 C7.45921421,2.30233214 7.66621708,2.21812708 7.88122618,2.22086205 L8.30520743,2.22086205 C8.51758143,2.22079744 8.72097839,2.30651421 8.86923746,2.45857332 C9.01749653,2.61063242 9.09804455,2.81613324 9.09260118,3.02843749 L9.09260118,3.70479642 C9.09260118,4.13966198 8.74007299,4.49219016 8.30520743,4.49219016 L8.28502573,4.49219016 Z" id="路径" fill="#FFFFFF"></path>
                    <path d="M12.3229266,4.49219016 L11.8989454,4.49219016 C11.6883533,4.4922075 11.4865303,4.40786481 11.3385714,4.25800757 C11.1906126,4.10815033 11.1088496,3.90526846 11.1115516,3.69469374 L11.1115516,3.02843749 C11.1088496,2.81786277 11.1906126,2.6149809 11.3385714,2.46512366 C11.4865303,2.31526642 11.6883533,2.23092373 11.8989454,2.23094107 L12.3229266,2.23094107 C12.5369993,2.22542736 12.7440838,2.30734263 12.8964563,2.45780902 C13.0488288,2.60827541 13.1333443,2.81431236 13.1305257,3.02843749 L13.1305257,3.70479642 C13.1306842,3.91898081 13.0435827,4.1239874 12.8893013,4.27255467 C12.7350199,4.42112193 12.5268736,4.50042809 12.3128476,4.49219016 L12.3229266,4.49219016 Z" id="路径" fill="#FFFFFF"></path>
                </g>
                <path d="M24.2353898,10.3566624 L24.2362412,20.9968388 C24.294219,21.8159666 24.0044492,22.6226479 23.4334087,23.2318196 C22.8623681,23.8409914 22.0590709,24.2003666 21.2078037,24.2274999 L17.0763898,24.2274999 C15.9718203,24.2274999 15.0763898,23.3320694 15.0763898,22.2274999 L15.0763898,12.3573194 C15.0763898,11.2527499 15.9718203,10.3573194 17.0763898,10.3573194 L24.2353898,10.3566624 Z" id="形状结合" fill="#0333D2"></path>
                <path d="M17.8253898,14.2730771 L16.1278447,18.3484258 C16.4131812,18.6254916 16.5909995,19.0142108 16.5909995,19.4442831 C16.5909995,20.2899541 15.9066056,20.9743481 15.0609346,20.9743481 C14.2152636,20.9743481 13.5308696,20.2899541 13.5308696,19.4442831 C13.5308696,19.2437205 13.5701551,19.0514286 13.6404554,18.8756779 L10.5203635,15.755586 C10.3983718,15.7866008 10.2701772,15.8031421 10.1378472,15.8031421 C9.93521701,15.8031421 9.74292506,15.7638566 9.5651067,15.6914887 L7.94199726,17.5399725 C7.97094444,17.6578289 7.98748568,17.7818882 7.98748568,17.9100828 C7.98748568,18.7557539 7.30309176,19.4401478 6.45742073,19.4401478 C5.6117497,19.4401478 4.92735578,18.7557539 4.92735578,17.9100828 C4.92735578,17.0644118 5.6117497,16.3800179 6.45742073,16.3800179 C6.7551631,16.3800179 7.03429657,16.4647918 7.26794162,16.6136629 L8.75251816,14.9223209 C8.65947367,14.723826 8.60778228,14.5046545 8.60778228,14.2710094 C8.60778228,13.4253384 9.2921762,12.7409445 10.1378472,12.7409445 C10.9835183,12.7409445 11.6679122,13.4253384 11.6679122,14.2710094 C11.6679122,14.5708195 11.5810707,14.8499529 11.4321995,15.0856656 L14.4034202,18.0568864 C14.6019151,17.9617742 14.8231542,17.9100828 15.0588669,17.9100828 L15.0960847,17.9100828 L16.7729532,13.8843579 C16.4566019,13.6031568 16.2560394,13.1958287 16.2560394,12.7388768 C16.2560394,11.8932058 16.9404333,11.2088119 17.7861043,11.2088119 C18.6317754,11.2088119 19.3161741,11.8932058 19.3161741,12.7388768 C19.3182369,13.5762773 18.6524519,14.2524005 17.8253898,14.2730771 Z" id="路径" fill="#FFFFFF" fill-rule="nonzero"></path>
            </g>
            <rect id="矩形" fill="#000000" fill-rule="nonzero" opacity="0" x="0" y="0" width="32" height="32"></rect>
        </g>
    </g>
</svg>