<?xml version="1.0" encoding="UTF-8"?>
<svg width="32px" height="32px" viewBox="0 0 32 32" version="1.1" xmlns="http://www.w3.org/2000/svg" xmlns:xlink="http://www.w3.org/1999/xlink">
    <title>编组 5</title>
    <g id="页面-1" stroke="none" stroke-width="1" fill="none" fill-rule="evenodd">
        <g id="编组-5" transform="translate(0.927491, 0.000000)">
            <g id="编组" transform="translate(2.500000, 2.000000)" fill-rule="nonzero">
                <path d="M4,9 L5,9 C6.65685425,9 8,10.3431458 8,12 L8,28 L8,28 L4,28 C1.790861,28 0,26.209139 0,24 L0,13 C0,10.790861 1.790861,9 4,9 Z" id="矩形备份-2" fill="#00C8BD" opacity="0.550037202"></path>
                <g id="wenjian" transform="translate(5.000000, 0.000000)" fill="#2B58F9">
                    <path d="M19.6533333,2 C20.1813333,2.49751244 20.6017778,2.91044776 20.9146667,3.23880597 C21.2275556,3.56716418 21.4671111,3.84577114 21.6333333,4.07462687 C21.7995556,4.30348259 21.9022222,4.49751244 21.9413333,4.65671642 C21.9804444,4.8159204 22,4.95522388 22,5.07462687 L22,5.55223881 L17.6586667,5.55223881 C17.4631111,5.55223881 17.292,5.47761194 17.1453333,5.32835821 C16.9986667,5.17910448 16.8764444,5.00497512 16.7786667,4.80597015 C16.6808889,4.60696517 16.6075556,4.40298507 16.5586667,4.19402985 C16.5097778,3.98507463 16.4853333,3.82089552 16.4853333,3.70149254 L16.4853333,2.66453526e-15 L16.5733333,2.66453526e-15 C16.7297778,2.66453526e-15 16.8911111,0.0248756219 17.0573333,0.0746268657 C17.2235556,0.124378109 17.4142222,0.218905473 17.6293333,0.358208955 C17.8444444,0.497512438 18.1133333,0.696517413 18.436,0.955223881 C18.7586667,1.21393035 19.1644444,1.56218905 19.6533333,2 Z M14.6373333,3.73134328 C14.6373333,4.12935323 14.696,4.54228856 14.8133333,4.97014925 C14.9306667,5.39800995 15.1164444,5.7960199 15.3706667,6.1641791 C15.6248889,6.53233831 15.9475556,6.8358209 16.3386667,7.07462687 C16.7297778,7.31343284 17.1893333,7.43283582 17.7173333,7.43283582 L22,7.43283582 L22,24.2686567 C22,24.8457711 21.8875556,25.3631841 21.6626667,25.8208955 C21.4377778,26.278607 21.1395556,26.6666667 20.768,26.9850746 C20.3964444,27.3034826 19.9857778,27.5522388 19.536,27.7313433 C19.0862222,27.9104478 18.6462222,28 18.216,28 L3.784,28 C3.41244444,28 3.00666667,27.8905473 2.56666667,27.6716418 C2.12666667,27.4527363 1.716,27.1641791 1.33466667,26.8059701 C0.953333333,26.4477612 0.635555556,26.039801 0.381333333,25.5820896 C0.127111111,25.1243781 0,24.6467662 0,24.1492537 L0,3.85074627 C0,3.43283582 0.0928888889,3 0.278666667,2.55223881 C0.464444444,2.10447761 0.718666667,1.69154229 1.04133333,1.31343284 C1.364,0.935323383 1.73066667,0.621890547 2.14133333,0.373134328 C2.552,0.124378109 2.98222222,0 3.432,0 L14.6373333,0 L14.6373333,3.73134328 Z" id="形状"></path>
                </g>
                <path d="M5,9 C7.209139,9 9,10.790861 9,13 L9,28 L9,28 L8,28 C6.34314575,28 5,26.6568542 5,25 L5,9 L5,9 Z" id="矩形备份-3" fill="#071EF3"></path>
                <g id="流程" transform="translate(10.664531, 10.708364)" fill="#FFFFFF">
                    <rect id="矩形" opacity="0" x="0" y="0" width="10.5767482" height="10.5767482"></rect>
                    <path d="M8.99436753,7.40359981 C8.32368686,7.40547755 7.72664582,7.82890611 7.50308735,8.46123331 L2.64854583,8.46123331 C1.84805971,8.52576072 1.14298209,7.93820062 1.06209557,7.13920176 C1.14297687,6.34019875 1.84805608,5.75263274 2.64854583,5.81715988 L3.80137007,5.81715988 C4.0311536,6.44082642 4.62534514,6.85514132 5.28999574,6.85514132 C5.95464634,6.85514132 6.54883788,6.44082642 6.77862141,5.81715988 L7.93673402,5.81715988 C9.32155243,5.88325439 10.5011854,4.82158008 10.5808178,3.43747416 C10.50118,2.05337235 9.32154863,0.991704109 7.93673402,1.05779877 L3.08217185,1.05779877 C2.8246189,0.329329003 2.07971179,-0.107645713 1.31818032,0.0230124305 C0.556648858,0.153670574 1.94251943e-06,0.813956655 1.94251943e-06,1.58661552 C1.94251943e-06,2.35927439 0.556648858,3.01956047 1.31818032,3.15021861 C2.07971179,3.28087676 2.8246189,2.84390204 3.08217185,2.11543228 L7.93673402,2.11543228 C8.73722378,2.05090514 9.44230298,2.63847115 9.52318428,3.43747416 C9.4423082,4.23648131 8.73722741,4.82405323 7.93673402,4.75952637 L6.78390978,4.75952637 C6.55619326,4.13210046 5.96011134,3.71431418 5.29263993,3.71431418 C4.62516851,3.71431418 4.0290866,4.13210046 3.80137007,4.75952637 L2.64854583,4.75952637 C1.26373502,4.69343157 0.0841052812,5.75509373 0.00446206566,7.13919143 C0.0840944175,8.52329735 1.26372742,9.58497167 2.64854583,9.51887715 L7.503108,9.51887715 C7.77223334,10.2800517 8.57008817,10.717709 9.35663588,10.535616 C10.1431836,10.3535231 10.6675298,9.60976414 10.5747651,8.80776048 C10.4820004,8.00575682 9.80171505,7.40133302 8.99436753,7.40359981 Z" id="路径"></path>
                </g>
            </g>
            <rect id="矩形备份-3" x="0" y="0" width="32" height="32"></rect>
        </g>
    </g>
</svg>